G04*
G04 #@! TF.GenerationSoftware,Altium Limited,Altium Designer,21.9.2 (33)*
G04*
G04 Layer_Color=255*
%FSTAX24Y24*%
%MOIN*%
G70*
G04*
G04 #@! TF.SameCoordinates,FB3CEF1A-BC9A-443B-9A05-8590AB0A4EFD*
G04*
G04*
G04 #@! TF.FilePolarity,Positive*
G04*
G01*
G75*
%ADD26C,0.0630*%
%ADD27C,0.0512*%
%ADD28R,0.0630X0.0630*%
%ADD29C,0.1575*%
D26*
X03355Y014122D02*
D03*
Y0155D02*
D03*
X026119Y020936D02*
D03*
X02415D02*
D03*
X0484Y0137D02*
D03*
X0504D02*
D03*
X0494D02*
D03*
X04305Y02D02*
D03*
X04405D02*
D03*
X04505D02*
D03*
X04605D02*
D03*
X04705D02*
D03*
X04805D02*
D03*
X04905D02*
D03*
X05005D02*
D03*
X054841Y027865D02*
D03*
Y026865D02*
D03*
Y025865D02*
D03*
Y024865D02*
D03*
X02415Y01531D02*
D03*
X03035Y0222D02*
D03*
Y0192D02*
D03*
X05435Y0172D02*
D03*
Y0162D02*
D03*
Y0152D02*
D03*
X03375Y0428D02*
D03*
X03275D02*
D03*
X03175D02*
D03*
X03075D02*
D03*
X02975D02*
D03*
X02875D02*
D03*
X02775D02*
D03*
X02675D02*
D03*
X02575D02*
D03*
X02475D02*
D03*
X03475D02*
D03*
X03575D02*
D03*
X03675D02*
D03*
X03775D02*
D03*
X03875D02*
D03*
X03975D02*
D03*
X0346Y01985D02*
D03*
Y02085D02*
D03*
Y02185D02*
D03*
D27*
X02435Y02475D02*
D03*
Y025537D02*
D03*
X0397Y01815D02*
D03*
X0407D02*
D03*
X0344Y0248D02*
D03*
X0334D02*
D03*
X032637Y024755D02*
D03*
X027637D02*
D03*
X0436Y02485D02*
D03*
X0446D02*
D03*
X0456D02*
D03*
X0466D02*
D03*
X0476D02*
D03*
X0486D02*
D03*
X0496D02*
D03*
X0506D02*
D03*
X0516D02*
D03*
X0526D02*
D03*
X0436Y02785D02*
D03*
X0446D02*
D03*
X0456D02*
D03*
X0466D02*
D03*
X0476D02*
D03*
X0486D02*
D03*
X0496D02*
D03*
X0506D02*
D03*
X0516D02*
D03*
X0526D02*
D03*
X0199Y03845D02*
D03*
Y03945D02*
D03*
Y04045D02*
D03*
X036298Y015503D02*
D03*
Y014503D02*
D03*
X0336Y01815D02*
D03*
X0386D02*
D03*
X035983Y021842D02*
D03*
X040983D02*
D03*
X0262Y02575D02*
D03*
Y02475D02*
D03*
X0526Y0172D02*
D03*
X0476D02*
D03*
X047597Y015504D02*
D03*
X052597D02*
D03*
X0519Y02215D02*
D03*
X0469D02*
D03*
X0486Y0236D02*
D03*
X0496D02*
D03*
X04375Y0448D02*
D03*
X03875D02*
D03*
D28*
X02415Y01431D02*
D03*
D29*
X022585Y030595D02*
D03*
X052112D02*
D03*
X022585Y0428D02*
D03*
X052112D02*
D03*
M02*
