G04*
G04 #@! TF.GenerationSoftware,Altium Limited,Altium Designer,21.9.2 (33)*
G04*
G04 Layer_Color=2752767*
%FSTAX24Y24*%
%MOIN*%
G70*
G04*
G04 #@! TF.SameCoordinates,FB3CEF1A-BC9A-443B-9A05-8590AB0A4EFD*
G04*
G04*
G04 #@! TF.FilePolarity,Positive*
G04*
G01*
G75*
%ADD31C,0.0020*%
%ADD32C,0.0027*%
D31*
X03347Y014042D02*
Y014202D01*
X03363D01*
Y014042D01*
X03347D01*
Y01542D02*
Y01558D01*
X03363D01*
Y01542D01*
X03347D01*
X026038Y020856D02*
Y021016D01*
X026198D01*
Y020856D01*
X026038D01*
X02407D02*
Y021016D01*
X02423D01*
Y020856D01*
X02407D01*
X04832Y01362D02*
Y01378D01*
X04848D01*
Y01362D01*
X04832D01*
X05032D02*
Y01378D01*
X05048D01*
Y01362D01*
X05032D01*
X04932D02*
Y01378D01*
X04948D01*
Y01362D01*
X04932D01*
X04297Y01992D02*
Y02008D01*
X04313D01*
Y01992D01*
X04297D01*
X04397D02*
Y02008D01*
X04413D01*
Y01992D01*
X04397D01*
X04497D02*
Y02008D01*
X04513D01*
Y01992D01*
X04497D01*
X04597D02*
Y02008D01*
X04613D01*
Y01992D01*
X04597D01*
X04697D02*
Y02008D01*
X04713D01*
Y01992D01*
X04697D01*
X04797D02*
Y02008D01*
X04813D01*
Y01992D01*
X04797D01*
X04897D02*
Y02008D01*
X04913D01*
Y01992D01*
X04897D01*
X04997D02*
Y02008D01*
X05013D01*
Y01992D01*
X04997D01*
X054761Y027785D02*
Y027945D01*
X054921D01*
Y027785D01*
X054761D01*
Y026785D02*
Y026945D01*
X054921D01*
Y026785D01*
X054761D01*
Y025785D02*
Y025945D01*
X054921D01*
Y025785D01*
X054761D01*
Y024785D02*
Y024945D01*
X054921D01*
Y024785D01*
X054761D01*
X02407Y01523D02*
Y01539D01*
X02423D01*
Y01523D01*
X02407D01*
Y01423D02*
Y01439D01*
X02423D01*
Y01423D01*
X02407D01*
X03027Y02212D02*
Y02228D01*
X03043D01*
Y02212D01*
X03027D01*
Y01912D02*
Y01928D01*
X03043D01*
Y01912D01*
X03027D01*
X05427Y01712D02*
Y01728D01*
X05443D01*
Y01712D01*
X05427D01*
Y01612D02*
Y01628D01*
X05443D01*
Y01612D01*
X05427D01*
Y01512D02*
Y01528D01*
X05443D01*
Y01512D01*
X05427D01*
X03367Y04272D02*
Y04288D01*
X03383D01*
Y04272D01*
X03367D01*
X03267D02*
Y04288D01*
X03283D01*
Y04272D01*
X03267D01*
X03167D02*
Y04288D01*
X03183D01*
Y04272D01*
X03167D01*
X03067D02*
Y04288D01*
X03083D01*
Y04272D01*
X03067D01*
X02967D02*
Y04288D01*
X02983D01*
Y04272D01*
X02967D01*
X02867D02*
Y04288D01*
X02883D01*
Y04272D01*
X02867D01*
X02767D02*
Y04288D01*
X02783D01*
Y04272D01*
X02767D01*
X02667D02*
Y04288D01*
X02683D01*
Y04272D01*
X02667D01*
X02567D02*
Y04288D01*
X02583D01*
Y04272D01*
X02567D01*
X02467D02*
Y04288D01*
X02483D01*
Y04272D01*
X02467D01*
X03467D02*
Y04288D01*
X03483D01*
Y04272D01*
X03467D01*
X03567D02*
Y04288D01*
X03583D01*
Y04272D01*
X03567D01*
X03667D02*
Y04288D01*
X03683D01*
Y04272D01*
X03667D01*
X03767D02*
Y04288D01*
X03783D01*
Y04272D01*
X03767D01*
X03867D02*
Y04288D01*
X03883D01*
Y04272D01*
X03867D01*
X03967D02*
Y04288D01*
X03983D01*
Y04272D01*
X03967D01*
X022585Y030515D02*
X022505Y030675D01*
X022665D01*
X022585Y030515D01*
X052112D02*
X052032Y030675D01*
X052192D01*
X052112Y030515D01*
X022585Y04272D02*
X022505Y04288D01*
X022665D01*
X022585Y04272D01*
X052112D02*
X052032Y04288D01*
X052192D01*
X052112Y04272D01*
X03452Y01977D02*
Y01993D01*
X03468D01*
Y01977D01*
X03452D01*
Y02077D02*
Y02093D01*
X03468D01*
Y02077D01*
X03452D01*
Y02177D02*
Y02193D01*
X03468D01*
Y02177D01*
X03452D01*
X022638Y041259D02*
X022678Y041299D01*
X022718D01*
X022678Y041339D01*
X022718Y041379D01*
X022678D01*
X022638Y041419D01*
X022598Y041379D01*
X022558D01*
X022598Y041339D01*
X022558Y041299D01*
X022598D01*
X022638Y041259D01*
X058071Y045196D02*
X058111Y045236D01*
X058151D01*
X058111Y045276D01*
X058151Y045316D01*
X058111D01*
X058071Y045356D01*
X058031Y045316D01*
X057991D01*
X058031Y045276D01*
X057991Y045236D01*
X058031D01*
X058071Y045196D01*
X057087Y043227D02*
X057127Y043267D01*
X057167D01*
X057127Y043307D01*
X057167Y043347D01*
X057127D01*
X057087Y043387D01*
X057047Y043347D01*
X057007D01*
X057047Y043307D01*
X057007Y043267D01*
X057047D01*
X057087Y043227D01*
X058071Y041259D02*
X058111Y041299D01*
X058151D01*
X058111Y041339D01*
X058151Y041379D01*
X058111D01*
X058071Y041419D01*
X058031Y041379D01*
X057991D01*
X058031Y041339D01*
X057991Y041299D01*
X058031D01*
X058071Y041259D01*
X057087Y03929D02*
X057127Y03933D01*
X057167D01*
X057127Y03937D01*
X057167Y03941D01*
X057127D01*
X057087Y03945D01*
X057047Y03941D01*
X057007D01*
X057047Y03937D01*
X057007Y03933D01*
X057047D01*
X057087Y03929D01*
X058071Y037322D02*
X058111Y037362D01*
X058151D01*
X058111Y037402D01*
X058151Y037442D01*
X058111D01*
X058071Y037482D01*
X058031Y037442D01*
X057991D01*
X058031Y037402D01*
X057991Y037362D01*
X058031D01*
X058071Y037322D01*
X057087Y035353D02*
X057127Y035393D01*
X057167D01*
X057127Y035433D01*
X057167Y035473D01*
X057127D01*
X057087Y035513D01*
X057047Y035473D01*
X057007D01*
X057047Y035433D01*
X057007Y035393D01*
X057047D01*
X057087Y035353D01*
X058071Y033385D02*
X058111Y033425D01*
X058151D01*
X058111Y033465D01*
X058151Y033505D01*
X058111D01*
X058071Y033545D01*
X058031Y033505D01*
X057991D01*
X058031Y033465D01*
X057991Y033425D01*
X058031D01*
X058071Y033385D01*
X057087Y031416D02*
X057127Y031456D01*
X057167D01*
X057127Y031496D01*
X057167Y031536D01*
X057127D01*
X057087Y031576D01*
X057047Y031536D01*
X057007D01*
X057047Y031496D01*
X057007Y031456D01*
X057047D01*
X057087Y031416D01*
X058071Y029448D02*
X058111Y029488D01*
X058151D01*
X058111Y029528D01*
X058151Y029568D01*
X058111D01*
X058071Y029608D01*
X058031Y029568D01*
X057991D01*
X058031Y029528D01*
X057991Y029488D01*
X058031D01*
X058071Y029448D01*
Y025511D02*
X058111Y025551D01*
X058151D01*
X058111Y025591D01*
X058151Y025631D01*
X058111D01*
X058071Y025671D01*
X058031Y025631D01*
X057991D01*
X058031Y025591D01*
X057991Y025551D01*
X058031D01*
X058071Y025511D01*
Y021574D02*
X058111Y021614D01*
X058151D01*
X058111Y021654D01*
X058151Y021694D01*
X058111D01*
X058071Y021734D01*
X058031Y021694D01*
X057991D01*
X058031Y021654D01*
X057991Y021614D01*
X058031D01*
X058071Y021574D01*
Y017637D02*
X058111Y017677D01*
X058151D01*
X058111Y017717D01*
X058151Y017757D01*
X058111D01*
X058071Y017797D01*
X058031Y017757D01*
X057991D01*
X058031Y017717D01*
X057991Y017677D01*
X058031D01*
X058071Y017637D01*
Y0137D02*
X058111Y01374D01*
X058151D01*
X058111Y01378D01*
X058151Y01382D01*
X058111D01*
X058071Y01386D01*
X058031Y01382D01*
X057991D01*
X058031Y01378D01*
X057991Y01374D01*
X058031D01*
X058071Y0137D01*
X057087Y011731D02*
X057127Y011771D01*
X057167D01*
X057127Y011811D01*
X057167Y011851D01*
X057127D01*
X057087Y011891D01*
X057047Y011851D01*
X057007D01*
X057047Y011811D01*
X057007Y011771D01*
X057047D01*
X057087Y011731D01*
X056102Y045196D02*
X056142Y045236D01*
X056182D01*
X056142Y045276D01*
X056182Y045316D01*
X056142D01*
X056102Y045356D01*
X056062Y045316D01*
X056022D01*
X056062Y045276D01*
X056022Y045236D01*
X056062D01*
X056102Y045196D01*
X055118Y043227D02*
X055158Y043267D01*
X055198D01*
X055158Y043307D01*
X055198Y043347D01*
X055158D01*
X055118Y043387D01*
X055078Y043347D01*
X055038D01*
X055078Y043307D01*
X055038Y043267D01*
X055078D01*
X055118Y043227D01*
X056102Y041259D02*
X056142Y041299D01*
X056182D01*
X056142Y041339D01*
X056182Y041379D01*
X056142D01*
X056102Y041419D01*
X056062Y041379D01*
X056022D01*
X056062Y041339D01*
X056022Y041299D01*
X056062D01*
X056102Y041259D01*
X055118Y03929D02*
X055158Y03933D01*
X055198D01*
X055158Y03937D01*
X055198Y03941D01*
X055158D01*
X055118Y03945D01*
X055078Y03941D01*
X055038D01*
X055078Y03937D01*
X055038Y03933D01*
X055078D01*
X055118Y03929D01*
X056102Y037322D02*
X056142Y037362D01*
X056182D01*
X056142Y037402D01*
X056182Y037442D01*
X056142D01*
X056102Y037482D01*
X056062Y037442D01*
X056022D01*
X056062Y037402D01*
X056022Y037362D01*
X056062D01*
X056102Y037322D01*
X055118Y035353D02*
X055158Y035393D01*
X055198D01*
X055158Y035433D01*
X055198Y035473D01*
X055158D01*
X055118Y035513D01*
X055078Y035473D01*
X055038D01*
X055078Y035433D01*
X055038Y035393D01*
X055078D01*
X055118Y035353D01*
X056102Y033385D02*
X056142Y033425D01*
X056182D01*
X056142Y033465D01*
X056182Y033505D01*
X056142D01*
X056102Y033545D01*
X056062Y033505D01*
X056022D01*
X056062Y033465D01*
X056022Y033425D01*
X056062D01*
X056102Y033385D01*
X055118Y031416D02*
X055158Y031456D01*
X055198D01*
X055158Y031496D01*
X055198Y031536D01*
X055158D01*
X055118Y031576D01*
X055078Y031536D01*
X055038D01*
X055078Y031496D01*
X055038Y031456D01*
X055078D01*
X055118Y031416D01*
X056102Y029448D02*
X056142Y029488D01*
X056182D01*
X056142Y029528D01*
X056182Y029568D01*
X056142D01*
X056102Y029608D01*
X056062Y029568D01*
X056022D01*
X056062Y029528D01*
X056022Y029488D01*
X056062D01*
X056102Y029448D01*
X055118Y023542D02*
X055158Y023582D01*
X055198D01*
X055158Y023622D01*
X055198Y023662D01*
X055158D01*
X055118Y023702D01*
X055078Y023662D01*
X055038D01*
X055078Y023622D01*
X055038Y023582D01*
X055078D01*
X055118Y023542D01*
Y019605D02*
X055158Y019645D01*
X055198D01*
X055158Y019685D01*
X055198Y019725D01*
X055158D01*
X055118Y019765D01*
X055078Y019725D01*
X055038D01*
X055078Y019685D01*
X055038Y019645D01*
X055078D01*
X055118Y019605D01*
Y015668D02*
X055158Y015708D01*
X055198D01*
X055158Y015748D01*
X055198Y015788D01*
X055158D01*
X055118Y015828D01*
X055078Y015788D01*
X055038D01*
X055078Y015748D01*
X055038Y015708D01*
X055078D01*
X055118Y015668D01*
X054134Y045196D02*
X054174Y045236D01*
X054214D01*
X054174Y045276D01*
X054214Y045316D01*
X054174D01*
X054134Y045356D01*
X054094Y045316D01*
X054054D01*
X054094Y045276D01*
X054054Y045236D01*
X054094D01*
X054134Y045196D01*
Y041259D02*
X054174Y041299D01*
X054214D01*
X054174Y041339D01*
X054214Y041379D01*
X054174D01*
X054134Y041419D01*
X054094Y041379D01*
X054054D01*
X054094Y041339D01*
X054054Y041299D01*
X054094D01*
X054134Y041259D01*
Y037322D02*
X054174Y037362D01*
X054214D01*
X054174Y037402D01*
X054214Y037442D01*
X054174D01*
X054134Y037482D01*
X054094Y037442D01*
X054054D01*
X054094Y037402D01*
X054054Y037362D01*
X054094D01*
X054134Y037322D01*
Y033385D02*
X054174Y033425D01*
X054214D01*
X054174Y033465D01*
X054214Y033505D01*
X054174D01*
X054134Y033545D01*
X054094Y033505D01*
X054054D01*
X054094Y033465D01*
X054054Y033425D01*
X054094D01*
X054134Y033385D01*
Y029448D02*
X054174Y029488D01*
X054214D01*
X054174Y029528D01*
X054214Y029568D01*
X054174D01*
X054134Y029608D01*
X054094Y029568D01*
X054054D01*
X054094Y029528D01*
X054054Y029488D01*
X054094D01*
X054134Y029448D01*
X05315Y023542D02*
X05319Y023582D01*
X05323D01*
X05319Y023622D01*
X05323Y023662D01*
X05319D01*
X05315Y023702D01*
X05311Y023662D01*
X05307D01*
X05311Y023622D01*
X05307Y023582D01*
X05311D01*
X05315Y023542D01*
Y019605D02*
X05319Y019645D01*
X05323D01*
X05319Y019685D01*
X05323Y019725D01*
X05319D01*
X05315Y019765D01*
X05311Y019725D01*
X05307D01*
X05311Y019685D01*
X05307Y019645D01*
X05311D01*
X05315Y019605D01*
X054134Y0137D02*
X054174Y01374D01*
X054214D01*
X054174Y01378D01*
X054214Y01382D01*
X054174D01*
X054134Y01386D01*
X054094Y01382D01*
X054054D01*
X054094Y01378D01*
X054054Y01374D01*
X054094D01*
X054134Y0137D01*
X052165Y045196D02*
X052205Y045236D01*
X052245D01*
X052205Y045276D01*
X052245Y045316D01*
X052205D01*
X052165Y045356D01*
X052125Y045316D01*
X052085D01*
X052125Y045276D01*
X052085Y045236D01*
X052125D01*
X052165Y045196D01*
Y041259D02*
X052205Y041299D01*
X052245D01*
X052205Y041339D01*
X052245Y041379D01*
X052205D01*
X052165Y041419D01*
X052125Y041379D01*
X052085D01*
X052125Y041339D01*
X052085Y041299D01*
X052125D01*
X052165Y041259D01*
X051181Y03929D02*
X051221Y03933D01*
X051261D01*
X051221Y03937D01*
X051261Y03941D01*
X051221D01*
X051181Y03945D01*
X051141Y03941D01*
X051101D01*
X051141Y03937D01*
X051101Y03933D01*
X051141D01*
X051181Y03929D01*
X052165Y037322D02*
X052205Y037362D01*
X052245D01*
X052205Y037402D01*
X052245Y037442D01*
X052205D01*
X052165Y037482D01*
X052125Y037442D01*
X052085D01*
X052125Y037402D01*
X052085Y037362D01*
X052125D01*
X052165Y037322D01*
X051181Y035353D02*
X051221Y035393D01*
X051261D01*
X051221Y035433D01*
X051261Y035473D01*
X051221D01*
X051181Y035513D01*
X051141Y035473D01*
X051101D01*
X051141Y035433D01*
X051101Y035393D01*
X051141D01*
X051181Y035353D01*
X052165Y033385D02*
X052205Y033425D01*
X052245D01*
X052205Y033465D01*
X052245Y033505D01*
X052205D01*
X052165Y033545D01*
X052125Y033505D01*
X052085D01*
X052125Y033465D01*
X052085Y033425D01*
X052125D01*
X052165Y033385D01*
X050197Y045196D02*
X050237Y045236D01*
X050277D01*
X050237Y045276D01*
X050277Y045316D01*
X050237D01*
X050197Y045356D01*
X050157Y045316D01*
X050117D01*
X050157Y045276D01*
X050117Y045236D01*
X050157D01*
X050197Y045196D01*
X049213Y043227D02*
X049253Y043267D01*
X049293D01*
X049253Y043307D01*
X049293Y043347D01*
X049253D01*
X049213Y043387D01*
X049173Y043347D01*
X049133D01*
X049173Y043307D01*
X049133Y043267D01*
X049173D01*
X049213Y043227D01*
X050197Y041259D02*
X050237Y041299D01*
X050277D01*
X050237Y041339D01*
X050277Y041379D01*
X050237D01*
X050197Y041419D01*
X050157Y041379D01*
X050117D01*
X050157Y041339D01*
X050117Y041299D01*
X050157D01*
X050197Y041259D01*
X049213Y03929D02*
X049253Y03933D01*
X049293D01*
X049253Y03937D01*
X049293Y03941D01*
X049253D01*
X049213Y03945D01*
X049173Y03941D01*
X049133D01*
X049173Y03937D01*
X049133Y03933D01*
X049173D01*
X049213Y03929D01*
X050197Y037322D02*
X050237Y037362D01*
X050277D01*
X050237Y037402D01*
X050277Y037442D01*
X050237D01*
X050197Y037482D01*
X050157Y037442D01*
X050117D01*
X050157Y037402D01*
X050117Y037362D01*
X050157D01*
X050197Y037322D01*
X049213Y035353D02*
X049253Y035393D01*
X049293D01*
X049253Y035433D01*
X049293Y035473D01*
X049253D01*
X049213Y035513D01*
X049173Y035473D01*
X049133D01*
X049173Y035433D01*
X049133Y035393D01*
X049173D01*
X049213Y035353D01*
X050197Y033385D02*
X050237Y033425D01*
X050277D01*
X050237Y033465D01*
X050277Y033505D01*
X050237D01*
X050197Y033545D01*
X050157Y033505D01*
X050117D01*
X050157Y033465D01*
X050117Y033425D01*
X050157D01*
X050197Y033385D01*
X048228Y045196D02*
X048268Y045236D01*
X048308D01*
X048268Y045276D01*
X048308Y045316D01*
X048268D01*
X048228Y045356D01*
X048188Y045316D01*
X048148D01*
X048188Y045276D01*
X048148Y045236D01*
X048188D01*
X048228Y045196D01*
X047244Y043227D02*
X047284Y043267D01*
X047324D01*
X047284Y043307D01*
X047324Y043347D01*
X047284D01*
X047244Y043387D01*
X047204Y043347D01*
X047164D01*
X047204Y043307D01*
X047164Y043267D01*
X047204D01*
X047244Y043227D01*
X048228Y041259D02*
X048268Y041299D01*
X048308D01*
X048268Y041339D01*
X048308Y041379D01*
X048268D01*
X048228Y041419D01*
X048188Y041379D01*
X048148D01*
X048188Y041339D01*
X048148Y041299D01*
X048188D01*
X048228Y041259D01*
X047244Y03929D02*
X047284Y03933D01*
X047324D01*
X047284Y03937D01*
X047324Y03941D01*
X047284D01*
X047244Y03945D01*
X047204Y03941D01*
X047164D01*
X047204Y03937D01*
X047164Y03933D01*
X047204D01*
X047244Y03929D01*
X048228Y037322D02*
X048268Y037362D01*
X048308D01*
X048268Y037402D01*
X048308Y037442D01*
X048268D01*
X048228Y037482D01*
X048188Y037442D01*
X048148D01*
X048188Y037402D01*
X048148Y037362D01*
X048188D01*
X048228Y037322D01*
X047244Y035353D02*
X047284Y035393D01*
X047324D01*
X047284Y035433D01*
X047324Y035473D01*
X047284D01*
X047244Y035513D01*
X047204Y035473D01*
X047164D01*
X047204Y035433D01*
X047164Y035393D01*
X047204D01*
X047244Y035353D01*
X048228Y033385D02*
X048268Y033425D01*
X048308D01*
X048268Y033465D01*
X048308Y033505D01*
X048268D01*
X048228Y033545D01*
X048188Y033505D01*
X048148D01*
X048188Y033465D01*
X048148Y033425D01*
X048188D01*
X048228Y033385D01*
Y021574D02*
X048268Y021614D01*
X048308D01*
X048268Y021654D01*
X048308Y021694D01*
X048268D01*
X048228Y021734D01*
X048188Y021694D01*
X048148D01*
X048188Y021654D01*
X048148Y021614D01*
X048188D01*
X048228Y021574D01*
X04626Y045196D02*
X0463Y045236D01*
X04634D01*
X0463Y045276D01*
X04634Y045316D01*
X0463D01*
X04626Y045356D01*
X04622Y045316D01*
X04618D01*
X04622Y045276D01*
X04618Y045236D01*
X04622D01*
X04626Y045196D01*
X045276Y043227D02*
X045316Y043267D01*
X045356D01*
X045316Y043307D01*
X045356Y043347D01*
X045316D01*
X045276Y043387D01*
X045236Y043347D01*
X045196D01*
X045236Y043307D01*
X045196Y043267D01*
X045236D01*
X045276Y043227D01*
X04626Y041259D02*
X0463Y041299D01*
X04634D01*
X0463Y041339D01*
X04634Y041379D01*
X0463D01*
X04626Y041419D01*
X04622Y041379D01*
X04618D01*
X04622Y041339D01*
X04618Y041299D01*
X04622D01*
X04626Y041259D01*
X045276Y03929D02*
X045316Y03933D01*
X045356D01*
X045316Y03937D01*
X045356Y03941D01*
X045316D01*
X045276Y03945D01*
X045236Y03941D01*
X045196D01*
X045236Y03937D01*
X045196Y03933D01*
X045236D01*
X045276Y03929D01*
X04626Y037322D02*
X0463Y037362D01*
X04634D01*
X0463Y037402D01*
X04634Y037442D01*
X0463D01*
X04626Y037482D01*
X04622Y037442D01*
X04618D01*
X04622Y037402D01*
X04618Y037362D01*
X04622D01*
X04626Y037322D01*
X045276Y035353D02*
X045316Y035393D01*
X045356D01*
X045316Y035433D01*
X045356Y035473D01*
X045316D01*
X045276Y035513D01*
X045236Y035473D01*
X045196D01*
X045236Y035433D01*
X045196Y035393D01*
X045236D01*
X045276Y035353D01*
X04626Y0137D02*
X0463Y01374D01*
X04634D01*
X0463Y01378D01*
X04634Y01382D01*
X0463D01*
X04626Y01386D01*
X04622Y01382D01*
X04618D01*
X04622Y01378D01*
X04618Y01374D01*
X04622D01*
X04626Y0137D01*
X043307Y043227D02*
X043347Y043267D01*
X043387D01*
X043347Y043307D01*
X043387Y043347D01*
X043347D01*
X043307Y043387D01*
X043267Y043347D01*
X043227D01*
X043267Y043307D01*
X043227Y043267D01*
X043267D01*
X043307Y043227D01*
X044291Y041259D02*
X044331Y041299D01*
X044371D01*
X044331Y041339D01*
X044371Y041379D01*
X044331D01*
X044291Y041419D01*
X044251Y041379D01*
X044211D01*
X044251Y041339D01*
X044211Y041299D01*
X044251D01*
X044291Y041259D01*
X043307Y03929D02*
X043347Y03933D01*
X043387D01*
X043347Y03937D01*
X043387Y03941D01*
X043347D01*
X043307Y03945D01*
X043267Y03941D01*
X043227D01*
X043267Y03937D01*
X043227Y03933D01*
X043267D01*
X043307Y03929D01*
X044291Y037322D02*
X044331Y037362D01*
X044371D01*
X044331Y037402D01*
X044371Y037442D01*
X044331D01*
X044291Y037482D01*
X044251Y037442D01*
X044211D01*
X044251Y037402D01*
X044211Y037362D01*
X044251D01*
X044291Y037322D01*
Y0137D02*
X044331Y01374D01*
X044371D01*
X044331Y01378D01*
X044371Y01382D01*
X044331D01*
X044291Y01386D01*
X044251Y01382D01*
X044211D01*
X044251Y01378D01*
X044211Y01374D01*
X044251D01*
X044291Y0137D01*
X041339Y043227D02*
X041379Y043267D01*
X041419D01*
X041379Y043307D01*
X041419Y043347D01*
X041379D01*
X041339Y043387D01*
X041299Y043347D01*
X041259D01*
X041299Y043307D01*
X041259Y043267D01*
X041299D01*
X041339Y043227D01*
X042323Y041259D02*
X042363Y041299D01*
X042403D01*
X042363Y041339D01*
X042403Y041379D01*
X042363D01*
X042323Y041419D01*
X042283Y041379D01*
X042243D01*
X042283Y041339D01*
X042243Y041299D01*
X042283D01*
X042323Y041259D01*
X041339Y03929D02*
X041379Y03933D01*
X041419D01*
X041379Y03937D01*
X041419Y03941D01*
X041379D01*
X041339Y03945D01*
X041299Y03941D01*
X041259D01*
X041299Y03937D01*
X041259Y03933D01*
X041299D01*
X041339Y03929D01*
X042323Y033385D02*
X042363Y033425D01*
X042403D01*
X042363Y033465D01*
X042403Y033505D01*
X042363D01*
X042323Y033545D01*
X042283Y033505D01*
X042243D01*
X042283Y033465D01*
X042243Y033425D01*
X042283D01*
X042323Y033385D01*
Y017637D02*
X042363Y017677D01*
X042403D01*
X042363Y017717D01*
X042403Y017757D01*
X042363D01*
X042323Y017797D01*
X042283Y017757D01*
X042243D01*
X042283Y017717D01*
X042243Y017677D01*
X042283D01*
X042323Y017637D01*
Y0137D02*
X042363Y01374D01*
X042403D01*
X042363Y01378D01*
X042403Y01382D01*
X042363D01*
X042323Y01386D01*
X042283Y01382D01*
X042243D01*
X042283Y01378D01*
X042243Y01374D01*
X042283D01*
X042323Y0137D01*
X040354Y041259D02*
X040394Y041299D01*
X040434D01*
X040394Y041339D01*
X040434Y041379D01*
X040394D01*
X040354Y041419D01*
X040314Y041379D01*
X040274D01*
X040314Y041339D01*
X040274Y041299D01*
X040314D01*
X040354Y041259D01*
X03937Y035353D02*
X03941Y035393D01*
X03945D01*
X03941Y035433D01*
X03945Y035473D01*
X03941D01*
X03937Y035513D01*
X03933Y035473D01*
X03929D01*
X03933Y035433D01*
X03929Y035393D01*
X03933D01*
X03937Y035353D01*
X040354Y033385D02*
X040394Y033425D01*
X040434D01*
X040394Y033465D01*
X040434Y033505D01*
X040394D01*
X040354Y033545D01*
X040314Y033505D01*
X040274D01*
X040314Y033465D01*
X040274Y033425D01*
X040314D01*
X040354Y033385D01*
X03937Y023542D02*
X03941Y023582D01*
X03945D01*
X03941Y023622D01*
X03945Y023662D01*
X03941D01*
X03937Y023702D01*
X03933Y023662D01*
X03929D01*
X03933Y023622D01*
X03929Y023582D01*
X03933D01*
X03937Y023542D01*
Y019605D02*
X03941Y019645D01*
X03945D01*
X03941Y019685D01*
X03945Y019725D01*
X03941D01*
X03937Y019765D01*
X03933Y019725D01*
X03929D01*
X03933Y019685D01*
X03929Y019645D01*
X03933D01*
X03937Y019605D01*
X040354Y0137D02*
X040394Y01374D01*
X040434D01*
X040394Y01378D01*
X040434Y01382D01*
X040394D01*
X040354Y01386D01*
X040314Y01382D01*
X040274D01*
X040314Y01378D01*
X040274Y01374D01*
X040314D01*
X040354Y0137D01*
X038386Y037322D02*
X038426Y037362D01*
X038466D01*
X038426Y037402D01*
X038466Y037442D01*
X038426D01*
X038386Y037482D01*
X038346Y037442D01*
X038306D01*
X038346Y037402D01*
X038306Y037362D01*
X038346D01*
X038386Y037322D01*
X037402Y035353D02*
X037442Y035393D01*
X037482D01*
X037442Y035433D01*
X037482Y035473D01*
X037442D01*
X037402Y035513D01*
X037362Y035473D01*
X037322D01*
X037362Y035433D01*
X037322Y035393D01*
X037362D01*
X037402Y035353D01*
X038386Y033385D02*
X038426Y033425D01*
X038466D01*
X038426Y033465D01*
X038466Y033505D01*
X038426D01*
X038386Y033545D01*
X038346Y033505D01*
X038306D01*
X038346Y033465D01*
X038306Y033425D01*
X038346D01*
X038386Y033385D01*
X037402Y027479D02*
X037442Y027519D01*
X037482D01*
X037442Y027559D01*
X037482Y027599D01*
X037442D01*
X037402Y027639D01*
X037362Y027599D01*
X037322D01*
X037362Y027559D01*
X037322Y027519D01*
X037362D01*
X037402Y027479D01*
X038386Y025511D02*
X038426Y025551D01*
X038466D01*
X038426Y025591D01*
X038466Y025631D01*
X038426D01*
X038386Y025671D01*
X038346Y025631D01*
X038306D01*
X038346Y025591D01*
X038306Y025551D01*
X038346D01*
X038386Y025511D01*
X037402Y023542D02*
X037442Y023582D01*
X037482D01*
X037442Y023622D01*
X037482Y023662D01*
X037442D01*
X037402Y023702D01*
X037362Y023662D01*
X037322D01*
X037362Y023622D01*
X037322Y023582D01*
X037362D01*
X037402Y023542D01*
Y019605D02*
X037442Y019645D01*
X037482D01*
X037442Y019685D01*
X037482Y019725D01*
X037442D01*
X037402Y019765D01*
X037362Y019725D01*
X037322D01*
X037362Y019685D01*
X037322Y019645D01*
X037362D01*
X037402Y019605D01*
X038386Y0137D02*
X038426Y01374D01*
X038466D01*
X038426Y01378D01*
X038466Y01382D01*
X038426D01*
X038386Y01386D01*
X038346Y01382D01*
X038306D01*
X038346Y01378D01*
X038306Y01374D01*
X038346D01*
X038386Y0137D01*
X035433Y03929D02*
X035473Y03933D01*
X035513D01*
X035473Y03937D01*
X035513Y03941D01*
X035473D01*
X035433Y03945D01*
X035393Y03941D01*
X035353D01*
X035393Y03937D01*
X035353Y03933D01*
X035393D01*
X035433Y03929D01*
X036417Y037322D02*
X036457Y037362D01*
X036497D01*
X036457Y037402D01*
X036497Y037442D01*
X036457D01*
X036417Y037482D01*
X036377Y037442D01*
X036337D01*
X036377Y037402D01*
X036337Y037362D01*
X036377D01*
X036417Y037322D01*
X035433Y035353D02*
X035473Y035393D01*
X035513D01*
X035473Y035433D01*
X035513Y035473D01*
X035473D01*
X035433Y035513D01*
X035393Y035473D01*
X035353D01*
X035393Y035433D01*
X035353Y035393D01*
X035393D01*
X035433Y035353D01*
X036417Y033385D02*
X036457Y033425D01*
X036497D01*
X036457Y033465D01*
X036497Y033505D01*
X036457D01*
X036417Y033545D01*
X036377Y033505D01*
X036337D01*
X036377Y033465D01*
X036337Y033425D01*
X036377D01*
X036417Y033385D01*
X035433Y027479D02*
X035473Y027519D01*
X035513D01*
X035473Y027559D01*
X035513Y027599D01*
X035473D01*
X035433Y027639D01*
X035393Y027599D01*
X035353D01*
X035393Y027559D01*
X035353Y027519D01*
X035393D01*
X035433Y027479D01*
X036417Y025511D02*
X036457Y025551D01*
X036497D01*
X036457Y025591D01*
X036497Y025631D01*
X036457D01*
X036417Y025671D01*
X036377Y025631D01*
X036337D01*
X036377Y025591D01*
X036337Y025551D01*
X036377D01*
X036417Y025511D01*
X035433Y023542D02*
X035473Y023582D01*
X035513D01*
X035473Y023622D01*
X035513Y023662D01*
X035473D01*
X035433Y023702D01*
X035393Y023662D01*
X035353D01*
X035393Y023622D01*
X035353Y023582D01*
X035393D01*
X035433Y023542D01*
X034449Y041259D02*
X034489Y041299D01*
X034529D01*
X034489Y041339D01*
X034529Y041379D01*
X034489D01*
X034449Y041419D01*
X034409Y041379D01*
X034369D01*
X034409Y041339D01*
X034369Y041299D01*
X034409D01*
X034449Y041259D01*
X033465Y03929D02*
X033505Y03933D01*
X033545D01*
X033505Y03937D01*
X033545Y03941D01*
X033505D01*
X033465Y03945D01*
X033425Y03941D01*
X033385D01*
X033425Y03937D01*
X033385Y03933D01*
X033425D01*
X033465Y03929D01*
X034449Y037322D02*
X034489Y037362D01*
X034529D01*
X034489Y037402D01*
X034529Y037442D01*
X034489D01*
X034449Y037482D01*
X034409Y037442D01*
X034369D01*
X034409Y037402D01*
X034369Y037362D01*
X034409D01*
X034449Y037322D01*
X033465Y027479D02*
X033505Y027519D01*
X033545D01*
X033505Y027559D01*
X033545Y027599D01*
X033505D01*
X033465Y027639D01*
X033425Y027599D01*
X033385D01*
X033425Y027559D01*
X033385Y027519D01*
X033425D01*
X033465Y027479D01*
Y023542D02*
X033505Y023582D01*
X033545D01*
X033505Y023622D01*
X033545Y023662D01*
X033505D01*
X033465Y023702D01*
X033425Y023662D01*
X033385D01*
X033425Y023622D01*
X033385Y023582D01*
X033425D01*
X033465Y023542D01*
X03248Y041259D02*
X03252Y041299D01*
X03256D01*
X03252Y041339D01*
X03256Y041379D01*
X03252D01*
X03248Y041419D01*
X03244Y041379D01*
X0324D01*
X03244Y041339D01*
X0324Y041299D01*
X03244D01*
X03248Y041259D01*
X031496Y03929D02*
X031536Y03933D01*
X031576D01*
X031536Y03937D01*
X031576Y03941D01*
X031536D01*
X031496Y03945D01*
X031456Y03941D01*
X031416D01*
X031456Y03937D01*
X031416Y03933D01*
X031456D01*
X031496Y03929D01*
X03248Y037322D02*
X03252Y037362D01*
X03256D01*
X03252Y037402D01*
X03256Y037442D01*
X03252D01*
X03248Y037482D01*
X03244Y037442D01*
X0324D01*
X03244Y037402D01*
X0324Y037362D01*
X03244D01*
X03248Y037322D01*
X031496Y035353D02*
X031536Y035393D01*
X031576D01*
X031536Y035433D01*
X031576Y035473D01*
X031536D01*
X031496Y035513D01*
X031456Y035473D01*
X031416D01*
X031456Y035433D01*
X031416Y035393D01*
X031456D01*
X031496Y035353D01*
X03248Y033385D02*
X03252Y033425D01*
X03256D01*
X03252Y033465D01*
X03256Y033505D01*
X03252D01*
X03248Y033545D01*
X03244Y033505D01*
X0324D01*
X03244Y033465D01*
X0324Y033425D01*
X03244D01*
X03248Y033385D01*
X031496Y027479D02*
X031536Y027519D01*
X031576D01*
X031536Y027559D01*
X031576Y027599D01*
X031536D01*
X031496Y027639D01*
X031456Y027599D01*
X031416D01*
X031456Y027559D01*
X031416Y027519D01*
X031456D01*
X031496Y027479D01*
X03248Y025511D02*
X03252Y025551D01*
X03256D01*
X03252Y025591D01*
X03256Y025631D01*
X03252D01*
X03248Y025671D01*
X03244Y025631D01*
X0324D01*
X03244Y025591D01*
X0324Y025551D01*
X03244D01*
X03248Y025511D01*
X031496Y023542D02*
X031536Y023582D01*
X031576D01*
X031536Y023622D01*
X031576Y023662D01*
X031536D01*
X031496Y023702D01*
X031456Y023662D01*
X031416D01*
X031456Y023622D01*
X031416Y023582D01*
X031456D01*
X031496Y023542D01*
X03248Y017637D02*
X03252Y017677D01*
X03256D01*
X03252Y017717D01*
X03256Y017757D01*
X03252D01*
X03248Y017797D01*
X03244Y017757D01*
X0324D01*
X03244Y017717D01*
X0324Y017677D01*
X03244D01*
X03248Y017637D01*
X030512Y041259D02*
X030552Y041299D01*
X030592D01*
X030552Y041339D01*
X030592Y041379D01*
X030552D01*
X030512Y041419D01*
X030472Y041379D01*
X030432D01*
X030472Y041339D01*
X030432Y041299D01*
X030472D01*
X030512Y041259D01*
X029528Y035353D02*
X029568Y035393D01*
X029608D01*
X029568Y035433D01*
X029608Y035473D01*
X029568D01*
X029528Y035513D01*
X029488Y035473D01*
X029448D01*
X029488Y035433D01*
X029448Y035393D01*
X029488D01*
X029528Y035353D01*
X030512Y033385D02*
X030552Y033425D01*
X030592D01*
X030552Y033465D01*
X030592Y033505D01*
X030552D01*
X030512Y033545D01*
X030472Y033505D01*
X030432D01*
X030472Y033465D01*
X030432Y033425D01*
X030472D01*
X030512Y033385D01*
X029528Y027479D02*
X029568Y027519D01*
X029608D01*
X029568Y027559D01*
X029608Y027599D01*
X029568D01*
X029528Y027639D01*
X029488Y027599D01*
X029448D01*
X029488Y027559D01*
X029448Y027519D01*
X029488D01*
X029528Y027479D01*
X030512Y025511D02*
X030552Y025551D01*
X030592D01*
X030552Y025591D01*
X030592Y025631D01*
X030552D01*
X030512Y025671D01*
X030472Y025631D01*
X030432D01*
X030472Y025591D01*
X030432Y025551D01*
X030472D01*
X030512Y025511D01*
X029528Y023542D02*
X029568Y023582D01*
X029608D01*
X029568Y023622D01*
X029608Y023662D01*
X029568D01*
X029528Y023702D01*
X029488Y023662D01*
X029448D01*
X029488Y023622D01*
X029448Y023582D01*
X029488D01*
X029528Y023542D01*
X030512Y017637D02*
X030552Y017677D01*
X030592D01*
X030552Y017717D01*
X030592Y017757D01*
X030552D01*
X030512Y017797D01*
X030472Y017757D01*
X030432D01*
X030472Y017717D01*
X030432Y017677D01*
X030472D01*
X030512Y017637D01*
X027559Y03929D02*
X027599Y03933D01*
X027639D01*
X027599Y03937D01*
X027639Y03941D01*
X027599D01*
X027559Y03945D01*
X027519Y03941D01*
X027479D01*
X027519Y03937D01*
X027479Y03933D01*
X027519D01*
X027559Y03929D01*
X028543Y037322D02*
X028583Y037362D01*
X028623D01*
X028583Y037402D01*
X028623Y037442D01*
X028583D01*
X028543Y037482D01*
X028503Y037442D01*
X028463D01*
X028503Y037402D01*
X028463Y037362D01*
X028503D01*
X028543Y037322D01*
X027559Y035353D02*
X027599Y035393D01*
X027639D01*
X027599Y035433D01*
X027639Y035473D01*
X027599D01*
X027559Y035513D01*
X027519Y035473D01*
X027479D01*
X027519Y035433D01*
X027479Y035393D01*
X027519D01*
X027559Y035353D01*
X028543Y033385D02*
X028583Y033425D01*
X028623D01*
X028583Y033465D01*
X028623Y033505D01*
X028583D01*
X028543Y033545D01*
X028503Y033505D01*
X028463D01*
X028503Y033465D01*
X028463Y033425D01*
X028503D01*
X028543Y033385D01*
X027559Y027479D02*
X027599Y027519D01*
X027639D01*
X027599Y027559D01*
X027639Y027599D01*
X027599D01*
X027559Y027639D01*
X027519Y027599D01*
X027479D01*
X027519Y027559D01*
X027479Y027519D01*
X027519D01*
X027559Y027479D01*
X028543Y025511D02*
X028583Y025551D01*
X028623D01*
X028583Y025591D01*
X028623Y025631D01*
X028583D01*
X028543Y025671D01*
X028503Y025631D01*
X028463D01*
X028503Y025591D01*
X028463Y025551D01*
X028503D01*
X028543Y025511D01*
Y017637D02*
X028583Y017677D01*
X028623D01*
X028583Y017717D01*
X028623Y017757D01*
X028583D01*
X028543Y017797D01*
X028503Y017757D01*
X028463D01*
X028503Y017717D01*
X028463Y017677D01*
X028503D01*
X028543Y017637D01*
X027559Y011731D02*
X027599Y011771D01*
X027639D01*
X027599Y011811D01*
X027639Y011851D01*
X027599D01*
X027559Y011891D01*
X027519Y011851D01*
X027479D01*
X027519Y011811D01*
X027479Y011771D01*
X027519D01*
X027559Y011731D01*
X026575Y037322D02*
X026615Y037362D01*
X026655D01*
X026615Y037402D01*
X026655Y037442D01*
X026615D01*
X026575Y037482D01*
X026535Y037442D01*
X026495D01*
X026535Y037402D01*
X026495Y037362D01*
X026535D01*
X026575Y037322D01*
X025591Y035353D02*
X025631Y035393D01*
X025671D01*
X025631Y035433D01*
X025671Y035473D01*
X025631D01*
X025591Y035513D01*
X025551Y035473D01*
X025511D01*
X025551Y035433D01*
X025511Y035393D01*
X025551D01*
X025591Y035353D01*
X026575Y033385D02*
X026615Y033425D01*
X026655D01*
X026615Y033465D01*
X026655Y033505D01*
X026615D01*
X026575Y033545D01*
X026535Y033505D01*
X026495D01*
X026535Y033465D01*
X026495Y033425D01*
X026535D01*
X026575Y033385D01*
X025591Y027479D02*
X025631Y027519D01*
X025671D01*
X025631Y027559D01*
X025671Y027599D01*
X025631D01*
X025591Y027639D01*
X025551Y027599D01*
X025511D01*
X025551Y027559D01*
X025511Y027519D01*
X025551D01*
X025591Y027479D01*
Y023542D02*
X025631Y023582D01*
X025671D01*
X025631Y023622D01*
X025671Y023662D01*
X025631D01*
X025591Y023702D01*
X025551Y023662D01*
X025511D01*
X025551Y023622D01*
X025511Y023582D01*
X025551D01*
X025591Y023542D01*
X026575Y017637D02*
X026615Y017677D01*
X026655D01*
X026615Y017717D01*
X026655Y017757D01*
X026615D01*
X026575Y017797D01*
X026535Y017757D01*
X026495D01*
X026535Y017717D01*
X026495Y017677D01*
X026535D01*
X026575Y017637D01*
X025591Y015668D02*
X025631Y015708D01*
X025671D01*
X025631Y015748D01*
X025671Y015788D01*
X025631D01*
X025591Y015828D01*
X025551Y015788D01*
X025511D01*
X025551Y015748D01*
X025511Y015708D01*
X025551D01*
X025591Y015668D01*
X026575Y0137D02*
X026615Y01374D01*
X026655D01*
X026615Y01378D01*
X026655Y01382D01*
X026615D01*
X026575Y01386D01*
X026535Y01382D01*
X026495D01*
X026535Y01378D01*
X026495Y01374D01*
X026535D01*
X026575Y0137D01*
X025591Y011731D02*
X025631Y011771D01*
X025671D01*
X025631Y011811D01*
X025671Y011851D01*
X025631D01*
X025591Y011891D01*
X025551Y011851D01*
X025511D01*
X025551Y011811D01*
X025511Y011771D01*
X025551D01*
X025591Y011731D01*
X024606Y041259D02*
X024646Y041299D01*
X024686D01*
X024646Y041339D01*
X024686Y041379D01*
X024646D01*
X024606Y041419D01*
X024566Y041379D01*
X024526D01*
X024566Y041339D01*
X024526Y041299D01*
X024566D01*
X024606Y041259D01*
Y037322D02*
X024646Y037362D01*
X024686D01*
X024646Y037402D01*
X024686Y037442D01*
X024646D01*
X024606Y037482D01*
X024566Y037442D01*
X024526D01*
X024566Y037402D01*
X024526Y037362D01*
X024566D01*
X024606Y037322D01*
X023622Y035353D02*
X023662Y035393D01*
X023702D01*
X023662Y035433D01*
X023702Y035473D01*
X023662D01*
X023622Y035513D01*
X023582Y035473D01*
X023542D01*
X023582Y035433D01*
X023542Y035393D01*
X023582D01*
X023622Y035353D01*
X024606Y033385D02*
X024646Y033425D01*
X024686D01*
X024646Y033465D01*
X024686Y033505D01*
X024646D01*
X024606Y033545D01*
X024566Y033505D01*
X024526D01*
X024566Y033465D01*
X024526Y033425D01*
X024566D01*
X024606Y033385D01*
X023622Y027479D02*
X023662Y027519D01*
X023702D01*
X023662Y027559D01*
X023702Y027599D01*
X023662D01*
X023622Y027639D01*
X023582Y027599D01*
X023542D01*
X023582Y027559D01*
X023542Y027519D01*
X023582D01*
X023622Y027479D01*
Y023542D02*
X023662Y023582D01*
X023702D01*
X023662Y023622D01*
X023702Y023662D01*
X023662D01*
X023622Y023702D01*
X023582Y023662D01*
X023542D01*
X023582Y023622D01*
X023542Y023582D01*
X023582D01*
X023622Y023542D01*
Y011731D02*
X023662Y011771D01*
X023702D01*
X023662Y011811D01*
X023702Y011851D01*
X023662D01*
X023622Y011891D01*
X023582Y011851D01*
X023542D01*
X023582Y011811D01*
X023542Y011771D01*
X023582D01*
X023622Y011731D01*
X022638Y037322D02*
X022678Y037362D01*
X022718D01*
X022678Y037402D01*
X022718Y037442D01*
X022678D01*
X022638Y037482D01*
X022598Y037442D01*
X022558D01*
X022598Y037402D01*
X022558Y037362D01*
X022598D01*
X022638Y037322D01*
Y033385D02*
X022678Y033425D01*
X022718D01*
X022678Y033465D01*
X022718Y033505D01*
X022678D01*
X022638Y033545D01*
X022598Y033505D01*
X022558D01*
X022598Y033465D01*
X022558Y033425D01*
X022598D01*
X022638Y033385D01*
X021654Y027479D02*
X021694Y027519D01*
X021734D01*
X021694Y027559D01*
X021734Y027599D01*
X021694D01*
X021654Y027639D01*
X021614Y027599D01*
X021574D01*
X021614Y027559D01*
X021574Y027519D01*
X021614D01*
X021654Y027479D01*
X022638Y025511D02*
X022678Y025551D01*
X022718D01*
X022678Y025591D01*
X022718Y025631D01*
X022678D01*
X022638Y025671D01*
X022598Y025631D01*
X022558D01*
X022598Y025591D01*
X022558Y025551D01*
X022598D01*
X022638Y025511D01*
X021654Y019605D02*
X021694Y019645D01*
X021734D01*
X021694Y019685D01*
X021734Y019725D01*
X021694D01*
X021654Y019765D01*
X021614Y019725D01*
X021574D01*
X021614Y019685D01*
X021574Y019645D01*
X021614D01*
X021654Y019605D01*
X022638Y017637D02*
X022678Y017677D01*
X022718D01*
X022678Y017717D01*
X022718Y017757D01*
X022678D01*
X022638Y017797D01*
X022598Y017757D01*
X022558D01*
X022598Y017717D01*
X022558Y017677D01*
X022598D01*
X022638Y017637D01*
X021654Y015668D02*
X021694Y015708D01*
X021734D01*
X021694Y015748D01*
X021734Y015788D01*
X021694D01*
X021654Y015828D01*
X021614Y015788D01*
X021574D01*
X021614Y015748D01*
X021574Y015708D01*
X021614D01*
X021654Y015668D01*
Y011731D02*
X021694Y011771D01*
X021734D01*
X021694Y011811D01*
X021734Y011851D01*
X021694D01*
X021654Y011891D01*
X021614Y011851D01*
X021574D01*
X021614Y011811D01*
X021574Y011771D01*
X021614D01*
X021654Y011731D01*
X019685Y035353D02*
X019725Y035393D01*
X019765D01*
X019725Y035433D01*
X019765Y035473D01*
X019725D01*
X019685Y035513D01*
X019645Y035473D01*
X019605D01*
X019645Y035433D01*
X019605Y035393D01*
X019645D01*
X019685Y035353D01*
X020669Y033385D02*
X020709Y033425D01*
X020749D01*
X020709Y033465D01*
X020749Y033505D01*
X020709D01*
X020669Y033545D01*
X020629Y033505D01*
X020589D01*
X020629Y033465D01*
X020589Y033425D01*
X020629D01*
X020669Y033385D01*
X019685Y031416D02*
X019725Y031456D01*
X019765D01*
X019725Y031496D01*
X019765Y031536D01*
X019725D01*
X019685Y031576D01*
X019645Y031536D01*
X019605D01*
X019645Y031496D01*
X019605Y031456D01*
X019645D01*
X019685Y031416D01*
X020669Y029448D02*
X020709Y029488D01*
X020749D01*
X020709Y029528D01*
X020749Y029568D01*
X020709D01*
X020669Y029608D01*
X020629Y029568D01*
X020589D01*
X020629Y029528D01*
X020589Y029488D01*
X020629D01*
X020669Y029448D01*
X019685Y027479D02*
X019725Y027519D01*
X019765D01*
X019725Y027559D01*
X019765Y027599D01*
X019725D01*
X019685Y027639D01*
X019645Y027599D01*
X019605D01*
X019645Y027559D01*
X019605Y027519D01*
X019645D01*
X019685Y027479D01*
Y023542D02*
X019725Y023582D01*
X019765D01*
X019725Y023622D01*
X019765Y023662D01*
X019725D01*
X019685Y023702D01*
X019645Y023662D01*
X019605D01*
X019645Y023622D01*
X019605Y023582D01*
X019645D01*
X019685Y023542D01*
X020669Y021574D02*
X020709Y021614D01*
X020749D01*
X020709Y021654D01*
X020749Y021694D01*
X020709D01*
X020669Y021734D01*
X020629Y021694D01*
X020589D01*
X020629Y021654D01*
X020589Y021614D01*
X020629D01*
X020669Y021574D01*
X019685Y019605D02*
X019725Y019645D01*
X019765D01*
X019725Y019685D01*
X019765Y019725D01*
X019725D01*
X019685Y019765D01*
X019645Y019725D01*
X019605D01*
X019645Y019685D01*
X019605Y019645D01*
X019645D01*
X019685Y019605D01*
X020669Y017637D02*
X020709Y017677D01*
X020749D01*
X020709Y017717D01*
X020749Y017757D01*
X020709D01*
X020669Y017797D01*
X020629Y017757D01*
X020589D01*
X020629Y017717D01*
X020589Y017677D01*
X020629D01*
X020669Y017637D01*
X019685Y015668D02*
X019725Y015708D01*
X019765D01*
X019725Y015748D01*
X019765Y015788D01*
X019725D01*
X019685Y015828D01*
X019645Y015788D01*
X019605D01*
X019645Y015748D01*
X019605Y015708D01*
X019645D01*
X019685Y015668D01*
X020669Y0137D02*
X020709Y01374D01*
X020749D01*
X020709Y01378D01*
X020749Y01382D01*
X020709D01*
X020669Y01386D01*
X020629Y01382D01*
X020589D01*
X020629Y01378D01*
X020589Y01374D01*
X020629D01*
X020669Y0137D01*
X019685Y011731D02*
X019725Y011771D01*
X019765D01*
X019725Y011811D01*
X019765Y011851D01*
X019725D01*
X019685Y011891D01*
X019645Y011851D01*
X019605D01*
X019645Y011811D01*
X019605Y011771D01*
X019645D01*
X019685Y011731D01*
X018701Y045196D02*
X018741Y045236D01*
X018781D01*
X018741Y045276D01*
X018781Y045316D01*
X018741D01*
X018701Y045356D01*
X018661Y045316D01*
X018621D01*
X018661Y045276D01*
X018621Y045236D01*
X018661D01*
X018701Y045196D01*
X017717Y043227D02*
X017757Y043267D01*
X017797D01*
X017757Y043307D01*
X017797Y043347D01*
X017757D01*
X017717Y043387D01*
X017677Y043347D01*
X017637D01*
X017677Y043307D01*
X017637Y043267D01*
X017677D01*
X017717Y043227D01*
X018701Y033385D02*
X018741Y033425D01*
X018781D01*
X018741Y033465D01*
X018781Y033505D01*
X018741D01*
X018701Y033545D01*
X018661Y033505D01*
X018621D01*
X018661Y033465D01*
X018621Y033425D01*
X018661D01*
X018701Y033385D01*
Y029448D02*
X018741Y029488D01*
X018781D01*
X018741Y029528D01*
X018781Y029568D01*
X018741D01*
X018701Y029608D01*
X018661Y029568D01*
X018621D01*
X018661Y029528D01*
X018621Y029488D01*
X018661D01*
X018701Y029448D01*
X017717Y023542D02*
X017757Y023582D01*
X017797D01*
X017757Y023622D01*
X017797Y023662D01*
X017757D01*
X017717Y023702D01*
X017677Y023662D01*
X017637D01*
X017677Y023622D01*
X017637Y023582D01*
X017677D01*
X017717Y023542D01*
X018701Y021574D02*
X018741Y021614D01*
X018781D01*
X018741Y021654D01*
X018781Y021694D01*
X018741D01*
X018701Y021734D01*
X018661Y021694D01*
X018621D01*
X018661Y021654D01*
X018621Y021614D01*
X018661D01*
X018701Y021574D01*
X017717Y019605D02*
X017757Y019645D01*
X017797D01*
X017757Y019685D01*
X017797Y019725D01*
X017757D01*
X017717Y019765D01*
X017677Y019725D01*
X017637D01*
X017677Y019685D01*
X017637Y019645D01*
X017677D01*
X017717Y019605D01*
X018701Y017637D02*
X018741Y017677D01*
X018781D01*
X018741Y017717D01*
X018781Y017757D01*
X018741D01*
X018701Y017797D01*
X018661Y017757D01*
X018621D01*
X018661Y017717D01*
X018621Y017677D01*
X018661D01*
X018701Y017637D01*
X017717Y015668D02*
X017757Y015708D01*
X017797D01*
X017757Y015748D01*
X017797Y015788D01*
X017757D01*
X017717Y015828D01*
X017677Y015788D01*
X017637D01*
X017677Y015748D01*
X017637Y015708D01*
X017677D01*
X017717Y015668D01*
X018701Y0137D02*
X018741Y01374D01*
X018781D01*
X018741Y01378D01*
X018781Y01382D01*
X018741D01*
X018701Y01386D01*
X018661Y01382D01*
X018621D01*
X018661Y01378D01*
X018621Y01374D01*
X018661D01*
X018701Y0137D01*
X017717Y011731D02*
X017757Y011771D01*
X017797D01*
X017757Y011811D01*
X017797Y011851D01*
X017757D01*
X017717Y011891D01*
X017677Y011851D01*
X017637D01*
X017677Y011811D01*
X017637Y011771D01*
X017677D01*
X017717Y011731D01*
X03985Y02587D02*
X03989Y02591D01*
X03993D01*
X03989Y02595D01*
X03993Y02599D01*
X03989D01*
X03985Y02603D01*
X03981Y02599D01*
X03977D01*
X03981Y02595D01*
X03977Y02591D01*
X03981D01*
X03985Y02587D01*
X0466Y025564D02*
X04664Y025604D01*
X04668D01*
X04664Y025644D01*
X04668Y025684D01*
X04664D01*
X0466Y025724D01*
X04656Y025684D01*
X04652D01*
X04656Y025644D01*
X04652Y025604D01*
X04656D01*
X0466Y025564D01*
X039546D02*
X039586Y025604D01*
X039626D01*
X039586Y025644D01*
X039626Y025684D01*
X039586D01*
X039546Y025724D01*
X039506Y025684D01*
X039466D01*
X039506Y025644D01*
X039466Y025604D01*
X039506D01*
X039546Y025564D01*
X0476Y02587D02*
X04764Y02591D01*
X04768D01*
X04764Y02595D01*
X04768Y02599D01*
X04764D01*
X0476Y02603D01*
X04756Y02599D01*
X04752D01*
X04756Y02595D01*
X04752Y02591D01*
X04756D01*
X0476Y02587D01*
D32*
X02443Y02475D02*
G03*
X02443Y02475I-00008J0D01*
G01*
Y025537D02*
G03*
X02443Y025537I-00008J0D01*
G01*
X03978Y01815D02*
G03*
X03978Y01815I-00008J0D01*
G01*
X04078D02*
G03*
X04078Y01815I-00008J0D01*
G01*
X03448Y0248D02*
G03*
X03448Y0248I-00008J0D01*
G01*
X03348D02*
G03*
X03348Y0248I-00008J0D01*
G01*
X032717Y024755D02*
G03*
X032717Y024755I-00008J0D01*
G01*
X027717D02*
G03*
X027717Y024755I-00008J0D01*
G01*
X04368Y02485D02*
G03*
X04368Y02485I-00008J0D01*
G01*
X04468D02*
G03*
X04468Y02485I-00008J0D01*
G01*
X04568D02*
G03*
X04568Y02485I-00008J0D01*
G01*
X04668D02*
G03*
X04668Y02485I-00008J0D01*
G01*
X04768D02*
G03*
X04768Y02485I-00008J0D01*
G01*
X04868D02*
G03*
X04868Y02485I-00008J0D01*
G01*
X04968D02*
G03*
X04968Y02485I-00008J0D01*
G01*
X05068D02*
G03*
X05068Y02485I-00008J0D01*
G01*
X05168D02*
G03*
X05168Y02485I-00008J0D01*
G01*
X05268D02*
G03*
X05268Y02485I-00008J0D01*
G01*
X04368Y02785D02*
G03*
X04368Y02785I-00008J0D01*
G01*
X04468D02*
G03*
X04468Y02785I-00008J0D01*
G01*
X04568D02*
G03*
X04568Y02785I-00008J0D01*
G01*
X04668D02*
G03*
X04668Y02785I-00008J0D01*
G01*
X04768D02*
G03*
X04768Y02785I-00008J0D01*
G01*
X04868D02*
G03*
X04868Y02785I-00008J0D01*
G01*
X04968D02*
G03*
X04968Y02785I-00008J0D01*
G01*
X05068D02*
G03*
X05068Y02785I-00008J0D01*
G01*
X05168D02*
G03*
X05168Y02785I-00008J0D01*
G01*
X05268D02*
G03*
X05268Y02785I-00008J0D01*
G01*
X01998Y03845D02*
G03*
X01998Y03845I-00008J0D01*
G01*
Y03945D02*
G03*
X01998Y03945I-00008J0D01*
G01*
Y04045D02*
G03*
X01998Y04045I-00008J0D01*
G01*
X036378Y015503D02*
G03*
X036378Y015503I-00008J0D01*
G01*
Y014503D02*
G03*
X036378Y014503I-00008J0D01*
G01*
X03368Y01815D02*
G03*
X03368Y01815I-00008J0D01*
G01*
X03868D02*
G03*
X03868Y01815I-00008J0D01*
G01*
X036063Y021842D02*
G03*
X036063Y021842I-00008J0D01*
G01*
X041063D02*
G03*
X041063Y021842I-00008J0D01*
G01*
X02628Y02575D02*
G03*
X02628Y02575I-00008J0D01*
G01*
Y02475D02*
G03*
X02628Y02475I-00008J0D01*
G01*
X05268Y0172D02*
G03*
X05268Y0172I-00008J0D01*
G01*
X04768D02*
G03*
X04768Y0172I-00008J0D01*
G01*
X047677Y015504D02*
G03*
X047677Y015504I-00008J0D01*
G01*
X052677D02*
G03*
X052677Y015504I-00008J0D01*
G01*
X05198Y02215D02*
G03*
X05198Y02215I-00008J0D01*
G01*
X04698D02*
G03*
X04698Y02215I-00008J0D01*
G01*
X04868Y0236D02*
G03*
X04868Y0236I-00008J0D01*
G01*
X04968D02*
G03*
X04968Y0236I-00008J0D01*
G01*
X04383Y0448D02*
G03*
X04383Y0448I-00008J0D01*
G01*
X03883D02*
G03*
X03883Y0448I-00008J0D01*
G01*
M02*
