G04*
G04 #@! TF.GenerationSoftware,Altium Limited,Altium Designer,21.9.2 (33)*
G04*
G04 Layer_Color=16711935*
%FSTAX24Y24*%
%MOIN*%
G70*
G04*
G04 #@! TF.SameCoordinates,FB3CEF1A-BC9A-443B-9A05-8590AB0A4EFD*
G04*
G04*
G04 #@! TF.FilePolarity,Negative*
G04*
G01*
G75*
%ADD17C,0.0710*%
%ADD18C,0.0592*%
%ADD19C,0.0709*%
%ADD20R,0.0709X0.0709*%
%ADD21C,0.0591*%
%ADD22C,0.1655*%
%ADD23C,0.0356*%
D17*
X03355Y014122D02*
D03*
Y0155D02*
D03*
X026119Y020936D02*
D03*
X02415D02*
D03*
X05435Y0172D02*
D03*
X0346Y02185D02*
D03*
D18*
X02435Y02475D02*
D03*
Y025537D02*
D03*
X0397Y01815D02*
D03*
X0407D02*
D03*
X0344Y0248D02*
D03*
X0334D02*
D03*
X0436Y02485D02*
D03*
X0446D02*
D03*
X0456D02*
D03*
X0466D02*
D03*
X0476D02*
D03*
X0486D02*
D03*
X0496D02*
D03*
X0506D02*
D03*
X0516D02*
D03*
X0526D02*
D03*
X0436Y02785D02*
D03*
X0446D02*
D03*
X0456D02*
D03*
X0466D02*
D03*
X0476D02*
D03*
X0486D02*
D03*
X0496D02*
D03*
X0506D02*
D03*
X0516D02*
D03*
X0526D02*
D03*
X036298Y015503D02*
D03*
Y014503D02*
D03*
X0262Y02575D02*
D03*
Y02475D02*
D03*
X0486Y0236D02*
D03*
X0496D02*
D03*
D19*
X0484Y0137D02*
D03*
X0504D02*
D03*
X0494D02*
D03*
X04305Y02D02*
D03*
X04405D02*
D03*
X04505D02*
D03*
X04605D02*
D03*
X04705D02*
D03*
X04805D02*
D03*
X04905D02*
D03*
X05005D02*
D03*
X054841Y027865D02*
D03*
Y026865D02*
D03*
Y025865D02*
D03*
Y024865D02*
D03*
X02415Y01531D02*
D03*
X03035Y0222D02*
D03*
Y0192D02*
D03*
X05435Y0162D02*
D03*
Y0152D02*
D03*
X03375Y0428D02*
D03*
X03275D02*
D03*
X03175D02*
D03*
X03075D02*
D03*
X02975D02*
D03*
X02875D02*
D03*
X02775D02*
D03*
X02675D02*
D03*
X02575D02*
D03*
X02475D02*
D03*
X03475D02*
D03*
X03575D02*
D03*
X03675D02*
D03*
X03775D02*
D03*
X03875D02*
D03*
X03975D02*
D03*
X0346Y01985D02*
D03*
Y02085D02*
D03*
D20*
X02415Y01431D02*
D03*
D21*
X032637Y024755D02*
D03*
X027637D02*
D03*
X0199Y03845D02*
D03*
Y03945D02*
D03*
Y04045D02*
D03*
X0336Y01815D02*
D03*
X0386D02*
D03*
X035983Y021842D02*
D03*
X040983D02*
D03*
X0526Y0172D02*
D03*
X0476D02*
D03*
X047597Y015504D02*
D03*
X052597D02*
D03*
X0519Y02215D02*
D03*
X0469D02*
D03*
X04375Y0448D02*
D03*
X03875D02*
D03*
D22*
X022585Y030595D02*
D03*
X052112D02*
D03*
X022585Y0428D02*
D03*
X052112D02*
D03*
D23*
X022638Y041339D02*
D03*
X058071Y045276D02*
D03*
X057087Y043307D02*
D03*
X058071Y041339D02*
D03*
X057087Y03937D02*
D03*
X058071Y037402D02*
D03*
X057087Y035433D02*
D03*
X058071Y033465D02*
D03*
X057087Y031496D02*
D03*
X058071Y029528D02*
D03*
Y025591D02*
D03*
Y021654D02*
D03*
Y017717D02*
D03*
Y01378D02*
D03*
X057087Y011811D02*
D03*
X056102Y045276D02*
D03*
X055118Y043307D02*
D03*
X056102Y041339D02*
D03*
X055118Y03937D02*
D03*
X056102Y037402D02*
D03*
X055118Y035433D02*
D03*
X056102Y033465D02*
D03*
X055118Y031496D02*
D03*
X056102Y029528D02*
D03*
X055118Y023622D02*
D03*
Y019685D02*
D03*
Y015748D02*
D03*
X054134Y045276D02*
D03*
Y041339D02*
D03*
Y037402D02*
D03*
Y033465D02*
D03*
Y029528D02*
D03*
X05315Y023622D02*
D03*
Y019685D02*
D03*
X054134Y01378D02*
D03*
X052165Y045276D02*
D03*
Y041339D02*
D03*
X051181Y03937D02*
D03*
X052165Y037402D02*
D03*
X051181Y035433D02*
D03*
X052165Y033465D02*
D03*
X050197Y045276D02*
D03*
X049213Y043307D02*
D03*
X050197Y041339D02*
D03*
X049213Y03937D02*
D03*
X050197Y037402D02*
D03*
X049213Y035433D02*
D03*
X050197Y033465D02*
D03*
X048228Y045276D02*
D03*
X047244Y043307D02*
D03*
X048228Y041339D02*
D03*
X047244Y03937D02*
D03*
X048228Y037402D02*
D03*
X047244Y035433D02*
D03*
X048228Y033465D02*
D03*
Y021654D02*
D03*
X04626Y045276D02*
D03*
X045276Y043307D02*
D03*
X04626Y041339D02*
D03*
X045276Y03937D02*
D03*
X04626Y037402D02*
D03*
X045276Y035433D02*
D03*
X04626Y01378D02*
D03*
X043307Y043307D02*
D03*
X044291Y041339D02*
D03*
X043307Y03937D02*
D03*
X044291Y037402D02*
D03*
Y01378D02*
D03*
X041339Y043307D02*
D03*
X042323Y041339D02*
D03*
X041339Y03937D02*
D03*
X042323Y033465D02*
D03*
Y017717D02*
D03*
Y01378D02*
D03*
X040354Y041339D02*
D03*
X03937Y035433D02*
D03*
X040354Y033465D02*
D03*
X03937Y023622D02*
D03*
Y019685D02*
D03*
X040354Y01378D02*
D03*
X038386Y037402D02*
D03*
X037402Y035433D02*
D03*
X038386Y033465D02*
D03*
X037402Y027559D02*
D03*
X038386Y025591D02*
D03*
X037402Y023622D02*
D03*
Y019685D02*
D03*
X038386Y01378D02*
D03*
X035433Y03937D02*
D03*
X036417Y037402D02*
D03*
X035433Y035433D02*
D03*
X036417Y033465D02*
D03*
X035433Y027559D02*
D03*
X036417Y025591D02*
D03*
X035433Y023622D02*
D03*
X034449Y041339D02*
D03*
X033465Y03937D02*
D03*
X034449Y037402D02*
D03*
X033465Y027559D02*
D03*
Y023622D02*
D03*
X03248Y041339D02*
D03*
X031496Y03937D02*
D03*
X03248Y037402D02*
D03*
X031496Y035433D02*
D03*
X03248Y033465D02*
D03*
X031496Y027559D02*
D03*
X03248Y025591D02*
D03*
X031496Y023622D02*
D03*
X03248Y017717D02*
D03*
X030512Y041339D02*
D03*
X029528Y035433D02*
D03*
X030512Y033465D02*
D03*
X029528Y027559D02*
D03*
X030512Y025591D02*
D03*
X029528Y023622D02*
D03*
X030512Y017717D02*
D03*
X027559Y03937D02*
D03*
X028543Y037402D02*
D03*
X027559Y035433D02*
D03*
X028543Y033465D02*
D03*
X027559Y027559D02*
D03*
X028543Y025591D02*
D03*
Y017717D02*
D03*
X027559Y011811D02*
D03*
X026575Y037402D02*
D03*
X025591Y035433D02*
D03*
X026575Y033465D02*
D03*
X025591Y027559D02*
D03*
Y023622D02*
D03*
X026575Y017717D02*
D03*
X025591Y015748D02*
D03*
X026575Y01378D02*
D03*
X025591Y011811D02*
D03*
X024606Y041339D02*
D03*
Y037402D02*
D03*
X023622Y035433D02*
D03*
X024606Y033465D02*
D03*
X023622Y027559D02*
D03*
Y023622D02*
D03*
Y011811D02*
D03*
X022638Y037402D02*
D03*
Y033465D02*
D03*
X021654Y027559D02*
D03*
X022638Y025591D02*
D03*
X021654Y019685D02*
D03*
X022638Y017717D02*
D03*
X021654Y015748D02*
D03*
Y011811D02*
D03*
X019685Y035433D02*
D03*
X020669Y033465D02*
D03*
X019685Y031496D02*
D03*
X020669Y029528D02*
D03*
X019685Y027559D02*
D03*
Y023622D02*
D03*
X020669Y021654D02*
D03*
X019685Y019685D02*
D03*
X020669Y017717D02*
D03*
X019685Y015748D02*
D03*
X020669Y01378D02*
D03*
X019685Y011811D02*
D03*
X018701Y045276D02*
D03*
X017717Y043307D02*
D03*
X018701Y033465D02*
D03*
Y029528D02*
D03*
X017717Y023622D02*
D03*
X018701Y021654D02*
D03*
X017717Y019685D02*
D03*
X018701Y017717D02*
D03*
X017717Y015748D02*
D03*
X018701Y01378D02*
D03*
X017717Y011811D02*
D03*
X03985Y02595D02*
D03*
X0466Y025644D02*
D03*
X039546D02*
D03*
X0476Y02595D02*
D03*
M02*
