M48
;Layer_Color=9474304
;FILE_FORMAT=2:4
INCH,LZ
;TYPE=PLATED
T1F00S00C0.0118
T2F00S00C0.0315
T3F00S00C0.0394
T4F00S00C0.1378
%
T01
X017717Y011811
X019685
X021654
X023622
X025591
X027559
X026575Y01378
X020669
X018701
X038386
X040354
X042323
X044291
X04626
X054134
X058071
X057087Y011811
X055118Y015748
Y019685
X05315
Y023622
X055118
X058071Y025591
Y029528
X056102
X054134
X0476Y02595
X048228Y021654
X058071
Y017717
X042323
X03937Y019685
X037402
Y023622
X03937
X039546Y025644
X03985Y02595
X038386Y025591
X036417
X037402Y027559
X035433
X033465
X031496
X03248Y025591
X033465Y023622
X035433
X031496
X03248Y017717
X0466Y025644
X030512Y025591
X028543
X029528Y027559
X027559
X025591
X023622
X021654
X019685
X020669Y029528
X018701
X019685Y023622
X017717
X018701Y021654
X020669
X021654Y019685
X019685
X017717
X018701Y017717
X020669
X022638
X021654Y015748
X019685
X017717
X025591
X026575Y017717
X028543
X030512
X029528Y023622
X025591
X023622
X022638Y025591
Y033465
X024606
X026575
X028543
X030512
X029528Y035433
X027559
X025591
X023622
X024606Y037402
X026575
X028543
X027559Y03937
X030512Y041339
X024606
X022638
Y037402
X019685Y035433
X020669Y033465
X018701
X019685Y031496
X017717Y043307
X018701Y045276
X03248Y041339
X034449
X035433Y03937
X033465
X031496
X03248Y037402
X034449
X036417
X038386
X03937Y035433
X037402
X035433
X036417Y033465
X038386
X040354
X042323
X045276Y035433
X04626Y037402
X044291
X045276Y03937
X043307
X041339
X042323Y041339
X044291
X04626
X045276Y043307
X043307
X041339
X040354Y041339
X04626Y045276
X031496Y035433
X03248Y033465
X048228
X050197
X052165
X054134
X056102
X058071
X057087Y035433
X055118
X056102Y037402
X058071
X057087Y03937
X055118
X056102Y041339
X058071
X057087Y043307
X055118
X056102Y045276
X058071
X054134
X052165
X050197
X048228
X049213Y043307
X047244
X048228Y041339
X050197
X052165
X054134
Y037402
X052165
X050197
X048228
X049213Y03937
X051181
Y035433
X049213
X047244
Y03937
X055118Y031496
X057087
T02
X036298Y014503
Y015503
X047597Y015504
X052597
X0526Y0172
X0476
X0469Y02215
X0486Y0236
X0496
Y02485
X0486
X0476
X0506
X0516
X0526
Y02785
X0516
X0506
X0496
X0486
X0476
X0519Y02215
X0466Y02485
X0456
X0446
X0436
Y02785
X0446
X0456
X0466
X040983Y021842
X0407Y01815
X0397
X0386
X0336
X035983Y021842
X0344Y0248
X0334
X032637Y024755
X027637
X0262Y02475
Y02575
X02435Y025537
Y02475
X0199Y03845
Y03945
Y04045
X03875Y0448
X04375
T03
X02415Y01431
Y01531
X03355Y0155
Y014122
X0484Y0137
X0494
X0504
X05435Y0152
Y0162
Y0172
X05005Y02
X04905
X04805
X04705
X054841Y024865
Y025865
Y026865
Y027865
X04605Y02
X04505
X04405
X04305
X0346Y01985
Y02085
Y02185
X03035Y0222
Y0192
X026119Y020936
X02415
X02475Y0428
X02575
X02675
X02775
X02875
X02975
X03075
X03175
X03275
X03375
X03475
X03575
X03675
X03775
X03875
X03975
T04
X052112Y030595
X022585
Y0428
X052112
M30
