G04*
G04 #@! TF.GenerationSoftware,Altium Limited,Altium Designer,21.9.2 (33)*
G04*
G04 Layer_Physical_Order=2*
G04 Layer_Color=255*
%FSTAX24Y24*%
%MOIN*%
G70*
G04*
G04 #@! TF.SameCoordinates,FB3CEF1A-BC9A-443B-9A05-8590AB0A4EFD*
G04*
G04*
G04 #@! TF.FilePolarity,Positive*
G04*
G01*
G75*
%ADD10C,0.0118*%
%ADD25C,0.0591*%
%ADD26C,0.0630*%
%ADD27C,0.0512*%
%ADD28R,0.0630X0.0630*%
%ADD29C,0.1575*%
%ADD30C,0.0276*%
G36*
X058832Y011018D02*
X015868D01*
Y046782D01*
X058832D01*
Y011018D01*
D02*
G37*
%LPC*%
G36*
X058169Y045596D02*
Y045374D01*
X058391D01*
X058383Y045405D01*
X058339Y045481D01*
X058276Y045543D01*
X0582Y045587D01*
X058169Y045596D01*
D02*
G37*
G36*
X057972D02*
X057942Y045587D01*
X057865Y045543D01*
X057803Y045481D01*
X057759Y045405D01*
X057751Y045374D01*
X057972D01*
Y045596D01*
D02*
G37*
G36*
X056201D02*
Y045374D01*
X056422D01*
X056414Y045405D01*
X05637Y045481D01*
X056308Y045543D01*
X056232Y045587D01*
X056201Y045596D01*
D02*
G37*
G36*
X056004D02*
X055973Y045587D01*
X055897Y045543D01*
X055835Y045481D01*
X055791Y045405D01*
X055782Y045374D01*
X056004D01*
Y045596D01*
D02*
G37*
G36*
X054232D02*
Y045374D01*
X054454D01*
X054446Y045405D01*
X054402Y045481D01*
X054339Y045543D01*
X054263Y045587D01*
X054232Y045596D01*
D02*
G37*
G36*
X054035D02*
X054005Y045587D01*
X053928Y045543D01*
X053866Y045481D01*
X053822Y045405D01*
X053814Y045374D01*
X054035D01*
Y045596D01*
D02*
G37*
G36*
X052264D02*
Y045374D01*
X052485D01*
X052477Y045405D01*
X052433Y045481D01*
X052371Y045543D01*
X052295Y045587D01*
X052264Y045596D01*
D02*
G37*
G36*
X052067D02*
X052036Y045587D01*
X05196Y045543D01*
X051898Y045481D01*
X051854Y045405D01*
X051845Y045374D01*
X052067D01*
Y045596D01*
D02*
G37*
G36*
X050295D02*
Y045374D01*
X050517D01*
X050509Y045405D01*
X050465Y045481D01*
X050402Y045543D01*
X050326Y045587D01*
X050295Y045596D01*
D02*
G37*
G36*
X050098D02*
X050068Y045587D01*
X049991Y045543D01*
X049929Y045481D01*
X049885Y045405D01*
X049877Y045374D01*
X050098D01*
Y045596D01*
D02*
G37*
G36*
X048327D02*
Y045374D01*
X048548D01*
X04854Y045405D01*
X048496Y045481D01*
X048434Y045543D01*
X048358Y045587D01*
X048327Y045596D01*
D02*
G37*
G36*
X04813D02*
X048099Y045587D01*
X048023Y045543D01*
X047961Y045481D01*
X047917Y045405D01*
X047908Y045374D01*
X04813D01*
Y045596D01*
D02*
G37*
G36*
X046358D02*
Y045374D01*
X04658D01*
X046572Y045405D01*
X046528Y045481D01*
X046465Y045543D01*
X046389Y045587D01*
X046358Y045596D01*
D02*
G37*
G36*
X046161D02*
X046131Y045587D01*
X046054Y045543D01*
X045992Y045481D01*
X045948Y045405D01*
X04594Y045374D01*
X046161D01*
Y045596D01*
D02*
G37*
G36*
X018799D02*
Y045374D01*
X019021D01*
X019013Y045405D01*
X018969Y045481D01*
X018906Y045543D01*
X01883Y045587D01*
X018799Y045596D01*
D02*
G37*
G36*
X018602D02*
X018572Y045587D01*
X018495Y045543D01*
X018433Y045481D01*
X018389Y045405D01*
X018381Y045374D01*
X018602D01*
Y045596D01*
D02*
G37*
G36*
X058391Y045177D02*
X058169D01*
Y044956D01*
X0582Y044964D01*
X058276Y045008D01*
X058339Y04507D01*
X058383Y045146D01*
X058391Y045177D01*
D02*
G37*
G36*
X057972D02*
X057751D01*
X057759Y045146D01*
X057803Y04507D01*
X057865Y045008D01*
X057942Y044964D01*
X057972Y044956D01*
Y045177D01*
D02*
G37*
G36*
X056422D02*
X056201D01*
Y044956D01*
X056232Y044964D01*
X056308Y045008D01*
X05637Y04507D01*
X056414Y045146D01*
X056422Y045177D01*
D02*
G37*
G36*
X056004D02*
X055782D01*
X055791Y045146D01*
X055835Y04507D01*
X055897Y045008D01*
X055973Y044964D01*
X056004Y044956D01*
Y045177D01*
D02*
G37*
G36*
X054454D02*
X054232D01*
Y044956D01*
X054263Y044964D01*
X054339Y045008D01*
X054402Y04507D01*
X054446Y045146D01*
X054454Y045177D01*
D02*
G37*
G36*
X054035D02*
X053814D01*
X053822Y045146D01*
X053866Y04507D01*
X053928Y045008D01*
X054005Y044964D01*
X054035Y044956D01*
Y045177D01*
D02*
G37*
G36*
X052485D02*
X052264D01*
Y044956D01*
X052295Y044964D01*
X052371Y045008D01*
X052433Y04507D01*
X052477Y045146D01*
X052485Y045177D01*
D02*
G37*
G36*
X052067D02*
X051845D01*
X051854Y045146D01*
X051898Y04507D01*
X05196Y045008D01*
X052036Y044964D01*
X052067Y044956D01*
Y045177D01*
D02*
G37*
G36*
X050517D02*
X050295D01*
Y044956D01*
X050326Y044964D01*
X050402Y045008D01*
X050465Y04507D01*
X050509Y045146D01*
X050517Y045177D01*
D02*
G37*
G36*
X050098D02*
X049877D01*
X049885Y045146D01*
X049929Y04507D01*
X049991Y045008D01*
X050068Y044964D01*
X050098Y044956D01*
Y045177D01*
D02*
G37*
G36*
X048548D02*
X048327D01*
Y044956D01*
X048358Y044964D01*
X048434Y045008D01*
X048496Y04507D01*
X04854Y045146D01*
X048548Y045177D01*
D02*
G37*
G36*
X04813D02*
X047908D01*
X047917Y045146D01*
X047961Y04507D01*
X048023Y045008D01*
X048099Y044964D01*
X04813Y044956D01*
Y045177D01*
D02*
G37*
G36*
X04658D02*
X046358D01*
Y044956D01*
X046389Y044964D01*
X046465Y045008D01*
X046528Y04507D01*
X046572Y045146D01*
X04658Y045177D01*
D02*
G37*
G36*
X046161D02*
X04594D01*
X045948Y045146D01*
X045992Y04507D01*
X046054Y045008D01*
X046131Y044964D01*
X046161Y044956D01*
Y045177D01*
D02*
G37*
G36*
X019021D02*
X018799D01*
Y044956D01*
X01883Y044964D01*
X018906Y045008D01*
X018969Y04507D01*
X019013Y045146D01*
X019021Y045177D01*
D02*
G37*
G36*
X018602D02*
X018381D01*
X018389Y045146D01*
X018433Y04507D01*
X018495Y045008D01*
X018572Y044964D01*
X018602Y044956D01*
Y045177D01*
D02*
G37*
G36*
X043799Y045174D02*
X043701D01*
X043606Y045149D01*
X04352Y045099D01*
X043451Y04503D01*
X043401Y044944D01*
X043376Y044849D01*
Y044751D01*
X043401Y044656D01*
X043451Y04457D01*
X04352Y044501D01*
X043606Y044451D01*
X043701Y044426D01*
X043799D01*
X043894Y044451D01*
X04398Y044501D01*
X044049Y04457D01*
X044099Y044656D01*
X044124Y044751D01*
Y044849D01*
X044099Y044944D01*
X044049Y04503D01*
X04398Y045099D01*
X043894Y045149D01*
X043799Y045174D01*
D02*
G37*
G36*
X038799D02*
X038701D01*
X038606Y045149D01*
X03852Y045099D01*
X038451Y04503D01*
X038401Y044944D01*
X038376Y044849D01*
Y044751D01*
X038401Y044656D01*
X038451Y04457D01*
X03852Y044501D01*
X038606Y044451D01*
X038701Y044426D01*
X038799D01*
X038894Y044451D01*
X03898Y044501D01*
X039049Y04457D01*
X039099Y044656D01*
X039124Y044751D01*
Y044849D01*
X039099Y044944D01*
X039049Y04503D01*
X03898Y045099D01*
X038894Y045149D01*
X038799Y045174D01*
D02*
G37*
G36*
X057185Y043627D02*
Y043406D01*
X057407D01*
X057398Y043436D01*
X057354Y043513D01*
X057292Y043575D01*
X057216Y043619D01*
X057185Y043627D01*
D02*
G37*
G36*
X056988D02*
X056957Y043619D01*
X056881Y043575D01*
X056819Y043513D01*
X056775Y043436D01*
X056767Y043406D01*
X056988D01*
Y043627D01*
D02*
G37*
G36*
X055217D02*
Y043406D01*
X055438D01*
X05543Y043436D01*
X055386Y043513D01*
X055324Y043575D01*
X055247Y043619D01*
X055217Y043627D01*
D02*
G37*
G36*
X05502D02*
X054989Y043619D01*
X054913Y043575D01*
X05485Y043513D01*
X054806Y043436D01*
X054798Y043406D01*
X05502D01*
Y043627D01*
D02*
G37*
G36*
X049311D02*
Y043406D01*
X049533D01*
X049524Y043436D01*
X04948Y043513D01*
X049418Y043575D01*
X049342Y043619D01*
X049311Y043627D01*
D02*
G37*
G36*
X049114D02*
X049083Y043619D01*
X049007Y043575D01*
X048945Y043513D01*
X048901Y043436D01*
X048893Y043406D01*
X049114D01*
Y043627D01*
D02*
G37*
G36*
X047343D02*
Y043406D01*
X047564D01*
X047556Y043436D01*
X047512Y043513D01*
X04745Y043575D01*
X047373Y043619D01*
X047343Y043627D01*
D02*
G37*
G36*
X047146D02*
X047115Y043619D01*
X047039Y043575D01*
X046976Y043513D01*
X046932Y043436D01*
X046924Y043406D01*
X047146D01*
Y043627D01*
D02*
G37*
G36*
X045374D02*
Y043406D01*
X045596D01*
X045587Y043436D01*
X045543Y043513D01*
X045481Y043575D01*
X045405Y043619D01*
X045374Y043627D01*
D02*
G37*
G36*
X045177D02*
X045146Y043619D01*
X04507Y043575D01*
X045008Y043513D01*
X044964Y043436D01*
X044956Y043406D01*
X045177D01*
Y043627D01*
D02*
G37*
G36*
X043406D02*
Y043406D01*
X043627D01*
X043619Y043436D01*
X043575Y043513D01*
X043513Y043575D01*
X043436Y043619D01*
X043406Y043627D01*
D02*
G37*
G36*
X043209D02*
X043178Y043619D01*
X043102Y043575D01*
X043039Y043513D01*
X042995Y043436D01*
X042987Y043406D01*
X043209D01*
Y043627D01*
D02*
G37*
G36*
X041437D02*
Y043406D01*
X041659D01*
X04165Y043436D01*
X041606Y043513D01*
X041544Y043575D01*
X041468Y043619D01*
X041437Y043627D01*
D02*
G37*
G36*
X04124D02*
X041209Y043619D01*
X041133Y043575D01*
X041071Y043513D01*
X041027Y043436D01*
X041019Y043406D01*
X04124D01*
Y043627D01*
D02*
G37*
G36*
X017815D02*
Y043406D01*
X018037D01*
X018028Y043436D01*
X017984Y043513D01*
X017922Y043575D01*
X017846Y043619D01*
X017815Y043627D01*
D02*
G37*
G36*
X017618D02*
X017587Y043619D01*
X017511Y043575D01*
X017449Y043513D01*
X017405Y043436D01*
X017396Y043406D01*
X017618D01*
Y043627D01*
D02*
G37*
G36*
X032652Y043303D02*
X032552Y043277D01*
X032436Y04321D01*
X03234Y043114D01*
X032277Y043004D01*
X03225Y043001D01*
X032223Y043004D01*
X03216Y043114D01*
X032064Y04321D01*
X031948Y043277D01*
X031848Y043303D01*
Y0428D01*
Y042297D01*
X031948Y042323D01*
X032064Y04239D01*
X03216Y042486D01*
X032223Y042596D01*
X03225Y042599D01*
X032277Y042596D01*
X03234Y042486D01*
X032436Y04239D01*
X032552Y042323D01*
X032652Y042297D01*
Y0428D01*
Y043303D01*
D02*
G37*
G36*
X031652D02*
X031552Y043277D01*
X031436Y04321D01*
X03134Y043114D01*
X031277Y043004D01*
X03125Y043001D01*
X031223Y043004D01*
X03116Y043114D01*
X031064Y04321D01*
X030948Y043277D01*
X030848Y043303D01*
Y0428D01*
Y042297D01*
X030948Y042323D01*
X031064Y04239D01*
X03116Y042486D01*
X031223Y042596D01*
X03125Y042599D01*
X031277Y042596D01*
X03134Y042486D01*
X031436Y04239D01*
X031552Y042323D01*
X031652Y042297D01*
Y0428D01*
Y043303D01*
D02*
G37*
G36*
X057407Y043209D02*
X057185D01*
Y042987D01*
X057216Y042995D01*
X057292Y043039D01*
X057354Y043102D01*
X057398Y043178D01*
X057407Y043209D01*
D02*
G37*
G36*
X056988D02*
X056767D01*
X056775Y043178D01*
X056819Y043102D01*
X056881Y043039D01*
X056957Y042995D01*
X056988Y042987D01*
Y043209D01*
D02*
G37*
G36*
X055438D02*
X055217D01*
Y042987D01*
X055247Y042995D01*
X055324Y043039D01*
X055386Y043102D01*
X05543Y043178D01*
X055438Y043209D01*
D02*
G37*
G36*
X05502D02*
X054798D01*
X054806Y043178D01*
X05485Y043102D01*
X054913Y043039D01*
X054989Y042995D01*
X05502Y042987D01*
Y043209D01*
D02*
G37*
G36*
X049533D02*
X049311D01*
Y042987D01*
X049342Y042995D01*
X049418Y043039D01*
X04948Y043102D01*
X049524Y043178D01*
X049533Y043209D01*
D02*
G37*
G36*
X049114D02*
X048893D01*
X048901Y043178D01*
X048945Y043102D01*
X049007Y043039D01*
X049083Y042995D01*
X049114Y042987D01*
Y043209D01*
D02*
G37*
G36*
X047564D02*
X047343D01*
Y042987D01*
X047373Y042995D01*
X04745Y043039D01*
X047512Y043102D01*
X047556Y043178D01*
X047564Y043209D01*
D02*
G37*
G36*
X047146D02*
X046924D01*
X046932Y043178D01*
X046976Y043102D01*
X047039Y043039D01*
X047115Y042995D01*
X047146Y042987D01*
Y043209D01*
D02*
G37*
G36*
X045596D02*
X045374D01*
Y042987D01*
X045405Y042995D01*
X045481Y043039D01*
X045543Y043102D01*
X045587Y043178D01*
X045596Y043209D01*
D02*
G37*
G36*
X045177D02*
X044956D01*
X044964Y043178D01*
X045008Y043102D01*
X04507Y043039D01*
X045146Y042995D01*
X045177Y042987D01*
Y043209D01*
D02*
G37*
G36*
X043627D02*
X043406D01*
Y042987D01*
X043436Y042995D01*
X043513Y043039D01*
X043575Y043102D01*
X043619Y043178D01*
X043627Y043209D01*
D02*
G37*
G36*
X043209D02*
X042987D01*
X042995Y043178D01*
X043039Y043102D01*
X043102Y043039D01*
X043178Y042995D01*
X043209Y042987D01*
Y043209D01*
D02*
G37*
G36*
X041659D02*
X041437D01*
Y042987D01*
X041468Y042995D01*
X041544Y043039D01*
X041606Y043102D01*
X04165Y043178D01*
X041659Y043209D01*
D02*
G37*
G36*
X04124D02*
X041019D01*
X041027Y043178D01*
X041071Y043102D01*
X041133Y043039D01*
X041209Y042995D01*
X04124Y042987D01*
Y043209D01*
D02*
G37*
G36*
X018037D02*
X017815D01*
Y042987D01*
X017846Y042995D01*
X017922Y043039D01*
X017984Y043102D01*
X018028Y043178D01*
X018037Y043209D01*
D02*
G37*
G36*
X017618D02*
X017396D01*
X017405Y043178D01*
X017449Y043102D01*
X017511Y043039D01*
X017587Y042995D01*
X017618Y042987D01*
Y043209D01*
D02*
G37*
G36*
X039848Y043303D02*
Y042898D01*
X040253D01*
X040227Y042998D01*
X04016Y043114D01*
X040064Y04321D01*
X039948Y043277D01*
X039848Y043303D01*
D02*
G37*
G36*
X039652D02*
X039552Y043277D01*
X039436Y04321D01*
X03934Y043114D01*
X039273Y042998D01*
X039247Y042898D01*
X039652D01*
Y043303D01*
D02*
G37*
G36*
X033848D02*
Y042898D01*
X034253D01*
X034227Y042998D01*
X03416Y043114D01*
X034064Y04321D01*
X033948Y043277D01*
X033848Y043303D01*
D02*
G37*
G36*
X030652D02*
X030552Y043277D01*
X030436Y04321D01*
X03034Y043114D01*
X030273Y042998D01*
X030247Y042898D01*
X030652D01*
Y043303D01*
D02*
G37*
G36*
X028848D02*
Y042898D01*
X029253D01*
X029227Y042998D01*
X02916Y043114D01*
X029064Y04321D01*
X028948Y043277D01*
X028848Y043303D01*
D02*
G37*
G36*
X028652D02*
X028552Y043277D01*
X028436Y04321D01*
X02834Y043114D01*
X028273Y042998D01*
X028247Y042898D01*
X028652D01*
Y043303D01*
D02*
G37*
G36*
X024848D02*
Y042898D01*
X025253D01*
X025227Y042998D01*
X02516Y043114D01*
X025064Y04321D01*
X024948Y043277D01*
X024848Y043303D01*
D02*
G37*
G36*
X024652D02*
X024552Y043277D01*
X024436Y04321D01*
X02434Y043114D01*
X024273Y042998D01*
X024247Y042898D01*
X024652D01*
Y043303D01*
D02*
G37*
G36*
X038807Y043233D02*
X038693D01*
X038583Y043204D01*
X038484Y043147D01*
X038403Y043066D01*
X038346Y042967D01*
X038317Y042857D01*
Y042743D01*
X038346Y042633D01*
X038403Y042534D01*
X038484Y042453D01*
X038583Y042396D01*
X038693Y042367D01*
X038807D01*
X038917Y042396D01*
X039016Y042453D01*
X039097Y042534D01*
X039154Y042633D01*
X039183Y042743D01*
Y042857D01*
X039154Y042967D01*
X039097Y043066D01*
X039016Y043147D01*
X038917Y043204D01*
X038807Y043233D01*
D02*
G37*
G36*
X037807D02*
X037693D01*
X037583Y043204D01*
X037484Y043147D01*
X037403Y043066D01*
X037346Y042967D01*
X037317Y042857D01*
Y042743D01*
X037346Y042633D01*
X037403Y042534D01*
X037484Y042453D01*
X037583Y042396D01*
X037693Y042367D01*
X037807D01*
X037917Y042396D01*
X038016Y042453D01*
X038097Y042534D01*
X038154Y042633D01*
X038183Y042743D01*
Y042857D01*
X038154Y042967D01*
X038097Y043066D01*
X038016Y043147D01*
X037917Y043204D01*
X037807Y043233D01*
D02*
G37*
G36*
X036807D02*
X036693D01*
X036583Y043204D01*
X036484Y043147D01*
X036403Y043066D01*
X036346Y042967D01*
X036317Y042857D01*
Y042743D01*
X036346Y042633D01*
X036403Y042534D01*
X036484Y042453D01*
X036583Y042396D01*
X036693Y042367D01*
X036807D01*
X036917Y042396D01*
X037016Y042453D01*
X037097Y042534D01*
X037154Y042633D01*
X037183Y042743D01*
Y042857D01*
X037154Y042967D01*
X037097Y043066D01*
X037016Y043147D01*
X036917Y043204D01*
X036807Y043233D01*
D02*
G37*
G36*
X035807D02*
X035693D01*
X035583Y043204D01*
X035484Y043147D01*
X035403Y043066D01*
X035346Y042967D01*
X035317Y042857D01*
Y042743D01*
X035346Y042633D01*
X035403Y042534D01*
X035484Y042453D01*
X035583Y042396D01*
X035693Y042367D01*
X035807D01*
X035917Y042396D01*
X036016Y042453D01*
X036097Y042534D01*
X036154Y042633D01*
X036183Y042743D01*
Y042857D01*
X036154Y042967D01*
X036097Y043066D01*
X036016Y043147D01*
X035917Y043204D01*
X035807Y043233D01*
D02*
G37*
G36*
X034807D02*
X034693D01*
X034583Y043204D01*
X034484Y043147D01*
X034403Y043066D01*
X034346Y042967D01*
X034317Y042857D01*
Y042743D01*
X034346Y042633D01*
X034403Y042534D01*
X034484Y042453D01*
X034583Y042396D01*
X034693Y042367D01*
X034807D01*
X034917Y042396D01*
X035016Y042453D01*
X035097Y042534D01*
X035154Y042633D01*
X035183Y042743D01*
Y042857D01*
X035154Y042967D01*
X035097Y043066D01*
X035016Y043147D01*
X034917Y043204D01*
X034807Y043233D01*
D02*
G37*
G36*
X029807D02*
X029693D01*
X029583Y043204D01*
X029484Y043147D01*
X029403Y043066D01*
X029346Y042967D01*
X029317Y042857D01*
Y042743D01*
X029346Y042633D01*
X029403Y042534D01*
X029484Y042453D01*
X029583Y042396D01*
X029693Y042367D01*
X029807D01*
X029917Y042396D01*
X030016Y042453D01*
X030097Y042534D01*
X030154Y042633D01*
X030183Y042743D01*
Y042857D01*
X030154Y042967D01*
X030097Y043066D01*
X030016Y043147D01*
X029917Y043204D01*
X029807Y043233D01*
D02*
G37*
G36*
X027807D02*
X027693D01*
X027583Y043204D01*
X027484Y043147D01*
X027403Y043066D01*
X027346Y042967D01*
X027317Y042857D01*
Y042743D01*
X027346Y042633D01*
X027403Y042534D01*
X027484Y042453D01*
X027583Y042396D01*
X027693Y042367D01*
X027807D01*
X027917Y042396D01*
X028016Y042453D01*
X028097Y042534D01*
X028154Y042633D01*
X028183Y042743D01*
Y042857D01*
X028154Y042967D01*
X028097Y043066D01*
X028016Y043147D01*
X027917Y043204D01*
X027807Y043233D01*
D02*
G37*
G36*
X026807D02*
X026693D01*
X026583Y043204D01*
X026484Y043147D01*
X026403Y043066D01*
X026346Y042967D01*
X026317Y042857D01*
Y042743D01*
X026346Y042633D01*
X026403Y042534D01*
X026484Y042453D01*
X026583Y042396D01*
X026693Y042367D01*
X026807D01*
X026917Y042396D01*
X027016Y042453D01*
X027097Y042534D01*
X027154Y042633D01*
X027183Y042743D01*
Y042857D01*
X027154Y042967D01*
X027097Y043066D01*
X027016Y043147D01*
X026917Y043204D01*
X026807Y043233D01*
D02*
G37*
G36*
X025807D02*
X025693D01*
X025583Y043204D01*
X025484Y043147D01*
X025403Y043066D01*
X025346Y042967D01*
X025317Y042857D01*
Y042743D01*
X025346Y042633D01*
X025403Y042534D01*
X025484Y042453D01*
X025583Y042396D01*
X025693Y042367D01*
X025807D01*
X025917Y042396D01*
X026016Y042453D01*
X026097Y042534D01*
X026154Y042633D01*
X026183Y042743D01*
Y042857D01*
X026154Y042967D01*
X026097Y043066D01*
X026016Y043147D01*
X025917Y043204D01*
X025807Y043233D01*
D02*
G37*
G36*
X040253Y042702D02*
X039848D01*
Y042297D01*
X039948Y042323D01*
X040064Y04239D01*
X04016Y042486D01*
X040227Y042602D01*
X040253Y042702D01*
D02*
G37*
G36*
X039652D02*
X039247D01*
X039273Y042602D01*
X03934Y042486D01*
X039436Y04239D01*
X039552Y042323D01*
X039652Y042297D01*
Y042702D01*
D02*
G37*
G36*
X034253D02*
X033848D01*
Y042297D01*
X033948Y042323D01*
X034064Y04239D01*
X03416Y042486D01*
X034227Y042602D01*
X034253Y042702D01*
D02*
G37*
G36*
X032848Y043303D02*
Y0428D01*
Y042297D01*
X032948Y042323D01*
X033064Y04239D01*
X03316Y042486D01*
X033223Y042596D01*
X03325Y042599D01*
X033277Y042596D01*
X03334Y042486D01*
X033436Y04239D01*
X033552Y042323D01*
X033652Y042297D01*
Y0428D01*
Y043303D01*
X033552Y043277D01*
X033436Y04321D01*
X03334Y043114D01*
X033277Y043004D01*
X03325Y043001D01*
X033223Y043004D01*
X03316Y043114D01*
X033064Y04321D01*
X032948Y043277D01*
X032848Y043303D01*
D02*
G37*
G36*
X030652Y042702D02*
X030247D01*
X030273Y042602D01*
X03034Y042486D01*
X030436Y04239D01*
X030552Y042323D01*
X030652Y042297D01*
Y042702D01*
D02*
G37*
G36*
X029253D02*
X028848D01*
Y042297D01*
X028948Y042323D01*
X029064Y04239D01*
X02916Y042486D01*
X029227Y042602D01*
X029253Y042702D01*
D02*
G37*
G36*
X028652D02*
X028247D01*
X028273Y042602D01*
X02834Y042486D01*
X028436Y04239D01*
X028552Y042323D01*
X028652Y042297D01*
Y042702D01*
D02*
G37*
G36*
X025253D02*
X024848D01*
Y042297D01*
X024948Y042323D01*
X025064Y04239D01*
X02516Y042486D01*
X025227Y042602D01*
X025253Y042702D01*
D02*
G37*
G36*
X024652D02*
X024247D01*
X024273Y042602D01*
X02434Y042486D01*
X024436Y04239D01*
X024552Y042323D01*
X024652Y042297D01*
Y042702D01*
D02*
G37*
G36*
X052201Y043706D02*
X052023D01*
X051848Y043671D01*
X051683Y043602D01*
X051535Y043503D01*
X051409Y043377D01*
X05131Y043229D01*
X051241Y043064D01*
X051207Y042889D01*
Y042711D01*
X051241Y042536D01*
X05131Y042371D01*
X051409Y042223D01*
X051535Y042097D01*
X051683Y041998D01*
X051848Y041929D01*
X052023Y041894D01*
X052201D01*
X052376Y041929D01*
X052541Y041998D01*
X052689Y042097D01*
X052816Y042223D01*
X052915Y042371D01*
X052983Y042536D01*
X053018Y042711D01*
Y042889D01*
X052983Y043064D01*
X052915Y043229D01*
X052816Y043377D01*
X052689Y043503D01*
X052541Y043602D01*
X052376Y043671D01*
X052201Y043706D01*
D02*
G37*
G36*
X022674D02*
X022495D01*
X022321Y043671D01*
X022156Y043602D01*
X022007Y043503D01*
X021881Y043377D01*
X021782Y043229D01*
X021714Y043064D01*
X021679Y042889D01*
Y042711D01*
X021714Y042536D01*
X021782Y042371D01*
X021881Y042223D01*
X022007Y042097D01*
X022156Y041998D01*
X022321Y041929D01*
X022495Y041894D01*
X022674D01*
X022849Y041929D01*
X023014Y041998D01*
X023162Y042097D01*
X023288Y042223D01*
X023387Y042371D01*
X023455Y042536D01*
X02349Y042711D01*
Y042889D01*
X023455Y043064D01*
X023387Y043229D01*
X023288Y043377D01*
X023162Y043503D01*
X023014Y043602D01*
X022849Y043671D01*
X022674Y043706D01*
D02*
G37*
G36*
X058169Y041659D02*
Y041437D01*
X058391D01*
X058383Y041468D01*
X058339Y041544D01*
X058276Y041606D01*
X0582Y04165D01*
X058169Y041659D01*
D02*
G37*
G36*
X057972D02*
X057942Y04165D01*
X057865Y041606D01*
X057803Y041544D01*
X057759Y041468D01*
X057751Y041437D01*
X057972D01*
Y041659D01*
D02*
G37*
G36*
X056201D02*
Y041437D01*
X056422D01*
X056414Y041468D01*
X05637Y041544D01*
X056308Y041606D01*
X056232Y04165D01*
X056201Y041659D01*
D02*
G37*
G36*
X056004D02*
X055973Y04165D01*
X055897Y041606D01*
X055835Y041544D01*
X055791Y041468D01*
X055782Y041437D01*
X056004D01*
Y041659D01*
D02*
G37*
G36*
X054232D02*
Y041437D01*
X054454D01*
X054446Y041468D01*
X054402Y041544D01*
X054339Y041606D01*
X054263Y04165D01*
X054232Y041659D01*
D02*
G37*
G36*
X054035D02*
X054005Y04165D01*
X053928Y041606D01*
X053866Y041544D01*
X053822Y041468D01*
X053814Y041437D01*
X054035D01*
Y041659D01*
D02*
G37*
G36*
X052264D02*
Y041437D01*
X052485D01*
X052477Y041468D01*
X052433Y041544D01*
X052371Y041606D01*
X052295Y04165D01*
X052264Y041659D01*
D02*
G37*
G36*
X052067D02*
X052036Y04165D01*
X05196Y041606D01*
X051898Y041544D01*
X051854Y041468D01*
X051845Y041437D01*
X052067D01*
Y041659D01*
D02*
G37*
G36*
X050295D02*
Y041437D01*
X050517D01*
X050509Y041468D01*
X050465Y041544D01*
X050402Y041606D01*
X050326Y04165D01*
X050295Y041659D01*
D02*
G37*
G36*
X050098D02*
X050068Y04165D01*
X049991Y041606D01*
X049929Y041544D01*
X049885Y041468D01*
X049877Y041437D01*
X050098D01*
Y041659D01*
D02*
G37*
G36*
X048327D02*
Y041437D01*
X048548D01*
X04854Y041468D01*
X048496Y041544D01*
X048434Y041606D01*
X048358Y04165D01*
X048327Y041659D01*
D02*
G37*
G36*
X04813D02*
X048099Y04165D01*
X048023Y041606D01*
X047961Y041544D01*
X047917Y041468D01*
X047908Y041437D01*
X04813D01*
Y041659D01*
D02*
G37*
G36*
X046358D02*
Y041437D01*
X04658D01*
X046572Y041468D01*
X046528Y041544D01*
X046465Y041606D01*
X046389Y04165D01*
X046358Y041659D01*
D02*
G37*
G36*
X046161D02*
X046131Y04165D01*
X046054Y041606D01*
X045992Y041544D01*
X045948Y041468D01*
X04594Y041437D01*
X046161D01*
Y041659D01*
D02*
G37*
G36*
X04439D02*
Y041437D01*
X044611D01*
X044603Y041468D01*
X044559Y041544D01*
X044497Y041606D01*
X044421Y04165D01*
X04439Y041659D01*
D02*
G37*
G36*
X044193D02*
X044162Y04165D01*
X044086Y041606D01*
X044024Y041544D01*
X04398Y041468D01*
X043971Y041437D01*
X044193D01*
Y041659D01*
D02*
G37*
G36*
X042421D02*
Y041437D01*
X042643D01*
X042635Y041468D01*
X042591Y041544D01*
X042528Y041606D01*
X042452Y04165D01*
X042421Y041659D01*
D02*
G37*
G36*
X042224D02*
X042194Y04165D01*
X042117Y041606D01*
X042055Y041544D01*
X042011Y041468D01*
X042003Y041437D01*
X042224D01*
Y041659D01*
D02*
G37*
G36*
X040453D02*
Y041437D01*
X040674D01*
X040666Y041468D01*
X040622Y041544D01*
X04056Y041606D01*
X040483Y04165D01*
X040453Y041659D01*
D02*
G37*
G36*
X040256D02*
X040225Y04165D01*
X040149Y041606D01*
X040087Y041544D01*
X040042Y041468D01*
X040034Y041437D01*
X040256D01*
Y041659D01*
D02*
G37*
G36*
X034547D02*
Y041437D01*
X034769D01*
X034761Y041468D01*
X034717Y041544D01*
X034654Y041606D01*
X034578Y04165D01*
X034547Y041659D01*
D02*
G37*
G36*
X03435D02*
X03432Y04165D01*
X034243Y041606D01*
X034181Y041544D01*
X034137Y041468D01*
X034129Y041437D01*
X03435D01*
Y041659D01*
D02*
G37*
G36*
X032579D02*
Y041437D01*
X0328D01*
X032792Y041468D01*
X032748Y041544D01*
X032686Y041606D01*
X032609Y04165D01*
X032579Y041659D01*
D02*
G37*
G36*
X032382D02*
X032351Y04165D01*
X032275Y041606D01*
X032213Y041544D01*
X032168Y041468D01*
X03216Y041437D01*
X032382D01*
Y041659D01*
D02*
G37*
G36*
X03061D02*
Y041437D01*
X030832D01*
X030824Y041468D01*
X03078Y041544D01*
X030717Y041606D01*
X030641Y04165D01*
X03061Y041659D01*
D02*
G37*
G36*
X030413D02*
X030383Y04165D01*
X030306Y041606D01*
X030244Y041544D01*
X0302Y041468D01*
X030192Y041437D01*
X030413D01*
Y041659D01*
D02*
G37*
G36*
X024705D02*
Y041437D01*
X024926D01*
X024918Y041468D01*
X024874Y041544D01*
X024812Y041606D01*
X024735Y04165D01*
X024705Y041659D01*
D02*
G37*
G36*
X024508D02*
X024477Y04165D01*
X024401Y041606D01*
X024339Y041544D01*
X024294Y041468D01*
X024286Y041437D01*
X024508D01*
Y041659D01*
D02*
G37*
G36*
X022736D02*
Y041437D01*
X022958D01*
X02295Y041468D01*
X022906Y041544D01*
X022843Y041606D01*
X022767Y04165D01*
X022736Y041659D01*
D02*
G37*
G36*
X022539D02*
X022509Y04165D01*
X022432Y041606D01*
X02237Y041544D01*
X022326Y041468D01*
X022318Y041437D01*
X022539D01*
Y041659D01*
D02*
G37*
G36*
X058391Y04124D02*
X058169D01*
Y041019D01*
X0582Y041027D01*
X058276Y041071D01*
X058339Y041133D01*
X058383Y041209D01*
X058391Y04124D01*
D02*
G37*
G36*
X057972D02*
X057751D01*
X057759Y041209D01*
X057803Y041133D01*
X057865Y041071D01*
X057942Y041027D01*
X057972Y041019D01*
Y04124D01*
D02*
G37*
G36*
X056422D02*
X056201D01*
Y041019D01*
X056232Y041027D01*
X056308Y041071D01*
X05637Y041133D01*
X056414Y041209D01*
X056422Y04124D01*
D02*
G37*
G36*
X056004D02*
X055782D01*
X055791Y041209D01*
X055835Y041133D01*
X055897Y041071D01*
X055973Y041027D01*
X056004Y041019D01*
Y04124D01*
D02*
G37*
G36*
X054454D02*
X054232D01*
Y041019D01*
X054263Y041027D01*
X054339Y041071D01*
X054402Y041133D01*
X054446Y041209D01*
X054454Y04124D01*
D02*
G37*
G36*
X054035D02*
X053814D01*
X053822Y041209D01*
X053866Y041133D01*
X053928Y041071D01*
X054005Y041027D01*
X054035Y041019D01*
Y04124D01*
D02*
G37*
G36*
X052485D02*
X052264D01*
Y041019D01*
X052295Y041027D01*
X052371Y041071D01*
X052433Y041133D01*
X052477Y041209D01*
X052485Y04124D01*
D02*
G37*
G36*
X052067D02*
X051845D01*
X051854Y041209D01*
X051898Y041133D01*
X05196Y041071D01*
X052036Y041027D01*
X052067Y041019D01*
Y04124D01*
D02*
G37*
G36*
X050517D02*
X050295D01*
Y041019D01*
X050326Y041027D01*
X050402Y041071D01*
X050465Y041133D01*
X050509Y041209D01*
X050517Y04124D01*
D02*
G37*
G36*
X050098D02*
X049877D01*
X049885Y041209D01*
X049929Y041133D01*
X049991Y041071D01*
X050068Y041027D01*
X050098Y041019D01*
Y04124D01*
D02*
G37*
G36*
X048548D02*
X048327D01*
Y041019D01*
X048358Y041027D01*
X048434Y041071D01*
X048496Y041133D01*
X04854Y041209D01*
X048548Y04124D01*
D02*
G37*
G36*
X04813D02*
X047908D01*
X047917Y041209D01*
X047961Y041133D01*
X048023Y041071D01*
X048099Y041027D01*
X04813Y041019D01*
Y04124D01*
D02*
G37*
G36*
X04658D02*
X046358D01*
Y041019D01*
X046389Y041027D01*
X046465Y041071D01*
X046528Y041133D01*
X046572Y041209D01*
X04658Y04124D01*
D02*
G37*
G36*
X046161D02*
X04594D01*
X045948Y041209D01*
X045992Y041133D01*
X046054Y041071D01*
X046131Y041027D01*
X046161Y041019D01*
Y04124D01*
D02*
G37*
G36*
X044611D02*
X04439D01*
Y041019D01*
X044421Y041027D01*
X044497Y041071D01*
X044559Y041133D01*
X044603Y041209D01*
X044611Y04124D01*
D02*
G37*
G36*
X044193D02*
X043971D01*
X04398Y041209D01*
X044024Y041133D01*
X044086Y041071D01*
X044162Y041027D01*
X044193Y041019D01*
Y04124D01*
D02*
G37*
G36*
X042643D02*
X042421D01*
Y041019D01*
X042452Y041027D01*
X042528Y041071D01*
X042591Y041133D01*
X042635Y041209D01*
X042643Y04124D01*
D02*
G37*
G36*
X042224D02*
X042003D01*
X042011Y041209D01*
X042055Y041133D01*
X042117Y041071D01*
X042194Y041027D01*
X042224Y041019D01*
Y04124D01*
D02*
G37*
G36*
X040674D02*
X040453D01*
Y041019D01*
X040483Y041027D01*
X04056Y041071D01*
X040622Y041133D01*
X040666Y041209D01*
X040674Y04124D01*
D02*
G37*
G36*
X040256D02*
X040034D01*
X040042Y041209D01*
X040087Y041133D01*
X040149Y041071D01*
X040225Y041027D01*
X040256Y041019D01*
Y04124D01*
D02*
G37*
G36*
X034769D02*
X034547D01*
Y041019D01*
X034578Y041027D01*
X034654Y041071D01*
X034717Y041133D01*
X034761Y041209D01*
X034769Y04124D01*
D02*
G37*
G36*
X03435D02*
X034129D01*
X034137Y041209D01*
X034181Y041133D01*
X034243Y041071D01*
X03432Y041027D01*
X03435Y041019D01*
Y04124D01*
D02*
G37*
G36*
X0328D02*
X032579D01*
Y041019D01*
X032609Y041027D01*
X032686Y041071D01*
X032748Y041133D01*
X032792Y041209D01*
X0328Y04124D01*
D02*
G37*
G36*
X032382D02*
X03216D01*
X032168Y041209D01*
X032213Y041133D01*
X032275Y041071D01*
X032351Y041027D01*
X032382Y041019D01*
Y04124D01*
D02*
G37*
G36*
X030832D02*
X03061D01*
Y041019D01*
X030641Y041027D01*
X030717Y041071D01*
X03078Y041133D01*
X030824Y041209D01*
X030832Y04124D01*
D02*
G37*
G36*
X030413D02*
X030192D01*
X0302Y041209D01*
X030244Y041133D01*
X030306Y041071D01*
X030383Y041027D01*
X030413Y041019D01*
Y04124D01*
D02*
G37*
G36*
X024926D02*
X024705D01*
Y041019D01*
X024735Y041027D01*
X024812Y041071D01*
X024874Y041133D01*
X024918Y041209D01*
X024926Y04124D01*
D02*
G37*
G36*
X024508D02*
X024286D01*
X024294Y041209D01*
X024339Y041133D01*
X024401Y041071D01*
X024477Y041027D01*
X024508Y041019D01*
Y04124D01*
D02*
G37*
G36*
X022958D02*
X022736D01*
Y041019D01*
X022767Y041027D01*
X022843Y041071D01*
X022906Y041133D01*
X02295Y041209D01*
X022958Y04124D01*
D02*
G37*
G36*
X022539D02*
X022318D01*
X022326Y041209D01*
X02237Y041133D01*
X022432Y041071D01*
X022509Y041027D01*
X022539Y041019D01*
Y04124D01*
D02*
G37*
G36*
X019949Y040824D02*
X019851D01*
X019756Y040799D01*
X01967Y040749D01*
X019601Y04068D01*
X019551Y040594D01*
X019526Y040499D01*
Y040401D01*
X019551Y040306D01*
X019601Y04022D01*
X01967Y040151D01*
X019756Y040101D01*
X019851Y040076D01*
X019949D01*
X020044Y040101D01*
X02013Y040151D01*
X020199Y04022D01*
X020249Y040306D01*
X020274Y040401D01*
Y040499D01*
X020249Y040594D01*
X020199Y04068D01*
X02013Y040749D01*
X020044Y040799D01*
X019949Y040824D01*
D02*
G37*
G36*
X057185Y03969D02*
Y039469D01*
X057407D01*
X057398Y039499D01*
X057354Y039576D01*
X057292Y039638D01*
X057216Y039682D01*
X057185Y03969D01*
D02*
G37*
G36*
X056988D02*
X056957Y039682D01*
X056881Y039638D01*
X056819Y039576D01*
X056775Y039499D01*
X056767Y039469D01*
X056988D01*
Y03969D01*
D02*
G37*
G36*
X055217D02*
Y039469D01*
X055438D01*
X05543Y039499D01*
X055386Y039576D01*
X055324Y039638D01*
X055247Y039682D01*
X055217Y03969D01*
D02*
G37*
G36*
X05502D02*
X054989Y039682D01*
X054913Y039638D01*
X05485Y039576D01*
X054806Y039499D01*
X054798Y039469D01*
X05502D01*
Y03969D01*
D02*
G37*
G36*
X05128D02*
Y039469D01*
X051501D01*
X051493Y039499D01*
X051449Y039576D01*
X051387Y039638D01*
X05131Y039682D01*
X05128Y03969D01*
D02*
G37*
G36*
X051083D02*
X051052Y039682D01*
X050976Y039638D01*
X050913Y039576D01*
X050869Y039499D01*
X050861Y039469D01*
X051083D01*
Y03969D01*
D02*
G37*
G36*
X049311D02*
Y039469D01*
X049533D01*
X049524Y039499D01*
X04948Y039576D01*
X049418Y039638D01*
X049342Y039682D01*
X049311Y03969D01*
D02*
G37*
G36*
X049114D02*
X049083Y039682D01*
X049007Y039638D01*
X048945Y039576D01*
X048901Y039499D01*
X048893Y039469D01*
X049114D01*
Y03969D01*
D02*
G37*
G36*
X047343D02*
Y039469D01*
X047564D01*
X047556Y039499D01*
X047512Y039576D01*
X04745Y039638D01*
X047373Y039682D01*
X047343Y03969D01*
D02*
G37*
G36*
X047146D02*
X047115Y039682D01*
X047039Y039638D01*
X046976Y039576D01*
X046932Y039499D01*
X046924Y039469D01*
X047146D01*
Y03969D01*
D02*
G37*
G36*
X045374D02*
Y039469D01*
X045596D01*
X045587Y039499D01*
X045543Y039576D01*
X045481Y039638D01*
X045405Y039682D01*
X045374Y03969D01*
D02*
G37*
G36*
X045177D02*
X045146Y039682D01*
X04507Y039638D01*
X045008Y039576D01*
X044964Y039499D01*
X044956Y039469D01*
X045177D01*
Y03969D01*
D02*
G37*
G36*
X043406D02*
Y039469D01*
X043627D01*
X043619Y039499D01*
X043575Y039576D01*
X043513Y039638D01*
X043436Y039682D01*
X043406Y03969D01*
D02*
G37*
G36*
X043209D02*
X043178Y039682D01*
X043102Y039638D01*
X043039Y039576D01*
X042995Y039499D01*
X042987Y039469D01*
X043209D01*
Y03969D01*
D02*
G37*
G36*
X041437D02*
Y039469D01*
X041659D01*
X04165Y039499D01*
X041606Y039576D01*
X041544Y039638D01*
X041468Y039682D01*
X041437Y03969D01*
D02*
G37*
G36*
X04124D02*
X041209Y039682D01*
X041133Y039638D01*
X041071Y039576D01*
X041027Y039499D01*
X041019Y039469D01*
X04124D01*
Y03969D01*
D02*
G37*
G36*
X035531D02*
Y039469D01*
X035753D01*
X035745Y039499D01*
X035701Y039576D01*
X035639Y039638D01*
X035562Y039682D01*
X035531Y03969D01*
D02*
G37*
G36*
X035335D02*
X035304Y039682D01*
X035228Y039638D01*
X035165Y039576D01*
X035121Y039499D01*
X035113Y039469D01*
X035335D01*
Y03969D01*
D02*
G37*
G36*
X033563D02*
Y039469D01*
X033785D01*
X033776Y039499D01*
X033732Y039576D01*
X03367Y039638D01*
X033594Y039682D01*
X033563Y03969D01*
D02*
G37*
G36*
X033366D02*
X033335Y039682D01*
X033259Y039638D01*
X033197Y039576D01*
X033153Y039499D01*
X033144Y039469D01*
X033366D01*
Y03969D01*
D02*
G37*
G36*
X031594D02*
Y039469D01*
X031816D01*
X031808Y039499D01*
X031764Y039576D01*
X031702Y039638D01*
X031625Y039682D01*
X031594Y03969D01*
D02*
G37*
G36*
X031398D02*
X031367Y039682D01*
X031291Y039638D01*
X031228Y039576D01*
X031184Y039499D01*
X031176Y039469D01*
X031398D01*
Y03969D01*
D02*
G37*
G36*
X027657D02*
Y039469D01*
X027879D01*
X027871Y039499D01*
X027827Y039576D01*
X027765Y039638D01*
X027688Y039682D01*
X027657Y03969D01*
D02*
G37*
G36*
X027461D02*
X02743Y039682D01*
X027354Y039638D01*
X027291Y039576D01*
X027247Y039499D01*
X027239Y039469D01*
X027461D01*
Y03969D01*
D02*
G37*
G36*
X019949Y039824D02*
X019851D01*
X019756Y039799D01*
X01967Y039749D01*
X019601Y03968D01*
X019551Y039594D01*
X019526Y039499D01*
Y039401D01*
X019551Y039306D01*
X019601Y03922D01*
X01967Y039151D01*
X019756Y039101D01*
X019851Y039076D01*
X019949D01*
X020044Y039101D01*
X02013Y039151D01*
X020199Y03922D01*
X020249Y039306D01*
X020274Y039401D01*
Y039499D01*
X020249Y039594D01*
X020199Y03968D01*
X02013Y039749D01*
X020044Y039799D01*
X019949Y039824D01*
D02*
G37*
G36*
X057407Y039272D02*
X057185D01*
Y03905D01*
X057216Y039058D01*
X057292Y039102D01*
X057354Y039165D01*
X057398Y039241D01*
X057407Y039272D01*
D02*
G37*
G36*
X056988D02*
X056767D01*
X056775Y039241D01*
X056819Y039165D01*
X056881Y039102D01*
X056957Y039058D01*
X056988Y03905D01*
Y039272D01*
D02*
G37*
G36*
X055438D02*
X055217D01*
Y03905D01*
X055247Y039058D01*
X055324Y039102D01*
X055386Y039165D01*
X05543Y039241D01*
X055438Y039272D01*
D02*
G37*
G36*
X05502D02*
X054798D01*
X054806Y039241D01*
X05485Y039165D01*
X054913Y039102D01*
X054989Y039058D01*
X05502Y03905D01*
Y039272D01*
D02*
G37*
G36*
X051501D02*
X05128D01*
Y03905D01*
X05131Y039058D01*
X051387Y039102D01*
X051449Y039165D01*
X051493Y039241D01*
X051501Y039272D01*
D02*
G37*
G36*
X051083D02*
X050861D01*
X050869Y039241D01*
X050913Y039165D01*
X050976Y039102D01*
X051052Y039058D01*
X051083Y03905D01*
Y039272D01*
D02*
G37*
G36*
X049533D02*
X049311D01*
Y03905D01*
X049342Y039058D01*
X049418Y039102D01*
X04948Y039165D01*
X049524Y039241D01*
X049533Y039272D01*
D02*
G37*
G36*
X049114D02*
X048893D01*
X048901Y039241D01*
X048945Y039165D01*
X049007Y039102D01*
X049083Y039058D01*
X049114Y03905D01*
Y039272D01*
D02*
G37*
G36*
X047564D02*
X047343D01*
Y03905D01*
X047373Y039058D01*
X04745Y039102D01*
X047512Y039165D01*
X047556Y039241D01*
X047564Y039272D01*
D02*
G37*
G36*
X047146D02*
X046924D01*
X046932Y039241D01*
X046976Y039165D01*
X047039Y039102D01*
X047115Y039058D01*
X047146Y03905D01*
Y039272D01*
D02*
G37*
G36*
X045596D02*
X045374D01*
Y03905D01*
X045405Y039058D01*
X045481Y039102D01*
X045543Y039165D01*
X045587Y039241D01*
X045596Y039272D01*
D02*
G37*
G36*
X045177D02*
X044956D01*
X044964Y039241D01*
X045008Y039165D01*
X04507Y039102D01*
X045146Y039058D01*
X045177Y03905D01*
Y039272D01*
D02*
G37*
G36*
X043627D02*
X043406D01*
Y03905D01*
X043436Y039058D01*
X043513Y039102D01*
X043575Y039165D01*
X043619Y039241D01*
X043627Y039272D01*
D02*
G37*
G36*
X043209D02*
X042987D01*
X042995Y039241D01*
X043039Y039165D01*
X043102Y039102D01*
X043178Y039058D01*
X043209Y03905D01*
Y039272D01*
D02*
G37*
G36*
X041659D02*
X041437D01*
Y03905D01*
X041468Y039058D01*
X041544Y039102D01*
X041606Y039165D01*
X04165Y039241D01*
X041659Y039272D01*
D02*
G37*
G36*
X04124D02*
X041019D01*
X041027Y039241D01*
X041071Y039165D01*
X041133Y039102D01*
X041209Y039058D01*
X04124Y03905D01*
Y039272D01*
D02*
G37*
G36*
X035753D02*
X035531D01*
Y03905D01*
X035562Y039058D01*
X035639Y039102D01*
X035701Y039165D01*
X035745Y039241D01*
X035753Y039272D01*
D02*
G37*
G36*
X035335D02*
X035113D01*
X035121Y039241D01*
X035165Y039165D01*
X035228Y039102D01*
X035304Y039058D01*
X035335Y03905D01*
Y039272D01*
D02*
G37*
G36*
X033785D02*
X033563D01*
Y03905D01*
X033594Y039058D01*
X03367Y039102D01*
X033732Y039165D01*
X033776Y039241D01*
X033785Y039272D01*
D02*
G37*
G36*
X033366D02*
X033144D01*
X033153Y039241D01*
X033197Y039165D01*
X033259Y039102D01*
X033335Y039058D01*
X033366Y03905D01*
Y039272D01*
D02*
G37*
G36*
X031816D02*
X031594D01*
Y03905D01*
X031625Y039058D01*
X031702Y039102D01*
X031764Y039165D01*
X031808Y039241D01*
X031816Y039272D01*
D02*
G37*
G36*
X031398D02*
X031176D01*
X031184Y039241D01*
X031228Y039165D01*
X031291Y039102D01*
X031367Y039058D01*
X031398Y03905D01*
Y039272D01*
D02*
G37*
G36*
X027879D02*
X027657D01*
Y03905D01*
X027688Y039058D01*
X027765Y039102D01*
X027827Y039165D01*
X027871Y039241D01*
X027879Y039272D01*
D02*
G37*
G36*
X027461D02*
X027239D01*
X027247Y039241D01*
X027291Y039165D01*
X027354Y039102D01*
X02743Y039058D01*
X027461Y03905D01*
Y039272D01*
D02*
G37*
G36*
X019998Y038892D02*
Y038548D01*
X020342D01*
X020322Y038625D01*
X020262Y038728D01*
X020178Y038812D01*
X020075Y038872D01*
X019998Y038892D01*
D02*
G37*
G36*
X019802D02*
X019725Y038872D01*
X019622Y038812D01*
X019538Y038728D01*
X019478Y038625D01*
X019458Y038548D01*
X019802D01*
Y038892D01*
D02*
G37*
G36*
X020342Y038352D02*
X019998D01*
Y038008D01*
X020075Y038028D01*
X020178Y038088D01*
X020262Y038172D01*
X020322Y038275D01*
X020342Y038352D01*
D02*
G37*
G36*
X019802D02*
X019458D01*
X019478Y038275D01*
X019538Y038172D01*
X019622Y038088D01*
X019725Y038028D01*
X019802Y038008D01*
Y038352D01*
D02*
G37*
G36*
X058169Y037722D02*
Y0375D01*
X058391D01*
X058383Y037531D01*
X058339Y037607D01*
X058276Y037669D01*
X0582Y037713D01*
X058169Y037722D01*
D02*
G37*
G36*
X057972D02*
X057942Y037713D01*
X057865Y037669D01*
X057803Y037607D01*
X057759Y037531D01*
X057751Y0375D01*
X057972D01*
Y037722D01*
D02*
G37*
G36*
X056201D02*
Y0375D01*
X056422D01*
X056414Y037531D01*
X05637Y037607D01*
X056308Y037669D01*
X056232Y037713D01*
X056201Y037722D01*
D02*
G37*
G36*
X056004D02*
X055973Y037713D01*
X055897Y037669D01*
X055835Y037607D01*
X055791Y037531D01*
X055782Y0375D01*
X056004D01*
Y037722D01*
D02*
G37*
G36*
X054232D02*
Y0375D01*
X054454D01*
X054446Y037531D01*
X054402Y037607D01*
X054339Y037669D01*
X054263Y037713D01*
X054232Y037722D01*
D02*
G37*
G36*
X054035D02*
X054005Y037713D01*
X053928Y037669D01*
X053866Y037607D01*
X053822Y037531D01*
X053814Y0375D01*
X054035D01*
Y037722D01*
D02*
G37*
G36*
X052264D02*
Y0375D01*
X052485D01*
X052477Y037531D01*
X052433Y037607D01*
X052371Y037669D01*
X052295Y037713D01*
X052264Y037722D01*
D02*
G37*
G36*
X052067D02*
X052036Y037713D01*
X05196Y037669D01*
X051898Y037607D01*
X051854Y037531D01*
X051845Y0375D01*
X052067D01*
Y037722D01*
D02*
G37*
G36*
X050295D02*
Y0375D01*
X050517D01*
X050509Y037531D01*
X050465Y037607D01*
X050402Y037669D01*
X050326Y037713D01*
X050295Y037722D01*
D02*
G37*
G36*
X050098D02*
X050068Y037713D01*
X049991Y037669D01*
X049929Y037607D01*
X049885Y037531D01*
X049877Y0375D01*
X050098D01*
Y037722D01*
D02*
G37*
G36*
X048327D02*
Y0375D01*
X048548D01*
X04854Y037531D01*
X048496Y037607D01*
X048434Y037669D01*
X048358Y037713D01*
X048327Y037722D01*
D02*
G37*
G36*
X04813D02*
X048099Y037713D01*
X048023Y037669D01*
X047961Y037607D01*
X047917Y037531D01*
X047908Y0375D01*
X04813D01*
Y037722D01*
D02*
G37*
G36*
X046358D02*
Y0375D01*
X04658D01*
X046572Y037531D01*
X046528Y037607D01*
X046465Y037669D01*
X046389Y037713D01*
X046358Y037722D01*
D02*
G37*
G36*
X046161D02*
X046131Y037713D01*
X046054Y037669D01*
X045992Y037607D01*
X045948Y037531D01*
X04594Y0375D01*
X046161D01*
Y037722D01*
D02*
G37*
G36*
X04439D02*
Y0375D01*
X044611D01*
X044603Y037531D01*
X044559Y037607D01*
X044497Y037669D01*
X044421Y037713D01*
X04439Y037722D01*
D02*
G37*
G36*
X044193D02*
X044162Y037713D01*
X044086Y037669D01*
X044024Y037607D01*
X04398Y037531D01*
X043971Y0375D01*
X044193D01*
Y037722D01*
D02*
G37*
G36*
X038484D02*
Y0375D01*
X038706D01*
X038698Y037531D01*
X038654Y037607D01*
X038591Y037669D01*
X038515Y037713D01*
X038484Y037722D01*
D02*
G37*
G36*
X038287D02*
X038257Y037713D01*
X03818Y037669D01*
X038118Y037607D01*
X038074Y037531D01*
X038066Y0375D01*
X038287D01*
Y037722D01*
D02*
G37*
G36*
X036516D02*
Y0375D01*
X036737D01*
X036729Y037531D01*
X036685Y037607D01*
X036623Y037669D01*
X036546Y037713D01*
X036516Y037722D01*
D02*
G37*
G36*
X036319D02*
X036288Y037713D01*
X036212Y037669D01*
X03615Y037607D01*
X036105Y037531D01*
X036097Y0375D01*
X036319D01*
Y037722D01*
D02*
G37*
G36*
X034547D02*
Y0375D01*
X034769D01*
X034761Y037531D01*
X034717Y037607D01*
X034654Y037669D01*
X034578Y037713D01*
X034547Y037722D01*
D02*
G37*
G36*
X03435D02*
X03432Y037713D01*
X034243Y037669D01*
X034181Y037607D01*
X034137Y037531D01*
X034129Y0375D01*
X03435D01*
Y037722D01*
D02*
G37*
G36*
X032579D02*
Y0375D01*
X0328D01*
X032792Y037531D01*
X032748Y037607D01*
X032686Y037669D01*
X032609Y037713D01*
X032579Y037722D01*
D02*
G37*
G36*
X032382D02*
X032351Y037713D01*
X032275Y037669D01*
X032213Y037607D01*
X032168Y037531D01*
X03216Y0375D01*
X032382D01*
Y037722D01*
D02*
G37*
G36*
X028642D02*
Y0375D01*
X028863D01*
X028855Y037531D01*
X028811Y037607D01*
X028749Y037669D01*
X028672Y037713D01*
X028642Y037722D01*
D02*
G37*
G36*
X028445D02*
X028414Y037713D01*
X028338Y037669D01*
X028276Y037607D01*
X028231Y037531D01*
X028223Y0375D01*
X028445D01*
Y037722D01*
D02*
G37*
G36*
X026673D02*
Y0375D01*
X026895D01*
X026887Y037531D01*
X026843Y037607D01*
X02678Y037669D01*
X026704Y037713D01*
X026673Y037722D01*
D02*
G37*
G36*
X026476D02*
X026446Y037713D01*
X026369Y037669D01*
X026307Y037607D01*
X026263Y037531D01*
X026255Y0375D01*
X026476D01*
Y037722D01*
D02*
G37*
G36*
X024705D02*
Y0375D01*
X024926D01*
X024918Y037531D01*
X024874Y037607D01*
X024812Y037669D01*
X024735Y037713D01*
X024705Y037722D01*
D02*
G37*
G36*
X024508D02*
X024477Y037713D01*
X024401Y037669D01*
X024339Y037607D01*
X024294Y037531D01*
X024286Y0375D01*
X024508D01*
Y037722D01*
D02*
G37*
G36*
X022736D02*
Y0375D01*
X022958D01*
X02295Y037531D01*
X022906Y037607D01*
X022843Y037669D01*
X022767Y037713D01*
X022736Y037722D01*
D02*
G37*
G36*
X022539D02*
X022509Y037713D01*
X022432Y037669D01*
X02237Y037607D01*
X022326Y037531D01*
X022318Y0375D01*
X022539D01*
Y037722D01*
D02*
G37*
G36*
X058391Y037303D02*
X058169D01*
Y037081D01*
X0582Y03709D01*
X058276Y037134D01*
X058339Y037196D01*
X058383Y037272D01*
X058391Y037303D01*
D02*
G37*
G36*
X057972D02*
X057751D01*
X057759Y037272D01*
X057803Y037196D01*
X057865Y037134D01*
X057942Y03709D01*
X057972Y037081D01*
Y037303D01*
D02*
G37*
G36*
X056422D02*
X056201D01*
Y037081D01*
X056232Y03709D01*
X056308Y037134D01*
X05637Y037196D01*
X056414Y037272D01*
X056422Y037303D01*
D02*
G37*
G36*
X056004D02*
X055782D01*
X055791Y037272D01*
X055835Y037196D01*
X055897Y037134D01*
X055973Y03709D01*
X056004Y037081D01*
Y037303D01*
D02*
G37*
G36*
X054454D02*
X054232D01*
Y037081D01*
X054263Y03709D01*
X054339Y037134D01*
X054402Y037196D01*
X054446Y037272D01*
X054454Y037303D01*
D02*
G37*
G36*
X054035D02*
X053814D01*
X053822Y037272D01*
X053866Y037196D01*
X053928Y037134D01*
X054005Y03709D01*
X054035Y037081D01*
Y037303D01*
D02*
G37*
G36*
X052485D02*
X052264D01*
Y037081D01*
X052295Y03709D01*
X052371Y037134D01*
X052433Y037196D01*
X052477Y037272D01*
X052485Y037303D01*
D02*
G37*
G36*
X052067D02*
X051845D01*
X051854Y037272D01*
X051898Y037196D01*
X05196Y037134D01*
X052036Y03709D01*
X052067Y037081D01*
Y037303D01*
D02*
G37*
G36*
X050517D02*
X050295D01*
Y037081D01*
X050326Y03709D01*
X050402Y037134D01*
X050465Y037196D01*
X050509Y037272D01*
X050517Y037303D01*
D02*
G37*
G36*
X050098D02*
X049877D01*
X049885Y037272D01*
X049929Y037196D01*
X049991Y037134D01*
X050068Y03709D01*
X050098Y037081D01*
Y037303D01*
D02*
G37*
G36*
X048548D02*
X048327D01*
Y037081D01*
X048358Y03709D01*
X048434Y037134D01*
X048496Y037196D01*
X04854Y037272D01*
X048548Y037303D01*
D02*
G37*
G36*
X04813D02*
X047908D01*
X047917Y037272D01*
X047961Y037196D01*
X048023Y037134D01*
X048099Y03709D01*
X04813Y037081D01*
Y037303D01*
D02*
G37*
G36*
X04658D02*
X046358D01*
Y037081D01*
X046389Y03709D01*
X046465Y037134D01*
X046528Y037196D01*
X046572Y037272D01*
X04658Y037303D01*
D02*
G37*
G36*
X046161D02*
X04594D01*
X045948Y037272D01*
X045992Y037196D01*
X046054Y037134D01*
X046131Y03709D01*
X046161Y037081D01*
Y037303D01*
D02*
G37*
G36*
X044611D02*
X04439D01*
Y037081D01*
X044421Y03709D01*
X044497Y037134D01*
X044559Y037196D01*
X044603Y037272D01*
X044611Y037303D01*
D02*
G37*
G36*
X044193D02*
X043971D01*
X04398Y037272D01*
X044024Y037196D01*
X044086Y037134D01*
X044162Y03709D01*
X044193Y037081D01*
Y037303D01*
D02*
G37*
G36*
X038706D02*
X038484D01*
Y037081D01*
X038515Y03709D01*
X038591Y037134D01*
X038654Y037196D01*
X038698Y037272D01*
X038706Y037303D01*
D02*
G37*
G36*
X038287D02*
X038066D01*
X038074Y037272D01*
X038118Y037196D01*
X03818Y037134D01*
X038257Y03709D01*
X038287Y037081D01*
Y037303D01*
D02*
G37*
G36*
X036737D02*
X036516D01*
Y037081D01*
X036546Y03709D01*
X036623Y037134D01*
X036685Y037196D01*
X036729Y037272D01*
X036737Y037303D01*
D02*
G37*
G36*
X036319D02*
X036097D01*
X036105Y037272D01*
X03615Y037196D01*
X036212Y037134D01*
X036288Y03709D01*
X036319Y037081D01*
Y037303D01*
D02*
G37*
G36*
X034769D02*
X034547D01*
Y037081D01*
X034578Y03709D01*
X034654Y037134D01*
X034717Y037196D01*
X034761Y037272D01*
X034769Y037303D01*
D02*
G37*
G36*
X03435D02*
X034129D01*
X034137Y037272D01*
X034181Y037196D01*
X034243Y037134D01*
X03432Y03709D01*
X03435Y037081D01*
Y037303D01*
D02*
G37*
G36*
X0328D02*
X032579D01*
Y037081D01*
X032609Y03709D01*
X032686Y037134D01*
X032748Y037196D01*
X032792Y037272D01*
X0328Y037303D01*
D02*
G37*
G36*
X032382D02*
X03216D01*
X032168Y037272D01*
X032213Y037196D01*
X032275Y037134D01*
X032351Y03709D01*
X032382Y037081D01*
Y037303D01*
D02*
G37*
G36*
X028863D02*
X028642D01*
Y037081D01*
X028672Y03709D01*
X028749Y037134D01*
X028811Y037196D01*
X028855Y037272D01*
X028863Y037303D01*
D02*
G37*
G36*
X028445D02*
X028223D01*
X028231Y037272D01*
X028276Y037196D01*
X028338Y037134D01*
X028414Y03709D01*
X028445Y037081D01*
Y037303D01*
D02*
G37*
G36*
X026895D02*
X026673D01*
Y037081D01*
X026704Y03709D01*
X02678Y037134D01*
X026843Y037196D01*
X026887Y037272D01*
X026895Y037303D01*
D02*
G37*
G36*
X026476D02*
X026255D01*
X026263Y037272D01*
X026307Y037196D01*
X026369Y037134D01*
X026446Y03709D01*
X026476Y037081D01*
Y037303D01*
D02*
G37*
G36*
X024926D02*
X024705D01*
Y037081D01*
X024735Y03709D01*
X024812Y037134D01*
X024874Y037196D01*
X024918Y037272D01*
X024926Y037303D01*
D02*
G37*
G36*
X024508D02*
X024286D01*
X024294Y037272D01*
X024339Y037196D01*
X024401Y037134D01*
X024477Y03709D01*
X024508Y037081D01*
Y037303D01*
D02*
G37*
G36*
X022958D02*
X022736D01*
Y037081D01*
X022767Y03709D01*
X022843Y037134D01*
X022906Y037196D01*
X02295Y037272D01*
X022958Y037303D01*
D02*
G37*
G36*
X022539D02*
X022318D01*
X022326Y037272D01*
X02237Y037196D01*
X022432Y037134D01*
X022509Y03709D01*
X022539Y037081D01*
Y037303D01*
D02*
G37*
G36*
X057185Y035753D02*
Y035531D01*
X057407D01*
X057398Y035562D01*
X057354Y035639D01*
X057292Y035701D01*
X057216Y035745D01*
X057185Y035753D01*
D02*
G37*
G36*
X056988D02*
X056957Y035745D01*
X056881Y035701D01*
X056819Y035639D01*
X056775Y035562D01*
X056767Y035531D01*
X056988D01*
Y035753D01*
D02*
G37*
G36*
X055217D02*
Y035531D01*
X055438D01*
X05543Y035562D01*
X055386Y035639D01*
X055324Y035701D01*
X055247Y035745D01*
X055217Y035753D01*
D02*
G37*
G36*
X05502D02*
X054989Y035745D01*
X054913Y035701D01*
X05485Y035639D01*
X054806Y035562D01*
X054798Y035531D01*
X05502D01*
Y035753D01*
D02*
G37*
G36*
X05128D02*
Y035531D01*
X051501D01*
X051493Y035562D01*
X051449Y035639D01*
X051387Y035701D01*
X05131Y035745D01*
X05128Y035753D01*
D02*
G37*
G36*
X051083D02*
X051052Y035745D01*
X050976Y035701D01*
X050913Y035639D01*
X050869Y035562D01*
X050861Y035531D01*
X051083D01*
Y035753D01*
D02*
G37*
G36*
X049311D02*
Y035531D01*
X049533D01*
X049524Y035562D01*
X04948Y035639D01*
X049418Y035701D01*
X049342Y035745D01*
X049311Y035753D01*
D02*
G37*
G36*
X049114D02*
X049083Y035745D01*
X049007Y035701D01*
X048945Y035639D01*
X048901Y035562D01*
X048893Y035531D01*
X049114D01*
Y035753D01*
D02*
G37*
G36*
X047343D02*
Y035531D01*
X047564D01*
X047556Y035562D01*
X047512Y035639D01*
X04745Y035701D01*
X047373Y035745D01*
X047343Y035753D01*
D02*
G37*
G36*
X047146D02*
X047115Y035745D01*
X047039Y035701D01*
X046976Y035639D01*
X046932Y035562D01*
X046924Y035531D01*
X047146D01*
Y035753D01*
D02*
G37*
G36*
X045374D02*
Y035531D01*
X045596D01*
X045587Y035562D01*
X045543Y035639D01*
X045481Y035701D01*
X045405Y035745D01*
X045374Y035753D01*
D02*
G37*
G36*
X045177D02*
X045146Y035745D01*
X04507Y035701D01*
X045008Y035639D01*
X044964Y035562D01*
X044956Y035531D01*
X045177D01*
Y035753D01*
D02*
G37*
G36*
X039469D02*
Y035531D01*
X03969D01*
X039682Y035562D01*
X039638Y035639D01*
X039576Y035701D01*
X039499Y035745D01*
X039469Y035753D01*
D02*
G37*
G36*
X039272D02*
X039241Y035745D01*
X039165Y035701D01*
X039102Y035639D01*
X039058Y035562D01*
X03905Y035531D01*
X039272D01*
Y035753D01*
D02*
G37*
G36*
X0375D02*
Y035531D01*
X037722D01*
X037713Y035562D01*
X037669Y035639D01*
X037607Y035701D01*
X037531Y035745D01*
X0375Y035753D01*
D02*
G37*
G36*
X037303D02*
X037272Y035745D01*
X037196Y035701D01*
X037134Y035639D01*
X03709Y035562D01*
X037081Y035531D01*
X037303D01*
Y035753D01*
D02*
G37*
G36*
X035531D02*
Y035531D01*
X035753D01*
X035745Y035562D01*
X035701Y035639D01*
X035639Y035701D01*
X035562Y035745D01*
X035531Y035753D01*
D02*
G37*
G36*
X035335D02*
X035304Y035745D01*
X035228Y035701D01*
X035165Y035639D01*
X035121Y035562D01*
X035113Y035531D01*
X035335D01*
Y035753D01*
D02*
G37*
G36*
X031594D02*
Y035531D01*
X031816D01*
X031808Y035562D01*
X031764Y035639D01*
X031702Y035701D01*
X031625Y035745D01*
X031594Y035753D01*
D02*
G37*
G36*
X031398D02*
X031367Y035745D01*
X031291Y035701D01*
X031228Y035639D01*
X031184Y035562D01*
X031176Y035531D01*
X031398D01*
Y035753D01*
D02*
G37*
G36*
X029626D02*
Y035531D01*
X029848D01*
X029839Y035562D01*
X029795Y035639D01*
X029733Y035701D01*
X029657Y035745D01*
X029626Y035753D01*
D02*
G37*
G36*
X029429D02*
X029398Y035745D01*
X029322Y035701D01*
X02926Y035639D01*
X029216Y035562D01*
X029207Y035531D01*
X029429D01*
Y035753D01*
D02*
G37*
G36*
X027657D02*
Y035531D01*
X027879D01*
X027871Y035562D01*
X027827Y035639D01*
X027765Y035701D01*
X027688Y035745D01*
X027657Y035753D01*
D02*
G37*
G36*
X027461D02*
X02743Y035745D01*
X027354Y035701D01*
X027291Y035639D01*
X027247Y035562D01*
X027239Y035531D01*
X027461D01*
Y035753D01*
D02*
G37*
G36*
X025689D02*
Y035531D01*
X025911D01*
X025902Y035562D01*
X025858Y035639D01*
X025796Y035701D01*
X02572Y035745D01*
X025689Y035753D01*
D02*
G37*
G36*
X025492D02*
X025461Y035745D01*
X025385Y035701D01*
X025323Y035639D01*
X025279Y035562D01*
X02527Y035531D01*
X025492D01*
Y035753D01*
D02*
G37*
G36*
X02372D02*
Y035531D01*
X023942D01*
X023934Y035562D01*
X02389Y035639D01*
X023828Y035701D01*
X023751Y035745D01*
X02372Y035753D01*
D02*
G37*
G36*
X023524D02*
X023493Y035745D01*
X023417Y035701D01*
X023354Y035639D01*
X02331Y035562D01*
X023302Y035531D01*
X023524D01*
Y035753D01*
D02*
G37*
G36*
X019783D02*
Y035531D01*
X020005D01*
X019997Y035562D01*
X019953Y035639D01*
X019891Y035701D01*
X019814Y035745D01*
X019783Y035753D01*
D02*
G37*
G36*
X019587D02*
X019556Y035745D01*
X01948Y035701D01*
X019417Y035639D01*
X019373Y035562D01*
X019365Y035531D01*
X019587D01*
Y035753D01*
D02*
G37*
G36*
X057407Y035335D02*
X057185D01*
Y035113D01*
X057216Y035121D01*
X057292Y035165D01*
X057354Y035228D01*
X057398Y035304D01*
X057407Y035335D01*
D02*
G37*
G36*
X056988D02*
X056767D01*
X056775Y035304D01*
X056819Y035228D01*
X056881Y035165D01*
X056957Y035121D01*
X056988Y035113D01*
Y035335D01*
D02*
G37*
G36*
X055438D02*
X055217D01*
Y035113D01*
X055247Y035121D01*
X055324Y035165D01*
X055386Y035228D01*
X05543Y035304D01*
X055438Y035335D01*
D02*
G37*
G36*
X05502D02*
X054798D01*
X054806Y035304D01*
X05485Y035228D01*
X054913Y035165D01*
X054989Y035121D01*
X05502Y035113D01*
Y035335D01*
D02*
G37*
G36*
X051501D02*
X05128D01*
Y035113D01*
X05131Y035121D01*
X051387Y035165D01*
X051449Y035228D01*
X051493Y035304D01*
X051501Y035335D01*
D02*
G37*
G36*
X051083D02*
X050861D01*
X050869Y035304D01*
X050913Y035228D01*
X050976Y035165D01*
X051052Y035121D01*
X051083Y035113D01*
Y035335D01*
D02*
G37*
G36*
X049533D02*
X049311D01*
Y035113D01*
X049342Y035121D01*
X049418Y035165D01*
X04948Y035228D01*
X049524Y035304D01*
X049533Y035335D01*
D02*
G37*
G36*
X049114D02*
X048893D01*
X048901Y035304D01*
X048945Y035228D01*
X049007Y035165D01*
X049083Y035121D01*
X049114Y035113D01*
Y035335D01*
D02*
G37*
G36*
X047564D02*
X047343D01*
Y035113D01*
X047373Y035121D01*
X04745Y035165D01*
X047512Y035228D01*
X047556Y035304D01*
X047564Y035335D01*
D02*
G37*
G36*
X047146D02*
X046924D01*
X046932Y035304D01*
X046976Y035228D01*
X047039Y035165D01*
X047115Y035121D01*
X047146Y035113D01*
Y035335D01*
D02*
G37*
G36*
X045596D02*
X045374D01*
Y035113D01*
X045405Y035121D01*
X045481Y035165D01*
X045543Y035228D01*
X045587Y035304D01*
X045596Y035335D01*
D02*
G37*
G36*
X045177D02*
X044956D01*
X044964Y035304D01*
X045008Y035228D01*
X04507Y035165D01*
X045146Y035121D01*
X045177Y035113D01*
Y035335D01*
D02*
G37*
G36*
X03969D02*
X039469D01*
Y035113D01*
X039499Y035121D01*
X039576Y035165D01*
X039638Y035228D01*
X039682Y035304D01*
X03969Y035335D01*
D02*
G37*
G36*
X039272D02*
X03905D01*
X039058Y035304D01*
X039102Y035228D01*
X039165Y035165D01*
X039241Y035121D01*
X039272Y035113D01*
Y035335D01*
D02*
G37*
G36*
X037722D02*
X0375D01*
Y035113D01*
X037531Y035121D01*
X037607Y035165D01*
X037669Y035228D01*
X037713Y035304D01*
X037722Y035335D01*
D02*
G37*
G36*
X037303D02*
X037081D01*
X03709Y035304D01*
X037134Y035228D01*
X037196Y035165D01*
X037272Y035121D01*
X037303Y035113D01*
Y035335D01*
D02*
G37*
G36*
X035753D02*
X035531D01*
Y035113D01*
X035562Y035121D01*
X035639Y035165D01*
X035701Y035228D01*
X035745Y035304D01*
X035753Y035335D01*
D02*
G37*
G36*
X035335D02*
X035113D01*
X035121Y035304D01*
X035165Y035228D01*
X035228Y035165D01*
X035304Y035121D01*
X035335Y035113D01*
Y035335D01*
D02*
G37*
G36*
X031816D02*
X031594D01*
Y035113D01*
X031625Y035121D01*
X031702Y035165D01*
X031764Y035228D01*
X031808Y035304D01*
X031816Y035335D01*
D02*
G37*
G36*
X031398D02*
X031176D01*
X031184Y035304D01*
X031228Y035228D01*
X031291Y035165D01*
X031367Y035121D01*
X031398Y035113D01*
Y035335D01*
D02*
G37*
G36*
X029848D02*
X029626D01*
Y035113D01*
X029657Y035121D01*
X029733Y035165D01*
X029795Y035228D01*
X029839Y035304D01*
X029848Y035335D01*
D02*
G37*
G36*
X029429D02*
X029207D01*
X029216Y035304D01*
X02926Y035228D01*
X029322Y035165D01*
X029398Y035121D01*
X029429Y035113D01*
Y035335D01*
D02*
G37*
G36*
X027879D02*
X027657D01*
Y035113D01*
X027688Y035121D01*
X027765Y035165D01*
X027827Y035228D01*
X027871Y035304D01*
X027879Y035335D01*
D02*
G37*
G36*
X027461D02*
X027239D01*
X027247Y035304D01*
X027291Y035228D01*
X027354Y035165D01*
X02743Y035121D01*
X027461Y035113D01*
Y035335D01*
D02*
G37*
G36*
X025911D02*
X025689D01*
Y035113D01*
X02572Y035121D01*
X025796Y035165D01*
X025858Y035228D01*
X025902Y035304D01*
X025911Y035335D01*
D02*
G37*
G36*
X025492D02*
X02527D01*
X025279Y035304D01*
X025323Y035228D01*
X025385Y035165D01*
X025461Y035121D01*
X025492Y035113D01*
Y035335D01*
D02*
G37*
G36*
X023942D02*
X02372D01*
Y035113D01*
X023751Y035121D01*
X023828Y035165D01*
X02389Y035228D01*
X023934Y035304D01*
X023942Y035335D01*
D02*
G37*
G36*
X023524D02*
X023302D01*
X02331Y035304D01*
X023354Y035228D01*
X023417Y035165D01*
X023493Y035121D01*
X023524Y035113D01*
Y035335D01*
D02*
G37*
G36*
X020005D02*
X019783D01*
Y035113D01*
X019814Y035121D01*
X019891Y035165D01*
X019953Y035228D01*
X019997Y035304D01*
X020005Y035335D01*
D02*
G37*
G36*
X019587D02*
X019365D01*
X019373Y035304D01*
X019417Y035228D01*
X01948Y035165D01*
X019556Y035121D01*
X019587Y035113D01*
Y035335D01*
D02*
G37*
G36*
X058169Y033785D02*
Y033563D01*
X058391D01*
X058383Y033594D01*
X058339Y03367D01*
X058276Y033732D01*
X0582Y033776D01*
X058169Y033785D01*
D02*
G37*
G36*
X057972D02*
X057942Y033776D01*
X057865Y033732D01*
X057803Y03367D01*
X057759Y033594D01*
X057751Y033563D01*
X057972D01*
Y033785D01*
D02*
G37*
G36*
X056201D02*
Y033563D01*
X056422D01*
X056414Y033594D01*
X05637Y03367D01*
X056308Y033732D01*
X056232Y033776D01*
X056201Y033785D01*
D02*
G37*
G36*
X056004D02*
X055973Y033776D01*
X055897Y033732D01*
X055835Y03367D01*
X055791Y033594D01*
X055782Y033563D01*
X056004D01*
Y033785D01*
D02*
G37*
G36*
X054232D02*
Y033563D01*
X054454D01*
X054446Y033594D01*
X054402Y03367D01*
X054339Y033732D01*
X054263Y033776D01*
X054232Y033785D01*
D02*
G37*
G36*
X054035D02*
X054005Y033776D01*
X053928Y033732D01*
X053866Y03367D01*
X053822Y033594D01*
X053814Y033563D01*
X054035D01*
Y033785D01*
D02*
G37*
G36*
X052264D02*
Y033563D01*
X052485D01*
X052477Y033594D01*
X052433Y03367D01*
X052371Y033732D01*
X052295Y033776D01*
X052264Y033785D01*
D02*
G37*
G36*
X052067D02*
X052036Y033776D01*
X05196Y033732D01*
X051898Y03367D01*
X051854Y033594D01*
X051845Y033563D01*
X052067D01*
Y033785D01*
D02*
G37*
G36*
X050295D02*
Y033563D01*
X050517D01*
X050509Y033594D01*
X050465Y03367D01*
X050402Y033732D01*
X050326Y033776D01*
X050295Y033785D01*
D02*
G37*
G36*
X050098D02*
X050068Y033776D01*
X049991Y033732D01*
X049929Y03367D01*
X049885Y033594D01*
X049877Y033563D01*
X050098D01*
Y033785D01*
D02*
G37*
G36*
X048327D02*
Y033563D01*
X048548D01*
X04854Y033594D01*
X048496Y03367D01*
X048434Y033732D01*
X048358Y033776D01*
X048327Y033785D01*
D02*
G37*
G36*
X04813D02*
X048099Y033776D01*
X048023Y033732D01*
X047961Y03367D01*
X047917Y033594D01*
X047908Y033563D01*
X04813D01*
Y033785D01*
D02*
G37*
G36*
X042421D02*
Y033563D01*
X042643D01*
X042635Y033594D01*
X042591Y03367D01*
X042528Y033732D01*
X042452Y033776D01*
X042421Y033785D01*
D02*
G37*
G36*
X042224D02*
X042194Y033776D01*
X042117Y033732D01*
X042055Y03367D01*
X042011Y033594D01*
X042003Y033563D01*
X042224D01*
Y033785D01*
D02*
G37*
G36*
X040453D02*
Y033563D01*
X040674D01*
X040666Y033594D01*
X040622Y03367D01*
X04056Y033732D01*
X040483Y033776D01*
X040453Y033785D01*
D02*
G37*
G36*
X040256D02*
X040225Y033776D01*
X040149Y033732D01*
X040087Y03367D01*
X040042Y033594D01*
X040034Y033563D01*
X040256D01*
Y033785D01*
D02*
G37*
G36*
X038484D02*
Y033563D01*
X038706D01*
X038698Y033594D01*
X038654Y03367D01*
X038591Y033732D01*
X038515Y033776D01*
X038484Y033785D01*
D02*
G37*
G36*
X038287D02*
X038257Y033776D01*
X03818Y033732D01*
X038118Y03367D01*
X038074Y033594D01*
X038066Y033563D01*
X038287D01*
Y033785D01*
D02*
G37*
G36*
X036516D02*
Y033563D01*
X036737D01*
X036729Y033594D01*
X036685Y03367D01*
X036623Y033732D01*
X036546Y033776D01*
X036516Y033785D01*
D02*
G37*
G36*
X036319D02*
X036288Y033776D01*
X036212Y033732D01*
X03615Y03367D01*
X036105Y033594D01*
X036097Y033563D01*
X036319D01*
Y033785D01*
D02*
G37*
G36*
X032579D02*
Y033563D01*
X0328D01*
X032792Y033594D01*
X032748Y03367D01*
X032686Y033732D01*
X032609Y033776D01*
X032579Y033785D01*
D02*
G37*
G36*
X032382D02*
X032351Y033776D01*
X032275Y033732D01*
X032213Y03367D01*
X032168Y033594D01*
X03216Y033563D01*
X032382D01*
Y033785D01*
D02*
G37*
G36*
X03061D02*
Y033563D01*
X030832D01*
X030824Y033594D01*
X03078Y03367D01*
X030717Y033732D01*
X030641Y033776D01*
X03061Y033785D01*
D02*
G37*
G36*
X030413D02*
X030383Y033776D01*
X030306Y033732D01*
X030244Y03367D01*
X0302Y033594D01*
X030192Y033563D01*
X030413D01*
Y033785D01*
D02*
G37*
G36*
X028642D02*
Y033563D01*
X028863D01*
X028855Y033594D01*
X028811Y03367D01*
X028749Y033732D01*
X028672Y033776D01*
X028642Y033785D01*
D02*
G37*
G36*
X028445D02*
X028414Y033776D01*
X028338Y033732D01*
X028276Y03367D01*
X028231Y033594D01*
X028223Y033563D01*
X028445D01*
Y033785D01*
D02*
G37*
G36*
X026673D02*
Y033563D01*
X026895D01*
X026887Y033594D01*
X026843Y03367D01*
X02678Y033732D01*
X026704Y033776D01*
X026673Y033785D01*
D02*
G37*
G36*
X026476D02*
X026446Y033776D01*
X026369Y033732D01*
X026307Y03367D01*
X026263Y033594D01*
X026255Y033563D01*
X026476D01*
Y033785D01*
D02*
G37*
G36*
X024705D02*
Y033563D01*
X024926D01*
X024918Y033594D01*
X024874Y03367D01*
X024812Y033732D01*
X024735Y033776D01*
X024705Y033785D01*
D02*
G37*
G36*
X024508D02*
X024477Y033776D01*
X024401Y033732D01*
X024339Y03367D01*
X024294Y033594D01*
X024286Y033563D01*
X024508D01*
Y033785D01*
D02*
G37*
G36*
X022736D02*
Y033563D01*
X022958D01*
X02295Y033594D01*
X022906Y03367D01*
X022843Y033732D01*
X022767Y033776D01*
X022736Y033785D01*
D02*
G37*
G36*
X022539D02*
X022509Y033776D01*
X022432Y033732D01*
X02237Y03367D01*
X022326Y033594D01*
X022318Y033563D01*
X022539D01*
Y033785D01*
D02*
G37*
G36*
X020768D02*
Y033563D01*
X020989D01*
X020981Y033594D01*
X020937Y03367D01*
X020875Y033732D01*
X020798Y033776D01*
X020768Y033785D01*
D02*
G37*
G36*
X020571D02*
X02054Y033776D01*
X020464Y033732D01*
X020402Y03367D01*
X020357Y033594D01*
X020349Y033563D01*
X020571D01*
Y033785D01*
D02*
G37*
G36*
X018799D02*
Y033563D01*
X019021D01*
X019013Y033594D01*
X018969Y03367D01*
X018906Y033732D01*
X01883Y033776D01*
X018799Y033785D01*
D02*
G37*
G36*
X018602D02*
X018572Y033776D01*
X018495Y033732D01*
X018433Y03367D01*
X018389Y033594D01*
X018381Y033563D01*
X018602D01*
Y033785D01*
D02*
G37*
G36*
X058391Y033366D02*
X058169D01*
Y033144D01*
X0582Y033153D01*
X058276Y033197D01*
X058339Y033259D01*
X058383Y033335D01*
X058391Y033366D01*
D02*
G37*
G36*
X057972D02*
X057751D01*
X057759Y033335D01*
X057803Y033259D01*
X057865Y033197D01*
X057942Y033153D01*
X057972Y033144D01*
Y033366D01*
D02*
G37*
G36*
X056422D02*
X056201D01*
Y033144D01*
X056232Y033153D01*
X056308Y033197D01*
X05637Y033259D01*
X056414Y033335D01*
X056422Y033366D01*
D02*
G37*
G36*
X056004D02*
X055782D01*
X055791Y033335D01*
X055835Y033259D01*
X055897Y033197D01*
X055973Y033153D01*
X056004Y033144D01*
Y033366D01*
D02*
G37*
G36*
X054454D02*
X054232D01*
Y033144D01*
X054263Y033153D01*
X054339Y033197D01*
X054402Y033259D01*
X054446Y033335D01*
X054454Y033366D01*
D02*
G37*
G36*
X054035D02*
X053814D01*
X053822Y033335D01*
X053866Y033259D01*
X053928Y033197D01*
X054005Y033153D01*
X054035Y033144D01*
Y033366D01*
D02*
G37*
G36*
X052485D02*
X052264D01*
Y033144D01*
X052295Y033153D01*
X052371Y033197D01*
X052433Y033259D01*
X052477Y033335D01*
X052485Y033366D01*
D02*
G37*
G36*
X052067D02*
X051845D01*
X051854Y033335D01*
X051898Y033259D01*
X05196Y033197D01*
X052036Y033153D01*
X052067Y033144D01*
Y033366D01*
D02*
G37*
G36*
X050517D02*
X050295D01*
Y033144D01*
X050326Y033153D01*
X050402Y033197D01*
X050465Y033259D01*
X050509Y033335D01*
X050517Y033366D01*
D02*
G37*
G36*
X050098D02*
X049877D01*
X049885Y033335D01*
X049929Y033259D01*
X049991Y033197D01*
X050068Y033153D01*
X050098Y033144D01*
Y033366D01*
D02*
G37*
G36*
X048548D02*
X048327D01*
Y033144D01*
X048358Y033153D01*
X048434Y033197D01*
X048496Y033259D01*
X04854Y033335D01*
X048548Y033366D01*
D02*
G37*
G36*
X04813D02*
X047908D01*
X047917Y033335D01*
X047961Y033259D01*
X048023Y033197D01*
X048099Y033153D01*
X04813Y033144D01*
Y033366D01*
D02*
G37*
G36*
X042643D02*
X042421D01*
Y033144D01*
X042452Y033153D01*
X042528Y033197D01*
X042591Y033259D01*
X042635Y033335D01*
X042643Y033366D01*
D02*
G37*
G36*
X042224D02*
X042003D01*
X042011Y033335D01*
X042055Y033259D01*
X042117Y033197D01*
X042194Y033153D01*
X042224Y033144D01*
Y033366D01*
D02*
G37*
G36*
X040674D02*
X040453D01*
Y033144D01*
X040483Y033153D01*
X04056Y033197D01*
X040622Y033259D01*
X040666Y033335D01*
X040674Y033366D01*
D02*
G37*
G36*
X040256D02*
X040034D01*
X040042Y033335D01*
X040087Y033259D01*
X040149Y033197D01*
X040225Y033153D01*
X040256Y033144D01*
Y033366D01*
D02*
G37*
G36*
X038706D02*
X038484D01*
Y033144D01*
X038515Y033153D01*
X038591Y033197D01*
X038654Y033259D01*
X038698Y033335D01*
X038706Y033366D01*
D02*
G37*
G36*
X038287D02*
X038066D01*
X038074Y033335D01*
X038118Y033259D01*
X03818Y033197D01*
X038257Y033153D01*
X038287Y033144D01*
Y033366D01*
D02*
G37*
G36*
X036737D02*
X036516D01*
Y033144D01*
X036546Y033153D01*
X036623Y033197D01*
X036685Y033259D01*
X036729Y033335D01*
X036737Y033366D01*
D02*
G37*
G36*
X036319D02*
X036097D01*
X036105Y033335D01*
X03615Y033259D01*
X036212Y033197D01*
X036288Y033153D01*
X036319Y033144D01*
Y033366D01*
D02*
G37*
G36*
X0328D02*
X032579D01*
Y033144D01*
X032609Y033153D01*
X032686Y033197D01*
X032748Y033259D01*
X032792Y033335D01*
X0328Y033366D01*
D02*
G37*
G36*
X032382D02*
X03216D01*
X032168Y033335D01*
X032213Y033259D01*
X032275Y033197D01*
X032351Y033153D01*
X032382Y033144D01*
Y033366D01*
D02*
G37*
G36*
X030832D02*
X03061D01*
Y033144D01*
X030641Y033153D01*
X030717Y033197D01*
X03078Y033259D01*
X030824Y033335D01*
X030832Y033366D01*
D02*
G37*
G36*
X030413D02*
X030192D01*
X0302Y033335D01*
X030244Y033259D01*
X030306Y033197D01*
X030383Y033153D01*
X030413Y033144D01*
Y033366D01*
D02*
G37*
G36*
X028863D02*
X028642D01*
Y033144D01*
X028672Y033153D01*
X028749Y033197D01*
X028811Y033259D01*
X028855Y033335D01*
X028863Y033366D01*
D02*
G37*
G36*
X028445D02*
X028223D01*
X028231Y033335D01*
X028276Y033259D01*
X028338Y033197D01*
X028414Y033153D01*
X028445Y033144D01*
Y033366D01*
D02*
G37*
G36*
X026895D02*
X026673D01*
Y033144D01*
X026704Y033153D01*
X02678Y033197D01*
X026843Y033259D01*
X026887Y033335D01*
X026895Y033366D01*
D02*
G37*
G36*
X026476D02*
X026255D01*
X026263Y033335D01*
X026307Y033259D01*
X026369Y033197D01*
X026446Y033153D01*
X026476Y033144D01*
Y033366D01*
D02*
G37*
G36*
X024926D02*
X024705D01*
Y033144D01*
X024735Y033153D01*
X024812Y033197D01*
X024874Y033259D01*
X024918Y033335D01*
X024926Y033366D01*
D02*
G37*
G36*
X024508D02*
X024286D01*
X024294Y033335D01*
X024339Y033259D01*
X024401Y033197D01*
X024477Y033153D01*
X024508Y033144D01*
Y033366D01*
D02*
G37*
G36*
X022958D02*
X022736D01*
Y033144D01*
X022767Y033153D01*
X022843Y033197D01*
X022906Y033259D01*
X02295Y033335D01*
X022958Y033366D01*
D02*
G37*
G36*
X022539D02*
X022318D01*
X022326Y033335D01*
X02237Y033259D01*
X022432Y033197D01*
X022509Y033153D01*
X022539Y033144D01*
Y033366D01*
D02*
G37*
G36*
X020989D02*
X020768D01*
Y033144D01*
X020798Y033153D01*
X020875Y033197D01*
X020937Y033259D01*
X020981Y033335D01*
X020989Y033366D01*
D02*
G37*
G36*
X020571D02*
X020349D01*
X020357Y033335D01*
X020402Y033259D01*
X020464Y033197D01*
X02054Y033153D01*
X020571Y033144D01*
Y033366D01*
D02*
G37*
G36*
X019021D02*
X018799D01*
Y033144D01*
X01883Y033153D01*
X018906Y033197D01*
X018969Y033259D01*
X019013Y033335D01*
X019021Y033366D01*
D02*
G37*
G36*
X018602D02*
X018381D01*
X018389Y033335D01*
X018433Y033259D01*
X018495Y033197D01*
X018572Y033153D01*
X018602Y033144D01*
Y033366D01*
D02*
G37*
G36*
X057185Y031816D02*
Y031594D01*
X057407D01*
X057398Y031625D01*
X057354Y031702D01*
X057292Y031764D01*
X057216Y031808D01*
X057185Y031816D01*
D02*
G37*
G36*
X056988D02*
X056957Y031808D01*
X056881Y031764D01*
X056819Y031702D01*
X056775Y031625D01*
X056767Y031594D01*
X056988D01*
Y031816D01*
D02*
G37*
G36*
X055217D02*
Y031594D01*
X055438D01*
X05543Y031625D01*
X055386Y031702D01*
X055324Y031764D01*
X055247Y031808D01*
X055217Y031816D01*
D02*
G37*
G36*
X05502D02*
X054989Y031808D01*
X054913Y031764D01*
X05485Y031702D01*
X054806Y031625D01*
X054798Y031594D01*
X05502D01*
Y031816D01*
D02*
G37*
G36*
X019783D02*
Y031594D01*
X020005D01*
X019997Y031625D01*
X019953Y031702D01*
X019891Y031764D01*
X019814Y031808D01*
X019783Y031816D01*
D02*
G37*
G36*
X019587D02*
X019556Y031808D01*
X01948Y031764D01*
X019417Y031702D01*
X019373Y031625D01*
X019365Y031594D01*
X019587D01*
Y031816D01*
D02*
G37*
G36*
X057407Y031398D02*
X057185D01*
Y031176D01*
X057216Y031184D01*
X057292Y031228D01*
X057354Y031291D01*
X057398Y031367D01*
X057407Y031398D01*
D02*
G37*
G36*
X056988D02*
X056767D01*
X056775Y031367D01*
X056819Y031291D01*
X056881Y031228D01*
X056957Y031184D01*
X056988Y031176D01*
Y031398D01*
D02*
G37*
G36*
X055438D02*
X055217D01*
Y031176D01*
X055247Y031184D01*
X055324Y031228D01*
X055386Y031291D01*
X05543Y031367D01*
X055438Y031398D01*
D02*
G37*
G36*
X05502D02*
X054798D01*
X054806Y031367D01*
X05485Y031291D01*
X054913Y031228D01*
X054989Y031184D01*
X05502Y031176D01*
Y031398D01*
D02*
G37*
G36*
X020005D02*
X019783D01*
Y031176D01*
X019814Y031184D01*
X019891Y031228D01*
X019953Y031291D01*
X019997Y031367D01*
X020005Y031398D01*
D02*
G37*
G36*
X019587D02*
X019365D01*
X019373Y031367D01*
X019417Y031291D01*
X01948Y031228D01*
X019556Y031184D01*
X019587Y031176D01*
Y031398D01*
D02*
G37*
G36*
X052201Y031501D02*
X052023D01*
X051848Y031466D01*
X051683Y031398D01*
X051535Y031299D01*
X051409Y031173D01*
X05131Y031024D01*
X051241Y030859D01*
X051207Y030684D01*
Y030506D01*
X051241Y030331D01*
X05131Y030166D01*
X051409Y030018D01*
X051535Y029892D01*
X051683Y029793D01*
X051848Y029725D01*
X052023Y02969D01*
X052201D01*
X052376Y029725D01*
X052541Y029793D01*
X052689Y029892D01*
X052816Y030018D01*
X052915Y030166D01*
X052983Y030331D01*
X053018Y030506D01*
Y030684D01*
X052983Y030859D01*
X052915Y031024D01*
X052816Y031173D01*
X052689Y031299D01*
X052541Y031398D01*
X052376Y031466D01*
X052201Y031501D01*
D02*
G37*
G36*
X022674D02*
X022495D01*
X022321Y031466D01*
X022156Y031398D01*
X022007Y031299D01*
X021881Y031173D01*
X021782Y031024D01*
X021714Y030859D01*
X021679Y030684D01*
Y030506D01*
X021714Y030331D01*
X021782Y030166D01*
X021881Y030018D01*
X022007Y029892D01*
X022156Y029793D01*
X022321Y029725D01*
X022495Y02969D01*
X022674D01*
X022849Y029725D01*
X023014Y029793D01*
X023162Y029892D01*
X023288Y030018D01*
X023387Y030166D01*
X023455Y030331D01*
X02349Y030506D01*
Y030684D01*
X023455Y030859D01*
X023387Y031024D01*
X023288Y031173D01*
X023162Y031299D01*
X023014Y031398D01*
X022849Y031466D01*
X022674Y031501D01*
D02*
G37*
G36*
X058169Y029848D02*
Y029626D01*
X058391D01*
X058383Y029657D01*
X058339Y029733D01*
X058276Y029795D01*
X0582Y029839D01*
X058169Y029848D01*
D02*
G37*
G36*
X057972D02*
X057942Y029839D01*
X057865Y029795D01*
X057803Y029733D01*
X057759Y029657D01*
X057751Y029626D01*
X057972D01*
Y029848D01*
D02*
G37*
G36*
X056201D02*
Y029626D01*
X056422D01*
X056414Y029657D01*
X05637Y029733D01*
X056308Y029795D01*
X056232Y029839D01*
X056201Y029848D01*
D02*
G37*
G36*
X056004D02*
X055973Y029839D01*
X055897Y029795D01*
X055835Y029733D01*
X055791Y029657D01*
X055782Y029626D01*
X056004D01*
Y029848D01*
D02*
G37*
G36*
X054232D02*
Y029626D01*
X054454D01*
X054446Y029657D01*
X054402Y029733D01*
X054339Y029795D01*
X054263Y029839D01*
X054232Y029848D01*
D02*
G37*
G36*
X054035D02*
X054005Y029839D01*
X053928Y029795D01*
X053866Y029733D01*
X053822Y029657D01*
X053814Y029626D01*
X054035D01*
Y029848D01*
D02*
G37*
G36*
X020768D02*
Y029626D01*
X020989D01*
X020981Y029657D01*
X020937Y029733D01*
X020875Y029795D01*
X020798Y029839D01*
X020768Y029848D01*
D02*
G37*
G36*
X020571D02*
X02054Y029839D01*
X020464Y029795D01*
X020402Y029733D01*
X020357Y029657D01*
X020349Y029626D01*
X020571D01*
Y029848D01*
D02*
G37*
G36*
X018799D02*
Y029626D01*
X019021D01*
X019013Y029657D01*
X018969Y029733D01*
X018906Y029795D01*
X01883Y029839D01*
X018799Y029848D01*
D02*
G37*
G36*
X018602D02*
X018572Y029839D01*
X018495Y029795D01*
X018433Y029733D01*
X018389Y029657D01*
X018381Y029626D01*
X018602D01*
Y029848D01*
D02*
G37*
G36*
X058391Y029429D02*
X058169D01*
Y029207D01*
X0582Y029216D01*
X058276Y02926D01*
X058339Y029322D01*
X058383Y029398D01*
X058391Y029429D01*
D02*
G37*
G36*
X057972D02*
X057751D01*
X057759Y029398D01*
X057803Y029322D01*
X057865Y02926D01*
X057942Y029216D01*
X057972Y029207D01*
Y029429D01*
D02*
G37*
G36*
X056422D02*
X056201D01*
Y029207D01*
X056232Y029216D01*
X056308Y02926D01*
X05637Y029322D01*
X056414Y029398D01*
X056422Y029429D01*
D02*
G37*
G36*
X056004D02*
X055782D01*
X055791Y029398D01*
X055835Y029322D01*
X055897Y02926D01*
X055973Y029216D01*
X056004Y029207D01*
Y029429D01*
D02*
G37*
G36*
X054454D02*
X054232D01*
Y029207D01*
X054263Y029216D01*
X054339Y02926D01*
X054402Y029322D01*
X054446Y029398D01*
X054454Y029429D01*
D02*
G37*
G36*
X054035D02*
X053814D01*
X053822Y029398D01*
X053866Y029322D01*
X053928Y02926D01*
X054005Y029216D01*
X054035Y029207D01*
Y029429D01*
D02*
G37*
G36*
X020989D02*
X020768D01*
Y029207D01*
X020798Y029216D01*
X020875Y02926D01*
X020937Y029322D01*
X020981Y029398D01*
X020989Y029429D01*
D02*
G37*
G36*
X020571D02*
X020349D01*
X020357Y029398D01*
X020402Y029322D01*
X020464Y02926D01*
X02054Y029216D01*
X020571Y029207D01*
Y029429D01*
D02*
G37*
G36*
X019021D02*
X018799D01*
Y029207D01*
X01883Y029216D01*
X018906Y02926D01*
X018969Y029322D01*
X019013Y029398D01*
X019021Y029429D01*
D02*
G37*
G36*
X018602D02*
X018381D01*
X018389Y029398D01*
X018433Y029322D01*
X018495Y02926D01*
X018572Y029216D01*
X018602Y029207D01*
Y029429D01*
D02*
G37*
G36*
X0375Y027879D02*
Y027657D01*
X037722D01*
X037713Y027688D01*
X037669Y027765D01*
X037607Y027827D01*
X037531Y027871D01*
X0375Y027879D01*
D02*
G37*
G36*
X037303D02*
X037272Y027871D01*
X037196Y027827D01*
X037134Y027765D01*
X03709Y027688D01*
X037081Y027657D01*
X037303D01*
Y027879D01*
D02*
G37*
G36*
X035531D02*
Y027657D01*
X035753D01*
X035745Y027688D01*
X035701Y027765D01*
X035639Y027827D01*
X035562Y027871D01*
X035531Y027879D01*
D02*
G37*
G36*
X035335D02*
X035304Y027871D01*
X035228Y027827D01*
X035165Y027765D01*
X035121Y027688D01*
X035113Y027657D01*
X035335D01*
Y027879D01*
D02*
G37*
G36*
X033563D02*
Y027657D01*
X033785D01*
X033776Y027688D01*
X033732Y027765D01*
X03367Y027827D01*
X033594Y027871D01*
X033563Y027879D01*
D02*
G37*
G36*
X033366D02*
X033335Y027871D01*
X033259Y027827D01*
X033197Y027765D01*
X033153Y027688D01*
X033144Y027657D01*
X033366D01*
Y027879D01*
D02*
G37*
G36*
X031594D02*
Y027657D01*
X031816D01*
X031808Y027688D01*
X031764Y027765D01*
X031702Y027827D01*
X031625Y027871D01*
X031594Y027879D01*
D02*
G37*
G36*
X031398D02*
X031367Y027871D01*
X031291Y027827D01*
X031228Y027765D01*
X031184Y027688D01*
X031176Y027657D01*
X031398D01*
Y027879D01*
D02*
G37*
G36*
X029626D02*
Y027657D01*
X029848D01*
X029839Y027688D01*
X029795Y027765D01*
X029733Y027827D01*
X029657Y027871D01*
X029626Y027879D01*
D02*
G37*
G36*
X029429D02*
X029398Y027871D01*
X029322Y027827D01*
X02926Y027765D01*
X029216Y027688D01*
X029207Y027657D01*
X029429D01*
Y027879D01*
D02*
G37*
G36*
X027657D02*
Y027657D01*
X027879D01*
X027871Y027688D01*
X027827Y027765D01*
X027765Y027827D01*
X027688Y027871D01*
X027657Y027879D01*
D02*
G37*
G36*
X027461D02*
X02743Y027871D01*
X027354Y027827D01*
X027291Y027765D01*
X027247Y027688D01*
X027239Y027657D01*
X027461D01*
Y027879D01*
D02*
G37*
G36*
X025689D02*
Y027657D01*
X025911D01*
X025902Y027688D01*
X025858Y027765D01*
X025796Y027827D01*
X02572Y027871D01*
X025689Y027879D01*
D02*
G37*
G36*
X025492D02*
X025461Y027871D01*
X025385Y027827D01*
X025323Y027765D01*
X025279Y027688D01*
X02527Y027657D01*
X025492D01*
Y027879D01*
D02*
G37*
G36*
X02372D02*
Y027657D01*
X023942D01*
X023934Y027688D01*
X02389Y027765D01*
X023828Y027827D01*
X023751Y027871D01*
X02372Y027879D01*
D02*
G37*
G36*
X023524D02*
X023493Y027871D01*
X023417Y027827D01*
X023354Y027765D01*
X02331Y027688D01*
X023302Y027657D01*
X023524D01*
Y027879D01*
D02*
G37*
G36*
X021752D02*
Y027657D01*
X021974D01*
X021965Y027688D01*
X021921Y027765D01*
X021859Y027827D01*
X021783Y027871D01*
X021752Y027879D01*
D02*
G37*
G36*
X021555D02*
X021524Y027871D01*
X021448Y027827D01*
X021386Y027765D01*
X021342Y027688D01*
X021333Y027657D01*
X021555D01*
Y027879D01*
D02*
G37*
G36*
X019783D02*
Y027657D01*
X020005D01*
X019997Y027688D01*
X019953Y027765D01*
X019891Y027827D01*
X019814Y027871D01*
X019783Y027879D01*
D02*
G37*
G36*
X019587D02*
X019556Y027871D01*
X01948Y027827D01*
X019417Y027765D01*
X019373Y027688D01*
X019365Y027657D01*
X019587D01*
Y027879D01*
D02*
G37*
G36*
X052649Y028224D02*
X052551D01*
X052456Y028199D01*
X05237Y028149D01*
X052301Y02808D01*
X052251Y027994D01*
X052226Y027899D01*
Y027801D01*
X052251Y027706D01*
X052301Y02762D01*
X05237Y027551D01*
X052456Y027501D01*
X052551Y027476D01*
X052649D01*
X052744Y027501D01*
X05283Y027551D01*
X052899Y02762D01*
X052949Y027706D01*
X052974Y027801D01*
Y027899D01*
X052949Y027994D01*
X052899Y02808D01*
X05283Y028149D01*
X052744Y028199D01*
X052649Y028224D01*
D02*
G37*
G36*
X051649D02*
X051551D01*
X051456Y028199D01*
X05137Y028149D01*
X051301Y02808D01*
X051251Y027994D01*
X051226Y027899D01*
Y027801D01*
X051251Y027706D01*
X051301Y02762D01*
X05137Y027551D01*
X051456Y027501D01*
X051551Y027476D01*
X051649D01*
X051744Y027501D01*
X05183Y027551D01*
X051899Y02762D01*
X051949Y027706D01*
X051974Y027801D01*
Y027899D01*
X051949Y027994D01*
X051899Y02808D01*
X05183Y028149D01*
X051744Y028199D01*
X051649Y028224D01*
D02*
G37*
G36*
X050649D02*
X050551D01*
X050456Y028199D01*
X05037Y028149D01*
X050301Y02808D01*
X050251Y027994D01*
X050226Y027899D01*
Y027801D01*
X050251Y027706D01*
X050301Y02762D01*
X05037Y027551D01*
X050456Y027501D01*
X050551Y027476D01*
X050649D01*
X050744Y027501D01*
X05083Y027551D01*
X050899Y02762D01*
X050949Y027706D01*
X050974Y027801D01*
Y027899D01*
X050949Y027994D01*
X050899Y02808D01*
X05083Y028149D01*
X050744Y028199D01*
X050649Y028224D01*
D02*
G37*
G36*
X049649D02*
X049551D01*
X049456Y028199D01*
X04937Y028149D01*
X049301Y02808D01*
X049251Y027994D01*
X049226Y027899D01*
Y027801D01*
X049251Y027706D01*
X049301Y02762D01*
X04937Y027551D01*
X049456Y027501D01*
X049551Y027476D01*
X049649D01*
X049744Y027501D01*
X04983Y027551D01*
X049899Y02762D01*
X049949Y027706D01*
X049974Y027801D01*
Y027899D01*
X049949Y027994D01*
X049899Y02808D01*
X04983Y028149D01*
X049744Y028199D01*
X049649Y028224D01*
D02*
G37*
G36*
X048649D02*
X048551D01*
X048456Y028199D01*
X04837Y028149D01*
X048301Y02808D01*
X048251Y027994D01*
X048226Y027899D01*
Y027801D01*
X048251Y027706D01*
X048301Y02762D01*
X04837Y027551D01*
X048456Y027501D01*
X048551Y027476D01*
X048649D01*
X048744Y027501D01*
X04883Y027551D01*
X048899Y02762D01*
X048949Y027706D01*
X048974Y027801D01*
Y027899D01*
X048949Y027994D01*
X048899Y02808D01*
X04883Y028149D01*
X048744Y028199D01*
X048649Y028224D01*
D02*
G37*
G36*
X047649D02*
X047551D01*
X047456Y028199D01*
X04737Y028149D01*
X047301Y02808D01*
X047251Y027994D01*
X047226Y027899D01*
Y027801D01*
X047251Y027706D01*
X047301Y02762D01*
X04737Y027551D01*
X047456Y027501D01*
X047551Y027476D01*
X047649D01*
X047744Y027501D01*
X04783Y027551D01*
X047899Y02762D01*
X047949Y027706D01*
X047974Y027801D01*
Y027899D01*
X047949Y027994D01*
X047899Y02808D01*
X04783Y028149D01*
X047744Y028199D01*
X047649Y028224D01*
D02*
G37*
G36*
X046649D02*
X046551D01*
X046456Y028199D01*
X04637Y028149D01*
X046301Y02808D01*
X046251Y027994D01*
X046226Y027899D01*
Y027801D01*
X046251Y027706D01*
X046301Y02762D01*
X04637Y027551D01*
X046456Y027501D01*
X046551Y027476D01*
X046649D01*
X046744Y027501D01*
X04683Y027551D01*
X046899Y02762D01*
X046949Y027706D01*
X046974Y027801D01*
Y027899D01*
X046949Y027994D01*
X046899Y02808D01*
X04683Y028149D01*
X046744Y028199D01*
X046649Y028224D01*
D02*
G37*
G36*
X045649D02*
X045551D01*
X045456Y028199D01*
X04537Y028149D01*
X045301Y02808D01*
X045251Y027994D01*
X045226Y027899D01*
Y027801D01*
X045251Y027706D01*
X045301Y02762D01*
X04537Y027551D01*
X045456Y027501D01*
X045551Y027476D01*
X045649D01*
X045744Y027501D01*
X04583Y027551D01*
X045899Y02762D01*
X045949Y027706D01*
X045974Y027801D01*
Y027899D01*
X045949Y027994D01*
X045899Y02808D01*
X04583Y028149D01*
X045744Y028199D01*
X045649Y028224D01*
D02*
G37*
G36*
X044649D02*
X044551D01*
X044456Y028199D01*
X04437Y028149D01*
X044301Y02808D01*
X044251Y027994D01*
X044226Y027899D01*
Y027801D01*
X044251Y027706D01*
X044301Y02762D01*
X04437Y027551D01*
X044456Y027501D01*
X044551Y027476D01*
X044649D01*
X044744Y027501D01*
X04483Y027551D01*
X044899Y02762D01*
X044949Y027706D01*
X044974Y027801D01*
Y027899D01*
X044949Y027994D01*
X044899Y02808D01*
X04483Y028149D01*
X044744Y028199D01*
X044649Y028224D01*
D02*
G37*
G36*
X043649D02*
X043551D01*
X043456Y028199D01*
X04337Y028149D01*
X043301Y02808D01*
X043251Y027994D01*
X043226Y027899D01*
Y027801D01*
X043251Y027706D01*
X043301Y02762D01*
X04337Y027551D01*
X043456Y027501D01*
X043551Y027476D01*
X043649D01*
X043744Y027501D01*
X04383Y027551D01*
X043899Y02762D01*
X043949Y027706D01*
X043974Y027801D01*
Y027899D01*
X043949Y027994D01*
X043899Y02808D01*
X04383Y028149D01*
X043744Y028199D01*
X043649Y028224D01*
D02*
G37*
G36*
X054898Y028298D02*
X054784D01*
X054674Y028269D01*
X054575Y028212D01*
X054495Y028131D01*
X054438Y028033D01*
X054408Y027922D01*
Y027808D01*
X054438Y027698D01*
X054495Y027599D01*
X054575Y027519D01*
X054674Y027462D01*
X054784Y027432D01*
X054898D01*
X055009Y027462D01*
X055107Y027519D01*
X055188Y027599D01*
X055245Y027698D01*
X055274Y027808D01*
Y027922D01*
X055245Y028033D01*
X055188Y028131D01*
X055107Y028212D01*
X055009Y028269D01*
X054898Y028298D01*
D02*
G37*
G36*
X037722Y027461D02*
X0375D01*
Y027239D01*
X037531Y027247D01*
X037607Y027291D01*
X037669Y027354D01*
X037713Y02743D01*
X037722Y027461D01*
D02*
G37*
G36*
X037303D02*
X037081D01*
X03709Y02743D01*
X037134Y027354D01*
X037196Y027291D01*
X037272Y027247D01*
X037303Y027239D01*
Y027461D01*
D02*
G37*
G36*
X035753D02*
X035531D01*
Y027239D01*
X035562Y027247D01*
X035639Y027291D01*
X035701Y027354D01*
X035745Y02743D01*
X035753Y027461D01*
D02*
G37*
G36*
X035335D02*
X035113D01*
X035121Y02743D01*
X035165Y027354D01*
X035228Y027291D01*
X035304Y027247D01*
X035335Y027239D01*
Y027461D01*
D02*
G37*
G36*
X033785D02*
X033563D01*
Y027239D01*
X033594Y027247D01*
X03367Y027291D01*
X033732Y027354D01*
X033776Y02743D01*
X033785Y027461D01*
D02*
G37*
G36*
X033366D02*
X033144D01*
X033153Y02743D01*
X033197Y027354D01*
X033259Y027291D01*
X033335Y027247D01*
X033366Y027239D01*
Y027461D01*
D02*
G37*
G36*
X031816D02*
X031594D01*
Y027239D01*
X031625Y027247D01*
X031702Y027291D01*
X031764Y027354D01*
X031808Y02743D01*
X031816Y027461D01*
D02*
G37*
G36*
X031398D02*
X031176D01*
X031184Y02743D01*
X031228Y027354D01*
X031291Y027291D01*
X031367Y027247D01*
X031398Y027239D01*
Y027461D01*
D02*
G37*
G36*
X029848D02*
X029626D01*
Y027239D01*
X029657Y027247D01*
X029733Y027291D01*
X029795Y027354D01*
X029839Y02743D01*
X029848Y027461D01*
D02*
G37*
G36*
X029429D02*
X029207D01*
X029216Y02743D01*
X02926Y027354D01*
X029322Y027291D01*
X029398Y027247D01*
X029429Y027239D01*
Y027461D01*
D02*
G37*
G36*
X027879D02*
X027657D01*
Y027239D01*
X027688Y027247D01*
X027765Y027291D01*
X027827Y027354D01*
X027871Y02743D01*
X027879Y027461D01*
D02*
G37*
G36*
X027461D02*
X027239D01*
X027247Y02743D01*
X027291Y027354D01*
X027354Y027291D01*
X02743Y027247D01*
X027461Y027239D01*
Y027461D01*
D02*
G37*
G36*
X025911D02*
X025689D01*
Y027239D01*
X02572Y027247D01*
X025796Y027291D01*
X025858Y027354D01*
X025902Y02743D01*
X025911Y027461D01*
D02*
G37*
G36*
X025492D02*
X02527D01*
X025279Y02743D01*
X025323Y027354D01*
X025385Y027291D01*
X025461Y027247D01*
X025492Y027239D01*
Y027461D01*
D02*
G37*
G36*
X023942D02*
X02372D01*
Y027239D01*
X023751Y027247D01*
X023828Y027291D01*
X02389Y027354D01*
X023934Y02743D01*
X023942Y027461D01*
D02*
G37*
G36*
X023524D02*
X023302D01*
X02331Y02743D01*
X023354Y027354D01*
X023417Y027291D01*
X023493Y027247D01*
X023524Y027239D01*
Y027461D01*
D02*
G37*
G36*
X021974D02*
X021752D01*
Y027239D01*
X021783Y027247D01*
X021859Y027291D01*
X021921Y027354D01*
X021965Y02743D01*
X021974Y027461D01*
D02*
G37*
G36*
X021555D02*
X021333D01*
X021342Y02743D01*
X021386Y027354D01*
X021448Y027291D01*
X021524Y027247D01*
X021555Y027239D01*
Y027461D01*
D02*
G37*
G36*
X020005D02*
X019783D01*
Y027239D01*
X019814Y027247D01*
X019891Y027291D01*
X019953Y027354D01*
X019997Y02743D01*
X020005Y027461D01*
D02*
G37*
G36*
X019587D02*
X019365D01*
X019373Y02743D01*
X019417Y027354D01*
X01948Y027291D01*
X019556Y027247D01*
X019587Y027239D01*
Y027461D01*
D02*
G37*
G36*
X054898Y027298D02*
X054784D01*
X054674Y027269D01*
X054575Y027212D01*
X054495Y027131D01*
X054438Y027033D01*
X054408Y026922D01*
Y026808D01*
X054438Y026698D01*
X054495Y026599D01*
X054575Y026519D01*
X054674Y026462D01*
X054784Y026432D01*
X054898D01*
X055009Y026462D01*
X055107Y026519D01*
X055188Y026599D01*
X055245Y026698D01*
X055274Y026808D01*
Y026922D01*
X055245Y027033D01*
X055188Y027131D01*
X055107Y027212D01*
X055009Y027269D01*
X054898Y027298D01*
D02*
G37*
G36*
X047634Y026206D02*
X047566D01*
X047501Y026188D01*
X047443Y026155D01*
X047419Y026131D01*
X040031D01*
X040007Y026155D01*
X039949Y026188D01*
X039884Y026206D01*
X039816D01*
X039751Y026188D01*
X039693Y026155D01*
X039645Y026107D01*
X039612Y026049D01*
X039594Y025984D01*
Y025948D01*
X039584Y025913D01*
X039547Y0259D01*
X039512D01*
X039447Y025883D01*
X039389Y025849D01*
X039341Y025801D01*
X039308Y025743D01*
X03929Y025678D01*
Y02561D01*
X039308Y025545D01*
X039341Y025487D01*
X039389Y025439D01*
X039447Y025406D01*
X039512Y025388D01*
X03958D01*
X039645Y025406D01*
X039703Y025439D01*
X039727Y025463D01*
X046419D01*
X046443Y025439D01*
X046501Y025406D01*
X046566Y025388D01*
X046634D01*
X046699Y025406D01*
X046757Y025439D01*
X046805Y025487D01*
X046838Y025545D01*
X046856Y02561D01*
Y025678D01*
X046845Y025719D01*
X046876Y025769D01*
X047419D01*
X047443Y025745D01*
X047501Y025712D01*
X047566Y025694D01*
X047634D01*
X047699Y025712D01*
X047757Y025745D01*
X047805Y025793D01*
X047838Y025851D01*
X047856Y025916D01*
Y025984D01*
X047838Y026049D01*
X047805Y026107D01*
X047757Y026155D01*
X047699Y026188D01*
X047634Y026206D01*
D02*
G37*
G36*
X026298Y026192D02*
Y025848D01*
X026642D01*
X026622Y025925D01*
X026562Y026028D01*
X026478Y026112D01*
X026375Y026172D01*
X026298Y026192D01*
D02*
G37*
G36*
X026102D02*
X026025Y026172D01*
X025922Y026112D01*
X025838Y026028D01*
X025778Y025925D01*
X025758Y025848D01*
X026102D01*
Y026192D01*
D02*
G37*
G36*
X058169Y025911D02*
Y025689D01*
X058391D01*
X058383Y02572D01*
X058339Y025796D01*
X058276Y025858D01*
X0582Y025902D01*
X058169Y025911D01*
D02*
G37*
G36*
X057972D02*
X057942Y025902D01*
X057865Y025858D01*
X057803Y025796D01*
X057759Y02572D01*
X057751Y025689D01*
X057972D01*
Y025911D01*
D02*
G37*
G36*
X038484D02*
Y025689D01*
X038706D01*
X038698Y02572D01*
X038654Y025796D01*
X038591Y025858D01*
X038515Y025902D01*
X038484Y025911D01*
D02*
G37*
G36*
X038287D02*
X038257Y025902D01*
X03818Y025858D01*
X038118Y025796D01*
X038074Y02572D01*
X038066Y025689D01*
X038287D01*
Y025911D01*
D02*
G37*
G36*
X036516D02*
Y025689D01*
X036737D01*
X036729Y02572D01*
X036685Y025796D01*
X036623Y025858D01*
X036546Y025902D01*
X036516Y025911D01*
D02*
G37*
G36*
X036319D02*
X036288Y025902D01*
X036212Y025858D01*
X03615Y025796D01*
X036105Y02572D01*
X036097Y025689D01*
X036319D01*
Y025911D01*
D02*
G37*
G36*
X032579D02*
Y025689D01*
X0328D01*
X032792Y02572D01*
X032748Y025796D01*
X032686Y025858D01*
X032609Y025902D01*
X032579Y025911D01*
D02*
G37*
G36*
X032382D02*
X032351Y025902D01*
X032275Y025858D01*
X032213Y025796D01*
X032168Y02572D01*
X03216Y025689D01*
X032382D01*
Y025911D01*
D02*
G37*
G36*
X03061D02*
Y025689D01*
X030832D01*
X030824Y02572D01*
X03078Y025796D01*
X030717Y025858D01*
X030641Y025902D01*
X03061Y025911D01*
D02*
G37*
G36*
X030413D02*
X030383Y025902D01*
X030306Y025858D01*
X030244Y025796D01*
X0302Y02572D01*
X030192Y025689D01*
X030413D01*
Y025911D01*
D02*
G37*
G36*
X028642D02*
Y025689D01*
X028863D01*
X028855Y02572D01*
X028811Y025796D01*
X028749Y025858D01*
X028672Y025902D01*
X028642Y025911D01*
D02*
G37*
G36*
X028445D02*
X028414Y025902D01*
X028338Y025858D01*
X028276Y025796D01*
X028231Y02572D01*
X028223Y025689D01*
X028445D01*
Y025911D01*
D02*
G37*
G36*
X022736D02*
Y025689D01*
X022958D01*
X02295Y02572D01*
X022906Y025796D01*
X022843Y025858D01*
X022767Y025902D01*
X022736Y025911D01*
D02*
G37*
G36*
X022539D02*
X022509Y025902D01*
X022432Y025858D01*
X02237Y025796D01*
X022326Y02572D01*
X022318Y025689D01*
X022539D01*
Y025911D01*
D02*
G37*
G36*
X024448Y02598D02*
Y025636D01*
X024792D01*
X024772Y025712D01*
X024712Y025815D01*
X024628Y0259D01*
X024525Y025959D01*
X024448Y02598D01*
D02*
G37*
G36*
X024252Y02598D02*
X024175Y025959D01*
X024072Y0259D01*
X023988Y025815D01*
X023928Y025712D01*
X023908Y025636D01*
X024252D01*
Y02598D01*
D02*
G37*
G36*
X054898Y026298D02*
X054784D01*
X054674Y026269D01*
X054575Y026212D01*
X054495Y026131D01*
X054438Y026033D01*
X054408Y025922D01*
Y025808D01*
X054438Y025698D01*
X054495Y025599D01*
X054575Y025519D01*
X054674Y025462D01*
X054784Y025432D01*
X054898D01*
X055009Y025462D01*
X055107Y025519D01*
X055188Y025599D01*
X055245Y025698D01*
X055274Y025808D01*
Y025922D01*
X055245Y026033D01*
X055188Y026131D01*
X055107Y026212D01*
X055009Y026269D01*
X054898Y026298D01*
D02*
G37*
G36*
X026642Y025652D02*
X026298D01*
Y025308D01*
X026375Y025328D01*
X026478Y025388D01*
X026562Y025472D01*
X026622Y025575D01*
X026642Y025652D01*
D02*
G37*
G36*
X026102D02*
X025758D01*
X025778Y025575D01*
X025838Y025472D01*
X025922Y025388D01*
X026025Y025328D01*
X026102Y025308D01*
Y025652D01*
D02*
G37*
G36*
X0328Y025492D02*
X032579D01*
Y02527D01*
X032609Y025279D01*
X032686Y025323D01*
X032748Y025385D01*
X032792Y025461D01*
X0328Y025492D01*
D02*
G37*
G36*
X032382D02*
X03216D01*
X032168Y025461D01*
X032213Y025385D01*
X032275Y025323D01*
X032351Y025279D01*
X032382Y02527D01*
Y025492D01*
D02*
G37*
G36*
X030832D02*
X03061D01*
Y02527D01*
X030641Y025279D01*
X030717Y025323D01*
X03078Y025385D01*
X030824Y025461D01*
X030832Y025492D01*
D02*
G37*
G36*
X030413D02*
X030192D01*
X0302Y025461D01*
X030244Y025385D01*
X030306Y025323D01*
X030383Y025279D01*
X030413Y02527D01*
Y025492D01*
D02*
G37*
G36*
X028863D02*
X028642D01*
Y02527D01*
X028672Y025279D01*
X028749Y025323D01*
X028811Y025385D01*
X028855Y025461D01*
X028863Y025492D01*
D02*
G37*
G36*
X028445D02*
X028223D01*
X028231Y025461D01*
X028276Y025385D01*
X028338Y025323D01*
X028414Y025279D01*
X028445Y02527D01*
Y025492D01*
D02*
G37*
G36*
X022958D02*
X022736D01*
Y02527D01*
X022767Y025279D01*
X022843Y025323D01*
X022906Y025385D01*
X02295Y025461D01*
X022958Y025492D01*
D02*
G37*
G36*
X022539D02*
X022318D01*
X022326Y025461D01*
X02237Y025385D01*
X022432Y025323D01*
X022509Y025279D01*
X022539Y02527D01*
Y025492D01*
D02*
G37*
G36*
X058391D02*
X058169D01*
Y02527D01*
X0582Y025279D01*
X058276Y025323D01*
X058339Y025385D01*
X058383Y025461D01*
X058391Y025492D01*
D02*
G37*
G36*
X057972D02*
X057751D01*
X057759Y025461D01*
X057803Y025385D01*
X057865Y025323D01*
X057942Y025279D01*
X057972Y02527D01*
Y025492D01*
D02*
G37*
G36*
X038706D02*
X038484D01*
Y02527D01*
X038515Y025279D01*
X038591Y025323D01*
X038654Y025385D01*
X038698Y025461D01*
X038706Y025492D01*
D02*
G37*
G36*
X038287D02*
X038066D01*
X038074Y025461D01*
X038118Y025385D01*
X03818Y025323D01*
X038257Y025279D01*
X038287Y02527D01*
Y025492D01*
D02*
G37*
G36*
X036737D02*
X036516D01*
Y02527D01*
X036546Y025279D01*
X036623Y025323D01*
X036685Y025385D01*
X036729Y025461D01*
X036737Y025492D01*
D02*
G37*
G36*
X036319D02*
X036097D01*
X036105Y025461D01*
X03615Y025385D01*
X036212Y025323D01*
X036288Y025279D01*
X036319Y02527D01*
Y025492D01*
D02*
G37*
G36*
X05494Y025369D02*
Y024964D01*
X055345D01*
X055318Y025063D01*
X055251Y02518D01*
X055156Y025275D01*
X055039Y025342D01*
X05494Y025369D01*
D02*
G37*
G36*
X054743D02*
X054644Y025342D01*
X054527Y025275D01*
X054432Y02518D01*
X054364Y025063D01*
X054338Y024964D01*
X054743D01*
Y025369D01*
D02*
G37*
G36*
X052698Y025292D02*
Y024948D01*
X053042D01*
X053022Y025025D01*
X052962Y025128D01*
X052878Y025212D01*
X052775Y025272D01*
X052698Y025292D01*
D02*
G37*
G36*
X052502D02*
X052425Y025272D01*
X052322Y025212D01*
X052238Y025128D01*
X052178Y025025D01*
X052158Y024948D01*
X052502D01*
Y025292D01*
D02*
G37*
G36*
X034498Y025242D02*
Y024898D01*
X034842D01*
X034822Y024975D01*
X034762Y025078D01*
X034678Y025162D01*
X034575Y025222D01*
X034498Y025242D01*
D02*
G37*
G36*
X034302D02*
X034225Y025222D01*
X034122Y025162D01*
X034038Y025078D01*
X033978Y024975D01*
X033958Y024898D01*
X034302D01*
Y025242D01*
D02*
G37*
G36*
X033449Y025174D02*
X033351D01*
X033256Y025149D01*
X03317Y025099D01*
X033101Y02503D01*
X033051Y024944D01*
X033038Y024895D01*
X032986D01*
X032985Y024899D01*
X032936Y024985D01*
X032866Y025054D01*
X032781Y025104D01*
X032686Y025129D01*
X032587D01*
X032492Y025104D01*
X032407Y025054D01*
X032337Y024985D01*
X032288Y024899D01*
X032263Y024804D01*
Y024706D01*
X032288Y024611D01*
X032337Y024525D01*
X032407Y024456D01*
X032492Y024407D01*
X032587Y024381D01*
X032686D01*
X032781Y024407D01*
X032866Y024456D01*
X032936Y024525D01*
X032985Y024611D01*
X032998Y02466D01*
X03305D01*
X033051Y024656D01*
X033101Y02457D01*
X03317Y024501D01*
X033256Y024451D01*
X033351Y024426D01*
X033449D01*
X033544Y024451D01*
X03363Y024501D01*
X033699Y02457D01*
X033749Y024656D01*
X033774Y024751D01*
Y024849D01*
X033749Y024944D01*
X033699Y02503D01*
X03363Y025099D01*
X033544Y025149D01*
X033449Y025174D01*
D02*
G37*
G36*
X051649Y025224D02*
X051551D01*
X051456Y025199D01*
X05137Y025149D01*
X051301Y02508D01*
X051251Y024994D01*
X051226Y024899D01*
Y024801D01*
X051251Y024706D01*
X051301Y02462D01*
X05137Y024551D01*
X051456Y024501D01*
X051551Y024476D01*
X051649D01*
X051744Y024501D01*
X05183Y024551D01*
X051899Y02462D01*
X051949Y024706D01*
X051974Y024801D01*
Y024899D01*
X051949Y024994D01*
X051899Y02508D01*
X05183Y025149D01*
X051744Y025199D01*
X051649Y025224D01*
D02*
G37*
G36*
X050649D02*
X050551D01*
X050456Y025199D01*
X05037Y025149D01*
X050301Y02508D01*
X050251Y024994D01*
X050226Y024899D01*
Y024801D01*
X050251Y024706D01*
X050301Y02462D01*
X05037Y024551D01*
X050456Y024501D01*
X050551Y024476D01*
X050649D01*
X050744Y024501D01*
X05083Y024551D01*
X050899Y02462D01*
X050949Y024706D01*
X050974Y024801D01*
Y024899D01*
X050949Y024994D01*
X050899Y02508D01*
X05083Y025149D01*
X050744Y025199D01*
X050649Y025224D01*
D02*
G37*
G36*
X049649D02*
X049551D01*
X049456Y025199D01*
X04937Y025149D01*
X049301Y02508D01*
X049251Y024994D01*
X049226Y024899D01*
Y024801D01*
X049251Y024706D01*
X049301Y02462D01*
X04937Y024551D01*
X049456Y024501D01*
X049551Y024476D01*
X049649D01*
X049744Y024501D01*
X04983Y024551D01*
X049899Y02462D01*
X049949Y024706D01*
X049974Y024801D01*
Y024899D01*
X049949Y024994D01*
X049899Y02508D01*
X04983Y025149D01*
X049744Y025199D01*
X049649Y025224D01*
D02*
G37*
G36*
X048649D02*
X048551D01*
X048456Y025199D01*
X04837Y025149D01*
X048301Y02508D01*
X048251Y024994D01*
X048226Y024899D01*
Y024801D01*
X048251Y024706D01*
X048301Y02462D01*
X04837Y024551D01*
X048456Y024501D01*
X048551Y024476D01*
X048649D01*
X048744Y024501D01*
X04883Y024551D01*
X048899Y02462D01*
X048949Y024706D01*
X048974Y024801D01*
Y024899D01*
X048949Y024994D01*
X048899Y02508D01*
X04883Y025149D01*
X048744Y025199D01*
X048649Y025224D01*
D02*
G37*
G36*
X047649D02*
X047551D01*
X047456Y025199D01*
X04737Y025149D01*
X047301Y02508D01*
X047251Y024994D01*
X047226Y024899D01*
Y024801D01*
X047251Y024706D01*
X047301Y02462D01*
X04737Y024551D01*
X047456Y024501D01*
X047551Y024476D01*
X047649D01*
X047744Y024501D01*
X04783Y024551D01*
X047899Y02462D01*
X047949Y024706D01*
X047974Y024801D01*
Y024899D01*
X047949Y024994D01*
X047899Y02508D01*
X04783Y025149D01*
X047744Y025199D01*
X047649Y025224D01*
D02*
G37*
G36*
X046649D02*
X046551D01*
X046456Y025199D01*
X04637Y025149D01*
X046301Y02508D01*
X046251Y024994D01*
X046226Y024899D01*
Y024801D01*
X046251Y024706D01*
X046301Y02462D01*
X04637Y024551D01*
X046456Y024501D01*
X046551Y024476D01*
X046649D01*
X046744Y024501D01*
X04683Y024551D01*
X046899Y02462D01*
X046949Y024706D01*
X046974Y024801D01*
Y024899D01*
X046949Y024994D01*
X046899Y02508D01*
X04683Y025149D01*
X046744Y025199D01*
X046649Y025224D01*
D02*
G37*
G36*
X045649D02*
X045551D01*
X045456Y025199D01*
X04537Y025149D01*
X045301Y02508D01*
X045251Y024994D01*
X045226Y024899D01*
Y024801D01*
X045251Y024706D01*
X045301Y02462D01*
X04537Y024551D01*
X045456Y024501D01*
X045551Y024476D01*
X045649D01*
X045744Y024501D01*
X04583Y024551D01*
X045899Y02462D01*
X045949Y024706D01*
X045974Y024801D01*
Y024899D01*
X045949Y024994D01*
X045899Y02508D01*
X04583Y025149D01*
X045744Y025199D01*
X045649Y025224D01*
D02*
G37*
G36*
X044649D02*
X044551D01*
X044456Y025199D01*
X04437Y025149D01*
X044301Y02508D01*
X044251Y024994D01*
X044226Y024899D01*
Y024801D01*
X044251Y024706D01*
X044301Y02462D01*
X04437Y024551D01*
X044456Y024501D01*
X044551Y024476D01*
X044649D01*
X044744Y024501D01*
X04483Y024551D01*
X044899Y02462D01*
X044949Y024706D01*
X044974Y024801D01*
Y024899D01*
X044949Y024994D01*
X044899Y02508D01*
X04483Y025149D01*
X044744Y025199D01*
X044649Y025224D01*
D02*
G37*
G36*
X043649D02*
X043551D01*
X043456Y025199D01*
X04337Y025149D01*
X043301Y02508D01*
X043251Y024994D01*
X043226Y024899D01*
Y024801D01*
X043251Y024706D01*
X043301Y02462D01*
X04337Y024551D01*
X043456Y024501D01*
X043551Y024476D01*
X043649D01*
X043744Y024501D01*
X04383Y024551D01*
X043899Y02462D01*
X043949Y024706D01*
X043974Y024801D01*
Y024899D01*
X043949Y024994D01*
X043899Y02508D01*
X04383Y025149D01*
X043744Y025199D01*
X043649Y025224D01*
D02*
G37*
G36*
X053042Y024752D02*
X052698D01*
Y024408D01*
X052775Y024428D01*
X052878Y024488D01*
X052962Y024572D01*
X053022Y024675D01*
X053042Y024752D01*
D02*
G37*
G36*
X052502D02*
X052158D01*
X052178Y024675D01*
X052238Y024572D01*
X052322Y024488D01*
X052425Y024428D01*
X052502Y024408D01*
Y024752D01*
D02*
G37*
G36*
X027686Y025129D02*
X027587D01*
X027492Y025104D01*
X027407Y025054D01*
X027337Y024985D01*
X027288Y024899D01*
X027263Y024804D01*
Y024706D01*
X027288Y024611D01*
X027337Y024525D01*
X027407Y024456D01*
X027492Y024407D01*
X027587Y024381D01*
X027686D01*
X027781Y024407D01*
X027866Y024456D01*
X027936Y024525D01*
X027985Y024611D01*
X028011Y024706D01*
Y024804D01*
X027985Y024899D01*
X027936Y024985D01*
X027866Y025054D01*
X027781Y025104D01*
X027686Y025129D01*
D02*
G37*
G36*
X026249Y025124D02*
X026151D01*
X026056Y025099D01*
X02597Y025049D01*
X025901Y02498D01*
X025851Y024894D01*
X025826Y024799D01*
Y024701D01*
X025851Y024606D01*
X025901Y02452D01*
X02597Y024451D01*
X026056Y024401D01*
X026151Y024376D01*
X026249D01*
X026344Y024401D01*
X02643Y024451D01*
X026499Y02452D01*
X026549Y024606D01*
X026574Y024701D01*
Y024799D01*
X026549Y024894D01*
X026499Y02498D01*
X02643Y025049D01*
X026344Y025099D01*
X026249Y025124D01*
D02*
G37*
G36*
X024792Y025439D02*
X02435D01*
X023908D01*
X023928Y025363D01*
X023988Y025259D01*
X024072Y025175D01*
X024155Y025127D01*
X024158Y025072D01*
X024158Y025071D01*
X02412Y025049D01*
X024051Y02498D01*
X024001Y024894D01*
X023976Y024799D01*
Y024701D01*
X024001Y024606D01*
X024051Y02452D01*
X02412Y024451D01*
X024206Y024401D01*
X024301Y024376D01*
X024399D01*
X024494Y024401D01*
X02458Y024451D01*
X024649Y02452D01*
X024699Y024606D01*
X024724Y024701D01*
Y024799D01*
X024699Y024894D01*
X024649Y02498D01*
X02458Y025049D01*
X024542Y025071D01*
X024542Y025072D01*
X024545Y025127D01*
X024628Y025175D01*
X024712Y025259D01*
X024772Y025363D01*
X024792Y025439D01*
D02*
G37*
G36*
X055345Y024767D02*
X05494D01*
Y024362D01*
X055039Y024388D01*
X055156Y024456D01*
X055251Y024551D01*
X055318Y024668D01*
X055345Y024767D01*
D02*
G37*
G36*
X054743D02*
X054338D01*
X054364Y024668D01*
X054432Y024551D01*
X054527Y024456D01*
X054644Y024388D01*
X054743Y024362D01*
Y024767D01*
D02*
G37*
G36*
X034842Y024702D02*
X034498D01*
Y024358D01*
X034575Y024378D01*
X034678Y024438D01*
X034762Y024522D01*
X034822Y024625D01*
X034842Y024702D01*
D02*
G37*
G36*
X034302D02*
X033958D01*
X033978Y024625D01*
X034038Y024522D01*
X034122Y024438D01*
X034225Y024378D01*
X034302Y024358D01*
Y024702D01*
D02*
G37*
G36*
X055217Y023942D02*
Y02372D01*
X055438D01*
X05543Y023751D01*
X055386Y023828D01*
X055324Y02389D01*
X055247Y023934D01*
X055217Y023942D01*
D02*
G37*
G36*
X05502D02*
X054989Y023934D01*
X054913Y02389D01*
X05485Y023828D01*
X054806Y023751D01*
X054798Y02372D01*
X05502D01*
Y023942D01*
D02*
G37*
G36*
X053248D02*
Y02372D01*
X05347D01*
X053461Y023751D01*
X053417Y023828D01*
X053355Y02389D01*
X053279Y023934D01*
X053248Y023942D01*
D02*
G37*
G36*
X053051D02*
X05302Y023934D01*
X052944Y02389D01*
X052882Y023828D01*
X052838Y023751D01*
X05283Y02372D01*
X053051D01*
Y023942D01*
D02*
G37*
G36*
X039469D02*
Y02372D01*
X03969D01*
X039682Y023751D01*
X039638Y023828D01*
X039576Y02389D01*
X039499Y023934D01*
X039469Y023942D01*
D02*
G37*
G36*
X039272D02*
X039241Y023934D01*
X039165Y02389D01*
X039102Y023828D01*
X039058Y023751D01*
X03905Y02372D01*
X039272D01*
Y023942D01*
D02*
G37*
G36*
X0375D02*
Y02372D01*
X037722D01*
X037713Y023751D01*
X037669Y023828D01*
X037607Y02389D01*
X037531Y023934D01*
X0375Y023942D01*
D02*
G37*
G36*
X037303D02*
X037272Y023934D01*
X037196Y02389D01*
X037134Y023828D01*
X03709Y023751D01*
X037081Y02372D01*
X037303D01*
Y023942D01*
D02*
G37*
G36*
X035531D02*
Y02372D01*
X035753D01*
X035745Y023751D01*
X035701Y023828D01*
X035639Y02389D01*
X035562Y023934D01*
X035531Y023942D01*
D02*
G37*
G36*
X035335D02*
X035304Y023934D01*
X035228Y02389D01*
X035165Y023828D01*
X035121Y023751D01*
X035113Y02372D01*
X035335D01*
Y023942D01*
D02*
G37*
G36*
X033563D02*
Y02372D01*
X033785D01*
X033776Y023751D01*
X033732Y023828D01*
X03367Y02389D01*
X033594Y023934D01*
X033563Y023942D01*
D02*
G37*
G36*
X033366D02*
X033335Y023934D01*
X033259Y02389D01*
X033197Y023828D01*
X033153Y023751D01*
X033144Y02372D01*
X033366D01*
Y023942D01*
D02*
G37*
G36*
X031594D02*
Y02372D01*
X031816D01*
X031808Y023751D01*
X031764Y023828D01*
X031702Y02389D01*
X031625Y023934D01*
X031594Y023942D01*
D02*
G37*
G36*
X031398D02*
X031367Y023934D01*
X031291Y02389D01*
X031228Y023828D01*
X031184Y023751D01*
X031176Y02372D01*
X031398D01*
Y023942D01*
D02*
G37*
G36*
X029626D02*
Y02372D01*
X029848D01*
X029839Y023751D01*
X029795Y023828D01*
X029733Y02389D01*
X029657Y023934D01*
X029626Y023942D01*
D02*
G37*
G36*
X029429D02*
X029398Y023934D01*
X029322Y02389D01*
X02926Y023828D01*
X029216Y023751D01*
X029207Y02372D01*
X029429D01*
Y023942D01*
D02*
G37*
G36*
X025689D02*
Y02372D01*
X025911D01*
X025902Y023751D01*
X025858Y023828D01*
X025796Y02389D01*
X02572Y023934D01*
X025689Y023942D01*
D02*
G37*
G36*
X025492D02*
X025461Y023934D01*
X025385Y02389D01*
X025323Y023828D01*
X025279Y023751D01*
X02527Y02372D01*
X025492D01*
Y023942D01*
D02*
G37*
G36*
X02372D02*
Y02372D01*
X023942D01*
X023934Y023751D01*
X02389Y023828D01*
X023828Y02389D01*
X023751Y023934D01*
X02372Y023942D01*
D02*
G37*
G36*
X023524D02*
X023493Y023934D01*
X023417Y02389D01*
X023354Y023828D01*
X02331Y023751D01*
X023302Y02372D01*
X023524D01*
Y023942D01*
D02*
G37*
G36*
X019783D02*
Y02372D01*
X020005D01*
X019997Y023751D01*
X019953Y023828D01*
X019891Y02389D01*
X019814Y023934D01*
X019783Y023942D01*
D02*
G37*
G36*
X019587D02*
X019556Y023934D01*
X01948Y02389D01*
X019417Y023828D01*
X019373Y023751D01*
X019365Y02372D01*
X019587D01*
Y023942D01*
D02*
G37*
G36*
X017815D02*
Y02372D01*
X018037D01*
X018028Y023751D01*
X017984Y023828D01*
X017922Y02389D01*
X017846Y023934D01*
X017815Y023942D01*
D02*
G37*
G36*
X017618D02*
X017587Y023934D01*
X017511Y02389D01*
X017449Y023828D01*
X017405Y023751D01*
X017396Y02372D01*
X017618D01*
Y023942D01*
D02*
G37*
G36*
X049698Y024042D02*
Y023698D01*
X050042D01*
X050022Y023775D01*
X049962Y023878D01*
X049878Y023962D01*
X049775Y024022D01*
X049698Y024042D01*
D02*
G37*
G36*
X049502D02*
X049425Y024022D01*
X049322Y023962D01*
X049238Y023878D01*
X049178Y023775D01*
X049158Y023698D01*
X049502D01*
Y024042D01*
D02*
G37*
G36*
X055438Y023524D02*
X055217D01*
Y023302D01*
X055247Y02331D01*
X055324Y023354D01*
X055386Y023417D01*
X05543Y023493D01*
X055438Y023524D01*
D02*
G37*
G36*
X05502D02*
X054798D01*
X054806Y023493D01*
X05485Y023417D01*
X054913Y023354D01*
X054989Y02331D01*
X05502Y023302D01*
Y023524D01*
D02*
G37*
G36*
X05347D02*
X053248D01*
Y023302D01*
X053279Y02331D01*
X053355Y023354D01*
X053417Y023417D01*
X053461Y023493D01*
X05347Y023524D01*
D02*
G37*
G36*
X053051D02*
X05283D01*
X052838Y023493D01*
X052882Y023417D01*
X052944Y023354D01*
X05302Y02331D01*
X053051Y023302D01*
Y023524D01*
D02*
G37*
G36*
X03969D02*
X039469D01*
Y023302D01*
X039499Y02331D01*
X039576Y023354D01*
X039638Y023417D01*
X039682Y023493D01*
X03969Y023524D01*
D02*
G37*
G36*
X039272D02*
X03905D01*
X039058Y023493D01*
X039102Y023417D01*
X039165Y023354D01*
X039241Y02331D01*
X039272Y023302D01*
Y023524D01*
D02*
G37*
G36*
X037722D02*
X0375D01*
Y023302D01*
X037531Y02331D01*
X037607Y023354D01*
X037669Y023417D01*
X037713Y023493D01*
X037722Y023524D01*
D02*
G37*
G36*
X037303D02*
X037081D01*
X03709Y023493D01*
X037134Y023417D01*
X037196Y023354D01*
X037272Y02331D01*
X037303Y023302D01*
Y023524D01*
D02*
G37*
G36*
X035753D02*
X035531D01*
Y023302D01*
X035562Y02331D01*
X035639Y023354D01*
X035701Y023417D01*
X035745Y023493D01*
X035753Y023524D01*
D02*
G37*
G36*
X035335D02*
X035113D01*
X035121Y023493D01*
X035165Y023417D01*
X035228Y023354D01*
X035304Y02331D01*
X035335Y023302D01*
Y023524D01*
D02*
G37*
G36*
X033785D02*
X033563D01*
Y023302D01*
X033594Y02331D01*
X03367Y023354D01*
X033732Y023417D01*
X033776Y023493D01*
X033785Y023524D01*
D02*
G37*
G36*
X033366D02*
X033144D01*
X033153Y023493D01*
X033197Y023417D01*
X033259Y023354D01*
X033335Y02331D01*
X033366Y023302D01*
Y023524D01*
D02*
G37*
G36*
X031816D02*
X031594D01*
Y023302D01*
X031625Y02331D01*
X031702Y023354D01*
X031764Y023417D01*
X031808Y023493D01*
X031816Y023524D01*
D02*
G37*
G36*
X031398D02*
X031176D01*
X031184Y023493D01*
X031228Y023417D01*
X031291Y023354D01*
X031367Y02331D01*
X031398Y023302D01*
Y023524D01*
D02*
G37*
G36*
X029848D02*
X029626D01*
Y023302D01*
X029657Y02331D01*
X029733Y023354D01*
X029795Y023417D01*
X029839Y023493D01*
X029848Y023524D01*
D02*
G37*
G36*
X029429D02*
X029207D01*
X029216Y023493D01*
X02926Y023417D01*
X029322Y023354D01*
X029398Y02331D01*
X029429Y023302D01*
Y023524D01*
D02*
G37*
G36*
X025911D02*
X025689D01*
Y023302D01*
X02572Y02331D01*
X025796Y023354D01*
X025858Y023417D01*
X025902Y023493D01*
X025911Y023524D01*
D02*
G37*
G36*
X025492D02*
X02527D01*
X025279Y023493D01*
X025323Y023417D01*
X025385Y023354D01*
X025461Y02331D01*
X025492Y023302D01*
Y023524D01*
D02*
G37*
G36*
X023942D02*
X02372D01*
Y023302D01*
X023751Y02331D01*
X023828Y023354D01*
X02389Y023417D01*
X023934Y023493D01*
X023942Y023524D01*
D02*
G37*
G36*
X023524D02*
X023302D01*
X02331Y023493D01*
X023354Y023417D01*
X023417Y023354D01*
X023493Y02331D01*
X023524Y023302D01*
Y023524D01*
D02*
G37*
G36*
X020005D02*
X019783D01*
Y023302D01*
X019814Y02331D01*
X019891Y023354D01*
X019953Y023417D01*
X019997Y023493D01*
X020005Y023524D01*
D02*
G37*
G36*
X019587D02*
X019365D01*
X019373Y023493D01*
X019417Y023417D01*
X01948Y023354D01*
X019556Y02331D01*
X019587Y023302D01*
Y023524D01*
D02*
G37*
G36*
X018037D02*
X017815D01*
Y023302D01*
X017846Y02331D01*
X017922Y023354D01*
X017984Y023417D01*
X018028Y023493D01*
X018037Y023524D01*
D02*
G37*
G36*
X017618D02*
X017396D01*
X017405Y023493D01*
X017449Y023417D01*
X017511Y023354D01*
X017587Y02331D01*
X017618Y023302D01*
Y023524D01*
D02*
G37*
G36*
X048649Y023974D02*
X048551D01*
X048456Y023949D01*
X04837Y023899D01*
X048301Y02383D01*
X048251Y023744D01*
X048226Y023649D01*
Y023551D01*
X048251Y023456D01*
X048301Y02337D01*
X04837Y023301D01*
X048456Y023251D01*
X048551Y023226D01*
X048649D01*
X048744Y023251D01*
X04883Y023301D01*
X048899Y02337D01*
X048949Y023456D01*
X048974Y023551D01*
Y023649D01*
X048949Y023744D01*
X048899Y02383D01*
X04883Y023899D01*
X048744Y023949D01*
X048649Y023974D01*
D02*
G37*
G36*
X050042Y023502D02*
X049698D01*
Y023158D01*
X049775Y023178D01*
X049878Y023238D01*
X049962Y023322D01*
X050022Y023425D01*
X050042Y023502D01*
D02*
G37*
G36*
X049502D02*
X049158D01*
X049178Y023425D01*
X049238Y023322D01*
X049322Y023238D01*
X049425Y023178D01*
X049502Y023158D01*
Y023502D01*
D02*
G37*
G36*
X051949Y022524D02*
X051851D01*
X051756Y022499D01*
X05167Y022449D01*
X051601Y02238D01*
X051551Y022294D01*
X051526Y022199D01*
Y022101D01*
X051551Y022006D01*
X051601Y02192D01*
X05167Y021851D01*
X051756Y021801D01*
X051851Y021776D01*
X051949D01*
X052044Y021801D01*
X05213Y021851D01*
X052199Y02192D01*
X052249Y022006D01*
X052274Y022101D01*
Y022199D01*
X052249Y022294D01*
X052199Y02238D01*
X05213Y022449D01*
X052044Y022499D01*
X051949Y022524D01*
D02*
G37*
G36*
X046949D02*
X046851D01*
X046756Y022499D01*
X04667Y022449D01*
X046601Y02238D01*
X046551Y022294D01*
X046526Y022199D01*
Y022101D01*
X046551Y022006D01*
X046601Y02192D01*
X04667Y021851D01*
X046756Y021801D01*
X046851Y021776D01*
X046949D01*
X047044Y021801D01*
X04713Y021851D01*
X047199Y02192D01*
X047249Y022006D01*
X047274Y022101D01*
Y022199D01*
X047249Y022294D01*
X047199Y02238D01*
X04713Y022449D01*
X047044Y022499D01*
X046949Y022524D01*
D02*
G37*
G36*
X030407Y022633D02*
X030293D01*
X030183Y022604D01*
X030084Y022547D01*
X030003Y022466D01*
X029946Y022367D01*
X029917Y022257D01*
Y022143D01*
X029946Y022033D01*
X030003Y021934D01*
X030084Y021853D01*
X030183Y021796D01*
X030293Y021767D01*
X030407D01*
X030517Y021796D01*
X030616Y021853D01*
X030697Y021934D01*
X030754Y022033D01*
X030783Y022143D01*
Y022257D01*
X030754Y022367D01*
X030697Y022466D01*
X030616Y022547D01*
X030517Y022604D01*
X030407Y022633D01*
D02*
G37*
G36*
X058169Y021974D02*
Y021752D01*
X058391D01*
X058383Y021783D01*
X058339Y021859D01*
X058276Y021921D01*
X0582Y021965D01*
X058169Y021974D01*
D02*
G37*
G36*
X057972D02*
X057942Y021965D01*
X057865Y021921D01*
X057803Y021859D01*
X057759Y021783D01*
X057751Y021752D01*
X057972D01*
Y021974D01*
D02*
G37*
G36*
X048327D02*
Y021752D01*
X048548D01*
X04854Y021783D01*
X048496Y021859D01*
X048434Y021921D01*
X048358Y021965D01*
X048327Y021974D01*
D02*
G37*
G36*
X04813D02*
X048099Y021965D01*
X048023Y021921D01*
X047961Y021859D01*
X047917Y021783D01*
X047908Y021752D01*
X04813D01*
Y021974D01*
D02*
G37*
G36*
X020768D02*
Y021752D01*
X020989D01*
X020981Y021783D01*
X020937Y021859D01*
X020875Y021921D01*
X020798Y021965D01*
X020768Y021974D01*
D02*
G37*
G36*
X020571D02*
X02054Y021965D01*
X020464Y021921D01*
X020402Y021859D01*
X020357Y021783D01*
X020349Y021752D01*
X020571D01*
Y021974D01*
D02*
G37*
G36*
X018799D02*
Y021752D01*
X019021D01*
X019013Y021783D01*
X018969Y021859D01*
X018906Y021921D01*
X01883Y021965D01*
X018799Y021974D01*
D02*
G37*
G36*
X018602D02*
X018572Y021965D01*
X018495Y021921D01*
X018433Y021859D01*
X018389Y021783D01*
X018381Y021752D01*
X018602D01*
Y021974D01*
D02*
G37*
G36*
X041032Y022216D02*
X040934D01*
X040839Y02219D01*
X040753Y022141D01*
X040684Y022071D01*
X040635Y021986D01*
X040609Y021891D01*
Y021792D01*
X040635Y021697D01*
X040684Y021612D01*
X040753Y021542D01*
X040839Y021493D01*
X040934Y021468D01*
X041032D01*
X041127Y021493D01*
X041213Y021542D01*
X041282Y021612D01*
X041332Y021697D01*
X041357Y021792D01*
Y021891D01*
X041332Y021986D01*
X041282Y022071D01*
X041213Y022141D01*
X041127Y02219D01*
X041032Y022216D01*
D02*
G37*
G36*
X036032D02*
X035934D01*
X035839Y02219D01*
X035753Y022141D01*
X035684Y022071D01*
X035635Y021986D01*
X035609Y021891D01*
Y021792D01*
X035635Y021697D01*
X035684Y021612D01*
X035753Y021542D01*
X035839Y021493D01*
X035934Y021468D01*
X036032D01*
X036127Y021493D01*
X036213Y021542D01*
X036282Y021612D01*
X036332Y021697D01*
X036357Y021792D01*
Y021891D01*
X036332Y021986D01*
X036282Y022071D01*
X036213Y022141D01*
X036127Y02219D01*
X036032Y022216D01*
D02*
G37*
G36*
X034657Y022283D02*
X034543D01*
X034433Y022254D01*
X034334Y022197D01*
X034253Y022116D01*
X034196Y022017D01*
X034167Y021907D01*
Y021793D01*
X034196Y021683D01*
X034253Y021584D01*
X034334Y021503D01*
X034433Y021446D01*
X034543Y021417D01*
X034657D01*
X034767Y021446D01*
X034866Y021503D01*
X034947Y021584D01*
X035004Y021683D01*
X035033Y021793D01*
Y021907D01*
X035004Y022017D01*
X034947Y022116D01*
X034866Y022197D01*
X034767Y022254D01*
X034657Y022283D01*
D02*
G37*
G36*
X020989Y021555D02*
X020768D01*
Y021333D01*
X020798Y021342D01*
X020875Y021386D01*
X020937Y021448D01*
X020981Y021524D01*
X020989Y021555D01*
D02*
G37*
G36*
X020571D02*
X020349D01*
X020357Y021524D01*
X020402Y021448D01*
X020464Y021386D01*
X02054Y021342D01*
X020571Y021333D01*
Y021555D01*
D02*
G37*
G36*
X019021D02*
X018799D01*
Y021333D01*
X01883Y021342D01*
X018906Y021386D01*
X018969Y021448D01*
X019013Y021524D01*
X019021Y021555D01*
D02*
G37*
G36*
X018602D02*
X018381D01*
X018389Y021524D01*
X018433Y021448D01*
X018495Y021386D01*
X018572Y021342D01*
X018602Y021333D01*
Y021555D01*
D02*
G37*
G36*
X058391D02*
X058169D01*
Y021333D01*
X0582Y021342D01*
X058276Y021386D01*
X058339Y021448D01*
X058383Y021524D01*
X058391Y021555D01*
D02*
G37*
G36*
X057972D02*
X057751D01*
X057759Y021524D01*
X057803Y021448D01*
X057865Y021386D01*
X057942Y021342D01*
X057972Y021333D01*
Y021555D01*
D02*
G37*
G36*
X048548D02*
X048327D01*
Y021333D01*
X048358Y021342D01*
X048434Y021386D01*
X048496Y021448D01*
X04854Y021524D01*
X048548Y021555D01*
D02*
G37*
G36*
X04813D02*
X047908D01*
X047917Y021524D01*
X047961Y021448D01*
X048023Y021386D01*
X048099Y021342D01*
X04813Y021333D01*
Y021555D01*
D02*
G37*
G36*
X026217Y02144D02*
Y021035D01*
X026622D01*
X026595Y021134D01*
X026528Y02125D01*
X026433Y021346D01*
X026316Y021413D01*
X026217Y02144D01*
D02*
G37*
G36*
X02602D02*
X025921Y021413D01*
X025804Y021346D01*
X025709Y02125D01*
X025642Y021134D01*
X025615Y021035D01*
X02602D01*
Y02144D01*
D02*
G37*
G36*
X026622Y020838D02*
X026217D01*
Y020433D01*
X026316Y020459D01*
X026433Y020527D01*
X026528Y020622D01*
X026595Y020739D01*
X026622Y020838D01*
D02*
G37*
G36*
X02602D02*
X025615D01*
X025642Y020739D01*
X025709Y020622D01*
X025804Y020527D01*
X025921Y020459D01*
X02602Y020433D01*
Y020838D01*
D02*
G37*
G36*
X034657Y021283D02*
X034543D01*
X034433Y021254D01*
X034334Y021197D01*
X034253Y021116D01*
X034196Y021017D01*
X034167Y020907D01*
Y020793D01*
X034196Y020683D01*
X034253Y020584D01*
X034334Y020503D01*
X034433Y020446D01*
X034543Y020417D01*
X034657D01*
X034767Y020446D01*
X034866Y020503D01*
X034947Y020584D01*
X035004Y020683D01*
X035033Y020793D01*
Y020907D01*
X035004Y021017D01*
X034947Y021116D01*
X034866Y021197D01*
X034767Y021254D01*
X034657Y021283D01*
D02*
G37*
G36*
X034698Y020353D02*
Y019948D01*
X035103D01*
X035077Y020048D01*
X03501Y020164D01*
X034914Y02026D01*
X034798Y020327D01*
X034698Y020353D01*
D02*
G37*
G36*
X034502D02*
X034402Y020327D01*
X034286Y02026D01*
X03419Y020164D01*
X034123Y020048D01*
X034097Y019948D01*
X034502D01*
Y020353D01*
D02*
G37*
G36*
X055217Y020005D02*
Y019783D01*
X055438D01*
X05543Y019814D01*
X055386Y019891D01*
X055324Y019953D01*
X055247Y019997D01*
X055217Y020005D01*
D02*
G37*
G36*
X05502D02*
X054989Y019997D01*
X054913Y019953D01*
X05485Y019891D01*
X054806Y019814D01*
X054798Y019783D01*
X05502D01*
Y020005D01*
D02*
G37*
G36*
X053248D02*
Y019783D01*
X05347D01*
X053461Y019814D01*
X053417Y019891D01*
X053355Y019953D01*
X053279Y019997D01*
X053248Y020005D01*
D02*
G37*
G36*
X053051D02*
X05302Y019997D01*
X052944Y019953D01*
X052882Y019891D01*
X052838Y019814D01*
X05283Y019783D01*
X053051D01*
Y020005D01*
D02*
G37*
G36*
X039469D02*
Y019783D01*
X03969D01*
X039682Y019814D01*
X039638Y019891D01*
X039576Y019953D01*
X039499Y019997D01*
X039469Y020005D01*
D02*
G37*
G36*
X039272D02*
X039241Y019997D01*
X039165Y019953D01*
X039102Y019891D01*
X039058Y019814D01*
X03905Y019783D01*
X039272D01*
Y020005D01*
D02*
G37*
G36*
X0375D02*
Y019783D01*
X037722D01*
X037713Y019814D01*
X037669Y019891D01*
X037607Y019953D01*
X037531Y019997D01*
X0375Y020005D01*
D02*
G37*
G36*
X037303D02*
X037272Y019997D01*
X037196Y019953D01*
X037134Y019891D01*
X03709Y019814D01*
X037081Y019783D01*
X037303D01*
Y020005D01*
D02*
G37*
G36*
X021752D02*
Y019783D01*
X021974D01*
X021965Y019814D01*
X021921Y019891D01*
X021859Y019953D01*
X021783Y019997D01*
X021752Y020005D01*
D02*
G37*
G36*
X021555D02*
X021524Y019997D01*
X021448Y019953D01*
X021386Y019891D01*
X021342Y019814D01*
X021333Y019783D01*
X021555D01*
Y020005D01*
D02*
G37*
G36*
X019783D02*
Y019783D01*
X020005D01*
X019997Y019814D01*
X019953Y019891D01*
X019891Y019953D01*
X019814Y019997D01*
X019783Y020005D01*
D02*
G37*
G36*
X019587D02*
X019556Y019997D01*
X01948Y019953D01*
X019417Y019891D01*
X019373Y019814D01*
X019365Y019783D01*
X019587D01*
Y020005D01*
D02*
G37*
G36*
X017815D02*
Y019783D01*
X018037D01*
X018028Y019814D01*
X017984Y019891D01*
X017922Y019953D01*
X017846Y019997D01*
X017815Y020005D01*
D02*
G37*
G36*
X017618D02*
X017587Y019997D01*
X017511Y019953D01*
X017449Y019891D01*
X017405Y019814D01*
X017396Y019783D01*
X017618D01*
Y020005D01*
D02*
G37*
G36*
X050107Y020433D02*
X049993D01*
X049883Y020404D01*
X049784Y020347D01*
X049703Y020266D01*
X049646Y020167D01*
X049617Y020057D01*
Y019943D01*
X049646Y019833D01*
X049703Y019734D01*
X049784Y019653D01*
X049883Y019596D01*
X049993Y019567D01*
X050107D01*
X050217Y019596D01*
X050316Y019653D01*
X050397Y019734D01*
X050454Y019833D01*
X050483Y019943D01*
Y020057D01*
X050454Y020167D01*
X050397Y020266D01*
X050316Y020347D01*
X050217Y020404D01*
X050107Y020433D01*
D02*
G37*
G36*
X049107D02*
X048993D01*
X048883Y020404D01*
X048784Y020347D01*
X048703Y020266D01*
X048646Y020167D01*
X048617Y020057D01*
Y019943D01*
X048646Y019833D01*
X048703Y019734D01*
X048784Y019653D01*
X048883Y019596D01*
X048993Y019567D01*
X049107D01*
X049217Y019596D01*
X049316Y019653D01*
X049397Y019734D01*
X049454Y019833D01*
X049483Y019943D01*
Y020057D01*
X049454Y020167D01*
X049397Y020266D01*
X049316Y020347D01*
X049217Y020404D01*
X049107Y020433D01*
D02*
G37*
G36*
X048107D02*
X047993D01*
X047883Y020404D01*
X047784Y020347D01*
X047703Y020266D01*
X047646Y020167D01*
X047617Y020057D01*
Y019943D01*
X047646Y019833D01*
X047703Y019734D01*
X047784Y019653D01*
X047883Y019596D01*
X047993Y019567D01*
X048107D01*
X048217Y019596D01*
X048316Y019653D01*
X048397Y019734D01*
X048454Y019833D01*
X048483Y019943D01*
Y020057D01*
X048454Y020167D01*
X048397Y020266D01*
X048316Y020347D01*
X048217Y020404D01*
X048107Y020433D01*
D02*
G37*
G36*
X047107D02*
X046993D01*
X046883Y020404D01*
X046784Y020347D01*
X046703Y020266D01*
X046646Y020167D01*
X046617Y020057D01*
Y019943D01*
X046646Y019833D01*
X046703Y019734D01*
X046784Y019653D01*
X046883Y019596D01*
X046993Y019567D01*
X047107D01*
X047217Y019596D01*
X047316Y019653D01*
X047397Y019734D01*
X047454Y019833D01*
X047483Y019943D01*
Y020057D01*
X047454Y020167D01*
X047397Y020266D01*
X047316Y020347D01*
X047217Y020404D01*
X047107Y020433D01*
D02*
G37*
G36*
X046107D02*
X045993D01*
X045883Y020404D01*
X045784Y020347D01*
X045703Y020266D01*
X045646Y020167D01*
X045617Y020057D01*
Y019943D01*
X045646Y019833D01*
X045703Y019734D01*
X045784Y019653D01*
X045883Y019596D01*
X045993Y019567D01*
X046107D01*
X046217Y019596D01*
X046316Y019653D01*
X046397Y019734D01*
X046454Y019833D01*
X046483Y019943D01*
Y020057D01*
X046454Y020167D01*
X046397Y020266D01*
X046316Y020347D01*
X046217Y020404D01*
X046107Y020433D01*
D02*
G37*
G36*
X045107D02*
X044993D01*
X044883Y020404D01*
X044784Y020347D01*
X044703Y020266D01*
X044646Y020167D01*
X044617Y020057D01*
Y019943D01*
X044646Y019833D01*
X044703Y019734D01*
X044784Y019653D01*
X044883Y019596D01*
X044993Y019567D01*
X045107D01*
X045217Y019596D01*
X045316Y019653D01*
X045397Y019734D01*
X045454Y019833D01*
X045483Y019943D01*
Y020057D01*
X045454Y020167D01*
X045397Y020266D01*
X045316Y020347D01*
X045217Y020404D01*
X045107Y020433D01*
D02*
G37*
G36*
X044107D02*
X043993D01*
X043883Y020404D01*
X043784Y020347D01*
X043703Y020266D01*
X043646Y020167D01*
X043617Y020057D01*
Y019943D01*
X043646Y019833D01*
X043703Y019734D01*
X043784Y019653D01*
X043883Y019596D01*
X043993Y019567D01*
X044107D01*
X044217Y019596D01*
X044316Y019653D01*
X044397Y019734D01*
X044454Y019833D01*
X044483Y019943D01*
Y020057D01*
X044454Y020167D01*
X044397Y020266D01*
X044316Y020347D01*
X044217Y020404D01*
X044107Y020433D01*
D02*
G37*
G36*
X043107D02*
X042993D01*
X042883Y020404D01*
X042784Y020347D01*
X042703Y020266D01*
X042646Y020167D01*
X042617Y020057D01*
Y019943D01*
X042646Y019833D01*
X042703Y019734D01*
X042784Y019653D01*
X042883Y019596D01*
X042993Y019567D01*
X043107D01*
X043217Y019596D01*
X043316Y019653D01*
X043397Y019734D01*
X043454Y019833D01*
X043483Y019943D01*
Y020057D01*
X043454Y020167D01*
X043397Y020266D01*
X043316Y020347D01*
X043217Y020404D01*
X043107Y020433D01*
D02*
G37*
G36*
X055438Y019587D02*
X055217D01*
Y019365D01*
X055247Y019373D01*
X055324Y019417D01*
X055386Y01948D01*
X05543Y019556D01*
X055438Y019587D01*
D02*
G37*
G36*
X05502D02*
X054798D01*
X054806Y019556D01*
X05485Y01948D01*
X054913Y019417D01*
X054989Y019373D01*
X05502Y019365D01*
Y019587D01*
D02*
G37*
G36*
X05347D02*
X053248D01*
Y019365D01*
X053279Y019373D01*
X053355Y019417D01*
X053417Y01948D01*
X053461Y019556D01*
X05347Y019587D01*
D02*
G37*
G36*
X053051D02*
X05283D01*
X052838Y019556D01*
X052882Y01948D01*
X052944Y019417D01*
X05302Y019373D01*
X053051Y019365D01*
Y019587D01*
D02*
G37*
G36*
X03969D02*
X039469D01*
Y019365D01*
X039499Y019373D01*
X039576Y019417D01*
X039638Y01948D01*
X039682Y019556D01*
X03969Y019587D01*
D02*
G37*
G36*
X039272D02*
X03905D01*
X039058Y019556D01*
X039102Y01948D01*
X039165Y019417D01*
X039241Y019373D01*
X039272Y019365D01*
Y019587D01*
D02*
G37*
G36*
X037722D02*
X0375D01*
Y019365D01*
X037531Y019373D01*
X037607Y019417D01*
X037669Y01948D01*
X037713Y019556D01*
X037722Y019587D01*
D02*
G37*
G36*
X037303D02*
X037081D01*
X03709Y019556D01*
X037134Y01948D01*
X037196Y019417D01*
X037272Y019373D01*
X037303Y019365D01*
Y019587D01*
D02*
G37*
G36*
X021974D02*
X021752D01*
Y019365D01*
X021783Y019373D01*
X021859Y019417D01*
X021921Y01948D01*
X021965Y019556D01*
X021974Y019587D01*
D02*
G37*
G36*
X021555D02*
X021333D01*
X021342Y019556D01*
X021386Y01948D01*
X021448Y019417D01*
X021524Y019373D01*
X021555Y019365D01*
Y019587D01*
D02*
G37*
G36*
X020005D02*
X019783D01*
Y019365D01*
X019814Y019373D01*
X019891Y019417D01*
X019953Y01948D01*
X019997Y019556D01*
X020005Y019587D01*
D02*
G37*
G36*
X019587D02*
X019365D01*
X019373Y019556D01*
X019417Y01948D01*
X01948Y019417D01*
X019556Y019373D01*
X019587Y019365D01*
Y019587D01*
D02*
G37*
G36*
X018037D02*
X017815D01*
Y019365D01*
X017846Y019373D01*
X017922Y019417D01*
X017984Y01948D01*
X018028Y019556D01*
X018037Y019587D01*
D02*
G37*
G36*
X017618D02*
X017396D01*
X017405Y019556D01*
X017449Y01948D01*
X017511Y019417D01*
X017587Y019373D01*
X017618Y019365D01*
Y019587D01*
D02*
G37*
G36*
X035103Y019752D02*
X034698D01*
Y019347D01*
X034798Y019373D01*
X034914Y01944D01*
X03501Y019536D01*
X035077Y019652D01*
X035103Y019752D01*
D02*
G37*
G36*
X034502D02*
X034097D01*
X034123Y019652D01*
X03419Y019536D01*
X034286Y01944D01*
X034402Y019373D01*
X034502Y019347D01*
Y019752D01*
D02*
G37*
G36*
X024207Y021369D02*
X024093D01*
X023983Y02134D01*
X023884Y021283D01*
X023803Y021202D01*
X023746Y021103D01*
X023717Y020993D01*
Y020879D01*
X023746Y020769D01*
X023803Y02067D01*
X023884Y02059D01*
X023938Y020559D01*
X025591Y018905D01*
X025591Y018905D01*
X025678Y018839D01*
X025778Y018797D01*
X025886Y018783D01*
X025886Y018783D01*
X030233D01*
X030293Y018767D01*
X030407D01*
X030517Y018796D01*
X030616Y018853D01*
X030697Y018934D01*
X030754Y019033D01*
X030783Y019143D01*
Y019257D01*
X030754Y019367D01*
X030697Y019466D01*
X030616Y019547D01*
X030517Y019604D01*
X030407Y019633D01*
X030293D01*
X030233Y019617D01*
X026059D01*
X024528Y021148D01*
X024497Y021202D01*
X024416Y021283D01*
X024317Y02134D01*
X024207Y021369D01*
D02*
G37*
G36*
X040798Y018592D02*
Y018248D01*
X041142D01*
X041122Y018325D01*
X041062Y018428D01*
X040978Y018512D01*
X040875Y018572D01*
X040798Y018592D01*
D02*
G37*
G36*
X040602D02*
X040525Y018572D01*
X040422Y018512D01*
X040338Y018428D01*
X040278Y018325D01*
X040258Y018248D01*
X040602D01*
Y018592D01*
D02*
G37*
G36*
X058169Y018037D02*
Y017815D01*
X058391D01*
X058383Y017846D01*
X058339Y017922D01*
X058276Y017984D01*
X0582Y018028D01*
X058169Y018037D01*
D02*
G37*
G36*
X057972D02*
X057942Y018028D01*
X057865Y017984D01*
X057803Y017922D01*
X057759Y017846D01*
X057751Y017815D01*
X057972D01*
Y018037D01*
D02*
G37*
G36*
X042421D02*
Y017815D01*
X042643D01*
X042635Y017846D01*
X042591Y017922D01*
X042528Y017984D01*
X042452Y018028D01*
X042421Y018037D01*
D02*
G37*
G36*
X042224D02*
X042194Y018028D01*
X042117Y017984D01*
X042055Y017922D01*
X042011Y017846D01*
X042003Y017815D01*
X042224D01*
Y018037D01*
D02*
G37*
G36*
X032579D02*
Y017815D01*
X0328D01*
X032792Y017846D01*
X032748Y017922D01*
X032686Y017984D01*
X032609Y018028D01*
X032579Y018037D01*
D02*
G37*
G36*
X032382D02*
X032351Y018028D01*
X032275Y017984D01*
X032213Y017922D01*
X032168Y017846D01*
X03216Y017815D01*
X032382D01*
Y018037D01*
D02*
G37*
G36*
X03061D02*
Y017815D01*
X030832D01*
X030824Y017846D01*
X03078Y017922D01*
X030717Y017984D01*
X030641Y018028D01*
X03061Y018037D01*
D02*
G37*
G36*
X030413D02*
X030383Y018028D01*
X030306Y017984D01*
X030244Y017922D01*
X0302Y017846D01*
X030192Y017815D01*
X030413D01*
Y018037D01*
D02*
G37*
G36*
X028642D02*
Y017815D01*
X028863D01*
X028855Y017846D01*
X028811Y017922D01*
X028749Y017984D01*
X028672Y018028D01*
X028642Y018037D01*
D02*
G37*
G36*
X028445D02*
X028414Y018028D01*
X028338Y017984D01*
X028276Y017922D01*
X028231Y017846D01*
X028223Y017815D01*
X028445D01*
Y018037D01*
D02*
G37*
G36*
X026673D02*
Y017815D01*
X026895D01*
X026887Y017846D01*
X026843Y017922D01*
X02678Y017984D01*
X026704Y018028D01*
X026673Y018037D01*
D02*
G37*
G36*
X026476D02*
X026446Y018028D01*
X026369Y017984D01*
X026307Y017922D01*
X026263Y017846D01*
X026255Y017815D01*
X026476D01*
Y018037D01*
D02*
G37*
G36*
X022736D02*
Y017815D01*
X022958D01*
X02295Y017846D01*
X022906Y017922D01*
X022843Y017984D01*
X022767Y018028D01*
X022736Y018037D01*
D02*
G37*
G36*
X022539D02*
X022509Y018028D01*
X022432Y017984D01*
X02237Y017922D01*
X022326Y017846D01*
X022318Y017815D01*
X022539D01*
Y018037D01*
D02*
G37*
G36*
X020768D02*
Y017815D01*
X020989D01*
X020981Y017846D01*
X020937Y017922D01*
X020875Y017984D01*
X020798Y018028D01*
X020768Y018037D01*
D02*
G37*
G36*
X020571D02*
X02054Y018028D01*
X020464Y017984D01*
X020402Y017922D01*
X020357Y017846D01*
X020349Y017815D01*
X020571D01*
Y018037D01*
D02*
G37*
G36*
X018799D02*
Y017815D01*
X019021D01*
X019013Y017846D01*
X018969Y017922D01*
X018906Y017984D01*
X01883Y018028D01*
X018799Y018037D01*
D02*
G37*
G36*
X018602D02*
X018572Y018028D01*
X018495Y017984D01*
X018433Y017922D01*
X018389Y017846D01*
X018381Y017815D01*
X018602D01*
Y018037D01*
D02*
G37*
G36*
X033649Y018524D02*
X033551D01*
X033456Y018499D01*
X03337Y018449D01*
X033301Y01838D01*
X033251Y018294D01*
X033226Y018199D01*
Y018101D01*
X033251Y018006D01*
X033301Y01792D01*
X03337Y017851D01*
X033456Y017801D01*
X033551Y017776D01*
X033649D01*
X033744Y017801D01*
X03383Y017851D01*
X033899Y01792D01*
X033949Y018006D01*
X033974Y018101D01*
Y018199D01*
X033949Y018294D01*
X033899Y01838D01*
X03383Y018449D01*
X033744Y018499D01*
X033649Y018524D01*
D02*
G37*
G36*
X0397Y018567D02*
X0386D01*
X038492Y018553D01*
X038392Y018511D01*
X038305Y018445D01*
X038239Y018358D01*
X038197Y018258D01*
X038183Y01815D01*
X038197Y018042D01*
X038239Y017942D01*
X038305Y017855D01*
X038392Y017789D01*
X038492Y017747D01*
X0386Y017733D01*
X0397D01*
X039808Y017747D01*
X039908Y017789D01*
X039995Y017855D01*
X040061Y017942D01*
X040103Y018042D01*
X040117Y01815D01*
X040103Y018258D01*
X040061Y018358D01*
X039995Y018445D01*
X039908Y018511D01*
X039808Y018553D01*
X0397Y018567D01*
D02*
G37*
G36*
X041142Y018052D02*
X040798D01*
Y017708D01*
X040875Y017728D01*
X040978Y017788D01*
X041062Y017872D01*
X041122Y017975D01*
X041142Y018052D01*
D02*
G37*
G36*
X040602D02*
X040258D01*
X040278Y017975D01*
X040338Y017872D01*
X040422Y017788D01*
X040525Y017728D01*
X040602Y017708D01*
Y018052D01*
D02*
G37*
G36*
X058391Y017618D02*
X058169D01*
Y017396D01*
X0582Y017405D01*
X058276Y017449D01*
X058339Y017511D01*
X058383Y017587D01*
X058391Y017618D01*
D02*
G37*
G36*
X057972D02*
X057751D01*
X057759Y017587D01*
X057803Y017511D01*
X057865Y017449D01*
X057942Y017405D01*
X057972Y017396D01*
Y017618D01*
D02*
G37*
G36*
X042643D02*
X042421D01*
Y017396D01*
X042452Y017405D01*
X042528Y017449D01*
X042591Y017511D01*
X042635Y017587D01*
X042643Y017618D01*
D02*
G37*
G36*
X042224D02*
X042003D01*
X042011Y017587D01*
X042055Y017511D01*
X042117Y017449D01*
X042194Y017405D01*
X042224Y017396D01*
Y017618D01*
D02*
G37*
G36*
X0328D02*
X032579D01*
Y017396D01*
X032609Y017405D01*
X032686Y017449D01*
X032748Y017511D01*
X032792Y017587D01*
X0328Y017618D01*
D02*
G37*
G36*
X032382D02*
X03216D01*
X032168Y017587D01*
X032213Y017511D01*
X032275Y017449D01*
X032351Y017405D01*
X032382Y017396D01*
Y017618D01*
D02*
G37*
G36*
X030832D02*
X03061D01*
Y017396D01*
X030641Y017405D01*
X030717Y017449D01*
X03078Y017511D01*
X030824Y017587D01*
X030832Y017618D01*
D02*
G37*
G36*
X030413D02*
X030192D01*
X0302Y017587D01*
X030244Y017511D01*
X030306Y017449D01*
X030383Y017405D01*
X030413Y017396D01*
Y017618D01*
D02*
G37*
G36*
X028863D02*
X028642D01*
Y017396D01*
X028672Y017405D01*
X028749Y017449D01*
X028811Y017511D01*
X028855Y017587D01*
X028863Y017618D01*
D02*
G37*
G36*
X028445D02*
X028223D01*
X028231Y017587D01*
X028276Y017511D01*
X028338Y017449D01*
X028414Y017405D01*
X028445Y017396D01*
Y017618D01*
D02*
G37*
G36*
X026895D02*
X026673D01*
Y017396D01*
X026704Y017405D01*
X02678Y017449D01*
X026843Y017511D01*
X026887Y017587D01*
X026895Y017618D01*
D02*
G37*
G36*
X026476D02*
X026255D01*
X026263Y017587D01*
X026307Y017511D01*
X026369Y017449D01*
X026446Y017405D01*
X026476Y017396D01*
Y017618D01*
D02*
G37*
G36*
X022958D02*
X022736D01*
Y017396D01*
X022767Y017405D01*
X022843Y017449D01*
X022906Y017511D01*
X02295Y017587D01*
X022958Y017618D01*
D02*
G37*
G36*
X022539D02*
X022318D01*
X022326Y017587D01*
X02237Y017511D01*
X022432Y017449D01*
X022509Y017405D01*
X022539Y017396D01*
Y017618D01*
D02*
G37*
G36*
X020989D02*
X020768D01*
Y017396D01*
X020798Y017405D01*
X020875Y017449D01*
X020937Y017511D01*
X020981Y017587D01*
X020989Y017618D01*
D02*
G37*
G36*
X020571D02*
X020349D01*
X020357Y017587D01*
X020402Y017511D01*
X020464Y017449D01*
X02054Y017405D01*
X020571Y017396D01*
Y017618D01*
D02*
G37*
G36*
X019021D02*
X018799D01*
Y017396D01*
X01883Y017405D01*
X018906Y017449D01*
X018969Y017511D01*
X019013Y017587D01*
X019021Y017618D01*
D02*
G37*
G36*
X018602D02*
X018381D01*
X018389Y017587D01*
X018433Y017511D01*
X018495Y017449D01*
X018572Y017405D01*
X018602Y017396D01*
Y017618D01*
D02*
G37*
G36*
X052649Y017574D02*
X052551D01*
X052456Y017549D01*
X05237Y017499D01*
X052301Y01743D01*
X052251Y017344D01*
X052226Y017249D01*
Y017151D01*
X052251Y017056D01*
X052301Y01697D01*
X05237Y016901D01*
X052456Y016851D01*
X052551Y016826D01*
X052649D01*
X052744Y016851D01*
X05283Y016901D01*
X052899Y01697D01*
X052949Y017056D01*
X052974Y017151D01*
Y017249D01*
X052949Y017344D01*
X052899Y01743D01*
X05283Y017499D01*
X052744Y017549D01*
X052649Y017574D01*
D02*
G37*
G36*
X047649D02*
X047551D01*
X047456Y017549D01*
X04737Y017499D01*
X047301Y01743D01*
X047251Y017344D01*
X047226Y017249D01*
Y017151D01*
X047251Y017056D01*
X047301Y01697D01*
X04737Y016901D01*
X047456Y016851D01*
X047551Y016826D01*
X047649D01*
X047744Y016851D01*
X04783Y016901D01*
X047899Y01697D01*
X047949Y017056D01*
X047974Y017151D01*
Y017249D01*
X047949Y017344D01*
X047899Y01743D01*
X04783Y017499D01*
X047744Y017549D01*
X047649Y017574D01*
D02*
G37*
G36*
X054407Y017633D02*
X054293D01*
X054183Y017604D01*
X054084Y017547D01*
X054003Y017466D01*
X053946Y017367D01*
X053917Y017257D01*
Y017143D01*
X053946Y017033D01*
X054003Y016934D01*
X054084Y016853D01*
X054183Y016796D01*
X054293Y016767D01*
X054407D01*
X054517Y016796D01*
X054616Y016853D01*
X054697Y016934D01*
X054754Y017033D01*
X054783Y017143D01*
Y017257D01*
X054754Y017367D01*
X054697Y017466D01*
X054616Y017547D01*
X054517Y017604D01*
X054407Y017633D01*
D02*
G37*
G36*
X055217Y016068D02*
Y015846D01*
X055438D01*
X05543Y015877D01*
X055386Y015954D01*
X055324Y016016D01*
X055247Y01606D01*
X055217Y016068D01*
D02*
G37*
G36*
X05502D02*
X054989Y01606D01*
X054913Y016016D01*
X05485Y015954D01*
X054806Y015877D01*
X054798Y015846D01*
X05502D01*
Y016068D01*
D02*
G37*
G36*
X025689D02*
Y015846D01*
X025911D01*
X025902Y015877D01*
X025858Y015954D01*
X025796Y016016D01*
X02572Y01606D01*
X025689Y016068D01*
D02*
G37*
G36*
X025492D02*
X025461Y01606D01*
X025385Y016016D01*
X025323Y015954D01*
X025279Y015877D01*
X02527Y015846D01*
X025492D01*
Y016068D01*
D02*
G37*
G36*
X021752D02*
Y015846D01*
X021974D01*
X021965Y015877D01*
X021921Y015954D01*
X021859Y016016D01*
X021783Y01606D01*
X021752Y016068D01*
D02*
G37*
G36*
X021555D02*
X021524Y01606D01*
X021448Y016016D01*
X021386Y015954D01*
X021342Y015877D01*
X021333Y015846D01*
X021555D01*
Y016068D01*
D02*
G37*
G36*
X019783D02*
Y015846D01*
X020005D01*
X019997Y015877D01*
X019953Y015954D01*
X019891Y016016D01*
X019814Y01606D01*
X019783Y016068D01*
D02*
G37*
G36*
X019587D02*
X019556Y01606D01*
X01948Y016016D01*
X019417Y015954D01*
X019373Y015877D01*
X019365Y015846D01*
X019587D01*
Y016068D01*
D02*
G37*
G36*
X017815D02*
Y015846D01*
X018037D01*
X018028Y015877D01*
X017984Y015954D01*
X017922Y016016D01*
X017846Y01606D01*
X017815Y016068D01*
D02*
G37*
G36*
X017618D02*
X017587Y01606D01*
X017511Y016016D01*
X017449Y015954D01*
X017405Y015877D01*
X017396Y015846D01*
X017618D01*
Y016068D01*
D02*
G37*
G36*
X054407Y016633D02*
X054293D01*
X054183Y016604D01*
X054084Y016547D01*
X054003Y016466D01*
X053946Y016367D01*
X053917Y016257D01*
Y016143D01*
X053946Y016033D01*
X054003Y015934D01*
X054084Y015853D01*
X054183Y015796D01*
X054293Y015767D01*
X054407D01*
X054517Y015796D01*
X054616Y015853D01*
X054697Y015934D01*
X054754Y016033D01*
X054783Y016143D01*
Y016257D01*
X054754Y016367D01*
X054697Y016466D01*
X054616Y016547D01*
X054517Y016604D01*
X054407Y016633D01*
D02*
G37*
G36*
X055438Y01565D02*
X055217D01*
Y015428D01*
X055247Y015436D01*
X055324Y01548D01*
X055386Y015543D01*
X05543Y015619D01*
X055438Y01565D01*
D02*
G37*
G36*
X05502D02*
X054798D01*
X054806Y015619D01*
X05485Y015543D01*
X054913Y01548D01*
X054989Y015436D01*
X05502Y015428D01*
Y01565D01*
D02*
G37*
G36*
X025911D02*
X025689D01*
Y015428D01*
X02572Y015436D01*
X025796Y01548D01*
X025858Y015543D01*
X025902Y015619D01*
X025911Y01565D01*
D02*
G37*
G36*
X025492D02*
X02527D01*
X025279Y015619D01*
X025323Y015543D01*
X025385Y01548D01*
X025461Y015436D01*
X025492Y015428D01*
Y01565D01*
D02*
G37*
G36*
X021974D02*
X021752D01*
Y015428D01*
X021783Y015436D01*
X021859Y01548D01*
X021921Y015543D01*
X021965Y015619D01*
X021974Y01565D01*
D02*
G37*
G36*
X021555D02*
X021333D01*
X021342Y015619D01*
X021386Y015543D01*
X021448Y01548D01*
X021524Y015436D01*
X021555Y015428D01*
Y01565D01*
D02*
G37*
G36*
X020005D02*
X019783D01*
Y015428D01*
X019814Y015436D01*
X019891Y01548D01*
X019953Y015543D01*
X019997Y015619D01*
X020005Y01565D01*
D02*
G37*
G36*
X019587D02*
X019365D01*
X019373Y015619D01*
X019417Y015543D01*
X01948Y01548D01*
X019556Y015436D01*
X019587Y015428D01*
Y01565D01*
D02*
G37*
G36*
X018037D02*
X017815D01*
Y015428D01*
X017846Y015436D01*
X017922Y01548D01*
X017984Y015543D01*
X018028Y015619D01*
X018037Y01565D01*
D02*
G37*
G36*
X017618D02*
X017396D01*
X017405Y015619D01*
X017449Y015543D01*
X017511Y01548D01*
X017587Y015436D01*
X017618Y015428D01*
Y01565D01*
D02*
G37*
G36*
X054448Y015703D02*
Y015298D01*
X054853D01*
X054827Y015398D01*
X05476Y015514D01*
X054664Y01561D01*
X054548Y015677D01*
X054448Y015703D01*
D02*
G37*
G36*
X054252D02*
X054152Y015677D01*
X054036Y01561D01*
X05394Y015514D01*
X053873Y015398D01*
X053847Y015298D01*
X054252D01*
Y015703D01*
D02*
G37*
G36*
X052646Y015878D02*
X052548D01*
X052453Y015852D01*
X052368Y015803D01*
X052298Y015733D01*
X052249Y015648D01*
X052223Y015553D01*
Y015455D01*
X052249Y015359D01*
X052298Y015274D01*
X052368Y015204D01*
X052453Y015155D01*
X052548Y01513D01*
X052646D01*
X052742Y015155D01*
X052827Y015204D01*
X052897Y015274D01*
X052946Y015359D01*
X052971Y015455D01*
Y015553D01*
X052946Y015648D01*
X052897Y015733D01*
X052827Y015803D01*
X052742Y015852D01*
X052646Y015878D01*
D02*
G37*
G36*
X047646D02*
X047548D01*
X047453Y015852D01*
X047368Y015803D01*
X047298Y015733D01*
X047249Y015648D01*
X047223Y015553D01*
Y015455D01*
X047249Y015359D01*
X047298Y015274D01*
X047368Y015204D01*
X047453Y015155D01*
X047548Y01513D01*
X047646D01*
X047742Y015155D01*
X047827Y015204D01*
X047897Y015274D01*
X047946Y015359D01*
X047971Y015455D01*
Y015553D01*
X047946Y015648D01*
X047897Y015733D01*
X047827Y015803D01*
X047742Y015852D01*
X047646Y015878D01*
D02*
G37*
G36*
X036347Y015877D02*
X036249D01*
X036154Y015852D01*
X036068Y015802D01*
X035999Y015733D01*
X035949Y015648D01*
X035924Y015552D01*
Y015454D01*
X035949Y015359D01*
X035999Y015273D01*
X036068Y015204D01*
X036154Y015155D01*
X036249Y015129D01*
X036347D01*
X036442Y015155D01*
X036528Y015204D01*
X036597Y015273D01*
X036647Y015359D01*
X036672Y015454D01*
Y015552D01*
X036647Y015648D01*
X036597Y015733D01*
X036528Y015802D01*
X036442Y015852D01*
X036347Y015877D01*
D02*
G37*
G36*
X033607Y015933D02*
X033493D01*
X033383Y015904D01*
X033284Y015847D01*
X033203Y015766D01*
X033146Y015667D01*
X033117Y015557D01*
Y015443D01*
X033146Y015333D01*
X033203Y015234D01*
X033284Y015153D01*
X033383Y015096D01*
X033493Y015067D01*
X033607D01*
X033717Y015096D01*
X033816Y015153D01*
X033897Y015234D01*
X033954Y015333D01*
X033983Y015443D01*
Y015557D01*
X033954Y015667D01*
X033897Y015766D01*
X033816Y015847D01*
X033717Y015904D01*
X033607Y015933D01*
D02*
G37*
G36*
X024207Y015743D02*
X024093D01*
X023983Y015713D01*
X023884Y015656D01*
X023803Y015575D01*
X023746Y015477D01*
X023717Y015367D01*
Y015253D01*
X023746Y015142D01*
X023803Y015044D01*
X023884Y014963D01*
X023983Y014906D01*
X024093Y014877D01*
X024207D01*
X024317Y014906D01*
X024416Y014963D01*
X024497Y015044D01*
X024554Y015142D01*
X024583Y015253D01*
Y015367D01*
X024554Y015477D01*
X024497Y015575D01*
X024416Y015656D01*
X024317Y015713D01*
X024207Y015743D01*
D02*
G37*
G36*
X054853Y015102D02*
X054448D01*
Y014697D01*
X054548Y014723D01*
X054664Y01479D01*
X05476Y014886D01*
X054827Y015002D01*
X054853Y015102D01*
D02*
G37*
G36*
X054252D02*
X053847D01*
X053873Y015002D01*
X05394Y014886D01*
X054036Y01479D01*
X054152Y014723D01*
X054252Y014697D01*
Y015102D01*
D02*
G37*
G36*
X036396Y014945D02*
Y014602D01*
X03674D01*
X03672Y014678D01*
X03666Y014781D01*
X036576Y014865D01*
X036473Y014925D01*
X036396Y014945D01*
D02*
G37*
G36*
X0362Y014945D02*
X036123Y014925D01*
X03602Y014865D01*
X035936Y014781D01*
X035876Y014678D01*
X035856Y014602D01*
X0362D01*
Y014945D01*
D02*
G37*
G36*
X024662Y014821D02*
X024248D01*
Y014408D01*
X024662D01*
Y014821D01*
D02*
G37*
G36*
X024052D02*
X023638D01*
Y014408D01*
X024052D01*
Y014821D01*
D02*
G37*
G36*
X033648Y014626D02*
Y01422D01*
X034053D01*
X034027Y01432D01*
X03396Y014436D01*
X033864Y014532D01*
X033748Y014599D01*
X033648Y014626D01*
D02*
G37*
G36*
X033452D02*
X033352Y014599D01*
X033236Y014532D01*
X03314Y014436D01*
X033073Y01432D01*
X033047Y01422D01*
X033452D01*
Y014626D01*
D02*
G37*
G36*
X03674Y014405D02*
X036396D01*
Y014061D01*
X036473Y014081D01*
X036576Y014141D01*
X03666Y014225D01*
X03672Y014328D01*
X03674Y014405D01*
D02*
G37*
G36*
X0362D02*
X035856D01*
X035876Y014328D01*
X035936Y014225D01*
X03602Y014141D01*
X036123Y014081D01*
X0362Y014061D01*
Y014405D01*
D02*
G37*
G36*
X058169Y0141D02*
Y013878D01*
X058391D01*
X058383Y013909D01*
X058339Y013985D01*
X058276Y014047D01*
X0582Y014091D01*
X058169Y0141D01*
D02*
G37*
G36*
X057972D02*
X057942Y014091D01*
X057865Y014047D01*
X057803Y013985D01*
X057759Y013909D01*
X057751Y013878D01*
X057972D01*
Y0141D01*
D02*
G37*
G36*
X054232D02*
Y013878D01*
X054454D01*
X054446Y013909D01*
X054402Y013985D01*
X054339Y014047D01*
X054263Y014091D01*
X054232Y0141D01*
D02*
G37*
G36*
X054035D02*
X054005Y014091D01*
X053928Y014047D01*
X053866Y013985D01*
X053822Y013909D01*
X053814Y013878D01*
X054035D01*
Y0141D01*
D02*
G37*
G36*
X046358D02*
Y013878D01*
X04658D01*
X046572Y013909D01*
X046528Y013985D01*
X046465Y014047D01*
X046389Y014091D01*
X046358Y0141D01*
D02*
G37*
G36*
X046161D02*
X046131Y014091D01*
X046054Y014047D01*
X045992Y013985D01*
X045948Y013909D01*
X04594Y013878D01*
X046161D01*
Y0141D01*
D02*
G37*
G36*
X04439D02*
Y013878D01*
X044611D01*
X044603Y013909D01*
X044559Y013985D01*
X044497Y014047D01*
X044421Y014091D01*
X04439Y0141D01*
D02*
G37*
G36*
X044193D02*
X044162Y014091D01*
X044086Y014047D01*
X044024Y013985D01*
X04398Y013909D01*
X043971Y013878D01*
X044193D01*
Y0141D01*
D02*
G37*
G36*
X042421D02*
Y013878D01*
X042643D01*
X042635Y013909D01*
X042591Y013985D01*
X042528Y014047D01*
X042452Y014091D01*
X042421Y0141D01*
D02*
G37*
G36*
X042224D02*
X042194Y014091D01*
X042117Y014047D01*
X042055Y013985D01*
X042011Y013909D01*
X042003Y013878D01*
X042224D01*
Y0141D01*
D02*
G37*
G36*
X040453D02*
Y013878D01*
X040674D01*
X040666Y013909D01*
X040622Y013985D01*
X04056Y014047D01*
X040483Y014091D01*
X040453Y0141D01*
D02*
G37*
G36*
X040256D02*
X040225Y014091D01*
X040149Y014047D01*
X040087Y013985D01*
X040042Y013909D01*
X040034Y013878D01*
X040256D01*
Y0141D01*
D02*
G37*
G36*
X038484D02*
Y013878D01*
X038706D01*
X038698Y013909D01*
X038654Y013985D01*
X038591Y014047D01*
X038515Y014091D01*
X038484Y0141D01*
D02*
G37*
G36*
X038287D02*
X038257Y014091D01*
X03818Y014047D01*
X038118Y013985D01*
X038074Y013909D01*
X038066Y013878D01*
X038287D01*
Y0141D01*
D02*
G37*
G36*
X026673D02*
Y013878D01*
X026895D01*
X026887Y013909D01*
X026843Y013985D01*
X02678Y014047D01*
X026704Y014091D01*
X026673Y0141D01*
D02*
G37*
G36*
X026476D02*
X026446Y014091D01*
X026369Y014047D01*
X026307Y013985D01*
X026263Y013909D01*
X026255Y013878D01*
X026476D01*
Y0141D01*
D02*
G37*
G36*
X020768D02*
Y013878D01*
X020989D01*
X020981Y013909D01*
X020937Y013985D01*
X020875Y014047D01*
X020798Y014091D01*
X020768Y0141D01*
D02*
G37*
G36*
X020571D02*
X02054Y014091D01*
X020464Y014047D01*
X020402Y013985D01*
X020357Y013909D01*
X020349Y013878D01*
X020571D01*
Y0141D01*
D02*
G37*
G36*
X018799D02*
Y013878D01*
X019021D01*
X019013Y013909D01*
X018969Y013985D01*
X018906Y014047D01*
X01883Y014091D01*
X018799Y0141D01*
D02*
G37*
G36*
X018602D02*
X018572Y014091D01*
X018495Y014047D01*
X018433Y013985D01*
X018389Y013909D01*
X018381Y013878D01*
X018602D01*
Y0141D01*
D02*
G37*
G36*
X048498Y014203D02*
Y013798D01*
X048903D01*
X048877Y013898D01*
X04881Y014014D01*
X048714Y01411D01*
X048598Y014177D01*
X048498Y014203D01*
D02*
G37*
G36*
X048302D02*
X048202Y014177D01*
X048086Y01411D01*
X04799Y014014D01*
X047923Y013898D01*
X047897Y013798D01*
X048302D01*
Y014203D01*
D02*
G37*
G36*
X024662Y014211D02*
X024248D01*
Y013798D01*
X024662D01*
Y014211D01*
D02*
G37*
G36*
X024052D02*
X023638D01*
Y013798D01*
X024052D01*
Y014211D01*
D02*
G37*
G36*
X034053Y014024D02*
X033648D01*
Y013619D01*
X033748Y013645D01*
X033864Y013713D01*
X03396Y013808D01*
X034027Y013924D01*
X034053Y014024D01*
D02*
G37*
G36*
X033452D02*
X033047D01*
X033073Y013924D01*
X03314Y013808D01*
X033236Y013713D01*
X033352Y013645D01*
X033452Y013619D01*
Y014024D01*
D02*
G37*
G36*
X058391Y013681D02*
X058169D01*
Y013459D01*
X0582Y013468D01*
X058276Y013512D01*
X058339Y013574D01*
X058383Y01365D01*
X058391Y013681D01*
D02*
G37*
G36*
X057972D02*
X057751D01*
X057759Y01365D01*
X057803Y013574D01*
X057865Y013512D01*
X057942Y013468D01*
X057972Y013459D01*
Y013681D01*
D02*
G37*
G36*
X054454D02*
X054232D01*
Y013459D01*
X054263Y013468D01*
X054339Y013512D01*
X054402Y013574D01*
X054446Y01365D01*
X054454Y013681D01*
D02*
G37*
G36*
X054035D02*
X053814D01*
X053822Y01365D01*
X053866Y013574D01*
X053928Y013512D01*
X054005Y013468D01*
X054035Y013459D01*
Y013681D01*
D02*
G37*
G36*
X04658D02*
X046358D01*
Y013459D01*
X046389Y013468D01*
X046465Y013512D01*
X046528Y013574D01*
X046572Y01365D01*
X04658Y013681D01*
D02*
G37*
G36*
X046161D02*
X04594D01*
X045948Y01365D01*
X045992Y013574D01*
X046054Y013512D01*
X046131Y013468D01*
X046161Y013459D01*
Y013681D01*
D02*
G37*
G36*
X044611D02*
X04439D01*
Y013459D01*
X044421Y013468D01*
X044497Y013512D01*
X044559Y013574D01*
X044603Y01365D01*
X044611Y013681D01*
D02*
G37*
G36*
X044193D02*
X043971D01*
X04398Y01365D01*
X044024Y013574D01*
X044086Y013512D01*
X044162Y013468D01*
X044193Y013459D01*
Y013681D01*
D02*
G37*
G36*
X042643D02*
X042421D01*
Y013459D01*
X042452Y013468D01*
X042528Y013512D01*
X042591Y013574D01*
X042635Y01365D01*
X042643Y013681D01*
D02*
G37*
G36*
X042224D02*
X042003D01*
X042011Y01365D01*
X042055Y013574D01*
X042117Y013512D01*
X042194Y013468D01*
X042224Y013459D01*
Y013681D01*
D02*
G37*
G36*
X040674D02*
X040453D01*
Y013459D01*
X040483Y013468D01*
X04056Y013512D01*
X040622Y013574D01*
X040666Y01365D01*
X040674Y013681D01*
D02*
G37*
G36*
X040256D02*
X040034D01*
X040042Y01365D01*
X040087Y013574D01*
X040149Y013512D01*
X040225Y013468D01*
X040256Y013459D01*
Y013681D01*
D02*
G37*
G36*
X038706D02*
X038484D01*
Y013459D01*
X038515Y013468D01*
X038591Y013512D01*
X038654Y013574D01*
X038698Y01365D01*
X038706Y013681D01*
D02*
G37*
G36*
X038287D02*
X038066D01*
X038074Y01365D01*
X038118Y013574D01*
X03818Y013512D01*
X038257Y013468D01*
X038287Y013459D01*
Y013681D01*
D02*
G37*
G36*
X026895D02*
X026673D01*
Y013459D01*
X026704Y013468D01*
X02678Y013512D01*
X026843Y013574D01*
X026887Y01365D01*
X026895Y013681D01*
D02*
G37*
G36*
X026476D02*
X026255D01*
X026263Y01365D01*
X026307Y013574D01*
X026369Y013512D01*
X026446Y013468D01*
X026476Y013459D01*
Y013681D01*
D02*
G37*
G36*
X020989D02*
X020768D01*
Y013459D01*
X020798Y013468D01*
X020875Y013512D01*
X020937Y013574D01*
X020981Y01365D01*
X020989Y013681D01*
D02*
G37*
G36*
X020571D02*
X020349D01*
X020357Y01365D01*
X020402Y013574D01*
X020464Y013512D01*
X02054Y013468D01*
X020571Y013459D01*
Y013681D01*
D02*
G37*
G36*
X019021D02*
X018799D01*
Y013459D01*
X01883Y013468D01*
X018906Y013512D01*
X018969Y013574D01*
X019013Y01365D01*
X019021Y013681D01*
D02*
G37*
G36*
X018602D02*
X018381D01*
X018389Y01365D01*
X018433Y013574D01*
X018495Y013512D01*
X018572Y013468D01*
X018602Y013459D01*
Y013681D01*
D02*
G37*
G36*
X050457Y014133D02*
X050343D01*
X050233Y014104D01*
X050134Y014047D01*
X050053Y013966D01*
X049996Y013867D01*
X049967Y013757D01*
Y013643D01*
X049996Y013533D01*
X050053Y013434D01*
X050134Y013353D01*
X050233Y013296D01*
X050343Y013267D01*
X050457D01*
X050567Y013296D01*
X050666Y013353D01*
X050747Y013434D01*
X050804Y013533D01*
X050833Y013643D01*
Y013757D01*
X050804Y013867D01*
X050747Y013966D01*
X050666Y014047D01*
X050567Y014104D01*
X050457Y014133D01*
D02*
G37*
G36*
X049457D02*
X049343D01*
X049233Y014104D01*
X049134Y014047D01*
X049053Y013966D01*
X048996Y013867D01*
X048967Y013757D01*
Y013643D01*
X048996Y013533D01*
X049053Y013434D01*
X049134Y013353D01*
X049233Y013296D01*
X049343Y013267D01*
X049457D01*
X049567Y013296D01*
X049666Y013353D01*
X049747Y013434D01*
X049804Y013533D01*
X049833Y013643D01*
Y013757D01*
X049804Y013867D01*
X049747Y013966D01*
X049666Y014047D01*
X049567Y014104D01*
X049457Y014133D01*
D02*
G37*
G36*
X048903Y013602D02*
X048498D01*
Y013197D01*
X048598Y013223D01*
X048714Y01329D01*
X04881Y013386D01*
X048877Y013502D01*
X048903Y013602D01*
D02*
G37*
G36*
X048302D02*
X047897D01*
X047923Y013502D01*
X04799Y013386D01*
X048086Y01329D01*
X048202Y013223D01*
X048302Y013197D01*
Y013602D01*
D02*
G37*
G36*
X057185Y012131D02*
Y011909D01*
X057407D01*
X057398Y01194D01*
X057354Y012017D01*
X057292Y012079D01*
X057216Y012123D01*
X057185Y012131D01*
D02*
G37*
G36*
X056988D02*
X056957Y012123D01*
X056881Y012079D01*
X056819Y012017D01*
X056775Y01194D01*
X056767Y011909D01*
X056988D01*
Y012131D01*
D02*
G37*
G36*
X027657D02*
Y011909D01*
X027879D01*
X027871Y01194D01*
X027827Y012017D01*
X027765Y012079D01*
X027688Y012123D01*
X027657Y012131D01*
D02*
G37*
G36*
X027461D02*
X02743Y012123D01*
X027354Y012079D01*
X027291Y012017D01*
X027247Y01194D01*
X027239Y011909D01*
X027461D01*
Y012131D01*
D02*
G37*
G36*
X025689D02*
Y011909D01*
X025911D01*
X025902Y01194D01*
X025858Y012017D01*
X025796Y012079D01*
X02572Y012123D01*
X025689Y012131D01*
D02*
G37*
G36*
X025492D02*
X025461Y012123D01*
X025385Y012079D01*
X025323Y012017D01*
X025279Y01194D01*
X02527Y011909D01*
X025492D01*
Y012131D01*
D02*
G37*
G36*
X02372D02*
Y011909D01*
X023942D01*
X023934Y01194D01*
X02389Y012017D01*
X023828Y012079D01*
X023751Y012123D01*
X02372Y012131D01*
D02*
G37*
G36*
X023524D02*
X023493Y012123D01*
X023417Y012079D01*
X023354Y012017D01*
X02331Y01194D01*
X023302Y011909D01*
X023524D01*
Y012131D01*
D02*
G37*
G36*
X021752D02*
Y011909D01*
X021974D01*
X021965Y01194D01*
X021921Y012017D01*
X021859Y012079D01*
X021783Y012123D01*
X021752Y012131D01*
D02*
G37*
G36*
X021555D02*
X021524Y012123D01*
X021448Y012079D01*
X021386Y012017D01*
X021342Y01194D01*
X021333Y011909D01*
X021555D01*
Y012131D01*
D02*
G37*
G36*
X019783D02*
Y011909D01*
X020005D01*
X019997Y01194D01*
X019953Y012017D01*
X019891Y012079D01*
X019814Y012123D01*
X019783Y012131D01*
D02*
G37*
G36*
X019587D02*
X019556Y012123D01*
X01948Y012079D01*
X019417Y012017D01*
X019373Y01194D01*
X019365Y011909D01*
X019587D01*
Y012131D01*
D02*
G37*
G36*
X017815D02*
Y011909D01*
X018037D01*
X018028Y01194D01*
X017984Y012017D01*
X017922Y012079D01*
X017846Y012123D01*
X017815Y012131D01*
D02*
G37*
G36*
X017618D02*
X017587Y012123D01*
X017511Y012079D01*
X017449Y012017D01*
X017405Y01194D01*
X017396Y011909D01*
X017618D01*
Y012131D01*
D02*
G37*
G36*
X057407Y011713D02*
X057185D01*
Y011491D01*
X057216Y011499D01*
X057292Y011543D01*
X057354Y011606D01*
X057398Y011682D01*
X057407Y011713D01*
D02*
G37*
G36*
X056988D02*
X056767D01*
X056775Y011682D01*
X056819Y011606D01*
X056881Y011543D01*
X056957Y011499D01*
X056988Y011491D01*
Y011713D01*
D02*
G37*
G36*
X027879D02*
X027657D01*
Y011491D01*
X027688Y011499D01*
X027765Y011543D01*
X027827Y011606D01*
X027871Y011682D01*
X027879Y011713D01*
D02*
G37*
G36*
X027461D02*
X027239D01*
X027247Y011682D01*
X027291Y011606D01*
X027354Y011543D01*
X02743Y011499D01*
X027461Y011491D01*
Y011713D01*
D02*
G37*
G36*
X025911D02*
X025689D01*
Y011491D01*
X02572Y011499D01*
X025796Y011543D01*
X025858Y011606D01*
X025902Y011682D01*
X025911Y011713D01*
D02*
G37*
G36*
X025492D02*
X02527D01*
X025279Y011682D01*
X025323Y011606D01*
X025385Y011543D01*
X025461Y011499D01*
X025492Y011491D01*
Y011713D01*
D02*
G37*
G36*
X023942D02*
X02372D01*
Y011491D01*
X023751Y011499D01*
X023828Y011543D01*
X02389Y011606D01*
X023934Y011682D01*
X023942Y011713D01*
D02*
G37*
G36*
X023524D02*
X023302D01*
X02331Y011682D01*
X023354Y011606D01*
X023417Y011543D01*
X023493Y011499D01*
X023524Y011491D01*
Y011713D01*
D02*
G37*
G36*
X021974D02*
X021752D01*
Y011491D01*
X021783Y011499D01*
X021859Y011543D01*
X021921Y011606D01*
X021965Y011682D01*
X021974Y011713D01*
D02*
G37*
G36*
X021555D02*
X021333D01*
X021342Y011682D01*
X021386Y011606D01*
X021448Y011543D01*
X021524Y011499D01*
X021555Y011491D01*
Y011713D01*
D02*
G37*
G36*
X020005D02*
X019783D01*
Y011491D01*
X019814Y011499D01*
X019891Y011543D01*
X019953Y011606D01*
X019997Y011682D01*
X020005Y011713D01*
D02*
G37*
G36*
X019587D02*
X019365D01*
X019373Y011682D01*
X019417Y011606D01*
X01948Y011543D01*
X019556Y011499D01*
X019587Y011491D01*
Y011713D01*
D02*
G37*
G36*
X018037D02*
X017815D01*
Y011491D01*
X017846Y011499D01*
X017922Y011543D01*
X017984Y011606D01*
X018028Y011682D01*
X018037Y011713D01*
D02*
G37*
G36*
X017618D02*
X017396D01*
X017405Y011682D01*
X017449Y011606D01*
X017511Y011543D01*
X017587Y011499D01*
X017618Y011491D01*
Y011713D01*
D02*
G37*
%LPD*%
D10*
X03985Y02595D02*
X0476D01*
X039546Y025644D02*
X0466D01*
X04659Y025654D02*
X0466Y025644D01*
X039546Y025659D02*
X039551Y025654D01*
D25*
X02415Y020936D02*
X025886Y0192D01*
X03035D01*
X0386Y01815D02*
X0397D01*
D26*
X03355Y014122D02*
D03*
Y0155D02*
D03*
X026119Y020936D02*
D03*
X02415D02*
D03*
X0484Y0137D02*
D03*
X0504D02*
D03*
X0494D02*
D03*
X04305Y02D02*
D03*
X04405D02*
D03*
X04505D02*
D03*
X04605D02*
D03*
X04705D02*
D03*
X04805D02*
D03*
X04905D02*
D03*
X05005D02*
D03*
X054841Y027865D02*
D03*
Y026865D02*
D03*
Y025865D02*
D03*
Y024865D02*
D03*
X02415Y01531D02*
D03*
X03035Y0222D02*
D03*
Y0192D02*
D03*
X05435Y0172D02*
D03*
Y0162D02*
D03*
Y0152D02*
D03*
X03375Y0428D02*
D03*
X03275D02*
D03*
X03175D02*
D03*
X03075D02*
D03*
X02975D02*
D03*
X02875D02*
D03*
X02775D02*
D03*
X02675D02*
D03*
X02575D02*
D03*
X02475D02*
D03*
X03475D02*
D03*
X03575D02*
D03*
X03675D02*
D03*
X03775D02*
D03*
X03875D02*
D03*
X03975D02*
D03*
X0346Y01985D02*
D03*
Y02085D02*
D03*
Y02185D02*
D03*
D27*
X02435Y02475D02*
D03*
Y025537D02*
D03*
X0397Y01815D02*
D03*
X0407D02*
D03*
X0344Y0248D02*
D03*
X0334D02*
D03*
X032637Y024755D02*
D03*
X027637D02*
D03*
X0436Y02485D02*
D03*
X0446D02*
D03*
X0456D02*
D03*
X0466D02*
D03*
X0476D02*
D03*
X0486D02*
D03*
X0496D02*
D03*
X0506D02*
D03*
X0516D02*
D03*
X0526D02*
D03*
X0436Y02785D02*
D03*
X0446D02*
D03*
X0456D02*
D03*
X0466D02*
D03*
X0476D02*
D03*
X0486D02*
D03*
X0496D02*
D03*
X0506D02*
D03*
X0516D02*
D03*
X0526D02*
D03*
X0199Y03845D02*
D03*
Y03945D02*
D03*
Y04045D02*
D03*
X036298Y015503D02*
D03*
Y014503D02*
D03*
X0336Y01815D02*
D03*
X0386D02*
D03*
X035983Y021842D02*
D03*
X040983D02*
D03*
X0262Y02575D02*
D03*
Y02475D02*
D03*
X0526Y0172D02*
D03*
X0476D02*
D03*
X047597Y015504D02*
D03*
X052597D02*
D03*
X0519Y02215D02*
D03*
X0469D02*
D03*
X0486Y0236D02*
D03*
X0496D02*
D03*
X04375Y0448D02*
D03*
X03875D02*
D03*
D28*
X02415Y01431D02*
D03*
D29*
X022585Y030595D02*
D03*
X052112D02*
D03*
X022585Y0428D02*
D03*
X052112D02*
D03*
D30*
X022638Y041339D02*
D03*
X058071Y045276D02*
D03*
X057087Y043307D02*
D03*
X058071Y041339D02*
D03*
X057087Y03937D02*
D03*
X058071Y037402D02*
D03*
X057087Y035433D02*
D03*
X058071Y033465D02*
D03*
X057087Y031496D02*
D03*
X058071Y029528D02*
D03*
Y025591D02*
D03*
Y021654D02*
D03*
Y017717D02*
D03*
Y01378D02*
D03*
X057087Y011811D02*
D03*
X056102Y045276D02*
D03*
X055118Y043307D02*
D03*
X056102Y041339D02*
D03*
X055118Y03937D02*
D03*
X056102Y037402D02*
D03*
X055118Y035433D02*
D03*
X056102Y033465D02*
D03*
X055118Y031496D02*
D03*
X056102Y029528D02*
D03*
X055118Y023622D02*
D03*
Y019685D02*
D03*
Y015748D02*
D03*
X054134Y045276D02*
D03*
Y041339D02*
D03*
Y037402D02*
D03*
Y033465D02*
D03*
Y029528D02*
D03*
X05315Y023622D02*
D03*
Y019685D02*
D03*
X054134Y01378D02*
D03*
X052165Y045276D02*
D03*
Y041339D02*
D03*
X051181Y03937D02*
D03*
X052165Y037402D02*
D03*
X051181Y035433D02*
D03*
X052165Y033465D02*
D03*
X050197Y045276D02*
D03*
X049213Y043307D02*
D03*
X050197Y041339D02*
D03*
X049213Y03937D02*
D03*
X050197Y037402D02*
D03*
X049213Y035433D02*
D03*
X050197Y033465D02*
D03*
X048228Y045276D02*
D03*
X047244Y043307D02*
D03*
X048228Y041339D02*
D03*
X047244Y03937D02*
D03*
X048228Y037402D02*
D03*
X047244Y035433D02*
D03*
X048228Y033465D02*
D03*
Y021654D02*
D03*
X04626Y045276D02*
D03*
X045276Y043307D02*
D03*
X04626Y041339D02*
D03*
X045276Y03937D02*
D03*
X04626Y037402D02*
D03*
X045276Y035433D02*
D03*
X04626Y01378D02*
D03*
X043307Y043307D02*
D03*
X044291Y041339D02*
D03*
X043307Y03937D02*
D03*
X044291Y037402D02*
D03*
Y01378D02*
D03*
X041339Y043307D02*
D03*
X042323Y041339D02*
D03*
X041339Y03937D02*
D03*
X042323Y033465D02*
D03*
Y017717D02*
D03*
Y01378D02*
D03*
X040354Y041339D02*
D03*
X03937Y035433D02*
D03*
X040354Y033465D02*
D03*
X03937Y023622D02*
D03*
Y019685D02*
D03*
X040354Y01378D02*
D03*
X038386Y037402D02*
D03*
X037402Y035433D02*
D03*
X038386Y033465D02*
D03*
X037402Y027559D02*
D03*
X038386Y025591D02*
D03*
X037402Y023622D02*
D03*
Y019685D02*
D03*
X038386Y01378D02*
D03*
X035433Y03937D02*
D03*
X036417Y037402D02*
D03*
X035433Y035433D02*
D03*
X036417Y033465D02*
D03*
X035433Y027559D02*
D03*
X036417Y025591D02*
D03*
X035433Y023622D02*
D03*
X034449Y041339D02*
D03*
X033465Y03937D02*
D03*
X034449Y037402D02*
D03*
X033465Y027559D02*
D03*
Y023622D02*
D03*
X03248Y041339D02*
D03*
X031496Y03937D02*
D03*
X03248Y037402D02*
D03*
X031496Y035433D02*
D03*
X03248Y033465D02*
D03*
X031496Y027559D02*
D03*
X03248Y025591D02*
D03*
X031496Y023622D02*
D03*
X03248Y017717D02*
D03*
X030512Y041339D02*
D03*
X029528Y035433D02*
D03*
X030512Y033465D02*
D03*
X029528Y027559D02*
D03*
X030512Y025591D02*
D03*
X029528Y023622D02*
D03*
X030512Y017717D02*
D03*
X027559Y03937D02*
D03*
X028543Y037402D02*
D03*
X027559Y035433D02*
D03*
X028543Y033465D02*
D03*
X027559Y027559D02*
D03*
X028543Y025591D02*
D03*
Y017717D02*
D03*
X027559Y011811D02*
D03*
X026575Y037402D02*
D03*
X025591Y035433D02*
D03*
X026575Y033465D02*
D03*
X025591Y027559D02*
D03*
Y023622D02*
D03*
X026575Y017717D02*
D03*
X025591Y015748D02*
D03*
X026575Y01378D02*
D03*
X025591Y011811D02*
D03*
X024606Y041339D02*
D03*
Y037402D02*
D03*
X023622Y035433D02*
D03*
X024606Y033465D02*
D03*
X023622Y027559D02*
D03*
Y023622D02*
D03*
Y011811D02*
D03*
X022638Y037402D02*
D03*
Y033465D02*
D03*
X021654Y027559D02*
D03*
X022638Y025591D02*
D03*
X021654Y019685D02*
D03*
X022638Y017717D02*
D03*
X021654Y015748D02*
D03*
Y011811D02*
D03*
X019685Y035433D02*
D03*
X020669Y033465D02*
D03*
X019685Y031496D02*
D03*
X020669Y029528D02*
D03*
X019685Y027559D02*
D03*
Y023622D02*
D03*
X020669Y021654D02*
D03*
X019685Y019685D02*
D03*
X020669Y017717D02*
D03*
X019685Y015748D02*
D03*
X020669Y01378D02*
D03*
X019685Y011811D02*
D03*
X018701Y045276D02*
D03*
X017717Y043307D02*
D03*
X018701Y033465D02*
D03*
Y029528D02*
D03*
X017717Y023622D02*
D03*
X018701Y021654D02*
D03*
X017717Y019685D02*
D03*
X018701Y017717D02*
D03*
X017717Y015748D02*
D03*
X018701Y01378D02*
D03*
X017717Y011811D02*
D03*
X03985Y02595D02*
D03*
X0466Y025644D02*
D03*
X039546D02*
D03*
X0476Y02595D02*
D03*
M02*
