G04*
G04 #@! TF.GenerationSoftware,Altium Limited,Altium Designer,21.9.2 (33)*
G04*
G04 Layer_Color=16711935*
%FSLAX24Y24*%
%MOIN*%
G70*
G04*
G04 #@! TF.SameCoordinates,D973DA56-E0BB-4DEA-AE19-888B2019222A*
G04*
G04*
G04 #@! TF.FilePolarity,Negative*
G04*
G01*
G75*
G04:AMPARAMS|DCode=27|XSize=67.1mil|YSize=57.2mil|CornerRadius=16.3mil|HoleSize=0mil|Usage=FLASHONLY|Rotation=180.000|XOffset=0mil|YOffset=0mil|HoleType=Round|Shape=RoundedRectangle|*
%AMROUNDEDRECTD27*
21,1,0.0671,0.0246,0,0,180.0*
21,1,0.0344,0.0572,0,0,180.0*
1,1,0.0326,-0.0172,0.0123*
1,1,0.0326,0.0172,0.0123*
1,1,0.0326,0.0172,-0.0123*
1,1,0.0326,-0.0172,-0.0123*
%
%ADD27ROUNDEDRECTD27*%
G04:AMPARAMS|DCode=32|XSize=59.2mil|YSize=47.4mil|CornerRadius=13.8mil|HoleSize=0mil|Usage=FLASHONLY|Rotation=0.000|XOffset=0mil|YOffset=0mil|HoleType=Round|Shape=RoundedRectangle|*
%AMROUNDEDRECTD32*
21,1,0.0592,0.0197,0,0,0.0*
21,1,0.0315,0.0474,0,0,0.0*
1,1,0.0277,0.0157,-0.0098*
1,1,0.0277,-0.0157,-0.0098*
1,1,0.0277,-0.0157,0.0098*
1,1,0.0277,0.0157,0.0098*
%
%ADD32ROUNDEDRECTD32*%
%ADD39C,0.1339*%
%ADD40C,0.0709*%
%ADD41C,0.0867*%
%ADD42C,0.0592*%
%ADD43C,0.0710*%
%ADD44C,0.0591*%
%ADD45C,0.1063*%
%ADD46C,0.1064*%
%ADD47C,0.0356*%
G04:AMPARAMS|DCode=61|XSize=43.4mil|YSize=39.5mil|CornerRadius=11.9mil|HoleSize=0mil|Usage=FLASHONLY|Rotation=180.000|XOffset=0mil|YOffset=0mil|HoleType=Round|Shape=RoundedRectangle|*
%AMROUNDEDRECTD61*
21,1,0.0434,0.0157,0,0,180.0*
21,1,0.0197,0.0395,0,0,180.0*
1,1,0.0237,-0.0098,0.0079*
1,1,0.0237,0.0098,0.0079*
1,1,0.0237,0.0098,-0.0079*
1,1,0.0237,-0.0098,-0.0079*
%
%ADD61ROUNDEDRECTD61*%
D27*
X38311Y21467D02*
D03*
Y22156D02*
D03*
X45936Y22217D02*
D03*
Y22906D02*
D03*
D32*
X42061Y24126D02*
D03*
Y23496D02*
D03*
D39*
X65906Y12756D02*
D03*
Y38346D02*
D03*
X11614D02*
D03*
Y12756D02*
D03*
D40*
X38097Y37500D02*
D03*
X40097D02*
D03*
X42097D02*
D03*
X44097D02*
D03*
X48097D02*
D03*
X47097D02*
D03*
X46097D02*
D03*
X45097D02*
D03*
X43097D02*
D03*
X41097D02*
D03*
X39097D02*
D03*
X37097D02*
D03*
X38097Y34050D02*
D03*
X40097D02*
D03*
X42097D02*
D03*
X44097D02*
D03*
X48097D02*
D03*
X47097D02*
D03*
X46097D02*
D03*
X45097D02*
D03*
X43097D02*
D03*
X41097D02*
D03*
X39097D02*
D03*
X37097D02*
D03*
X43061Y14061D02*
D03*
X42061D02*
D03*
X41061D02*
D03*
X47311D02*
D03*
X46311D02*
D03*
X45311D02*
D03*
X14500Y25157D02*
D03*
Y27125D02*
D03*
X64186Y24030D02*
D03*
Y22061D02*
D03*
X51561Y15311D02*
D03*
Y17311D02*
D03*
Y16311D02*
D03*
X56061Y33061D02*
D03*
X57061D02*
D03*
X53061Y27311D02*
D03*
Y23311D02*
D03*
X51061Y21061D02*
D03*
X52061D02*
D03*
X38436Y14061D02*
D03*
X37436D02*
D03*
X36436D02*
D03*
X64186Y28655D02*
D03*
Y26686D02*
D03*
X47186Y22686D02*
D03*
Y21686D02*
D03*
X40811Y24936D02*
D03*
Y25936D02*
D03*
Y26936D02*
D03*
Y27936D02*
D03*
X17936Y29686D02*
D03*
X16936D02*
D03*
X61061Y36061D02*
D03*
Y33061D02*
D03*
X53061Y17311D02*
D03*
Y15311D02*
D03*
Y16311D02*
D03*
D41*
X19750Y20000D02*
D03*
Y15500D02*
D03*
Y13500D02*
D03*
Y22000D02*
D03*
X25639Y26061D02*
D03*
X22686D02*
D03*
X17436Y31831D02*
D03*
X15936Y31811D02*
D03*
X60106Y22949D02*
D03*
Y27673D02*
D03*
X28130Y34311D02*
D03*
X30130D02*
D03*
X29130D02*
D03*
X16005D02*
D03*
X18005D02*
D03*
X17005D02*
D03*
X24005Y17561D02*
D03*
X26005D02*
D03*
X25005D02*
D03*
D42*
X47686Y17436D02*
D03*
X46686D02*
D03*
X13561Y35311D02*
D03*
Y34311D02*
D03*
X19936Y35311D02*
D03*
Y34311D02*
D03*
X26186Y35311D02*
D03*
Y34311D02*
D03*
X21936Y13811D02*
D03*
Y14811D02*
D03*
X27755Y18436D02*
D03*
Y17436D02*
D03*
X34061Y18561D02*
D03*
Y17561D02*
D03*
X51561Y36061D02*
D03*
Y37061D02*
D03*
Y28561D02*
D03*
Y29561D02*
D03*
X59061Y38061D02*
D03*
X53061D02*
D03*
X37436Y20811D02*
D03*
Y22811D02*
D03*
X30061Y30774D02*
D03*
Y31561D02*
D03*
X53061Y29436D02*
D03*
X59061D02*
D03*
X51561Y32374D02*
D03*
Y33374D02*
D03*
X45936Y20436D02*
D03*
Y21436D02*
D03*
D43*
X58061Y33061D02*
D03*
X53061Y21061D02*
D03*
X15936Y29686D02*
D03*
X55303Y22949D02*
D03*
Y27673D02*
D03*
D44*
X51561Y22686D02*
D03*
Y27686D02*
D03*
X40797Y20961D02*
D03*
Y22883D02*
D03*
X52061Y31061D02*
D03*
X57061D02*
D03*
D45*
X14561Y14811D02*
D03*
Y16811D02*
D03*
Y20811D02*
D03*
Y18811D02*
D03*
D46*
X54516Y25311D02*
D03*
D47*
X64961Y37402D02*
D03*
X65945Y35433D02*
D03*
X64961Y33465D02*
D03*
X65945Y31496D02*
D03*
X64961Y29528D02*
D03*
X65945Y27559D02*
D03*
X64961Y25591D02*
D03*
X65945Y23622D02*
D03*
X64961Y21654D02*
D03*
X65945Y19685D02*
D03*
X64961Y17717D02*
D03*
X65945Y15748D02*
D03*
X64961Y13780D02*
D03*
X62992Y37402D02*
D03*
X63976Y35433D02*
D03*
X62992Y33465D02*
D03*
X63976Y31496D02*
D03*
X62992Y29528D02*
D03*
X63976Y27559D02*
D03*
X62992Y25591D02*
D03*
X63976Y19685D02*
D03*
X62992Y17717D02*
D03*
X63976Y15748D02*
D03*
X62992Y13780D02*
D03*
X62008Y35433D02*
D03*
Y31496D02*
D03*
X61024Y29528D02*
D03*
X62008Y23622D02*
D03*
Y19685D02*
D03*
X61024Y17717D02*
D03*
X62008Y15748D02*
D03*
X61024Y13780D02*
D03*
X59055Y37402D02*
D03*
X60039Y35433D02*
D03*
Y31496D02*
D03*
X59055Y21654D02*
D03*
X60039Y19685D02*
D03*
X59055Y17717D02*
D03*
X60039Y15748D02*
D03*
X59055Y13780D02*
D03*
X58071Y31496D02*
D03*
X57087Y29528D02*
D03*
X58071Y27559D02*
D03*
Y23622D02*
D03*
X57087Y21654D02*
D03*
X58071Y19685D02*
D03*
X57087Y17717D02*
D03*
X58071Y15748D02*
D03*
X57087Y13780D02*
D03*
X55118Y37402D02*
D03*
X56102Y35433D02*
D03*
X55118Y33465D02*
D03*
X56102Y31496D02*
D03*
X55118Y29528D02*
D03*
X56102Y27559D02*
D03*
Y23622D02*
D03*
X55118Y21654D02*
D03*
X56102Y19685D02*
D03*
X55118Y17717D02*
D03*
X56102Y15748D02*
D03*
X55118Y13780D02*
D03*
X54134Y35433D02*
D03*
Y31496D02*
D03*
X53150Y25591D02*
D03*
X54134Y19685D02*
D03*
Y15748D02*
D03*
X53150Y13780D02*
D03*
X52165Y35433D02*
D03*
Y27559D02*
D03*
X51181Y25591D02*
D03*
X52165Y23622D02*
D03*
X51181Y13780D02*
D03*
X49213Y37402D02*
D03*
X50197Y35433D02*
D03*
X49213Y33465D02*
D03*
Y25591D02*
D03*
Y21654D02*
D03*
X50197Y15748D02*
D03*
X49213Y13780D02*
D03*
X48228Y23622D02*
D03*
Y15748D02*
D03*
X46260Y19685D02*
D03*
X44291Y15748D02*
D03*
X41339Y33465D02*
D03*
X42323Y31496D02*
D03*
X41339Y21654D02*
D03*
X39370Y29528D02*
D03*
X40354Y23622D02*
D03*
X39370Y21654D02*
D03*
X40354Y19685D02*
D03*
X39370Y17717D02*
D03*
X40354Y15748D02*
D03*
X39370Y13780D02*
D03*
X37402Y33465D02*
D03*
X38386Y31496D02*
D03*
X37402Y29528D02*
D03*
Y25591D02*
D03*
X38386Y23622D02*
D03*
X37402Y21654D02*
D03*
X38386Y19685D02*
D03*
X37402Y17717D02*
D03*
X38386Y15748D02*
D03*
X35433Y37402D02*
D03*
X36417Y35433D02*
D03*
X35433Y33465D02*
D03*
X36417Y31496D02*
D03*
X35433Y29528D02*
D03*
X36417Y27559D02*
D03*
X35433Y25591D02*
D03*
X36417Y23622D02*
D03*
X35433Y21654D02*
D03*
X36417Y19685D02*
D03*
X35433Y17717D02*
D03*
Y13780D02*
D03*
X33465Y37402D02*
D03*
X34449Y35433D02*
D03*
X33465Y33465D02*
D03*
Y29528D02*
D03*
X34449Y27559D02*
D03*
X33465Y25591D02*
D03*
X34449Y23622D02*
D03*
X33465Y21654D02*
D03*
X34449Y19685D02*
D03*
X31496Y37402D02*
D03*
X32480Y35433D02*
D03*
X31496Y29528D02*
D03*
Y25591D02*
D03*
Y17717D02*
D03*
X29528Y37402D02*
D03*
X30512Y35433D02*
D03*
X29528Y29528D02*
D03*
X30512Y27559D02*
D03*
X29528Y25591D02*
D03*
X30512Y23622D02*
D03*
X29528Y13780D02*
D03*
X27559Y37402D02*
D03*
X28543Y35433D02*
D03*
Y27559D02*
D03*
X27559Y25591D02*
D03*
X28543Y23622D02*
D03*
X27559Y21654D02*
D03*
X28543Y19685D02*
D03*
X27559Y13780D02*
D03*
X25591Y37402D02*
D03*
X26575Y27559D02*
D03*
Y23622D02*
D03*
X25591Y21654D02*
D03*
X26575Y19685D02*
D03*
X25591Y13780D02*
D03*
X24606Y31496D02*
D03*
Y23622D02*
D03*
Y19685D02*
D03*
X21654Y37402D02*
D03*
X22638Y31496D02*
D03*
X19685Y37402D02*
D03*
X20669Y31496D02*
D03*
X17717Y37402D02*
D03*
X18701Y35433D02*
D03*
X17717Y33465D02*
D03*
Y25591D02*
D03*
Y21654D02*
D03*
X18701Y15748D02*
D03*
X17717Y13780D02*
D03*
X15748Y37402D02*
D03*
X16732Y35433D02*
D03*
X15748Y17717D02*
D03*
X16732Y15748D02*
D03*
X15748Y13780D02*
D03*
X13780Y37402D02*
D03*
X14764Y35433D02*
D03*
Y23622D02*
D03*
X13780Y21654D02*
D03*
X14764Y15748D02*
D03*
X13780Y13780D02*
D03*
X11811Y37402D02*
D03*
X12795Y35433D02*
D03*
X11811Y33465D02*
D03*
X12795Y31496D02*
D03*
X11811Y29528D02*
D03*
X12795Y27559D02*
D03*
X11811Y25591D02*
D03*
X12795Y15748D02*
D03*
X11811Y13780D02*
D03*
X20945Y33701D02*
D03*
Y34331D02*
D03*
X28150Y30914D02*
D03*
Y31701D02*
D03*
X26181Y33110D02*
D03*
X49759Y18386D02*
D03*
X29094Y15413D02*
D03*
X34055Y16772D02*
D03*
X43131Y20408D02*
D03*
X44985D02*
D03*
X41488Y19350D02*
D03*
X43890Y18732D02*
D03*
X44075Y18177D02*
D03*
X44894Y17433D02*
D03*
X53071Y19646D02*
D03*
X43425Y22205D02*
D03*
X44488Y23819D02*
D03*
X48543Y28740D02*
D03*
X44213D02*
D03*
X48780Y31496D02*
D03*
X47677Y29921D02*
D03*
X47402Y29528D02*
D03*
X46575D02*
D03*
X46260Y29921D02*
D03*
X42087Y20984D02*
D03*
X45591Y31890D02*
D03*
X43819Y31496D02*
D03*
X43543Y31890D02*
D03*
X43268Y32283D02*
D03*
X46575D02*
D03*
X42047Y22874D02*
D03*
D61*
X40061Y20973D02*
D03*
Y21524D02*
D03*
X40061Y22899D02*
D03*
Y22348D02*
D03*
M02*
