G04*
G04 #@! TF.GenerationSoftware,Altium Limited,Altium Designer,21.9.2 (33)*
G04*
G04 Layer_Physical_Order=1*
G04 Layer_Color=16711680*
%FSLAX24Y24*%
%MOIN*%
G70*
G04*
G04 #@! TF.SameCoordinates,D973DA56-E0BB-4DEA-AE19-888B2019222A*
G04*
G04*
G04 #@! TF.FilePolarity,Positive*
G04*
G01*
G75*
%ADD10C,0.0118*%
G04:AMPARAMS|DCode=15|XSize=59.1mil|YSize=49.2mil|CornerRadius=12.3mil|HoleSize=0mil|Usage=FLASHONLY|Rotation=180.000|XOffset=0mil|YOffset=0mil|HoleType=Round|Shape=RoundedRectangle|*
%AMROUNDEDRECTD15*
21,1,0.0591,0.0246,0,0,180.0*
21,1,0.0344,0.0492,0,0,180.0*
1,1,0.0246,-0.0172,0.0123*
1,1,0.0246,0.0172,0.0123*
1,1,0.0246,0.0172,-0.0123*
1,1,0.0246,-0.0172,-0.0123*
%
%ADD15ROUNDEDRECTD15*%
G04:AMPARAMS|DCode=16|XSize=70.9mil|YSize=48.4mil|CornerRadius=4.8mil|HoleSize=0mil|Usage=FLASHONLY|Rotation=270.000|XOffset=0mil|YOffset=0mil|HoleType=Round|Shape=RoundedRectangle|*
%AMROUNDEDRECTD16*
21,1,0.0709,0.0387,0,0,270.0*
21,1,0.0612,0.0484,0,0,270.0*
1,1,0.0097,-0.0194,-0.0306*
1,1,0.0097,-0.0194,0.0306*
1,1,0.0097,0.0194,0.0306*
1,1,0.0097,0.0194,-0.0306*
%
%ADD16ROUNDEDRECTD16*%
G04:AMPARAMS|DCode=17|XSize=141.7mil|YSize=65mil|CornerRadius=6.5mil|HoleSize=0mil|Usage=FLASHONLY|Rotation=270.000|XOffset=0mil|YOffset=0mil|HoleType=Round|Shape=RoundedRectangle|*
%AMROUNDEDRECTD17*
21,1,0.1417,0.0520,0,0,270.0*
21,1,0.1287,0.0650,0,0,270.0*
1,1,0.0130,-0.0260,-0.0644*
1,1,0.0130,-0.0260,0.0644*
1,1,0.0130,0.0260,0.0644*
1,1,0.0130,0.0260,-0.0644*
%
%ADD17ROUNDEDRECTD17*%
G04:AMPARAMS|DCode=18|XSize=93.3mil|YSize=95.7mil|CornerRadius=9.3mil|HoleSize=0mil|Usage=FLASHONLY|Rotation=270.000|XOffset=0mil|YOffset=0mil|HoleType=Round|Shape=RoundedRectangle|*
%AMROUNDEDRECTD18*
21,1,0.0933,0.0770,0,0,270.0*
21,1,0.0746,0.0957,0,0,270.0*
1,1,0.0187,-0.0385,-0.0373*
1,1,0.0187,-0.0385,0.0373*
1,1,0.0187,0.0385,0.0373*
1,1,0.0187,0.0385,-0.0373*
%
%ADD18ROUNDEDRECTD18*%
G04:AMPARAMS|DCode=19|XSize=85mil|YSize=42.1mil|CornerRadius=10.5mil|HoleSize=0mil|Usage=FLASHONLY|Rotation=270.000|XOffset=0mil|YOffset=0mil|HoleType=Round|Shape=RoundedRectangle|*
%AMROUNDEDRECTD19*
21,1,0.0850,0.0211,0,0,270.0*
21,1,0.0640,0.0421,0,0,270.0*
1,1,0.0211,-0.0105,-0.0320*
1,1,0.0211,-0.0105,0.0320*
1,1,0.0211,0.0105,0.0320*
1,1,0.0211,0.0105,-0.0320*
%
%ADD19ROUNDEDRECTD19*%
G04:AMPARAMS|DCode=20|XSize=51.2mil|YSize=39.4mil|CornerRadius=9.8mil|HoleSize=0mil|Usage=FLASHONLY|Rotation=0.000|XOffset=0mil|YOffset=0mil|HoleType=Round|Shape=RoundedRectangle|*
%AMROUNDEDRECTD20*
21,1,0.0512,0.0197,0,0,0.0*
21,1,0.0315,0.0394,0,0,0.0*
1,1,0.0197,0.0157,-0.0098*
1,1,0.0197,-0.0157,-0.0098*
1,1,0.0197,-0.0157,0.0098*
1,1,0.0197,0.0157,0.0098*
%
%ADD20ROUNDEDRECTD20*%
G04:AMPARAMS|DCode=21|XSize=51.2mil|YSize=39.4mil|CornerRadius=9.8mil|HoleSize=0mil|Usage=FLASHONLY|Rotation=270.000|XOffset=0mil|YOffset=0mil|HoleType=Round|Shape=RoundedRectangle|*
%AMROUNDEDRECTD21*
21,1,0.0512,0.0197,0,0,270.0*
21,1,0.0315,0.0394,0,0,270.0*
1,1,0.0197,-0.0098,-0.0157*
1,1,0.0197,-0.0098,0.0157*
1,1,0.0197,0.0098,0.0157*
1,1,0.0197,0.0098,-0.0157*
%
%ADD21ROUNDEDRECTD21*%
G04:AMPARAMS|DCode=22|XSize=11.8mil|YSize=72.8mil|CornerRadius=3mil|HoleSize=0mil|Usage=FLASHONLY|Rotation=270.000|XOffset=0mil|YOffset=0mil|HoleType=Round|Shape=RoundedRectangle|*
%AMROUNDEDRECTD22*
21,1,0.0118,0.0669,0,0,270.0*
21,1,0.0059,0.0728,0,0,270.0*
1,1,0.0059,-0.0335,-0.0030*
1,1,0.0059,-0.0335,0.0030*
1,1,0.0059,0.0335,0.0030*
1,1,0.0059,0.0335,-0.0030*
%
%ADD22ROUNDEDRECTD22*%
G04:AMPARAMS|DCode=23|XSize=70.9mil|YSize=48.4mil|CornerRadius=4.8mil|HoleSize=0mil|Usage=FLASHONLY|Rotation=0.000|XOffset=0mil|YOffset=0mil|HoleType=Round|Shape=RoundedRectangle|*
%AMROUNDEDRECTD23*
21,1,0.0709,0.0387,0,0,0.0*
21,1,0.0612,0.0484,0,0,0.0*
1,1,0.0097,0.0306,-0.0194*
1,1,0.0097,-0.0306,-0.0194*
1,1,0.0097,-0.0306,0.0194*
1,1,0.0097,0.0306,0.0194*
%
%ADD23ROUNDEDRECTD23*%
%ADD24O,0.0630X0.0118*%
G04:AMPARAMS|DCode=25|XSize=23.6mil|YSize=27.6mil|CornerRadius=1.2mil|HoleSize=0mil|Usage=FLASHONLY|Rotation=270.000|XOffset=0mil|YOffset=0mil|HoleType=Round|Shape=RoundedRectangle|*
%AMROUNDEDRECTD25*
21,1,0.0236,0.0252,0,0,270.0*
21,1,0.0213,0.0276,0,0,270.0*
1,1,0.0024,-0.0126,-0.0106*
1,1,0.0024,-0.0126,0.0106*
1,1,0.0024,0.0126,0.0106*
1,1,0.0024,0.0126,-0.0106*
%
%ADD25ROUNDEDRECTD25*%
G04:AMPARAMS|DCode=26|XSize=39.4mil|YSize=27.6mil|CornerRadius=1.4mil|HoleSize=0mil|Usage=FLASHONLY|Rotation=270.000|XOffset=0mil|YOffset=0mil|HoleType=Round|Shape=RoundedRectangle|*
%AMROUNDEDRECTD26*
21,1,0.0394,0.0248,0,0,270.0*
21,1,0.0366,0.0276,0,0,270.0*
1,1,0.0028,-0.0124,-0.0183*
1,1,0.0028,-0.0124,0.0183*
1,1,0.0028,0.0124,0.0183*
1,1,0.0028,0.0124,-0.0183*
%
%ADD26ROUNDEDRECTD26*%
%ADD48C,0.0394*%
%ADD49C,0.0709*%
%ADD50C,0.0197*%
%ADD51C,0.0984*%
%ADD52C,0.0591*%
%ADD53C,0.1260*%
%ADD54C,0.0630*%
%ADD55C,0.0787*%
%ADD56C,0.0512*%
%ADD57C,0.0984*%
%ADD58C,0.0276*%
G36*
X65541Y39002D02*
X65429Y38927D01*
X65324Y38823D01*
X65243Y38701D01*
X65186Y38565D01*
X65157Y38420D01*
Y38273D01*
X65186Y38128D01*
X65243Y37992D01*
X65324Y37870D01*
X65429Y37765D01*
X65551Y37684D01*
X65687Y37627D01*
X65832Y37598D01*
X65979D01*
X66124Y37627D01*
X66260Y37684D01*
X66382Y37765D01*
X66487Y37870D01*
X66561Y37982D01*
X66611Y37972D01*
Y13131D01*
X66561Y13121D01*
X66487Y13233D01*
X66382Y13337D01*
X66260Y13419D01*
X66124Y13475D01*
X65979Y13504D01*
X65832D01*
X65687Y13475D01*
X65551Y13419D01*
X65429Y13337D01*
X65324Y13233D01*
X65243Y13110D01*
X65186Y12974D01*
X65157Y12830D01*
Y12682D01*
X65186Y12538D01*
X65243Y12402D01*
X65324Y12279D01*
X65425Y12179D01*
X65422Y12153D01*
X65415Y12129D01*
X12105D01*
X12098Y12153D01*
X12095Y12179D01*
X12195Y12279D01*
X12277Y12402D01*
X12333Y12538D01*
X12362Y12682D01*
Y12830D01*
X12333Y12974D01*
X12277Y13110D01*
X12195Y13233D01*
X12091Y13337D01*
X11968Y13419D01*
X11832Y13475D01*
X11688Y13504D01*
X11540D01*
X11396Y13475D01*
X11260Y13419D01*
X11137Y13337D01*
X11033Y13233D01*
X10998Y13180D01*
X10948Y13195D01*
Y37908D01*
X10998Y37923D01*
X11033Y37870D01*
X11137Y37765D01*
X11260Y37684D01*
X11396Y37627D01*
X11540Y37598D01*
X11688D01*
X11832Y37627D01*
X11968Y37684D01*
X12091Y37765D01*
X12195Y37870D01*
X12277Y37992D01*
X12333Y38128D01*
X12362Y38273D01*
Y38420D01*
X12333Y38565D01*
X12277Y38701D01*
X12195Y38823D01*
X12091Y38927D01*
X11979Y39002D01*
X11989Y39052D01*
X65531D01*
X65541Y39002D01*
D02*
G37*
%LPC*%
G36*
X37294Y37977D02*
Y37697D01*
X37574D01*
X37574Y37698D01*
X37507Y37814D01*
X37411Y37910D01*
X37295Y37977D01*
X37294Y37977D01*
D02*
G37*
G36*
X36900D02*
X36899Y37977D01*
X36783Y37910D01*
X36688Y37814D01*
X36620Y37698D01*
X36620Y37697D01*
X36900D01*
Y37977D01*
D02*
G37*
G36*
X53110Y38435D02*
X53012D01*
X52917Y38410D01*
X52831Y38360D01*
X52762Y38291D01*
X52712Y38205D01*
X52687Y38110D01*
Y38012D01*
X52712Y37917D01*
X52762Y37831D01*
X52831Y37762D01*
X52917Y37713D01*
X53012Y37687D01*
X53110D01*
X53205Y37713D01*
X53291Y37762D01*
X53360Y37831D01*
X53410Y37917D01*
X53435Y38012D01*
Y38110D01*
X53410Y38205D01*
X53360Y38291D01*
X53291Y38360D01*
X53205Y38410D01*
X53110Y38435D01*
D02*
G37*
G36*
X53133Y37267D02*
Y37073D01*
X53372D01*
X53351Y37123D01*
X53304Y37185D01*
X53242Y37232D01*
X53171Y37262D01*
X53133Y37267D01*
D02*
G37*
G36*
X52739D02*
X52701Y37262D01*
X52630Y37232D01*
X52568Y37185D01*
X52521Y37123D01*
X52500Y37073D01*
X52739D01*
Y37267D01*
D02*
G37*
G36*
X48154Y37933D02*
X48040D01*
X47930Y37904D01*
X47831Y37847D01*
X47751Y37766D01*
X47693Y37667D01*
X47664Y37557D01*
Y37443D01*
X47693Y37333D01*
X47751Y37234D01*
X47831Y37153D01*
X47930Y37096D01*
X48040Y37067D01*
X48154D01*
X48264Y37096D01*
X48363Y37153D01*
X48444Y37234D01*
X48501Y37333D01*
X48530Y37443D01*
Y37557D01*
X48501Y37667D01*
X48444Y37766D01*
X48363Y37847D01*
X48264Y37904D01*
X48154Y37933D01*
D02*
G37*
G36*
X37574Y37303D02*
X37294D01*
Y37023D01*
X37295Y37023D01*
X37411Y37090D01*
X37507Y37186D01*
X37574Y37302D01*
X37574Y37303D01*
D02*
G37*
G36*
X36900D02*
X36620D01*
X36620Y37302D01*
X36688Y37186D01*
X36783Y37090D01*
X36899Y37023D01*
X36900Y37023D01*
Y37303D01*
D02*
G37*
G36*
X51610Y37435D02*
X51512D01*
X51417Y37410D01*
X51331Y37360D01*
X51262Y37291D01*
X51233Y37242D01*
X50604D01*
X50535Y37228D01*
X50477Y37189D01*
X48652Y35364D01*
X48613Y35305D01*
X48599Y35236D01*
Y31677D01*
X48575Y31653D01*
X48541Y31595D01*
X48524Y31530D01*
Y31462D01*
X48541Y31397D01*
X48575Y31339D01*
X48622Y31291D01*
X48681Y31258D01*
X48746Y31240D01*
X48813D01*
X48878Y31258D01*
X48937Y31291D01*
X48984Y31339D01*
X49018Y31397D01*
X49035Y31462D01*
Y31530D01*
X49018Y31595D01*
X48984Y31653D01*
X48960Y31677D01*
Y35161D01*
X50679Y36880D01*
X51233D01*
X51262Y36831D01*
X51331Y36762D01*
X51417Y36713D01*
X51512Y36687D01*
X51610D01*
X51705Y36713D01*
X51791Y36762D01*
X51860Y36831D01*
X51910Y36917D01*
X51935Y37012D01*
Y37110D01*
X51910Y37205D01*
X51860Y37291D01*
X51791Y37360D01*
X51705Y37410D01*
X51610Y37435D01*
D02*
G37*
G36*
X53372Y36679D02*
X52500D01*
X52521Y36629D01*
X52532Y36614D01*
X52507Y36564D01*
X51778D01*
X51696Y36553D01*
X51619Y36521D01*
X51553Y36471D01*
X51518Y36435D01*
X51512D01*
X51417Y36410D01*
X51331Y36360D01*
X51262Y36291D01*
X51213Y36205D01*
X51187Y36110D01*
Y36012D01*
X51213Y35917D01*
X51262Y35831D01*
X51331Y35762D01*
X51417Y35712D01*
X51512Y35687D01*
X51610D01*
X51705Y35712D01*
X51791Y35762D01*
X51860Y35831D01*
X51910Y35917D01*
X51913Y35928D01*
X52771D01*
X52779Y35927D01*
X53094D01*
X53178Y35944D01*
X53250Y35992D01*
X53297Y36063D01*
X53314Y36148D01*
Y36344D01*
X53297Y36429D01*
X53265Y36477D01*
X53251Y36503D01*
X53274Y36544D01*
X53304Y36567D01*
X53351Y36629D01*
X53372Y36679D01*
D02*
G37*
G36*
X59110Y38435D02*
X59012D01*
X58917Y38410D01*
X58831Y38360D01*
X58762Y38291D01*
X58713Y38205D01*
X58687Y38110D01*
Y38012D01*
X58713Y37917D01*
X58762Y37831D01*
X58831Y37762D01*
X58917Y37713D01*
X59012Y37687D01*
X59110D01*
X59205Y37713D01*
X59259Y37743D01*
X60429D01*
X60706Y37467D01*
Y36312D01*
X60657Y36228D01*
X60628Y36118D01*
Y36004D01*
X60657Y35894D01*
X60714Y35795D01*
X60795Y35714D01*
X60894Y35657D01*
X61004Y35628D01*
X61118D01*
X61228Y35657D01*
X61327Y35714D01*
X61408Y35795D01*
X61465Y35894D01*
X61494Y36004D01*
Y36118D01*
X61465Y36228D01*
X61408Y36327D01*
X61341Y36393D01*
Y37598D01*
X61330Y37681D01*
X61299Y37757D01*
X61248Y37823D01*
X60786Y38286D01*
X60720Y38336D01*
X60643Y38368D01*
X60561Y38379D01*
X59259D01*
X59205Y38410D01*
X59110Y38435D01*
D02*
G37*
G36*
X25687Y38566D02*
X21435D01*
X21389Y38557D01*
X21350Y38531D01*
X21324Y38492D01*
X21315Y38446D01*
Y37694D01*
X21324Y37648D01*
X21350Y37609D01*
X21389Y37583D01*
X21435Y37573D01*
X21801D01*
Y35694D01*
X21810Y35648D01*
X21836Y35609D01*
X21875Y35583D01*
X21921Y35573D01*
X25201D01*
X25247Y35583D01*
X25286Y35609D01*
X25312Y35648D01*
X25321Y35694D01*
Y37573D01*
X25687D01*
X25733Y37583D01*
X25772Y37609D01*
X25798Y37648D01*
X25807Y37694D01*
Y38446D01*
X25798Y38492D01*
X25772Y38531D01*
X25733Y38557D01*
X25687Y38566D01*
D02*
G37*
G36*
X26383Y35720D02*
Y35508D01*
X26595D01*
X26548Y35589D01*
X26464Y35673D01*
X26383Y35720D01*
D02*
G37*
G36*
X20133D02*
Y35508D01*
X20345D01*
X20298Y35589D01*
X20214Y35673D01*
X20133Y35720D01*
D02*
G37*
G36*
X13758D02*
Y35508D01*
X13970D01*
X13923Y35589D01*
X13839Y35673D01*
X13758Y35720D01*
D02*
G37*
G36*
X25989D02*
X25908Y35673D01*
X25824Y35589D01*
X25777Y35508D01*
X25989D01*
Y35720D01*
D02*
G37*
G36*
X19739D02*
X19658Y35673D01*
X19574Y35589D01*
X19527Y35508D01*
X19739D01*
Y35720D01*
D02*
G37*
G36*
X13364D02*
X13283Y35673D01*
X13199Y35589D01*
X13152Y35508D01*
X13364D01*
Y35720D01*
D02*
G37*
G36*
X20345Y35114D02*
X19936D01*
X19527D01*
X19574Y35033D01*
X19633Y34974D01*
X19612Y34924D01*
X17717D01*
X17717Y34924D01*
X17670Y34914D01*
X17631Y34888D01*
X17447Y34704D01*
X17381Y34770D01*
X17285Y34834D01*
X17202Y34869D01*
Y34311D01*
Y33753D01*
X17285Y33788D01*
X17381Y33852D01*
X17464Y33935D01*
X17474Y33936D01*
X17679Y33766D01*
X17695Y33757D01*
X17710Y33747D01*
X17715Y33746D01*
X17720Y33743D01*
X17738Y33741D01*
X17756Y33738D01*
X18178D01*
X18620Y33297D01*
Y32008D01*
Y31428D01*
X18060Y30868D01*
X17244D01*
X17198Y30859D01*
X17159Y30833D01*
X17159Y30833D01*
X16623Y30298D01*
X16577Y30317D01*
Y33838D01*
X16623Y33857D01*
X16628Y33852D01*
X16725Y33788D01*
X16808Y33753D01*
Y34311D01*
Y34869D01*
X16725Y34834D01*
X16628Y34770D01*
X16546Y34687D01*
X16536Y34673D01*
X16487Y34668D01*
X16227Y34928D01*
X16188Y34954D01*
X16142Y34963D01*
X16142Y34963D01*
X13919D01*
X13899Y35009D01*
X13923Y35033D01*
X13970Y35114D01*
X13561D01*
X13152D01*
X13199Y35033D01*
X13269Y34963D01*
X13283Y34948D01*
X13271Y34898D01*
X12946Y34573D01*
X12946Y34573D01*
X12920Y34534D01*
X12911Y34488D01*
X12911Y34488D01*
Y32008D01*
X12911Y32008D01*
X12920Y31962D01*
X12946Y31923D01*
X12946Y31923D01*
X13222Y31647D01*
X13261Y31621D01*
X13307Y31612D01*
X13307Y31612D01*
X14399D01*
X15313Y30698D01*
Y29528D01*
X15313Y29528D01*
X15322Y29481D01*
X15348Y29442D01*
X15348Y29442D01*
X15624Y29167D01*
X15663Y29141D01*
X15709Y29132D01*
X15709Y29132D01*
X16181D01*
X16181Y29132D01*
X16227Y29141D01*
X16266Y29167D01*
X16266Y29167D01*
X16496Y29397D01*
X16726Y29167D01*
X16765Y29141D01*
X16811Y29132D01*
X16811Y29132D01*
X17165D01*
X17165Y29132D01*
X17211Y29141D01*
X17251Y29167D01*
X17487Y29403D01*
X17513Y29442D01*
X17514Y29450D01*
X17567Y29459D01*
X17589Y29420D01*
X17670Y29339D01*
X17769Y29282D01*
X17879Y29253D01*
X17993D01*
X18103Y29282D01*
X18202Y29339D01*
X18283Y29420D01*
X18340Y29519D01*
X18369Y29629D01*
Y29743D01*
X18340Y29853D01*
X18283Y29952D01*
X18202Y30033D01*
X18144Y30066D01*
X18158Y30116D01*
X18465D01*
X18465Y30116D01*
X18511Y30125D01*
X18550Y30151D01*
X18550Y30151D01*
X19573Y31175D01*
X19599Y31214D01*
X19609Y31260D01*
X19609Y31260D01*
Y31643D01*
X19853Y31887D01*
X22756D01*
X22802Y31897D01*
X22841Y31923D01*
X22841Y31923D01*
X23038Y32120D01*
X23064Y32159D01*
X23073Y32205D01*
X23073Y32205D01*
Y34488D01*
X23073Y34488D01*
X23064Y34534D01*
X23038Y34573D01*
X23038Y34573D01*
X22723Y34888D01*
X22684Y34914D01*
X22638Y34924D01*
X22638Y34924D01*
X20260D01*
X20239Y34974D01*
X20298Y35033D01*
X20345Y35114D01*
D02*
G37*
G36*
X28419Y34924D02*
X27835D01*
X27828Y34922D01*
X27821Y34923D01*
X27805Y34918D01*
X27789Y34914D01*
X27783Y34911D01*
X27777Y34909D01*
X27764Y34898D01*
X27749Y34888D01*
X27746Y34883D01*
X27741Y34878D01*
X27583Y34682D01*
X27575Y34666D01*
X27566Y34652D01*
X27565Y34646D01*
X27562Y34640D01*
X27560Y34623D01*
X27557Y34606D01*
Y30748D01*
X27566Y30702D01*
X27592Y30663D01*
X27749Y30505D01*
X27749Y30505D01*
X27789Y30479D01*
X27835Y30470D01*
X27835Y30470D01*
X28409D01*
X28427Y30474D01*
X28445Y30476D01*
X28450Y30478D01*
X28456Y30479D01*
X28471Y30489D01*
X28487Y30498D01*
X28660Y30642D01*
X28663Y30647D01*
X28668Y30650D01*
X28678Y30665D01*
X28689Y30679D01*
X28691Y30684D01*
X28694Y30689D01*
X28697Y30707D01*
X28703Y30724D01*
X28702Y30729D01*
X28703Y30735D01*
Y33837D01*
X28749Y33856D01*
X28753Y33852D01*
X28850Y33788D01*
X28933Y33753D01*
Y34311D01*
Y34869D01*
X28850Y34834D01*
X28753Y34770D01*
X28695Y34711D01*
X28632Y34713D01*
X28517Y34874D01*
X28509Y34880D01*
X28504Y34888D01*
X28492Y34896D01*
X28482Y34906D01*
X28473Y34909D01*
X28465Y34914D01*
X28451Y34917D01*
X28438Y34922D01*
X28428Y34922D01*
X28419Y34924D01*
D02*
G37*
G36*
X26595Y35114D02*
X26383D01*
Y34902D01*
X26464Y34949D01*
X26548Y35033D01*
X26595Y35114D01*
D02*
G37*
G36*
X25989D02*
X25777D01*
X25824Y35033D01*
X25908Y34949D01*
X25989Y34902D01*
Y35114D01*
D02*
G37*
G36*
X26575Y34805D02*
X26575Y34805D01*
X24449D01*
X24449Y34805D01*
X24403Y34796D01*
X24364Y34770D01*
X24127Y34534D01*
X24101Y34495D01*
X24092Y34449D01*
X24092Y34449D01*
Y32362D01*
X24101Y32316D01*
X24127Y32277D01*
X24127Y32277D01*
X25466Y30938D01*
X25505Y30912D01*
X25551Y30903D01*
X25551Y30903D01*
X25713D01*
X25745Y30865D01*
X25742Y30851D01*
Y30742D01*
X26186D01*
X26630D01*
Y30851D01*
X26626Y30870D01*
X26654Y30903D01*
X26700Y30912D01*
X26739Y30938D01*
X26739Y30938D01*
X26896Y31096D01*
X26922Y31135D01*
X26931Y31181D01*
X26931Y31181D01*
Y34449D01*
X26922Y34495D01*
X26896Y34534D01*
X26660Y34770D01*
X26660Y34770D01*
X26621Y34796D01*
X26575Y34805D01*
D02*
G37*
G36*
X29882Y34924D02*
X29836Y34914D01*
X29797Y34888D01*
X29626Y34718D01*
X29596Y34694D01*
X29558Y34718D01*
X29506Y34770D01*
X29410Y34834D01*
X29327Y34869D01*
Y34311D01*
Y33753D01*
X29410Y33788D01*
X29506Y33852D01*
X29518Y33864D01*
X29565Y33845D01*
Y31364D01*
X29566Y31358D01*
X29565Y31352D01*
X29570Y31335D01*
X29574Y31318D01*
X29577Y31313D01*
X29579Y31307D01*
X29590Y31294D01*
X29600Y31279D01*
X29605Y31275D01*
X29609Y31271D01*
X29750Y31155D01*
X29752Y31105D01*
X29699Y31052D01*
X29652Y30970D01*
X30061D01*
X30470D01*
X30423Y31052D01*
X30423Y31052D01*
X30436Y31097D01*
X30442Y31104D01*
X30457Y31106D01*
X30461Y31108D01*
X30466Y31109D01*
X30482Y31120D01*
X30498Y31129D01*
X30649Y31258D01*
X30652Y31262D01*
X30656Y31265D01*
X30667Y31281D01*
X30678Y31295D01*
X30680Y31300D01*
X30682Y31304D01*
X30686Y31322D01*
X30691Y31341D01*
X30691Y31345D01*
X30691Y31350D01*
Y34624D01*
X30687Y34646D01*
X30683Y34668D01*
X30682Y34669D01*
X30682Y34670D01*
X30670Y34688D01*
X30658Y34707D01*
X30484Y34887D01*
X30483Y34887D01*
X30483Y34888D01*
X30464Y34901D01*
X30446Y34914D01*
X30445Y34914D01*
X30444Y34914D01*
X30422Y34919D01*
X30400Y34924D01*
X30399Y34923D01*
X30398Y34924D01*
X29882D01*
X29882Y34924D01*
D02*
G37*
G36*
X47154Y37933D02*
X47040D01*
X46930Y37904D01*
X46831Y37847D01*
X46751Y37766D01*
X46693Y37667D01*
X46664Y37557D01*
Y37443D01*
X46693Y37333D01*
X46751Y37234D01*
X46831Y37153D01*
X46916Y37104D01*
Y35158D01*
X46447Y34689D01*
X46408Y34630D01*
X46394Y34561D01*
Y34432D01*
X46344Y34407D01*
X46264Y34454D01*
X46154Y34483D01*
X46040D01*
X46023Y34479D01*
X45997Y34523D01*
X46225Y34751D01*
X46264Y34809D01*
X46278Y34879D01*
Y37104D01*
X46363Y37153D01*
X46444Y37234D01*
X46501Y37333D01*
X46530Y37443D01*
Y37557D01*
X46501Y37667D01*
X46444Y37766D01*
X46363Y37847D01*
X46264Y37904D01*
X46154Y37933D01*
X46040D01*
X45930Y37904D01*
X45831Y37847D01*
X45751Y37766D01*
X45693Y37667D01*
X45664Y37557D01*
Y37443D01*
X45693Y37333D01*
X45751Y37234D01*
X45831Y37153D01*
X45916Y37104D01*
Y34953D01*
X45463Y34500D01*
X45424Y34441D01*
X45418Y34412D01*
X45364Y34396D01*
X45363Y34397D01*
X45278Y34446D01*
Y37104D01*
X45363Y37153D01*
X45444Y37234D01*
X45501Y37333D01*
X45530Y37443D01*
Y37557D01*
X45501Y37667D01*
X45444Y37766D01*
X45363Y37847D01*
X45264Y37904D01*
X45154Y37933D01*
X45040D01*
X44930Y37904D01*
X44831Y37847D01*
X44751Y37766D01*
X44693Y37667D01*
X44664Y37557D01*
Y37443D01*
X44693Y37333D01*
X44751Y37234D01*
X44831Y37153D01*
X44916Y37104D01*
Y34446D01*
X44831Y34397D01*
X44751Y34316D01*
X44693Y34217D01*
X44664Y34107D01*
Y33993D01*
X44693Y33883D01*
X44751Y33784D01*
X44831Y33703D01*
X44916Y33654D01*
Y32097D01*
X44870Y32078D01*
X43921Y33028D01*
Y33603D01*
X43963Y33638D01*
X44040Y33617D01*
X44154D01*
X44264Y33646D01*
X44363Y33703D01*
X44444Y33784D01*
X44501Y33883D01*
X44530Y33993D01*
Y34107D01*
X44501Y34217D01*
X44444Y34316D01*
X44363Y34397D01*
X44278Y34446D01*
Y37104D01*
X44363Y37153D01*
X44444Y37234D01*
X44501Y37333D01*
X44530Y37443D01*
Y37557D01*
X44501Y37667D01*
X44444Y37766D01*
X44363Y37847D01*
X44264Y37904D01*
X44154Y37933D01*
X44040D01*
X43930Y37904D01*
X43831Y37847D01*
X43751Y37766D01*
X43693Y37667D01*
X43664Y37557D01*
Y37443D01*
X43693Y37333D01*
X43751Y37234D01*
X43831Y37153D01*
X43916Y37104D01*
Y34446D01*
X43831Y34397D01*
X43751Y34316D01*
X43693Y34217D01*
X43664Y34107D01*
Y33993D01*
X43689Y33898D01*
X43612Y33821D01*
X43584Y33818D01*
X43505Y33898D01*
X43530Y33993D01*
Y34107D01*
X43501Y34217D01*
X43444Y34316D01*
X43363Y34397D01*
X43278Y34446D01*
Y37104D01*
X43363Y37153D01*
X43444Y37234D01*
X43501Y37333D01*
X43530Y37443D01*
Y37557D01*
X43501Y37667D01*
X43444Y37766D01*
X43363Y37847D01*
X43264Y37904D01*
X43154Y37933D01*
X43040D01*
X42930Y37904D01*
X42831Y37847D01*
X42751Y37766D01*
X42693Y37667D01*
X42664Y37557D01*
Y37443D01*
X42693Y37333D01*
X42751Y37234D01*
X42831Y37153D01*
X42916Y37104D01*
Y34446D01*
X42831Y34397D01*
X42751Y34316D01*
X42693Y34217D01*
X42664Y34107D01*
Y33993D01*
X42693Y33883D01*
X42751Y33784D01*
X42831Y33703D01*
X42930Y33646D01*
X43040Y33617D01*
X43154D01*
X43249Y33642D01*
X43363Y33529D01*
Y33105D01*
X43316Y33086D01*
X42505Y33898D01*
X42530Y33993D01*
Y34107D01*
X42501Y34217D01*
X42444Y34316D01*
X42363Y34397D01*
X42278Y34446D01*
Y37104D01*
X42363Y37153D01*
X42444Y37234D01*
X42501Y37333D01*
X42530Y37443D01*
Y37557D01*
X42501Y37667D01*
X42444Y37766D01*
X42363Y37847D01*
X42264Y37904D01*
X42154Y37933D01*
X42040D01*
X41930Y37904D01*
X41831Y37847D01*
X41751Y37766D01*
X41693Y37667D01*
X41664Y37557D01*
Y37443D01*
X41693Y37333D01*
X41751Y37234D01*
X41831Y37153D01*
X41916Y37104D01*
Y34446D01*
X41831Y34397D01*
X41751Y34316D01*
X41693Y34217D01*
X41664Y34107D01*
Y33993D01*
X41693Y33883D01*
X41751Y33784D01*
X41831Y33703D01*
X41930Y33646D01*
X42040Y33617D01*
X42154D01*
X42249Y33642D01*
X43303Y32589D01*
X43282Y32539D01*
X43234D01*
X43169Y32522D01*
X43111Y32488D01*
X43063Y32441D01*
X43029Y32382D01*
X43012Y32317D01*
Y32250D01*
X43029Y32185D01*
X43063Y32126D01*
X43087Y32102D01*
Y25030D01*
X42503D01*
Y28543D01*
X42490Y28612D01*
X42451Y28671D01*
X40377Y30744D01*
Y33075D01*
X40945Y33642D01*
X41040Y33617D01*
X41154D01*
X41264Y33646D01*
X41363Y33703D01*
X41444Y33784D01*
X41501Y33883D01*
X41530Y33993D01*
Y34107D01*
X41501Y34217D01*
X41444Y34316D01*
X41363Y34397D01*
X41278Y34446D01*
Y37104D01*
X41363Y37153D01*
X41444Y37234D01*
X41501Y37333D01*
X41530Y37443D01*
Y37557D01*
X41501Y37667D01*
X41444Y37766D01*
X41363Y37847D01*
X41264Y37904D01*
X41154Y37933D01*
X41040D01*
X40930Y37904D01*
X40831Y37847D01*
X40751Y37766D01*
X40693Y37667D01*
X40664Y37557D01*
Y37443D01*
X40693Y37333D01*
X40751Y37234D01*
X40831Y37153D01*
X40916Y37104D01*
Y34446D01*
X40831Y34397D01*
X40751Y34316D01*
X40693Y34217D01*
X40664Y34107D01*
Y33993D01*
X40689Y33898D01*
X40227Y33435D01*
X40181Y33454D01*
Y33624D01*
X40264Y33646D01*
X40363Y33703D01*
X40444Y33784D01*
X40501Y33883D01*
X40530Y33993D01*
Y34107D01*
X40501Y34217D01*
X40444Y34316D01*
X40363Y34397D01*
X40278Y34446D01*
Y37104D01*
X40363Y37153D01*
X40444Y37234D01*
X40501Y37333D01*
X40530Y37443D01*
Y37557D01*
X40501Y37667D01*
X40444Y37766D01*
X40363Y37847D01*
X40264Y37904D01*
X40154Y37933D01*
X40040D01*
X39930Y37904D01*
X39831Y37847D01*
X39751Y37766D01*
X39693Y37667D01*
X39664Y37557D01*
Y37443D01*
X39693Y37333D01*
X39751Y37234D01*
X39831Y37153D01*
X39916Y37104D01*
Y34446D01*
X39831Y34397D01*
X39751Y34316D01*
X39693Y34217D01*
X39664Y34107D01*
Y33993D01*
X39693Y33883D01*
X39751Y33784D01*
X39819Y33715D01*
Y33648D01*
X39773Y33629D01*
X39505Y33898D01*
X39530Y33993D01*
Y34107D01*
X39501Y34217D01*
X39444Y34316D01*
X39363Y34397D01*
X39278Y34446D01*
Y37104D01*
X39363Y37153D01*
X39444Y37234D01*
X39501Y37333D01*
X39530Y37443D01*
Y37557D01*
X39501Y37667D01*
X39444Y37766D01*
X39363Y37847D01*
X39264Y37904D01*
X39154Y37933D01*
X39040D01*
X38930Y37904D01*
X38831Y37847D01*
X38751Y37766D01*
X38693Y37667D01*
X38664Y37557D01*
Y37443D01*
X38693Y37333D01*
X38751Y37234D01*
X38831Y37153D01*
X38916Y37104D01*
Y34446D01*
X38831Y34397D01*
X38751Y34316D01*
X38693Y34217D01*
X38664Y34107D01*
Y33993D01*
X38693Y33883D01*
X38751Y33784D01*
X38831Y33703D01*
X38930Y33646D01*
X39040Y33617D01*
X39154D01*
X39249Y33642D01*
X39623Y33269D01*
Y32845D01*
X39576Y32826D01*
X38505Y33898D01*
X38530Y33993D01*
Y34107D01*
X38501Y34217D01*
X38444Y34316D01*
X38363Y34397D01*
X38278Y34446D01*
Y37104D01*
X38363Y37153D01*
X38444Y37234D01*
X38501Y37333D01*
X38530Y37443D01*
Y37557D01*
X38501Y37667D01*
X38444Y37766D01*
X38363Y37847D01*
X38264Y37904D01*
X38154Y37933D01*
X38040D01*
X37930Y37904D01*
X37831Y37847D01*
X37751Y37766D01*
X37693Y37667D01*
X37664Y37557D01*
Y37443D01*
X37693Y37333D01*
X37751Y37234D01*
X37831Y37153D01*
X37916Y37104D01*
Y34446D01*
X37831Y34397D01*
X37751Y34316D01*
X37693Y34217D01*
X37664Y34107D01*
Y33993D01*
X37693Y33883D01*
X37751Y33784D01*
X37831Y33703D01*
X37930Y33646D01*
X38040Y33617D01*
X38154D01*
X38249Y33642D01*
X39426Y32466D01*
Y30433D01*
X39439Y30364D01*
X39479Y30305D01*
X41611Y28173D01*
Y27017D01*
X41565Y26998D01*
X41499Y27064D01*
X41440Y27103D01*
X41371Y27117D01*
X41207D01*
X41158Y27202D01*
X41077Y27283D01*
X40978Y27340D01*
X40868Y27369D01*
X40754D01*
X40644Y27340D01*
X40545Y27283D01*
X40464Y27202D01*
X40415Y27117D01*
X39574D01*
X39505Y27103D01*
X39446Y27064D01*
X37308Y24926D01*
X37269Y24867D01*
X37255Y24798D01*
Y23139D01*
X37206Y23110D01*
X37137Y23041D01*
X37088Y22955D01*
X37062Y22860D01*
Y22762D01*
X37088Y22667D01*
X37137Y22581D01*
X37206Y22512D01*
X37292Y22462D01*
X37387Y22437D01*
X37485D01*
X37580Y22462D01*
X37666Y22512D01*
X37735Y22581D01*
X37785Y22667D01*
X37810Y22762D01*
Y22860D01*
X37785Y22955D01*
X37735Y23041D01*
X37666Y23110D01*
X37617Y23139D01*
Y24723D01*
X39649Y26755D01*
X40415D01*
X40464Y26670D01*
X40545Y26589D01*
X40644Y26532D01*
X40754Y26503D01*
X40868D01*
X40978Y26532D01*
X41077Y26589D01*
X41158Y26670D01*
X41207Y26755D01*
X41296D01*
X41434Y26618D01*
Y25974D01*
X41387Y25955D01*
X41376Y25966D01*
X41318Y26005D01*
X41249Y26019D01*
X41237D01*
X41215Y26103D01*
X41158Y26202D01*
X41077Y26283D01*
X40978Y26340D01*
X40868Y26369D01*
X40754D01*
X40644Y26340D01*
X40545Y26283D01*
X40464Y26202D01*
X40407Y26103D01*
X40378Y25993D01*
Y25879D01*
X40407Y25769D01*
X40464Y25670D01*
X40545Y25589D01*
X40644Y25532D01*
X40754Y25503D01*
X40868D01*
X40978Y25532D01*
X41077Y25589D01*
X41145Y25657D01*
X41174D01*
X41256Y25575D01*
Y25131D01*
X41206Y25117D01*
X41158Y25202D01*
X41077Y25283D01*
X40978Y25340D01*
X40868Y25369D01*
X40754D01*
X40644Y25340D01*
X40545Y25283D01*
X40464Y25202D01*
X40407Y25103D01*
X40378Y24993D01*
Y24879D01*
X40407Y24769D01*
X40464Y24670D01*
X40545Y24589D01*
X40644Y24532D01*
X40754Y24503D01*
X40868D01*
X40978Y24532D01*
X41077Y24589D01*
X41158Y24670D01*
X41206Y24755D01*
X41256Y24741D01*
Y23122D01*
X41260Y23102D01*
X41229Y23063D01*
X41125D01*
X41096Y23112D01*
X41027Y23182D01*
X40941Y23231D01*
X40846Y23257D01*
X40748D01*
X40653Y23231D01*
X40567Y23182D01*
X40498Y23112D01*
X40449Y23027D01*
X40423Y22932D01*
Y22833D01*
X40449Y22738D01*
X40498Y22653D01*
X40567Y22583D01*
X40653Y22534D01*
X40748Y22509D01*
X40846D01*
X40941Y22534D01*
X41027Y22583D01*
X41096Y22653D01*
X41125Y22702D01*
X41294D01*
X42084Y21912D01*
X42084Y21906D01*
X41303Y21126D01*
X41134D01*
X41096Y21191D01*
X41027Y21261D01*
X40941Y21310D01*
X40846Y21335D01*
X40748D01*
X40653Y21310D01*
X40567Y21261D01*
X40498Y21191D01*
X40449Y21106D01*
X40423Y21011D01*
Y20912D01*
X40449Y20817D01*
X40498Y20732D01*
X40567Y20662D01*
X40653Y20613D01*
X40748Y20587D01*
X40846D01*
X40941Y20613D01*
X41027Y20662D01*
X41096Y20732D01*
X41115Y20764D01*
X41378D01*
X41447Y20778D01*
X41506Y20817D01*
X41702Y21013D01*
X41752Y20993D01*
Y20940D01*
X41775Y20855D01*
X41819Y20779D01*
X41881Y20716D01*
X41890Y20711D01*
Y20984D01*
X42087D01*
Y21181D01*
X42359D01*
X42354Y21190D01*
X42320Y21224D01*
X42320Y21291D01*
X42351Y21322D01*
X42395Y21340D01*
X42449Y21299D01*
X42511Y21273D01*
X42578Y21265D01*
X42637D01*
Y21523D01*
X43031D01*
Y21265D01*
X43090D01*
X43156Y21273D01*
X43180Y21283D01*
X43209Y21241D01*
X41998Y20030D01*
X41959Y19972D01*
X41945Y19903D01*
Y19110D01*
X41943Y19110D01*
X41871Y19062D01*
X41841Y19016D01*
X41782D01*
X41751Y19062D01*
X41713Y19087D01*
Y19228D01*
X41727Y19252D01*
X41744Y19317D01*
Y19384D01*
X41727Y19449D01*
X41693Y19508D01*
X41645Y19555D01*
X41587Y19589D01*
X41522Y19606D01*
X41455D01*
X41389Y19589D01*
X41331Y19555D01*
X41283Y19508D01*
X41250Y19449D01*
X41232Y19384D01*
Y19317D01*
X41250Y19252D01*
X41271Y19214D01*
Y19082D01*
X41242Y19062D01*
X41194Y18990D01*
X41177Y18906D01*
Y18591D01*
X41194Y18507D01*
X41242Y18435D01*
X41313Y18387D01*
X41398Y18370D01*
X41594D01*
X41679Y18387D01*
X41751Y18435D01*
X41782Y18481D01*
X41841D01*
X41871Y18435D01*
X41943Y18387D01*
X42028Y18370D01*
X42224D01*
X42309Y18387D01*
X42381Y18435D01*
X42428Y18507D01*
X42441Y18568D01*
X42536D01*
X42551Y18518D01*
X42512Y18492D01*
X42372Y18352D01*
X42333Y18294D01*
X42319Y18224D01*
Y17346D01*
X42333Y17277D01*
X42372Y17219D01*
X43046Y16545D01*
X43104Y16506D01*
X43173Y16493D01*
X43444D01*
X43447Y16489D01*
Y16357D01*
X43371Y16282D01*
X42308D01*
X42303Y16303D01*
X42256Y16375D01*
X42184Y16422D01*
X42099Y16439D01*
X41903D01*
X41818Y16422D01*
X41770Y16390D01*
X41744Y16376D01*
X41703Y16399D01*
X41680Y16429D01*
X41618Y16476D01*
X41568Y16497D01*
Y16061D01*
Y15625D01*
X41618Y15646D01*
X41680Y15693D01*
X41703Y15723D01*
X41744Y15746D01*
X41770Y15732D01*
X41810Y15705D01*
Y14416D01*
X41795Y14408D01*
X41714Y14327D01*
X41657Y14228D01*
X41628Y14118D01*
Y14004D01*
X41657Y13894D01*
X41714Y13795D01*
X41795Y13714D01*
X41894Y13657D01*
X42004Y13628D01*
X42118D01*
X42228Y13657D01*
X42327Y13714D01*
X42408Y13795D01*
X42465Y13894D01*
X42494Y14004D01*
Y14118D01*
X42465Y14228D01*
X42408Y14327D01*
X42327Y14408D01*
X42252Y14451D01*
Y15745D01*
X42256Y15747D01*
X42303Y15819D01*
X42308Y15840D01*
X43463D01*
X43547Y15857D01*
X43619Y15905D01*
X43823Y16110D01*
X43871Y16181D01*
X43888Y16266D01*
Y16489D01*
X43916Y16530D01*
X43926Y16581D01*
Y16793D01*
X43916Y16844D01*
X43887Y16887D01*
X43844Y16916D01*
X43838Y16917D01*
Y16968D01*
X43874Y16975D01*
X43943Y17021D01*
X43990Y17091D01*
X44003Y17159D01*
X43667D01*
X43331D01*
X43345Y17091D01*
X43391Y17021D01*
X43461Y16975D01*
X43496Y16968D01*
Y16917D01*
X43491Y16916D01*
X43448Y16887D01*
X43426Y16854D01*
X43248D01*
X42681Y17421D01*
Y17899D01*
X42731Y17923D01*
X42811Y17907D01*
X42949D01*
Y18167D01*
X43343D01*
Y17907D01*
X43480D01*
X43487Y17908D01*
X43517Y17863D01*
X43500Y17839D01*
X43487Y17770D01*
Y17743D01*
X43461Y17738D01*
X43391Y17691D01*
X43345Y17622D01*
X43331Y17553D01*
X43667D01*
X44003D01*
X43990Y17622D01*
X43943Y17691D01*
X43917Y17709D01*
X43912Y17759D01*
X44003Y17850D01*
X44031Y17843D01*
X44119D01*
X44204Y17865D01*
X44280Y17909D01*
X44343Y17972D01*
X44387Y18048D01*
X44409Y18133D01*
Y18184D01*
X44470D01*
X44479Y18171D01*
X44491Y18163D01*
Y18138D01*
X44503Y18080D01*
X44535Y18031D01*
X44584Y17999D01*
X44642Y17987D01*
X44973D01*
X44976Y17987D01*
X45441D01*
Y17508D01*
X44801Y16868D01*
X44687D01*
X44674Y16887D01*
X44631Y16916D01*
X44581Y16926D01*
X44329D01*
X44278Y16916D01*
X44235Y16887D01*
X44206Y16844D01*
X44196Y16793D01*
Y16581D01*
X44206Y16530D01*
X44234Y16489D01*
Y16246D01*
X44251Y16162D01*
X44299Y16090D01*
X44484Y15905D01*
X44555Y15857D01*
X44640Y15840D01*
X46064D01*
X46069Y15819D01*
X46117Y15747D01*
X46120Y15745D01*
Y14451D01*
X46045Y14408D01*
X45964Y14327D01*
X45907Y14228D01*
X45878Y14118D01*
Y14004D01*
X45907Y13894D01*
X45964Y13795D01*
X46045Y13714D01*
X46144Y13657D01*
X46254Y13628D01*
X46368D01*
X46478Y13657D01*
X46577Y13714D01*
X46658Y13795D01*
X46715Y13894D01*
X46744Y14004D01*
Y14118D01*
X46715Y14228D01*
X46658Y14327D01*
X46577Y14408D01*
X46562Y14416D01*
Y15705D01*
X46602Y15732D01*
X46628Y15746D01*
X46669Y15723D01*
X46692Y15693D01*
X46754Y15646D01*
X46804Y15625D01*
Y16061D01*
Y16497D01*
X46754Y16476D01*
X46692Y16429D01*
X46669Y16399D01*
X46628Y16376D01*
X46602Y16390D01*
X46554Y16422D01*
X46469Y16439D01*
X46273D01*
X46188Y16422D01*
X46117Y16375D01*
X46069Y16303D01*
X46064Y16282D01*
X44731D01*
X44675Y16338D01*
Y16489D01*
X44687Y16506D01*
X44876D01*
X44945Y16520D01*
X45004Y16559D01*
X45750Y17305D01*
X45789Y17364D01*
X45803Y17433D01*
Y18067D01*
X45794Y18111D01*
X45840Y18134D01*
X45903Y18064D01*
Y17402D01*
X45904Y17398D01*
X45903Y17394D01*
X45908Y17375D01*
X45912Y17355D01*
X45914Y17353D01*
X45915Y17349D01*
X45927Y17333D01*
X45938Y17316D01*
X45941Y17314D01*
X45944Y17312D01*
X46298Y16997D01*
X46315Y16986D01*
X46332Y16975D01*
X46335Y16975D01*
X46338Y16973D01*
X46358Y16970D01*
X46378Y16966D01*
X46929D01*
X46975Y16975D01*
X47014Y17001D01*
X47014Y17001D01*
X47172Y17159D01*
X47172Y17159D01*
X47198Y17198D01*
X47207Y17244D01*
X47214Y17254D01*
X47232Y17257D01*
X47271Y17249D01*
X47324Y17158D01*
X47408Y17074D01*
X47489Y17027D01*
Y17436D01*
Y17845D01*
X47408Y17798D01*
X47324Y17714D01*
X47264Y17611D01*
X47257Y17584D01*
X47207Y17591D01*
Y18138D01*
X47257Y18165D01*
X47300Y18136D01*
X47396Y18117D01*
X47505D01*
Y18561D01*
Y19005D01*
X47396D01*
X47300Y18986D01*
X47247Y18951D01*
X47239Y18949D01*
X47185Y18963D01*
X47184Y18964D01*
X47172Y18983D01*
X47172Y18983D01*
X47034Y19121D01*
X46995Y19147D01*
X46949Y19156D01*
X46949Y19156D01*
X45894D01*
X45877Y19153D01*
X45861Y19151D01*
X45855Y19148D01*
X45848Y19147D01*
X45834Y19137D01*
X45819Y19130D01*
X45595Y18953D01*
X45590Y18947D01*
X45584Y18943D01*
X45575Y18930D01*
X45564Y18917D01*
X45562Y18910D01*
X45558Y18904D01*
X45555Y18888D01*
X45550Y18872D01*
X45550Y18865D01*
X45549Y18858D01*
Y18742D01*
X45462D01*
Y18787D01*
X45450Y18845D01*
X45443Y18856D01*
X45450Y18868D01*
X45462Y18925D01*
Y18984D01*
X45450Y19042D01*
X45417Y19091D01*
X45369Y19123D01*
X45311Y19135D01*
X44979D01*
X44976Y19135D01*
X44585D01*
X44552Y19168D01*
Y19449D01*
X44554Y19450D01*
X44626Y19497D01*
X44657Y19544D01*
X44716D01*
X44746Y19497D01*
X44818Y19450D01*
X44903Y19433D01*
X45099D01*
X45184Y19450D01*
X45256Y19497D01*
X45303Y19569D01*
X45320Y19654D01*
Y19969D01*
X45303Y20053D01*
X45256Y20125D01*
X45214Y20152D01*
Y20292D01*
X45224Y20309D01*
X45241Y20375D01*
Y20442D01*
X45224Y20507D01*
X45190Y20565D01*
X45143Y20613D01*
X45084Y20647D01*
X45019Y20664D01*
X44952D01*
X44887Y20647D01*
X44828Y20613D01*
X44781Y20565D01*
X44747Y20507D01*
X44730Y20442D01*
Y20375D01*
X44747Y20309D01*
X44772Y20265D01*
Y20142D01*
X44746Y20125D01*
X44716Y20078D01*
X44657D01*
X44626Y20125D01*
X44554Y20172D01*
X44469Y20189D01*
X44273D01*
X44252Y20185D01*
X44157Y20281D01*
Y21743D01*
X44203Y21762D01*
X44314Y21651D01*
X44373Y21612D01*
X44442Y21598D01*
X44566D01*
X44607Y21548D01*
X44602Y21523D01*
X44616Y21454D01*
X44655Y21395D01*
X44713Y21356D01*
X44782Y21342D01*
X45574D01*
X45588Y21292D01*
X45637Y21206D01*
X45706Y21137D01*
X45792Y21088D01*
X45887Y21062D01*
X45985D01*
X46080Y21088D01*
X46166Y21137D01*
X46235Y21206D01*
X46285Y21292D01*
X46310Y21387D01*
Y21485D01*
X46285Y21580D01*
X46235Y21666D01*
X46166Y21735D01*
X46080Y21785D01*
X46009Y21804D01*
X46015Y21854D01*
X46732D01*
X46770Y21807D01*
X46753Y21743D01*
Y21629D01*
X46782Y21519D01*
X46839Y21420D01*
X46920Y21339D01*
X47019Y21282D01*
X47129Y21253D01*
X47243D01*
X47353Y21282D01*
X47452Y21339D01*
X47533Y21420D01*
X47590Y21519D01*
X47619Y21629D01*
Y21743D01*
X47590Y21853D01*
X47533Y21952D01*
X47452Y22033D01*
X47353Y22090D01*
X47243Y22119D01*
X47129D01*
X47034Y22094D01*
X46977Y22151D01*
X46967Y22211D01*
X47034Y22278D01*
X47129Y22253D01*
X47243D01*
X47353Y22282D01*
X47452Y22339D01*
X47533Y22420D01*
X47590Y22519D01*
X47619Y22629D01*
Y22743D01*
X47590Y22853D01*
X47533Y22952D01*
X47452Y23033D01*
X47353Y23090D01*
X47243Y23119D01*
X47129D01*
X47019Y23090D01*
X46920Y23033D01*
X46839Y22952D01*
X46782Y22853D01*
X46753Y22743D01*
Y22629D01*
X46778Y22534D01*
X46716Y22471D01*
X46020D01*
X46001Y22517D01*
X48382Y24898D01*
X49571D01*
X50380Y24089D01*
Y19316D01*
X50319Y19303D01*
X50247Y19256D01*
X50200Y19184D01*
X50199Y19182D01*
X49749D01*
X49680Y19168D01*
X49621Y19129D01*
X49242Y18750D01*
X49203Y18691D01*
X49189Y18622D01*
Y15472D01*
X49203Y15403D01*
X49242Y15345D01*
X50404Y14183D01*
X50462Y14144D01*
X50532Y14130D01*
X51681D01*
X51694Y14069D01*
X51742Y13997D01*
X51813Y13950D01*
X51898Y13933D01*
X52094D01*
X52179Y13950D01*
X52251Y13997D01*
X52282Y14044D01*
X52341D01*
X52371Y13997D01*
X52443Y13950D01*
X52528Y13933D01*
X52724D01*
X52809Y13950D01*
X52881Y13997D01*
X52928Y14069D01*
X52933Y14090D01*
X52946D01*
X53030Y14107D01*
X53102Y14155D01*
X53217Y14270D01*
X53265Y14342D01*
X53282Y14426D01*
Y14938D01*
X53327Y14964D01*
X53408Y15045D01*
X53465Y15144D01*
X53494Y15254D01*
Y15368D01*
X53465Y15478D01*
X53408Y15577D01*
X53327Y15658D01*
X53228Y15715D01*
X53118Y15744D01*
X53004D01*
X52894Y15715D01*
X52795Y15658D01*
X52714Y15577D01*
X52657Y15478D01*
X52628Y15368D01*
Y15254D01*
X52657Y15144D01*
X52714Y15045D01*
X52795Y14964D01*
X52840Y14938D01*
Y14707D01*
X52790Y14676D01*
X52724Y14689D01*
X52528D01*
X52443Y14672D01*
X52371Y14625D01*
X52341Y14578D01*
X52282D01*
X52251Y14625D01*
X52179Y14672D01*
X52094Y14689D01*
X51898D01*
X51813Y14672D01*
X51742Y14625D01*
X51694Y14553D01*
X51681Y14492D01*
X50606D01*
X49551Y15547D01*
Y18162D01*
X49601Y18182D01*
X49602Y18181D01*
X49660Y18147D01*
X49725Y18130D01*
X49793D01*
X49858Y18147D01*
X49916Y18181D01*
X49933Y18198D01*
X50198D01*
X50200Y18188D01*
X50247Y18117D01*
X50319Y18069D01*
X50404Y18052D01*
X50718D01*
X50803Y18069D01*
X50875Y18117D01*
X50922Y18188D01*
X50939Y18273D01*
Y18469D01*
X50922Y18554D01*
X50875Y18626D01*
X50828Y18657D01*
Y18716D01*
X50875Y18746D01*
X50922Y18818D01*
X50923Y18820D01*
X51199D01*
X51200Y18818D01*
X51247Y18746D01*
X51294Y18716D01*
Y18657D01*
X51247Y18626D01*
X51200Y18554D01*
X51183Y18469D01*
Y18273D01*
X51200Y18188D01*
X51243Y18123D01*
Y17606D01*
X51214Y17577D01*
X51157Y17478D01*
X51128Y17368D01*
Y17254D01*
X51157Y17144D01*
X51214Y17045D01*
X51295Y16964D01*
X51394Y16907D01*
X51504Y16878D01*
X51618D01*
X51728Y16907D01*
X51827Y16964D01*
X51908Y17045D01*
X51950Y17119D01*
X51998Y17102D01*
X51989Y17035D01*
Y16677D01*
X51939Y16656D01*
X51875Y16721D01*
X51759Y16788D01*
X51758Y16788D01*
Y16311D01*
Y15834D01*
X51759Y15834D01*
X51875Y15901D01*
X51939Y15966D01*
X51989Y15945D01*
Y15718D01*
X51945Y15674D01*
X51799D01*
X51728Y15715D01*
X51618Y15744D01*
X51504D01*
X51394Y15715D01*
X51295Y15658D01*
X51214Y15577D01*
X51157Y15478D01*
X51128Y15368D01*
Y15254D01*
X51157Y15144D01*
X51214Y15045D01*
X51295Y14964D01*
X51394Y14907D01*
X51504Y14878D01*
X51618D01*
X51728Y14907D01*
X51827Y14964D01*
X51901Y15039D01*
X52076D01*
X52159Y15049D01*
X52235Y15081D01*
X52301Y15132D01*
X52532Y15362D01*
X52582Y15428D01*
X52614Y15505D01*
X52625Y15587D01*
Y15953D01*
X52675Y15973D01*
X52747Y15901D01*
X52863Y15834D01*
X52864Y15834D01*
Y16311D01*
Y16788D01*
X52863Y16788D01*
X52747Y16721D01*
X52675Y16649D01*
X52625Y16669D01*
Y16904D01*
X52669Y16948D01*
X52823D01*
X52894Y16907D01*
X53004Y16878D01*
X53118D01*
X53228Y16907D01*
X53327Y16964D01*
X53408Y17045D01*
X53465Y17144D01*
X53494Y17254D01*
Y17368D01*
X53465Y17478D01*
X53408Y17577D01*
X53379Y17606D01*
Y18053D01*
X53709D01*
X53715Y18045D01*
X53795Y17991D01*
X53889Y17973D01*
X54233D01*
X54327Y17991D01*
X54407Y18045D01*
X54460Y18124D01*
X54479Y18219D01*
Y18465D01*
X54460Y18559D01*
X54407Y18638D01*
X54461Y18679D01*
X54513Y18746D01*
X54545Y18824D01*
X54546Y18834D01*
X54061D01*
X53576D01*
X53577Y18824D01*
X53609Y18746D01*
X53619Y18734D01*
X53597Y18689D01*
X53378D01*
X53363Y18739D01*
X53375Y18746D01*
X53422Y18818D01*
X53439Y18903D01*
Y19099D01*
X53422Y19184D01*
X53379Y19249D01*
Y19571D01*
X53389Y19646D01*
X53378Y19728D01*
X53346Y19805D01*
X53295Y19870D01*
X53230Y19921D01*
X53153Y19953D01*
X53071Y19963D01*
X52989Y19953D01*
X52912Y19921D01*
X52846Y19870D01*
X52836Y19860D01*
X52786Y19795D01*
X52754Y19718D01*
X52743Y19636D01*
Y19249D01*
X52700Y19184D01*
X52683Y19099D01*
Y18903D01*
X52700Y18818D01*
X52747Y18746D01*
X52794Y18716D01*
Y18657D01*
X52747Y18626D01*
X52700Y18554D01*
X52683Y18469D01*
Y18273D01*
X52700Y18188D01*
X52743Y18123D01*
Y17606D01*
X52721Y17584D01*
X52538D01*
X52455Y17573D01*
X52379Y17541D01*
X52313Y17490D01*
X52082Y17260D01*
X52032Y17194D01*
X52026Y17179D01*
X51978Y17195D01*
X51994Y17254D01*
Y17368D01*
X51965Y17478D01*
X51908Y17577D01*
X51879Y17606D01*
Y18123D01*
X51922Y18188D01*
X51939Y18273D01*
Y18469D01*
X51922Y18554D01*
X51875Y18626D01*
X51828Y18657D01*
Y18716D01*
X51875Y18746D01*
X51922Y18818D01*
X51939Y18903D01*
Y19099D01*
X51922Y19184D01*
X51875Y19256D01*
X51803Y19303D01*
X51719Y19320D01*
X51404D01*
X51319Y19303D01*
X51247Y19256D01*
X51200Y19184D01*
X51199Y19182D01*
X50923D01*
X50922Y19184D01*
X50875Y19256D01*
X50803Y19303D01*
X50742Y19316D01*
Y20597D01*
X50792Y20626D01*
X50863Y20584D01*
X50864Y20584D01*
Y21061D01*
Y21538D01*
X50863Y21538D01*
X50792Y21496D01*
X50742Y21525D01*
Y24163D01*
X50728Y24233D01*
X50689Y24291D01*
X49773Y25206D01*
X49715Y25246D01*
X49646Y25259D01*
X48330D01*
Y28521D01*
X48380Y28541D01*
X48386Y28535D01*
X48445Y28502D01*
X48510Y28484D01*
X48577D01*
X48642Y28502D01*
X48700Y28535D01*
X48748Y28583D01*
X48782Y28641D01*
X48799Y28706D01*
Y28774D01*
X48782Y28839D01*
X48748Y28897D01*
X48724Y28921D01*
Y29138D01*
X48967Y29380D01*
X51233D01*
X51262Y29331D01*
X51331Y29262D01*
X51417Y29213D01*
X51512Y29187D01*
X51610D01*
X51705Y29213D01*
X51791Y29262D01*
X51860Y29331D01*
X51910Y29417D01*
X51935Y29512D01*
Y29610D01*
X51910Y29705D01*
X51860Y29791D01*
X51791Y29860D01*
X51705Y29910D01*
X51610Y29935D01*
X51512D01*
X51417Y29910D01*
X51331Y29860D01*
X51262Y29791D01*
X51233Y29742D01*
X49039D01*
X49020Y29788D01*
X50112Y30880D01*
X51733D01*
X51762Y30831D01*
X51831Y30762D01*
X51917Y30712D01*
X52012Y30687D01*
X52110D01*
X52205Y30712D01*
X52291Y30762D01*
X52360Y30831D01*
X52410Y30917D01*
X52435Y31012D01*
Y31110D01*
X52410Y31205D01*
X52360Y31291D01*
X52291Y31360D01*
X52205Y31410D01*
X52110Y31435D01*
X52012D01*
X51917Y31410D01*
X51831Y31360D01*
X51762Y31291D01*
X51733Y31242D01*
X50143D01*
X50116Y31292D01*
X50128Y31309D01*
X50141Y31378D01*
Y32656D01*
X50678Y33193D01*
X51233D01*
X51262Y33144D01*
X51331Y33074D01*
X51417Y33025D01*
X51512Y33000D01*
X51610D01*
X51705Y33025D01*
X51791Y33074D01*
X51860Y33144D01*
X51910Y33229D01*
X51935Y33324D01*
Y33423D01*
X51910Y33518D01*
X51860Y33603D01*
X51791Y33673D01*
X51705Y33722D01*
X51610Y33748D01*
X51512D01*
X51417Y33722D01*
X51331Y33673D01*
X51262Y33603D01*
X51233Y33554D01*
X50603D01*
X50534Y33540D01*
X50475Y33501D01*
X49833Y32859D01*
X49794Y32800D01*
X49780Y32731D01*
Y31453D01*
X47904Y29577D01*
X47858Y29596D01*
Y29740D01*
X47882Y29764D01*
X47916Y29822D01*
X47933Y29888D01*
Y29955D01*
X47916Y30020D01*
X47882Y30078D01*
X47834Y30126D01*
X47776Y30160D01*
X47711Y30177D01*
X47643D01*
X47578Y30160D01*
X47520Y30126D01*
X47472Y30078D01*
X47439Y30020D01*
X47421Y29955D01*
Y29888D01*
X47436Y29833D01*
X47419Y29801D01*
X47403Y29783D01*
X47368D01*
X47328Y29773D01*
X47278Y29805D01*
Y33654D01*
X47363Y33703D01*
X47444Y33784D01*
X47501Y33883D01*
X47530Y33993D01*
Y34107D01*
X47501Y34217D01*
X47444Y34316D01*
X47363Y34397D01*
X47264Y34454D01*
X47154Y34483D01*
X47040D01*
X46930Y34454D01*
X46831Y34397D01*
X46802Y34367D01*
X46755Y34386D01*
Y34487D01*
X47225Y34956D01*
X47264Y35014D01*
X47278Y35084D01*
Y37104D01*
X47363Y37153D01*
X47444Y37234D01*
X47501Y37333D01*
X47530Y37443D01*
Y37557D01*
X47501Y37667D01*
X47444Y37766D01*
X47363Y37847D01*
X47264Y37904D01*
X47154Y37933D01*
D02*
G37*
G36*
X37294Y34527D02*
Y34247D01*
X37574D01*
X37574Y34248D01*
X37507Y34364D01*
X37411Y34460D01*
X37295Y34527D01*
X37294Y34527D01*
D02*
G37*
G36*
X36900D02*
X36899Y34527D01*
X36783Y34460D01*
X36688Y34364D01*
X36620Y34248D01*
X36620Y34247D01*
X36900D01*
Y34527D01*
D02*
G37*
G36*
X48154Y34483D02*
X48040D01*
X47930Y34454D01*
X47831Y34397D01*
X47751Y34316D01*
X47693Y34217D01*
X47664Y34107D01*
Y33993D01*
X47693Y33883D01*
X47751Y33784D01*
X47831Y33703D01*
X47930Y33646D01*
X48040Y33617D01*
X48154D01*
X48264Y33646D01*
X48363Y33703D01*
X48444Y33784D01*
X48501Y33883D01*
X48530Y33993D01*
Y34107D01*
X48501Y34217D01*
X48444Y34316D01*
X48363Y34397D01*
X48264Y34454D01*
X48154Y34483D01*
D02*
G37*
G36*
X37574Y33853D02*
X37294D01*
Y33573D01*
X37295Y33573D01*
X37411Y33640D01*
X37507Y33736D01*
X37574Y33852D01*
X37574Y33853D01*
D02*
G37*
G36*
X36900D02*
X36620D01*
X36620Y33852D01*
X36688Y33736D01*
X36783Y33640D01*
X36899Y33573D01*
X36900Y33573D01*
Y33853D01*
D02*
G37*
G36*
X53258Y33517D02*
Y33323D01*
X53497D01*
X53476Y33373D01*
X53429Y33435D01*
X53367Y33482D01*
X53296Y33512D01*
X53258Y33517D01*
D02*
G37*
G36*
X52864D02*
X52826Y33512D01*
X52755Y33482D01*
X52693Y33435D01*
X52646Y33373D01*
X52625Y33323D01*
X52864D01*
Y33517D01*
D02*
G37*
G36*
X56258Y33538D02*
Y33258D01*
X56538D01*
X56538Y33259D01*
X56471Y33375D01*
X56375Y33471D01*
X56259Y33538D01*
X56258Y33538D01*
D02*
G37*
G36*
X55864D02*
X55863Y33538D01*
X55747Y33471D01*
X55651Y33375D01*
X55584Y33259D01*
X55584Y33258D01*
X55864D01*
Y33538D01*
D02*
G37*
G36*
X23758Y33476D02*
Y33064D01*
X23971D01*
Y33187D01*
X23961Y33266D01*
X23930Y33339D01*
X23882Y33402D01*
X23819Y33451D01*
X23758Y33476D01*
D02*
G37*
G36*
X23364Y33476D02*
X23303Y33451D01*
X23240Y33402D01*
X23192Y33339D01*
X23161Y33266D01*
X23151Y33187D01*
Y33064D01*
X23364D01*
Y33476D01*
D02*
G37*
G36*
X57118Y33494D02*
X57004D01*
X56894Y33465D01*
X56795Y33408D01*
X56714Y33327D01*
X56657Y33228D01*
X56628Y33118D01*
Y33004D01*
X56657Y32894D01*
X56714Y32795D01*
X56795Y32714D01*
X56894Y32657D01*
X57004Y32628D01*
X57118D01*
X57228Y32657D01*
X57327Y32714D01*
X57408Y32795D01*
X57465Y32894D01*
X57494Y33004D01*
Y33118D01*
X57465Y33228D01*
X57408Y33327D01*
X57327Y33408D01*
X57228Y33465D01*
X57118Y33494D01*
D02*
G37*
G36*
X61061Y33538D02*
X58061D01*
X57938Y33521D01*
X57823Y33474D01*
X57724Y33398D01*
X57648Y33299D01*
X57601Y33184D01*
X57585Y33061D01*
X57601Y32938D01*
X57648Y32823D01*
X57724Y32724D01*
X57823Y32648D01*
X57938Y32601D01*
X58061Y32585D01*
X61061D01*
X61184Y32601D01*
X61299Y32648D01*
X61398Y32724D01*
X61474Y32823D01*
X61521Y32938D01*
X61538Y33061D01*
X61521Y33184D01*
X61474Y33299D01*
X61398Y33398D01*
X61299Y33474D01*
X61184Y33521D01*
X61061Y33538D01*
D02*
G37*
G36*
X56538Y32864D02*
X56258D01*
Y32584D01*
X56259Y32584D01*
X56375Y32651D01*
X56471Y32747D01*
X56538Y32863D01*
X56538Y32864D01*
D02*
G37*
G36*
X55864D02*
X55584D01*
X55584Y32863D01*
X55651Y32747D01*
X55747Y32651D01*
X55863Y32584D01*
X55864Y32584D01*
Y32864D01*
D02*
G37*
G36*
X23971Y32670D02*
X23758D01*
Y32258D01*
X23819Y32283D01*
X23882Y32332D01*
X23930Y32395D01*
X23961Y32468D01*
X23971Y32547D01*
Y32670D01*
D02*
G37*
G36*
X23364D02*
X23151D01*
Y32547D01*
X23161Y32468D01*
X23192Y32395D01*
X23240Y32332D01*
X23303Y32283D01*
X23364Y32258D01*
Y32670D01*
D02*
G37*
G36*
X53497Y32929D02*
X52625D01*
X52646Y32879D01*
X52657Y32864D01*
X52632Y32814D01*
X51716D01*
X51633Y32803D01*
X51557Y32771D01*
X51526Y32748D01*
X51512D01*
X51417Y32722D01*
X51331Y32673D01*
X51262Y32603D01*
X51213Y32518D01*
X51187Y32423D01*
Y32324D01*
X51213Y32229D01*
X51262Y32144D01*
X51331Y32074D01*
X51417Y32025D01*
X51512Y32000D01*
X51610D01*
X51705Y32025D01*
X51791Y32074D01*
X51860Y32144D01*
X51880Y32178D01*
X52896D01*
X52904Y32177D01*
X53218D01*
X53303Y32194D01*
X53375Y32242D01*
X53422Y32313D01*
X53439Y32398D01*
Y32594D01*
X53422Y32679D01*
X53390Y32727D01*
X53376Y32753D01*
X53399Y32794D01*
X53429Y32817D01*
X53476Y32879D01*
X53497Y32929D01*
D02*
G37*
G36*
X17503Y32343D02*
X17369D01*
X17238Y32308D01*
X17122Y32241D01*
X17026Y32145D01*
X16959Y32029D01*
X16924Y31898D01*
Y31764D01*
X16959Y31633D01*
X17026Y31517D01*
X17122Y31421D01*
X17238Y31354D01*
X17369Y31319D01*
X17503D01*
X17634Y31354D01*
X17750Y31421D01*
X17846Y31517D01*
X17913Y31633D01*
X17948Y31764D01*
Y31898D01*
X17913Y32029D01*
X17846Y32145D01*
X17750Y32241D01*
X17634Y32308D01*
X17503Y32343D01*
D02*
G37*
G36*
X13821Y31406D02*
X13758D01*
Y30695D01*
X14085D01*
Y31142D01*
X14076Y31210D01*
X14050Y31274D01*
X14008Y31328D01*
X13953Y31370D01*
X13889Y31397D01*
X13821Y31406D01*
D02*
G37*
G36*
X13364D02*
X13301D01*
X13233Y31397D01*
X13169Y31370D01*
X13114Y31328D01*
X13072Y31274D01*
X13046Y31210D01*
X13037Y31142D01*
Y30695D01*
X13364D01*
Y31406D01*
D02*
G37*
G36*
X57110Y31435D02*
X57012D01*
X56917Y31410D01*
X56831Y31360D01*
X56762Y31291D01*
X56712Y31205D01*
X56687Y31110D01*
Y31012D01*
X56712Y30917D01*
X56762Y30831D01*
X56831Y30762D01*
X56917Y30712D01*
X57012Y30687D01*
X57110D01*
X57205Y30712D01*
X57291Y30762D01*
X57360Y30831D01*
X57410Y30917D01*
X57435Y31012D01*
Y31110D01*
X57410Y31205D01*
X57360Y31291D01*
X57291Y31360D01*
X57205Y31410D01*
X57110Y31435D01*
D02*
G37*
G36*
X20321Y30874D02*
X20133D01*
Y30405D01*
X20614D01*
Y30581D01*
X20604Y30657D01*
X20575Y30727D01*
X20528Y30788D01*
X20467Y30834D01*
X20397Y30864D01*
X20321Y30874D01*
D02*
G37*
G36*
X19739D02*
X19551D01*
X19475Y30864D01*
X19405Y30834D01*
X19344Y30788D01*
X19298Y30727D01*
X19268Y30657D01*
X19258Y30581D01*
Y30405D01*
X19739D01*
Y30874D01*
D02*
G37*
G36*
X29864Y30577D02*
X29652D01*
X29699Y30496D01*
X29783Y30411D01*
X29864Y30364D01*
Y30577D01*
D02*
G37*
G36*
X30470D02*
X30258D01*
Y30364D01*
X30339Y30411D01*
X30423Y30496D01*
X30470Y30577D01*
D02*
G37*
G36*
X26630Y30348D02*
X26383D01*
Y29990D01*
X26475Y30008D01*
X26557Y30063D01*
X26611Y30144D01*
X26630Y30239D01*
Y30348D01*
D02*
G37*
G36*
X25989D02*
X25742D01*
Y30239D01*
X25761Y30144D01*
X25815Y30063D01*
X25897Y30008D01*
X25989Y29990D01*
Y30348D01*
D02*
G37*
G36*
X14085Y30301D02*
X13758D01*
Y29590D01*
X13821D01*
X13889Y29599D01*
X13953Y29626D01*
X14008Y29668D01*
X14050Y29722D01*
X14076Y29786D01*
X14085Y29854D01*
Y30301D01*
D02*
G37*
G36*
X13364D02*
X13037D01*
Y29854D01*
X13046Y29786D01*
X13072Y29722D01*
X13114Y29668D01*
X13169Y29626D01*
X13233Y29599D01*
X13301Y29590D01*
X13364D01*
Y30301D01*
D02*
G37*
G36*
X20614Y30011D02*
X20133D01*
Y29542D01*
X20321D01*
X20397Y29552D01*
X20467Y29581D01*
X20528Y29628D01*
X20575Y29688D01*
X20604Y29759D01*
X20614Y29834D01*
Y30011D01*
D02*
G37*
G36*
X19739D02*
X19258D01*
Y29834D01*
X19268Y29759D01*
X19298Y29688D01*
X19344Y29628D01*
X19405Y29581D01*
X19475Y29552D01*
X19551Y29542D01*
X19739D01*
Y30011D01*
D02*
G37*
G36*
X59110Y29810D02*
X59012D01*
X58917Y29785D01*
X58831Y29735D01*
X58762Y29666D01*
X58713Y29580D01*
X58687Y29485D01*
Y29387D01*
X58713Y29292D01*
X58762Y29206D01*
X58831Y29137D01*
X58917Y29088D01*
X59012Y29062D01*
X59110D01*
X59205Y29088D01*
X59291Y29137D01*
X59360Y29206D01*
X59410Y29292D01*
X59435Y29387D01*
Y29485D01*
X59410Y29580D01*
X59360Y29666D01*
X59291Y29735D01*
X59205Y29785D01*
X59110Y29810D01*
D02*
G37*
G36*
X53110D02*
X53012D01*
X52917Y29785D01*
X52831Y29735D01*
X52762Y29666D01*
X52712Y29580D01*
X52687Y29485D01*
Y29387D01*
X52712Y29292D01*
X52762Y29206D01*
X52831Y29137D01*
X52917Y29088D01*
X53012Y29062D01*
X53110D01*
X53205Y29088D01*
X53291Y29137D01*
X53360Y29206D01*
X53410Y29292D01*
X53435Y29387D01*
Y29485D01*
X53410Y29580D01*
X53360Y29666D01*
X53291Y29735D01*
X53205Y29785D01*
X53110Y29810D01*
D02*
G37*
G36*
X51610Y28935D02*
X51512D01*
X51417Y28910D01*
X51331Y28860D01*
X51262Y28791D01*
X51213Y28705D01*
X51187Y28610D01*
Y28512D01*
X51213Y28417D01*
X51262Y28331D01*
X51331Y28262D01*
X51417Y28212D01*
X51512Y28187D01*
X51610D01*
X51705Y28212D01*
X51791Y28262D01*
X51860Y28331D01*
X51910Y28417D01*
X51935Y28512D01*
Y28610D01*
X51910Y28705D01*
X51860Y28791D01*
X51791Y28860D01*
X51705Y28910D01*
X51610Y28935D01*
D02*
G37*
G36*
X41008Y28413D02*
Y28133D01*
X41288D01*
X41288Y28134D01*
X41221Y28250D01*
X41125Y28346D01*
X41009Y28413D01*
X41008Y28413D01*
D02*
G37*
G36*
X40614D02*
X40613Y28413D01*
X40497Y28346D01*
X40401Y28250D01*
X40334Y28134D01*
X40334Y28133D01*
X40614D01*
Y28413D01*
D02*
G37*
G36*
X55360Y28106D02*
X55246D01*
X55136Y28077D01*
X55037Y28020D01*
X54957Y27939D01*
X54940Y27910D01*
X54758Y27728D01*
X53178D01*
X53118Y27744D01*
X53004D01*
X52894Y27715D01*
X52795Y27658D01*
X52714Y27577D01*
X52657Y27478D01*
X52628Y27368D01*
Y27254D01*
X52657Y27144D01*
X52714Y27045D01*
X52795Y26964D01*
X52894Y26907D01*
X53004Y26878D01*
X53118D01*
X53178Y26894D01*
X54930D01*
X54930Y26894D01*
X55038Y26908D01*
X55139Y26950D01*
X55225Y27016D01*
X55490Y27281D01*
X55569Y27327D01*
X55650Y27407D01*
X55707Y27506D01*
X55736Y27616D01*
Y27730D01*
X55707Y27840D01*
X55650Y27939D01*
X55569Y28020D01*
X55470Y28077D01*
X55360Y28106D01*
D02*
G37*
G36*
X41288Y27739D02*
X41008D01*
Y27459D01*
X41009Y27459D01*
X41125Y27526D01*
X41221Y27622D01*
X41288Y27738D01*
X41288Y27739D01*
D02*
G37*
G36*
X40614D02*
X40334D01*
X40334Y27738D01*
X40401Y27622D01*
X40497Y27526D01*
X40613Y27459D01*
X40614Y27459D01*
Y27739D01*
D02*
G37*
G36*
X51610Y28060D02*
X51512D01*
X51417Y28035D01*
X51331Y27985D01*
X51262Y27916D01*
X51213Y27830D01*
X51187Y27735D01*
Y27637D01*
X51213Y27542D01*
X51262Y27456D01*
X51331Y27387D01*
X51417Y27338D01*
X51512Y27312D01*
X51610D01*
X51705Y27338D01*
X51791Y27387D01*
X51860Y27456D01*
X51910Y27542D01*
X51935Y27637D01*
Y27735D01*
X51910Y27830D01*
X51860Y27916D01*
X51791Y27985D01*
X51705Y28035D01*
X51610Y28060D01*
D02*
G37*
G36*
X60174Y28185D02*
X60039D01*
X59909Y28150D01*
X59792Y28083D01*
X59697Y27987D01*
X59629Y27871D01*
X59594Y27741D01*
Y27606D01*
X59629Y27476D01*
X59697Y27359D01*
X59792Y27264D01*
X59909Y27196D01*
X60039Y27161D01*
X60174D01*
X60304Y27196D01*
X60421Y27264D01*
X60516Y27359D01*
X60583Y27476D01*
X60618Y27606D01*
Y27741D01*
X60583Y27871D01*
X60516Y27987D01*
X60421Y28083D01*
X60304Y28150D01*
X60174Y28185D01*
D02*
G37*
G36*
X14557Y27558D02*
X14443D01*
X14333Y27529D01*
X14234Y27472D01*
X14153Y27391D01*
X14096Y27292D01*
X14067Y27182D01*
Y27068D01*
X14096Y26958D01*
X14153Y26859D01*
X14234Y26778D01*
X14333Y26721D01*
X14443Y26692D01*
X14557D01*
X14667Y26721D01*
X14766Y26778D01*
X14847Y26859D01*
X14904Y26958D01*
X14933Y27068D01*
Y27182D01*
X14904Y27292D01*
X14847Y27391D01*
X14766Y27472D01*
X14667Y27529D01*
X14557Y27558D01*
D02*
G37*
G36*
X25836Y26619D02*
Y26258D01*
X26196D01*
X26162Y26341D01*
X26097Y26437D01*
X26015Y26520D01*
X25919Y26584D01*
X25836Y26619D01*
D02*
G37*
G36*
X25442D02*
X25359Y26584D01*
X25262Y26520D01*
X25180Y26437D01*
X25115Y26341D01*
X25081Y26258D01*
X25442D01*
Y26619D01*
D02*
G37*
G36*
X64243Y27119D02*
X64129D01*
X64019Y27090D01*
X63920Y27033D01*
X63839Y26952D01*
X63782Y26853D01*
X63753Y26743D01*
Y26629D01*
X63782Y26519D01*
X63839Y26420D01*
X63920Y26339D01*
X64019Y26282D01*
X64129Y26253D01*
X64243D01*
X64353Y26282D01*
X64452Y26339D01*
X64533Y26420D01*
X64590Y26519D01*
X64619Y26629D01*
Y26743D01*
X64590Y26853D01*
X64533Y26952D01*
X64452Y27033D01*
X64353Y27090D01*
X64243Y27119D01*
D02*
G37*
G36*
X22753Y26573D02*
X22619D01*
X22488Y26538D01*
X22372Y26471D01*
X22276Y26375D01*
X22209Y26259D01*
X22174Y26128D01*
Y25994D01*
X22209Y25863D01*
X22276Y25747D01*
X22372Y25651D01*
X22488Y25584D01*
X22619Y25549D01*
X22753D01*
X22884Y25584D01*
X23000Y25651D01*
X23096Y25747D01*
X23163Y25863D01*
X23198Y25994D01*
Y26128D01*
X23163Y26259D01*
X23096Y26375D01*
X23000Y26471D01*
X22884Y26538D01*
X22753Y26573D01*
D02*
G37*
G36*
X26196Y25864D02*
X25836D01*
Y25503D01*
X25919Y25538D01*
X26015Y25602D01*
X26097Y25685D01*
X26162Y25781D01*
X26196Y25864D01*
D02*
G37*
G36*
X25442D02*
X25081D01*
X25115Y25781D01*
X25180Y25685D01*
X25262Y25602D01*
X25359Y25538D01*
X25442Y25503D01*
Y25864D01*
D02*
G37*
G36*
X64186Y29268D02*
X62710D01*
X62590Y29256D01*
X62475Y29221D01*
X62369Y29164D01*
X62276Y29088D01*
X60984Y27796D01*
X60907Y27703D01*
X60851Y27597D01*
X60816Y27482D01*
X60804Y27362D01*
Y26142D01*
X60587Y25924D01*
X54516D01*
X54486Y25921D01*
X54456D01*
X54426Y25915D01*
X54396Y25912D01*
X54367Y25904D01*
X54338Y25898D01*
X54310Y25886D01*
X54281Y25878D01*
X54255Y25863D01*
X54227Y25852D01*
X54202Y25835D01*
X54175Y25821D01*
X54152Y25802D01*
X54127Y25785D01*
X54105Y25764D01*
X54082Y25745D01*
X54063Y25721D01*
X54042Y25700D01*
X54025Y25675D01*
X54006Y25652D01*
X53992Y25625D01*
X53975Y25600D01*
X53963Y25572D01*
X53949Y25546D01*
X53940Y25517D01*
X53929Y25489D01*
X53923Y25459D01*
X53914Y25431D01*
X53911Y25401D01*
X53906Y25371D01*
Y25341D01*
X53903Y25311D01*
X53906Y25281D01*
Y25251D01*
X53911Y25221D01*
X53914Y25191D01*
X53923Y25163D01*
X53929Y25133D01*
X53940Y25105D01*
X53949Y25076D01*
X53963Y25050D01*
X53975Y25022D01*
X53992Y24997D01*
X54006Y24970D01*
X54025Y24947D01*
X54042Y24922D01*
X54063Y24901D01*
X54082Y24877D01*
X54105Y24858D01*
X54127Y24837D01*
X54152Y24820D01*
X54175Y24801D01*
X54202Y24787D01*
X54227Y24770D01*
X54255Y24759D01*
X54281Y24745D01*
X54310Y24736D01*
X54338Y24724D01*
X54367Y24718D01*
X54396Y24710D01*
X54426Y24707D01*
X54456Y24701D01*
X54486D01*
X54516Y24698D01*
X60841D01*
X60960Y24710D01*
X61075Y24745D01*
X61181Y24801D01*
X61274Y24877D01*
X61851Y25454D01*
X61927Y25547D01*
X61984Y25653D01*
X62019Y25768D01*
X62031Y25888D01*
Y27108D01*
X62964Y28041D01*
X64186D01*
X64306Y28053D01*
X64421Y28088D01*
X64527Y28145D01*
X64620Y28221D01*
X64696Y28314D01*
X64753Y28420D01*
X64787Y28535D01*
X64799Y28655D01*
X64787Y28774D01*
X64753Y28889D01*
X64696Y28995D01*
X64620Y29088D01*
X64527Y29164D01*
X64421Y29221D01*
X64306Y29256D01*
X64186Y29268D01*
D02*
G37*
G36*
X14633Y25714D02*
X12555Y25707D01*
X12536Y25703D01*
X12518Y25701D01*
X12513Y25699D01*
X12509Y25698D01*
X12493Y25687D01*
X12477Y25678D01*
X11930Y25210D01*
X11927Y25206D01*
X11923Y25203D01*
X11912Y25188D01*
X11901Y25173D01*
X11899Y25168D01*
X11897Y25164D01*
X11893Y25146D01*
X11888Y25127D01*
X11888Y25123D01*
X11887Y25118D01*
Y16929D01*
X11888Y16927D01*
X11888Y16924D01*
X11892Y16904D01*
X11897Y16883D01*
X11898Y16881D01*
X11899Y16879D01*
X11911Y16862D01*
X11923Y16844D01*
X11925Y16843D01*
X11926Y16841D01*
X12693Y16132D01*
X12711Y16121D01*
X12728Y16109D01*
X12731Y16109D01*
X12733Y16107D01*
X12753Y16104D01*
X12774Y16100D01*
X14825D01*
X14844Y16104D01*
X14863Y16106D01*
X14867Y16108D01*
X14871Y16109D01*
X14887Y16120D01*
X14904Y16129D01*
X15177Y16366D01*
X15180Y16369D01*
X15184Y16372D01*
X15194Y16387D01*
X15206Y16403D01*
X15207Y16407D01*
X15210Y16411D01*
X15213Y16429D01*
X15219Y16448D01*
X15218Y16452D01*
X15219Y16457D01*
X15219Y17132D01*
X15216Y17148D01*
X15214Y17165D01*
X15211Y17171D01*
X15210Y17178D01*
X15201Y17192D01*
X15193Y17207D01*
X14920Y17555D01*
X14914Y17559D01*
X14910Y17565D01*
X14896Y17575D01*
X14884Y17585D01*
X14877Y17588D01*
X14871Y17592D01*
X14855Y17595D01*
X14839Y17600D01*
X14832Y17599D01*
X14825Y17601D01*
X13440D01*
X13160Y17919D01*
Y24367D01*
X13357Y24565D01*
X14594D01*
X14602Y24566D01*
X14611Y24566D01*
X14625Y24571D01*
X14640Y24574D01*
X14647Y24579D01*
X14656Y24582D01*
X14944Y24755D01*
X14955Y24765D01*
X14967Y24773D01*
X14972Y24781D01*
X14979Y24787D01*
X14985Y24800D01*
X14993Y24812D01*
X14995Y24821D01*
X14999Y24830D01*
X14999Y24844D01*
X15002Y24859D01*
Y25335D01*
X14998Y25357D01*
X14994Y25379D01*
X14993Y25380D01*
X14993Y25381D01*
X14981Y25400D01*
X14969Y25419D01*
X14720Y25677D01*
X14719Y25678D01*
X14718Y25679D01*
X14700Y25691D01*
X14681Y25704D01*
X14680Y25704D01*
X14679Y25705D01*
X14657Y25709D01*
X14636Y25714D01*
X14634Y25714D01*
X14633Y25714D01*
D02*
G37*
G36*
X64243Y24463D02*
X64129D01*
X64019Y24433D01*
X63920Y24376D01*
X63839Y24295D01*
X63782Y24197D01*
X63753Y24087D01*
Y23973D01*
X63782Y23862D01*
X63839Y23764D01*
X63920Y23683D01*
X64019Y23626D01*
X64129Y23596D01*
X64243D01*
X64353Y23626D01*
X64452Y23683D01*
X64533Y23764D01*
X64590Y23862D01*
X64619Y23973D01*
Y24087D01*
X64590Y24197D01*
X64533Y24295D01*
X64452Y24376D01*
X64353Y24433D01*
X64243Y24463D01*
D02*
G37*
G36*
X53118Y23744D02*
X53004D01*
X52894Y23715D01*
X52795Y23658D01*
X52714Y23577D01*
X52657Y23478D01*
X52628Y23368D01*
Y23254D01*
X52657Y23144D01*
X52714Y23045D01*
X52795Y22964D01*
X52894Y22907D01*
X53004Y22878D01*
X53118D01*
X53178Y22894D01*
X54758D01*
X54940Y22712D01*
X54957Y22683D01*
X55037Y22602D01*
X55136Y22545D01*
X55246Y22516D01*
X55360D01*
X55470Y22545D01*
X55569Y22602D01*
X55650Y22683D01*
X55707Y22782D01*
X55736Y22892D01*
Y23006D01*
X55707Y23116D01*
X55650Y23215D01*
X55569Y23295D01*
X55490Y23341D01*
X55225Y23606D01*
X55139Y23672D01*
X55038Y23714D01*
X54930Y23728D01*
X54930Y23728D01*
X53178D01*
X53118Y23744D01*
D02*
G37*
G36*
X51610Y23060D02*
X51512D01*
X51417Y23035D01*
X51331Y22985D01*
X51262Y22916D01*
X51213Y22830D01*
X51187Y22735D01*
Y22637D01*
X51213Y22542D01*
X51262Y22456D01*
X51331Y22387D01*
X51417Y22338D01*
X51512Y22312D01*
X51610D01*
X51705Y22338D01*
X51791Y22387D01*
X51860Y22456D01*
X51910Y22542D01*
X51935Y22637D01*
Y22735D01*
X51910Y22830D01*
X51860Y22916D01*
X51791Y22985D01*
X51705Y23035D01*
X51610Y23060D01*
D02*
G37*
G36*
X15827Y21735D02*
X15827Y21735D01*
X14331D01*
X14331Y21735D01*
X14285Y21725D01*
X14246Y21699D01*
X14246Y21699D01*
X13852Y21306D01*
X13852Y21306D01*
X13826Y21267D01*
X13817Y21220D01*
X13817Y21220D01*
Y20276D01*
X13819Y20265D01*
X13818Y20255D01*
X13823Y20242D01*
X13826Y20230D01*
X13832Y20221D01*
X13835Y20211D01*
X13845Y20201D01*
X13852Y20190D01*
X13861Y20185D01*
X13868Y20177D01*
X14262Y19901D01*
X14274Y19896D01*
X14285Y19889D01*
X14295Y19887D01*
X14305Y19882D01*
X14318Y19882D01*
X14331Y19880D01*
X15626D01*
X18935Y16661D01*
Y13223D01*
X18937Y13213D01*
X18937Y13202D01*
X18941Y13190D01*
X18944Y13177D01*
X18950Y13168D01*
X18954Y13158D01*
X19202Y12770D01*
X19212Y12760D01*
X19219Y12749D01*
X19228Y12744D01*
X19235Y12736D01*
X19247Y12731D01*
X19258Y12723D01*
X19268Y12721D01*
X19278Y12717D01*
X19291Y12717D01*
X19304Y12714D01*
X20244D01*
X20264Y12718D01*
X20283Y12721D01*
X20287Y12723D01*
X20290Y12723D01*
X20307Y12734D01*
X20324Y12745D01*
X20326Y12747D01*
X20329Y12749D01*
X20340Y12766D01*
X20352Y12782D01*
X20541Y13171D01*
X20542Y13174D01*
X20544Y13177D01*
X20548Y13197D01*
X20553Y13216D01*
X20553Y13220D01*
X20553Y13223D01*
Y17008D01*
X20554Y17008D01*
X20544Y17054D01*
X20518Y17093D01*
X15912Y21699D01*
X15873Y21725D01*
X15827Y21735D01*
D02*
G37*
G36*
X19817Y22512D02*
X19683D01*
X19552Y22477D01*
X19436Y22410D01*
X19340Y22314D01*
X19273Y22198D01*
X19238Y22067D01*
Y21933D01*
X19273Y21802D01*
X19340Y21686D01*
X19436Y21590D01*
X19552Y21523D01*
X19683Y21488D01*
X19817D01*
X19948Y21523D01*
X20064Y21590D01*
X20160Y21686D01*
X20227Y21802D01*
X20262Y21933D01*
Y22067D01*
X20227Y22198D01*
X20160Y22314D01*
X20064Y22410D01*
X19948Y22477D01*
X19817Y22512D01*
D02*
G37*
G36*
X60106Y23562D02*
X59987Y23550D01*
X59872Y23515D01*
X59766Y23459D01*
X59673Y23382D01*
X59596Y23289D01*
X59540Y23183D01*
X59505Y23068D01*
X59493Y22949D01*
X59505Y22829D01*
X59540Y22714D01*
X59596Y22608D01*
X59673Y22515D01*
X60561Y21627D01*
X60653Y21551D01*
X60759Y21495D01*
X60874Y21460D01*
X60994Y21448D01*
X64186D01*
X64306Y21460D01*
X64421Y21495D01*
X64527Y21551D01*
X64620Y21627D01*
X64696Y21720D01*
X64753Y21826D01*
X64787Y21941D01*
X64799Y22061D01*
X64787Y22181D01*
X64753Y22296D01*
X64696Y22402D01*
X64620Y22495D01*
X64527Y22571D01*
X64421Y22628D01*
X64306Y22662D01*
X64186Y22674D01*
X61248D01*
X60540Y23382D01*
X60447Y23459D01*
X60341Y23515D01*
X60226Y23550D01*
X60106Y23562D01*
D02*
G37*
G36*
X51258Y21538D02*
Y21258D01*
X51538D01*
X51538Y21259D01*
X51471Y21375D01*
X51375Y21471D01*
X51259Y21538D01*
X51258Y21538D01*
D02*
G37*
G36*
X37633Y21220D02*
Y21008D01*
X37845D01*
X37798Y21089D01*
X37714Y21173D01*
X37633Y21220D01*
D02*
G37*
G36*
X37239D02*
X37158Y21173D01*
X37074Y21089D01*
X37027Y21008D01*
X37239D01*
Y21220D01*
D02*
G37*
G36*
X42359Y20787D02*
X42283D01*
Y20711D01*
X42292Y20716D01*
X42354Y20779D01*
X42359Y20787D01*
D02*
G37*
G36*
X46133Y20845D02*
Y20633D01*
X46345D01*
X46298Y20714D01*
X46214Y20798D01*
X46133Y20845D01*
D02*
G37*
G36*
X45739D02*
X45658Y20798D01*
X45574Y20714D01*
X45527Y20633D01*
X45739D01*
Y20845D01*
D02*
G37*
G36*
X53118Y21494D02*
X53004D01*
X52894Y21465D01*
X52795Y21408D01*
X52714Y21327D01*
X52657Y21228D01*
X52628Y21118D01*
Y21004D01*
X52657Y20894D01*
X52714Y20795D01*
X52795Y20714D01*
X52894Y20657D01*
X53004Y20628D01*
X53118D01*
X53228Y20657D01*
X53327Y20714D01*
X53408Y20795D01*
X53465Y20894D01*
X53494Y21004D01*
Y21118D01*
X53465Y21228D01*
X53408Y21327D01*
X53327Y21408D01*
X53228Y21465D01*
X53118Y21494D01*
D02*
G37*
G36*
X52118D02*
X52004D01*
X51894Y21465D01*
X51795Y21408D01*
X51714Y21327D01*
X51657Y21228D01*
X51628Y21118D01*
Y21004D01*
X51657Y20894D01*
X51714Y20795D01*
X51795Y20714D01*
X51894Y20657D01*
X52004Y20628D01*
X52118D01*
X52228Y20657D01*
X52327Y20714D01*
X52408Y20795D01*
X52465Y20894D01*
X52494Y21004D01*
Y21118D01*
X52465Y21228D01*
X52408Y21327D01*
X52327Y21408D01*
X52228Y21465D01*
X52118Y21494D01*
D02*
G37*
G36*
X51538Y20864D02*
X51258D01*
Y20584D01*
X51259Y20584D01*
X51375Y20651D01*
X51471Y20747D01*
X51538Y20863D01*
X51538Y20864D01*
D02*
G37*
G36*
X37845Y20614D02*
X37633D01*
Y20402D01*
X37714Y20449D01*
X37798Y20533D01*
X37845Y20614D01*
D02*
G37*
G36*
X37239D02*
X37027D01*
X37074Y20533D01*
X37158Y20449D01*
X37239Y20402D01*
Y20614D01*
D02*
G37*
G36*
X46345Y20239D02*
X46133D01*
Y20027D01*
X46214Y20074D01*
X46298Y20158D01*
X46345Y20239D01*
D02*
G37*
G36*
X45739D02*
X45527D01*
X45574Y20158D01*
X45658Y20074D01*
X45739Y20027D01*
Y20239D01*
D02*
G37*
G36*
X54258Y19473D02*
Y19227D01*
X54546D01*
X54545Y19237D01*
X54513Y19315D01*
X54461Y19382D01*
X54395Y19433D01*
X54317Y19465D01*
X54258Y19473D01*
D02*
G37*
G36*
X53864D02*
X53805Y19465D01*
X53727Y19433D01*
X53661Y19382D01*
X53609Y19315D01*
X53577Y19237D01*
X53576Y19227D01*
X53864D01*
Y19473D01*
D02*
G37*
G36*
X34258Y18970D02*
Y18758D01*
X34470D01*
X34423Y18839D01*
X34339Y18923D01*
X34258Y18970D01*
D02*
G37*
G36*
X48008Y19005D02*
X47899D01*
Y18758D01*
X48257D01*
X48239Y18850D01*
X48185Y18932D01*
X48103Y18986D01*
X48008Y19005D01*
D02*
G37*
G36*
X33864Y18970D02*
X33783Y18923D01*
X33699Y18839D01*
X33652Y18758D01*
X33864D01*
Y18970D01*
D02*
G37*
G36*
X33187Y21635D02*
X28935D01*
X28889Y21626D01*
X28850Y21600D01*
X28824Y21561D01*
X28815Y21515D01*
Y20763D01*
X28824Y20717D01*
X28850Y20678D01*
X28889Y20652D01*
X28935Y20642D01*
X29301D01*
Y18763D01*
X29310Y18717D01*
X29336Y18678D01*
X29375Y18652D01*
X29421Y18642D01*
X32701D01*
X32747Y18652D01*
X32786Y18678D01*
X32812Y18717D01*
X32821Y18763D01*
Y20642D01*
X33187D01*
X33233Y20652D01*
X33272Y20678D01*
X33298Y20717D01*
X33307Y20763D01*
Y21515D01*
X33298Y21561D01*
X33272Y21600D01*
X33233Y21626D01*
X33187Y21635D01*
D02*
G37*
G36*
X27952Y18845D02*
Y18633D01*
X28164D01*
X28117Y18714D01*
X28033Y18798D01*
X27952Y18845D01*
D02*
G37*
G36*
X27558D02*
X27477Y18798D01*
X27393Y18714D01*
X27346Y18633D01*
X27558D01*
Y18845D01*
D02*
G37*
G36*
X14621Y19421D02*
X14501D01*
X14383Y19398D01*
X14272Y19352D01*
X14172Y19285D01*
X14087Y19200D01*
X14020Y19100D01*
X13974Y18989D01*
X13951Y18871D01*
Y18751D01*
X13974Y18633D01*
X14020Y18522D01*
X14087Y18422D01*
X14172Y18337D01*
X14272Y18270D01*
X14383Y18224D01*
X14501Y18201D01*
X14621D01*
X14739Y18224D01*
X14850Y18270D01*
X14950Y18337D01*
X15035Y18422D01*
X15102Y18522D01*
X15148Y18633D01*
X15171Y18751D01*
Y18871D01*
X15148Y18989D01*
X15102Y19100D01*
X15035Y19200D01*
X14950Y19285D01*
X14850Y19352D01*
X14739Y19398D01*
X14621Y19421D01*
D02*
G37*
G36*
X34470Y18364D02*
X34061D01*
X33652D01*
X33699Y18283D01*
X33760Y18222D01*
X33739Y18172D01*
X33268D01*
X33268Y18172D01*
X33222Y18162D01*
X33183Y18136D01*
X33183Y18136D01*
X31608Y16562D01*
X31582Y16522D01*
X31572Y16476D01*
X31572Y16476D01*
Y15591D01*
X31572Y15591D01*
X31582Y15544D01*
X31608Y15505D01*
X31608Y15505D01*
X33183Y13931D01*
X33222Y13904D01*
X33268Y13895D01*
X33268Y13895D01*
X33587D01*
X33618Y13857D01*
X33617Y13851D01*
Y13742D01*
X34061D01*
X34505D01*
Y13851D01*
X34504Y13857D01*
X34535Y13895D01*
X34547D01*
X34547Y13895D01*
X34593Y13904D01*
X34632Y13931D01*
X35026Y14324D01*
X35052Y14363D01*
X35061Y14409D01*
X35061Y14409D01*
Y17756D01*
X35060Y17764D01*
X35060Y17773D01*
X35055Y17787D01*
X35052Y17802D01*
X35047Y17809D01*
X35045Y17817D01*
X35034Y17829D01*
X35026Y17841D01*
X35019Y17846D01*
X35013Y17852D01*
X34620Y18148D01*
X34606Y18154D01*
X34593Y18162D01*
X34585Y18164D01*
X34577Y18168D01*
X34562Y18169D01*
X34547Y18172D01*
X34383D01*
X34362Y18222D01*
X34423Y18283D01*
X34470Y18364D01*
D02*
G37*
G36*
X48257D02*
X47899D01*
Y18117D01*
X48008D01*
X48103Y18136D01*
X48185Y18190D01*
X48239Y18272D01*
X48257Y18364D01*
D02*
G37*
G36*
X28164Y18239D02*
X27755D01*
X27346D01*
X27367Y18202D01*
X27338Y18152D01*
X25748D01*
X25702Y18143D01*
X25663Y18117D01*
X25663Y18117D01*
X25505Y17959D01*
X25438Y17963D01*
X25381Y18020D01*
X25285Y18084D01*
X25202Y18119D01*
Y17561D01*
Y17003D01*
X25285Y17038D01*
X25381Y17102D01*
X25385Y17105D01*
X25431Y17086D01*
Y15945D01*
X25431Y15945D01*
X25440Y15899D01*
X25466Y15860D01*
X25466Y15860D01*
X26726Y14600D01*
X26765Y14574D01*
X26811Y14565D01*
X26811Y14565D01*
X30217D01*
X30263Y14574D01*
X30302Y14600D01*
X30302Y14600D01*
X30597Y14895D01*
X30623Y14934D01*
X30632Y14980D01*
X30632Y14980D01*
Y15477D01*
X30682Y15487D01*
X30692Y15464D01*
X30740Y15401D01*
X30803Y15352D01*
X30864Y15327D01*
Y15936D01*
Y16545D01*
X30803Y16520D01*
X30740Y16471D01*
X30692Y16408D01*
X30682Y16385D01*
X30632Y16395D01*
Y16693D01*
X30632Y16696D01*
X30632Y16700D01*
X30627Y16719D01*
X30623Y16739D01*
X30621Y16742D01*
X30620Y16745D01*
X30608Y16761D01*
X30597Y16778D01*
X30594Y16780D01*
X30592Y16783D01*
X29096Y18121D01*
X29079Y18132D01*
X29062Y18143D01*
X29059Y18143D01*
X29056Y18145D01*
X29036Y18148D01*
X29016Y18152D01*
X28171D01*
X28143Y18202D01*
X28164Y18239D01*
D02*
G37*
G36*
X44927Y17689D02*
X44860D01*
X44795Y17672D01*
X44766Y17655D01*
X44645D01*
X44631Y17664D01*
X44581Y17674D01*
X44329D01*
X44278Y17664D01*
X44235Y17635D01*
X44206Y17592D01*
X44196Y17541D01*
Y17329D01*
X44206Y17278D01*
X44235Y17235D01*
X44278Y17206D01*
X44329Y17196D01*
X44581D01*
X44631Y17206D01*
X44642Y17213D01*
X44763D01*
X44795Y17195D01*
X44860Y17177D01*
X44927D01*
X44992Y17195D01*
X45051Y17228D01*
X45098Y17276D01*
X45132Y17334D01*
X45150Y17399D01*
Y17467D01*
X45132Y17532D01*
X45098Y17590D01*
X45051Y17638D01*
X44992Y17672D01*
X44927Y17689D01*
D02*
G37*
G36*
X47883Y17845D02*
Y17633D01*
X48095D01*
X48048Y17714D01*
X47964Y17798D01*
X47883Y17845D01*
D02*
G37*
G36*
X48095Y17239D02*
X47883D01*
Y17027D01*
X47964Y17074D01*
X48048Y17158D01*
X48095Y17239D01*
D02*
G37*
G36*
X20787Y20750D02*
X20787Y20750D01*
X19449D01*
X19403Y20741D01*
X19364Y20715D01*
X19364Y20715D01*
X19127Y20479D01*
X19101Y20440D01*
X19092Y20394D01*
X19092Y20394D01*
Y19685D01*
X19092Y19685D01*
X19101Y19639D01*
X19127Y19600D01*
X19127Y19600D01*
X21179Y17549D01*
Y14803D01*
X21188Y14757D01*
X21214Y14718D01*
X21214Y14718D01*
X21608Y14324D01*
X21608Y14324D01*
X21608Y14324D01*
X21628Y14311D01*
X21647Y14298D01*
X21647Y14298D01*
X21647Y14298D01*
X21670Y14294D01*
X21693Y14289D01*
X21693Y14289D01*
X21694Y14289D01*
X21779Y14289D01*
X21786Y14239D01*
X21761Y14233D01*
X21658Y14173D01*
X21574Y14089D01*
X21527Y14008D01*
X21936D01*
X22345D01*
X22298Y14089D01*
X22214Y14173D01*
X22111Y14233D01*
X22081Y14241D01*
X22087Y14291D01*
X24253Y14302D01*
X24275Y14307D01*
X24298Y14311D01*
X24298Y14311D01*
X24299Y14312D01*
X24318Y14325D01*
X24337Y14337D01*
X24573Y14574D01*
X24599Y14613D01*
X24609Y14659D01*
X24609Y14659D01*
Y17055D01*
X24659Y17082D01*
X24725Y17038D01*
X24808Y17003D01*
Y17561D01*
Y18119D01*
X24725Y18084D01*
X24628Y18020D01*
X24619Y18010D01*
X24555Y18017D01*
X24337Y18235D01*
X24298Y18261D01*
X24252Y18270D01*
X24252Y18270D01*
X23318D01*
X20873Y20715D01*
X20833Y20741D01*
X20787Y20750D01*
D02*
G37*
G36*
X53258Y16788D02*
Y16508D01*
X53538D01*
X53538Y16509D01*
X53471Y16625D01*
X53375Y16721D01*
X53259Y16788D01*
X53258Y16788D01*
D02*
G37*
G36*
X51364D02*
X51363Y16788D01*
X51247Y16721D01*
X51151Y16625D01*
X51084Y16509D01*
X51084Y16508D01*
X51364D01*
Y16788D01*
D02*
G37*
G36*
X47198Y16497D02*
Y16258D01*
X47392D01*
X47387Y16296D01*
X47357Y16367D01*
X47310Y16429D01*
X47248Y16476D01*
X47198Y16497D01*
D02*
G37*
G36*
X41174D02*
X41124Y16476D01*
X41062Y16429D01*
X41015Y16367D01*
X40985Y16296D01*
X40980Y16258D01*
X41174D01*
Y16497D01*
D02*
G37*
G36*
X31258Y16545D02*
Y16133D01*
X31471D01*
Y16256D01*
X31461Y16335D01*
X31430Y16408D01*
X31382Y16471D01*
X31319Y16520D01*
X31258Y16545D01*
D02*
G37*
G36*
X53538Y16114D02*
X53258D01*
Y15834D01*
X53259Y15834D01*
X53375Y15901D01*
X53471Y15997D01*
X53538Y16113D01*
X53538Y16114D01*
D02*
G37*
G36*
X51364D02*
X51084D01*
X51084Y16113D01*
X51151Y15997D01*
X51247Y15901D01*
X51363Y15834D01*
X51364Y15834D01*
Y16114D01*
D02*
G37*
G36*
X47392Y15864D02*
X47198D01*
Y15625D01*
X47248Y15646D01*
X47310Y15693D01*
X47357Y15755D01*
X47387Y15826D01*
X47392Y15864D01*
D02*
G37*
G36*
X41174D02*
X40980D01*
X40985Y15826D01*
X41015Y15755D01*
X41062Y15693D01*
X41124Y15646D01*
X41174Y15625D01*
Y15864D01*
D02*
G37*
G36*
X31471Y15739D02*
X31258D01*
Y15327D01*
X31319Y15352D01*
X31382Y15401D01*
X31430Y15464D01*
X31461Y15537D01*
X31471Y15616D01*
Y15739D01*
D02*
G37*
G36*
X14758Y15474D02*
Y15008D01*
X15224D01*
X15224Y15012D01*
X15172Y15137D01*
X15096Y15250D01*
X15000Y15346D01*
X14887Y15422D01*
X14762Y15474D01*
X14758Y15474D01*
D02*
G37*
G36*
X14364D02*
X14360Y15474D01*
X14235Y15422D01*
X14122Y15346D01*
X14026Y15250D01*
X13950Y15137D01*
X13899Y15012D01*
X13898Y15008D01*
X14364D01*
Y15474D01*
D02*
G37*
G36*
X45508Y14538D02*
Y14258D01*
X45788D01*
X45788Y14259D01*
X45721Y14375D01*
X45625Y14471D01*
X45509Y14538D01*
X45508Y14538D01*
D02*
G37*
G36*
X45114D02*
X45113Y14538D01*
X44997Y14471D01*
X44901Y14375D01*
X44834Y14259D01*
X44834Y14258D01*
X45114D01*
Y14538D01*
D02*
G37*
G36*
X41258D02*
Y14258D01*
X41538D01*
X41538Y14259D01*
X41471Y14375D01*
X41375Y14471D01*
X41259Y14538D01*
X41258Y14538D01*
D02*
G37*
G36*
X40864D02*
X40863Y14538D01*
X40747Y14471D01*
X40651Y14375D01*
X40584Y14259D01*
X40584Y14258D01*
X40864D01*
Y14538D01*
D02*
G37*
G36*
X38633D02*
Y14258D01*
X38913D01*
X38913Y14259D01*
X38846Y14375D01*
X38750Y14471D01*
X38634Y14538D01*
X38633Y14538D01*
D02*
G37*
G36*
X38239D02*
X38238Y14538D01*
X38122Y14471D01*
X38026Y14375D01*
X37959Y14259D01*
X37959Y14258D01*
X38239D01*
Y14538D01*
D02*
G37*
G36*
X15224Y14614D02*
X14758D01*
Y14148D01*
X14762Y14149D01*
X14887Y14200D01*
X15000Y14276D01*
X15096Y14372D01*
X15172Y14485D01*
X15224Y14610D01*
X15224Y14614D01*
D02*
G37*
G36*
X14364D02*
X13898D01*
X13899Y14610D01*
X13950Y14485D01*
X14026Y14372D01*
X14122Y14276D01*
X14235Y14200D01*
X14360Y14149D01*
X14364Y14148D01*
Y14614D01*
D02*
G37*
G36*
X47368Y14494D02*
X47254D01*
X47144Y14465D01*
X47045Y14408D01*
X46964Y14327D01*
X46907Y14228D01*
X46878Y14118D01*
Y14004D01*
X46907Y13894D01*
X46964Y13795D01*
X47045Y13714D01*
X47144Y13657D01*
X47254Y13628D01*
X47368D01*
X47478Y13657D01*
X47577Y13714D01*
X47658Y13795D01*
X47715Y13894D01*
X47744Y14004D01*
Y14118D01*
X47715Y14228D01*
X47658Y14327D01*
X47577Y14408D01*
X47478Y14465D01*
X47368Y14494D01*
D02*
G37*
G36*
X43118D02*
X43004D01*
X42894Y14465D01*
X42795Y14408D01*
X42714Y14327D01*
X42657Y14228D01*
X42628Y14118D01*
Y14004D01*
X42657Y13894D01*
X42714Y13795D01*
X42795Y13714D01*
X42894Y13657D01*
X43004Y13628D01*
X43118D01*
X43228Y13657D01*
X43327Y13714D01*
X43408Y13795D01*
X43465Y13894D01*
X43494Y14004D01*
Y14118D01*
X43465Y14228D01*
X43408Y14327D01*
X43327Y14408D01*
X43228Y14465D01*
X43118Y14494D01*
D02*
G37*
G36*
X37493D02*
X37379D01*
X37269Y14465D01*
X37170Y14408D01*
X37089Y14327D01*
X37032Y14228D01*
X37003Y14118D01*
Y14004D01*
X37032Y13894D01*
X37089Y13795D01*
X37170Y13714D01*
X37269Y13657D01*
X37379Y13628D01*
X37493D01*
X37603Y13657D01*
X37702Y13714D01*
X37783Y13795D01*
X37840Y13894D01*
X37869Y14004D01*
Y14118D01*
X37840Y14228D01*
X37783Y14327D01*
X37702Y14408D01*
X37603Y14465D01*
X37493Y14494D01*
D02*
G37*
G36*
X36493D02*
X36379D01*
X36269Y14465D01*
X36170Y14408D01*
X36089Y14327D01*
X36032Y14228D01*
X36003Y14118D01*
Y14004D01*
X36032Y13894D01*
X36089Y13795D01*
X36170Y13714D01*
X36269Y13657D01*
X36379Y13628D01*
X36493D01*
X36603Y13657D01*
X36702Y13714D01*
X36783Y13795D01*
X36840Y13894D01*
X36869Y14004D01*
Y14118D01*
X36840Y14228D01*
X36783Y14327D01*
X36702Y14408D01*
X36603Y14465D01*
X36493Y14494D01*
D02*
G37*
G36*
X45788Y13864D02*
X45508D01*
Y13584D01*
X45509Y13584D01*
X45625Y13651D01*
X45721Y13747D01*
X45788Y13863D01*
X45788Y13864D01*
D02*
G37*
G36*
X45114D02*
X44834D01*
X44834Y13863D01*
X44901Y13747D01*
X44997Y13651D01*
X45113Y13584D01*
X45114Y13584D01*
Y13864D01*
D02*
G37*
G36*
X41538D02*
X41258D01*
Y13584D01*
X41259Y13584D01*
X41375Y13651D01*
X41471Y13747D01*
X41538Y13863D01*
X41538Y13864D01*
D02*
G37*
G36*
X40864D02*
X40584D01*
X40584Y13863D01*
X40651Y13747D01*
X40747Y13651D01*
X40863Y13584D01*
X40864Y13584D01*
Y13864D01*
D02*
G37*
G36*
X38913D02*
X38633D01*
Y13584D01*
X38634Y13584D01*
X38750Y13651D01*
X38846Y13747D01*
X38913Y13863D01*
X38913Y13864D01*
D02*
G37*
G36*
X38239D02*
X37959D01*
X37959Y13863D01*
X38026Y13747D01*
X38122Y13651D01*
X38238Y13584D01*
X38239Y13584D01*
Y13864D01*
D02*
G37*
G36*
X24196Y14156D02*
X24133D01*
Y13445D01*
X24460D01*
Y13892D01*
X24451Y13960D01*
X24425Y14024D01*
X24383Y14078D01*
X24328Y14120D01*
X24264Y14147D01*
X24196Y14156D01*
D02*
G37*
G36*
X23739D02*
X23676D01*
X23608Y14147D01*
X23544Y14120D01*
X23489Y14078D01*
X23447Y14024D01*
X23421Y13960D01*
X23412Y13892D01*
Y13445D01*
X23739D01*
Y14156D01*
D02*
G37*
G36*
X22345Y13614D02*
X22133D01*
Y13402D01*
X22214Y13449D01*
X22298Y13533D01*
X22345Y13614D01*
D02*
G37*
G36*
X21739D02*
X21527D01*
X21574Y13533D01*
X21658Y13449D01*
X21739Y13402D01*
Y13614D01*
D02*
G37*
G36*
X27821Y13624D02*
X27633D01*
Y13155D01*
X28114D01*
Y13331D01*
X28104Y13407D01*
X28075Y13477D01*
X28028Y13538D01*
X27967Y13584D01*
X27897Y13614D01*
X27821Y13624D01*
D02*
G37*
G36*
X27239D02*
X27051D01*
X26975Y13614D01*
X26905Y13584D01*
X26844Y13538D01*
X26798Y13477D01*
X26768Y13407D01*
X26758Y13331D01*
Y13155D01*
X27239D01*
Y13624D01*
D02*
G37*
G36*
X34505Y13348D02*
X34258D01*
Y12990D01*
X34350Y13008D01*
X34432Y13063D01*
X34486Y13144D01*
X34505Y13239D01*
Y13348D01*
D02*
G37*
G36*
X33864D02*
X33617D01*
Y13239D01*
X33636Y13144D01*
X33690Y13063D01*
X33772Y13008D01*
X33864Y12990D01*
Y13348D01*
D02*
G37*
G36*
X24460Y13051D02*
X24133D01*
Y12340D01*
X24196D01*
X24264Y12349D01*
X24328Y12376D01*
X24383Y12418D01*
X24425Y12472D01*
X24451Y12536D01*
X24460Y12604D01*
Y13051D01*
D02*
G37*
G36*
X23739D02*
X23412D01*
Y12604D01*
X23421Y12536D01*
X23447Y12472D01*
X23489Y12418D01*
X23544Y12376D01*
X23608Y12349D01*
X23676Y12340D01*
X23739D01*
Y13051D01*
D02*
G37*
G36*
X28114Y12761D02*
X27633D01*
Y12292D01*
X27821D01*
X27897Y12302D01*
X27967Y12331D01*
X28028Y12378D01*
X28075Y12438D01*
X28104Y12509D01*
X28114Y12584D01*
Y12761D01*
D02*
G37*
G36*
X27239D02*
X26758D01*
Y12584D01*
X26768Y12509D01*
X26798Y12438D01*
X26844Y12378D01*
X26905Y12331D01*
X26975Y12302D01*
X27051Y12292D01*
X27239D01*
Y12761D01*
D02*
G37*
%LPD*%
G36*
X25687Y37694D02*
X25201D01*
Y35694D01*
X21921D01*
Y37694D01*
X21435D01*
Y38446D01*
X25687D01*
Y37694D01*
D02*
G37*
G36*
X22953Y34488D02*
Y32205D01*
X22756Y32008D01*
X19803D01*
X19488Y31693D01*
Y31260D01*
X18465Y30236D01*
X17756D01*
X17402Y29882D01*
Y29488D01*
X17165Y29252D01*
X16811D01*
X16575Y29488D01*
Y30079D01*
X17244Y30748D01*
X18110D01*
X18740Y31378D01*
Y32008D01*
Y33346D01*
X18228Y33858D01*
X17756D01*
X17520Y34055D01*
Y34606D01*
X17717Y34803D01*
X22638D01*
X22953Y34488D01*
D02*
G37*
G36*
X16457Y34528D02*
Y29528D01*
X16181Y29252D01*
X15709D01*
X15433Y29528D01*
Y30748D01*
X14449Y31732D01*
X13307D01*
X13032Y32008D01*
Y34488D01*
X13386Y34843D01*
X16142D01*
X16457Y34528D01*
D02*
G37*
G36*
X28583Y34576D02*
Y30735D01*
X28409Y30591D01*
X27835D01*
X27677Y30748D01*
Y34606D01*
X27835Y34803D01*
X28419D01*
X28583Y34576D01*
D02*
G37*
G36*
X26811Y34449D02*
Y31181D01*
X26654Y31024D01*
X25551D01*
X24213Y32362D01*
Y34449D01*
X24449Y34685D01*
X26575D01*
X26811Y34449D01*
D02*
G37*
G36*
X30571Y34624D02*
Y31350D01*
X30420Y31220D01*
X29860D01*
X29685Y31364D01*
Y34606D01*
X29882Y34803D01*
X30398D01*
X30571Y34624D01*
D02*
G37*
G36*
X42886Y20336D02*
X42893Y20309D01*
X42905Y20288D01*
Y20151D01*
X42867Y20125D01*
X42819Y20053D01*
X42802Y19969D01*
Y19654D01*
X42819Y19569D01*
X42867Y19497D01*
X42938Y19450D01*
X43023Y19433D01*
X43219D01*
X43304Y19450D01*
X43376Y19497D01*
X43407Y19544D01*
X43466D01*
X43496Y19497D01*
X43568Y19450D01*
X43570Y19449D01*
Y19438D01*
X43584Y19369D01*
X43623Y19310D01*
X43783Y19151D01*
X43751Y19112D01*
X43736Y19122D01*
X43667Y19135D01*
X43652D01*
X43644Y19147D01*
X43569Y19197D01*
X43480Y19215D01*
X43343D01*
Y18955D01*
X42949D01*
Y19215D01*
X42811D01*
X42723Y19197D01*
X42648Y19147D01*
X42598Y19073D01*
X42580Y18984D01*
Y18929D01*
X42441D01*
X42428Y18990D01*
X42381Y19062D01*
X42309Y19110D01*
X42307Y19110D01*
Y19828D01*
X42830Y20351D01*
X42886Y20336D01*
D02*
G37*
G36*
X47087Y18898D02*
Y17244D01*
X46929Y17087D01*
X46378D01*
X46024Y17402D01*
Y18110D01*
X45669Y18504D01*
Y18858D01*
X45894Y19035D01*
X46949D01*
X47087Y18898D01*
D02*
G37*
G36*
X14882Y25335D02*
Y24859D01*
X14594Y24685D01*
X13307D01*
X13039Y24417D01*
Y17874D01*
X13386Y17480D01*
X14825D01*
X15098Y17132D01*
X15098Y16457D01*
X14825Y16220D01*
X12774D01*
X12008Y16929D01*
Y25118D01*
X12555Y25586D01*
X14633Y25593D01*
X14882Y25335D01*
D02*
G37*
G36*
X20433Y17008D02*
Y13223D01*
X20244Y12835D01*
X19304D01*
X19055Y13223D01*
Y16712D01*
X15675Y20000D01*
X14331D01*
X13937Y20276D01*
Y21220D01*
X14331Y21614D01*
X15827D01*
X20433Y17008D01*
D02*
G37*
G36*
X33187Y20763D02*
X32701D01*
Y18763D01*
X29421D01*
Y20763D01*
X28935D01*
Y21515D01*
X33187D01*
Y20763D01*
D02*
G37*
G36*
X34941Y17756D02*
Y14409D01*
X34547Y14016D01*
X33268D01*
X31693Y15591D01*
Y16476D01*
X33268Y18051D01*
X34547D01*
X34941Y17756D01*
D02*
G37*
G36*
X30512Y16693D02*
Y14980D01*
X30217Y14685D01*
X26811D01*
X25551Y15945D01*
Y17835D01*
X25748Y18032D01*
X29016D01*
X30512Y16693D01*
D02*
G37*
G36*
X23268Y18150D02*
X24252D01*
X24488Y17913D01*
Y14659D01*
X24252Y14423D01*
X21693Y14409D01*
X21299Y14803D01*
Y17598D01*
X19213Y19685D01*
Y20394D01*
X19449Y20630D01*
X20787D01*
X23268Y18150D01*
D02*
G37*
D10*
X45038Y21523D02*
X45743D01*
X45829Y21436D02*
X45936D01*
X45743Y21523D02*
X45829Y21436D01*
X45622Y17433D02*
Y18067D01*
X44455Y16687D02*
X44876D01*
X45622Y17433D01*
X44976Y18561D02*
X46670D01*
X46686Y17436D02*
Y18545D01*
X43687Y18561D02*
X43858Y18732D01*
X43890D01*
X43146Y18561D02*
X43687D01*
X43667Y18955D02*
X43890Y18732D01*
X43146Y18955D02*
X43667D01*
X44075Y18177D02*
X44117D01*
X44304Y18364D02*
X44976D01*
X44117Y18177D02*
X44304Y18364D01*
X43667Y17770D02*
X44065Y18167D01*
X44075Y18177D01*
X43146Y18167D02*
X44065D01*
X43667Y17356D02*
Y17770D01*
X44455Y17435D02*
X44456Y17434D01*
X44893D02*
X44894Y17433D01*
X44976Y18167D02*
X45522D01*
X45622Y18067D01*
X43173Y16673D02*
X43654D01*
X42500Y17346D02*
X43173Y16673D01*
X42500Y17346D02*
Y18224D01*
X42640Y18364D02*
X43146D01*
X42500Y18224D02*
X42640Y18364D01*
X49370Y15472D02*
Y18622D01*
X49749Y19001D02*
X50561D01*
X49370Y18622D02*
X49749Y19001D01*
X49370Y15472D02*
X50532Y14311D01*
X49759Y18386D02*
X49767Y18378D01*
X50554D01*
X50532Y14311D02*
X51996D01*
X44431Y18758D02*
X44976D01*
X43751Y19438D02*
X44431Y18758D01*
X43751Y19438D02*
Y19811D01*
X44510Y18955D02*
X44976D01*
X44371Y19094D02*
Y19811D01*
Y19849D01*
Y19094D02*
X44510Y18955D01*
X46670Y18561D02*
X46686Y18545D01*
X50554Y18378D02*
X50561Y18371D01*
X50561Y19001D02*
X51561D01*
X50561Y19001D02*
X50561Y19001D01*
X43425Y21202D02*
Y22205D01*
X42126Y19903D02*
X43425Y21202D01*
X42126Y18749D02*
Y19903D01*
Y18749D02*
X42831D01*
X42841Y18758D01*
X43146D01*
X44488Y23819D02*
X44495Y23826D01*
X45038D01*
X48892Y29561D02*
X51561D01*
X48543Y28740D02*
Y29213D01*
X48892Y29561D01*
X44213Y22008D02*
Y28740D01*
X43976Y20206D02*
X44199Y19984D01*
X43976Y20206D02*
Y22598D01*
X43517Y23058D02*
X43976Y22598D01*
X44213Y22008D02*
X44442Y21779D01*
X45038D01*
X43819Y24606D02*
Y31496D01*
X43294Y24082D02*
X43819Y24606D01*
X43418Y22802D02*
X43751Y22469D01*
Y19811D02*
Y22469D01*
X44236Y19984D02*
X44371Y19849D01*
X44199Y19984D02*
X44236D01*
X42834Y23058D02*
X43517D01*
X50561Y19001D02*
Y24163D01*
X48307Y25079D02*
X49646D01*
X50561Y24163D01*
X45775Y22546D02*
X48307Y25079D01*
X45038Y22546D02*
X45775D01*
X47913Y29331D02*
X49961Y31378D01*
Y32731D02*
X50603Y33374D01*
X49961Y31378D02*
Y32731D01*
X50603Y33374D02*
X51561D01*
X47913Y25276D02*
Y29331D01*
X47677Y25354D02*
Y29921D01*
X48780Y31496D02*
Y35236D01*
X50604Y37061D01*
X48150Y25197D02*
Y29173D01*
X45755Y22802D02*
X48150Y25197D01*
Y29173D02*
X50037Y31061D01*
X45038Y22802D02*
X45755D01*
X45696Y23058D02*
X47913Y25276D01*
X45038Y23058D02*
X45696D01*
X50037Y31061D02*
X52061D01*
X45038Y23314D02*
X45637D01*
X47677Y25354D01*
X45038Y23570D02*
X45578D01*
X47402Y25394D01*
Y29528D01*
X45775Y24082D02*
X47097Y25404D01*
Y34050D01*
X45038Y24082D02*
X45775D01*
X45716Y24338D02*
X46890Y25512D01*
Y30354D01*
X46097Y31147D02*
X46890Y30354D01*
X45038Y24338D02*
X45716D01*
X45906Y24843D02*
Y30512D01*
X45038Y24849D02*
X45639D01*
X45709Y24919D02*
Y30438D01*
X45639Y24849D02*
X45709Y24919D01*
X45656Y24594D02*
X45906Y24843D01*
X45038Y24594D02*
X45656D01*
X43543Y32874D02*
X45906Y30512D01*
X42097Y34050D02*
X45709Y30438D01*
X46575Y29528D02*
Y30394D01*
X46097Y31147D02*
Y34050D01*
X45097Y31871D02*
X46575Y30394D01*
X45097Y31871D02*
Y34050D01*
Y37500D01*
X46260Y29921D02*
Y30433D01*
X43740Y32953D02*
X46260Y30433D01*
X43740Y32953D02*
Y33693D01*
X44097Y34050D01*
Y37500D01*
X43097Y34050D02*
Y37500D01*
X43543Y32874D02*
Y33604D01*
X43097Y34050D02*
X43543Y33604D01*
X45038Y22034D02*
X46838D01*
X47186Y21686D01*
X46790Y22290D02*
X47186Y22686D01*
X45038Y22290D02*
X46790D01*
X42087Y20984D02*
Y21313D01*
X42296Y21523D01*
X42212Y21779D02*
X42834D01*
X42296Y21523D02*
X42834D01*
X41378Y20945D02*
X42212Y21779D01*
X40814Y20945D02*
X41378D01*
X45591Y31890D02*
Y34372D01*
X42097Y34050D02*
Y37500D01*
X50604Y37061D02*
X51561D01*
X42834Y24082D02*
X43294D01*
X43543Y24685D02*
Y31890D01*
X42834Y24338D02*
X43196D01*
X43543Y24685D01*
X43090Y24594D02*
X43268Y24772D01*
Y32283D01*
X42834Y24594D02*
X43090D01*
X45591Y34372D02*
X46097Y34879D01*
Y37500D01*
X46575Y34561D02*
X47097Y35084D01*
X46575Y32283D02*
Y34561D01*
X47097Y35084D02*
Y37500D01*
X40797Y20961D02*
X40814Y20945D01*
X40797Y22883D02*
X41369D01*
X42218Y22034D02*
X42834D01*
X41369Y22883D02*
X42218Y22034D01*
X41614Y23307D02*
X42047Y22874D01*
X41614Y23307D02*
Y26693D01*
X41791Y23563D02*
Y28248D01*
X39606Y30433D02*
X41791Y28248D01*
X42323Y24919D02*
X42392Y24849D01*
X41437Y23122D02*
X42269Y22290D01*
X41968Y23740D02*
Y28348D01*
X41437Y23122D02*
Y25650D01*
X42323Y24919D02*
Y28543D01*
X41371Y26936D02*
X41614Y26693D01*
X40197Y30669D02*
X42323Y28543D01*
X42392Y24849D02*
X42834D01*
X42146Y24035D02*
X42355Y23826D01*
X41791Y23563D02*
X42040Y23314D01*
X42146Y24035D02*
Y28445D01*
X40000Y30591D02*
X42146Y28445D01*
X41249Y25838D02*
X41437Y25650D01*
X41968Y23740D02*
X42139Y23570D01*
X39803Y30513D02*
X41968Y28348D01*
X42355Y23826D02*
X42834D01*
X42139Y23570D02*
X42834D01*
X42040Y23314D02*
X42834D01*
X40909Y25838D02*
X41249D01*
X40811Y25936D02*
X40909Y25838D01*
X42269Y22290D02*
X42834D01*
X42047Y22874D02*
X42047D01*
X37436Y24798D02*
X39574Y26936D01*
X40811D01*
X37436Y22811D02*
Y24798D01*
X42047Y22874D02*
X42375Y22546D01*
X42834D01*
X40811Y26936D02*
X41371D01*
X42834Y22802D02*
X43418D01*
X39606Y30433D02*
Y32541D01*
X38097Y34050D02*
X39606Y32541D01*
X39803Y30513D02*
Y33344D01*
X39097Y34050D02*
X39803Y33344D01*
X40000Y30591D02*
Y33953D01*
X40197Y30669D02*
Y33150D01*
X41097Y34050D01*
X40000Y33953D02*
X40097Y34050D01*
Y37500D01*
X38097Y34050D02*
Y37500D01*
X39097Y34050D02*
Y37500D01*
X41097Y34050D02*
Y37500D01*
D15*
X54061Y18342D02*
D03*
Y19031D02*
D03*
D16*
X26186Y31577D02*
D03*
Y30545D02*
D03*
X34061Y14577D02*
D03*
Y13545D02*
D03*
D17*
X23936Y15374D02*
D03*
Y13248D02*
D03*
X13561Y32624D02*
D03*
Y30498D02*
D03*
D18*
X27436Y12958D02*
D03*
Y15414D02*
D03*
X19936Y30208D02*
D03*
Y32664D02*
D03*
D19*
X30061Y15936D02*
D03*
X31061D02*
D03*
X32061D02*
D03*
X22561Y32867D02*
D03*
X23561D02*
D03*
X24561D02*
D03*
D20*
X52936Y36246D02*
D03*
Y36876D02*
D03*
X53061Y19001D02*
D03*
Y18371D02*
D03*
X50561Y18371D02*
D03*
Y19001D02*
D03*
X51561Y19001D02*
D03*
Y18371D02*
D03*
X53061Y32496D02*
D03*
Y33126D02*
D03*
D21*
X43121Y19811D02*
D03*
X43751D02*
D03*
X45001D02*
D03*
X44371D02*
D03*
X41496Y18749D02*
D03*
X42126D02*
D03*
X51996Y14311D02*
D03*
X52626D02*
D03*
X41371Y16061D02*
D03*
X42001D02*
D03*
X47001D02*
D03*
X46371D02*
D03*
D22*
X43146Y18758D02*
D03*
Y18561D02*
D03*
Y18364D02*
D03*
Y18167D02*
D03*
Y18955D02*
D03*
X44976D02*
D03*
Y18758D02*
D03*
Y18561D02*
D03*
Y18364D02*
D03*
Y18167D02*
D03*
D23*
X46670Y18561D02*
D03*
X47702D02*
D03*
D24*
X42834Y24849D02*
D03*
Y24594D02*
D03*
Y24338D02*
D03*
Y24082D02*
D03*
Y23826D02*
D03*
Y23570D02*
D03*
Y23314D02*
D03*
Y23058D02*
D03*
Y22802D02*
D03*
Y22546D02*
D03*
Y22290D02*
D03*
Y22034D02*
D03*
Y21779D02*
D03*
Y21523D02*
D03*
X45038D02*
D03*
Y24849D02*
D03*
Y24594D02*
D03*
Y24338D02*
D03*
Y24082D02*
D03*
Y23826D02*
D03*
Y23570D02*
D03*
Y23314D02*
D03*
Y23058D02*
D03*
Y22802D02*
D03*
Y22546D02*
D03*
Y22290D02*
D03*
Y22034D02*
D03*
Y21779D02*
D03*
D25*
X44455Y17435D02*
D03*
Y16687D02*
D03*
X43667D02*
D03*
D26*
Y17356D02*
D03*
D48*
X51561Y17311D02*
Y18371D01*
X26186Y33115D02*
Y34311D01*
X26181Y33110D02*
X26186Y33115D01*
X29093Y15414D02*
X29094Y15413D01*
X27436Y15414D02*
X29093D01*
X51561Y36061D02*
X51593D01*
X51778Y36246D02*
X52936D01*
X51593Y36061D02*
X51778Y36246D01*
X51561Y32374D02*
X51593D01*
X51716Y32496D01*
X53061D01*
X52076Y15356D02*
X52307Y15587D01*
X51606Y15356D02*
X52076D01*
X52307Y15587D02*
Y17035D01*
X52538Y17266D01*
X53016D01*
X53061Y17311D01*
X51561Y15311D02*
X51606Y15356D01*
X53061Y17311D02*
Y18371D01*
X54032D02*
X54061Y18342D01*
X53061Y18371D02*
X54032D01*
X53061Y19001D02*
Y19636D01*
X53071Y19646D01*
X60561Y38061D02*
X61024Y37598D01*
X59061Y38061D02*
X60561D01*
X61024Y36098D02*
Y37598D01*
Y36098D02*
X61061Y36061D01*
D49*
X58061Y33061D02*
X61061D01*
D50*
X42031Y14091D02*
Y16031D01*
X42001Y16061D02*
X42031Y16031D01*
Y14091D02*
X42061Y14061D01*
X46341Y14091D02*
Y16031D01*
X46371Y16061D01*
X46311Y14061D02*
X46341Y14091D01*
X44640Y16061D02*
X46371D01*
X44455Y16246D02*
Y16687D01*
Y16246D02*
X44640Y16061D01*
X43661Y16673D02*
X43667Y16667D01*
X43654Y16673D02*
X43661D01*
X43667Y16266D02*
Y16667D01*
X43463Y16061D02*
X43667Y16266D01*
X42001Y16061D02*
X43463D01*
X34055Y16772D02*
X34058Y16775D01*
Y17558D02*
X34061Y17561D01*
X44993Y19819D02*
Y20400D01*
X43126Y20403D02*
X43131Y20408D01*
X43126Y19816D02*
Y20403D01*
X43121Y19811D02*
X43126Y19816D01*
X44993Y19819D02*
X45001Y19811D01*
X44985Y20408D02*
X44993Y20400D01*
X41488Y19350D02*
X41492Y19346D01*
Y18752D02*
X41496Y18749D01*
X41492Y18752D02*
Y19346D01*
X44456Y17434D02*
X44893D01*
X52946Y14311D02*
X53061Y14426D01*
X52626Y14311D02*
X52946D01*
X53061Y14426D02*
Y15311D01*
D51*
X60994Y22061D02*
X64186D01*
X60106Y22949D02*
X60994Y22061D01*
X61417Y27362D02*
X62710Y28655D01*
X60841Y25311D02*
X61417Y25888D01*
X54516Y25311D02*
X60841D01*
X61417Y25888D02*
Y27362D01*
X62710Y28655D02*
X64186D01*
D52*
X54930Y23311D02*
X55293Y22949D01*
X53061Y23311D02*
X54930D01*
X55293Y22949D02*
X55303D01*
X54930Y27311D02*
X55293Y27673D01*
X53061Y27311D02*
X54930D01*
X55293Y27673D02*
X55303D01*
D53*
X65906Y12756D02*
D03*
Y38346D02*
D03*
X11614D02*
D03*
Y12756D02*
D03*
D54*
X38097Y37500D02*
D03*
X40097D02*
D03*
X42097D02*
D03*
X44097D02*
D03*
X48097D02*
D03*
X47097D02*
D03*
X46097D02*
D03*
X45097D02*
D03*
X43097D02*
D03*
X41097D02*
D03*
X39097D02*
D03*
X37097D02*
D03*
X38097Y34050D02*
D03*
X40097D02*
D03*
X42097D02*
D03*
X44097D02*
D03*
X48097D02*
D03*
X47097D02*
D03*
X46097D02*
D03*
X45097D02*
D03*
X43097D02*
D03*
X41097D02*
D03*
X39097D02*
D03*
X37097D02*
D03*
X43061Y14061D02*
D03*
X42061D02*
D03*
X41061D02*
D03*
X47311D02*
D03*
X46311D02*
D03*
X45311D02*
D03*
X14500Y25157D02*
D03*
Y27125D02*
D03*
X64186Y24030D02*
D03*
Y22061D02*
D03*
X51561Y15311D02*
D03*
Y17311D02*
D03*
Y16311D02*
D03*
X56061Y33061D02*
D03*
X57061D02*
D03*
X58061D02*
D03*
X53061Y27311D02*
D03*
Y23311D02*
D03*
X51061Y21061D02*
D03*
X52061D02*
D03*
X53061D02*
D03*
X38436Y14061D02*
D03*
X37436D02*
D03*
X36436D02*
D03*
X64186Y28655D02*
D03*
Y26686D02*
D03*
X47186Y22686D02*
D03*
Y21686D02*
D03*
X40811Y24936D02*
D03*
Y25936D02*
D03*
Y26936D02*
D03*
Y27936D02*
D03*
X17936Y29686D02*
D03*
X16936D02*
D03*
X15936D02*
D03*
X55303Y22949D02*
D03*
Y27673D02*
D03*
X61061Y36061D02*
D03*
Y33061D02*
D03*
X53061Y17311D02*
D03*
Y15311D02*
D03*
Y16311D02*
D03*
D55*
X19750Y20000D02*
D03*
Y15500D02*
D03*
Y13500D02*
D03*
Y22000D02*
D03*
X25639Y26061D02*
D03*
X22686D02*
D03*
X17436Y31831D02*
D03*
X15936Y31811D02*
D03*
X60106Y22949D02*
D03*
Y27673D02*
D03*
X28130Y34311D02*
D03*
X30130D02*
D03*
X29130D02*
D03*
X16005D02*
D03*
X18005D02*
D03*
X17005D02*
D03*
X24005Y17561D02*
D03*
X26005D02*
D03*
X25005D02*
D03*
D56*
X47686Y17436D02*
D03*
X46686D02*
D03*
X13561Y35311D02*
D03*
Y34311D02*
D03*
X19936Y35311D02*
D03*
Y34311D02*
D03*
X26186Y35311D02*
D03*
Y34311D02*
D03*
X21936Y13811D02*
D03*
Y14811D02*
D03*
X27755Y18436D02*
D03*
Y17436D02*
D03*
X34061Y18561D02*
D03*
Y17561D02*
D03*
X51561Y36061D02*
D03*
Y37061D02*
D03*
Y28561D02*
D03*
Y29561D02*
D03*
X59061Y38061D02*
D03*
X53061D02*
D03*
X51561Y22686D02*
D03*
Y27686D02*
D03*
X37436Y20811D02*
D03*
Y22811D02*
D03*
X30061Y30774D02*
D03*
Y31561D02*
D03*
X53061Y29436D02*
D03*
X59061D02*
D03*
X40797Y20961D02*
D03*
Y22883D02*
D03*
X51561Y32374D02*
D03*
Y33374D02*
D03*
X52061Y31061D02*
D03*
X57061D02*
D03*
X45936Y20436D02*
D03*
Y21436D02*
D03*
D57*
X14561Y14811D02*
D03*
Y16811D02*
D03*
Y20811D02*
D03*
Y18811D02*
D03*
X54516Y25311D02*
D03*
D58*
X64961Y37402D02*
D03*
X65945Y35433D02*
D03*
X64961Y33465D02*
D03*
X65945Y31496D02*
D03*
X64961Y29528D02*
D03*
X65945Y27559D02*
D03*
X64961Y25591D02*
D03*
X65945Y23622D02*
D03*
X64961Y21654D02*
D03*
X65945Y19685D02*
D03*
X64961Y17717D02*
D03*
X65945Y15748D02*
D03*
X64961Y13780D02*
D03*
X62992Y37402D02*
D03*
X63976Y35433D02*
D03*
X62992Y33465D02*
D03*
X63976Y31496D02*
D03*
X62992Y29528D02*
D03*
X63976Y27559D02*
D03*
X62992Y25591D02*
D03*
X63976Y19685D02*
D03*
X62992Y17717D02*
D03*
X63976Y15748D02*
D03*
X62992Y13780D02*
D03*
X62008Y35433D02*
D03*
Y31496D02*
D03*
X61024Y29528D02*
D03*
X62008Y23622D02*
D03*
Y19685D02*
D03*
X61024Y17717D02*
D03*
X62008Y15748D02*
D03*
X61024Y13780D02*
D03*
X59055Y37402D02*
D03*
X60039Y35433D02*
D03*
Y31496D02*
D03*
X59055Y21654D02*
D03*
X60039Y19685D02*
D03*
X59055Y17717D02*
D03*
X60039Y15748D02*
D03*
X59055Y13780D02*
D03*
X58071Y31496D02*
D03*
X57087Y29528D02*
D03*
X58071Y27559D02*
D03*
Y23622D02*
D03*
X57087Y21654D02*
D03*
X58071Y19685D02*
D03*
X57087Y17717D02*
D03*
X58071Y15748D02*
D03*
X57087Y13780D02*
D03*
X55118Y37402D02*
D03*
X56102Y35433D02*
D03*
X55118Y33465D02*
D03*
X56102Y31496D02*
D03*
X55118Y29528D02*
D03*
X56102Y27559D02*
D03*
Y23622D02*
D03*
X55118Y21654D02*
D03*
X56102Y19685D02*
D03*
X55118Y17717D02*
D03*
X56102Y15748D02*
D03*
X55118Y13780D02*
D03*
X54134Y35433D02*
D03*
Y31496D02*
D03*
X53150Y25591D02*
D03*
X54134Y19685D02*
D03*
Y15748D02*
D03*
X53150Y13780D02*
D03*
X52165Y35433D02*
D03*
Y27559D02*
D03*
X51181Y25591D02*
D03*
X52165Y23622D02*
D03*
X51181Y13780D02*
D03*
X49213Y37402D02*
D03*
X50197Y35433D02*
D03*
X49213Y33465D02*
D03*
Y25591D02*
D03*
Y21654D02*
D03*
X50197Y15748D02*
D03*
X49213Y13780D02*
D03*
X48228Y23622D02*
D03*
Y15748D02*
D03*
X46260Y19685D02*
D03*
X44291Y15748D02*
D03*
X41339Y33465D02*
D03*
X42323Y31496D02*
D03*
X41339Y21654D02*
D03*
X39370Y29528D02*
D03*
X40354Y23622D02*
D03*
X39370Y21654D02*
D03*
X40354Y19685D02*
D03*
X39370Y17717D02*
D03*
X40354Y15748D02*
D03*
X39370Y13780D02*
D03*
X37402Y33465D02*
D03*
X38386Y31496D02*
D03*
X37402Y29528D02*
D03*
Y25591D02*
D03*
X38386Y23622D02*
D03*
X37402Y21654D02*
D03*
X38386Y19685D02*
D03*
X37402Y17717D02*
D03*
X38386Y15748D02*
D03*
X35433Y37402D02*
D03*
X36417Y35433D02*
D03*
X35433Y33465D02*
D03*
X36417Y31496D02*
D03*
X35433Y29528D02*
D03*
X36417Y27559D02*
D03*
X35433Y25591D02*
D03*
X36417Y23622D02*
D03*
X35433Y21654D02*
D03*
X36417Y19685D02*
D03*
X35433Y17717D02*
D03*
Y13780D02*
D03*
X33465Y37402D02*
D03*
X34449Y35433D02*
D03*
X33465Y33465D02*
D03*
Y29528D02*
D03*
X34449Y27559D02*
D03*
X33465Y25591D02*
D03*
X34449Y23622D02*
D03*
X33465Y21654D02*
D03*
X34449Y19685D02*
D03*
X31496Y37402D02*
D03*
X32480Y35433D02*
D03*
X31496Y29528D02*
D03*
Y25591D02*
D03*
Y17717D02*
D03*
X29528Y37402D02*
D03*
X30512Y35433D02*
D03*
X29528Y29528D02*
D03*
X30512Y27559D02*
D03*
X29528Y25591D02*
D03*
X30512Y23622D02*
D03*
X29528Y13780D02*
D03*
X27559Y37402D02*
D03*
X28543Y35433D02*
D03*
Y27559D02*
D03*
X27559Y25591D02*
D03*
X28543Y23622D02*
D03*
X27559Y21654D02*
D03*
X28543Y19685D02*
D03*
X27559Y13780D02*
D03*
X25591Y37402D02*
D03*
X26575Y27559D02*
D03*
Y23622D02*
D03*
X25591Y21654D02*
D03*
X26575Y19685D02*
D03*
X25591Y13780D02*
D03*
X24606Y31496D02*
D03*
Y23622D02*
D03*
Y19685D02*
D03*
X21654Y37402D02*
D03*
X22638Y31496D02*
D03*
X19685Y37402D02*
D03*
X20669Y31496D02*
D03*
X17717Y37402D02*
D03*
X18701Y35433D02*
D03*
X17717Y33465D02*
D03*
Y25591D02*
D03*
Y21654D02*
D03*
X18701Y15748D02*
D03*
X17717Y13780D02*
D03*
X15748Y37402D02*
D03*
X16732Y35433D02*
D03*
X15748Y17717D02*
D03*
X16732Y15748D02*
D03*
X15748Y13780D02*
D03*
X13780Y37402D02*
D03*
X14764Y35433D02*
D03*
Y23622D02*
D03*
X13780Y21654D02*
D03*
X14764Y15748D02*
D03*
X13780Y13780D02*
D03*
X11811Y37402D02*
D03*
X12795Y35433D02*
D03*
X11811Y33465D02*
D03*
X12795Y31496D02*
D03*
X11811Y29528D02*
D03*
X12795Y27559D02*
D03*
X11811Y25591D02*
D03*
X12795Y15748D02*
D03*
X11811Y13780D02*
D03*
X20945Y33701D02*
D03*
Y34331D02*
D03*
X28150Y30914D02*
D03*
Y31701D02*
D03*
X26181Y33110D02*
D03*
X49759Y18386D02*
D03*
X29094Y15413D02*
D03*
X34055Y16772D02*
D03*
X43131Y20408D02*
D03*
X44985D02*
D03*
X41488Y19350D02*
D03*
X43890Y18732D02*
D03*
X44075Y18177D02*
D03*
X44894Y17433D02*
D03*
X53071Y19646D02*
D03*
X43425Y22205D02*
D03*
X44488Y23819D02*
D03*
X48543Y28740D02*
D03*
X44213D02*
D03*
X48780Y31496D02*
D03*
X47677Y29921D02*
D03*
X47402Y29528D02*
D03*
X46575D02*
D03*
X46260Y29921D02*
D03*
X42087Y20984D02*
D03*
X45591Y31890D02*
D03*
X43819Y31496D02*
D03*
X43543Y31890D02*
D03*
X43268Y32283D02*
D03*
X46575D02*
D03*
X42047Y22874D02*
D03*
M02*
