G04*
G04 #@! TF.GenerationSoftware,Altium Limited,Altium Designer,21.9.2 (33)*
G04*
G04 Layer_Color=255*
%FSLAX24Y24*%
%MOIN*%
G70*
G04*
G04 #@! TF.SameCoordinates,D973DA56-E0BB-4DEA-AE19-888B2019222A*
G04*
G04*
G04 #@! TF.FilePolarity,Positive*
G04*
G01*
G75*
G04:AMPARAMS|DCode=15|XSize=59.1mil|YSize=49.2mil|CornerRadius=12.3mil|HoleSize=0mil|Usage=FLASHONLY|Rotation=180.000|XOffset=0mil|YOffset=0mil|HoleType=Round|Shape=RoundedRectangle|*
%AMROUNDEDRECTD15*
21,1,0.0591,0.0246,0,0,180.0*
21,1,0.0344,0.0492,0,0,180.0*
1,1,0.0246,-0.0172,0.0123*
1,1,0.0246,0.0172,0.0123*
1,1,0.0246,0.0172,-0.0123*
1,1,0.0246,-0.0172,-0.0123*
%
%ADD15ROUNDEDRECTD15*%
G04:AMPARAMS|DCode=20|XSize=51.2mil|YSize=39.4mil|CornerRadius=9.8mil|HoleSize=0mil|Usage=FLASHONLY|Rotation=0.000|XOffset=0mil|YOffset=0mil|HoleType=Round|Shape=RoundedRectangle|*
%AMROUNDEDRECTD20*
21,1,0.0512,0.0197,0,0,0.0*
21,1,0.0315,0.0394,0,0,0.0*
1,1,0.0197,0.0157,-0.0098*
1,1,0.0197,-0.0157,-0.0098*
1,1,0.0197,-0.0157,0.0098*
1,1,0.0197,0.0157,0.0098*
%
%ADD20ROUNDEDRECTD20*%
%ADD53C,0.1260*%
%ADD54C,0.0630*%
%ADD55C,0.0787*%
%ADD56C,0.0512*%
%ADD57C,0.0984*%
G04:AMPARAMS|DCode=59|XSize=35.4mil|YSize=31.5mil|CornerRadius=7.9mil|HoleSize=0mil|Usage=FLASHONLY|Rotation=180.000|XOffset=0mil|YOffset=0mil|HoleType=Round|Shape=RoundedRectangle|*
%AMROUNDEDRECTD59*
21,1,0.0354,0.0157,0,0,180.0*
21,1,0.0197,0.0315,0,0,180.0*
1,1,0.0157,-0.0098,0.0079*
1,1,0.0157,0.0098,0.0079*
1,1,0.0157,0.0098,-0.0079*
1,1,0.0157,-0.0098,-0.0079*
%
%ADD59ROUNDEDRECTD59*%
D15*
X38311Y21467D02*
D03*
Y22156D02*
D03*
X45936Y22217D02*
D03*
Y22906D02*
D03*
D20*
X42061Y24126D02*
D03*
Y23496D02*
D03*
D53*
X65906Y12756D02*
D03*
Y38346D02*
D03*
X11614D02*
D03*
Y12756D02*
D03*
D54*
X38097Y37500D02*
D03*
X40097D02*
D03*
X42097D02*
D03*
X44097D02*
D03*
X48097D02*
D03*
X47097D02*
D03*
X46097D02*
D03*
X45097D02*
D03*
X43097D02*
D03*
X41097D02*
D03*
X39097D02*
D03*
X37097D02*
D03*
X38097Y34050D02*
D03*
X40097D02*
D03*
X42097D02*
D03*
X44097D02*
D03*
X48097D02*
D03*
X47097D02*
D03*
X46097D02*
D03*
X45097D02*
D03*
X43097D02*
D03*
X41097D02*
D03*
X39097D02*
D03*
X37097D02*
D03*
X43061Y14061D02*
D03*
X42061D02*
D03*
X41061D02*
D03*
X47311D02*
D03*
X46311D02*
D03*
X45311D02*
D03*
X14500Y25157D02*
D03*
Y27125D02*
D03*
X64186Y24030D02*
D03*
Y22061D02*
D03*
X51561Y15311D02*
D03*
Y17311D02*
D03*
Y16311D02*
D03*
X56061Y33061D02*
D03*
X57061D02*
D03*
X58061D02*
D03*
X53061Y27311D02*
D03*
Y23311D02*
D03*
X51061Y21061D02*
D03*
X52061D02*
D03*
X53061D02*
D03*
X38436Y14061D02*
D03*
X37436D02*
D03*
X36436D02*
D03*
X64186Y28655D02*
D03*
Y26686D02*
D03*
X47186Y22686D02*
D03*
Y21686D02*
D03*
X40811Y24936D02*
D03*
Y25936D02*
D03*
Y26936D02*
D03*
Y27936D02*
D03*
X17936Y29686D02*
D03*
X16936D02*
D03*
X15936D02*
D03*
X55303Y22949D02*
D03*
Y27673D02*
D03*
X61061Y36061D02*
D03*
Y33061D02*
D03*
X53061Y17311D02*
D03*
Y15311D02*
D03*
Y16311D02*
D03*
D55*
X19750Y20000D02*
D03*
Y15500D02*
D03*
Y13500D02*
D03*
Y22000D02*
D03*
X25639Y26061D02*
D03*
X22686D02*
D03*
X17436Y31831D02*
D03*
X15936Y31811D02*
D03*
X60106Y22949D02*
D03*
Y27673D02*
D03*
X28130Y34311D02*
D03*
X30130D02*
D03*
X29130D02*
D03*
X16005D02*
D03*
X18005D02*
D03*
X17005D02*
D03*
X24005Y17561D02*
D03*
X26005D02*
D03*
X25005D02*
D03*
D56*
X47686Y17436D02*
D03*
X46686D02*
D03*
X13561Y35311D02*
D03*
Y34311D02*
D03*
X19936Y35311D02*
D03*
Y34311D02*
D03*
X26186Y35311D02*
D03*
Y34311D02*
D03*
X21936Y13811D02*
D03*
Y14811D02*
D03*
X27755Y18436D02*
D03*
Y17436D02*
D03*
X34061Y18561D02*
D03*
Y17561D02*
D03*
X51561Y36061D02*
D03*
Y37061D02*
D03*
Y28561D02*
D03*
Y29561D02*
D03*
X59061Y38061D02*
D03*
X53061D02*
D03*
X51561Y22686D02*
D03*
Y27686D02*
D03*
X37436Y20811D02*
D03*
Y22811D02*
D03*
X30061Y30774D02*
D03*
Y31561D02*
D03*
X53061Y29436D02*
D03*
X59061D02*
D03*
X40797Y20961D02*
D03*
Y22883D02*
D03*
X51561Y32374D02*
D03*
Y33374D02*
D03*
X52061Y31061D02*
D03*
X57061D02*
D03*
X45936Y20436D02*
D03*
Y21436D02*
D03*
D57*
X14561Y14811D02*
D03*
Y16811D02*
D03*
Y20811D02*
D03*
Y18811D02*
D03*
X54516Y25311D02*
D03*
D59*
X40061Y20973D02*
D03*
Y21524D02*
D03*
X40061Y22899D02*
D03*
Y22348D02*
D03*
M02*
