G04*
G04 #@! TF.GenerationSoftware,Altium Limited,Altium Designer,21.9.2 (33)*
G04*
G04 Layer_Physical_Order=2*
G04 Layer_Color=255*
%FSLAX24Y24*%
%MOIN*%
G70*
G04*
G04 #@! TF.SameCoordinates,D973DA56-E0BB-4DEA-AE19-888B2019222A*
G04*
G04*
G04 #@! TF.FilePolarity,Positive*
G04*
G01*
G75*
%ADD10C,0.0118*%
G04:AMPARAMS|DCode=15|XSize=59.1mil|YSize=49.2mil|CornerRadius=12.3mil|HoleSize=0mil|Usage=FLASHONLY|Rotation=180.000|XOffset=0mil|YOffset=0mil|HoleType=Round|Shape=RoundedRectangle|*
%AMROUNDEDRECTD15*
21,1,0.0591,0.0246,0,0,180.0*
21,1,0.0344,0.0492,0,0,180.0*
1,1,0.0246,-0.0172,0.0123*
1,1,0.0246,0.0172,0.0123*
1,1,0.0246,0.0172,-0.0123*
1,1,0.0246,-0.0172,-0.0123*
%
%ADD15ROUNDEDRECTD15*%
G04:AMPARAMS|DCode=20|XSize=51.2mil|YSize=39.4mil|CornerRadius=9.8mil|HoleSize=0mil|Usage=FLASHONLY|Rotation=0.000|XOffset=0mil|YOffset=0mil|HoleType=Round|Shape=RoundedRectangle|*
%AMROUNDEDRECTD20*
21,1,0.0512,0.0197,0,0,0.0*
21,1,0.0315,0.0394,0,0,0.0*
1,1,0.0197,0.0157,-0.0098*
1,1,0.0197,-0.0157,-0.0098*
1,1,0.0197,-0.0157,0.0098*
1,1,0.0197,0.0157,0.0098*
%
%ADD20ROUNDEDRECTD20*%
%ADD48C,0.0394*%
%ADD52C,0.0591*%
%ADD53C,0.1260*%
%ADD54C,0.0630*%
%ADD55C,0.0787*%
%ADD56C,0.0512*%
%ADD57C,0.0984*%
%ADD58C,0.0276*%
G04:AMPARAMS|DCode=59|XSize=35.4mil|YSize=31.5mil|CornerRadius=7.9mil|HoleSize=0mil|Usage=FLASHONLY|Rotation=180.000|XOffset=0mil|YOffset=0mil|HoleType=Round|Shape=RoundedRectangle|*
%AMROUNDEDRECTD59*
21,1,0.0354,0.0157,0,0,180.0*
21,1,0.0197,0.0315,0,0,180.0*
1,1,0.0157,-0.0098,0.0079*
1,1,0.0157,0.0098,0.0079*
1,1,0.0157,0.0098,-0.0079*
1,1,0.0157,-0.0098,-0.0079*
%
%ADD59ROUNDEDRECTD59*%
%ADD60C,0.0787*%
G36*
X65541Y39002D02*
X65429Y38927D01*
X65324Y38823D01*
X65243Y38701D01*
X65186Y38565D01*
X65157Y38420D01*
Y38273D01*
X65186Y38128D01*
X65243Y37992D01*
X65324Y37870D01*
X65429Y37765D01*
X65551Y37684D01*
X65687Y37627D01*
X65832Y37598D01*
X65979D01*
X66124Y37627D01*
X66260Y37684D01*
X66382Y37765D01*
X66487Y37870D01*
X66561Y37982D01*
X66611Y37972D01*
Y13131D01*
X66561Y13121D01*
X66487Y13233D01*
X66382Y13337D01*
X66260Y13419D01*
X66124Y13475D01*
X65979Y13504D01*
X65832D01*
X65687Y13475D01*
X65551Y13419D01*
X65429Y13337D01*
X65324Y13233D01*
X65243Y13110D01*
X65186Y12974D01*
X65157Y12830D01*
Y12682D01*
X65186Y12538D01*
X65243Y12402D01*
X65324Y12279D01*
X65425Y12179D01*
X65422Y12153D01*
X65415Y12129D01*
X47719D01*
X47695Y12179D01*
X47758Y12262D01*
X47810Y12386D01*
X47827Y12520D01*
Y14061D01*
X47810Y14195D01*
X47758Y14319D01*
X47676Y14426D01*
X47569Y14508D01*
X47445Y14560D01*
X47311Y14577D01*
X47177Y14560D01*
X47053Y14508D01*
X46946Y14426D01*
X46864Y14319D01*
X46812Y14195D01*
X46795Y14061D01*
Y13036D01*
X43577D01*
Y14061D01*
X43560Y14195D01*
X43508Y14319D01*
X43426Y14426D01*
X43319Y14508D01*
X43195Y14560D01*
X43061Y14577D01*
X42927Y14560D01*
X42803Y14508D01*
X42696Y14426D01*
X42614Y14319D01*
X42562Y14195D01*
X42545Y14061D01*
Y13036D01*
X36952D01*
Y14061D01*
X36935Y14195D01*
X36883Y14319D01*
X36801Y14426D01*
X36694Y14508D01*
X36570Y14560D01*
X36436Y14577D01*
X36302Y14560D01*
X36178Y14508D01*
X36071Y14426D01*
X35989Y14319D01*
X35937Y14195D01*
X35920Y14061D01*
Y13036D01*
X32202D01*
X29460Y15778D01*
X29353Y15860D01*
X29228Y15912D01*
X29094Y15930D01*
X28961Y15912D01*
X28836Y15860D01*
X28729Y15778D01*
X28647Y15671D01*
X28596Y15547D01*
X28578Y15413D01*
X28596Y15280D01*
X28647Y15155D01*
X28729Y15048D01*
X31599Y12179D01*
X31578Y12129D01*
X12105D01*
X12098Y12153D01*
X12095Y12179D01*
X12195Y12279D01*
X12277Y12402D01*
X12333Y12538D01*
X12362Y12682D01*
Y12830D01*
X12333Y12974D01*
X12277Y13110D01*
X12195Y13233D01*
X12091Y13337D01*
X11968Y13419D01*
X11832Y13475D01*
X11688Y13504D01*
X11540D01*
X11396Y13475D01*
X11260Y13419D01*
X11137Y13337D01*
X11033Y13233D01*
X10998Y13180D01*
X10948Y13195D01*
Y37908D01*
X10998Y37923D01*
X11033Y37870D01*
X11137Y37765D01*
X11260Y37684D01*
X11396Y37627D01*
X11540Y37598D01*
X11688D01*
X11832Y37627D01*
X11968Y37684D01*
X12091Y37765D01*
X12195Y37870D01*
X12277Y37992D01*
X12333Y38128D01*
X12362Y38273D01*
Y38420D01*
X12333Y38565D01*
X12277Y38701D01*
X12195Y38823D01*
X12091Y38927D01*
X11979Y39002D01*
X11989Y39052D01*
X21048D01*
X21065Y39005D01*
X21041Y38987D01*
X20580Y38526D01*
X20498Y38419D01*
X20446Y38294D01*
X20429Y38161D01*
X20429Y38161D01*
Y35415D01*
X20379Y35408D01*
X20358Y35486D01*
X20298Y35589D01*
X20214Y35673D01*
X20133Y35720D01*
Y35311D01*
Y34902D01*
X20214Y34949D01*
X20298Y35033D01*
X20358Y35136D01*
X20379Y35214D01*
X20429Y35207D01*
Y34331D01*
Y33701D01*
X20446Y33567D01*
X20498Y33443D01*
X20580Y33336D01*
X20687Y33254D01*
X20811Y33202D01*
X20945Y33185D01*
X21078Y33202D01*
X21203Y33254D01*
X21310Y33336D01*
X21392Y33443D01*
X21444Y33567D01*
X21461Y33701D01*
Y34331D01*
Y37947D01*
X21620Y38106D01*
X46847D01*
X46989Y37964D01*
X46976Y37916D01*
X46930Y37904D01*
X46831Y37847D01*
X46751Y37766D01*
X46693Y37667D01*
X46664Y37557D01*
Y37443D01*
X46693Y37333D01*
X46751Y37234D01*
X46831Y37153D01*
X46930Y37096D01*
X47040Y37067D01*
X47154D01*
X47264Y37096D01*
X47363Y37153D01*
X47444Y37234D01*
X47501Y37333D01*
X47530Y37443D01*
Y37468D01*
X47563Y37494D01*
X47580Y37498D01*
X47581Y37497D01*
Y34050D01*
X47598Y33916D01*
X47650Y33792D01*
X47732Y33685D01*
X47839Y33603D01*
X47963Y33551D01*
X48097Y33534D01*
X48231Y33551D01*
X48355Y33603D01*
X48462Y33685D01*
X48544Y33792D01*
X48596Y33916D01*
X48613Y34050D01*
Y37500D01*
X48612Y37507D01*
X48645Y37545D01*
X56091D01*
X58545Y35091D01*
Y29436D01*
X58562Y29302D01*
X58614Y29178D01*
X58696Y29071D01*
X58803Y28989D01*
X58927Y28937D01*
X59061Y28920D01*
X59195Y28937D01*
X59319Y28989D01*
X59426Y29071D01*
X59508Y29178D01*
X59560Y29302D01*
X59577Y29436D01*
Y35305D01*
X59577Y35305D01*
X59560Y35439D01*
X59508Y35563D01*
X59426Y35670D01*
X59426Y35670D01*
X56670Y38426D01*
X56563Y38508D01*
X56439Y38560D01*
X56305Y38577D01*
X56305Y38577D01*
X47836D01*
X47426Y38987D01*
X47402Y39005D01*
X47418Y39052D01*
X65531D01*
X65541Y39002D01*
D02*
G37*
%LPC*%
G36*
X37294Y37977D02*
Y37697D01*
X37574D01*
X37574Y37698D01*
X37507Y37814D01*
X37411Y37910D01*
X37295Y37977D01*
X37294Y37977D01*
D02*
G37*
G36*
X36900D02*
X36899Y37977D01*
X36783Y37910D01*
X36688Y37814D01*
X36620Y37698D01*
X36620Y37697D01*
X36900D01*
Y37977D01*
D02*
G37*
G36*
X59110Y38435D02*
X59012D01*
X58917Y38410D01*
X58831Y38360D01*
X58762Y38291D01*
X58713Y38205D01*
X58687Y38110D01*
Y38012D01*
X58713Y37917D01*
X58762Y37831D01*
X58831Y37762D01*
X58917Y37713D01*
X59012Y37687D01*
X59110D01*
X59205Y37713D01*
X59291Y37762D01*
X59360Y37831D01*
X59410Y37917D01*
X59435Y38012D01*
Y38110D01*
X59410Y38205D01*
X59360Y38291D01*
X59291Y38360D01*
X59205Y38410D01*
X59110Y38435D01*
D02*
G37*
G36*
X46154Y37933D02*
X46040D01*
X45930Y37904D01*
X45831Y37847D01*
X45751Y37766D01*
X45693Y37667D01*
X45664Y37557D01*
Y37443D01*
X45693Y37333D01*
X45751Y37234D01*
X45831Y37153D01*
X45930Y37096D01*
X46040Y37067D01*
X46154D01*
X46264Y37096D01*
X46363Y37153D01*
X46444Y37234D01*
X46501Y37333D01*
X46530Y37443D01*
Y37557D01*
X46501Y37667D01*
X46444Y37766D01*
X46363Y37847D01*
X46264Y37904D01*
X46154Y37933D01*
D02*
G37*
G36*
X45154D02*
X45040D01*
X44930Y37904D01*
X44831Y37847D01*
X44751Y37766D01*
X44693Y37667D01*
X44664Y37557D01*
Y37443D01*
X44693Y37333D01*
X44751Y37234D01*
X44831Y37153D01*
X44930Y37096D01*
X45040Y37067D01*
X45154D01*
X45264Y37096D01*
X45363Y37153D01*
X45444Y37234D01*
X45501Y37333D01*
X45530Y37443D01*
Y37557D01*
X45501Y37667D01*
X45444Y37766D01*
X45363Y37847D01*
X45264Y37904D01*
X45154Y37933D01*
D02*
G37*
G36*
X44154D02*
X44040D01*
X43930Y37904D01*
X43831Y37847D01*
X43751Y37766D01*
X43693Y37667D01*
X43664Y37557D01*
Y37443D01*
X43693Y37333D01*
X43751Y37234D01*
X43831Y37153D01*
X43930Y37096D01*
X44040Y37067D01*
X44154D01*
X44264Y37096D01*
X44363Y37153D01*
X44444Y37234D01*
X44501Y37333D01*
X44530Y37443D01*
Y37557D01*
X44501Y37667D01*
X44444Y37766D01*
X44363Y37847D01*
X44264Y37904D01*
X44154Y37933D01*
D02*
G37*
G36*
X43154D02*
X43040D01*
X42930Y37904D01*
X42831Y37847D01*
X42751Y37766D01*
X42693Y37667D01*
X42664Y37557D01*
Y37443D01*
X42693Y37333D01*
X42751Y37234D01*
X42831Y37153D01*
X42930Y37096D01*
X43040Y37067D01*
X43154D01*
X43264Y37096D01*
X43363Y37153D01*
X43444Y37234D01*
X43501Y37333D01*
X43530Y37443D01*
Y37557D01*
X43501Y37667D01*
X43444Y37766D01*
X43363Y37847D01*
X43264Y37904D01*
X43154Y37933D01*
D02*
G37*
G36*
X42154D02*
X42040D01*
X41930Y37904D01*
X41831Y37847D01*
X41751Y37766D01*
X41693Y37667D01*
X41664Y37557D01*
Y37443D01*
X41693Y37333D01*
X41751Y37234D01*
X41831Y37153D01*
X41930Y37096D01*
X42040Y37067D01*
X42154D01*
X42264Y37096D01*
X42363Y37153D01*
X42444Y37234D01*
X42501Y37333D01*
X42530Y37443D01*
Y37557D01*
X42501Y37667D01*
X42444Y37766D01*
X42363Y37847D01*
X42264Y37904D01*
X42154Y37933D01*
D02*
G37*
G36*
X41154D02*
X41040D01*
X40930Y37904D01*
X40831Y37847D01*
X40751Y37766D01*
X40693Y37667D01*
X40664Y37557D01*
Y37443D01*
X40693Y37333D01*
X40751Y37234D01*
X40831Y37153D01*
X40930Y37096D01*
X41040Y37067D01*
X41154D01*
X41264Y37096D01*
X41363Y37153D01*
X41444Y37234D01*
X41501Y37333D01*
X41530Y37443D01*
Y37557D01*
X41501Y37667D01*
X41444Y37766D01*
X41363Y37847D01*
X41264Y37904D01*
X41154Y37933D01*
D02*
G37*
G36*
X40154D02*
X40040D01*
X39930Y37904D01*
X39831Y37847D01*
X39751Y37766D01*
X39693Y37667D01*
X39664Y37557D01*
Y37443D01*
X39693Y37333D01*
X39751Y37234D01*
X39831Y37153D01*
X39930Y37096D01*
X40040Y37067D01*
X40154D01*
X40264Y37096D01*
X40363Y37153D01*
X40444Y37234D01*
X40501Y37333D01*
X40530Y37443D01*
Y37557D01*
X40501Y37667D01*
X40444Y37766D01*
X40363Y37847D01*
X40264Y37904D01*
X40154Y37933D01*
D02*
G37*
G36*
X39154D02*
X39040D01*
X38930Y37904D01*
X38831Y37847D01*
X38751Y37766D01*
X38693Y37667D01*
X38664Y37557D01*
Y37443D01*
X38693Y37333D01*
X38751Y37234D01*
X38831Y37153D01*
X38930Y37096D01*
X39040Y37067D01*
X39154D01*
X39264Y37096D01*
X39363Y37153D01*
X39444Y37234D01*
X39501Y37333D01*
X39530Y37443D01*
Y37557D01*
X39501Y37667D01*
X39444Y37766D01*
X39363Y37847D01*
X39264Y37904D01*
X39154Y37933D01*
D02*
G37*
G36*
X38154D02*
X38040D01*
X37930Y37904D01*
X37831Y37847D01*
X37751Y37766D01*
X37693Y37667D01*
X37664Y37557D01*
Y37443D01*
X37693Y37333D01*
X37751Y37234D01*
X37831Y37153D01*
X37930Y37096D01*
X38040Y37067D01*
X38154D01*
X38264Y37096D01*
X38363Y37153D01*
X38444Y37234D01*
X38501Y37333D01*
X38530Y37443D01*
Y37557D01*
X38501Y37667D01*
X38444Y37766D01*
X38363Y37847D01*
X38264Y37904D01*
X38154Y37933D01*
D02*
G37*
G36*
X37574Y37303D02*
X37294D01*
Y37023D01*
X37295Y37023D01*
X37411Y37090D01*
X37507Y37186D01*
X37574Y37302D01*
X37574Y37303D01*
D02*
G37*
G36*
X36900D02*
X36620D01*
X36620Y37302D01*
X36688Y37186D01*
X36783Y37090D01*
X36899Y37023D01*
X36900Y37023D01*
Y37303D01*
D02*
G37*
G36*
X51610Y37435D02*
X51512D01*
X51417Y37410D01*
X51331Y37360D01*
X51262Y37291D01*
X51213Y37205D01*
X51187Y37110D01*
Y37012D01*
X51213Y36917D01*
X51262Y36831D01*
X51331Y36762D01*
X51417Y36713D01*
X51512Y36687D01*
X51610D01*
X51705Y36713D01*
X51791Y36762D01*
X51860Y36831D01*
X51910Y36917D01*
X51935Y37012D01*
Y37110D01*
X51910Y37205D01*
X51860Y37291D01*
X51791Y37360D01*
X51705Y37410D01*
X51610Y37435D01*
D02*
G37*
G36*
Y36435D02*
X51512D01*
X51417Y36410D01*
X51331Y36360D01*
X51262Y36291D01*
X51213Y36205D01*
X51187Y36110D01*
Y36012D01*
X51213Y35917D01*
X51262Y35831D01*
X51331Y35762D01*
X51417Y35712D01*
X51512Y35687D01*
X51610D01*
X51705Y35712D01*
X51791Y35762D01*
X51860Y35831D01*
X51910Y35917D01*
X51935Y36012D01*
Y36110D01*
X51910Y36205D01*
X51860Y36291D01*
X51791Y36360D01*
X51705Y36410D01*
X51610Y36435D01*
D02*
G37*
G36*
X61118Y36494D02*
X61004D01*
X60894Y36465D01*
X60795Y36408D01*
X60714Y36327D01*
X60657Y36228D01*
X60628Y36118D01*
Y36004D01*
X60657Y35894D01*
X60714Y35795D01*
X60795Y35714D01*
X60894Y35657D01*
X61004Y35628D01*
X61118D01*
X61228Y35657D01*
X61327Y35714D01*
X61408Y35795D01*
X61465Y35894D01*
X61494Y36004D01*
Y36118D01*
X61465Y36228D01*
X61408Y36327D01*
X61327Y36408D01*
X61228Y36465D01*
X61118Y36494D01*
D02*
G37*
G36*
X26383Y35720D02*
Y35508D01*
X26595D01*
X26548Y35589D01*
X26464Y35673D01*
X26383Y35720D01*
D02*
G37*
G36*
X13758D02*
Y35508D01*
X13970D01*
X13923Y35589D01*
X13839Y35673D01*
X13758Y35720D01*
D02*
G37*
G36*
X25989D02*
X25908Y35673D01*
X25824Y35589D01*
X25777Y35508D01*
X25989D01*
Y35720D01*
D02*
G37*
G36*
X19739D02*
X19658Y35673D01*
X19574Y35589D01*
X19527Y35508D01*
X19739D01*
Y35720D01*
D02*
G37*
G36*
X13364D02*
X13283Y35673D01*
X13199Y35589D01*
X13152Y35508D01*
X13364D01*
Y35720D01*
D02*
G37*
G36*
X26595Y35114D02*
X26383D01*
Y34902D01*
X26464Y34949D01*
X26548Y35033D01*
X26595Y35114D01*
D02*
G37*
G36*
X13970D02*
X13758D01*
Y34902D01*
X13839Y34949D01*
X13923Y35033D01*
X13970Y35114D01*
D02*
G37*
G36*
X25989D02*
X25777D01*
X25824Y35033D01*
X25908Y34949D01*
X25989Y34902D01*
Y35114D01*
D02*
G37*
G36*
X19739D02*
X19527D01*
X19574Y35033D01*
X19658Y34949D01*
X19739Y34902D01*
Y35114D01*
D02*
G37*
G36*
X13364D02*
X13152D01*
X13199Y35033D01*
X13283Y34949D01*
X13364Y34902D01*
Y35114D01*
D02*
G37*
G36*
X28933Y34869D02*
X28850Y34834D01*
X28753Y34770D01*
X28671Y34687D01*
X28612Y34599D01*
X28559Y34591D01*
X28539Y34625D01*
X28444Y34721D01*
X28327Y34788D01*
X28197Y34823D01*
X28063D01*
X27932Y34788D01*
X27816Y34721D01*
X27720Y34625D01*
X27653Y34509D01*
X27618Y34378D01*
Y34244D01*
X27653Y34113D01*
X27720Y33997D01*
X27816Y33901D01*
X27932Y33834D01*
X28063Y33799D01*
X28197D01*
X28327Y33834D01*
X28444Y33901D01*
X28539Y33997D01*
X28559Y34031D01*
X28612Y34023D01*
X28671Y33935D01*
X28753Y33852D01*
X28850Y33788D01*
X28933Y33753D01*
Y34311D01*
Y34869D01*
D02*
G37*
G36*
X16808D02*
X16725Y34834D01*
X16628Y34770D01*
X16546Y34687D01*
X16487Y34599D01*
X16434Y34591D01*
X16414Y34625D01*
X16319Y34721D01*
X16202Y34788D01*
X16072Y34823D01*
X15938D01*
X15807Y34788D01*
X15691Y34721D01*
X15595Y34625D01*
X15528Y34509D01*
X15493Y34378D01*
Y34244D01*
X15528Y34113D01*
X15595Y33997D01*
X15691Y33901D01*
X15807Y33834D01*
X15938Y33799D01*
X16072D01*
X16202Y33834D01*
X16319Y33901D01*
X16414Y33997D01*
X16434Y34031D01*
X16487Y34023D01*
X16546Y33935D01*
X16628Y33852D01*
X16725Y33788D01*
X16808Y33753D01*
Y34311D01*
Y34869D01*
D02*
G37*
G36*
X37294Y34527D02*
Y34247D01*
X37574D01*
X37574Y34248D01*
X37507Y34364D01*
X37411Y34460D01*
X37295Y34527D01*
X37294Y34527D01*
D02*
G37*
G36*
X36900D02*
X36899Y34527D01*
X36783Y34460D01*
X36688Y34364D01*
X36620Y34248D01*
X36620Y34247D01*
X36900D01*
Y34527D01*
D02*
G37*
G36*
X26235Y34685D02*
X26137D01*
X26042Y34660D01*
X25956Y34610D01*
X25887Y34541D01*
X25838Y34455D01*
X25812Y34360D01*
Y34262D01*
X25838Y34167D01*
X25887Y34081D01*
X25956Y34012D01*
X26042Y33963D01*
X26137Y33937D01*
X26235D01*
X26330Y33963D01*
X26416Y34012D01*
X26485Y34081D01*
X26535Y34167D01*
X26560Y34262D01*
Y34360D01*
X26535Y34455D01*
X26485Y34541D01*
X26416Y34610D01*
X26330Y34660D01*
X26235Y34685D01*
D02*
G37*
G36*
X19985D02*
X19887D01*
X19792Y34660D01*
X19706Y34610D01*
X19637Y34541D01*
X19588Y34455D01*
X19562Y34360D01*
Y34262D01*
X19588Y34167D01*
X19637Y34081D01*
X19706Y34012D01*
X19792Y33963D01*
X19887Y33937D01*
X19985D01*
X20080Y33963D01*
X20166Y34012D01*
X20235Y34081D01*
X20285Y34167D01*
X20310Y34262D01*
Y34360D01*
X20285Y34455D01*
X20235Y34541D01*
X20166Y34610D01*
X20080Y34660D01*
X19985Y34685D01*
D02*
G37*
G36*
X13610D02*
X13512D01*
X13417Y34660D01*
X13331Y34610D01*
X13262Y34541D01*
X13212Y34455D01*
X13187Y34360D01*
Y34262D01*
X13212Y34167D01*
X13262Y34081D01*
X13331Y34012D01*
X13417Y33963D01*
X13512Y33937D01*
X13610D01*
X13705Y33963D01*
X13791Y34012D01*
X13860Y34081D01*
X13910Y34167D01*
X13935Y34262D01*
Y34360D01*
X13910Y34455D01*
X13860Y34541D01*
X13791Y34610D01*
X13705Y34660D01*
X13610Y34685D01*
D02*
G37*
G36*
X29327Y34869D02*
Y34311D01*
Y33753D01*
X29410Y33788D01*
X29506Y33852D01*
X29589Y33935D01*
X29648Y34023D01*
X29700Y34031D01*
X29720Y33997D01*
X29816Y33901D01*
X29932Y33834D01*
X30063Y33799D01*
X30197D01*
X30327Y33834D01*
X30444Y33901D01*
X30539Y33997D01*
X30607Y34113D01*
X30642Y34244D01*
Y34378D01*
X30607Y34509D01*
X30539Y34625D01*
X30444Y34721D01*
X30327Y34788D01*
X30197Y34823D01*
X30063D01*
X29932Y34788D01*
X29816Y34721D01*
X29720Y34625D01*
X29700Y34591D01*
X29648Y34599D01*
X29589Y34687D01*
X29506Y34770D01*
X29410Y34834D01*
X29327Y34869D01*
D02*
G37*
G36*
X17202D02*
Y34311D01*
Y33753D01*
X17285Y33788D01*
X17381Y33852D01*
X17464Y33935D01*
X17523Y34023D01*
X17575Y34031D01*
X17595Y33997D01*
X17691Y33901D01*
X17807Y33834D01*
X17938Y33799D01*
X18072D01*
X18202Y33834D01*
X18319Y33901D01*
X18414Y33997D01*
X18482Y34113D01*
X18517Y34244D01*
Y34378D01*
X18482Y34509D01*
X18414Y34625D01*
X18319Y34721D01*
X18202Y34788D01*
X18072Y34823D01*
X17938D01*
X17807Y34788D01*
X17691Y34721D01*
X17595Y34625D01*
X17575Y34591D01*
X17523Y34599D01*
X17464Y34687D01*
X17381Y34770D01*
X17285Y34834D01*
X17202Y34869D01*
D02*
G37*
G36*
X47154Y34483D02*
X47040D01*
X46930Y34454D01*
X46831Y34397D01*
X46751Y34316D01*
X46693Y34217D01*
X46664Y34107D01*
Y33993D01*
X46693Y33883D01*
X46751Y33784D01*
X46831Y33703D01*
X46930Y33646D01*
X47040Y33617D01*
X47154D01*
X47264Y33646D01*
X47363Y33703D01*
X47444Y33784D01*
X47501Y33883D01*
X47530Y33993D01*
Y34107D01*
X47501Y34217D01*
X47444Y34316D01*
X47363Y34397D01*
X47264Y34454D01*
X47154Y34483D01*
D02*
G37*
G36*
X46154D02*
X46040D01*
X45930Y34454D01*
X45831Y34397D01*
X45751Y34316D01*
X45693Y34217D01*
X45664Y34107D01*
Y33993D01*
X45693Y33883D01*
X45751Y33784D01*
X45831Y33703D01*
X45930Y33646D01*
X46040Y33617D01*
X46154D01*
X46264Y33646D01*
X46363Y33703D01*
X46444Y33784D01*
X46501Y33883D01*
X46530Y33993D01*
Y34107D01*
X46501Y34217D01*
X46444Y34316D01*
X46363Y34397D01*
X46264Y34454D01*
X46154Y34483D01*
D02*
G37*
G36*
X45154D02*
X45040D01*
X44930Y34454D01*
X44831Y34397D01*
X44751Y34316D01*
X44693Y34217D01*
X44664Y34107D01*
Y33993D01*
X44693Y33883D01*
X44751Y33784D01*
X44831Y33703D01*
X44930Y33646D01*
X45040Y33617D01*
X45154D01*
X45264Y33646D01*
X45363Y33703D01*
X45444Y33784D01*
X45501Y33883D01*
X45530Y33993D01*
Y34107D01*
X45501Y34217D01*
X45444Y34316D01*
X45363Y34397D01*
X45264Y34454D01*
X45154Y34483D01*
D02*
G37*
G36*
X44154D02*
X44040D01*
X43930Y34454D01*
X43831Y34397D01*
X43751Y34316D01*
X43693Y34217D01*
X43664Y34107D01*
Y33993D01*
X43693Y33883D01*
X43751Y33784D01*
X43831Y33703D01*
X43930Y33646D01*
X44040Y33617D01*
X44154D01*
X44264Y33646D01*
X44363Y33703D01*
X44444Y33784D01*
X44501Y33883D01*
X44530Y33993D01*
Y34107D01*
X44501Y34217D01*
X44444Y34316D01*
X44363Y34397D01*
X44264Y34454D01*
X44154Y34483D01*
D02*
G37*
G36*
X43154D02*
X43040D01*
X42930Y34454D01*
X42831Y34397D01*
X42751Y34316D01*
X42693Y34217D01*
X42664Y34107D01*
Y33993D01*
X42693Y33883D01*
X42751Y33784D01*
X42831Y33703D01*
X42930Y33646D01*
X43040Y33617D01*
X43154D01*
X43264Y33646D01*
X43363Y33703D01*
X43444Y33784D01*
X43501Y33883D01*
X43530Y33993D01*
Y34107D01*
X43501Y34217D01*
X43444Y34316D01*
X43363Y34397D01*
X43264Y34454D01*
X43154Y34483D01*
D02*
G37*
G36*
X42154D02*
X42040D01*
X41930Y34454D01*
X41831Y34397D01*
X41751Y34316D01*
X41693Y34217D01*
X41664Y34107D01*
Y33993D01*
X41693Y33883D01*
X41751Y33784D01*
X41831Y33703D01*
X41930Y33646D01*
X42040Y33617D01*
X42154D01*
X42264Y33646D01*
X42363Y33703D01*
X42444Y33784D01*
X42501Y33883D01*
X42530Y33993D01*
Y34107D01*
X42501Y34217D01*
X42444Y34316D01*
X42363Y34397D01*
X42264Y34454D01*
X42154Y34483D01*
D02*
G37*
G36*
X41154D02*
X41040D01*
X40930Y34454D01*
X40831Y34397D01*
X40751Y34316D01*
X40693Y34217D01*
X40664Y34107D01*
Y33993D01*
X40693Y33883D01*
X40751Y33784D01*
X40831Y33703D01*
X40930Y33646D01*
X41040Y33617D01*
X41154D01*
X41264Y33646D01*
X41363Y33703D01*
X41444Y33784D01*
X41501Y33883D01*
X41530Y33993D01*
Y34107D01*
X41501Y34217D01*
X41444Y34316D01*
X41363Y34397D01*
X41264Y34454D01*
X41154Y34483D01*
D02*
G37*
G36*
X40154D02*
X40040D01*
X39930Y34454D01*
X39831Y34397D01*
X39751Y34316D01*
X39693Y34217D01*
X39664Y34107D01*
Y33993D01*
X39693Y33883D01*
X39751Y33784D01*
X39831Y33703D01*
X39930Y33646D01*
X40040Y33617D01*
X40154D01*
X40264Y33646D01*
X40363Y33703D01*
X40444Y33784D01*
X40501Y33883D01*
X40530Y33993D01*
Y34107D01*
X40501Y34217D01*
X40444Y34316D01*
X40363Y34397D01*
X40264Y34454D01*
X40154Y34483D01*
D02*
G37*
G36*
X39154D02*
X39040D01*
X38930Y34454D01*
X38831Y34397D01*
X38751Y34316D01*
X38693Y34217D01*
X38664Y34107D01*
Y33993D01*
X38693Y33883D01*
X38751Y33784D01*
X38831Y33703D01*
X38930Y33646D01*
X39040Y33617D01*
X39154D01*
X39264Y33646D01*
X39363Y33703D01*
X39444Y33784D01*
X39501Y33883D01*
X39530Y33993D01*
Y34107D01*
X39501Y34217D01*
X39444Y34316D01*
X39363Y34397D01*
X39264Y34454D01*
X39154Y34483D01*
D02*
G37*
G36*
X38154D02*
X38040D01*
X37930Y34454D01*
X37831Y34397D01*
X37751Y34316D01*
X37693Y34217D01*
X37664Y34107D01*
Y33993D01*
X37693Y33883D01*
X37751Y33784D01*
X37831Y33703D01*
X37930Y33646D01*
X38040Y33617D01*
X38154D01*
X38264Y33646D01*
X38363Y33703D01*
X38444Y33784D01*
X38501Y33883D01*
X38530Y33993D01*
Y34107D01*
X38501Y34217D01*
X38444Y34316D01*
X38363Y34397D01*
X38264Y34454D01*
X38154Y34483D01*
D02*
G37*
G36*
X37574Y33853D02*
X37294D01*
Y33573D01*
X37295Y33573D01*
X37411Y33640D01*
X37507Y33736D01*
X37574Y33852D01*
X37574Y33853D01*
D02*
G37*
G36*
X36900D02*
X36620D01*
X36620Y33852D01*
X36688Y33736D01*
X36783Y33640D01*
X36899Y33573D01*
X36900Y33573D01*
Y33853D01*
D02*
G37*
G36*
X56258Y33538D02*
Y33258D01*
X56538D01*
X56538Y33259D01*
X56471Y33375D01*
X56375Y33471D01*
X56259Y33538D01*
X56258Y33538D01*
D02*
G37*
G36*
X55864D02*
X55863Y33538D01*
X55747Y33471D01*
X55651Y33375D01*
X55584Y33259D01*
X55584Y33258D01*
X55864D01*
Y33538D01*
D02*
G37*
G36*
X51610Y33748D02*
X51512D01*
X51417Y33722D01*
X51331Y33673D01*
X51262Y33603D01*
X51213Y33518D01*
X51187Y33423D01*
Y33324D01*
X51213Y33229D01*
X51262Y33144D01*
X51331Y33074D01*
X51417Y33025D01*
X51512Y33000D01*
X51610D01*
X51705Y33025D01*
X51791Y33074D01*
X51860Y33144D01*
X51910Y33229D01*
X51935Y33324D01*
Y33423D01*
X51910Y33518D01*
X51860Y33603D01*
X51791Y33673D01*
X51705Y33722D01*
X51610Y33748D01*
D02*
G37*
G36*
X61118Y33494D02*
X61004D01*
X60894Y33465D01*
X60795Y33408D01*
X60714Y33327D01*
X60657Y33228D01*
X60628Y33118D01*
Y33004D01*
X60657Y32894D01*
X60714Y32795D01*
X60795Y32714D01*
X60894Y32657D01*
X61004Y32628D01*
X61118D01*
X61228Y32657D01*
X61327Y32714D01*
X61408Y32795D01*
X61465Y32894D01*
X61494Y33004D01*
Y33118D01*
X61465Y33228D01*
X61408Y33327D01*
X61327Y33408D01*
X61228Y33465D01*
X61118Y33494D01*
D02*
G37*
G36*
X58118D02*
X58004D01*
X57894Y33465D01*
X57795Y33408D01*
X57714Y33327D01*
X57657Y33228D01*
X57628Y33118D01*
Y33004D01*
X57657Y32894D01*
X57714Y32795D01*
X57795Y32714D01*
X57894Y32657D01*
X58004Y32628D01*
X58118D01*
X58228Y32657D01*
X58327Y32714D01*
X58408Y32795D01*
X58465Y32894D01*
X58494Y33004D01*
Y33118D01*
X58465Y33228D01*
X58408Y33327D01*
X58327Y33408D01*
X58228Y33465D01*
X58118Y33494D01*
D02*
G37*
G36*
X56538Y32864D02*
X56258D01*
Y32584D01*
X56259Y32584D01*
X56375Y32651D01*
X56471Y32747D01*
X56538Y32863D01*
X56538Y32864D01*
D02*
G37*
G36*
X55864D02*
X55584D01*
X55584Y32863D01*
X55651Y32747D01*
X55747Y32651D01*
X55863Y32584D01*
X55864Y32584D01*
Y32864D01*
D02*
G37*
G36*
X17835Y32522D02*
X17835Y32522D01*
X17087D01*
X17087Y32522D01*
X17041Y32513D01*
X17001Y32487D01*
X16765Y32251D01*
X16739Y32211D01*
X16730Y32165D01*
X16730Y32165D01*
Y31969D01*
Y31417D01*
X16730Y31417D01*
X16739Y31371D01*
X16765Y31332D01*
X17399Y30698D01*
Y29824D01*
X17349Y29817D01*
X17340Y29853D01*
X17283Y29952D01*
X17202Y30033D01*
X17103Y30090D01*
X16993Y30119D01*
X16879D01*
X16769Y30090D01*
X16670Y30033D01*
X16589Y29952D01*
X16532Y29853D01*
X16503Y29743D01*
Y29629D01*
X16532Y29519D01*
X16589Y29420D01*
X16670Y29339D01*
X16769Y29282D01*
X16879Y29253D01*
X16993D01*
X17103Y29282D01*
X17202Y29339D01*
X17283Y29420D01*
X17340Y29519D01*
X17349Y29555D01*
X17399Y29548D01*
Y28346D01*
X17408Y28300D01*
X17435Y28261D01*
X18620Y27076D01*
Y19724D01*
X18620Y19724D01*
X18629Y19678D01*
X18655Y19639D01*
X19088Y19206D01*
X19127Y19180D01*
X19173Y19171D01*
X19173Y19171D01*
X21929Y19171D01*
X21929Y19171D01*
X21975Y19180D01*
X22014Y19206D01*
X22014Y19206D01*
X23550Y20742D01*
X23576Y20781D01*
X23585Y20827D01*
X23585Y20827D01*
Y25501D01*
X28747Y30663D01*
X28773Y30702D01*
X28782Y30748D01*
X28782Y30748D01*
Y31969D01*
X28782Y31969D01*
X28773Y32015D01*
X28747Y32054D01*
X28747Y32054D01*
X28510Y32290D01*
X28471Y32316D01*
X28425Y32325D01*
X28425Y32325D01*
X26024D01*
X26002Y32321D01*
X25980Y32317D01*
X25979Y32316D01*
X25978Y32316D01*
X25959Y32304D01*
X25941Y32292D01*
X23613Y30081D01*
X20325D01*
X17920Y32487D01*
X17881Y32513D01*
X17835Y32522D01*
D02*
G37*
G36*
X46609Y32539D02*
X46541D01*
X46476Y32522D01*
X46418Y32488D01*
X46394Y32464D01*
X43449D01*
X43425Y32488D01*
X43366Y32522D01*
X43301Y32539D01*
X43234D01*
X43169Y32522D01*
X43111Y32488D01*
X43063Y32441D01*
X43029Y32382D01*
X43012Y32317D01*
Y32250D01*
X43029Y32185D01*
X43063Y32126D01*
X43111Y32079D01*
X43169Y32045D01*
X43234Y32028D01*
X43270D01*
X43286Y32010D01*
X43302Y31978D01*
X43287Y31923D01*
Y31856D01*
X43305Y31791D01*
X43339Y31733D01*
X43386Y31685D01*
X43445Y31651D01*
X43510Y31634D01*
X43545D01*
X43561Y31616D01*
X43578Y31584D01*
X43563Y31530D01*
Y31462D01*
X43580Y31397D01*
X43614Y31339D01*
X43662Y31291D01*
X43720Y31258D01*
X43785Y31240D01*
X43853D01*
X43918Y31258D01*
X43976Y31291D01*
X44000Y31315D01*
X48598D01*
X48622Y31291D01*
X48681Y31258D01*
X48746Y31240D01*
X48813D01*
X48878Y31258D01*
X48937Y31291D01*
X48984Y31339D01*
X49018Y31397D01*
X49035Y31462D01*
Y31530D01*
X49018Y31595D01*
X48984Y31653D01*
X48937Y31701D01*
X48878Y31735D01*
X48813Y31752D01*
X48746D01*
X48681Y31735D01*
X48622Y31701D01*
X48598Y31677D01*
X45810D01*
X45789Y31727D01*
X45795Y31733D01*
X45829Y31791D01*
X45846Y31856D01*
Y31923D01*
X45829Y31989D01*
X45795Y32047D01*
X45789Y32053D01*
X45810Y32103D01*
X46394D01*
X46418Y32079D01*
X46476Y32045D01*
X46541Y32028D01*
X46609D01*
X46674Y32045D01*
X46732Y32079D01*
X46780Y32126D01*
X46813Y32185D01*
X46831Y32250D01*
Y32317D01*
X46813Y32382D01*
X46780Y32441D01*
X46732Y32488D01*
X46674Y32522D01*
X46609Y32539D01*
D02*
G37*
G36*
X51610Y32748D02*
X51512D01*
X51417Y32722D01*
X51331Y32673D01*
X51262Y32603D01*
X51213Y32518D01*
X51187Y32423D01*
Y32324D01*
X51213Y32229D01*
X51262Y32144D01*
X51331Y32074D01*
X51417Y32025D01*
X51512Y32000D01*
X51610D01*
X51705Y32025D01*
X51791Y32074D01*
X51860Y32144D01*
X51910Y32229D01*
X51935Y32324D01*
Y32423D01*
X51910Y32518D01*
X51860Y32603D01*
X51791Y32673D01*
X51705Y32722D01*
X51610Y32748D01*
D02*
G37*
G36*
X16003Y32323D02*
X15869D01*
X15738Y32288D01*
X15622Y32221D01*
X15526Y32125D01*
X15459Y32009D01*
X15424Y31878D01*
Y31744D01*
X15459Y31613D01*
X15526Y31497D01*
X15622Y31401D01*
X15738Y31334D01*
X15869Y31299D01*
X16003D01*
X16134Y31334D01*
X16250Y31401D01*
X16346Y31497D01*
X16413Y31613D01*
X16448Y31744D01*
Y31878D01*
X16413Y32009D01*
X16346Y32125D01*
X16250Y32221D01*
X16134Y32288D01*
X16003Y32323D01*
D02*
G37*
G36*
X57118Y33494D02*
X57004D01*
X56894Y33465D01*
X56795Y33408D01*
X56714Y33327D01*
X56657Y33228D01*
X56628Y33118D01*
Y33004D01*
X56657Y32894D01*
X56714Y32795D01*
X56743Y32766D01*
Y31259D01*
X56712Y31205D01*
X56687Y31110D01*
Y31012D01*
X56712Y30917D01*
X56762Y30831D01*
X56831Y30762D01*
X56917Y30712D01*
X57012Y30687D01*
X57110D01*
X57205Y30712D01*
X57291Y30762D01*
X57360Y30831D01*
X57410Y30917D01*
X57435Y31012D01*
Y31110D01*
X57410Y31205D01*
X57379Y31259D01*
Y32766D01*
X57408Y32795D01*
X57465Y32894D01*
X57494Y33004D01*
Y33118D01*
X57465Y33228D01*
X57408Y33327D01*
X57327Y33408D01*
X57228Y33465D01*
X57118Y33494D01*
D02*
G37*
G36*
X52110Y31435D02*
X52012D01*
X51917Y31410D01*
X51831Y31360D01*
X51762Y31291D01*
X51712Y31205D01*
X51687Y31110D01*
Y31012D01*
X51712Y30917D01*
X51762Y30831D01*
X51831Y30762D01*
X51917Y30712D01*
X52012Y30687D01*
X52110D01*
X52205Y30712D01*
X52291Y30762D01*
X52360Y30831D01*
X52410Y30917D01*
X52435Y31012D01*
Y31110D01*
X52410Y31205D01*
X52360Y31291D01*
X52291Y31360D01*
X52205Y31410D01*
X52110Y31435D01*
D02*
G37*
G36*
X29864Y30577D02*
X29652D01*
X29699Y30496D01*
X29783Y30411D01*
X29864Y30364D01*
Y30577D01*
D02*
G37*
G36*
X30470D02*
X30258D01*
Y30364D01*
X30339Y30411D01*
X30423Y30496D01*
X30470Y30577D01*
D02*
G37*
G36*
X47711Y30177D02*
X47643D01*
X47578Y30160D01*
X47520Y30126D01*
X47496Y30102D01*
X46441D01*
X46417Y30126D01*
X46359Y30160D01*
X46294Y30177D01*
X46226D01*
X46161Y30160D01*
X46103Y30126D01*
X46055Y30078D01*
X46021Y30020D01*
X46004Y29955D01*
Y29888D01*
X46021Y29822D01*
X46055Y29764D01*
X46103Y29716D01*
X46161Y29683D01*
X46226Y29665D01*
X46294D01*
X46303Y29668D01*
X46336Y29626D01*
X46319Y29561D01*
Y29494D01*
X46336Y29429D01*
X46370Y29370D01*
X46418Y29323D01*
X46476Y29289D01*
X46541Y29272D01*
X46609D01*
X46674Y29289D01*
X46732Y29323D01*
X46756Y29347D01*
X47220D01*
X47244Y29323D01*
X47303Y29289D01*
X47368Y29272D01*
X47435D01*
X47500Y29289D01*
X47559Y29323D01*
X47606Y29370D01*
X47640Y29429D01*
X47657Y29494D01*
Y29561D01*
X47643Y29616D01*
X47659Y29648D01*
X47675Y29665D01*
X47711D01*
X47776Y29683D01*
X47834Y29716D01*
X47882Y29764D01*
X47916Y29822D01*
X47933Y29888D01*
Y29955D01*
X47916Y30020D01*
X47882Y30078D01*
X47834Y30126D01*
X47776Y30160D01*
X47711Y30177D01*
D02*
G37*
G36*
X15993Y30119D02*
X15879D01*
X15769Y30090D01*
X15670Y30033D01*
X15589Y29952D01*
X15532Y29853D01*
X15503Y29743D01*
Y29629D01*
X15532Y29519D01*
X15589Y29420D01*
X15670Y29339D01*
X15769Y29282D01*
X15879Y29253D01*
X15993D01*
X16103Y29282D01*
X16202Y29339D01*
X16283Y29420D01*
X16340Y29519D01*
X16369Y29629D01*
Y29743D01*
X16340Y29853D01*
X16283Y29952D01*
X16202Y30033D01*
X16103Y30090D01*
X15993Y30119D01*
D02*
G37*
G36*
X51610Y29935D02*
X51512D01*
X51417Y29910D01*
X51331Y29860D01*
X51262Y29791D01*
X51213Y29705D01*
X51187Y29610D01*
Y29512D01*
X51213Y29417D01*
X51262Y29331D01*
X51331Y29262D01*
X51417Y29213D01*
X51512Y29187D01*
X51610D01*
X51705Y29213D01*
X51791Y29262D01*
X51860Y29331D01*
X51910Y29417D01*
X51935Y29512D01*
Y29610D01*
X51910Y29705D01*
X51860Y29791D01*
X51791Y29860D01*
X51705Y29910D01*
X51610Y29935D01*
D02*
G37*
G36*
X48577Y28996D02*
X48510D01*
X48445Y28979D01*
X48386Y28945D01*
X48362Y28921D01*
X44394D01*
X44370Y28945D01*
X44311Y28979D01*
X44246Y28996D01*
X44179D01*
X44114Y28979D01*
X44055Y28945D01*
X44008Y28897D01*
X43974Y28839D01*
X43957Y28774D01*
Y28706D01*
X43974Y28641D01*
X44008Y28583D01*
X44055Y28535D01*
X44114Y28502D01*
X44179Y28484D01*
X44246D01*
X44311Y28502D01*
X44370Y28535D01*
X44394Y28560D01*
X48362D01*
X48386Y28535D01*
X48445Y28502D01*
X48510Y28484D01*
X48577D01*
X48642Y28502D01*
X48700Y28535D01*
X48748Y28583D01*
X48782Y28641D01*
X48799Y28706D01*
Y28774D01*
X48782Y28839D01*
X48748Y28897D01*
X48700Y28945D01*
X48642Y28979D01*
X48577Y28996D01*
D02*
G37*
G36*
X64243Y29088D02*
X64129D01*
X64019Y29058D01*
X63920Y29001D01*
X63839Y28920D01*
X63782Y28822D01*
X63753Y28712D01*
Y28598D01*
X63782Y28487D01*
X63839Y28389D01*
X63920Y28308D01*
X64019Y28251D01*
X64129Y28221D01*
X64243D01*
X64353Y28251D01*
X64452Y28308D01*
X64533Y28389D01*
X64590Y28487D01*
X64619Y28598D01*
Y28712D01*
X64590Y28822D01*
X64533Y28920D01*
X64452Y29001D01*
X64353Y29058D01*
X64243Y29088D01*
D02*
G37*
G36*
X41008Y28413D02*
Y28133D01*
X41288D01*
X41288Y28134D01*
X41221Y28250D01*
X41125Y28346D01*
X41009Y28413D01*
X41008Y28413D01*
D02*
G37*
G36*
X40614D02*
X40613Y28413D01*
X40497Y28346D01*
X40401Y28250D01*
X40334Y28134D01*
X40334Y28133D01*
X40614D01*
Y28413D01*
D02*
G37*
G36*
X41288Y27739D02*
X41008D01*
Y27459D01*
X41009Y27459D01*
X41125Y27526D01*
X41221Y27622D01*
X41288Y27738D01*
X41288Y27739D01*
D02*
G37*
G36*
X40614D02*
X40334D01*
X40334Y27738D01*
X40401Y27622D01*
X40497Y27526D01*
X40613Y27459D01*
X40614Y27459D01*
Y27739D01*
D02*
G37*
G36*
X51610Y28935D02*
X51512D01*
X51417Y28910D01*
X51331Y28860D01*
X51262Y28791D01*
X51213Y28705D01*
X51187Y28610D01*
Y28512D01*
X51213Y28417D01*
X51243Y28363D01*
Y27884D01*
X51213Y27830D01*
X51187Y27735D01*
Y27637D01*
X51213Y27542D01*
X51262Y27456D01*
X51331Y27387D01*
X51417Y27338D01*
X51512Y27312D01*
X51610D01*
X51705Y27338D01*
X51791Y27387D01*
X51860Y27456D01*
X51910Y27542D01*
X51935Y27637D01*
Y27735D01*
X51910Y27830D01*
X51879Y27884D01*
Y28363D01*
X51910Y28417D01*
X51935Y28512D01*
Y28610D01*
X51910Y28705D01*
X51860Y28791D01*
X51791Y28860D01*
X51705Y28910D01*
X51610Y28935D01*
D02*
G37*
G36*
X55360Y28106D02*
X55246D01*
X55136Y28077D01*
X55037Y28020D01*
X54957Y27939D01*
X54900Y27840D01*
X54870Y27730D01*
Y27616D01*
X54900Y27506D01*
X54957Y27407D01*
X55037Y27327D01*
X55136Y27270D01*
X55246Y27240D01*
X55360D01*
X55470Y27270D01*
X55569Y27327D01*
X55650Y27407D01*
X55707Y27506D01*
X55736Y27616D01*
Y27730D01*
X55707Y27840D01*
X55650Y27939D01*
X55569Y28020D01*
X55470Y28077D01*
X55360Y28106D01*
D02*
G37*
G36*
X60174Y28185D02*
X60039D01*
X59909Y28150D01*
X59792Y28083D01*
X59697Y27987D01*
X59629Y27871D01*
X59594Y27741D01*
Y27606D01*
X59629Y27476D01*
X59697Y27359D01*
X59792Y27264D01*
X59909Y27196D01*
X60039Y27161D01*
X60174D01*
X60304Y27196D01*
X60421Y27264D01*
X60516Y27359D01*
X60583Y27476D01*
X60618Y27606D01*
Y27741D01*
X60583Y27871D01*
X60516Y27987D01*
X60421Y28083D01*
X60304Y28150D01*
X60174Y28185D01*
D02*
G37*
G36*
X53061Y29853D02*
X52953Y29839D01*
X52853Y29797D01*
X52766Y29731D01*
X52700Y29644D01*
X52658Y29544D01*
X52644Y29436D01*
Y27428D01*
X52628Y27368D01*
Y27254D01*
X52657Y27144D01*
X52714Y27045D01*
X52795Y26964D01*
X52894Y26907D01*
X53004Y26878D01*
X53118D01*
X53228Y26907D01*
X53327Y26964D01*
X53408Y27045D01*
X53465Y27144D01*
X53494Y27254D01*
Y27368D01*
X53478Y27428D01*
Y29436D01*
X53464Y29544D01*
X53422Y29644D01*
X53356Y29731D01*
X53270Y29797D01*
X53169Y29839D01*
X53061Y29853D01*
D02*
G37*
G36*
X40868Y27369D02*
X40754D01*
X40644Y27340D01*
X40545Y27283D01*
X40464Y27202D01*
X40407Y27103D01*
X40378Y26993D01*
Y26879D01*
X40407Y26769D01*
X40464Y26670D01*
X40545Y26589D01*
X40644Y26532D01*
X40754Y26503D01*
X40868D01*
X40978Y26532D01*
X41077Y26589D01*
X41158Y26670D01*
X41215Y26769D01*
X41244Y26879D01*
Y26993D01*
X41215Y27103D01*
X41158Y27202D01*
X41077Y27283D01*
X40978Y27340D01*
X40868Y27369D01*
D02*
G37*
G36*
X25836Y26619D02*
Y26258D01*
X26196D01*
X26162Y26341D01*
X26097Y26437D01*
X26015Y26520D01*
X25919Y26584D01*
X25836Y26619D01*
D02*
G37*
G36*
X25442D02*
X25359Y26584D01*
X25262Y26520D01*
X25180Y26437D01*
X25115Y26341D01*
X25081Y26258D01*
X25442D01*
Y26619D01*
D02*
G37*
G36*
X26196Y25864D02*
X25836D01*
Y25503D01*
X25919Y25538D01*
X26015Y25602D01*
X26097Y25685D01*
X26162Y25781D01*
X26196Y25864D01*
D02*
G37*
G36*
X25442D02*
X25081D01*
X25115Y25781D01*
X25180Y25685D01*
X25262Y25602D01*
X25359Y25538D01*
X25442Y25503D01*
Y25864D01*
D02*
G37*
G36*
X40868Y26369D02*
X40754D01*
X40644Y26340D01*
X40545Y26283D01*
X40464Y26202D01*
X40407Y26103D01*
X40378Y25993D01*
Y25879D01*
X40407Y25769D01*
X40464Y25670D01*
X40545Y25589D01*
X40644Y25532D01*
X40754Y25503D01*
X40868D01*
X40978Y25532D01*
X41077Y25589D01*
X41158Y25670D01*
X41215Y25769D01*
X41244Y25879D01*
Y25993D01*
X41215Y26103D01*
X41158Y26202D01*
X41077Y26283D01*
X40978Y26340D01*
X40868Y26369D01*
D02*
G37*
G36*
X14557Y25590D02*
X14443D01*
X14333Y25560D01*
X14234Y25503D01*
X14153Y25422D01*
X14096Y25324D01*
X14067Y25214D01*
Y25099D01*
X14096Y24989D01*
X14153Y24891D01*
X14234Y24810D01*
X14333Y24753D01*
X14443Y24723D01*
X14557D01*
X14667Y24753D01*
X14766Y24810D01*
X14847Y24891D01*
X14904Y24989D01*
X14933Y25099D01*
Y25214D01*
X14904Y25324D01*
X14847Y25422D01*
X14766Y25503D01*
X14667Y25560D01*
X14557Y25590D01*
D02*
G37*
G36*
X54576Y25921D02*
X54456D01*
X54338Y25898D01*
X54227Y25852D01*
X54127Y25785D01*
X54042Y25700D01*
X53975Y25600D01*
X53929Y25489D01*
X53906Y25371D01*
Y25251D01*
X53929Y25133D01*
X53975Y25022D01*
X54042Y24922D01*
X54127Y24837D01*
X54227Y24770D01*
X54338Y24724D01*
X54456Y24701D01*
X54576D01*
X54694Y24724D01*
X54805Y24770D01*
X54905Y24837D01*
X54990Y24922D01*
X55057Y25022D01*
X55103Y25133D01*
X55126Y25251D01*
Y25371D01*
X55103Y25489D01*
X55057Y25600D01*
X54990Y25700D01*
X54905Y25785D01*
X54805Y25852D01*
X54694Y25898D01*
X54576Y25921D01*
D02*
G37*
G36*
X64186Y27202D02*
X64052Y27185D01*
X63928Y27133D01*
X63821Y27051D01*
X63739Y26944D01*
X63687Y26820D01*
X63670Y26686D01*
Y24030D01*
X63687Y23896D01*
X63739Y23771D01*
X63821Y23665D01*
X63928Y23582D01*
X64052Y23531D01*
X64186Y23513D01*
X64320Y23531D01*
X64444Y23582D01*
X64551Y23665D01*
X64633Y23771D01*
X64685Y23896D01*
X64702Y24030D01*
Y26686D01*
X64685Y26820D01*
X64633Y26944D01*
X64551Y27051D01*
X64444Y27133D01*
X64320Y27185D01*
X64186Y27202D01*
D02*
G37*
G36*
X46133Y23348D02*
Y23102D01*
X46421D01*
X46420Y23112D01*
X46388Y23190D01*
X46336Y23257D01*
X46270Y23308D01*
X46192Y23340D01*
X46133Y23348D01*
D02*
G37*
G36*
X45739D02*
X45680Y23340D01*
X45602Y23308D01*
X45536Y23257D01*
X45484Y23190D01*
X45452Y23112D01*
X45451Y23102D01*
X45739D01*
Y23348D01*
D02*
G37*
G36*
X40846Y23257D02*
X40748D01*
X40653Y23231D01*
X40567Y23182D01*
X40498Y23112D01*
X40474Y23072D01*
X40334D01*
X40301Y23120D01*
X40236Y23163D01*
X40159Y23179D01*
X39963D01*
X39886Y23163D01*
X39821Y23120D01*
X39777Y23055D01*
X39762Y22978D01*
Y22820D01*
X39777Y22744D01*
X39800Y22709D01*
X39819Y22676D01*
X39790Y22641D01*
X39766Y22623D01*
X39722Y22566D01*
X39713Y22545D01*
X40409D01*
X40400Y22566D01*
X40356Y22623D01*
X40332Y22641D01*
X40313Y22664D01*
X40338Y22710D01*
X40465D01*
X40498Y22653D01*
X40567Y22583D01*
X40653Y22534D01*
X40748Y22509D01*
X40846D01*
X40941Y22534D01*
X41027Y22583D01*
X41096Y22653D01*
X41146Y22738D01*
X41171Y22833D01*
Y22932D01*
X41146Y23027D01*
X41096Y23112D01*
X41027Y23182D01*
X40941Y23231D01*
X40846Y23257D01*
D02*
G37*
G36*
X55360Y23382D02*
X55246D01*
X55136Y23352D01*
X55037Y23295D01*
X54957Y23215D01*
X54900Y23116D01*
X54870Y23006D01*
Y22892D01*
X54900Y22782D01*
X54957Y22683D01*
X55037Y22602D01*
X55136Y22545D01*
X55246Y22516D01*
X55360D01*
X55470Y22545D01*
X55569Y22602D01*
X55650Y22683D01*
X55707Y22782D01*
X55736Y22892D01*
Y23006D01*
X55707Y23116D01*
X55650Y23215D01*
X55569Y23295D01*
X55470Y23352D01*
X55360Y23382D01*
D02*
G37*
G36*
X60174Y23461D02*
X60039D01*
X59909Y23426D01*
X59792Y23358D01*
X59697Y23263D01*
X59629Y23146D01*
X59594Y23016D01*
Y22881D01*
X59629Y22751D01*
X59697Y22635D01*
X59792Y22539D01*
X59909Y22472D01*
X60039Y22437D01*
X60174D01*
X60304Y22472D01*
X60421Y22539D01*
X60516Y22635D01*
X60583Y22751D01*
X60618Y22881D01*
Y23016D01*
X60583Y23146D01*
X60516Y23263D01*
X60421Y23358D01*
X60304Y23426D01*
X60174Y23461D01*
D02*
G37*
G36*
X47243Y23119D02*
X47129D01*
X47019Y23090D01*
X46920Y23033D01*
X46839Y22952D01*
X46782Y22853D01*
X46753Y22743D01*
Y22629D01*
X46782Y22519D01*
X46839Y22420D01*
X46920Y22339D01*
X47019Y22282D01*
X47129Y22253D01*
X47243D01*
X47353Y22282D01*
X47452Y22339D01*
X47533Y22420D01*
X47590Y22519D01*
X47619Y22629D01*
Y22743D01*
X47590Y22853D01*
X47533Y22952D01*
X47452Y23033D01*
X47353Y23090D01*
X47243Y23119D01*
D02*
G37*
G36*
X40409Y22151D02*
X40258D01*
Y22012D01*
X40298Y22028D01*
X40356Y22073D01*
X40400Y22130D01*
X40409Y22151D01*
D02*
G37*
G36*
X39864D02*
X39713D01*
X39722Y22130D01*
X39766Y22073D01*
X39824Y22028D01*
X39864Y22012D01*
Y22151D01*
D02*
G37*
G36*
X44522Y24075D02*
X44454D01*
X44389Y24057D01*
X44331Y24024D01*
X44283Y23976D01*
X44250Y23918D01*
X44232Y23853D01*
Y23818D01*
X43297Y22884D01*
X43258Y22825D01*
X43245Y22756D01*
Y22386D01*
X43220Y22362D01*
X43187Y22304D01*
X43169Y22238D01*
Y22171D01*
X43187Y22106D01*
X43220Y22048D01*
X43268Y22000D01*
X43326Y21966D01*
X43392Y21949D01*
X43459D01*
X43524Y21966D01*
X43582Y22000D01*
X43630Y22048D01*
X43664Y22106D01*
X43681Y22171D01*
Y22238D01*
X43664Y22304D01*
X43630Y22362D01*
X43606Y22386D01*
Y22681D01*
X44488Y23563D01*
X44522D01*
X44587Y23580D01*
X44645Y23614D01*
X44693Y23662D01*
X44727Y23720D01*
X44744Y23785D01*
Y23853D01*
X44727Y23918D01*
X44693Y23976D01*
X44645Y24024D01*
X44587Y24057D01*
X44522Y24075D01*
D02*
G37*
G36*
X40258Y21860D02*
Y21721D01*
X40409D01*
X40400Y21742D01*
X40356Y21799D01*
X40298Y21844D01*
X40258Y21860D01*
D02*
G37*
G36*
X39864Y21860D02*
X39824Y21844D01*
X39766Y21799D01*
X39722Y21742D01*
X39713Y21721D01*
X39864D01*
Y21860D01*
D02*
G37*
G36*
X37485Y23185D02*
X37387D01*
X37292Y23160D01*
X37206Y23110D01*
X37137Y23041D01*
X37088Y22955D01*
X37062Y22860D01*
Y22762D01*
X37088Y22667D01*
X37137Y22581D01*
X37206Y22512D01*
X37255Y22483D01*
Y22225D01*
X37269Y22156D01*
X37308Y22097D01*
X37377Y22028D01*
X37436Y21989D01*
X37505Y21975D01*
X37904D01*
X37912Y21938D01*
X37965Y21859D01*
X37911Y21818D01*
X37859Y21751D01*
X37827Y21673D01*
X37826Y21663D01*
X38796D01*
X38795Y21673D01*
X38763Y21751D01*
X38711Y21818D01*
X38657Y21859D01*
X38710Y21938D01*
X38729Y22032D01*
Y22279D01*
X38710Y22373D01*
X38657Y22452D01*
X38577Y22506D01*
X38483Y22524D01*
X38139D01*
X38045Y22506D01*
X37965Y22452D01*
X37912Y22373D01*
X37904Y22336D01*
X37617D01*
Y22483D01*
X37666Y22512D01*
X37735Y22581D01*
X37785Y22667D01*
X37810Y22762D01*
Y22860D01*
X37785Y22955D01*
X37735Y23041D01*
X37666Y23110D01*
X37580Y23160D01*
X37485Y23185D01*
D02*
G37*
G36*
X64243Y22494D02*
X64129D01*
X64019Y22465D01*
X63920Y22408D01*
X63839Y22327D01*
X63782Y22228D01*
X63753Y22118D01*
Y22004D01*
X63782Y21894D01*
X63839Y21795D01*
X63920Y21714D01*
X64019Y21657D01*
X64129Y21628D01*
X64243D01*
X64353Y21657D01*
X64452Y21714D01*
X64533Y21795D01*
X64590Y21894D01*
X64619Y22004D01*
Y22118D01*
X64590Y22228D01*
X64533Y22327D01*
X64452Y22408D01*
X64353Y22465D01*
X64243Y22494D01*
D02*
G37*
G36*
X51258Y21538D02*
Y21258D01*
X51538D01*
X51538Y21259D01*
X51471Y21375D01*
X51375Y21471D01*
X51259Y21538D01*
X51258Y21538D01*
D02*
G37*
G36*
X50864D02*
X50863Y21538D01*
X50747Y21471D01*
X50651Y21375D01*
X50584Y21259D01*
X50584Y21258D01*
X50864D01*
Y21538D01*
D02*
G37*
G36*
X47243Y22119D02*
X47129D01*
X47019Y22090D01*
X46920Y22033D01*
X46839Y21952D01*
X46782Y21853D01*
X46753Y21743D01*
Y21629D01*
X46782Y21519D01*
X46839Y21420D01*
X46920Y21339D01*
X47019Y21282D01*
X47129Y21253D01*
X47243D01*
X47353Y21282D01*
X47452Y21339D01*
X47533Y21420D01*
X47590Y21519D01*
X47619Y21629D01*
Y21743D01*
X47590Y21853D01*
X47533Y21952D01*
X47452Y22033D01*
X47353Y22090D01*
X47243Y22119D01*
D02*
G37*
G36*
X41890Y21257D02*
X41881Y21252D01*
X41819Y21190D01*
X41814Y21181D01*
X41890D01*
Y21257D01*
D02*
G37*
G36*
X40846Y21335D02*
X40748D01*
X40653Y21310D01*
X40567Y21261D01*
X40498Y21191D01*
X40473Y21148D01*
X40332D01*
X40322Y21163D01*
X40303Y21196D01*
X40332Y21231D01*
X40356Y21249D01*
X40400Y21306D01*
X40409Y21327D01*
X40061D01*
X39713D01*
X39722Y21306D01*
X39766Y21249D01*
X39790Y21231D01*
X39819Y21196D01*
X39800Y21163D01*
X39777Y21128D01*
X39762Y21052D01*
Y20894D01*
X39777Y20817D01*
X39821Y20752D01*
X39886Y20709D01*
X39963Y20693D01*
X40159D01*
X40236Y20709D01*
X40301Y20752D01*
X40324Y20787D01*
X40466D01*
X40498Y20732D01*
X40567Y20662D01*
X40653Y20613D01*
X40748Y20587D01*
X40846D01*
X40941Y20613D01*
X41027Y20662D01*
X41096Y20732D01*
X41146Y20817D01*
X41171Y20912D01*
Y21011D01*
X41146Y21106D01*
X41096Y21191D01*
X41027Y21261D01*
X40941Y21310D01*
X40846Y21335D01*
D02*
G37*
G36*
X38796Y21270D02*
X38508D01*
Y21024D01*
X38567Y21032D01*
X38645Y21064D01*
X38711Y21115D01*
X38763Y21182D01*
X38795Y21260D01*
X38796Y21270D01*
D02*
G37*
G36*
X38114D02*
X37826D01*
X37827Y21260D01*
X37859Y21182D01*
X37911Y21115D01*
X37977Y21064D01*
X38055Y21032D01*
X38114Y21024D01*
Y21270D01*
D02*
G37*
G36*
X37633Y21220D02*
Y21008D01*
X37845D01*
X37798Y21089D01*
X37714Y21173D01*
X37633Y21220D01*
D02*
G37*
G36*
X37239D02*
X37158Y21173D01*
X37074Y21089D01*
X37027Y21008D01*
X37239D01*
Y21220D01*
D02*
G37*
G36*
X53118Y23744D02*
X53004D01*
X52894Y23715D01*
X52795Y23658D01*
X52714Y23577D01*
X52657Y23478D01*
X52628Y23368D01*
Y23254D01*
X52644Y23194D01*
Y21178D01*
X52628Y21118D01*
Y21004D01*
X52657Y20894D01*
X52714Y20795D01*
X52795Y20714D01*
X52894Y20657D01*
X53004Y20628D01*
X53118D01*
X53228Y20657D01*
X53327Y20714D01*
X53408Y20795D01*
X53465Y20894D01*
X53494Y21004D01*
Y21118D01*
X53478Y21178D01*
Y23194D01*
X53494Y23254D01*
Y23368D01*
X53465Y23478D01*
X53408Y23577D01*
X53327Y23658D01*
X53228Y23715D01*
X53118Y23744D01*
D02*
G37*
G36*
X51610Y23060D02*
X51512D01*
X51417Y23035D01*
X51331Y22985D01*
X51262Y22916D01*
X51213Y22830D01*
X51187Y22735D01*
Y22637D01*
X51213Y22542D01*
X51262Y22456D01*
X51331Y22387D01*
X51417Y22338D01*
X51433Y22333D01*
X51743Y22022D01*
Y21356D01*
X51714Y21327D01*
X51657Y21228D01*
X51628Y21118D01*
Y21004D01*
X51657Y20894D01*
X51714Y20795D01*
X51795Y20714D01*
X51894Y20657D01*
X52004Y20628D01*
X52118D01*
X52228Y20657D01*
X52327Y20714D01*
X52408Y20795D01*
X52465Y20894D01*
X52494Y21004D01*
Y21118D01*
X52465Y21228D01*
X52408Y21327D01*
X52379Y21356D01*
Y22154D01*
X52368Y22236D01*
X52336Y22313D01*
X52286Y22379D01*
X51935Y22729D01*
Y22735D01*
X51910Y22830D01*
X51860Y22916D01*
X51791Y22985D01*
X51705Y23035D01*
X51610Y23060D01*
D02*
G37*
G36*
X51538Y20864D02*
X51258D01*
Y20584D01*
X51259Y20584D01*
X51375Y20651D01*
X51471Y20747D01*
X51538Y20863D01*
X51538Y20864D01*
D02*
G37*
G36*
X50864D02*
X50584D01*
X50584Y20863D01*
X50651Y20747D01*
X50747Y20651D01*
X50863Y20584D01*
X50864Y20584D01*
Y20864D01*
D02*
G37*
G36*
X37845Y20614D02*
X37633D01*
Y20402D01*
X37714Y20449D01*
X37798Y20533D01*
X37845Y20614D01*
D02*
G37*
G36*
X37239D02*
X37027D01*
X37074Y20533D01*
X37158Y20449D01*
X37239Y20402D01*
Y20614D01*
D02*
G37*
G36*
X14621Y21421D02*
X14501D01*
X14383Y21398D01*
X14272Y21352D01*
X14172Y21285D01*
X14087Y21200D01*
X14020Y21100D01*
X13974Y20989D01*
X13951Y20871D01*
Y20751D01*
X13974Y20633D01*
X14020Y20522D01*
X14087Y20422D01*
X14172Y20337D01*
X14272Y20270D01*
X14383Y20224D01*
X14501Y20201D01*
X14621D01*
X14739Y20224D01*
X14850Y20270D01*
X14950Y20337D01*
X15035Y20422D01*
X15102Y20522D01*
X15148Y20633D01*
X15171Y20751D01*
Y20871D01*
X15148Y20989D01*
X15102Y21100D01*
X15035Y21200D01*
X14950Y21285D01*
X14850Y21352D01*
X14739Y21398D01*
X14621Y21421D01*
D02*
G37*
G36*
X45739Y20239D02*
X45527D01*
X45574Y20158D01*
X45658Y20074D01*
X45739Y20027D01*
Y20239D01*
D02*
G37*
G36*
X32874Y33428D02*
X26181D01*
X26099Y33417D01*
X26022Y33385D01*
X25956Y33335D01*
X25906Y33269D01*
X25874Y33192D01*
X25863Y33110D01*
X25874Y33028D01*
X25906Y32951D01*
X25956Y32886D01*
X26022Y32835D01*
X26099Y32803D01*
X26181Y32793D01*
X32742D01*
X35208Y30327D01*
X35274Y30276D01*
X35351Y30244D01*
X35433Y30234D01*
X38462D01*
Y25856D01*
X38473Y25774D01*
X38504Y25697D01*
X38555Y25632D01*
X39475Y24711D01*
X39541Y24661D01*
X39618Y24629D01*
X39700Y24618D01*
X40516D01*
X40545Y24589D01*
X40644Y24532D01*
X40754Y24503D01*
X40868D01*
X40978Y24532D01*
X41077Y24589D01*
X41106Y24618D01*
X41699D01*
X41743Y24574D01*
Y24374D01*
X41700Y24309D01*
X41683Y24224D01*
Y24028D01*
X41700Y23943D01*
X41747Y23871D01*
X41794Y23841D01*
Y23782D01*
X41747Y23751D01*
X41700Y23679D01*
X41683Y23594D01*
Y23398D01*
X41700Y23313D01*
X41747Y23242D01*
X41819Y23194D01*
X41873Y23183D01*
Y23062D01*
X41842Y23031D01*
X41809Y22973D01*
X41791Y22908D01*
Y22840D01*
X41809Y22775D01*
X41842Y22717D01*
X41890Y22669D01*
X41948Y22636D01*
X42014Y22618D01*
X42081D01*
X42146Y22636D01*
X42204Y22669D01*
X42252Y22717D01*
X42286Y22775D01*
X42303Y22840D01*
Y22908D01*
X42286Y22973D01*
X42252Y23031D01*
X42235Y23048D01*
Y23180D01*
X42303Y23194D01*
X42375Y23242D01*
X42422Y23313D01*
X42439Y23398D01*
Y23594D01*
X42422Y23679D01*
X42375Y23751D01*
X42328Y23782D01*
Y23841D01*
X42375Y23871D01*
X42422Y23943D01*
X42439Y24028D01*
Y24224D01*
X42422Y24309D01*
X42379Y24374D01*
Y24705D01*
X42368Y24788D01*
X42336Y24864D01*
X42286Y24930D01*
X42055Y25161D01*
X41989Y25211D01*
X41913Y25243D01*
X41830Y25254D01*
X41106D01*
X41077Y25283D01*
X40978Y25340D01*
X40868Y25369D01*
X40754D01*
X40644Y25340D01*
X40545Y25283D01*
X40516Y25254D01*
X39831D01*
X39097Y25988D01*
Y30234D01*
X49081D01*
X49441Y29873D01*
Y19963D01*
X47858D01*
X46301Y21521D01*
X46285Y21580D01*
X46254Y21634D01*
Y21901D01*
X46282Y21920D01*
X46335Y21999D01*
X46354Y22094D01*
Y22340D01*
X46335Y22434D01*
X46282Y22513D01*
X46336Y22554D01*
X46388Y22621D01*
X46420Y22699D01*
X46421Y22709D01*
X45451D01*
X45452Y22699D01*
X45484Y22621D01*
X45536Y22554D01*
X45590Y22513D01*
X45537Y22434D01*
X45518Y22340D01*
Y22094D01*
X45537Y21999D01*
X45590Y21920D01*
X45618Y21901D01*
Y21634D01*
X45588Y21580D01*
X45562Y21485D01*
Y21387D01*
X45588Y21292D01*
X45637Y21206D01*
X45706Y21137D01*
X45792Y21088D01*
X45851Y21072D01*
X45984Y20939D01*
X45963Y20889D01*
X45876D01*
X45761Y20858D01*
X45658Y20798D01*
X45574Y20714D01*
X45527Y20633D01*
X45936D01*
Y20436D01*
X46133D01*
Y20027D01*
X46214Y20074D01*
X46298Y20158D01*
X46358Y20261D01*
X46389Y20376D01*
Y20463D01*
X46439Y20484D01*
X47502Y19421D01*
X47568Y19371D01*
X47644Y19339D01*
X47726Y19328D01*
X49441D01*
Y18386D01*
X49452Y18304D01*
X49484Y18227D01*
X49535Y18161D01*
X49600Y18111D01*
X49677Y18079D01*
X49759Y18068D01*
X49841Y18079D01*
X49918Y18111D01*
X49984Y18161D01*
X50034Y18227D01*
X50066Y18304D01*
X50077Y18386D01*
Y19328D01*
X53071D01*
X53153Y19339D01*
X53230Y19371D01*
X53295Y19421D01*
X53346Y19487D01*
X53378Y19563D01*
X53389Y19646D01*
X53378Y19728D01*
X53346Y19805D01*
X53295Y19870D01*
X53230Y19921D01*
X53153Y19953D01*
X53071Y19963D01*
X50077D01*
Y30005D01*
X50066Y30087D01*
X50034Y30163D01*
X49984Y30229D01*
X49437Y30776D01*
X49371Y30826D01*
X49295Y30858D01*
X49213Y30869D01*
X35565D01*
X33099Y33335D01*
X33033Y33385D01*
X32956Y33417D01*
X32874Y33428D01*
D02*
G37*
G36*
X44087Y19005D02*
Y18929D01*
X44163D01*
X44158Y18938D01*
X44095Y19000D01*
X44087Y19005D01*
D02*
G37*
G36*
X43693D02*
X43684Y19000D01*
X43622Y18938D01*
X43617Y18929D01*
X43693D01*
Y19005D01*
D02*
G37*
G36*
X34258Y18970D02*
Y18758D01*
X34470D01*
X34423Y18839D01*
X34339Y18923D01*
X34258Y18970D01*
D02*
G37*
G36*
X33864D02*
X33783Y18923D01*
X33699Y18839D01*
X33652Y18758D01*
X33864D01*
Y18970D01*
D02*
G37*
G36*
X27952Y18845D02*
Y18633D01*
X28164D01*
X28117Y18714D01*
X28033Y18798D01*
X27952Y18845D01*
D02*
G37*
G36*
X27558D02*
X27477Y18798D01*
X27393Y18714D01*
X27346Y18633D01*
X27558D01*
Y18845D01*
D02*
G37*
G36*
X44175Y18535D02*
X43617D01*
X43622Y18527D01*
X43684Y18464D01*
X43761Y18420D01*
X43775Y18417D01*
X43789Y18374D01*
X44348D01*
X44343Y18383D01*
X44280Y18445D01*
X44204Y18489D01*
X44189Y18493D01*
X44175Y18535D01*
D02*
G37*
G36*
X34470Y18364D02*
X34258D01*
Y18152D01*
X34339Y18199D01*
X34423Y18283D01*
X34470Y18364D01*
D02*
G37*
G36*
X33864D02*
X33652D01*
X33699Y18283D01*
X33783Y18199D01*
X33864Y18152D01*
Y18364D01*
D02*
G37*
G36*
X28164Y18239D02*
X27952D01*
Y18027D01*
X28033Y18074D01*
X28117Y18158D01*
X28164Y18239D01*
D02*
G37*
G36*
X27558D02*
X27346D01*
X27393Y18158D01*
X27477Y18074D01*
X27558Y18027D01*
Y18239D01*
D02*
G37*
G36*
X14252Y27758D02*
X14206Y27749D01*
X14167Y27723D01*
X14167Y27723D01*
X13931Y27487D01*
X13904Y27448D01*
X13895Y27402D01*
X13895Y27402D01*
Y27087D01*
Y26824D01*
X13896Y26819D01*
X13896Y26813D01*
X13901Y26796D01*
X13904Y26778D01*
X13908Y26773D01*
X13909Y26768D01*
X13921Y26754D01*
X13931Y26739D01*
X13935Y26736D01*
X13939Y26732D01*
X14238Y26482D01*
X14254Y26474D01*
X14269Y26464D01*
X14274Y26462D01*
X14279Y26460D01*
X14297Y26458D01*
X14315Y26454D01*
X15344D01*
X15588Y26210D01*
Y20011D01*
X15226Y19648D01*
X14134D01*
X14088Y19639D01*
X14049Y19613D01*
X13734Y19298D01*
X13708Y19259D01*
X13698Y19213D01*
X13698Y19213D01*
Y18386D01*
X13708Y18340D01*
X13734Y18301D01*
X14049Y17986D01*
X14088Y17960D01*
X14134Y17950D01*
X14134Y17950D01*
X16339D01*
X16359Y17955D01*
X16380Y17958D01*
X16382Y17959D01*
X16385Y17960D01*
X16402Y17971D01*
X16420Y17982D01*
X17444Y18927D01*
X17445Y18929D01*
X17447Y18931D01*
X17459Y18948D01*
X17472Y18965D01*
X17472Y18968D01*
X17473Y18970D01*
X17478Y18990D01*
X17483Y19011D01*
X17482Y19013D01*
X17483Y19016D01*
Y26732D01*
X17482Y26736D01*
X17482Y26740D01*
X17477Y26759D01*
X17473Y26778D01*
X17471Y26781D01*
X17470Y26785D01*
X17458Y26801D01*
X17447Y26817D01*
X17444Y26820D01*
X17442Y26822D01*
X16418Y27728D01*
X16401Y27738D01*
X16385Y27749D01*
X16381Y27750D01*
X16378Y27752D01*
X16358Y27754D01*
X16339Y27758D01*
X14252D01*
X14252Y27758D01*
D02*
G37*
G36*
X24808Y18119D02*
X24725Y18084D01*
X24628Y18020D01*
X24546Y17937D01*
X24487Y17849D01*
X24434Y17841D01*
X24414Y17875D01*
X24319Y17971D01*
X24202Y18038D01*
X24072Y18073D01*
X23938D01*
X23807Y18038D01*
X23691Y17971D01*
X23595Y17875D01*
X23528Y17759D01*
X23493Y17628D01*
Y17494D01*
X23528Y17363D01*
X23595Y17247D01*
X23691Y17151D01*
X23807Y17084D01*
X23938Y17049D01*
X24072D01*
X24202Y17084D01*
X24319Y17151D01*
X24414Y17247D01*
X24434Y17281D01*
X24487Y17273D01*
X24546Y17185D01*
X24628Y17102D01*
X24725Y17038D01*
X24808Y17003D01*
Y17561D01*
Y18119D01*
D02*
G37*
G36*
X47883Y17845D02*
Y17633D01*
X48095D01*
X48048Y17714D01*
X47964Y17798D01*
X47883Y17845D01*
D02*
G37*
G36*
X47489D02*
X47408Y17798D01*
X47324Y17714D01*
X47277Y17633D01*
X47489D01*
Y17845D01*
D02*
G37*
G36*
X42283Y21257D02*
Y20984D01*
X42087D01*
Y20787D01*
X41814D01*
X41819Y20779D01*
X41881Y20716D01*
X41957Y20672D01*
X42043Y20650D01*
X42127D01*
X42135Y20641D01*
X42152Y20603D01*
X41193Y19645D01*
X41127Y19559D01*
X41085Y19458D01*
X41071Y19350D01*
X41071Y19350D01*
Y17681D01*
X40579Y17189D01*
X34264D01*
X34251Y17239D01*
X34291Y17262D01*
X34360Y17331D01*
X34410Y17417D01*
X34435Y17512D01*
Y17610D01*
X34410Y17705D01*
X34360Y17791D01*
X34291Y17860D01*
X34205Y17910D01*
X34110Y17935D01*
X34012D01*
X33917Y17910D01*
X33831Y17860D01*
X33762Y17791D01*
X33712Y17705D01*
X33687Y17610D01*
Y17512D01*
X33712Y17417D01*
X33762Y17331D01*
X33831Y17262D01*
X33913Y17214D01*
X33916Y17201D01*
X33915Y17161D01*
X33847Y17133D01*
X33760Y17066D01*
X33694Y16980D01*
X33652Y16880D01*
X33638Y16772D01*
X33652Y16664D01*
X33694Y16563D01*
X33760Y16477D01*
X33847Y16411D01*
X33947Y16369D01*
X34055Y16355D01*
X40752D01*
X40752Y16355D01*
X40860Y16369D01*
X40960Y16411D01*
X41047Y16477D01*
X41586Y17016D01*
X46683D01*
X46683Y17016D01*
X46791Y17030D01*
X46892Y17072D01*
X46978Y17138D01*
X46981Y17141D01*
X47047Y17228D01*
X47089Y17328D01*
X47103Y17436D01*
X47089Y17544D01*
X47047Y17644D01*
X46981Y17731D01*
X46894Y17797D01*
X46794Y17839D01*
X46686Y17853D01*
X46664Y17850D01*
X44277D01*
X44264Y17900D01*
X44280Y17909D01*
X44343Y17972D01*
X44348Y17980D01*
X43802D01*
X43807Y17972D01*
X43869Y17909D01*
X43886Y17900D01*
X43872Y17850D01*
X41905D01*
Y19178D01*
X42719Y19991D01*
X44985D01*
X45093Y20005D01*
X45194Y20047D01*
X45280Y20113D01*
X45347Y20200D01*
X45388Y20300D01*
X45402Y20408D01*
X45388Y20516D01*
X45347Y20617D01*
X45280Y20703D01*
X45194Y20769D01*
X45093Y20811D01*
X44985Y20825D01*
X42546D01*
X42438Y20811D01*
X42428Y20807D01*
X42394Y20847D01*
X42398Y20855D01*
X42421Y20940D01*
Y21028D01*
X42398Y21113D01*
X42354Y21190D01*
X42292Y21252D01*
X42283Y21257D01*
D02*
G37*
G36*
X27804Y17810D02*
X27706D01*
X27611Y17785D01*
X27525Y17735D01*
X27456Y17666D01*
X27406Y17580D01*
X27381Y17485D01*
Y17387D01*
X27406Y17292D01*
X27456Y17206D01*
X27525Y17137D01*
X27611Y17088D01*
X27706Y17062D01*
X27804D01*
X27899Y17088D01*
X27985Y17137D01*
X28054Y17206D01*
X28103Y17292D01*
X28129Y17387D01*
Y17485D01*
X28103Y17580D01*
X28054Y17666D01*
X27985Y17735D01*
X27899Y17785D01*
X27804Y17810D01*
D02*
G37*
G36*
X25202Y18119D02*
Y17561D01*
Y17003D01*
X25285Y17038D01*
X25381Y17102D01*
X25464Y17185D01*
X25523Y17273D01*
X25575Y17281D01*
X25595Y17247D01*
X25691Y17151D01*
X25807Y17084D01*
X25938Y17049D01*
X26072D01*
X26202Y17084D01*
X26319Y17151D01*
X26414Y17247D01*
X26482Y17363D01*
X26517Y17494D01*
Y17628D01*
X26482Y17759D01*
X26414Y17875D01*
X26319Y17971D01*
X26202Y18038D01*
X26072Y18073D01*
X25938D01*
X25807Y18038D01*
X25691Y17971D01*
X25595Y17875D01*
X25575Y17841D01*
X25523Y17849D01*
X25464Y17937D01*
X25381Y18020D01*
X25285Y18084D01*
X25202Y18119D01*
D02*
G37*
G36*
X48095Y17239D02*
X47883D01*
Y17027D01*
X47964Y17074D01*
X48048Y17158D01*
X48095Y17239D01*
D02*
G37*
G36*
X47489D02*
X47277D01*
X47324Y17158D01*
X47408Y17074D01*
X47489Y17027D01*
Y17239D01*
D02*
G37*
G36*
X53118Y17744D02*
X53004D01*
X52894Y17715D01*
X52795Y17658D01*
X52714Y17577D01*
X52657Y17478D01*
X52628Y17368D01*
Y17254D01*
X52657Y17144D01*
X52714Y17045D01*
X52795Y16964D01*
X52894Y16907D01*
X53004Y16878D01*
X53118D01*
X53228Y16907D01*
X53327Y16964D01*
X53408Y17045D01*
X53465Y17144D01*
X53494Y17254D01*
Y17368D01*
X53465Y17478D01*
X53408Y17577D01*
X53327Y17658D01*
X53228Y17715D01*
X53118Y17744D01*
D02*
G37*
G36*
X51618D02*
X51504D01*
X51394Y17715D01*
X51295Y17658D01*
X51214Y17577D01*
X51157Y17478D01*
X51128Y17368D01*
Y17254D01*
X51157Y17144D01*
X51214Y17045D01*
X51295Y16964D01*
X51394Y16907D01*
X51504Y16878D01*
X51618D01*
X51728Y16907D01*
X51827Y16964D01*
X51908Y17045D01*
X51965Y17144D01*
X51994Y17254D01*
Y17368D01*
X51965Y17478D01*
X51908Y17577D01*
X51827Y17658D01*
X51728Y17715D01*
X51618Y17744D01*
D02*
G37*
G36*
X53258Y16788D02*
Y16508D01*
X53538D01*
X53538Y16509D01*
X53471Y16625D01*
X53375Y16721D01*
X53259Y16788D01*
X53258Y16788D01*
D02*
G37*
G36*
X51758D02*
Y16508D01*
X52038D01*
X52038Y16509D01*
X51971Y16625D01*
X51875Y16721D01*
X51759Y16788D01*
X51758Y16788D01*
D02*
G37*
G36*
X51364D02*
X51363Y16788D01*
X51247Y16721D01*
X51151Y16625D01*
X51084Y16509D01*
X51084Y16508D01*
X51364D01*
Y16788D01*
D02*
G37*
G36*
X52864D02*
X52863Y16788D01*
X52747Y16721D01*
X52651Y16625D01*
X52584Y16509D01*
X52584Y16508D01*
X52864D01*
Y16788D01*
D02*
G37*
G36*
X14621Y17421D02*
X14501D01*
X14383Y17398D01*
X14272Y17352D01*
X14172Y17285D01*
X14087Y17200D01*
X14020Y17100D01*
X13974Y16989D01*
X13951Y16871D01*
Y16751D01*
X13974Y16633D01*
X14020Y16522D01*
X14087Y16422D01*
X14172Y16337D01*
X14272Y16270D01*
X14383Y16224D01*
X14501Y16201D01*
X14621D01*
X14739Y16224D01*
X14850Y16270D01*
X14950Y16337D01*
X15035Y16422D01*
X15102Y16522D01*
X15148Y16633D01*
X15171Y16751D01*
Y16871D01*
X15148Y16989D01*
X15102Y17100D01*
X15035Y17200D01*
X14950Y17285D01*
X14850Y17352D01*
X14739Y17398D01*
X14621Y17421D01*
D02*
G37*
G36*
X53538Y16114D02*
X53258D01*
Y15834D01*
X53259Y15834D01*
X53375Y15901D01*
X53471Y15997D01*
X53538Y16113D01*
X53538Y16114D01*
D02*
G37*
G36*
X52038D02*
X51758D01*
Y15834D01*
X51759Y15834D01*
X51875Y15901D01*
X51971Y15997D01*
X52038Y16113D01*
X52038Y16114D01*
D02*
G37*
G36*
X51364D02*
X51084D01*
X51084Y16113D01*
X51151Y15997D01*
X51247Y15901D01*
X51363Y15834D01*
X51364Y15834D01*
Y16114D01*
D02*
G37*
G36*
X52864D02*
X52584D01*
X52584Y16113D01*
X52651Y15997D01*
X52747Y15901D01*
X52863Y15834D01*
X52864Y15834D01*
Y16114D01*
D02*
G37*
G36*
X14758Y15474D02*
Y15008D01*
X15224D01*
X15224Y15012D01*
X15172Y15137D01*
X15096Y15250D01*
X15000Y15346D01*
X14887Y15422D01*
X14762Y15474D01*
X14758Y15474D01*
D02*
G37*
G36*
X14364D02*
X14360Y15474D01*
X14235Y15422D01*
X14122Y15346D01*
X14026Y15250D01*
X13950Y15137D01*
X13899Y15012D01*
X13898Y15008D01*
X14364D01*
Y15474D01*
D02*
G37*
G36*
X19817Y16012D02*
X19683D01*
X19552Y15977D01*
X19436Y15910D01*
X19340Y15814D01*
X19273Y15698D01*
X19238Y15567D01*
Y15433D01*
X19273Y15302D01*
X19340Y15186D01*
X19436Y15090D01*
X19552Y15023D01*
X19683Y14988D01*
X19817D01*
X19948Y15023D01*
X20064Y15090D01*
X20160Y15186D01*
X20227Y15302D01*
X20262Y15433D01*
Y15567D01*
X20227Y15698D01*
X20160Y15814D01*
X20064Y15910D01*
X19948Y15977D01*
X19817Y16012D01*
D02*
G37*
G36*
X53118Y15744D02*
X53004D01*
X52894Y15715D01*
X52795Y15658D01*
X52714Y15577D01*
X52657Y15478D01*
X52628Y15368D01*
Y15254D01*
X52657Y15144D01*
X52714Y15045D01*
X52795Y14964D01*
X52894Y14907D01*
X53004Y14878D01*
X53118D01*
X53228Y14907D01*
X53327Y14964D01*
X53408Y15045D01*
X53465Y15144D01*
X53494Y15254D01*
Y15368D01*
X53465Y15478D01*
X53408Y15577D01*
X53327Y15658D01*
X53228Y15715D01*
X53118Y15744D01*
D02*
G37*
G36*
X51618D02*
X51504D01*
X51394Y15715D01*
X51295Y15658D01*
X51214Y15577D01*
X51157Y15478D01*
X51128Y15368D01*
Y15254D01*
X51157Y15144D01*
X51214Y15045D01*
X51295Y14964D01*
X51394Y14907D01*
X51504Y14878D01*
X51618D01*
X51728Y14907D01*
X51827Y14964D01*
X51908Y15045D01*
X51965Y15144D01*
X51994Y15254D01*
Y15368D01*
X51965Y15478D01*
X51908Y15577D01*
X51827Y15658D01*
X51728Y15715D01*
X51618Y15744D01*
D02*
G37*
G36*
X21985Y15185D02*
X21887D01*
X21792Y15160D01*
X21706Y15110D01*
X21637Y15041D01*
X21588Y14955D01*
X21562Y14860D01*
Y14762D01*
X21588Y14667D01*
X21637Y14581D01*
X21706Y14512D01*
X21792Y14462D01*
X21887Y14437D01*
X21985D01*
X22080Y14462D01*
X22166Y14512D01*
X22235Y14581D01*
X22285Y14667D01*
X22310Y14762D01*
Y14860D01*
X22285Y14955D01*
X22235Y15041D01*
X22166Y15110D01*
X22080Y15160D01*
X21985Y15185D01*
D02*
G37*
G36*
X45508Y14538D02*
Y14258D01*
X45788D01*
X45788Y14259D01*
X45721Y14375D01*
X45625Y14471D01*
X45509Y14538D01*
X45508Y14538D01*
D02*
G37*
G36*
X45114D02*
X45113Y14538D01*
X44997Y14471D01*
X44901Y14375D01*
X44834Y14259D01*
X44834Y14258D01*
X45114D01*
Y14538D01*
D02*
G37*
G36*
X41258D02*
Y14258D01*
X41538D01*
X41538Y14259D01*
X41471Y14375D01*
X41375Y14471D01*
X41259Y14538D01*
X41258Y14538D01*
D02*
G37*
G36*
X40864D02*
X40863Y14538D01*
X40747Y14471D01*
X40651Y14375D01*
X40584Y14259D01*
X40584Y14258D01*
X40864D01*
Y14538D01*
D02*
G37*
G36*
X38633D02*
Y14258D01*
X38913D01*
X38913Y14259D01*
X38846Y14375D01*
X38750Y14471D01*
X38634Y14538D01*
X38633Y14538D01*
D02*
G37*
G36*
X38239D02*
X38238Y14538D01*
X38122Y14471D01*
X38026Y14375D01*
X37959Y14259D01*
X37959Y14258D01*
X38239D01*
Y14538D01*
D02*
G37*
G36*
X15224Y14614D02*
X14758D01*
Y14148D01*
X14762Y14149D01*
X14887Y14200D01*
X15000Y14276D01*
X15096Y14372D01*
X15172Y14485D01*
X15224Y14610D01*
X15224Y14614D01*
D02*
G37*
G36*
X14364D02*
X13898D01*
X13899Y14610D01*
X13950Y14485D01*
X14026Y14372D01*
X14122Y14276D01*
X14235Y14200D01*
X14360Y14149D01*
X14364Y14148D01*
Y14614D01*
D02*
G37*
G36*
X22133Y14220D02*
Y14008D01*
X22345D01*
X22298Y14089D01*
X22214Y14173D01*
X22133Y14220D01*
D02*
G37*
G36*
X21739D02*
X21658Y14173D01*
X21574Y14089D01*
X21527Y14008D01*
X21739D01*
Y14220D01*
D02*
G37*
G36*
X46368Y14494D02*
X46254D01*
X46144Y14465D01*
X46045Y14408D01*
X45964Y14327D01*
X45907Y14228D01*
X45878Y14118D01*
Y14004D01*
X45907Y13894D01*
X45964Y13795D01*
X46045Y13714D01*
X46144Y13657D01*
X46254Y13628D01*
X46368D01*
X46478Y13657D01*
X46577Y13714D01*
X46658Y13795D01*
X46715Y13894D01*
X46744Y14004D01*
Y14118D01*
X46715Y14228D01*
X46658Y14327D01*
X46577Y14408D01*
X46478Y14465D01*
X46368Y14494D01*
D02*
G37*
G36*
X42118D02*
X42004D01*
X41894Y14465D01*
X41795Y14408D01*
X41714Y14327D01*
X41657Y14228D01*
X41628Y14118D01*
Y14004D01*
X41657Y13894D01*
X41714Y13795D01*
X41795Y13714D01*
X41894Y13657D01*
X42004Y13628D01*
X42118D01*
X42228Y13657D01*
X42327Y13714D01*
X42408Y13795D01*
X42465Y13894D01*
X42494Y14004D01*
Y14118D01*
X42465Y14228D01*
X42408Y14327D01*
X42327Y14408D01*
X42228Y14465D01*
X42118Y14494D01*
D02*
G37*
G36*
X32331Y31978D02*
X32331Y31978D01*
X30061D01*
X29953Y31964D01*
X29853Y31922D01*
X29766Y31856D01*
X29700Y31769D01*
X29658Y31669D01*
X29644Y31561D01*
X29658Y31453D01*
X29700Y31353D01*
X29766Y31266D01*
X29827Y31219D01*
X29824Y31160D01*
X29783Y31136D01*
X29699Y31052D01*
X29652Y30970D01*
X30061D01*
X30470D01*
X30423Y31052D01*
X30381Y31094D01*
X30402Y31144D01*
X32159D01*
X32260Y31042D01*
Y15818D01*
X32260Y15818D01*
X32274Y15710D01*
X32316Y15610D01*
X32382Y15524D01*
X32728Y15178D01*
X32728Y15178D01*
X32815Y15111D01*
X32915Y15070D01*
X33023Y15055D01*
X33023Y15055D01*
X36917D01*
X37019Y14954D01*
Y14178D01*
X37003Y14118D01*
Y14004D01*
X37032Y13894D01*
X37089Y13795D01*
X37170Y13714D01*
X37269Y13657D01*
X37379Y13628D01*
X37493D01*
X37603Y13657D01*
X37702Y13714D01*
X37783Y13795D01*
X37840Y13894D01*
X37869Y14004D01*
Y14118D01*
X37853Y14178D01*
Y15127D01*
X37853Y15127D01*
X37839Y15234D01*
X37797Y15335D01*
X37731Y15421D01*
X37731Y15421D01*
X37385Y15767D01*
X37299Y15834D01*
X37198Y15875D01*
X37090Y15889D01*
X37090Y15889D01*
X33196D01*
X33094Y15991D01*
Y31215D01*
X33094Y31215D01*
X33080Y31323D01*
X33038Y31424D01*
X32972Y31510D01*
X32972Y31510D01*
X32626Y31856D01*
X32540Y31922D01*
X32439Y31964D01*
X32331Y31978D01*
D02*
G37*
G36*
X45788Y13864D02*
X45508D01*
Y13584D01*
X45509Y13584D01*
X45625Y13651D01*
X45721Y13747D01*
X45788Y13863D01*
X45788Y13864D01*
D02*
G37*
G36*
X45114D02*
X44834D01*
X44834Y13863D01*
X44901Y13747D01*
X44997Y13651D01*
X45113Y13584D01*
X45114Y13584D01*
Y13864D01*
D02*
G37*
G36*
X41538D02*
X41258D01*
Y13584D01*
X41259Y13584D01*
X41375Y13651D01*
X41471Y13747D01*
X41538Y13863D01*
X41538Y13864D01*
D02*
G37*
G36*
X40864D02*
X40584D01*
X40584Y13863D01*
X40651Y13747D01*
X40747Y13651D01*
X40863Y13584D01*
X40864Y13584D01*
Y13864D01*
D02*
G37*
G36*
X38913D02*
X38633D01*
Y13584D01*
X38634Y13584D01*
X38750Y13651D01*
X38846Y13747D01*
X38913Y13863D01*
X38913Y13864D01*
D02*
G37*
G36*
X38239D02*
X37959D01*
X37959Y13863D01*
X38026Y13747D01*
X38122Y13651D01*
X38238Y13584D01*
X38239Y13584D01*
Y13864D01*
D02*
G37*
G36*
X22345Y13614D02*
X22133D01*
Y13402D01*
X22214Y13449D01*
X22298Y13533D01*
X22345Y13614D01*
D02*
G37*
G36*
X21739D02*
X21527D01*
X21574Y13533D01*
X21658Y13449D01*
X21739Y13402D01*
Y13614D01*
D02*
G37*
G36*
X19817Y14012D02*
X19683D01*
X19552Y13977D01*
X19436Y13910D01*
X19340Y13814D01*
X19273Y13698D01*
X19238Y13567D01*
Y13433D01*
X19273Y13302D01*
X19340Y13186D01*
X19436Y13090D01*
X19552Y13023D01*
X19683Y12988D01*
X19817D01*
X19948Y13023D01*
X20064Y13090D01*
X20160Y13186D01*
X20227Y13302D01*
X20262Y13433D01*
Y13567D01*
X20227Y13698D01*
X20160Y13814D01*
X20064Y13910D01*
X19948Y13977D01*
X19817Y14012D01*
D02*
G37*
%LPD*%
G36*
X20276Y29961D02*
X23661D01*
X26024Y32205D01*
X28425D01*
X28661Y31969D01*
Y30748D01*
X23465Y25551D01*
Y20827D01*
X21929Y19291D01*
X19173Y19291D01*
X18740Y19724D01*
Y27126D01*
X17520Y28346D01*
Y30748D01*
X16850Y31417D01*
Y31969D01*
Y32165D01*
X17087Y32402D01*
X17835D01*
X20276Y29961D01*
D02*
G37*
G36*
X17362Y26732D02*
Y19016D01*
X16339Y18071D01*
X14134D01*
X13819Y18386D01*
Y19213D01*
X14134Y19528D01*
X15276D01*
X15709Y19961D01*
Y26260D01*
X15394Y26575D01*
X14315D01*
X14016Y26824D01*
Y27087D01*
Y27402D01*
X14252Y27638D01*
X16339D01*
X17362Y26732D01*
D02*
G37*
D10*
X43425Y22756D02*
X44488Y23819D01*
X43425Y22205D02*
Y22756D01*
X44213Y28740D02*
X48543D01*
X43819Y31496D02*
X48780D01*
X46260Y29921D02*
X47677D01*
X46575Y29528D02*
X47402D01*
X43543Y31890D02*
X45591D01*
X43268Y32283D02*
X46575D01*
X40067Y20967D02*
X40791D01*
X40797Y20961D01*
X40061Y20973D02*
X40067Y20967D01*
X40069Y22891D02*
X40789D01*
X40797Y22883D01*
X40061Y22899D02*
X40069Y22891D01*
X42054Y23489D02*
X42061Y23496D01*
X42047Y22874D02*
X42054Y22881D01*
Y23489D01*
X37436Y22225D02*
Y22811D01*
Y22225D02*
X37505Y22156D01*
X38311D01*
D15*
Y21467D02*
D03*
Y22156D02*
D03*
X45936Y22217D02*
D03*
Y22906D02*
D03*
D20*
X42061Y24126D02*
D03*
Y23496D02*
D03*
D48*
X38780Y30551D02*
X49213D01*
X35433D02*
X38780D01*
Y25856D02*
Y30551D01*
Y25856D02*
X39700Y24936D01*
X40811D01*
X32874Y33110D02*
X35433Y30551D01*
X26181Y33110D02*
X32874D01*
X49759Y19646D02*
X53071D01*
X47726D02*
X49759D01*
Y30005D01*
Y18386D02*
Y19646D01*
X49213Y30551D02*
X49759Y30005D01*
X45936Y21436D02*
X47726Y19646D01*
X57061Y31061D02*
Y33061D01*
X51561Y27686D02*
Y28561D01*
Y22654D02*
Y22686D01*
X52061Y21061D02*
Y22154D01*
X51561Y22654D02*
X52061Y22154D01*
X45936Y21436D02*
Y22217D01*
X41830Y24936D02*
X42061Y24705D01*
X40811Y24936D02*
X41830D01*
X42061Y24126D02*
Y24705D01*
D52*
X32677Y15818D02*
Y31215D01*
X30061Y31561D02*
X32331D01*
X32677Y31215D01*
X37090Y15472D02*
X37436Y15127D01*
X32677Y15818D02*
X33023Y15472D01*
X37436Y14061D02*
Y15127D01*
X33023Y15472D02*
X37090D01*
X34055Y16772D02*
X40752D01*
X41413Y17433D01*
X46683D02*
X46686Y17436D01*
X44894Y17433D02*
X46683D01*
X41413D02*
X44894D01*
X41413D02*
X41488Y17508D01*
Y19350D01*
X42546Y20408D01*
X43131D02*
X44985D01*
X42546D02*
X43131D01*
X53061Y27311D02*
Y29436D01*
Y21061D02*
Y23311D01*
D53*
X65906Y12756D02*
D03*
Y38346D02*
D03*
X11614D02*
D03*
Y12756D02*
D03*
D54*
X38097Y37500D02*
D03*
X40097D02*
D03*
X42097D02*
D03*
X44097D02*
D03*
X48097D02*
D03*
X47097D02*
D03*
X46097D02*
D03*
X45097D02*
D03*
X43097D02*
D03*
X41097D02*
D03*
X39097D02*
D03*
X37097D02*
D03*
X38097Y34050D02*
D03*
X40097D02*
D03*
X42097D02*
D03*
X44097D02*
D03*
X48097D02*
D03*
X47097D02*
D03*
X46097D02*
D03*
X45097D02*
D03*
X43097D02*
D03*
X41097D02*
D03*
X39097D02*
D03*
X37097D02*
D03*
X43061Y14061D02*
D03*
X42061D02*
D03*
X41061D02*
D03*
X47311D02*
D03*
X46311D02*
D03*
X45311D02*
D03*
X14500Y25157D02*
D03*
Y27125D02*
D03*
X64186Y24030D02*
D03*
Y22061D02*
D03*
X51561Y15311D02*
D03*
Y17311D02*
D03*
Y16311D02*
D03*
X56061Y33061D02*
D03*
X57061D02*
D03*
X58061D02*
D03*
X53061Y27311D02*
D03*
Y23311D02*
D03*
X51061Y21061D02*
D03*
X52061D02*
D03*
X53061D02*
D03*
X38436Y14061D02*
D03*
X37436D02*
D03*
X36436D02*
D03*
X64186Y28655D02*
D03*
Y26686D02*
D03*
X47186Y22686D02*
D03*
Y21686D02*
D03*
X40811Y24936D02*
D03*
Y25936D02*
D03*
Y26936D02*
D03*
Y27936D02*
D03*
X17936Y29686D02*
D03*
X16936D02*
D03*
X15936D02*
D03*
X55303Y22949D02*
D03*
Y27673D02*
D03*
X61061Y36061D02*
D03*
Y33061D02*
D03*
X53061Y17311D02*
D03*
Y15311D02*
D03*
Y16311D02*
D03*
D55*
X19750Y20000D02*
D03*
Y15500D02*
D03*
Y13500D02*
D03*
Y22000D02*
D03*
X25639Y26061D02*
D03*
X22686D02*
D03*
X17436Y31831D02*
D03*
X15936Y31811D02*
D03*
X60106Y22949D02*
D03*
Y27673D02*
D03*
X28130Y34311D02*
D03*
X30130D02*
D03*
X29130D02*
D03*
X16005D02*
D03*
X18005D02*
D03*
X17005D02*
D03*
X24005Y17561D02*
D03*
X26005D02*
D03*
X25005D02*
D03*
D56*
X47686Y17436D02*
D03*
X46686D02*
D03*
X13561Y35311D02*
D03*
Y34311D02*
D03*
X19936Y35311D02*
D03*
Y34311D02*
D03*
X26186Y35311D02*
D03*
Y34311D02*
D03*
X21936Y13811D02*
D03*
Y14811D02*
D03*
X27755Y18436D02*
D03*
Y17436D02*
D03*
X34061Y18561D02*
D03*
Y17561D02*
D03*
X51561Y36061D02*
D03*
Y37061D02*
D03*
Y28561D02*
D03*
Y29561D02*
D03*
X59061Y38061D02*
D03*
X53061D02*
D03*
X51561Y22686D02*
D03*
Y27686D02*
D03*
X37436Y20811D02*
D03*
Y22811D02*
D03*
X30061Y30774D02*
D03*
Y31561D02*
D03*
X53061Y29436D02*
D03*
X59061D02*
D03*
X40797Y20961D02*
D03*
Y22883D02*
D03*
X51561Y32374D02*
D03*
Y33374D02*
D03*
X52061Y31061D02*
D03*
X57061D02*
D03*
X45936Y20436D02*
D03*
Y21436D02*
D03*
D57*
X14561Y14811D02*
D03*
Y16811D02*
D03*
Y20811D02*
D03*
Y18811D02*
D03*
X54516Y25311D02*
D03*
D58*
X64961Y37402D02*
D03*
X65945Y35433D02*
D03*
X64961Y33465D02*
D03*
X65945Y31496D02*
D03*
X64961Y29528D02*
D03*
X65945Y27559D02*
D03*
X64961Y25591D02*
D03*
X65945Y23622D02*
D03*
X64961Y21654D02*
D03*
X65945Y19685D02*
D03*
X64961Y17717D02*
D03*
X65945Y15748D02*
D03*
X64961Y13780D02*
D03*
X62992Y37402D02*
D03*
X63976Y35433D02*
D03*
X62992Y33465D02*
D03*
X63976Y31496D02*
D03*
X62992Y29528D02*
D03*
X63976Y27559D02*
D03*
X62992Y25591D02*
D03*
X63976Y19685D02*
D03*
X62992Y17717D02*
D03*
X63976Y15748D02*
D03*
X62992Y13780D02*
D03*
X62008Y35433D02*
D03*
Y31496D02*
D03*
X61024Y29528D02*
D03*
X62008Y23622D02*
D03*
Y19685D02*
D03*
X61024Y17717D02*
D03*
X62008Y15748D02*
D03*
X61024Y13780D02*
D03*
X59055Y37402D02*
D03*
X60039Y35433D02*
D03*
Y31496D02*
D03*
X59055Y21654D02*
D03*
X60039Y19685D02*
D03*
X59055Y17717D02*
D03*
X60039Y15748D02*
D03*
X59055Y13780D02*
D03*
X58071Y31496D02*
D03*
X57087Y29528D02*
D03*
X58071Y27559D02*
D03*
Y23622D02*
D03*
X57087Y21654D02*
D03*
X58071Y19685D02*
D03*
X57087Y17717D02*
D03*
X58071Y15748D02*
D03*
X57087Y13780D02*
D03*
X55118Y37402D02*
D03*
X56102Y35433D02*
D03*
X55118Y33465D02*
D03*
X56102Y31496D02*
D03*
X55118Y29528D02*
D03*
X56102Y27559D02*
D03*
Y23622D02*
D03*
X55118Y21654D02*
D03*
X56102Y19685D02*
D03*
X55118Y17717D02*
D03*
X56102Y15748D02*
D03*
X55118Y13780D02*
D03*
X54134Y35433D02*
D03*
Y31496D02*
D03*
X53150Y25591D02*
D03*
X54134Y19685D02*
D03*
Y15748D02*
D03*
X53150Y13780D02*
D03*
X52165Y35433D02*
D03*
Y27559D02*
D03*
X51181Y25591D02*
D03*
X52165Y23622D02*
D03*
X51181Y13780D02*
D03*
X49213Y37402D02*
D03*
X50197Y35433D02*
D03*
X49213Y33465D02*
D03*
Y25591D02*
D03*
Y21654D02*
D03*
X50197Y15748D02*
D03*
X49213Y13780D02*
D03*
X48228Y23622D02*
D03*
Y15748D02*
D03*
X46260Y19685D02*
D03*
X44291Y15748D02*
D03*
X41339Y33465D02*
D03*
X42323Y31496D02*
D03*
X41339Y21654D02*
D03*
X39370Y29528D02*
D03*
X40354Y23622D02*
D03*
X39370Y21654D02*
D03*
X40354Y19685D02*
D03*
X39370Y17717D02*
D03*
X40354Y15748D02*
D03*
X39370Y13780D02*
D03*
X37402Y33465D02*
D03*
X38386Y31496D02*
D03*
X37402Y29528D02*
D03*
Y25591D02*
D03*
X38386Y23622D02*
D03*
X37402Y21654D02*
D03*
X38386Y19685D02*
D03*
X37402Y17717D02*
D03*
X38386Y15748D02*
D03*
X35433Y37402D02*
D03*
X36417Y35433D02*
D03*
X35433Y33465D02*
D03*
X36417Y31496D02*
D03*
X35433Y29528D02*
D03*
X36417Y27559D02*
D03*
X35433Y25591D02*
D03*
X36417Y23622D02*
D03*
X35433Y21654D02*
D03*
X36417Y19685D02*
D03*
X35433Y17717D02*
D03*
Y13780D02*
D03*
X33465Y37402D02*
D03*
X34449Y35433D02*
D03*
X33465Y33465D02*
D03*
Y29528D02*
D03*
X34449Y27559D02*
D03*
X33465Y25591D02*
D03*
X34449Y23622D02*
D03*
X33465Y21654D02*
D03*
X34449Y19685D02*
D03*
X31496Y37402D02*
D03*
X32480Y35433D02*
D03*
X31496Y29528D02*
D03*
Y25591D02*
D03*
Y17717D02*
D03*
X29528Y37402D02*
D03*
X30512Y35433D02*
D03*
X29528Y29528D02*
D03*
X30512Y27559D02*
D03*
X29528Y25591D02*
D03*
X30512Y23622D02*
D03*
X29528Y13780D02*
D03*
X27559Y37402D02*
D03*
X28543Y35433D02*
D03*
Y27559D02*
D03*
X27559Y25591D02*
D03*
X28543Y23622D02*
D03*
X27559Y21654D02*
D03*
X28543Y19685D02*
D03*
X27559Y13780D02*
D03*
X25591Y37402D02*
D03*
X26575Y27559D02*
D03*
Y23622D02*
D03*
X25591Y21654D02*
D03*
X26575Y19685D02*
D03*
X25591Y13780D02*
D03*
X24606Y31496D02*
D03*
Y23622D02*
D03*
Y19685D02*
D03*
X21654Y37402D02*
D03*
X22638Y31496D02*
D03*
X19685Y37402D02*
D03*
X20669Y31496D02*
D03*
X17717Y37402D02*
D03*
X18701Y35433D02*
D03*
X17717Y33465D02*
D03*
Y25591D02*
D03*
Y21654D02*
D03*
X18701Y15748D02*
D03*
X17717Y13780D02*
D03*
X15748Y37402D02*
D03*
X16732Y35433D02*
D03*
X15748Y17717D02*
D03*
X16732Y15748D02*
D03*
X15748Y13780D02*
D03*
X13780Y37402D02*
D03*
X14764Y35433D02*
D03*
Y23622D02*
D03*
X13780Y21654D02*
D03*
X14764Y15748D02*
D03*
X13780Y13780D02*
D03*
X11811Y37402D02*
D03*
X12795Y35433D02*
D03*
X11811Y33465D02*
D03*
X12795Y31496D02*
D03*
X11811Y29528D02*
D03*
X12795Y27559D02*
D03*
X11811Y25591D02*
D03*
X12795Y15748D02*
D03*
X11811Y13780D02*
D03*
X20945Y33701D02*
D03*
Y34331D02*
D03*
X28150Y30914D02*
D03*
Y31701D02*
D03*
X26181Y33110D02*
D03*
X49759Y18386D02*
D03*
X29094Y15413D02*
D03*
X34055Y16772D02*
D03*
X43131Y20408D02*
D03*
X44985D02*
D03*
X41488Y19350D02*
D03*
X43890Y18732D02*
D03*
X44075Y18177D02*
D03*
X44894Y17433D02*
D03*
X53071Y19646D02*
D03*
X43425Y22205D02*
D03*
X44488Y23819D02*
D03*
X48543Y28740D02*
D03*
X44213D02*
D03*
X48780Y31496D02*
D03*
X47677Y29921D02*
D03*
X47402Y29528D02*
D03*
X46575D02*
D03*
X46260Y29921D02*
D03*
X42087Y20984D02*
D03*
X45591Y31890D02*
D03*
X43819Y31496D02*
D03*
X43543Y31890D02*
D03*
X43268Y32283D02*
D03*
X46575D02*
D03*
X42047Y22874D02*
D03*
D59*
X40061Y20973D02*
D03*
Y21524D02*
D03*
X40061Y22899D02*
D03*
Y22348D02*
D03*
D60*
X20945Y33701D02*
Y34331D01*
Y38161D02*
X21406Y38622D01*
X20945Y34331D02*
Y38161D01*
X21406Y38622D02*
X47061D01*
X47622Y38061D01*
Y38061D02*
X53061D01*
X43012Y12520D02*
X47311D01*
X36417D02*
X43012D01*
X43061Y12569D02*
Y14061D01*
X43012Y12520D02*
X43061Y12569D01*
X31988Y12520D02*
X36417D01*
X36436Y12538D02*
Y14061D01*
X36417Y12520D02*
X36436Y12538D01*
X29094Y15413D02*
X31988Y12520D01*
X47311D02*
Y14061D01*
X48097Y34050D02*
Y37500D01*
X59061Y29436D02*
Y35305D01*
X53061Y38061D02*
X56305D01*
X59061Y35305D01*
X64186Y24030D02*
Y26686D01*
M02*
