M48
;Layer_Color=9474304
;FILE_FORMAT=2:5
INCH,LZ
;TYPE=PLATED
T1F00S00C0.01181
T2F00S00C0.01575
T3F00S00C0.03150
T4F00S00C0.03937
T5F00S00C0.05118
T6F00S00C0.06299
T7F00S00C0.12598
%
T01
X0290945Y0154134
X0497591Y0183858
X0530709Y0196457
X0485433Y0287402
X0474016Y0295276
X0476772Y0299213
X0462598
X0465748Y0295276
X0442126Y0287402
X0444882Y0238189
X0434252Y0222047
X0420472Y022874
X0420866Y0209842
X0431312Y0204082
X0449855
X0438898Y0187323
X0440748Y0181772
X0448937Y0174331
X0414882Y0193504
X0340551Y0167717
X0281496Y0309136
Y031701
X0261811Y0331102
X0209449Y0337008
Y0343307
X0432677Y0322835
X0435433Y0318898
X0438189Y0314961
X0455905Y0318898
X0465748Y0322835
X0487795Y0314961
T02
X011811Y0137795
X0137795
X015748
X0177165
X0255906
X0275591
X0295276
X0354331
X0393701
X0492126
X0511811
X0531496
X0551181
X0570866
X0590551
X0610236
X0629921
X0649606
X0659449Y015748
X0639764
X0649606Y0177165
X0629921
X0639764Y019685
X0659449
X0649606Y0216535
X0659449Y0236221
X0649606Y0255906
X0629921
X0639764Y0275591
X0659449
X0649606Y0295276
X0629921
X0610236
X0570866
X0551181
X0561024Y0275591
X0580709
Y0236221
X0561024
X0570866Y0216535
X0590551
X0600394Y019685
X0620079
X0610236Y0177165
X0590551
X0570866
X0551181
X0561024Y019685
X0580709
Y015748
X0600394
X0620079
X0561024
X0541339
Y019685
X0551181Y0216535
X0521654Y0236221
X0531496Y0255906
X0511811
X0492126
X0482283Y0236221
X0492126Y0216535
X0501968Y015748
X0482283
X0521654Y0275591
X0620079Y0236221
X0462598Y019685
X0442913Y015748
X0403543
X0383858
X0393701Y0177165
X0374016
X0354331
X0364173Y019685
X0383858
X0403543
X0413386Y0216535
X0393701
X0374016
X0354331
X0334646
X0344488Y0236221
X0364173
X0383858
X0403543
X0374016Y0255906
X0354331
X0334646
X0314961
Y0295276
X0334646
X0354331
X0374016
X0393701
X0364173Y0275591
X0344488
Y019685
X0314961Y0177165
X0285433Y019685
X0265748
X0246063
X0255906Y0216535
X0275591
X0285433Y0236221
X0305118
X0295276Y0255906
X0275591
X0285433Y0275591
X0305118
X0295276Y0295276
X0265748Y0275591
Y0236221
X0246063
X0177165Y0255906
Y0216535
X015748Y0177165
X0167323Y015748
X0187008
X0147638
X0127953
X0137795Y0216535
X0147638Y0236221
X011811Y0255906
X0127953Y0275591
X011811Y0295276
X0127953Y0314961
X011811Y0334646
X0127953Y0354331
X0147638
X0137795Y0374016
X011811
X015748
X0177165
X019685
X0216535
X0255906
X0275591
X0295276
X0305118Y0354331
X0285433
X0246063Y0314961
X0226378
X0206693
X0177165Y0334646
X0187008Y0354331
X0167323
X0324803
X0344488
X0364173
X0374016Y0334646
X0354331
X0334646
Y0374016
X0354331
X0314961
X0364173Y0314961
X0383858
X0423228
X0413386Y0334646
X0492126
X0501968Y0354331
X0521654
X0541339
X0561024
X0551181Y0374016
X0590551
X0600394Y0354331
X0620079
Y0314961
X0600394
X0580709
X0561024
X0541339
X0551181Y0334646
X0492126Y0374016
X0629921
X0649606
X0659449Y0354331
X0639764
X0649606Y0334646
X0629921
X0639764Y0314961
X0659449
T03
X021936Y013811
Y014811
X047686Y017436
X051561Y022686
Y027686
Y028561
Y029561
X053061Y029436
X052061Y031061
X057061
X059061Y029436
X045936Y021436
Y020436
X046686Y017436
X0407971Y0209614
Y0228827
X037436Y022811
Y020811
X034061Y018561
Y017561
X0277549Y017436
Y018436
X030061Y0307736
X013561Y034311
Y035311
X019936
Y034311
X026186
Y035311
X030061Y031561
X051561Y0323735
Y0333735
Y036061
Y037061
X053061Y038061
X059061
T04
X036436Y014061
X037436
X038436
X041061
X042061
X043061
X045311
X046311
X047311
X051561Y015311
X053061
X064186Y022061
Y0240295
Y026686
Y0286545
X0553031Y0276732
X053061Y027311
Y023311
Y021061
X052061
X051061
X051561Y017311
Y016311
X053061
Y017311
X0553031Y0229488
X047186Y022686
Y021686
X040811Y024936
Y025936
Y026936
Y027936
X017936Y029686
X016936
X015936
X0145Y027125
Y0251565
X0370971Y03405
X0380971
X039097
X0400971
X041097
X042097
X043097
X0440971
X0450971
X046097
Y0375
X0450971
X0440971
X043097
X042097
X041097
X0400971
X039097
X0380971
X0370971
X047097
X048097
Y03405
X047097
X056061Y033061
X057061
X058061
X061061
Y036061
T05
X01975Y0135
Y0155
X0601063Y0229488
Y0276732
X0256388Y026061
X022686
X01975Y022
Y02
X0240049Y017561
X0250049
X0260049
X0281299Y034311
X0291299
X0301299
X0180049
X0170049
X0160049
X015936Y031811
X017436Y031831
T06
X014561Y014811
X0545157Y025311
X014561Y020811
Y018811
Y016811
T07
X0116142Y0127559
X0659055
X0116142Y0383465
X0659055
M30
