G04*
G04 #@! TF.GenerationSoftware,Altium Limited,Altium Designer,21.9.2 (33)*
G04*
G04 Layer_Color=32896*
%FSLAX24Y24*%
%MOIN*%
G70*
G04*
G04 #@! TF.SameCoordinates,D973DA56-E0BB-4DEA-AE19-888B2019222A*
G04*
G04*
G04 #@! TF.FilePolarity,Positive*
G04*
G01*
G75*
%ADD10C,0.0118*%
D10*
X39904Y21248D02*
X40218D01*
X38724Y21102D02*
Y22520D01*
X37898D02*
X38724D01*
X37898Y21102D02*
Y22520D01*
Y21102D02*
X38724D01*
X41707Y24441D02*
X42415D01*
X41707Y23181D02*
Y24441D01*
Y23181D02*
X42415D01*
Y24441D01*
X39904Y22624D02*
X40219D01*
X46349Y21852D02*
Y23270D01*
X45523D02*
X46349D01*
X45523Y21852D02*
Y23270D01*
Y21852D02*
X46349D01*
X41811Y24686D02*
X42283D01*
Y24922D01*
X42205Y25001D01*
X42047D01*
X41968Y24922D01*
Y24686D01*
Y24843D02*
X41811Y25001D01*
X42205Y25158D02*
X42283Y25237D01*
Y25394D01*
X42205Y25473D01*
X42126D01*
X42047Y25394D01*
Y25316D01*
Y25394D01*
X41968Y25473D01*
X41890D01*
X41811Y25394D01*
Y25237D01*
X41890Y25158D01*
X38455Y23126D02*
X38533Y23047D01*
Y22890D01*
X38455Y22811D01*
X38140D01*
X38061Y22890D01*
Y23047D01*
X38140Y23126D01*
X38533Y23598D02*
X38455Y23441D01*
X38297Y23283D01*
X38140D01*
X38061Y23362D01*
Y23519D01*
X38140Y23598D01*
X38218D01*
X38297Y23519D01*
Y23283D01*
X39580Y21126D02*
X39658Y21047D01*
Y20890D01*
X39580Y20811D01*
X39265D01*
X39186Y20890D01*
Y21047D01*
X39265Y21126D01*
X39580Y21283D02*
X39658Y21362D01*
Y21519D01*
X39580Y21598D01*
X39501D01*
X39422Y21519D01*
Y21441D01*
Y21519D01*
X39343Y21598D01*
X39265D01*
X39186Y21519D01*
Y21362D01*
X39265Y21283D01*
X46080Y23876D02*
X46158Y23797D01*
Y23640D01*
X46080Y23561D01*
X45765D01*
X45686Y23640D01*
Y23797D01*
X45765Y23876D01*
X45686Y24348D02*
Y24033D01*
X46001Y24348D01*
X46080D01*
X46158Y24269D01*
Y24112D01*
X46080Y24033D01*
X39580Y22626D02*
X39658Y22547D01*
Y22390D01*
X39580Y22311D01*
X39265D01*
X39186Y22390D01*
Y22547D01*
X39265Y22626D01*
X39186Y22783D02*
Y22941D01*
Y22862D01*
X39658D01*
X39580Y22783D01*
M02*
