G04*
G04 #@! TF.GenerationSoftware,Altium Limited,Altium Designer,21.9.2 (33)*
G04*
G04 Layer_Color=8388736*
%FSLAX24Y24*%
%MOIN*%
G70*
G04*
G04 #@! TF.SameCoordinates,D973DA56-E0BB-4DEA-AE19-888B2019222A*
G04*
G04*
G04 #@! TF.FilePolarity,Negative*
G04*
G01*
G75*
G04:AMPARAMS|DCode=27|XSize=67.1mil|YSize=57.2mil|CornerRadius=16.3mil|HoleSize=0mil|Usage=FLASHONLY|Rotation=180.000|XOffset=0mil|YOffset=0mil|HoleType=Round|Shape=RoundedRectangle|*
%AMROUNDEDRECTD27*
21,1,0.0671,0.0246,0,0,180.0*
21,1,0.0344,0.0572,0,0,180.0*
1,1,0.0326,-0.0172,0.0123*
1,1,0.0326,0.0172,0.0123*
1,1,0.0326,0.0172,-0.0123*
1,1,0.0326,-0.0172,-0.0123*
%
%ADD27ROUNDEDRECTD27*%
G04:AMPARAMS|DCode=28|XSize=78.9mil|YSize=56.4mil|CornerRadius=8.8mil|HoleSize=0mil|Usage=FLASHONLY|Rotation=270.000|XOffset=0mil|YOffset=0mil|HoleType=Round|Shape=RoundedRectangle|*
%AMROUNDEDRECTD28*
21,1,0.0789,0.0387,0,0,270.0*
21,1,0.0612,0.0564,0,0,270.0*
1,1,0.0177,-0.0194,-0.0306*
1,1,0.0177,-0.0194,0.0306*
1,1,0.0177,0.0194,0.0306*
1,1,0.0177,0.0194,-0.0306*
%
%ADD28ROUNDEDRECTD28*%
G04:AMPARAMS|DCode=29|XSize=149.6mil|YSize=72.8mil|CornerRadius=10.4mil|HoleSize=0mil|Usage=FLASHONLY|Rotation=270.000|XOffset=0mil|YOffset=0mil|HoleType=Round|Shape=RoundedRectangle|*
%AMROUNDEDRECTD29*
21,1,0.1496,0.0520,0,0,270.0*
21,1,0.1287,0.0728,0,0,270.0*
1,1,0.0209,-0.0260,-0.0644*
1,1,0.0209,-0.0260,0.0644*
1,1,0.0209,0.0260,0.0644*
1,1,0.0209,0.0260,-0.0644*
%
%ADD29ROUNDEDRECTD29*%
G04:AMPARAMS|DCode=30|XSize=101.3mil|YSize=103.7mil|CornerRadius=13.3mil|HoleSize=0mil|Usage=FLASHONLY|Rotation=270.000|XOffset=0mil|YOffset=0mil|HoleType=Round|Shape=RoundedRectangle|*
%AMROUNDEDRECTD30*
21,1,0.1013,0.0770,0,0,270.0*
21,1,0.0746,0.1037,0,0,270.0*
1,1,0.0267,-0.0385,-0.0373*
1,1,0.0267,-0.0385,0.0373*
1,1,0.0267,0.0385,0.0373*
1,1,0.0267,0.0385,-0.0373*
%
%ADD30ROUNDEDRECTD30*%
G04:AMPARAMS|DCode=31|XSize=92.9mil|YSize=50mil|CornerRadius=14.5mil|HoleSize=0mil|Usage=FLASHONLY|Rotation=270.000|XOffset=0mil|YOffset=0mil|HoleType=Round|Shape=RoundedRectangle|*
%AMROUNDEDRECTD31*
21,1,0.0929,0.0211,0,0,270.0*
21,1,0.0640,0.0500,0,0,270.0*
1,1,0.0289,-0.0105,-0.0320*
1,1,0.0289,-0.0105,0.0320*
1,1,0.0289,0.0105,0.0320*
1,1,0.0289,0.0105,-0.0320*
%
%ADD31ROUNDEDRECTD31*%
G04:AMPARAMS|DCode=32|XSize=59.2mil|YSize=47.4mil|CornerRadius=13.8mil|HoleSize=0mil|Usage=FLASHONLY|Rotation=0.000|XOffset=0mil|YOffset=0mil|HoleType=Round|Shape=RoundedRectangle|*
%AMROUNDEDRECTD32*
21,1,0.0592,0.0197,0,0,0.0*
21,1,0.0315,0.0474,0,0,0.0*
1,1,0.0277,0.0157,-0.0098*
1,1,0.0277,-0.0157,-0.0098*
1,1,0.0277,-0.0157,0.0098*
1,1,0.0277,0.0157,0.0098*
%
%ADD32ROUNDEDRECTD32*%
G04:AMPARAMS|DCode=33|XSize=59.2mil|YSize=47.4mil|CornerRadius=13.8mil|HoleSize=0mil|Usage=FLASHONLY|Rotation=270.000|XOffset=0mil|YOffset=0mil|HoleType=Round|Shape=RoundedRectangle|*
%AMROUNDEDRECTD33*
21,1,0.0592,0.0197,0,0,270.0*
21,1,0.0315,0.0474,0,0,270.0*
1,1,0.0277,-0.0098,-0.0157*
1,1,0.0277,-0.0098,0.0157*
1,1,0.0277,0.0098,0.0157*
1,1,0.0277,0.0098,-0.0157*
%
%ADD33ROUNDEDRECTD33*%
G04:AMPARAMS|DCode=34|XSize=15.7mil|YSize=76.8mil|CornerRadius=4.9mil|HoleSize=0mil|Usage=FLASHONLY|Rotation=270.000|XOffset=0mil|YOffset=0mil|HoleType=Round|Shape=RoundedRectangle|*
%AMROUNDEDRECTD34*
21,1,0.0157,0.0669,0,0,270.0*
21,1,0.0059,0.0768,0,0,270.0*
1,1,0.0098,-0.0335,-0.0030*
1,1,0.0098,-0.0335,0.0030*
1,1,0.0098,0.0335,0.0030*
1,1,0.0098,0.0335,-0.0030*
%
%ADD34ROUNDEDRECTD34*%
G04:AMPARAMS|DCode=35|XSize=78.9mil|YSize=56.4mil|CornerRadius=8.8mil|HoleSize=0mil|Usage=FLASHONLY|Rotation=0.000|XOffset=0mil|YOffset=0mil|HoleType=Round|Shape=RoundedRectangle|*
%AMROUNDEDRECTD35*
21,1,0.0789,0.0387,0,0,0.0*
21,1,0.0612,0.0564,0,0,0.0*
1,1,0.0177,0.0306,-0.0194*
1,1,0.0177,-0.0306,-0.0194*
1,1,0.0177,-0.0306,0.0194*
1,1,0.0177,0.0306,0.0194*
%
%ADD35ROUNDEDRECTD35*%
%ADD36O,0.0709X0.0197*%
G04:AMPARAMS|DCode=37|XSize=31.5mil|YSize=35.4mil|CornerRadius=5.1mil|HoleSize=0mil|Usage=FLASHONLY|Rotation=270.000|XOffset=0mil|YOffset=0mil|HoleType=Round|Shape=RoundedRectangle|*
%AMROUNDEDRECTD37*
21,1,0.0315,0.0252,0,0,270.0*
21,1,0.0213,0.0354,0,0,270.0*
1,1,0.0102,-0.0126,-0.0106*
1,1,0.0102,-0.0126,0.0106*
1,1,0.0102,0.0126,0.0106*
1,1,0.0102,0.0126,-0.0106*
%
%ADD37ROUNDEDRECTD37*%
G04:AMPARAMS|DCode=38|XSize=47.2mil|YSize=35.4mil|CornerRadius=5.3mil|HoleSize=0mil|Usage=FLASHONLY|Rotation=270.000|XOffset=0mil|YOffset=0mil|HoleType=Round|Shape=RoundedRectangle|*
%AMROUNDEDRECTD38*
21,1,0.0472,0.0248,0,0,270.0*
21,1,0.0366,0.0354,0,0,270.0*
1,1,0.0106,-0.0124,-0.0183*
1,1,0.0106,-0.0124,0.0183*
1,1,0.0106,0.0124,0.0183*
1,1,0.0106,0.0124,-0.0183*
%
%ADD38ROUNDEDRECTD38*%
%ADD39C,0.1339*%
%ADD40C,0.0709*%
%ADD41C,0.0867*%
%ADD42C,0.0592*%
%ADD43C,0.0710*%
%ADD44C,0.0591*%
%ADD45C,0.1063*%
%ADD46C,0.1064*%
%ADD47C,0.0356*%
G36*
X33192Y21554D02*
X33197Y21553D01*
X33202Y21551D01*
X33207Y21549D01*
X33211Y21546D01*
X33215Y21543D01*
X33218Y21539D01*
X33221Y21534D01*
X33223Y21530D01*
X33225Y21525D01*
X33226Y21520D01*
X33226Y21515D01*
Y20763D01*
X33226Y20758D01*
X33225Y20753D01*
X33223Y20748D01*
X33221Y20743D01*
X33218Y20739D01*
X33215Y20735D01*
X33211Y20731D01*
X33207Y20729D01*
X33202Y20726D01*
X33197Y20725D01*
X33192Y20724D01*
X33187Y20723D01*
X32740D01*
Y18763D01*
X32740Y18758D01*
X32739Y18753D01*
X32737Y18748D01*
X32735Y18743D01*
X32732Y18739D01*
X32729Y18735D01*
X32725Y18731D01*
X32721Y18729D01*
X32716Y18726D01*
X32711Y18725D01*
X32706Y18724D01*
X32701Y18723D01*
X29421D01*
X29416Y18724D01*
X29411Y18725D01*
X29406Y18726D01*
X29402Y18729D01*
X29397Y18731D01*
X29393Y18735D01*
X29390Y18739D01*
X29387Y18743D01*
X29385Y18748D01*
X29383Y18753D01*
X29382Y18758D01*
X29382Y18763D01*
Y20723D01*
X28935D01*
X28930Y20724D01*
X28925Y20725D01*
X28920Y20726D01*
X28915Y20729D01*
X28911Y20731D01*
X28907Y20735D01*
X28904Y20739D01*
X28901Y20743D01*
X28899Y20748D01*
X28897Y20753D01*
X28896Y20758D01*
X28896Y20763D01*
Y21515D01*
X28896Y21520D01*
X28897Y21525D01*
X28899Y21530D01*
X28901Y21534D01*
X28904Y21539D01*
X28907Y21543D01*
X28911Y21546D01*
X28915Y21549D01*
X28920Y21551D01*
X28925Y21553D01*
X28930Y21554D01*
X28935Y21554D01*
X33187D01*
X33192Y21554D01*
D02*
G37*
G36*
X25692Y38485D02*
X25697Y38484D01*
X25702Y38482D01*
X25707Y38480D01*
X25711Y38477D01*
X25715Y38474D01*
X25718Y38470D01*
X25721Y38466D01*
X25723Y38461D01*
X25725Y38456D01*
X25726Y38451D01*
X25726Y38446D01*
Y37694D01*
X25726Y37689D01*
X25725Y37684D01*
X25723Y37679D01*
X25721Y37674D01*
X25718Y37670D01*
X25715Y37666D01*
X25711Y37663D01*
X25707Y37660D01*
X25702Y37657D01*
X25697Y37656D01*
X25692Y37655D01*
X25687Y37654D01*
X25240D01*
Y35694D01*
X25240Y35689D01*
X25239Y35684D01*
X25237Y35679D01*
X25235Y35674D01*
X25232Y35670D01*
X25229Y35666D01*
X25225Y35663D01*
X25221Y35660D01*
X25216Y35657D01*
X25211Y35656D01*
X25206Y35655D01*
X25201Y35654D01*
X21921D01*
X21916Y35655D01*
X21911Y35656D01*
X21906Y35657D01*
X21902Y35660D01*
X21897Y35663D01*
X21893Y35666D01*
X21890Y35670D01*
X21887Y35674D01*
X21885Y35679D01*
X21883Y35684D01*
X21882Y35689D01*
X21882Y35694D01*
Y37654D01*
X21435D01*
X21430Y37655D01*
X21425Y37656D01*
X21420Y37657D01*
X21415Y37660D01*
X21411Y37663D01*
X21407Y37666D01*
X21404Y37670D01*
X21401Y37674D01*
X21399Y37679D01*
X21397Y37684D01*
X21396Y37689D01*
X21396Y37694D01*
Y38446D01*
X21396Y38451D01*
X21397Y38456D01*
X21399Y38461D01*
X21401Y38466D01*
X21404Y38470D01*
X21407Y38474D01*
X21411Y38477D01*
X21415Y38480D01*
X21420Y38482D01*
X21425Y38484D01*
X21430Y38485D01*
X21435Y38485D01*
X25687D01*
X25692Y38485D01*
D02*
G37*
D27*
X54061Y18342D02*
D03*
Y19031D02*
D03*
D28*
X26186Y31577D02*
D03*
Y30545D02*
D03*
X34061Y14577D02*
D03*
Y13545D02*
D03*
D29*
X23936Y15374D02*
D03*
Y13248D02*
D03*
X13561Y32624D02*
D03*
Y30498D02*
D03*
D30*
X27436Y12958D02*
D03*
Y15414D02*
D03*
X19936Y30208D02*
D03*
Y32664D02*
D03*
D31*
X30061Y15936D02*
D03*
X31061D02*
D03*
X32061D02*
D03*
X22561Y32867D02*
D03*
X23561D02*
D03*
X24561D02*
D03*
D32*
X52936Y36246D02*
D03*
Y36876D02*
D03*
X53061Y19001D02*
D03*
Y18371D02*
D03*
X50561Y18371D02*
D03*
Y19001D02*
D03*
X51561Y19001D02*
D03*
Y18371D02*
D03*
X53061Y32496D02*
D03*
Y33126D02*
D03*
D33*
X43121Y19811D02*
D03*
X43751D02*
D03*
X45001D02*
D03*
X44371D02*
D03*
X41496Y18749D02*
D03*
X42126D02*
D03*
X51996Y14311D02*
D03*
X52626D02*
D03*
X41371Y16061D02*
D03*
X42001D02*
D03*
X47001D02*
D03*
X46371D02*
D03*
D34*
X43146Y18758D02*
D03*
Y18561D02*
D03*
Y18364D02*
D03*
Y18167D02*
D03*
Y18955D02*
D03*
X44976D02*
D03*
Y18758D02*
D03*
Y18561D02*
D03*
Y18364D02*
D03*
Y18167D02*
D03*
D35*
X46670Y18561D02*
D03*
X47702D02*
D03*
D36*
X42834Y24849D02*
D03*
Y24594D02*
D03*
Y24338D02*
D03*
Y24082D02*
D03*
Y23826D02*
D03*
Y23570D02*
D03*
Y23314D02*
D03*
Y23058D02*
D03*
Y22802D02*
D03*
Y22546D02*
D03*
Y22290D02*
D03*
Y22034D02*
D03*
Y21779D02*
D03*
Y21523D02*
D03*
X45038D02*
D03*
Y24849D02*
D03*
Y24594D02*
D03*
Y24338D02*
D03*
Y24082D02*
D03*
Y23826D02*
D03*
Y23570D02*
D03*
Y23314D02*
D03*
Y23058D02*
D03*
Y22802D02*
D03*
Y22546D02*
D03*
Y22290D02*
D03*
Y22034D02*
D03*
Y21779D02*
D03*
D37*
X44455Y17435D02*
D03*
Y16687D02*
D03*
X43667D02*
D03*
D38*
Y17356D02*
D03*
D39*
X65906Y12756D02*
D03*
Y38346D02*
D03*
X11614D02*
D03*
Y12756D02*
D03*
D40*
X38097Y37500D02*
D03*
X40097D02*
D03*
X42097D02*
D03*
X44097D02*
D03*
X48097D02*
D03*
X47097D02*
D03*
X46097D02*
D03*
X45097D02*
D03*
X43097D02*
D03*
X41097D02*
D03*
X39097D02*
D03*
X37097D02*
D03*
X38097Y34050D02*
D03*
X40097D02*
D03*
X42097D02*
D03*
X44097D02*
D03*
X48097D02*
D03*
X47097D02*
D03*
X46097D02*
D03*
X45097D02*
D03*
X43097D02*
D03*
X41097D02*
D03*
X39097D02*
D03*
X37097D02*
D03*
X43061Y14061D02*
D03*
X42061D02*
D03*
X41061D02*
D03*
X47311D02*
D03*
X46311D02*
D03*
X45311D02*
D03*
X14500Y25157D02*
D03*
Y27125D02*
D03*
X64186Y24030D02*
D03*
Y22061D02*
D03*
X51561Y15311D02*
D03*
Y17311D02*
D03*
Y16311D02*
D03*
X56061Y33061D02*
D03*
X57061D02*
D03*
X53061Y27311D02*
D03*
Y23311D02*
D03*
X51061Y21061D02*
D03*
X52061D02*
D03*
X38436Y14061D02*
D03*
X37436D02*
D03*
X36436D02*
D03*
X64186Y28655D02*
D03*
Y26686D02*
D03*
X47186Y22686D02*
D03*
Y21686D02*
D03*
X40811Y24936D02*
D03*
Y25936D02*
D03*
Y26936D02*
D03*
Y27936D02*
D03*
X17936Y29686D02*
D03*
X16936D02*
D03*
X61061Y36061D02*
D03*
Y33061D02*
D03*
X53061Y17311D02*
D03*
Y15311D02*
D03*
Y16311D02*
D03*
D41*
X19750Y20000D02*
D03*
Y15500D02*
D03*
Y13500D02*
D03*
Y22000D02*
D03*
X25639Y26061D02*
D03*
X22686D02*
D03*
X17436Y31831D02*
D03*
X15936Y31811D02*
D03*
X60106Y22949D02*
D03*
Y27673D02*
D03*
X28130Y34311D02*
D03*
X30130D02*
D03*
X29130D02*
D03*
X16005D02*
D03*
X18005D02*
D03*
X17005D02*
D03*
X24005Y17561D02*
D03*
X26005D02*
D03*
X25005D02*
D03*
D42*
X47686Y17436D02*
D03*
X46686D02*
D03*
X13561Y35311D02*
D03*
Y34311D02*
D03*
X19936Y35311D02*
D03*
Y34311D02*
D03*
X26186Y35311D02*
D03*
Y34311D02*
D03*
X21936Y13811D02*
D03*
Y14811D02*
D03*
X27755Y18436D02*
D03*
Y17436D02*
D03*
X34061Y18561D02*
D03*
Y17561D02*
D03*
X51561Y36061D02*
D03*
Y37061D02*
D03*
Y28561D02*
D03*
Y29561D02*
D03*
X59061Y38061D02*
D03*
X53061D02*
D03*
X37436Y20811D02*
D03*
Y22811D02*
D03*
X30061Y30774D02*
D03*
Y31561D02*
D03*
X53061Y29436D02*
D03*
X59061D02*
D03*
X51561Y32374D02*
D03*
Y33374D02*
D03*
X45936Y20436D02*
D03*
Y21436D02*
D03*
D43*
X58061Y33061D02*
D03*
X53061Y21061D02*
D03*
X15936Y29686D02*
D03*
X55303Y22949D02*
D03*
Y27673D02*
D03*
D44*
X51561Y22686D02*
D03*
Y27686D02*
D03*
X40797Y20961D02*
D03*
Y22883D02*
D03*
X52061Y31061D02*
D03*
X57061D02*
D03*
D45*
X14561Y14811D02*
D03*
Y16811D02*
D03*
Y20811D02*
D03*
Y18811D02*
D03*
D46*
X54516Y25311D02*
D03*
D47*
X64961Y37402D02*
D03*
X65945Y35433D02*
D03*
X64961Y33465D02*
D03*
X65945Y31496D02*
D03*
X64961Y29528D02*
D03*
X65945Y27559D02*
D03*
X64961Y25591D02*
D03*
X65945Y23622D02*
D03*
X64961Y21654D02*
D03*
X65945Y19685D02*
D03*
X64961Y17717D02*
D03*
X65945Y15748D02*
D03*
X64961Y13780D02*
D03*
X62992Y37402D02*
D03*
X63976Y35433D02*
D03*
X62992Y33465D02*
D03*
X63976Y31496D02*
D03*
X62992Y29528D02*
D03*
X63976Y27559D02*
D03*
X62992Y25591D02*
D03*
X63976Y19685D02*
D03*
X62992Y17717D02*
D03*
X63976Y15748D02*
D03*
X62992Y13780D02*
D03*
X62008Y35433D02*
D03*
Y31496D02*
D03*
X61024Y29528D02*
D03*
X62008Y23622D02*
D03*
Y19685D02*
D03*
X61024Y17717D02*
D03*
X62008Y15748D02*
D03*
X61024Y13780D02*
D03*
X59055Y37402D02*
D03*
X60039Y35433D02*
D03*
Y31496D02*
D03*
X59055Y21654D02*
D03*
X60039Y19685D02*
D03*
X59055Y17717D02*
D03*
X60039Y15748D02*
D03*
X59055Y13780D02*
D03*
X58071Y31496D02*
D03*
X57087Y29528D02*
D03*
X58071Y27559D02*
D03*
Y23622D02*
D03*
X57087Y21654D02*
D03*
X58071Y19685D02*
D03*
X57087Y17717D02*
D03*
X58071Y15748D02*
D03*
X57087Y13780D02*
D03*
X55118Y37402D02*
D03*
X56102Y35433D02*
D03*
X55118Y33465D02*
D03*
X56102Y31496D02*
D03*
X55118Y29528D02*
D03*
X56102Y27559D02*
D03*
Y23622D02*
D03*
X55118Y21654D02*
D03*
X56102Y19685D02*
D03*
X55118Y17717D02*
D03*
X56102Y15748D02*
D03*
X55118Y13780D02*
D03*
X54134Y35433D02*
D03*
Y31496D02*
D03*
X53150Y25591D02*
D03*
X54134Y19685D02*
D03*
Y15748D02*
D03*
X53150Y13780D02*
D03*
X52165Y35433D02*
D03*
Y27559D02*
D03*
X51181Y25591D02*
D03*
X52165Y23622D02*
D03*
X51181Y13780D02*
D03*
X49213Y37402D02*
D03*
X50197Y35433D02*
D03*
X49213Y33465D02*
D03*
Y25591D02*
D03*
Y21654D02*
D03*
X50197Y15748D02*
D03*
X49213Y13780D02*
D03*
X48228Y23622D02*
D03*
Y15748D02*
D03*
X46260Y19685D02*
D03*
X44291Y15748D02*
D03*
X41339Y33465D02*
D03*
X42323Y31496D02*
D03*
X41339Y21654D02*
D03*
X39370Y29528D02*
D03*
X40354Y23622D02*
D03*
X39370Y21654D02*
D03*
X40354Y19685D02*
D03*
X39370Y17717D02*
D03*
X40354Y15748D02*
D03*
X39370Y13780D02*
D03*
X37402Y33465D02*
D03*
X38386Y31496D02*
D03*
X37402Y29528D02*
D03*
Y25591D02*
D03*
X38386Y23622D02*
D03*
X37402Y21654D02*
D03*
X38386Y19685D02*
D03*
X37402Y17717D02*
D03*
X38386Y15748D02*
D03*
X35433Y37402D02*
D03*
X36417Y35433D02*
D03*
X35433Y33465D02*
D03*
X36417Y31496D02*
D03*
X35433Y29528D02*
D03*
X36417Y27559D02*
D03*
X35433Y25591D02*
D03*
X36417Y23622D02*
D03*
X35433Y21654D02*
D03*
X36417Y19685D02*
D03*
X35433Y17717D02*
D03*
Y13780D02*
D03*
X33465Y37402D02*
D03*
X34449Y35433D02*
D03*
X33465Y33465D02*
D03*
Y29528D02*
D03*
X34449Y27559D02*
D03*
X33465Y25591D02*
D03*
X34449Y23622D02*
D03*
X33465Y21654D02*
D03*
X34449Y19685D02*
D03*
X31496Y37402D02*
D03*
X32480Y35433D02*
D03*
X31496Y29528D02*
D03*
Y25591D02*
D03*
Y17717D02*
D03*
X29528Y37402D02*
D03*
X30512Y35433D02*
D03*
X29528Y29528D02*
D03*
X30512Y27559D02*
D03*
X29528Y25591D02*
D03*
X30512Y23622D02*
D03*
X29528Y13780D02*
D03*
X27559Y37402D02*
D03*
X28543Y35433D02*
D03*
Y27559D02*
D03*
X27559Y25591D02*
D03*
X28543Y23622D02*
D03*
X27559Y21654D02*
D03*
X28543Y19685D02*
D03*
X27559Y13780D02*
D03*
X25591Y37402D02*
D03*
X26575Y27559D02*
D03*
Y23622D02*
D03*
X25591Y21654D02*
D03*
X26575Y19685D02*
D03*
X25591Y13780D02*
D03*
X24606Y31496D02*
D03*
Y23622D02*
D03*
Y19685D02*
D03*
X21654Y37402D02*
D03*
X22638Y31496D02*
D03*
X19685Y37402D02*
D03*
X20669Y31496D02*
D03*
X17717Y37402D02*
D03*
X18701Y35433D02*
D03*
X17717Y33465D02*
D03*
Y25591D02*
D03*
Y21654D02*
D03*
X18701Y15748D02*
D03*
X17717Y13780D02*
D03*
X15748Y37402D02*
D03*
X16732Y35433D02*
D03*
X15748Y17717D02*
D03*
X16732Y15748D02*
D03*
X15748Y13780D02*
D03*
X13780Y37402D02*
D03*
X14764Y35433D02*
D03*
Y23622D02*
D03*
X13780Y21654D02*
D03*
X14764Y15748D02*
D03*
X13780Y13780D02*
D03*
X11811Y37402D02*
D03*
X12795Y35433D02*
D03*
X11811Y33465D02*
D03*
X12795Y31496D02*
D03*
X11811Y29528D02*
D03*
X12795Y27559D02*
D03*
X11811Y25591D02*
D03*
X12795Y15748D02*
D03*
X11811Y13780D02*
D03*
X20945Y33701D02*
D03*
Y34331D02*
D03*
X28150Y30914D02*
D03*
Y31701D02*
D03*
X26181Y33110D02*
D03*
X49759Y18386D02*
D03*
X29094Y15413D02*
D03*
X34055Y16772D02*
D03*
X43131Y20408D02*
D03*
X44985D02*
D03*
X41488Y19350D02*
D03*
X43890Y18732D02*
D03*
X44075Y18177D02*
D03*
X44894Y17433D02*
D03*
X53071Y19646D02*
D03*
X43425Y22205D02*
D03*
X44488Y23819D02*
D03*
X48543Y28740D02*
D03*
X44213D02*
D03*
X48780Y31496D02*
D03*
X47677Y29921D02*
D03*
X47402Y29528D02*
D03*
X46575D02*
D03*
X46260Y29921D02*
D03*
X42087Y20984D02*
D03*
X45591Y31890D02*
D03*
X43819Y31496D02*
D03*
X43543Y31890D02*
D03*
X43268Y32283D02*
D03*
X46575D02*
D03*
X42047Y22874D02*
D03*
M02*
