G04*
G04 #@! TF.GenerationSoftware,Altium Limited,Altium Designer,21.9.2 (33)*
G04*
G04 Layer_Color=65535*
%FSLAX24Y24*%
%MOIN*%
G70*
G04*
G04 #@! TF.SameCoordinates,D973DA56-E0BB-4DEA-AE19-888B2019222A*
G04*
G04*
G04 #@! TF.FilePolarity,Positive*
G04*
G01*
G75*
%ADD10C,0.0118*%
%ADD11C,0.0070*%
%ADD12C,0.0079*%
%ADD13C,0.0010*%
%ADD14C,0.0100*%
G36*
X12858Y27125D02*
X12608Y26875D01*
Y27025D01*
X12358D01*
Y27225D01*
X12608D01*
Y27375D01*
X12858Y27125D01*
D02*
G37*
G36*
Y25157D02*
X12608Y24906D01*
Y25057D01*
X12358D01*
Y25257D01*
X12608D01*
Y25406D01*
X12858Y25157D01*
D02*
G37*
G36*
X36441Y12916D02*
X36791Y12566D01*
X36081D01*
X36441Y12926D01*
Y12916D01*
D02*
G37*
G36*
X40706Y12566D02*
X41416D01*
X41066Y12916D01*
Y12926D01*
X40706Y12566D01*
D02*
G37*
G36*
X44956D02*
X45666D01*
X45316Y12916D01*
Y12926D01*
X44956Y12566D01*
D02*
G37*
G36*
X41197Y21807D02*
X40407D01*
Y22037D01*
X41197D01*
Y21807D01*
D02*
G37*
G36*
X48092Y38635D02*
Y38645D01*
X47742Y38995D01*
X48452D01*
X48092Y38635D01*
D02*
G37*
G36*
Y35185D02*
Y35195D01*
X47742Y35545D01*
X48452D01*
X48092Y35185D01*
D02*
G37*
G36*
X66078Y28755D02*
X66328D01*
Y28555D01*
X66078D01*
Y28405D01*
X65828Y28655D01*
X66078Y28905D01*
Y28755D01*
D02*
G37*
G36*
Y26786D02*
X66328D01*
Y26586D01*
X66078D01*
Y26436D01*
X65828Y26686D01*
X66078Y26936D01*
Y26786D01*
D02*
G37*
G36*
X53526Y25150D02*
Y25138D01*
X52585D01*
X53061Y25614D01*
X53526Y25150D01*
D02*
G37*
G36*
X66078Y24130D02*
X66328D01*
Y23930D01*
X66078D01*
Y23780D01*
X65828Y24030D01*
X66078Y24280D01*
Y24130D01*
D02*
G37*
G36*
Y22161D02*
X66328D01*
Y21961D01*
X66078D01*
Y21811D01*
X65828Y22061D01*
X66078Y22311D01*
Y22161D01*
D02*
G37*
D10*
X64956Y12123D02*
G03*
X66855Y12123I950J633D01*
G01*
X64792Y12013D02*
G03*
X67019Y12013I1114J743D01*
G01*
X64759Y11992D02*
G03*
X67052Y11992I1147J764D01*
G01*
X64726Y11970D02*
G03*
X67085Y11970I1179J786D01*
G01*
X64693Y11948D02*
G03*
X67118Y11948I1212J808D01*
G01*
X64661Y11926D02*
G03*
X67150Y11926I1245J830D01*
G01*
X64825Y12035D02*
G03*
X66987Y12035I1081J721D01*
G01*
X64857Y12057D02*
G03*
X66954Y12057I1048J699D01*
G01*
X64890Y12079D02*
G03*
X66921Y12079I1015J677D01*
G01*
X64923Y12101D02*
G03*
X66888Y12101I983J655D01*
G01*
X64956Y12123D02*
G03*
X66855Y12123I950J633D01*
G01*
X64988Y12144D02*
G03*
X66823Y12144I917J611D01*
G01*
X65021Y12166D02*
G03*
X66790Y12166I884J590D01*
G01*
X65054Y12188D02*
G03*
X66757Y12188I852J568D01*
G01*
X65087Y12210D02*
G03*
X66724Y12210I819J546D01*
G01*
X65087D02*
G03*
X66724Y12210I819J546D01*
G01*
X65119Y12232D02*
G03*
X66692Y12232I786J524D01*
G01*
X65152Y12254D02*
G03*
X66659Y12254I753J502D01*
G01*
X65152D02*
G03*
X66659Y12254I753J502D01*
G01*
X65185Y12275D02*
G03*
X66626Y12275I721J480D01*
G01*
X65218Y12297D02*
G03*
X66593Y12297I688J459D01*
G01*
X65250Y12319D02*
G03*
X66561Y12319I655J437D01*
G01*
X65283Y12341D02*
G03*
X66528Y12341I622J415D01*
G01*
Y13171D02*
G03*
X65283Y13171I-622J-415D01*
G01*
X66561Y13193D02*
G03*
X65250Y13193I-655J-437D01*
G01*
X66593Y13215D02*
G03*
X65218Y13215I-688J-459D01*
G01*
X66626Y13236D02*
G03*
X65185Y13236I-721J-480D01*
G01*
X66659Y13258D02*
G03*
X65152Y13258I-753J-502D01*
G01*
X66659D02*
G03*
X65152Y13258I-753J-502D01*
G01*
X66692Y13280D02*
G03*
X65119Y13280I-786J-524D01*
G01*
X66724Y13302D02*
G03*
X65087Y13302I-819J-546D01*
G01*
X66724D02*
G03*
X65087Y13302I-819J-546D01*
G01*
X66757Y13324D02*
G03*
X65054Y13324I-852J-568D01*
G01*
X66790Y13346D02*
G03*
X65021Y13346I-884J-590D01*
G01*
X66823Y13367D02*
G03*
X64988Y13367I-917J-611D01*
G01*
X66855Y13389D02*
G03*
X64956Y13389I-950J-633D01*
G01*
X66888Y13411D02*
G03*
X64923Y13411I-983J-655D01*
G01*
X66921Y13433D02*
G03*
X64890Y13433I-1015J-677D01*
G01*
X66954Y13455D02*
G03*
X64857Y13455I-1048J-699D01*
G01*
X66987Y13477D02*
G03*
X64825Y13477I-1081J-721D01*
G01*
X67480Y12756D02*
G03*
X67480Y12756I-1575J0D01*
G01*
X67150Y13586D02*
G03*
X64661Y13586I-1245J-830D01*
G01*
X67118Y13564D02*
G03*
X64693Y13564I-1212J-808D01*
G01*
X67085Y13542D02*
G03*
X64726Y13542I-1179J-786D01*
G01*
X67052Y13520D02*
G03*
X64759Y13520I-1147J-764D01*
G01*
X67019Y13498D02*
G03*
X64792Y13498I-1114J-743D01*
G01*
X66855Y13389D02*
G03*
X64956Y13389I-950J-633D01*
G01*
Y37713D02*
G03*
X66855Y37713I950J633D01*
G01*
X64792Y37604D02*
G03*
X67019Y37604I1114J743D01*
G01*
X64759Y37582D02*
G03*
X67052Y37582I1147J764D01*
G01*
X64726Y37560D02*
G03*
X67085Y37560I1179J786D01*
G01*
X64693Y37538D02*
G03*
X67118Y37538I1212J808D01*
G01*
X64661Y37517D02*
G03*
X67150Y37517I1245J830D01*
G01*
X64825Y37626D02*
G03*
X66987Y37626I1081J721D01*
G01*
X64857Y37648D02*
G03*
X66954Y37648I1048J699D01*
G01*
X64890Y37669D02*
G03*
X66921Y37669I1015J677D01*
G01*
X64923Y37691D02*
G03*
X66888Y37691I983J655D01*
G01*
X64956Y37713D02*
G03*
X66855Y37713I950J633D01*
G01*
X64988Y37735D02*
G03*
X66823Y37735I917J611D01*
G01*
X65021Y37757D02*
G03*
X66790Y37757I884J590D01*
G01*
X65054Y37779D02*
G03*
X66757Y37779I852J568D01*
G01*
X65087Y37800D02*
G03*
X66724Y37800I819J546D01*
G01*
X65087D02*
G03*
X66724Y37800I819J546D01*
G01*
X65119Y37822D02*
G03*
X66692Y37822I786J524D01*
G01*
X65152Y37844D02*
G03*
X66659Y37844I753J502D01*
G01*
X65152D02*
G03*
X66659Y37844I753J502D01*
G01*
X65185Y37866D02*
G03*
X66626Y37866I721J480D01*
G01*
X65218Y37888D02*
G03*
X66593Y37888I688J459D01*
G01*
X65250Y37910D02*
G03*
X66561Y37910I655J437D01*
G01*
X65283Y37932D02*
G03*
X66528Y37932I622J415D01*
G01*
Y38761D02*
G03*
X65283Y38761I-622J-415D01*
G01*
X66561Y38783D02*
G03*
X65250Y38783I-655J-437D01*
G01*
X66593Y38805D02*
G03*
X65218Y38805I-688J-459D01*
G01*
X66626Y38827D02*
G03*
X65185Y38827I-721J-480D01*
G01*
X66659Y38849D02*
G03*
X65152Y38849I-753J-502D01*
G01*
X66659D02*
G03*
X65152Y38849I-753J-502D01*
G01*
X66692Y38871D02*
G03*
X65119Y38871I-786J-524D01*
G01*
X66724Y38892D02*
G03*
X65087Y38892I-819J-546D01*
G01*
X66724D02*
G03*
X65087Y38892I-819J-546D01*
G01*
X66757Y38914D02*
G03*
X65054Y38914I-852J-568D01*
G01*
X66790Y38936D02*
G03*
X65021Y38936I-884J-590D01*
G01*
X66823Y38958D02*
G03*
X64988Y38958I-917J-611D01*
G01*
X66855Y38980D02*
G03*
X64956Y38980I-950J-633D01*
G01*
X66888Y39002D02*
G03*
X64923Y39002I-983J-655D01*
G01*
X66921Y39023D02*
G03*
X64890Y39023I-1015J-677D01*
G01*
X66954Y39045D02*
G03*
X64857Y39045I-1048J-699D01*
G01*
X66987Y39067D02*
G03*
X64825Y39067I-1081J-721D01*
G01*
X67480Y38346D02*
G03*
X67480Y38346I-1575J0D01*
G01*
X67150Y39176D02*
G03*
X64661Y39176I-1245J-830D01*
G01*
X67118Y39154D02*
G03*
X64693Y39154I-1212J-808D01*
G01*
X67085Y39133D02*
G03*
X64726Y39133I-1179J-786D01*
G01*
X67052Y39111D02*
G03*
X64759Y39111I-1147J-764D01*
G01*
X67019Y39089D02*
G03*
X64792Y39089I-1114J-743D01*
G01*
X66855Y38980D02*
G03*
X64956Y38980I-950J-633D01*
G01*
X10664Y37713D02*
G03*
X12564Y37713I950J633D01*
G01*
X10500Y37604D02*
G03*
X12728Y37604I1114J743D01*
G01*
X10468Y37582D02*
G03*
X12761Y37582I1147J764D01*
G01*
X10435Y37560D02*
G03*
X12793Y37560I1179J786D01*
G01*
X10402Y37538D02*
G03*
X12826Y37538I1212J808D01*
G01*
X10369Y37517D02*
G03*
X12859Y37517I1245J830D01*
G01*
X10533Y37626D02*
G03*
X12695Y37626I1081J721D01*
G01*
X10566Y37648D02*
G03*
X12662Y37648I1048J699D01*
G01*
X10599Y37669D02*
G03*
X12630Y37669I1015J677D01*
G01*
X10631Y37691D02*
G03*
X12597Y37691I983J655D01*
G01*
X10664Y37713D02*
G03*
X12564Y37713I950J633D01*
G01*
X10697Y37735D02*
G03*
X12531Y37735I917J611D01*
G01*
X10730Y37757D02*
G03*
X12499Y37757I884J590D01*
G01*
X10762Y37779D02*
G03*
X12466Y37779I852J568D01*
G01*
X10795Y37800D02*
G03*
X12433Y37800I819J546D01*
G01*
X10795D02*
G03*
X12433Y37800I819J546D01*
G01*
X10828Y37822D02*
G03*
X12400Y37822I786J524D01*
G01*
X10861Y37844D02*
G03*
X12368Y37844I753J502D01*
G01*
X10861D02*
G03*
X12368Y37844I753J502D01*
G01*
X10893Y37866D02*
G03*
X12335Y37866I721J480D01*
G01*
X10926Y37888D02*
G03*
X12302Y37888I688J459D01*
G01*
X10959Y37910D02*
G03*
X12269Y37910I655J437D01*
G01*
X10992Y37932D02*
G03*
X12237Y37932I622J415D01*
G01*
Y38761D02*
G03*
X10992Y38761I-622J-415D01*
G01*
X12269Y38783D02*
G03*
X10959Y38783I-655J-437D01*
G01*
X12302Y38805D02*
G03*
X10926Y38805I-688J-459D01*
G01*
X12335Y38827D02*
G03*
X10893Y38827I-721J-480D01*
G01*
X12368Y38849D02*
G03*
X10861Y38849I-753J-502D01*
G01*
X12368D02*
G03*
X10861Y38849I-753J-502D01*
G01*
X12400Y38871D02*
G03*
X10828Y38871I-786J-524D01*
G01*
X12433Y38892D02*
G03*
X10795Y38892I-819J-546D01*
G01*
X12433D02*
G03*
X10795Y38892I-819J-546D01*
G01*
X12466Y38914D02*
G03*
X10762Y38914I-852J-568D01*
G01*
X12499Y38936D02*
G03*
X10730Y38936I-884J-590D01*
G01*
X12531Y38958D02*
G03*
X10697Y38958I-917J-611D01*
G01*
X12564Y38980D02*
G03*
X10664Y38980I-950J-633D01*
G01*
X12597Y39002D02*
G03*
X10631Y39002I-983J-655D01*
G01*
X12630Y39023D02*
G03*
X10599Y39023I-1015J-677D01*
G01*
X12662Y39045D02*
G03*
X10566Y39045I-1048J-699D01*
G01*
X12695Y39067D02*
G03*
X10533Y39067I-1081J-721D01*
G01*
X13189Y38346D02*
G03*
X13189Y38346I-1575J0D01*
G01*
X12859Y39176D02*
G03*
X10369Y39176I-1245J-830D01*
G01*
X12826Y39154D02*
G03*
X10402Y39154I-1212J-808D01*
G01*
X12793Y39133D02*
G03*
X10435Y39133I-1179J-786D01*
G01*
X12761Y39111D02*
G03*
X10468Y39111I-1147J-764D01*
G01*
X12728Y39089D02*
G03*
X10500Y39089I-1114J-743D01*
G01*
X12564Y38980D02*
G03*
X10664Y38980I-950J-633D01*
G01*
Y12123D02*
G03*
X12564Y12123I950J633D01*
G01*
X10500Y12013D02*
G03*
X12728Y12013I1114J743D01*
G01*
X10468Y11992D02*
G03*
X12761Y11992I1147J764D01*
G01*
X10435Y11970D02*
G03*
X12793Y11970I1179J786D01*
G01*
X10402Y11948D02*
G03*
X12826Y11948I1212J808D01*
G01*
X10369Y11926D02*
G03*
X12859Y11926I1245J830D01*
G01*
X10533Y12035D02*
G03*
X12695Y12035I1081J721D01*
G01*
X10566Y12057D02*
G03*
X12662Y12057I1048J699D01*
G01*
X10599Y12079D02*
G03*
X12630Y12079I1015J677D01*
G01*
X10631Y12101D02*
G03*
X12597Y12101I983J655D01*
G01*
X10664Y12123D02*
G03*
X12564Y12123I950J633D01*
G01*
X10697Y12144D02*
G03*
X12531Y12144I917J611D01*
G01*
X10730Y12166D02*
G03*
X12499Y12166I884J590D01*
G01*
X10762Y12188D02*
G03*
X12466Y12188I852J568D01*
G01*
X10795Y12210D02*
G03*
X12433Y12210I819J546D01*
G01*
X10795D02*
G03*
X12433Y12210I819J546D01*
G01*
X10828Y12232D02*
G03*
X12400Y12232I786J524D01*
G01*
X10861Y12254D02*
G03*
X12368Y12254I753J502D01*
G01*
X10861D02*
G03*
X12368Y12254I753J502D01*
G01*
X10893Y12275D02*
G03*
X12335Y12275I721J480D01*
G01*
X10926Y12297D02*
G03*
X12302Y12297I688J459D01*
G01*
X10959Y12319D02*
G03*
X12269Y12319I655J437D01*
G01*
X10992Y12341D02*
G03*
X12237Y12341I622J415D01*
G01*
Y13171D02*
G03*
X10992Y13171I-622J-415D01*
G01*
X12269Y13193D02*
G03*
X10959Y13193I-655J-437D01*
G01*
X12302Y13215D02*
G03*
X10926Y13215I-688J-459D01*
G01*
X12335Y13236D02*
G03*
X10893Y13236I-721J-480D01*
G01*
X12368Y13258D02*
G03*
X10861Y13258I-753J-502D01*
G01*
X12368D02*
G03*
X10861Y13258I-753J-502D01*
G01*
X12400Y13280D02*
G03*
X10828Y13280I-786J-524D01*
G01*
X12433Y13302D02*
G03*
X10795Y13302I-819J-546D01*
G01*
X12433D02*
G03*
X10795Y13302I-819J-546D01*
G01*
X12466Y13324D02*
G03*
X10762Y13324I-852J-568D01*
G01*
X12499Y13346D02*
G03*
X10730Y13346I-884J-590D01*
G01*
X12531Y13367D02*
G03*
X10697Y13367I-917J-611D01*
G01*
X12564Y13389D02*
G03*
X10664Y13389I-950J-633D01*
G01*
X12597Y13411D02*
G03*
X10631Y13411I-983J-655D01*
G01*
X12630Y13433D02*
G03*
X10599Y13433I-1015J-677D01*
G01*
X12662Y13455D02*
G03*
X10566Y13455I-1048J-699D01*
G01*
X12695Y13477D02*
G03*
X10533Y13477I-1081J-721D01*
G01*
X13189Y12756D02*
G03*
X13189Y12756I-1575J0D01*
G01*
X12859Y13586D02*
G03*
X10369Y13586I-1245J-830D01*
G01*
X12826Y13564D02*
G03*
X10402Y13564I-1212J-808D01*
G01*
X12793Y13542D02*
G03*
X10435Y13542I-1179J-786D01*
G01*
X12761Y13520D02*
G03*
X10468Y13520I-1147J-764D01*
G01*
X12728Y13498D02*
G03*
X10500Y13498I-1114J-743D01*
G01*
X12564Y13389D02*
G03*
X10664Y13389I-950J-633D01*
G01*
X19750Y18150D02*
G03*
X19750Y17750I0J-200D01*
G01*
Y17350D02*
G03*
X19750Y17750I0J200D01*
G01*
X47474Y17742D02*
G03*
X46887Y17738I-288J-899D01*
G01*
X46899Y17130D02*
G03*
X47471Y17129I287J899D01*
G01*
X13256Y35099D02*
G03*
X13259Y34512I899J-288D01*
G01*
X13867Y34524D02*
G03*
X13868Y35096I-899J287D01*
G01*
X19631Y35099D02*
G03*
X19634Y34512I899J-288D01*
G01*
X20242Y34524D02*
G03*
X20243Y35096I-899J287D01*
G01*
X25881Y35099D02*
G03*
X25884Y34512I899J-288D01*
G01*
X26492Y34524D02*
G03*
X26493Y35096I-899J287D01*
G01*
X23466Y15564D02*
G03*
X23453Y13063I470J-1253D01*
G01*
X24406Y13058D02*
G03*
X24419Y15559I-470J1253D01*
G01*
X22242Y14023D02*
G03*
X22238Y14610I-899J288D01*
G01*
X21630Y14598D02*
G03*
X21629Y14026I899J-287D01*
G01*
X27449Y18224D02*
G03*
X27453Y17637I899J-288D01*
G01*
X28061Y17649D02*
G03*
X28062Y18221I-899J287D01*
G01*
X33756Y18349D02*
G03*
X33759Y17762I899J-288D01*
G01*
X34367Y17774D02*
G03*
X34368Y18346I-899J287D01*
G01*
X15287Y25157D02*
G03*
X15287Y25157I-787J0D01*
G01*
Y27125D02*
G03*
X15287Y27125I-787J0D01*
G01*
X64973Y24030D02*
G03*
X64973Y24030I-787J0D01*
G01*
Y22061D02*
G03*
X64973Y22061I-787J0D01*
G01*
X50376Y17531D02*
G03*
X50342Y15125I1185J-1220D01*
G01*
X51057Y14921D02*
G03*
X51167Y14811I110J0D01*
G01*
X51955Y14811D02*
G03*
X52065Y14921I0J110D01*
G01*
X51167Y17811D02*
G03*
X51057Y17717I-8J-102D01*
G01*
X52065D02*
G03*
X51955Y17811I-102J-8D01*
G01*
X52127Y35932D02*
G03*
X50995Y35932I-566J630D01*
G01*
X52127Y28432D02*
G03*
X50995Y28432I-566J630D01*
G01*
X57935Y33486D02*
G03*
X56190Y33484I-872J-498D01*
G01*
X52935Y21486D02*
G03*
X51190Y21484I-872J-498D01*
G01*
X45508Y18955D02*
G03*
X45508Y18955I-39J0D01*
G01*
X42693Y18167D02*
G03*
X42693Y18167I-39J0D01*
G01*
X43864Y19171D02*
G03*
X44258Y19171I197J0D01*
G01*
X38027Y21811D02*
G03*
X38027Y21811I-591J0D01*
G01*
X37097Y22942D02*
G03*
X37078Y20686I339J-1131D01*
G01*
X37810Y20691D02*
G03*
X37792Y22937I-373J1120D01*
G01*
X13091Y32814D02*
G03*
X13078Y30313I470J-1253D01*
G01*
X14031Y30308D02*
G03*
X14044Y32809I-470J1253D01*
G01*
X31144Y31167D02*
G03*
X31144Y31167I-1083J0D01*
G01*
X27804Y26061D02*
G03*
X27804Y26061I-3642J0D01*
G01*
X39873Y20452D02*
G03*
X41721Y20452I924J220D01*
G01*
Y23392D02*
G03*
X39873Y23392I-924J-220D01*
G01*
X64973Y28655D02*
G03*
X64973Y28655I-787J0D01*
G01*
Y26686D02*
G03*
X64973Y26686I-787J0D01*
G01*
X47690Y23076D02*
G03*
X47580Y23186I-110J0D01*
G01*
X46792Y23186D02*
G03*
X46682Y23076I0J-110D01*
G01*
X47580Y21186D02*
G03*
X47690Y21281I8J102D01*
G01*
X46682D02*
G03*
X46792Y21186I102J8D01*
G01*
X40307Y24531D02*
G03*
X40417Y24436I102J8D01*
G01*
X41205Y24436D02*
G03*
X41315Y24531I8J102D01*
G01*
X40417Y28436D02*
G03*
X40307Y28326I0J-110D01*
G01*
X41315D02*
G03*
X41205Y28436I-110J0D01*
G01*
X16062Y29261D02*
G03*
X17807Y29263I872J498D01*
G01*
X52127Y32244D02*
G03*
X50995Y32244I-566J630D01*
G01*
X42401Y22290D02*
G03*
X42401Y22290I-39J0D01*
G01*
Y23570D02*
G03*
X42401Y23570I-39J0D01*
G01*
Y24849D02*
G03*
X42401Y24849I-39J0D01*
G01*
X45550Y23826D02*
G03*
X45550Y23826I-39J0D01*
G01*
Y22546D02*
G03*
X45550Y22546I-39J0D01*
G01*
X44172Y21257D02*
G03*
X43700Y21257I-236J0D01*
G01*
X18436Y31861D02*
G03*
X18436Y31861I-1000J0D01*
G01*
X60036Y24471D02*
G03*
X60036Y24471I-178J0D01*
G01*
X60046Y25981D02*
G03*
X60046Y25981I-178J0D01*
G01*
X57936Y25321D02*
G03*
X57936Y25321I-178J0D01*
G01*
X55294Y24731D02*
G03*
X55304Y25891I-575J585D01*
G01*
X60628Y36136D02*
G03*
X60628Y36136I-394J0D01*
G01*
X63463Y34561D02*
G03*
X63463Y34561I-2402J0D01*
G01*
X61455D02*
G03*
X61455Y34561I-394J0D01*
G01*
X54246Y15091D02*
G03*
X54280Y17497I-1185J1220D01*
G01*
X53565Y17701D02*
G03*
X53455Y17811I-110J0D01*
G01*
X52667Y17811D02*
G03*
X52557Y17701I0J-110D01*
G01*
X53455Y14811D02*
G03*
X53565Y14906I8J102D01*
G01*
X52557D02*
G03*
X52667Y14811I102J8D01*
G01*
X46242Y20648D02*
G03*
X46238Y21235I-899J288D01*
G01*
X45630Y21223D02*
G03*
X45629Y20651I899J-287D01*
G01*
X38097Y38170D02*
Y38470D01*
Y38170D02*
X38597D01*
Y38470D01*
X46607Y38190D02*
Y38490D01*
Y38190D02*
X47107D01*
Y38490D01*
X36097Y36100D02*
X49097D01*
X36097Y37500D02*
Y38500D01*
X49097D01*
Y36100D02*
Y38500D01*
X36097Y36100D02*
Y37500D01*
X19750Y17000D02*
Y17350D01*
Y18150D02*
Y18500D01*
X18500Y16000D02*
X21000D01*
X18500Y13000D02*
Y16000D01*
X21000Y13000D02*
Y16000D01*
X20800D02*
Y19500D01*
X18500Y13000D02*
X21000D01*
X18500Y22500D02*
X21000D01*
X18500Y19500D02*
X21000D01*
Y22500D01*
X18500Y19500D02*
Y22500D01*
X18750Y16000D02*
Y19500D01*
X38097Y34720D02*
Y35020D01*
Y34720D02*
X38597D01*
Y35020D01*
X46607Y34740D02*
Y35040D01*
Y34740D02*
X47107D01*
Y35040D01*
X36097Y32650D02*
X49097D01*
X36097Y34050D02*
Y35050D01*
X49097D01*
Y32650D02*
Y35050D01*
X36097Y32650D02*
Y34050D01*
X50936Y20061D02*
X51436Y19561D01*
Y19811D01*
X15936Y20811D02*
X16561D01*
X16249Y20499D02*
Y21124D01*
X15936Y14811D02*
X16561D01*
X53648Y17977D02*
Y19395D01*
X54474D01*
Y17977D02*
Y19395D01*
X53648Y17977D02*
X54474D01*
X25832Y32045D02*
X26540D01*
Y30077D02*
Y32045D01*
X25832Y30077D02*
X26540D01*
X25832D02*
Y32045D01*
X26540D01*
X25832Y32203D02*
X26540D01*
X25832Y32360D02*
X26540D01*
Y32045D02*
Y32360D01*
X25832Y32045D02*
Y32360D01*
X24408Y12972D02*
X25275D01*
X22597D02*
X23464D01*
X24408Y15650D02*
X24763D01*
X23109D02*
X23464D01*
X22597Y12972D02*
Y15138D01*
X23109Y15650D01*
X25275Y12972D02*
Y15138D01*
X24763Y15650D02*
X25275Y15138D01*
X27436Y13595D02*
Y13989D01*
Y14383D02*
Y14777D01*
X26845Y13989D02*
X28027D01*
X26845Y14383D02*
X28027D01*
X26531Y16036D02*
Y16351D01*
X28342Y16036D02*
Y16351D01*
X26531Y16036D02*
X28342D01*
Y12336D02*
Y16036D01*
X26531Y16351D02*
X28342D01*
X26531Y16194D02*
X28342D01*
X26531Y12336D02*
X28342D01*
X26531D02*
Y16036D01*
X33707Y15045D02*
X34415D01*
Y13077D02*
Y15045D01*
X33707Y13077D02*
X34415D01*
X33707D02*
Y15045D01*
X34415D01*
X33707Y15203D02*
X34415D01*
X33707Y15360D02*
X34415D01*
Y15045D02*
Y15360D01*
X33707Y15045D02*
Y15360D01*
X43271Y13061D02*
Y13361D01*
X42771D02*
X43271D01*
X42771Y13061D02*
Y13361D01*
X41281Y13071D02*
Y13371D01*
X40781D02*
X41281D01*
X40781Y13071D02*
Y13371D01*
X44061Y14061D02*
Y15461D01*
X40061Y13061D02*
Y15461D01*
Y13061D02*
X44061D01*
Y14061D01*
X40061Y15461D02*
X44061D01*
X47521Y13061D02*
Y13361D01*
X47021D02*
X47521D01*
X47021Y13061D02*
Y13361D01*
X45531Y13071D02*
Y13371D01*
X45031D02*
X45531D01*
X45031Y13071D02*
Y13371D01*
X48311Y14061D02*
Y15461D01*
X44311Y13061D02*
Y15461D01*
Y13061D02*
X48311D01*
Y14061D01*
X44311Y15461D02*
X48311D01*
X12335Y28306D02*
X16665D01*
Y23975D02*
Y28306D01*
X12335Y23975D02*
X16665D01*
X12335D02*
Y28306D01*
X12925Y23975D02*
Y28306D01*
X13319Y23975D02*
Y28306D01*
X15681Y23975D02*
Y28306D01*
X13319Y26141D02*
X15681D01*
X62021Y20880D02*
X66351D01*
X62021D02*
Y25211D01*
X66351D01*
Y20880D02*
Y25211D01*
X65761Y20880D02*
Y25211D01*
X65367Y20880D02*
Y25211D01*
X63005Y20880D02*
Y25211D01*
Y23045D02*
X65367D01*
X52073Y14811D02*
Y17811D01*
X50380Y14811D02*
Y17811D01*
X52073Y14811D02*
Y17811D01*
X50380Y14811D02*
X52073D01*
X50380Y17811D02*
X52073D01*
X51961Y15811D02*
X52061Y15911D01*
X51961Y15811D02*
X52061Y15711D01*
X51057D02*
X51157Y15811D01*
X51161D01*
X51061Y15911D02*
X51161Y15811D01*
X52065Y14911D02*
Y15711D01*
X51057Y14911D02*
Y15711D01*
X51167Y14811D02*
X51955D01*
X51167Y17811D02*
X51955D01*
X52065Y16911D02*
Y17717D01*
X51057Y16915D02*
Y17717D01*
X52061Y14911D02*
X52065D01*
X51057D02*
X51061D01*
X51961Y16811D02*
X52061Y16911D01*
X51961Y16811D02*
X52061Y16711D01*
X51057Y16911D02*
X51061D01*
X51161Y16811D01*
X51157D02*
X51161D01*
X51057Y16711D02*
X51157Y16811D01*
X52065Y15911D02*
Y16711D01*
X51057Y16915D02*
X51061Y16911D01*
X51057Y15911D02*
Y16711D01*
X51161Y15811D02*
X51961D01*
X32061Y16487D02*
Y17263D01*
X31061Y16487D02*
Y17263D01*
X30061Y16487D02*
Y17263D01*
X29012D02*
Y20611D01*
X33110Y17263D02*
Y20611D01*
X29012Y17263D02*
X33110D01*
X51901Y35931D02*
X52127D01*
X50995D02*
X51221D01*
X51920Y36541D02*
X51950Y36511D01*
X51890Y36571D02*
X51920Y36541D01*
X51830Y36631D02*
X51860Y36601D01*
X51800Y36661D02*
X51830Y36631D01*
X51950Y36511D02*
X52050D01*
X51920Y36541D02*
X52080D01*
X51890Y36571D02*
X52110D01*
X51860Y36601D02*
X52140D01*
X51830Y36631D02*
X52170D01*
X52000Y36661D02*
Y37061D01*
X51931Y36061D02*
X52000D01*
Y36161D01*
Y36461D01*
X51800D02*
X52200D01*
X51800Y36661D02*
X52000Y36461D01*
X52200Y36661D01*
X51800D02*
X52200D01*
X51931Y37061D02*
X52000D01*
X51901Y28431D02*
X52127D01*
X50995D02*
X51221D01*
X51920Y29041D02*
X51950Y29011D01*
X51890Y29071D02*
X51920Y29041D01*
X51830Y29131D02*
X51860Y29101D01*
X51800Y29161D02*
X51830Y29131D01*
X51950Y29011D02*
X52050D01*
X51920Y29041D02*
X52080D01*
X51890Y29071D02*
X52110D01*
X51860Y29101D02*
X52140D01*
X51830Y29131D02*
X52170D01*
X52000Y29161D02*
Y29561D01*
X51931Y28561D02*
X52000D01*
Y28661D01*
Y28961D01*
X51800D02*
X52200D01*
X51800Y29161D02*
X52000Y28961D01*
X52200Y29161D01*
X51800D02*
X52200D01*
X51931Y29561D02*
X52000D01*
X57811Y32411D02*
X58011Y32611D01*
X56111D02*
X56311Y32411D01*
X57811D01*
X52582Y35931D02*
X53290D01*
X52582D02*
Y37191D01*
X53290D01*
Y35931D02*
Y37191D01*
X42806Y19457D02*
Y20165D01*
X44066D01*
Y19457D02*
Y20165D01*
X42806Y19457D02*
X44066D01*
X45316D02*
Y20165D01*
X44056Y19457D02*
X45316D01*
X44056D02*
Y20165D01*
X45316D01*
X41181Y18394D02*
Y19103D01*
X42441D01*
Y18394D02*
Y19103D01*
X41181Y18394D02*
X42441D01*
X52707Y19316D02*
X53415D01*
Y18056D02*
Y19316D01*
X52707Y18056D02*
X53415D01*
X52707D02*
Y19316D01*
X50207Y18056D02*
X50915D01*
X50207D02*
Y19316D01*
X50915D01*
Y18056D02*
Y19316D01*
X51681Y13957D02*
Y14665D01*
X52941D01*
Y13957D02*
Y14665D01*
X51681Y13957D02*
X52941D01*
X41056Y15707D02*
Y16415D01*
X42316D01*
Y15707D02*
Y16415D01*
X41056Y15707D02*
X42316D01*
X47316D02*
Y16415D01*
X46056Y15707D02*
X47316D01*
X46056D02*
Y16415D01*
X47316D01*
X51207Y19316D02*
X51915D01*
Y18056D02*
Y19316D01*
X51207Y18056D02*
X51915D01*
X51207D02*
Y19316D01*
X54191Y37352D02*
Y38770D01*
X57931D01*
Y37352D02*
Y38770D01*
X54191Y37352D02*
X57931D01*
X53431Y38061D02*
X54191D01*
X57931D02*
X58699D01*
X51049Y23847D02*
X52073D01*
X51049D02*
Y26525D01*
X52073D01*
Y23847D02*
Y26525D01*
X51561Y23056D02*
Y23847D01*
Y26525D02*
Y27316D01*
X53061Y25602D02*
X53526Y25138D01*
X52585D02*
X53526D01*
X52585D02*
X53061Y25614D01*
Y25642D01*
X52585Y25646D02*
X53533D01*
X53061Y23736D02*
Y26886D01*
X52811Y20411D02*
X53011Y20611D01*
X51111D02*
X51311Y20411D01*
X52811D01*
X44494Y17951D02*
Y19171D01*
X43628Y17951D02*
X44494D01*
X43628D02*
Y19171D01*
X43864D01*
X44258D02*
X44494D01*
X42683Y19112D02*
X43628D01*
X42683Y18915D02*
Y19112D01*
X14033Y30222D02*
X14900D01*
X12222D02*
X13089D01*
X14033Y32900D02*
X14388D01*
X12734D02*
X13089D01*
X12222Y30222D02*
Y32388D01*
X12734Y32900D01*
X14900Y30222D02*
Y32388D01*
X14388Y32900D02*
X14900Y32388D01*
X46202Y18207D02*
Y18915D01*
X48170D01*
Y18207D02*
Y18915D01*
X46202Y18207D02*
X48170D01*
X46202D02*
Y18915D01*
X46044Y18207D02*
Y18915D01*
X45887Y18207D02*
Y18915D01*
X46202D01*
X45887Y18207D02*
X46202D01*
X19936Y30845D02*
Y31239D01*
Y31633D02*
Y32027D01*
X19345Y31239D02*
X20527D01*
X19345Y31633D02*
X20527D01*
X19031Y33286D02*
Y33601D01*
X20842Y33286D02*
Y33601D01*
X19031Y33286D02*
X20842D01*
Y29586D02*
Y33286D01*
X19031Y33601D02*
X20842D01*
X19031Y33444D02*
X20842D01*
X19031Y29586D02*
X20842D01*
X19031D02*
Y33286D01*
X57931Y28727D02*
Y30145D01*
X54191Y28727D02*
X57931D01*
X54191D02*
Y30145D01*
X57931D01*
Y29436D02*
X58691D01*
X53423D02*
X54191D01*
X38646Y13061D02*
Y13361D01*
X38146D02*
X38646D01*
X38146Y13061D02*
Y13361D01*
X36656Y13071D02*
Y13371D01*
X36156D02*
X36656D01*
X36156Y13071D02*
Y13371D01*
X39436Y14061D02*
Y15461D01*
X35436Y13061D02*
Y15461D01*
Y13061D02*
X39436D01*
Y14061D01*
X35436Y15461D02*
X39436D01*
X39872Y20452D02*
Y23392D01*
X41722Y20452D02*
Y23392D01*
X62021Y25505D02*
X66351D01*
X62021D02*
Y29836D01*
X66351D01*
Y25505D02*
Y29836D01*
X65761Y25505D02*
Y29836D01*
X65367Y25505D02*
Y29836D01*
X63005Y25505D02*
Y29836D01*
Y27670D02*
X65367D01*
X46686Y22086D02*
X46786Y22186D01*
X46686Y22286D02*
X46786Y22186D01*
X47590D02*
X47690Y22286D01*
X47586Y22186D02*
X47590D01*
X47586D02*
X47686Y22086D01*
X46682Y22286D02*
Y23086D01*
X47690Y22286D02*
Y23086D01*
X46792Y23186D02*
X47580D01*
X46792Y21186D02*
X47580D01*
X46682Y21281D02*
Y22086D01*
X47690Y21281D02*
Y22082D01*
X46682Y23086D02*
X46686D01*
X47686D02*
X47690D01*
X41311Y28336D02*
X41315D01*
X41311Y27336D02*
X41315D01*
X41211Y27436D02*
X41311Y27336D01*
X41211Y27436D02*
X41215D01*
X41315Y26531D02*
Y27332D01*
X41311Y27336D02*
X41315Y27332D01*
X40307Y28336D02*
X40311D01*
Y27336D02*
X40411Y27436D01*
X40307Y26531D02*
Y27336D01*
X41211Y26436D02*
X41311Y26536D01*
X41211Y26436D02*
X41311Y26336D01*
X41315D01*
Y25536D02*
Y26336D01*
X41311Y25336D02*
X41315Y25332D01*
Y24531D02*
Y25332D01*
X40307Y26336D02*
X40311D01*
X40307Y25536D02*
Y26336D01*
X40311Y26536D02*
X40411Y26436D01*
X40311Y26336D02*
X40411Y26436D01*
X40307Y24531D02*
Y25336D01*
X41215Y25436D02*
X41315Y25536D01*
X41211Y25436D02*
X41215D01*
X41211D02*
X41311Y25336D01*
X41315D01*
X40311Y25536D02*
X40411Y25436D01*
X40311Y25336D02*
X40411Y25436D01*
X40417Y24436D02*
X41205D01*
X40417Y28436D02*
X41205D01*
X41315Y27536D02*
Y28336D01*
X40307Y27536D02*
Y28336D01*
X41215Y27436D02*
X41315Y27536D01*
X40311D02*
X40411Y27436D01*
Y25436D02*
X41215D01*
X14561Y15425D02*
Y16189D01*
Y17433D02*
Y18189D01*
Y19441D02*
Y20189D01*
Y13146D02*
Y14165D01*
Y21449D02*
Y22476D01*
X15427Y13146D02*
Y22476D01*
X12671D02*
X15427D01*
X12671Y13146D02*
Y22476D01*
Y13146D02*
X15427D01*
X12671Y19827D02*
X15427D01*
X15986Y30136D02*
X16186Y30336D01*
X17686D02*
X17886Y30136D01*
X16186Y30336D02*
X17686D01*
X51901Y32244D02*
X52127D01*
X50995D02*
X51221D01*
X51920Y32854D02*
X51950Y32824D01*
X51890Y32884D02*
X51920Y32854D01*
X51830Y32944D02*
X51860Y32914D01*
X51800Y32974D02*
X51830Y32944D01*
X51950Y32824D02*
X52050D01*
X51920Y32854D02*
X52080D01*
X51890Y32884D02*
X52110D01*
X51860Y32914D02*
X52140D01*
X51830Y32944D02*
X52170D01*
X52000Y32974D02*
Y33374D01*
X51931Y32374D02*
X52000D01*
Y32474D01*
Y32774D01*
X51800D02*
X52200D01*
X51800Y32974D02*
X52000Y32774D01*
X52200Y32974D01*
X51800D02*
X52200D01*
X51931Y33374D02*
X52000D01*
X24561Y33418D02*
Y34194D01*
X23561Y33418D02*
Y34194D01*
X22561Y33418D02*
Y34194D01*
X21512D02*
Y37542D01*
X25610Y34194D02*
Y37542D01*
X21512Y34194D02*
X25610D01*
X43267Y21257D02*
Y25115D01*
X44605D01*
Y21257D02*
Y25115D01*
X44172Y21257D02*
X44605D01*
X43267D02*
X43700D01*
X44605Y21336D02*
X45471D01*
Y21572D01*
X43313Y17533D02*
Y17770D01*
X43667D01*
Y17691D02*
Y17770D01*
X43234Y17533D02*
X43392D01*
X43234D02*
Y17848D01*
X43667D01*
Y17691D02*
Y17848D01*
X43392Y17691D02*
X44730D01*
X43392Y16431D02*
Y17691D01*
Y16431D02*
X44730D01*
Y17691D01*
X53222Y30549D02*
Y31573D01*
X55900D01*
Y30549D02*
Y31573D01*
X53222Y30549D02*
X55900D01*
X52431Y31061D02*
X53222D01*
X55900D02*
X56691D01*
X52707Y32181D02*
X53415D01*
X52707D02*
Y33441D01*
X53415D01*
Y32181D02*
Y33441D01*
X53965Y28362D02*
X61484D01*
Y22260D02*
Y28362D01*
X53965Y22260D02*
X61484D01*
X60046Y26041D02*
X60146Y26141D01*
X55146Y25311D02*
X57556D01*
X60146Y26141D02*
Y27171D01*
Y23471D02*
Y24361D01*
X60036Y24471D02*
X60146Y24361D01*
X57956Y25321D02*
X59240D01*
X59703Y25784D01*
X55284Y23382D02*
Y24721D01*
X55294Y25901D02*
Y27240D01*
X53965Y22260D02*
Y25035D01*
Y25587D02*
Y28362D01*
X59841Y36136D02*
X60628D01*
X60234Y35742D02*
Y36530D01*
X52549Y14811D02*
Y17811D01*
X54242Y14811D02*
Y17811D01*
X52549Y14811D02*
Y17811D01*
X54242D01*
X52549Y14811D02*
X54242D01*
X52561Y16711D02*
X52661Y16811D01*
X52561Y16911D02*
X52661Y16811D01*
X53465D02*
X53565Y16911D01*
X53461Y16811D02*
X53465D01*
X53461D02*
X53561Y16711D01*
X52557Y16911D02*
Y17711D01*
X53565Y16911D02*
Y17711D01*
X52667Y17811D02*
X53455D01*
X52667Y14811D02*
X53455D01*
X52557Y14906D02*
Y15711D01*
X53565Y14906D02*
Y15707D01*
X52557Y17711D02*
X52561D01*
X53561D02*
X53565D01*
X52561Y15711D02*
X52661Y15811D01*
X52561Y15911D02*
X52661Y15811D01*
X53561Y15711D02*
X53565D01*
X53461Y15811D02*
X53561Y15711D01*
X53461Y15811D02*
X53465D01*
X53565Y15911D01*
X52557D02*
Y16711D01*
X53561Y15711D02*
X53565Y15707D01*
Y15911D02*
Y16711D01*
X52661Y16811D02*
X53461D01*
X27122Y34882D02*
X31138D01*
X31039Y33583D02*
X31138Y34882D01*
X27220Y33583D02*
X31039D01*
X27122Y35433D02*
X31138D01*
X27122Y34882D02*
X27220Y33583D01*
X27122Y34882D02*
Y35433D01*
X31138Y34882D02*
Y35433D01*
X14997Y34882D02*
X19013D01*
X18914Y33583D02*
X19013Y34882D01*
X15095Y33583D02*
X18914D01*
X14997Y35433D02*
X19013D01*
X14997Y34882D02*
X15095Y33583D01*
X14997Y34882D02*
Y35433D01*
X19013Y34882D02*
Y35433D01*
X22997Y18132D02*
X27013D01*
X26914Y16833D02*
X27013Y18132D01*
X23095Y16833D02*
X26914D01*
X22997Y18683D02*
X27013D01*
X22997Y18132D02*
X23095Y16833D01*
X22997Y18132D02*
Y18683D01*
X27013Y18132D02*
Y18683D01*
X46964Y23436D02*
X47357D01*
X47436Y23515D01*
Y23672D01*
X47357Y23751D01*
X46964D01*
X47436Y23908D02*
X47121D01*
X46964Y24066D01*
X47121Y24223D01*
X47436D01*
X47200D01*
Y23908D01*
X47436Y24381D02*
X46964D01*
Y24617D01*
X47042Y24695D01*
X47200D01*
X47279Y24617D01*
Y24381D01*
Y24538D02*
X47436Y24695D01*
X46964Y24853D02*
Y25168D01*
Y25010D01*
X47436D01*
X66311Y18251D02*
Y17936D01*
X65996Y18251D01*
X65917D01*
X65839Y18172D01*
Y18015D01*
X65917Y17936D01*
X66311Y18723D02*
Y18408D01*
X65996Y18723D01*
X65917D01*
X65839Y18644D01*
Y18487D01*
X65917Y18408D01*
Y18881D02*
X65839Y18959D01*
Y19117D01*
X65917Y19195D01*
X66232D01*
X66311Y19117D01*
Y18959D01*
X66232Y18881D01*
X65917D01*
X65839Y19353D02*
X66154D01*
X66311Y19510D01*
X66154Y19668D01*
X65839D01*
X66311Y19825D02*
X65996D01*
X65839Y19983D01*
X65996Y20140D01*
X66311D01*
X66075D01*
Y19825D01*
X65917Y20612D02*
X65839Y20534D01*
Y20376D01*
X65917Y20297D01*
X66232D01*
X66311Y20376D01*
Y20534D01*
X66232Y20612D01*
X65839Y30061D02*
X66311D01*
Y30376D01*
X65839Y30769D02*
Y30612D01*
X65917Y30533D01*
X66232D01*
X66311Y30612D01*
Y30769D01*
X66232Y30848D01*
X65917D01*
X65839Y30769D01*
X66311Y31006D02*
X65996D01*
X65839Y31163D01*
X65996Y31320D01*
X66311D01*
X66075D01*
Y31006D01*
X65839Y31478D02*
X66311D01*
Y31714D01*
X66232Y31793D01*
X65917D01*
X65839Y31714D01*
Y31478D01*
X50061Y13658D02*
X50376D01*
X50218D01*
Y13186D01*
X50848Y13580D02*
X50769Y13658D01*
X50612D01*
X50533Y13580D01*
Y13501D01*
X50612Y13422D01*
X50769D01*
X50848Y13343D01*
Y13265D01*
X50769Y13186D01*
X50612D01*
X50533Y13265D01*
X51242Y13658D02*
X51084D01*
X51006Y13580D01*
Y13265D01*
X51084Y13186D01*
X51242D01*
X51320Y13265D01*
Y13580D01*
X51242Y13658D01*
X51478Y13186D02*
Y13658D01*
X51714D01*
X51793Y13580D01*
Y13422D01*
X51714Y13343D01*
X51478D01*
X51950Y13186D02*
X52108D01*
X52029D01*
Y13658D01*
X51950Y13580D01*
X52344D02*
X52422Y13658D01*
X52580D01*
X52659Y13580D01*
Y13501D01*
X52580Y13422D01*
X52659Y13343D01*
Y13265D01*
X52580Y13186D01*
X52422D01*
X52344Y13265D01*
Y13343D01*
X52422Y13422D01*
X52344Y13501D01*
Y13580D01*
X52422Y13422D02*
X52580D01*
X52816Y13580D02*
X52895Y13658D01*
X53052D01*
X53131Y13580D01*
Y13501D01*
X53052Y13422D01*
X52973D01*
X53052D01*
X53131Y13343D01*
Y13265D01*
X53052Y13186D01*
X52895D01*
X52816Y13265D01*
X53288Y13580D02*
X53367Y13658D01*
X53524D01*
X53603Y13580D01*
Y13501D01*
X53524Y13422D01*
X53603Y13343D01*
Y13265D01*
X53524Y13186D01*
X53367D01*
X53288Y13265D01*
Y13343D01*
X53367Y13422D01*
X53288Y13501D01*
Y13580D01*
X53367Y13422D02*
X53524D01*
X53761Y13501D02*
X54075Y13186D01*
X53918Y13343D01*
X54075Y13501D01*
X53761Y13186D01*
X54548D02*
X54233D01*
X54548Y13501D01*
Y13580D01*
X54469Y13658D01*
X54312D01*
X54233Y13580D01*
X38783Y25080D02*
X38862Y25158D01*
X39019D01*
X39098Y25080D01*
Y25001D01*
X39019Y24922D01*
X38941D01*
X39019D01*
X39098Y24843D01*
Y24765D01*
X39019Y24686D01*
X38862D01*
X38783Y24765D01*
X39256Y25158D02*
Y24843D01*
X39413Y24686D01*
X39570Y24843D01*
Y25158D01*
X39728Y25080D02*
X39807Y25158D01*
X39964D01*
X40043Y25080D01*
Y25001D01*
X39964Y24922D01*
X39885D01*
X39964D01*
X40043Y24843D01*
Y24765D01*
X39964Y24686D01*
X39807D01*
X39728Y24765D01*
X38311Y26158D02*
X38626D01*
X38468D01*
Y25686D01*
X39098Y26158D02*
X38783D01*
Y25686D01*
X39098D01*
X38783Y25922D02*
X38941D01*
X39570Y26080D02*
X39492Y26158D01*
X39334D01*
X39256Y26080D01*
Y26001D01*
X39334Y25922D01*
X39492D01*
X39570Y25843D01*
Y25765D01*
X39492Y25686D01*
X39334D01*
X39256Y25765D01*
X39728Y26158D02*
X40043D01*
X39885D01*
Y25686D01*
X38783Y26686D02*
Y27158D01*
X39019D01*
X39098Y27080D01*
Y26922D01*
X39019Y26843D01*
X38783D01*
X38941D02*
X39098Y26686D01*
X39570Y27080D02*
X39492Y27158D01*
X39334D01*
X39256Y27080D01*
Y27001D01*
X39334Y26922D01*
X39492D01*
X39570Y26843D01*
Y26765D01*
X39492Y26686D01*
X39334D01*
X39256Y26765D01*
X39728Y27158D02*
X40043D01*
X39885D01*
Y26686D01*
X39098Y28080D02*
X39019Y28158D01*
X38862D01*
X38783Y28080D01*
Y27765D01*
X38862Y27686D01*
X39019D01*
X39098Y27765D01*
Y27922D01*
X38941D01*
X39256Y27686D02*
Y28158D01*
X39570Y27686D01*
Y28158D01*
X39728D02*
Y27686D01*
X39964D01*
X40043Y27765D01*
Y28080D01*
X39964Y28158D01*
X39728D01*
X35686Y21436D02*
X35214D01*
Y21672D01*
X35292Y21751D01*
X35450D01*
X35529Y21672D01*
Y21436D01*
Y21593D02*
X35686Y21751D01*
X35292Y22223D02*
X35214Y22144D01*
Y21987D01*
X35292Y21908D01*
X35371D01*
X35450Y21987D01*
Y22144D01*
X35529Y22223D01*
X35607D01*
X35686Y22144D01*
Y21987D01*
X35607Y21908D01*
X35214Y22381D02*
Y22695D01*
Y22538D01*
X35686D01*
X36561Y15686D02*
Y15843D01*
Y15765D01*
X36089D01*
X36167Y15686D01*
Y16080D02*
X36089Y16158D01*
Y16316D01*
X36167Y16394D01*
X36246D01*
X36325Y16316D01*
X36404Y16394D01*
X36482D01*
X36561Y16316D01*
Y16158D01*
X36482Y16080D01*
X36404D01*
X36325Y16158D01*
X36246Y16080D01*
X36167D01*
X36325Y16158D02*
Y16316D01*
X36089Y16552D02*
X36404D01*
X36561Y16709D01*
X36404Y16867D01*
X36089D01*
X37151Y16001D02*
Y15686D01*
X37387D01*
X37309Y15843D01*
Y15922D01*
X37387Y16001D01*
X37545D01*
X37624Y15922D01*
Y15765D01*
X37545Y15686D01*
X37151Y16158D02*
X37466D01*
X37624Y16316D01*
X37466Y16473D01*
X37151D01*
X38292Y16001D02*
X38214Y15922D01*
Y15765D01*
X38292Y15686D01*
X38607D01*
X38686Y15765D01*
Y15922D01*
X38607Y16001D01*
X38450D01*
Y15843D01*
X38686Y16158D02*
X38214D01*
X38686Y16473D01*
X38214D01*
Y16631D02*
X38686D01*
Y16867D01*
X38607Y16945D01*
X38292D01*
X38214Y16867D01*
Y16631D01*
X40417Y16001D02*
X40339Y15922D01*
Y15765D01*
X40417Y15686D01*
X40732D01*
X40811Y15765D01*
Y15922D01*
X40732Y16001D01*
X40575D01*
Y15843D01*
X40811Y16158D02*
X40339D01*
X40811Y16473D01*
X40339D01*
Y16631D02*
X40811D01*
Y16867D01*
X40732Y16945D01*
X40417D01*
X40339Y16867D01*
Y16631D01*
X45042Y16001D02*
X44964Y15922D01*
Y15765D01*
X45042Y15686D01*
X45357D01*
X45436Y15765D01*
Y15922D01*
X45357Y16001D01*
X45200D01*
Y15843D01*
X45436Y16158D02*
X44964D01*
X45436Y16473D01*
X44964D01*
Y16631D02*
X45436D01*
Y16867D01*
X45357Y16945D01*
X45042D01*
X44964Y16867D01*
Y16631D01*
X43186Y15686D02*
Y15843D01*
Y15765D01*
X42714D01*
X42792Y15686D01*
Y16080D02*
X42714Y16158D01*
Y16316D01*
X42792Y16394D01*
X42871D01*
X42950Y16316D01*
X43029Y16394D01*
X43107D01*
X43186Y16316D01*
Y16158D01*
X43107Y16080D01*
X43029D01*
X42950Y16158D01*
X42871Y16080D01*
X42792D01*
X42950Y16158D02*
Y16316D01*
X42714Y16552D02*
X43029D01*
X43186Y16709D01*
X43029Y16867D01*
X42714D01*
X47936Y15686D02*
Y15843D01*
Y15765D01*
X47464D01*
X47542Y15686D01*
Y16080D02*
X47464Y16158D01*
Y16316D01*
X47542Y16394D01*
X47621D01*
X47700Y16316D01*
X47779Y16394D01*
X47857D01*
X47936Y16316D01*
Y16158D01*
X47857Y16080D01*
X47779D01*
X47700Y16158D01*
X47621Y16080D01*
X47542D01*
X47700Y16158D02*
Y16316D01*
X47464Y16552D02*
X47779D01*
X47936Y16709D01*
X47779Y16867D01*
X47464D01*
X17436Y24311D02*
Y24468D01*
Y24390D01*
X16964D01*
X17042Y24311D01*
Y24705D02*
X16964Y24783D01*
Y24941D01*
X17042Y25019D01*
X17121D01*
X17200Y24941D01*
X17279Y25019D01*
X17357D01*
X17436Y24941D01*
Y24783D01*
X17357Y24705D01*
X17279D01*
X17200Y24783D01*
X17121Y24705D01*
X17042D01*
X17200Y24783D02*
Y24941D01*
X16964Y25177D02*
X17279D01*
X17436Y25334D01*
X17279Y25492D01*
X16964D01*
X17436Y25649D02*
X17121D01*
X16964Y25807D01*
X17121Y25964D01*
X17436D01*
X17200D01*
Y25649D01*
X17042Y26436D02*
X16964Y26358D01*
Y26200D01*
X17042Y26121D01*
X17357D01*
X17436Y26200D01*
Y26358D01*
X17357Y26436D01*
X17200Y26594D02*
Y26909D01*
X17042Y27066D02*
X16964Y27145D01*
Y27302D01*
X17042Y27381D01*
X17121D01*
X17200Y27302D01*
Y27223D01*
Y27302D01*
X17279Y27381D01*
X17357D01*
X17436Y27302D01*
Y27145D01*
X17357Y27066D01*
X17436Y27538D02*
X17121D01*
X16964Y27696D01*
X17121Y27853D01*
X17436D01*
X17200D01*
Y27538D01*
X36686Y35311D02*
X36843D01*
X36765D01*
Y35783D01*
X36686Y35705D01*
X37394Y35311D02*
X37080D01*
X37394Y35626D01*
Y35705D01*
X37316Y35783D01*
X37158D01*
X37080Y35705D01*
X36686Y31936D02*
X36843D01*
X36765D01*
Y32408D01*
X36686Y32330D01*
X37394Y31936D02*
X37080D01*
X37394Y32251D01*
Y32330D01*
X37316Y32408D01*
X37158D01*
X37080Y32330D01*
X48061Y31936D02*
X48218D01*
X48140D01*
Y32408D01*
X48061Y32330D01*
X16061Y18705D02*
X16140Y18783D01*
X16297D01*
X16376Y18862D01*
X16061Y16705D02*
X16140Y16783D01*
X16297D01*
X16376Y16862D01*
X23916Y16634D02*
Y16240D01*
X24113Y16437D02*
X23719D01*
X13541Y33884D02*
Y33490D01*
X13738Y33687D02*
X13344D01*
X30056Y32767D02*
Y32374D01*
X30253Y32571D02*
X29859D01*
X19989Y26081D02*
X20383D01*
X20186Y26277D02*
Y25884D01*
X47936Y21186D02*
Y21658D01*
X48172D01*
X48251Y21580D01*
Y21422D01*
X48172Y21343D01*
X47936D01*
X48093D02*
X48251Y21186D01*
X48408Y21658D02*
X48723Y21186D01*
Y21658D02*
X48408Y21186D01*
X48881Y21658D02*
Y21186D01*
X49117D01*
X49195Y21265D01*
Y21580D01*
X49117Y21658D01*
X48881D01*
X47936Y23158D02*
X48251D01*
X48093D01*
Y22686D01*
X48408Y23158D02*
X48723Y22686D01*
Y23158D02*
X48408Y22686D01*
X48881Y23158D02*
Y22686D01*
X49117D01*
X49195Y22765D01*
Y23080D01*
X49117Y23158D01*
X48881D01*
X42311Y12783D02*
Y12311D01*
X42626D01*
X43098Y12783D02*
X42783D01*
Y12311D01*
X43098D01*
X42783Y12547D02*
X42941D01*
X43570Y12783D02*
X43256D01*
Y12547D01*
X43413D01*
X43256D01*
Y12311D01*
X43728Y12783D02*
X44043D01*
X43885D01*
Y12311D01*
X46186D02*
Y12783D01*
X46422D01*
X46501Y12705D01*
Y12547D01*
X46422Y12468D01*
X46186D01*
X46343D02*
X46501Y12311D01*
X46658Y12783D02*
X46816D01*
X46737D01*
Y12311D01*
X46658D01*
X46816D01*
X47367Y12705D02*
X47288Y12783D01*
X47131D01*
X47052Y12705D01*
Y12390D01*
X47131Y12311D01*
X47288D01*
X47367Y12390D01*
Y12547D01*
X47209D01*
X47524Y12783D02*
Y12311D01*
Y12547D01*
X47839D01*
Y12783D01*
Y12311D01*
X47996Y12783D02*
X48311D01*
X48154D01*
Y12311D01*
X37186D02*
Y12783D01*
X37422D01*
X37501Y12705D01*
Y12547D01*
X37422Y12468D01*
X37186D01*
X37894Y12783D02*
X37737D01*
X37658Y12705D01*
Y12390D01*
X37737Y12311D01*
X37894D01*
X37973Y12390D01*
Y12705D01*
X37894Y12783D01*
X38131D02*
Y12311D01*
X38288Y12468D01*
X38445Y12311D01*
Y12783D01*
X38918D02*
X38603D01*
Y12311D01*
X38918D01*
X38603Y12547D02*
X38760D01*
X39075Y12311D02*
Y12783D01*
X39311D01*
X39390Y12705D01*
Y12547D01*
X39311Y12468D01*
X39075D01*
X39233D02*
X39390Y12311D01*
X31380Y34658D02*
X31537D01*
X31459D01*
Y34186D01*
X31380D01*
X31537D01*
X32088Y34580D02*
X32010Y34658D01*
X31852D01*
X31774Y34580D01*
Y34265D01*
X31852Y34186D01*
X32010D01*
X32088Y34265D01*
X32246Y34580D02*
X32325Y34658D01*
X32482D01*
X32561Y34580D01*
Y34501D01*
X32482Y34422D01*
X32403D01*
X32482D01*
X32561Y34343D01*
Y34265D01*
X32482Y34186D01*
X32325D01*
X32246Y34265D01*
X31417Y31001D02*
X31339Y30922D01*
Y30765D01*
X31417Y30686D01*
X31732D01*
X31811Y30765D01*
Y30922D01*
X31732Y31001D01*
Y31158D02*
X31811Y31237D01*
Y31394D01*
X31732Y31473D01*
X31417D01*
X31339Y31394D01*
Y31237D01*
X31417Y31158D01*
X31496D01*
X31575Y31237D01*
Y31473D01*
X15751Y30640D02*
Y30955D01*
X15672Y31033D01*
X15515D01*
X15436Y30955D01*
Y30640D01*
X15515Y30561D01*
X15672D01*
X15593Y30718D02*
X15751Y30561D01*
X15672D02*
X15751Y30640D01*
X15908Y30561D02*
X16066D01*
X15987D01*
Y31033D01*
X15908Y30955D01*
X39214Y21561D02*
X39686Y21876D01*
X39214D02*
X39686Y21561D01*
Y22033D02*
Y22191D01*
Y22112D01*
X39214D01*
X39292Y22033D01*
X45589Y19186D02*
X45982D01*
X46061Y19265D01*
Y19422D01*
X45982Y19501D01*
X45589D01*
X45667Y19658D02*
X45589Y19737D01*
Y19894D01*
X45667Y19973D01*
X45746D01*
X45825Y19894D01*
Y19816D01*
Y19894D01*
X45904Y19973D01*
X45982D01*
X46061Y19894D01*
Y19737D01*
X45982Y19658D01*
X45311Y17783D02*
Y17390D01*
X45390Y17311D01*
X45547D01*
X45626Y17390D01*
Y17783D01*
X46098Y17311D02*
X45783D01*
X46098Y17626D01*
Y17705D01*
X46019Y17783D01*
X45862D01*
X45783Y17705D01*
X43714Y25311D02*
X44107D01*
X44186Y25390D01*
Y25547D01*
X44107Y25626D01*
X43714D01*
X44186Y25783D02*
Y25941D01*
Y25862D01*
X43714D01*
X43792Y25783D01*
X37292Y23751D02*
X37214Y23672D01*
Y23515D01*
X37292Y23436D01*
X37371D01*
X37450Y23515D01*
Y23672D01*
X37529Y23751D01*
X37607D01*
X37686Y23672D01*
Y23515D01*
X37607Y23436D01*
X37214Y23908D02*
X37686D01*
X37529Y24066D01*
X37686Y24223D01*
X37214D01*
X37686Y24381D02*
Y24538D01*
Y24459D01*
X37214D01*
X37292Y24381D01*
X63917Y34626D02*
X63839Y34547D01*
Y34390D01*
X63917Y34311D01*
X63996D01*
X64075Y34390D01*
Y34547D01*
X64154Y34626D01*
X64232D01*
X64311Y34547D01*
Y34390D01*
X64232Y34311D01*
X64311Y34783D02*
X63839D01*
Y35019D01*
X63917Y35098D01*
X64075D01*
X64154Y35019D01*
Y34783D01*
X64311Y35256D02*
Y35413D01*
Y35334D01*
X63839D01*
X63917Y35256D01*
X60186Y28561D02*
Y29033D01*
X60422D01*
X60501Y28955D01*
Y28797D01*
X60422Y28718D01*
X60186D01*
X60343D02*
X60501Y28561D01*
X60658Y29033D02*
Y28561D01*
X60973D01*
X61131D02*
X61288D01*
X61209D01*
Y29033D01*
X61131Y28955D01*
X50811Y24561D02*
X50339D01*
Y24797D01*
X50417Y24876D01*
X50575D01*
X50654Y24797D01*
Y24561D01*
Y24718D02*
X50811Y24876D01*
Y25033D02*
Y25191D01*
Y25112D01*
X50339D01*
X50417Y25033D01*
X50339Y25427D02*
Y25742D01*
X50417D01*
X50732Y25427D01*
X50811D01*
X50436Y30811D02*
Y31283D01*
X50672D01*
X50751Y31205D01*
Y31047D01*
X50672Y30968D01*
X50436D01*
X50593D02*
X50751Y30811D01*
X50908D02*
X51066D01*
X50987D01*
Y31283D01*
X50908Y31205D01*
X51617Y31283D02*
X51459Y31205D01*
X51302Y31047D01*
Y30890D01*
X51381Y30811D01*
X51538D01*
X51617Y30890D01*
Y30968D01*
X51538Y31047D01*
X51302D01*
X15436Y32686D02*
Y33158D01*
X15672D01*
X15751Y33080D01*
Y32922D01*
X15672Y32843D01*
X15436D01*
X15593D02*
X15751Y32686D01*
X15908D02*
X16066D01*
X15987D01*
Y33158D01*
X15908Y33080D01*
X16617Y33158D02*
X16302D01*
Y32922D01*
X16459Y33001D01*
X16538D01*
X16617Y32922D01*
Y32765D01*
X16538Y32686D01*
X16381D01*
X16302Y32765D01*
X55186Y36686D02*
Y37158D01*
X55422D01*
X55501Y37080D01*
Y36922D01*
X55422Y36843D01*
X55186D01*
X55343D02*
X55501Y36686D01*
X55658D02*
X55816D01*
X55737D01*
Y37158D01*
X55658Y37080D01*
X56288Y36686D02*
Y37158D01*
X56052Y36922D01*
X56367D01*
X58311Y29936D02*
Y30408D01*
X58547D01*
X58626Y30330D01*
Y30172D01*
X58547Y30093D01*
X58311D01*
X58468D02*
X58626Y29936D01*
X58783D02*
X58941D01*
X58862D01*
Y30408D01*
X58783Y30330D01*
X59177D02*
X59256Y30408D01*
X59413D01*
X59492Y30330D01*
Y30251D01*
X59413Y30172D01*
X59334D01*
X59413D01*
X59492Y30093D01*
Y30015D01*
X59413Y29936D01*
X59256D01*
X59177Y30015D01*
X50686Y19561D02*
X50214D01*
Y19797D01*
X50292Y19876D01*
X50450D01*
X50529Y19797D01*
Y19561D01*
Y19718D02*
X50686Y19876D01*
Y20033D02*
Y20191D01*
Y20112D01*
X50214D01*
X50292Y20033D01*
X50686Y20742D02*
Y20427D01*
X50371Y20742D01*
X50292D01*
X50214Y20663D01*
Y20506D01*
X50292Y20427D01*
X45811Y16561D02*
Y17033D01*
X46047D01*
X46126Y16955D01*
Y16797D01*
X46047Y16718D01*
X45811D01*
X45968D02*
X46126Y16561D01*
X46283D02*
X46441D01*
X46362D01*
Y17033D01*
X46283Y16955D01*
X46677Y16561D02*
X46834D01*
X46756D01*
Y17033D01*
X46677Y16955D01*
X41115Y16790D02*
Y17262D01*
X41351D01*
X41430Y17184D01*
Y17026D01*
X41351Y16947D01*
X41115D01*
X41272D02*
X41430Y16790D01*
X41587D02*
X41745D01*
X41666D01*
Y17262D01*
X41587Y17184D01*
X41981D02*
X42060Y17262D01*
X42217D01*
X42296Y17184D01*
Y16869D01*
X42217Y16790D01*
X42060D01*
X41981Y16869D01*
Y17184D01*
X50686Y14061D02*
Y14533D01*
X50922D01*
X51001Y14455D01*
Y14297D01*
X50922Y14218D01*
X50686D01*
X50843D02*
X51001Y14061D01*
X51158Y14140D02*
X51237Y14061D01*
X51394D01*
X51473Y14140D01*
Y14455D01*
X51394Y14533D01*
X51237D01*
X51158Y14455D01*
Y14376D01*
X51237Y14297D01*
X51473D01*
X49936Y18311D02*
X49464D01*
Y18547D01*
X49542Y18626D01*
X49700D01*
X49779Y18547D01*
Y18311D01*
Y18468D02*
X49936Y18626D01*
X49542Y18783D02*
X49464Y18862D01*
Y19019D01*
X49542Y19098D01*
X49621D01*
X49700Y19019D01*
X49779Y19098D01*
X49857D01*
X49936Y19019D01*
Y18862D01*
X49857Y18783D01*
X49779D01*
X49700Y18862D01*
X49621Y18783D01*
X49542D01*
X49700Y18862D02*
Y19019D01*
X52561Y19436D02*
X52089D01*
Y19672D01*
X52167Y19751D01*
X52325D01*
X52404Y19672D01*
Y19436D01*
Y19593D02*
X52561Y19751D01*
X52089Y19908D02*
Y20223D01*
X52167D01*
X52482Y19908D01*
X52561D01*
X40186Y18436D02*
Y18908D01*
X40422D01*
X40501Y18830D01*
Y18672D01*
X40422Y18593D01*
X40186D01*
X40343D02*
X40501Y18436D01*
X40973Y18908D02*
X40816Y18830D01*
X40658Y18672D01*
Y18515D01*
X40737Y18436D01*
X40894D01*
X40973Y18515D01*
Y18593D01*
X40894Y18672D01*
X40658D01*
X43811Y20436D02*
Y20908D01*
X44047D01*
X44126Y20830D01*
Y20672D01*
X44047Y20593D01*
X43811D01*
X43968D02*
X44126Y20436D01*
X44598Y20908D02*
X44283D01*
Y20672D01*
X44441Y20751D01*
X44519D01*
X44598Y20672D01*
Y20515D01*
X44519Y20436D01*
X44362D01*
X44283Y20515D01*
X41811Y19561D02*
Y20033D01*
X42047D01*
X42126Y19955D01*
Y19797D01*
X42047Y19718D01*
X41811D01*
X41968D02*
X42126Y19561D01*
X42519D02*
Y20033D01*
X42283Y19797D01*
X42598D01*
X54061Y36311D02*
X53589D01*
Y36547D01*
X53667Y36626D01*
X53825D01*
X53904Y36547D01*
Y36311D01*
Y36468D02*
X54061Y36626D01*
Y37098D02*
Y36783D01*
X53746Y37098D01*
X53667D01*
X53589Y37019D01*
Y36862D01*
X53667Y36783D01*
X54061Y32561D02*
X53589D01*
Y32797D01*
X53667Y32876D01*
X53825D01*
X53904Y32797D01*
Y32561D01*
Y32718D02*
X54061Y32876D01*
Y33033D02*
Y33191D01*
Y33112D01*
X53589D01*
X53667Y33033D01*
X57001Y31765D02*
Y32080D01*
X56922Y32158D01*
X56765D01*
X56686Y32080D01*
Y31765D01*
X56765Y31686D01*
X56922D01*
X56843Y31843D02*
X57001Y31686D01*
X56922D02*
X57001Y31765D01*
X57158Y32080D02*
X57237Y32158D01*
X57394D01*
X57473Y32080D01*
Y32001D01*
X57394Y31922D01*
X57316D01*
X57394D01*
X57473Y31843D01*
Y31765D01*
X57394Y31686D01*
X57237D01*
X57158Y31765D01*
X54001Y20890D02*
Y21205D01*
X53922Y21283D01*
X53765D01*
X53686Y21205D01*
Y20890D01*
X53765Y20811D01*
X53922D01*
X53843Y20968D02*
X54001Y20811D01*
X53922D02*
X54001Y20890D01*
X54473Y20811D02*
X54158D01*
X54473Y21126D01*
Y21205D01*
X54394Y21283D01*
X54237D01*
X54158Y21205D01*
X49839Y28061D02*
X50311D01*
Y28376D01*
X49839Y28848D02*
Y28533D01*
X50311D01*
Y28848D01*
X50075Y28533D02*
Y28691D01*
X49839Y29006D02*
X50311D01*
Y29242D01*
X50232Y29320D01*
X49917D01*
X49839Y29242D01*
Y29006D01*
X49917Y29478D02*
X49839Y29557D01*
Y29714D01*
X49917Y29793D01*
X49996D01*
X50075Y29714D01*
Y29635D01*
Y29714D01*
X50154Y29793D01*
X50232D01*
X50311Y29714D01*
Y29557D01*
X50232Y29478D01*
X49964Y35686D02*
X50436D01*
Y36001D01*
X49964Y36473D02*
Y36158D01*
X50436D01*
Y36473D01*
X50200Y36158D02*
Y36316D01*
X49964Y36631D02*
X50436D01*
Y36867D01*
X50357Y36945D01*
X50042D01*
X49964Y36867D01*
Y36631D01*
X50436Y37418D02*
Y37103D01*
X50121Y37418D01*
X50042D01*
X49964Y37339D01*
Y37182D01*
X50042Y37103D01*
X49839Y32186D02*
X50311D01*
Y32501D01*
X49839Y32973D02*
Y32658D01*
X50311D01*
Y32973D01*
X50075Y32658D02*
Y32816D01*
X49839Y33131D02*
X50311D01*
Y33367D01*
X50232Y33445D01*
X49917D01*
X49839Y33367D01*
Y33131D01*
X50311Y33603D02*
Y33760D01*
Y33682D01*
X49839D01*
X49917Y33603D01*
X28214Y20311D02*
Y20468D01*
Y20390D01*
X28686D01*
Y20311D01*
Y20468D01*
X28292Y21019D02*
X28214Y20941D01*
Y20783D01*
X28292Y20705D01*
X28607D01*
X28686Y20783D01*
Y20941D01*
X28607Y21019D01*
X28214Y21177D02*
Y21492D01*
X28292D01*
X28607Y21177D01*
X28686D01*
X21630Y17908D02*
X21787D01*
X21709D01*
Y17436D01*
X21630D01*
X21787D01*
X22338Y17830D02*
X22260Y17908D01*
X22102D01*
X22023Y17830D01*
Y17515D01*
X22102Y17436D01*
X22260D01*
X22338Y17515D01*
X22811Y17908D02*
X22653Y17830D01*
X22496Y17672D01*
Y17515D01*
X22575Y17436D01*
X22732D01*
X22811Y17515D01*
Y17593D01*
X22732Y17672D01*
X22496D01*
X20714Y37311D02*
Y37468D01*
Y37390D01*
X21186D01*
Y37311D01*
Y37468D01*
X20792Y38019D02*
X20714Y37941D01*
Y37783D01*
X20792Y37705D01*
X21107D01*
X21186Y37783D01*
Y37941D01*
X21107Y38019D01*
X20714Y38492D02*
Y38177D01*
X20950D01*
X20871Y38334D01*
Y38413D01*
X20950Y38492D01*
X21107D01*
X21186Y38413D01*
Y38256D01*
X21107Y38177D01*
X16505Y36158D02*
X16662D01*
X16584D01*
Y35686D01*
X16505D01*
X16662D01*
X17213Y36080D02*
X17135Y36158D01*
X16977D01*
X16898Y36080D01*
Y35765D01*
X16977Y35686D01*
X17135D01*
X17213Y35765D01*
X17607Y35686D02*
Y36158D01*
X17371Y35922D01*
X17686D01*
X49214Y15686D02*
Y15843D01*
Y15765D01*
X49686D01*
Y15686D01*
Y15843D01*
X49292Y16394D02*
X49214Y16316D01*
Y16158D01*
X49292Y16080D01*
X49607D01*
X49686Y16158D01*
Y16316D01*
X49607Y16394D01*
X49686Y16867D02*
Y16552D01*
X49371Y16867D01*
X49292D01*
X49214Y16788D01*
Y16631D01*
X49292Y16552D01*
X54964Y15811D02*
Y15968D01*
Y15890D01*
X55436D01*
Y15811D01*
Y15968D01*
X55042Y16519D02*
X54964Y16441D01*
Y16283D01*
X55042Y16205D01*
X55357D01*
X55436Y16283D01*
Y16441D01*
X55357Y16519D01*
X55436Y16677D02*
Y16834D01*
Y16756D01*
X54964D01*
X55042Y16677D01*
X64839Y19061D02*
X65311D01*
X65075D01*
Y19376D01*
X64839D01*
X65311D01*
X64839Y19533D02*
X65311D01*
Y19769D01*
X65232Y19848D01*
X64917D01*
X64839Y19769D01*
Y19533D01*
X65311Y20006D02*
Y20163D01*
Y20084D01*
X64839D01*
X64917Y20006D01*
Y20399D02*
X64839Y20478D01*
Y20635D01*
X64917Y20714D01*
X65232D01*
X65311Y20635D01*
Y20478D01*
X65232Y20399D01*
X64917D01*
X12390Y29152D02*
Y28680D01*
Y28916D01*
X12705D01*
Y29152D01*
Y28680D01*
X12862Y29152D02*
Y28680D01*
X13098D01*
X13177Y28759D01*
Y29074D01*
X13098Y29152D01*
X12862D01*
X13335Y28759D02*
X13413Y28680D01*
X13571D01*
X13649Y28759D01*
Y29074D01*
X13571Y29152D01*
X13413D01*
X13335Y29074D01*
Y28995D01*
X13413Y28916D01*
X13649D01*
X64714Y30061D02*
X65186D01*
X64950D01*
Y30376D01*
X64714D01*
X65186D01*
X64714Y30533D02*
X65186D01*
Y30769D01*
X65107Y30848D01*
X64792D01*
X64714Y30769D01*
Y30533D01*
X64792Y31006D02*
X64714Y31084D01*
Y31242D01*
X64792Y31320D01*
X64871D01*
X64950Y31242D01*
X65029Y31320D01*
X65107D01*
X65186Y31242D01*
Y31084D01*
X65107Y31006D01*
X65029D01*
X64950Y31084D01*
X64871Y31006D01*
X64792D01*
X64950Y31084D02*
Y31242D01*
X34436Y36533D02*
Y36061D01*
Y36297D01*
X34751D01*
Y36533D01*
Y36061D01*
X34908Y36533D02*
Y36061D01*
X35144D01*
X35223Y36140D01*
Y36455D01*
X35144Y36533D01*
X34908D01*
X35695D02*
X35381D01*
Y36297D01*
X35538Y36376D01*
X35617D01*
X35695Y36297D01*
Y36140D01*
X35617Y36061D01*
X35459D01*
X35381Y36140D01*
X34561Y33158D02*
Y32686D01*
Y32922D01*
X34876D01*
Y33158D01*
Y32686D01*
X35033Y33158D02*
Y32686D01*
X35269D01*
X35348Y32765D01*
Y33080D01*
X35269Y33158D01*
X35033D01*
X35742Y32686D02*
Y33158D01*
X35506Y32922D01*
X35820D01*
X18464Y23001D02*
Y22686D01*
X18700D01*
Y22843D01*
Y22686D01*
X18936D01*
Y23158D02*
Y23316D01*
Y23237D01*
X18464D01*
X18542Y23158D01*
X52839Y27936D02*
X53311D01*
Y28172D01*
X53232Y28251D01*
X52917D01*
X52839Y28172D01*
Y27936D01*
X53311Y28723D02*
Y28408D01*
X52996Y28723D01*
X52917D01*
X52839Y28644D01*
Y28487D01*
X52917Y28408D01*
X14839Y22686D02*
X15311D01*
Y22922D01*
X15232Y23001D01*
X14917D01*
X14839Y22922D01*
Y22686D01*
X15311Y23158D02*
Y23316D01*
Y23237D01*
X14839D01*
X14917Y23158D01*
X34792Y17751D02*
X34714Y17672D01*
Y17515D01*
X34792Y17436D01*
X35107D01*
X35186Y17515D01*
Y17672D01*
X35107Y17751D01*
X35186Y18223D02*
Y17908D01*
X34871Y18223D01*
X34792D01*
X34714Y18144D01*
Y17987D01*
X34792Y17908D01*
X35186Y18695D02*
Y18381D01*
X34871Y18695D01*
X34792D01*
X34714Y18617D01*
Y18459D01*
X34792Y18381D01*
X27611Y19251D02*
X27533Y19172D01*
Y19015D01*
X27611Y18936D01*
X27926D01*
X28005Y19015D01*
Y19172D01*
X27926Y19251D01*
X28005Y19723D02*
Y19408D01*
X27690Y19723D01*
X27611D01*
X27533Y19644D01*
Y19487D01*
X27611Y19408D01*
X28005Y19881D02*
Y20038D01*
Y19959D01*
X27533D01*
X27611Y19881D01*
X21792Y15626D02*
X21714Y15547D01*
Y15390D01*
X21792Y15311D01*
X22107D01*
X22186Y15390D01*
Y15547D01*
X22107Y15626D01*
X22186Y16098D02*
Y15783D01*
X21871Y16098D01*
X21792D01*
X21714Y16019D01*
Y15862D01*
X21792Y15783D01*
Y16256D02*
X21714Y16334D01*
Y16492D01*
X21792Y16570D01*
X22107D01*
X22186Y16492D01*
Y16334D01*
X22107Y16256D01*
X21792D01*
X32917Y13876D02*
X32839Y13797D01*
Y13640D01*
X32917Y13561D01*
X33232D01*
X33311Y13640D01*
Y13797D01*
X33232Y13876D01*
X33311Y14033D02*
Y14191D01*
Y14112D01*
X32839D01*
X32917Y14033D01*
X33232Y14427D02*
X33311Y14506D01*
Y14663D01*
X33232Y14742D01*
X32917D01*
X32839Y14663D01*
Y14506D01*
X32917Y14427D01*
X32996D01*
X33075Y14506D01*
Y14742D01*
X28667Y15501D02*
X28589Y15422D01*
Y15265D01*
X28667Y15186D01*
X28982D01*
X29061Y15265D01*
Y15422D01*
X28982Y15501D01*
X29061Y15658D02*
Y15816D01*
Y15737D01*
X28589D01*
X28667Y15658D01*
Y16052D02*
X28589Y16131D01*
Y16288D01*
X28667Y16367D01*
X28746D01*
X28825Y16288D01*
X28904Y16367D01*
X28982D01*
X29061Y16288D01*
Y16131D01*
X28982Y16052D01*
X28904D01*
X28825Y16131D01*
X28746Y16052D01*
X28667D01*
X28825Y16131D02*
Y16288D01*
X25667Y14626D02*
X25589Y14547D01*
Y14390D01*
X25667Y14311D01*
X25982D01*
X26061Y14390D01*
Y14547D01*
X25982Y14626D01*
X26061Y14783D02*
Y14941D01*
Y14862D01*
X25589D01*
X25667Y14783D01*
X25589Y15177D02*
Y15492D01*
X25667D01*
X25982Y15177D01*
X26061D01*
X28501Y26830D02*
X28422Y26908D01*
X28265D01*
X28186Y26830D01*
Y26515D01*
X28265Y26436D01*
X28422D01*
X28501Y26515D01*
X28658Y26436D02*
X28816D01*
X28737D01*
Y26908D01*
X28658Y26830D01*
X29367Y26908D02*
X29209Y26830D01*
X29052Y26672D01*
Y26515D01*
X29131Y26436D01*
X29288D01*
X29367Y26515D01*
Y26593D01*
X29288Y26672D01*
X29052D01*
X26542Y35876D02*
X26464Y35797D01*
Y35640D01*
X26542Y35561D01*
X26857D01*
X26936Y35640D01*
Y35797D01*
X26857Y35876D01*
X26936Y36033D02*
Y36191D01*
Y36112D01*
X26464D01*
X26542Y36033D01*
X26464Y36742D02*
Y36427D01*
X26700D01*
X26621Y36584D01*
Y36663D01*
X26700Y36742D01*
X26857D01*
X26936Y36663D01*
Y36506D01*
X26857Y36427D01*
X20486Y35876D02*
X20408Y35797D01*
Y35640D01*
X20486Y35561D01*
X20801D01*
X20880Y35640D01*
Y35797D01*
X20801Y35876D01*
X20880Y36033D02*
Y36191D01*
Y36112D01*
X20408D01*
X20486Y36033D01*
X20880Y36663D02*
X20408D01*
X20644Y36427D01*
Y36742D01*
X12486Y34501D02*
X12408Y34422D01*
Y34265D01*
X12486Y34186D01*
X12801D01*
X12880Y34265D01*
Y34422D01*
X12801Y34501D01*
X12880Y34658D02*
Y34816D01*
Y34737D01*
X12408D01*
X12486Y34658D01*
Y35052D02*
X12408Y35131D01*
Y35288D01*
X12486Y35367D01*
X12565D01*
X12644Y35288D01*
Y35209D01*
Y35288D01*
X12722Y35367D01*
X12801D01*
X12880Y35288D01*
Y35131D01*
X12801Y35052D01*
X26792Y30876D02*
X26714Y30797D01*
Y30640D01*
X26792Y30561D01*
X27107D01*
X27186Y30640D01*
Y30797D01*
X27107Y30876D01*
X27186Y31033D02*
Y31191D01*
Y31112D01*
X26714D01*
X26792Y31033D01*
X27186Y31742D02*
Y31427D01*
X26871Y31742D01*
X26792D01*
X26714Y31663D01*
Y31506D01*
X26792Y31427D01*
X21292Y31251D02*
X21214Y31172D01*
Y31015D01*
X21292Y30936D01*
X21607D01*
X21686Y31015D01*
Y31172D01*
X21607Y31251D01*
X21686Y31408D02*
Y31566D01*
Y31487D01*
X21214D01*
X21292Y31408D01*
X21686Y31802D02*
Y31959D01*
Y31881D01*
X21214D01*
X21292Y31802D01*
X14361Y33501D02*
X14283Y33422D01*
Y33265D01*
X14361Y33186D01*
X14676D01*
X14755Y33265D01*
Y33422D01*
X14676Y33501D01*
X14755Y33658D02*
Y33816D01*
Y33737D01*
X14283D01*
X14361Y33658D01*
Y34052D02*
X14283Y34131D01*
Y34288D01*
X14361Y34367D01*
X14676D01*
X14755Y34288D01*
Y34131D01*
X14676Y34052D01*
X14361D01*
X54792Y18501D02*
X54714Y18422D01*
Y18265D01*
X54792Y18186D01*
X55107D01*
X55186Y18265D01*
Y18422D01*
X55107Y18501D01*
X54792Y18658D02*
X54714Y18737D01*
Y18894D01*
X54792Y18973D01*
X54871D01*
X54950Y18894D01*
X55029Y18973D01*
X55107D01*
X55186Y18894D01*
Y18737D01*
X55107Y18658D01*
X55029D01*
X54950Y18737D01*
X54871Y18658D01*
X54792D01*
X54950Y18737D02*
Y18894D01*
X48501Y17580D02*
X48422Y17658D01*
X48265D01*
X48186Y17580D01*
Y17265D01*
X48265Y17186D01*
X48422D01*
X48501Y17265D01*
X48658Y17658D02*
X48973D01*
Y17580D01*
X48658Y17265D01*
Y17186D01*
X47001Y19580D02*
X46922Y19658D01*
X46765D01*
X46686Y19580D01*
Y19265D01*
X46765Y19186D01*
X46922D01*
X47001Y19265D01*
X47473Y19658D02*
X47158D01*
Y19422D01*
X47316Y19501D01*
X47394D01*
X47473Y19422D01*
Y19265D01*
X47394Y19186D01*
X47237D01*
X47158Y19265D01*
X45792Y22251D02*
X45714Y22172D01*
Y22015D01*
X45792Y21936D01*
X46107D01*
X46186Y22015D01*
Y22172D01*
X46107Y22251D01*
X46186Y22644D02*
X45714D01*
X45950Y22408D01*
Y22723D01*
D11*
X41547Y23012D02*
G03*
X40047Y23005I-750J-5D01*
G01*
Y20875D02*
G03*
X41547Y20882I750J5D01*
G01*
X40047Y20892D02*
Y22992D01*
X41547Y20882D02*
Y22982D01*
X40427Y21722D02*
X41177D01*
X40787Y21422D02*
Y21722D01*
X40437Y22132D02*
X41177D01*
X40787D02*
Y22442D01*
D12*
X47170Y17786D02*
X47207D01*
X47165Y17086D02*
X47202D01*
X13211Y34795D02*
Y34832D01*
X13911Y34790D02*
Y34827D01*
X19586Y34795D02*
Y34832D01*
X20286Y34790D02*
Y34827D01*
X25836Y34795D02*
Y34832D01*
X26536Y34790D02*
Y34827D01*
X22286Y14290D02*
Y14327D01*
X21586Y14295D02*
Y14332D01*
X27405Y17920D02*
Y17957D01*
X28105Y17915D02*
Y17952D01*
X33711Y18045D02*
Y18082D01*
X34411Y18040D02*
Y18077D01*
X46286Y20915D02*
Y20952D01*
X45586Y20920D02*
Y20957D01*
D13*
X58060Y17751D02*
X62040D01*
X58030Y17741D02*
X62070D01*
X58010Y17731D02*
X62090D01*
X58000Y17721D02*
X62100D01*
X57980Y17711D02*
X62110D01*
X57970Y17701D02*
X62130D01*
X57960Y17691D02*
X62130D01*
X57960Y17681D02*
X58120D01*
X61980D02*
X62140D01*
X57950Y17671D02*
X58070D01*
X62030D02*
X62150D01*
X57940Y17661D02*
X58050D01*
X62050D02*
X62160D01*
X57940Y17651D02*
X58040D01*
X62060D02*
X62160D01*
X57930Y17641D02*
X58030D01*
X62070D02*
X62170D01*
X57930Y17631D02*
X58020D01*
X62080D02*
X62170D01*
X57930Y17621D02*
X58010D01*
X61680D02*
X61730D01*
X62090D02*
X62170D01*
X57920Y17611D02*
X58010D01*
X61670D02*
X61740D01*
X62090D02*
X62180D01*
X57920Y17601D02*
X58000D01*
X61670D02*
X61740D01*
X62100D02*
X62180D01*
X57920Y17591D02*
X58000D01*
X61660D02*
X61750D01*
X62100D02*
X62180D01*
X57920Y17581D02*
X58000D01*
X61660D02*
X61750D01*
X62100D02*
X62180D01*
X57910Y17571D02*
X58000D01*
X61650D02*
X61760D01*
X62100D02*
X62180D01*
X57910Y17561D02*
X58000D01*
X61650D02*
X61760D01*
X62110D02*
X62180D01*
X57910Y17551D02*
X57990D01*
X61650D02*
X61770D01*
X62110D02*
X62180D01*
X57920Y17541D02*
X57990D01*
X61640D02*
X61770D01*
X62110D02*
X62180D01*
X57920Y17531D02*
X57990D01*
X61640D02*
X61770D01*
X62110D02*
X62180D01*
X57920Y17521D02*
X57990D01*
X61630D02*
X61780D01*
X62110D02*
X62180D01*
X57920Y17511D02*
X57990D01*
X61630D02*
X61780D01*
X62110D02*
X62180D01*
X57920Y17501D02*
X57990D01*
X61620D02*
X61790D01*
X62110D02*
X62180D01*
X57920Y17491D02*
X57990D01*
X61620D02*
X61790D01*
X62110D02*
X62180D01*
X57920Y17481D02*
X57990D01*
X61450D02*
X61700D01*
X61710D02*
X61960D01*
X62110D02*
X62180D01*
X57920Y17471D02*
X57990D01*
X61430D02*
X61700D01*
X61710D02*
X61980D01*
X62110D02*
X62180D01*
X57920Y17461D02*
X57990D01*
X61420D02*
X61690D01*
X61720D02*
X61990D01*
X62110D02*
X62180D01*
X57920Y17451D02*
X57990D01*
X61420D02*
X61690D01*
X61720D02*
X61990D01*
X62110D02*
X62180D01*
X57920Y17441D02*
X57990D01*
X61420D02*
X61690D01*
X61720D02*
X61990D01*
X62110D02*
X62180D01*
X57920Y17431D02*
X57990D01*
X61420D02*
X61680D01*
X61730D02*
X61990D01*
X62110D02*
X62180D01*
X57920Y17421D02*
X57990D01*
X61420D02*
X61670D01*
X61740D02*
X61990D01*
X62110D02*
X62180D01*
X57920Y17411D02*
X57990D01*
X61430D02*
X61660D01*
X61750D02*
X61980D01*
X62110D02*
X62180D01*
X57920Y17401D02*
X57990D01*
X61450D02*
X61610D01*
X61800D02*
X61960D01*
X62110D02*
X62180D01*
X57920Y17391D02*
X57990D01*
X61460D02*
X61620D01*
X61790D02*
X61950D01*
X62110D02*
X62180D01*
X57920Y17381D02*
X57990D01*
X61480D02*
X61640D01*
X61780D02*
X61930D01*
X62110D02*
X62180D01*
X57920Y17371D02*
X57990D01*
X61500D02*
X61640D01*
X61770D02*
X61910D01*
X62110D02*
X62180D01*
X57920Y17361D02*
X57990D01*
X60870D02*
X60950D01*
X61520D02*
X61640D01*
X61770D02*
X61900D01*
X62110D02*
X62180D01*
X57920Y17351D02*
X57990D01*
X59020D02*
X59150D01*
X60250D02*
X60390D01*
X60840D02*
X60970D01*
X61530D02*
X61640D01*
X61770D02*
X61880D01*
X62110D02*
X62180D01*
X57920Y17341D02*
X57990D01*
X58340D02*
X58540D01*
X58970D02*
X59190D01*
X59550D02*
X59830D01*
X60200D02*
X60430D01*
X60820D02*
X60980D01*
X61190D02*
X61380D01*
X61550D02*
X61640D01*
X61770D02*
X61860D01*
X62110D02*
X62180D01*
X57920Y17331D02*
X57990D01*
X58340D02*
X58540D01*
X58940D02*
X59210D01*
X59520D02*
X59820D01*
X60170D02*
X60460D01*
X60810D02*
X60990D01*
X61190D02*
X61380D01*
X61550D02*
X61640D01*
X61690D02*
X61720D01*
X61770D02*
X61860D01*
X62110D02*
X62180D01*
X57920Y17321D02*
X57990D01*
X58330D02*
X58530D01*
X58920D02*
X59220D01*
X59490D02*
X59820D01*
X60140D02*
X60480D01*
X60800D02*
X61000D01*
X61180D02*
X61380D01*
X61550D02*
X61630D01*
X61670D02*
X61740D01*
X61780D02*
X61860D01*
X62110D02*
X62180D01*
X57920Y17311D02*
X57990D01*
X58330D02*
X58530D01*
X58900D02*
X59230D01*
X59470D02*
X59820D01*
X60120D02*
X60490D01*
X60790D02*
X61010D01*
X61180D02*
X61380D01*
X61550D02*
X61630D01*
X61650D02*
X61760D01*
X61780D02*
X61860D01*
X62110D02*
X62180D01*
X57920Y17301D02*
X57990D01*
X58330D02*
X58530D01*
X58890D02*
X59240D01*
X59450D02*
X59810D01*
X60100D02*
X60510D01*
X60780D02*
X61010D01*
X61180D02*
X61380D01*
X61540D02*
X61870D01*
X62110D02*
X62180D01*
X57920Y17291D02*
X57990D01*
X58320D02*
X58520D01*
X58870D02*
X59250D01*
X59430D02*
X59810D01*
X60080D02*
X60520D01*
X60770D02*
X61010D01*
X61170D02*
X61370D01*
X61540D02*
X61870D01*
X62110D02*
X62180D01*
X57920Y17281D02*
X57990D01*
X58320D02*
X58520D01*
X58860D02*
X59260D01*
X59420D02*
X59810D01*
X60060D02*
X60530D01*
X60770D02*
X61020D01*
X61170D02*
X61370D01*
X61530D02*
X61880D01*
X62110D02*
X62180D01*
X57920Y17271D02*
X57990D01*
X58320D02*
X58520D01*
X58850D02*
X59260D01*
X59410D02*
X59800D01*
X60050D02*
X60540D01*
X60760D02*
X61020D01*
X61170D02*
X61370D01*
X61530D02*
X61880D01*
X62110D02*
X62180D01*
X57920Y17261D02*
X57990D01*
X58310D02*
X58510D01*
X58830D02*
X59270D01*
X59400D02*
X59800D01*
X60030D02*
X60550D01*
X60760D02*
X61020D01*
X61160D02*
X61360D01*
X61530D02*
X61880D01*
X62110D02*
X62180D01*
X57920Y17251D02*
X57990D01*
X58310D02*
X58510D01*
X58820D02*
X59270D01*
X59390D02*
X59800D01*
X60020D02*
X60560D01*
X60760D02*
X61020D01*
X61160D02*
X61360D01*
X61520D02*
X61890D01*
X62110D02*
X62180D01*
X57920Y17241D02*
X57990D01*
X58300D02*
X58510D01*
X58810D02*
X59280D01*
X59380D02*
X59790D01*
X60010D02*
X60560D01*
X60750D02*
X61020D01*
X61160D02*
X61360D01*
X61520D02*
X61690D01*
X61720D02*
X61890D01*
X62110D02*
X62180D01*
X57920Y17231D02*
X57990D01*
X58300D02*
X58500D01*
X58810D02*
X59280D01*
X59370D02*
X59790D01*
X59990D02*
X60570D01*
X60750D02*
X61030D01*
X61150D02*
X61350D01*
X61520D02*
X61670D01*
X61740D02*
X61900D01*
X62110D02*
X62180D01*
X57920Y17221D02*
X57990D01*
X58300D02*
X58500D01*
X58800D02*
X59280D01*
X59360D02*
X59790D01*
X59980D02*
X60570D01*
X60750D02*
X61030D01*
X61150D02*
X61350D01*
X61510D02*
X61650D01*
X61760D02*
X61900D01*
X62110D02*
X62180D01*
X57920Y17211D02*
X57990D01*
X58290D02*
X58500D01*
X58790D02*
X59280D01*
X59350D02*
X59780D01*
X59970D02*
X60580D01*
X60740D02*
X61030D01*
X61150D02*
X61350D01*
X61510D02*
X61640D01*
X61780D02*
X61900D01*
X62110D02*
X62180D01*
X57920Y17201D02*
X57990D01*
X58290D02*
X58490D01*
X58780D02*
X59280D01*
X59350D02*
X59780D01*
X59960D02*
X60580D01*
X60740D02*
X61030D01*
X61140D02*
X61340D01*
X61510D02*
X61620D01*
X61790D02*
X61900D01*
X62110D02*
X62180D01*
X57920Y17191D02*
X57990D01*
X58290D02*
X58490D01*
X58780D02*
X59280D01*
X59340D02*
X59780D01*
X59950D02*
X60590D01*
X60740D02*
X61030D01*
X61140D02*
X61340D01*
X61520D02*
X61600D01*
X61810D02*
X61890D01*
X62110D02*
X62180D01*
X57920Y17181D02*
X57990D01*
X58280D02*
X58490D01*
X58770D02*
X58990D01*
X59040D02*
X59280D01*
X59340D02*
X59770D01*
X59940D02*
X60590D01*
X60730D02*
X61030D01*
X61140D02*
X61340D01*
X61520D02*
X61580D01*
X61830D02*
X61890D01*
X62110D02*
X62180D01*
X57920Y17171D02*
X57990D01*
X58280D02*
X58480D01*
X58760D02*
X58980D01*
X59060D02*
X59280D01*
X59330D02*
X59560D01*
X59930D02*
X60590D01*
X60730D02*
X61030D01*
X61130D02*
X61330D01*
X62110D02*
X62180D01*
X57920Y17161D02*
X57990D01*
X58280D02*
X58480D01*
X58760D02*
X58970D01*
X59060D02*
X59280D01*
X59330D02*
X59540D01*
X59920D02*
X60220D01*
X60290D02*
X60600D01*
X60720D02*
X61040D01*
X61130D02*
X61330D01*
X62110D02*
X62180D01*
X57920Y17151D02*
X57990D01*
X58270D02*
X58480D01*
X58750D02*
X58960D01*
X59070D02*
X59280D01*
X59320D02*
X59530D01*
X59910D02*
X60190D01*
X60320D02*
X60600D01*
X60720D02*
X61040D01*
X61130D02*
X61330D01*
X62110D02*
X62180D01*
X57920Y17141D02*
X57990D01*
X58270D02*
X58470D01*
X58750D02*
X58950D01*
X59070D02*
X59280D01*
X59320D02*
X59530D01*
X59900D02*
X60160D01*
X60340D02*
X60600D01*
X60720D02*
X61040D01*
X61120D02*
X61320D01*
X62110D02*
X62180D01*
X57920Y17131D02*
X57990D01*
X58270D02*
X58470D01*
X58740D02*
X58940D01*
X59070D02*
X59270D01*
X59320D02*
X59530D01*
X59890D02*
X60140D01*
X60350D02*
X60600D01*
X60710D02*
X61040D01*
X61120D02*
X61320D01*
X62110D02*
X62180D01*
X57920Y17121D02*
X57990D01*
X58260D02*
X58470D01*
X58740D02*
X58940D01*
X59070D02*
X59270D01*
X59310D02*
X59530D01*
X59880D02*
X60130D01*
X60360D02*
X60600D01*
X60710D02*
X61040D01*
X61120D02*
X61320D01*
X62110D02*
X62180D01*
X57920Y17111D02*
X57990D01*
X58260D02*
X58460D01*
X58730D02*
X58930D01*
X59070D02*
X59270D01*
X59310D02*
X59530D01*
X59880D02*
X60110D01*
X60370D02*
X60600D01*
X60710D02*
X61040D01*
X61110D02*
X61310D01*
X62110D02*
X62180D01*
X57920Y17101D02*
X57990D01*
X58260D02*
X58460D01*
X58730D02*
X58930D01*
X59070D02*
X59260D01*
X59310D02*
X59540D01*
X59870D02*
X60100D01*
X60370D02*
X60600D01*
X60700D02*
X61050D01*
X61110D02*
X61310D01*
X62110D02*
X62180D01*
X57920Y17091D02*
X57990D01*
X58250D02*
X58450D01*
X58720D02*
X58930D01*
X59060D02*
X59260D01*
X59310D02*
X59550D01*
X59860D02*
X60090D01*
X60380D02*
X60600D01*
X60700D02*
X61050D01*
X61110D02*
X61310D01*
X62110D02*
X62180D01*
X57920Y17081D02*
X57990D01*
X58250D02*
X58450D01*
X58720D02*
X58920D01*
X59060D02*
X59260D01*
X59310D02*
X59570D01*
X59860D02*
X60080D01*
X60380D02*
X60600D01*
X60700D02*
X61050D01*
X61100D02*
X61300D01*
X62110D02*
X62180D01*
X57920Y17071D02*
X57990D01*
X58250D02*
X58450D01*
X58720D02*
X58920D01*
X59050D02*
X59250D01*
X59310D02*
X59580D01*
X59850D02*
X60070D01*
X60380D02*
X60600D01*
X60690D02*
X61050D01*
X61100D02*
X61300D01*
X62110D02*
X62180D01*
X57920Y17061D02*
X57990D01*
X58240D02*
X58440D01*
X58710D02*
X58920D01*
X59040D02*
X59250D01*
X59310D02*
X59590D01*
X59840D02*
X60060D01*
X60390D02*
X60600D01*
X60690D02*
X61050D01*
X61100D02*
X61300D01*
X62110D02*
X62180D01*
X57920Y17051D02*
X57990D01*
X58240D02*
X58440D01*
X58710D02*
X58910D01*
X59030D02*
X59240D01*
X59310D02*
X59600D01*
X59840D02*
X60050D01*
X60390D02*
X60600D01*
X60690D02*
X61050D01*
X61090D02*
X61290D01*
X62110D02*
X62180D01*
X57920Y17041D02*
X57990D01*
X58240D02*
X58440D01*
X58710D02*
X58910D01*
X59020D02*
X59240D01*
X59310D02*
X59610D01*
X59830D02*
X60050D01*
X60390D02*
X60600D01*
X60680D02*
X61060D01*
X61090D02*
X61290D01*
X62110D02*
X62180D01*
X57920Y17031D02*
X57990D01*
X58230D02*
X58430D01*
X58700D02*
X58910D01*
X59000D02*
X59230D01*
X59320D02*
X59620D01*
X59830D02*
X60040D01*
X60390D02*
X60600D01*
X60680D02*
X61060D01*
X61090D02*
X61290D01*
X62110D02*
X62180D01*
X57920Y17021D02*
X57990D01*
X58230D02*
X58430D01*
X58700D02*
X58900D01*
X58960D02*
X59230D01*
X59320D02*
X59630D01*
X59820D02*
X60030D01*
X60390D02*
X60600D01*
X60680D02*
X61060D01*
X61080D02*
X61280D01*
X62110D02*
X62180D01*
X57920Y17011D02*
X57990D01*
X58230D02*
X58430D01*
X58700D02*
X58900D01*
X58910D02*
X59220D01*
X59320D02*
X59640D01*
X59820D02*
X60030D01*
X60390D02*
X60590D01*
X60670D02*
X61060D01*
X61080D02*
X61280D01*
X62110D02*
X62180D01*
X57920Y17001D02*
X57990D01*
X58220D02*
X58420D01*
X58690D02*
X58900D01*
X58910D02*
X59210D01*
X59330D02*
X59650D01*
X59820D02*
X60020D01*
X60390D02*
X60590D01*
X60670D02*
X60870D01*
X60880D02*
X61060D01*
X61080D02*
X61280D01*
X62110D02*
X62180D01*
X57920Y16991D02*
X57990D01*
X58220D02*
X58420D01*
X58690D02*
X58890D01*
X58910D02*
X59210D01*
X59340D02*
X59660D01*
X59810D02*
X60020D01*
X60380D02*
X60590D01*
X60670D02*
X60870D01*
X60880D02*
X61060D01*
X61070D02*
X61270D01*
X62110D02*
X62180D01*
X57920Y16981D02*
X57990D01*
X58220D02*
X58420D01*
X58690D02*
X58890D01*
X58900D02*
X59200D01*
X59340D02*
X59670D01*
X59810D02*
X60010D01*
X60380D02*
X60580D01*
X60660D02*
X60860D01*
X60880D02*
X61270D01*
X62110D02*
X62180D01*
X57920Y16971D02*
X57990D01*
X58210D02*
X58410D01*
X58680D02*
X58890D01*
X58900D02*
X59190D01*
X59350D02*
X59680D01*
X59810D02*
X60010D01*
X60380D02*
X60580D01*
X60660D02*
X60860D01*
X60880D02*
X61270D01*
X62110D02*
X62180D01*
X57920Y16961D02*
X57990D01*
X58210D02*
X58410D01*
X58680D02*
X58880D01*
X58900D02*
X59180D01*
X59360D02*
X59680D01*
X59800D02*
X60010D01*
X60370D02*
X60580D01*
X60660D02*
X60860D01*
X60880D02*
X61260D01*
X62110D02*
X62180D01*
X57920Y16951D02*
X57990D01*
X58210D02*
X58410D01*
X58680D02*
X58880D01*
X58890D02*
X59170D01*
X59370D02*
X59690D01*
X59800D02*
X60010D01*
X60370D02*
X60570D01*
X60650D02*
X60850D01*
X60880D02*
X61260D01*
X62110D02*
X62180D01*
X57920Y16941D02*
X57990D01*
X58200D02*
X58400D01*
X58670D02*
X58880D01*
X58890D02*
X59160D01*
X59380D02*
X59690D01*
X59800D02*
X60000D01*
X60370D02*
X60570D01*
X60650D02*
X60850D01*
X60890D02*
X61260D01*
X62110D02*
X62180D01*
X57920Y16931D02*
X57990D01*
X58200D02*
X58400D01*
X58670D02*
X58870D01*
X58890D02*
X59150D01*
X59390D02*
X59700D01*
X59800D02*
X60000D01*
X60360D02*
X60560D01*
X60650D02*
X60850D01*
X60890D02*
X61250D01*
X62110D02*
X62180D01*
X57920Y16921D02*
X57990D01*
X58200D02*
X58400D01*
X58670D02*
X58870D01*
X58880D02*
X59140D01*
X59400D02*
X59700D01*
X59790D02*
X60000D01*
X60350D02*
X60560D01*
X60640D02*
X60840D01*
X60890D02*
X61250D01*
X62110D02*
X62180D01*
X57920Y16911D02*
X57990D01*
X58190D02*
X58390D01*
X58660D02*
X58870D01*
X58880D02*
X59130D01*
X59410D02*
X59700D01*
X59790D02*
X60000D01*
X60350D02*
X60550D01*
X60640D02*
X60840D01*
X60890D02*
X61250D01*
X62110D02*
X62180D01*
X57920Y16901D02*
X57990D01*
X58190D02*
X58390D01*
X58660D02*
X58860D01*
X58880D02*
X59110D01*
X59420D02*
X59710D01*
X59790D02*
X60000D01*
X60340D02*
X60550D01*
X60640D02*
X60840D01*
X60890D02*
X61240D01*
X62110D02*
X62180D01*
X57920Y16891D02*
X57990D01*
X58190D02*
X58390D01*
X58660D02*
X58860D01*
X58870D02*
X59090D01*
X59430D02*
X59710D01*
X59790D02*
X60000D01*
X60330D02*
X60540D01*
X60630D02*
X60830D01*
X60890D02*
X61240D01*
X62110D02*
X62180D01*
X57920Y16881D02*
X57990D01*
X58180D02*
X58380D01*
X58650D02*
X58860D01*
X58870D02*
X59080D01*
X59440D02*
X59710D01*
X59790D02*
X60000D01*
X60320D02*
X60540D01*
X60630D02*
X60830D01*
X60900D02*
X61230D01*
X62110D02*
X62180D01*
X57920Y16871D02*
X57990D01*
X58180D02*
X58380D01*
X58650D02*
X58850D01*
X58870D02*
X59060D01*
X59450D02*
X59710D01*
X59790D02*
X60000D01*
X60310D02*
X60530D01*
X60630D02*
X60830D01*
X60900D02*
X61230D01*
X62110D02*
X62180D01*
X57920Y16861D02*
X57990D01*
X58180D02*
X58380D01*
X58650D02*
X58850D01*
X58860D02*
X59030D01*
X59460D02*
X59710D01*
X59790D02*
X60010D01*
X60300D02*
X60520D01*
X60620D02*
X60820D01*
X60900D02*
X61230D01*
X62110D02*
X62180D01*
X57920Y16851D02*
X57990D01*
X58170D02*
X58370D01*
X58640D02*
X58850D01*
X58860D02*
X59000D01*
X59470D02*
X59700D01*
X59790D02*
X60010D01*
X60290D02*
X60520D01*
X60620D02*
X60820D01*
X60900D02*
X61220D01*
X62110D02*
X62180D01*
X57920Y16841D02*
X57990D01*
X58170D02*
X58370D01*
X58640D02*
X58840D01*
X58860D02*
X58870D01*
X58900D02*
X58920D01*
X59470D02*
X59700D01*
X59790D02*
X60010D01*
X60280D02*
X60510D01*
X60620D02*
X60820D01*
X60900D02*
X61220D01*
X62110D02*
X62180D01*
X57920Y16831D02*
X57990D01*
X58170D02*
X58370D01*
X58640D02*
X58840D01*
X59480D02*
X59700D01*
X59790D02*
X60020D01*
X60270D02*
X60500D01*
X60610D02*
X60810D01*
X60910D02*
X61220D01*
X62110D02*
X62180D01*
X57920Y16821D02*
X57990D01*
X58160D02*
X58370D01*
X58630D02*
X58840D01*
X59480D02*
X59700D01*
X59790D02*
X60030D01*
X60260D02*
X60500D01*
X60610D02*
X60810D01*
X60910D02*
X61210D01*
X62110D02*
X62180D01*
X57920Y16811D02*
X57990D01*
X58160D02*
X58370D01*
X58630D02*
X58830D01*
X59480D02*
X59690D01*
X59790D02*
X60030D01*
X60240D02*
X60490D01*
X60610D02*
X60810D01*
X60910D02*
X61210D01*
X62110D02*
X62180D01*
X57920Y16801D02*
X57990D01*
X58160D02*
X58370D01*
X58630D02*
X58830D01*
X59480D02*
X59690D01*
X59790D02*
X60050D01*
X60220D02*
X60480D01*
X60600D02*
X60800D01*
X60910D02*
X61210D01*
X62110D02*
X62180D01*
X57920Y16791D02*
X57990D01*
X58150D02*
X58370D01*
X58620D02*
X58830D01*
X59470D02*
X59690D01*
X59790D02*
X60060D01*
X60200D02*
X60470D01*
X60600D02*
X60800D01*
X60910D02*
X61200D01*
X62110D02*
X62180D01*
X57920Y16781D02*
X57990D01*
X58150D02*
X58400D01*
X58620D02*
X58820D01*
X59450D02*
X59680D01*
X59790D02*
X60090D01*
X60160D02*
X60460D01*
X60600D02*
X60800D01*
X60910D02*
X61200D01*
X62110D02*
X62180D01*
X57920Y16771D02*
X57990D01*
X58150D02*
X58570D01*
X58620D02*
X58820D01*
X59430D02*
X59680D01*
X59790D02*
X60450D01*
X60590D02*
X60790D01*
X60920D02*
X61200D01*
X62110D02*
X62180D01*
X57920Y16761D02*
X57990D01*
X58150D02*
X58560D01*
X58610D02*
X58820D01*
X59200D02*
X59670D01*
X59800D02*
X60440D01*
X60590D02*
X60790D01*
X60920D02*
X61190D01*
X62110D02*
X62180D01*
X57920Y16751D02*
X57990D01*
X58150D02*
X58560D01*
X58610D02*
X58810D01*
X59200D02*
X59670D01*
X59800D02*
X60430D01*
X60590D02*
X60790D01*
X60920D02*
X61190D01*
X62110D02*
X62180D01*
X57920Y16741D02*
X57990D01*
X58150D02*
X58560D01*
X58610D02*
X58810D01*
X59190D02*
X59660D01*
X59800D02*
X60420D01*
X60580D02*
X60780D01*
X60920D02*
X61190D01*
X62110D02*
X62180D01*
X57920Y16731D02*
X57990D01*
X58150D02*
X58550D01*
X58600D02*
X58800D01*
X59190D02*
X59660D01*
X59810D02*
X60410D01*
X60580D02*
X60780D01*
X60920D02*
X61180D01*
X62110D02*
X62180D01*
X57920Y16721D02*
X57990D01*
X58150D02*
X58550D01*
X58600D02*
X58800D01*
X59190D02*
X59650D01*
X59810D02*
X60400D01*
X60580D02*
X60780D01*
X60930D02*
X61180D01*
X62110D02*
X62180D01*
X57920Y16711D02*
X57990D01*
X58150D02*
X58550D01*
X58600D02*
X58800D01*
X59180D02*
X59640D01*
X59820D02*
X60390D01*
X60570D02*
X60770D01*
X60930D02*
X61180D01*
X62110D02*
X62180D01*
X57920Y16701D02*
X57990D01*
X58150D02*
X58540D01*
X58590D02*
X58790D01*
X59180D02*
X59630D01*
X59820D02*
X60380D01*
X60570D02*
X60770D01*
X60930D02*
X61170D01*
X62110D02*
X62180D01*
X57920Y16691D02*
X57990D01*
X58150D02*
X58540D01*
X58590D02*
X58790D01*
X59170D02*
X59620D01*
X59830D02*
X60360D01*
X60570D02*
X60770D01*
X60930D02*
X61170D01*
X62110D02*
X62180D01*
X57920Y16681D02*
X57990D01*
X58150D02*
X58540D01*
X58580D02*
X58790D01*
X59170D02*
X59610D01*
X59840D02*
X60350D01*
X60560D02*
X60760D01*
X60930D02*
X61170D01*
X62110D02*
X62180D01*
X57920Y16671D02*
X57990D01*
X58160D02*
X58530D01*
X58580D02*
X58780D01*
X59170D02*
X59600D01*
X59840D02*
X60340D01*
X60560D02*
X60760D01*
X60930D02*
X61160D01*
X62110D02*
X62180D01*
X57920Y16661D02*
X57990D01*
X58160D02*
X58530D01*
X58580D02*
X58780D01*
X59160D02*
X59590D01*
X59850D02*
X60320D01*
X60550D02*
X60750D01*
X60940D02*
X61160D01*
X62110D02*
X62180D01*
X57920Y16651D02*
X57990D01*
X58170D02*
X58530D01*
X58570D02*
X58780D01*
X59160D02*
X59580D01*
X59860D02*
X60300D01*
X60550D02*
X60750D01*
X60940D02*
X61150D01*
X62110D02*
X62180D01*
X57920Y16641D02*
X57990D01*
X58180D02*
X58520D01*
X58570D02*
X58770D01*
X59160D02*
X59560D01*
X59880D02*
X60290D01*
X60550D02*
X60750D01*
X60940D02*
X61140D01*
X62110D02*
X62180D01*
X57920Y16631D02*
X57990D01*
X58190D02*
X58520D01*
X58570D02*
X58770D01*
X59150D02*
X59540D01*
X59890D02*
X60270D01*
X60540D02*
X60740D01*
X60950D02*
X61140D01*
X62110D02*
X62180D01*
X57920Y16621D02*
X57990D01*
X58200D02*
X58520D01*
X58560D02*
X58770D01*
X59150D02*
X59520D01*
X59910D02*
X60240D01*
X60540D02*
X60740D01*
X60950D02*
X61130D01*
X62110D02*
X62180D01*
X57920Y16611D02*
X57990D01*
X58220D02*
X58510D01*
X58560D02*
X58760D01*
X59150D02*
X59490D01*
X59930D02*
X60220D01*
X60540D02*
X60740D01*
X60960D02*
X61120D01*
X62110D02*
X62180D01*
X57920Y16601D02*
X57990D01*
X58260D02*
X58510D01*
X58560D02*
X58760D01*
X59140D02*
X59440D01*
X59950D02*
X60190D01*
X60530D02*
X60730D01*
X60960D02*
X61100D01*
X62110D02*
X62180D01*
X57920Y16591D02*
X57990D01*
X59990D02*
X60140D01*
X60530D02*
X60550D01*
X60970D02*
X61090D01*
X62110D02*
X62180D01*
X57920Y16581D02*
X57990D01*
X60990D02*
X61060D01*
X62110D02*
X62180D01*
X57920Y16571D02*
X57990D01*
X62110D02*
X62180D01*
X57920Y16561D02*
X57990D01*
X62110D02*
X62180D01*
X57920Y16551D02*
X57990D01*
X62110D02*
X62180D01*
X57920Y16541D02*
X57990D01*
X62110D02*
X62180D01*
X57920Y16531D02*
X57990D01*
X62110D02*
X62180D01*
X57920Y16521D02*
X57990D01*
X62110D02*
X62180D01*
X57920Y16511D02*
X57990D01*
X62110D02*
X62180D01*
X57920Y16501D02*
X57990D01*
X62110D02*
X62180D01*
X57920Y16491D02*
X57990D01*
X62110D02*
X62180D01*
X57920Y16481D02*
X57990D01*
X62110D02*
X62180D01*
X57920Y16471D02*
X57990D01*
X62110D02*
X62180D01*
X57920Y16461D02*
X58000D01*
X62100D02*
X62180D01*
X57920Y16451D02*
X58000D01*
X62100D02*
X62180D01*
X57920Y16441D02*
X58000D01*
X62100D02*
X62180D01*
X57920Y16431D02*
X58000D01*
X62100D02*
X62180D01*
X57920Y16421D02*
X58000D01*
X62100D02*
X62180D01*
X57920Y16411D02*
X58010D01*
X62090D02*
X62180D01*
X57920Y16401D02*
X58010D01*
X62090D02*
X62180D01*
X57930Y16391D02*
X58020D01*
X62080D02*
X62170D01*
X57930Y16381D02*
X58030D01*
X62070D02*
X62170D01*
X57940Y16371D02*
X58040D01*
X62060D02*
X62160D01*
X57940Y16361D02*
X58050D01*
X62050D02*
X62160D01*
X57950Y16351D02*
X58070D01*
X62030D02*
X62150D01*
X57960Y16341D02*
X58110D01*
X61980D02*
X62140D01*
X57960Y16331D02*
X62140D01*
X57970Y16321D02*
X62130D01*
X57980Y16311D02*
X62120D01*
X58000Y16301D02*
X62100D01*
X58010Y16291D02*
X62090D01*
X58030Y16281D02*
X62070D01*
X58050Y16271D02*
X62040D01*
D14*
X64370Y15490D02*
Y14891D01*
X64670D01*
X64770Y14991D01*
Y15390D01*
X64670Y15490D01*
X64370D01*
X65270Y14891D02*
X65070D01*
X64970Y14991D01*
Y15191D01*
X65070Y15290D01*
X65270D01*
X65370Y15191D01*
Y15091D01*
X64970D01*
X65570Y14891D02*
X65870D01*
X65969Y14991D01*
X65870Y15091D01*
X65670D01*
X65570Y15191D01*
X65670Y15290D01*
X65969D01*
X66169Y14891D02*
X66369D01*
X66269D01*
Y15290D01*
X66169D01*
X66869Y14691D02*
X66969D01*
X67069Y14791D01*
Y15290D01*
X66769D01*
X66669Y15191D01*
Y14991D01*
X66769Y14891D01*
X67069D01*
X67269D02*
Y15290D01*
X67569D01*
X67669Y15191D01*
Y14891D01*
X67969Y15290D02*
X68169D01*
X68269Y15191D01*
Y14891D01*
X67969D01*
X67869Y14991D01*
X67969Y15091D01*
X68269D01*
X68569Y15390D02*
Y15290D01*
X68469D01*
X68669D01*
X68569D01*
Y14991D01*
X68669Y14891D01*
X69068D02*
X69268D01*
X69368Y14991D01*
Y15191D01*
X69268Y15290D01*
X69068D01*
X68969Y15191D01*
Y14991D01*
X69068Y14891D01*
X69568Y15290D02*
Y14891D01*
Y15091D01*
X69668Y15191D01*
X69768Y15290D01*
X69868D01*
X70568Y15490D02*
X70368Y15390D01*
X70168Y15191D01*
Y14991D01*
X70268Y14891D01*
X70468D01*
X70568Y14991D01*
Y15091D01*
X70468Y15191D01*
X70168D01*
X64367Y41080D02*
Y40480D01*
X64667D01*
X64767Y40580D01*
Y40980D01*
X64667Y41080D01*
X64367D01*
X65267Y40480D02*
X65067D01*
X64967Y40580D01*
Y40780D01*
X65067Y40880D01*
X65267D01*
X65367Y40780D01*
Y40680D01*
X64967D01*
X65567Y40480D02*
X65867D01*
X65967Y40580D01*
X65867Y40680D01*
X65667D01*
X65567Y40780D01*
X65667Y40880D01*
X65967D01*
X66167Y40480D02*
X66367D01*
X66267D01*
Y40880D01*
X66167D01*
X66867Y40280D02*
X66967D01*
X67067Y40380D01*
Y40880D01*
X66767D01*
X66667Y40780D01*
Y40580D01*
X66767Y40480D01*
X67067D01*
X67267D02*
Y40880D01*
X67566D01*
X67666Y40780D01*
Y40480D01*
X67966Y40880D02*
X68166D01*
X68266Y40780D01*
Y40480D01*
X67966D01*
X67866Y40580D01*
X67966Y40680D01*
X68266D01*
X68566Y40980D02*
Y40880D01*
X68466D01*
X68666D01*
X68566D01*
Y40580D01*
X68666Y40480D01*
X69066D02*
X69266D01*
X69366Y40580D01*
Y40780D01*
X69266Y40880D01*
X69066D01*
X68966Y40780D01*
Y40580D01*
X69066Y40480D01*
X69566Y40880D02*
Y40480D01*
Y40680D01*
X69666Y40780D01*
X69766Y40880D01*
X69866D01*
X70565Y41080D02*
X70166D01*
Y40780D01*
X70366Y40880D01*
X70466D01*
X70565Y40780D01*
Y40580D01*
X70466Y40480D01*
X70266D01*
X70166Y40580D01*
X10076Y41084D02*
Y40484D01*
X10376D01*
X10476Y40584D01*
Y40984D01*
X10376Y41084D01*
X10076D01*
X10976Y40484D02*
X10776D01*
X10676Y40584D01*
Y40784D01*
X10776Y40884D01*
X10976D01*
X11076Y40784D01*
Y40684D01*
X10676D01*
X11276Y40484D02*
X11575D01*
X11675Y40584D01*
X11575Y40684D01*
X11375D01*
X11276Y40784D01*
X11375Y40884D01*
X11675D01*
X11875Y40484D02*
X12075D01*
X11975D01*
Y40884D01*
X11875D01*
X12575Y40284D02*
X12675D01*
X12775Y40384D01*
Y40884D01*
X12475D01*
X12375Y40784D01*
Y40584D01*
X12475Y40484D01*
X12775D01*
X12975D02*
Y40884D01*
X13275D01*
X13375Y40784D01*
Y40484D01*
X13675Y40884D02*
X13875D01*
X13975Y40784D01*
Y40484D01*
X13675D01*
X13575Y40584D01*
X13675Y40684D01*
X13975D01*
X14275Y40984D02*
Y40884D01*
X14175D01*
X14375D01*
X14275D01*
Y40584D01*
X14375Y40484D01*
X14774D02*
X14974D01*
X15074Y40584D01*
Y40784D01*
X14974Y40884D01*
X14774D01*
X14674Y40784D01*
Y40584D01*
X14774Y40484D01*
X15274Y40884D02*
Y40484D01*
Y40684D01*
X15374Y40784D01*
X15474Y40884D01*
X15574D01*
X16174Y40484D02*
Y41084D01*
X15874Y40784D01*
X16274D01*
X10080Y15490D02*
Y14890D01*
X10380D01*
X10480Y14990D01*
Y15390D01*
X10380Y15490D01*
X10080D01*
X10980Y14890D02*
X10780D01*
X10680Y14990D01*
Y15190D01*
X10780Y15290D01*
X10980D01*
X11080Y15190D01*
Y15090D01*
X10680D01*
X11280Y14890D02*
X11580D01*
X11679Y14990D01*
X11580Y15090D01*
X11380D01*
X11280Y15190D01*
X11380Y15290D01*
X11679D01*
X11879Y14890D02*
X12079D01*
X11979D01*
Y15290D01*
X11879D01*
X12579Y14690D02*
X12679D01*
X12779Y14790D01*
Y15290D01*
X12479D01*
X12379Y15190D01*
Y14990D01*
X12479Y14890D01*
X12779D01*
X12979D02*
Y15290D01*
X13279D01*
X13379Y15190D01*
Y14890D01*
X13679Y15290D02*
X13879D01*
X13979Y15190D01*
Y14890D01*
X13679D01*
X13579Y14990D01*
X13679Y15090D01*
X13979D01*
X14279Y15390D02*
Y15290D01*
X14179D01*
X14379D01*
X14279D01*
Y14990D01*
X14379Y14890D01*
X14778D02*
X14978D01*
X15078Y14990D01*
Y15190D01*
X14978Y15290D01*
X14778D01*
X14679Y15190D01*
Y14990D01*
X14778Y14890D01*
X15278Y15290D02*
Y14890D01*
Y15090D01*
X15378Y15190D01*
X15478Y15290D01*
X15578D01*
X15878Y15390D02*
X15978Y15490D01*
X16178D01*
X16278Y15390D01*
Y15290D01*
X16178Y15190D01*
X16078D01*
X16178D01*
X16278Y15090D01*
Y14990D01*
X16178Y14890D01*
X15978D01*
X15878Y14990D01*
M02*
