%FSLAX44Y44*%
%MOMM*%
G71*
G01*
G75*
G04 Layer_Physical_Order=6*
G04 Layer_Color=16711680*
%ADD10R,0.2500X0.8000*%
%ADD11R,0.4000X0.6500*%
%ADD12R,0.3250X0.6500*%
%ADD13R,0.6000X0.5000*%
%ADD14R,1.2000X1.1500*%
%ADD15R,2.5000X3.3000*%
%ADD16R,1.8288X3.4290*%
%ADD17R,0.6400X4.7000*%
%ADD18R,0.6400X2.5400*%
%ADD19R,1.4500X0.3000*%
%ADD20R,0.8500X0.2800*%
%ADD21R,0.2800X0.8500*%
%ADD22R,3.1500X3.1500*%
%ADD23R,3.5000X3.5000*%
%ADD24R,0.8500X0.3000*%
%ADD25R,0.3000X0.8500*%
%ADD26R,3.5000X3.5000*%
%ADD27R,1.0400X0.3800*%
%ADD28R,1.0000X0.2800*%
%ADD29R,0.2800X1.0000*%
%ADD30R,3.7000X3.7000*%
%ADD31R,0.8000X0.2400*%
%ADD32R,0.2400X0.8000*%
%ADD33R,2.2000X2.2000*%
%ADD34R,1.0000X0.5500*%
%ADD35R,1.2000X0.5800*%
%ADD36R,0.5800X1.2000*%
%ADD37R,0.9000X0.7000*%
%ADD38R,0.7000X0.9000*%
%ADD39C,1.0160*%
%ADD40R,1.9000X2.6000*%
%ADD41R,0.2800X1.4000*%
%ADD42R,0.8000X0.8000*%
%ADD43R,0.7500X0.4000*%
%ADD44R,0.9000X1.2000*%
%ADD45R,0.9000X0.8000*%
%ADD46R,0.6858X0.5588*%
%ADD47R,0.5000X0.6000*%
%ADD48R,1.6000X0.3000*%
%ADD49R,2.3700X2.4300*%
%ADD50R,2.4300X2.3700*%
%ADD51R,1.6000X0.9000*%
%ADD52R,0.9000X1.6000*%
%ADD53R,0.9000X1.3000*%
%ADD54R,1.3000X0.9000*%
%ADD55R,0.8000X0.8000*%
%ADD56R,0.5000X0.5000*%
%ADD57R,0.5000X0.5000*%
%ADD58R,0.3000X2.6000*%
%ADD59R,0.6000X1.0500*%
%ADD60R,0.7000X0.2800*%
%ADD61R,2.3368X1.6500*%
%ADD62O,0.2800X0.8500*%
%ADD63R,1.2000X0.9000*%
%ADD64R,0.8000X0.9000*%
%ADD65R,2.7000X1.4000*%
%ADD66R,0.7000X2.0000*%
%ADD67R,1.2000X1.2000*%
%ADD68R,1.5000X2.6000*%
%ADD69R,1.0000X2.6000*%
%ADD70R,1.9000X1.8000*%
%ADD71R,1.3500X0.4000*%
%ADD72R,2.9500X1.5000*%
%ADD73R,2.3000X1.0000*%
%ADD74R,2.0000X1.2500*%
%ADD75R,1.7000X0.8000*%
%ADD76C,0.2500*%
%ADD77C,0.3000*%
%ADD78C,0.5000*%
%ADD79C,0.2800*%
%ADD80C,0.4000*%
%ADD81C,0.2400*%
%ADD82C,0.8000*%
%ADD83C,0.5800*%
%ADD84C,0.6000*%
%ADD85C,0.4300*%
%ADD86C,0.3500*%
%ADD87C,1.0000*%
%ADD88C,0.2830*%
%ADD89C,1.7000*%
%ADD90C,5.0000*%
%ADD91O,4.0000X5.0000*%
%ADD92R,1.7000X1.7000*%
%ADD93R,1.7000X1.7000*%
%ADD94C,7.4000*%
%ADD95C,5.2000*%
%ADD96C,1.4000*%
%ADD97R,1.4000X1.4000*%
%ADD98R,2.0000X1.6000*%
%ADD99O,2.0000X1.6000*%
%ADD100R,1.6000X2.0000*%
%ADD101O,1.6000X2.0000*%
%ADD102C,1.3000*%
%ADD103C,2.0000*%
%ADD104O,1.3000X1.1000*%
%ADD105C,2.4000*%
%ADD106O,1.6000X2.0000*%
%ADD107R,1.6000X2.0000*%
%ADD108C,1.9000*%
%ADD109R,1.9000X1.9000*%
%ADD110C,3.6000*%
%ADD111R,3.6000X3.6000*%
%ADD112C,1.8000*%
%ADD113C,2.2000*%
%ADD114C,2.7000*%
%ADD115C,3.2500*%
%ADD116C,1.5748*%
%ADD117C,3.0000*%
%ADD118C,1.5240*%
%ADD119O,3.3000X4.0000*%
%ADD120C,3.0000*%
G04:AMPARAMS|DCode=121|XSize=1.25mm|YSize=1.1mm|CornerRadius=0.462mm|HoleSize=0mm|Usage=FLASHONLY|Rotation=0.000|XOffset=0mm|YOffset=0mm|HoleType=Round|Shape=RoundedRectangle|*
%AMROUNDEDRECTD121*
21,1,1.2500,0.1760,0,0,0.0*
21,1,0.3260,1.1000,0,0,0.0*
1,1,0.9240,0.1630,-0.0880*
1,1,0.9240,-0.1630,-0.0880*
1,1,0.9240,-0.1630,0.0880*
1,1,0.9240,0.1630,0.0880*
%
%ADD121ROUNDEDRECTD121*%
G04:AMPARAMS|DCode=122|XSize=1.9mm|YSize=2.425mm|CornerRadius=0.57mm|HoleSize=0mm|Usage=FLASHONLY|Rotation=0.000|XOffset=0mm|YOffset=0mm|HoleType=Round|Shape=RoundedRectangle|*
%AMROUNDEDRECTD122*
21,1,1.9000,1.2850,0,0,0.0*
21,1,0.7600,2.4250,0,0,0.0*
1,1,1.1400,0.3800,-0.6425*
1,1,1.1400,-0.3800,-0.6425*
1,1,1.1400,-0.3800,0.6425*
1,1,1.1400,0.3800,0.6425*
%
%ADD122ROUNDEDRECTD122*%
%ADD123R,1.5000X1.5000*%
%ADD124C,1.5000*%
%ADD125C,0.4500*%
%ADD126C,1.0000*%
%ADD127C,1.0000*%
%ADD128C,1.6000*%
G04:AMPARAMS|DCode=129|XSize=2mm|YSize=2mm|CornerRadius=0mm|HoleSize=0mm|Usage=FLASHONLY|Rotation=0.000|XOffset=0mm|YOffset=0mm|HoleType=Round|Shape=Relief|Width=0.5mm|Gap=0.2mm|Entries=4|*
%AMTHD129*
7,0,0,2.0000,1.6000,0.5000,45*
%
%ADD129THD129*%
%ADD130C,2.2000*%
%ADD131C,3.8000*%
G04:AMPARAMS|DCode=132|XSize=3.7mm|YSize=3.7mm|CornerRadius=0mm|HoleSize=0mm|Usage=FLASHONLY|Rotation=0.000|XOffset=0mm|YOffset=0mm|HoleType=Round|Shape=Relief|Width=0.5mm|Gap=0.2mm|Entries=4|*
%AMTHD132*
7,0,0,3.7000,3.3000,0.5000,45*
%
%ADD132THD132*%
G04:AMPARAMS|DCode=133|XSize=2.1mm|YSize=2.1mm|CornerRadius=0mm|HoleSize=0mm|Usage=FLASHONLY|Rotation=0.000|XOffset=0mm|YOffset=0mm|HoleType=Round|Shape=Relief|Width=0.5mm|Gap=0.2mm|Entries=4|*
%AMTHD133*
7,0,0,2.1000,1.7000,0.5000,45*
%
%ADD133THD133*%
%ADD134C,1.6500*%
G04:AMPARAMS|DCode=135|XSize=4.2mm|YSize=4.2mm|CornerRadius=0mm|HoleSize=0mm|Usage=FLASHONLY|Rotation=0.000|XOffset=0mm|YOffset=0mm|HoleType=Round|Shape=Relief|Width=0.5mm|Gap=0.2mm|Entries=4|*
%AMTHD135*
7,0,0,4.2000,3.8000,0.5000,45*
%
%ADD135THD135*%
G04:AMPARAMS|DCode=136|XSize=1.8mm|YSize=1.8mm|CornerRadius=0mm|HoleSize=0mm|Usage=FLASHONLY|Rotation=0.000|XOffset=0mm|YOffset=0mm|HoleType=Round|Shape=Relief|Width=0.5mm|Gap=0.2mm|Entries=4|*
%AMTHD136*
7,0,0,1.8000,1.4000,0.5000,45*
%
%ADD136THD136*%
G04:AMPARAMS|DCode=137|XSize=3.2mm|YSize=3.2mm|CornerRadius=0mm|HoleSize=0mm|Usage=FLASHONLY|Rotation=0.000|XOffset=0mm|YOffset=0mm|HoleType=Round|Shape=Relief|Width=0.5mm|Gap=0.2mm|Entries=4|*
%AMTHD137*
7,0,0,3.2000,2.8000,0.5000,45*
%
%ADD137THD137*%
G04:AMPARAMS|DCode=138|XSize=1.74mm|YSize=1.74mm|CornerRadius=0mm|HoleSize=0mm|Usage=FLASHONLY|Rotation=0.000|XOffset=0mm|YOffset=0mm|HoleType=Round|Shape=Relief|Width=0.5mm|Gap=0.2mm|Entries=4|*
%AMTHD138*
7,0,0,1.7400,1.3400,0.5000,45*
%
%ADD138THD138*%
G04:AMPARAMS|DCode=139|XSize=2.35mm|YSize=2.35mm|CornerRadius=0mm|HoleSize=0mm|Usage=FLASHONLY|Rotation=0.000|XOffset=0mm|YOffset=0mm|HoleType=Round|Shape=Relief|Width=0.5mm|Gap=0.2mm|Entries=4|*
%AMTHD139*
7,0,0,2.3500,1.9500,0.5000,45*
%
%ADD139THD139*%
%ADD140C,1.3400*%
G04:AMPARAMS|DCode=141|XSize=2.6mm|YSize=2.6mm|CornerRadius=0mm|HoleSize=0mm|Usage=FLASHONLY|Rotation=0.000|XOffset=0mm|YOffset=0mm|HoleType=Round|Shape=Relief|Width=0.5mm|Gap=0.2mm|Entries=4|*
%AMTHD141*
7,0,0,2.6000,2.2000,0.5000,45*
%
%ADD141THD141*%
%ADD142C,1.6900*%
G04:AMPARAMS|DCode=143|XSize=4.18mm|YSize=4.18mm|CornerRadius=0mm|HoleSize=0mm|Usage=FLASHONLY|Rotation=0.000|XOffset=0mm|YOffset=0mm|HoleType=Round|Shape=Relief|Width=0.5mm|Gap=0.2mm|Entries=4|*
%AMTHD143*
7,0,0,4.1800,3.7800,0.5000,45*
%
%ADD143THD143*%
G04:AMPARAMS|DCode=144|XSize=2.09mm|YSize=2.09mm|CornerRadius=0mm|HoleSize=0mm|Usage=FLASHONLY|Rotation=0.000|XOffset=0mm|YOffset=0mm|HoleType=Round|Shape=Relief|Width=0.5mm|Gap=0.2mm|Entries=4|*
%AMTHD144*
7,0,0,2.0900,1.6900,0.5000,45*
%
%ADD144THD144*%
%ADD145C,2.4000*%
G04:AMPARAMS|DCode=146|XSize=2.8mm|YSize=2.8mm|CornerRadius=0mm|HoleSize=0mm|Usage=FLASHONLY|Rotation=0.000|XOffset=0mm|YOffset=0mm|HoleType=Round|Shape=Relief|Width=0.5mm|Gap=0.2mm|Entries=4|*
%AMTHD146*
7,0,0,2.8000,2.4000,0.5000,45*
%
%ADD146THD146*%
G04:AMPARAMS|DCode=147|XSize=2.3mm|YSize=2.3mm|CornerRadius=0mm|HoleSize=0mm|Usage=FLASHONLY|Rotation=0.000|XOffset=0mm|YOffset=0mm|HoleType=Round|Shape=Relief|Width=0.5mm|Gap=0.2mm|Entries=4|*
%AMTHD147*
7,0,0,2.3000,1.9000,0.5000,45*
%
%ADD147THD147*%
%ADD148C,3.8500*%
%ADD149C,1.9500*%
G04:AMPARAMS|DCode=150|XSize=3.3mm|YSize=3.3mm|CornerRadius=0mm|HoleSize=0mm|Usage=FLASHONLY|Rotation=0.000|XOffset=0mm|YOffset=0mm|HoleType=Round|Shape=Relief|Width=0.5mm|Gap=0.2mm|Entries=4|*
%AMTHD150*
7,0,0,3.3000,2.9000,0.5000,45*
%
%ADD150THD150*%
%ADD151C,2.3500*%
G04:AMPARAMS|DCode=152|XSize=3.4mm|YSize=3.4mm|CornerRadius=0mm|HoleSize=0mm|Usage=FLASHONLY|Rotation=0.000|XOffset=0mm|YOffset=0mm|HoleType=Round|Shape=Relief|Width=0.5mm|Gap=0.2mm|Entries=4|*
%AMTHD152*
7,0,0,3.4000,3.0000,0.5000,45*
%
%ADD152THD152*%
G04:AMPARAMS|DCode=153|XSize=4mm|YSize=4mm|CornerRadius=0mm|HoleSize=0mm|Usage=FLASHONLY|Rotation=0.000|XOffset=0mm|YOffset=0mm|HoleType=Round|Shape=Relief|Width=0.5mm|Gap=0.2mm|Entries=4|*
%AMTHD153*
7,0,0,4.0000,3.6000,0.5000,45*
%
%ADD153THD153*%
G04:AMPARAMS|DCode=154|XSize=3mm|YSize=3mm|CornerRadius=0mm|HoleSize=0mm|Usage=FLASHONLY|Rotation=0.000|XOffset=0mm|YOffset=0mm|HoleType=Round|Shape=Relief|Width=0.5mm|Gap=0.2mm|Entries=4|*
%AMTHD154*
7,0,0,3.0000,2.6000,0.5000,45*
%
%ADD154THD154*%
%ADD155C,2.1500*%
G04:AMPARAMS|DCode=156|XSize=1.85mm|YSize=1.85mm|CornerRadius=0mm|HoleSize=0mm|Usage=FLASHONLY|Rotation=0.000|XOffset=0mm|YOffset=0mm|HoleType=Round|Shape=Relief|Width=0.5mm|Gap=0.2mm|Entries=4|*
%AMTHD156*
7,0,0,1.8500,1.4500,0.5000,45*
%
%ADD156THD156*%
%ADD157C,2.0000*%
%ADD158C,2.9500*%
G04:AMPARAMS|DCode=159|XSize=1.7mm|YSize=1.7mm|CornerRadius=0mm|HoleSize=0mm|Usage=FLASHONLY|Rotation=0.000|XOffset=0mm|YOffset=0mm|HoleType=Round|Shape=Relief|Width=0.5mm|Gap=0.2mm|Entries=4|*
%AMTHD159*
7,0,0,1.7000,1.3000,0.5000,45*
%
%ADD159THD159*%
G04:AMPARAMS|DCode=160|XSize=1.9mm|YSize=1.9mm|CornerRadius=0mm|HoleSize=0mm|Usage=FLASHONLY|Rotation=0.000|XOffset=0mm|YOffset=0mm|HoleType=Round|Shape=Relief|Width=0.5mm|Gap=0.2mm|Entries=4|*
%AMTHD160*
7,0,0,1.9000,1.5000,0.5000,45*
%
%ADD160THD160*%
%ADD161C,0.8000*%
%ADD162C,1.1000*%
%ADD163C,0.2000*%
%ADD164R,2.3000X3.2000*%
%ADD165R,0.6000X2.0000*%
%ADD166R,0.2500X0.6000*%
%ADD167R,3.3000X3.3000*%
%ADD168R,0.6000X0.2300*%
%ADD169R,0.2300X0.6000*%
%ADD170R,0.2500X0.5000*%
%ADD171R,1.6000X0.3500*%
%ADD172R,1.6000X0.8000*%
%ADD173R,3.0000X2.1000*%
%ADD174R,0.7620X1.9050*%
%ADD175R,3.6000X3.0000*%
%ADD176R,2.5000X0.8000*%
%ADD177R,0.4000X0.7500*%
%ADD178C,0.6350*%
%ADD179R,1.4000X0.7500*%
%ADD180R,1.1000X1.2000*%
%ADD181R,1.2000X2.7000*%
%ADD182R,1.5000X1.9000*%
%ADD183R,1.0000X1.2000*%
%ADD184R,1.0000X0.8001*%
%ADD185R,1.0000X2.8001*%
%ADD186R,1.3000X1.8999*%
%ADD187R,1.0000X1.2000*%
%ADD188R,0.7000X1.2000*%
%ADD189C,0.2300*%
%ADD190C,0.2200*%
G36*
X930000Y521000D02*
X910000D01*
X897000Y534000D01*
Y538000D01*
X907000D01*
X910000Y541000D01*
X930000D01*
Y521000D01*
D02*
G37*
G36*
X91000Y446000D02*
X93000Y444000D01*
Y432000D01*
X91000Y430000D01*
X58000Y430100D01*
Y445392D01*
X58708Y446098D01*
X91000Y446000D01*
D02*
G37*
G36*
X350000Y532000D02*
Y527000D01*
X347000Y524000D01*
X342000D01*
X339000Y527000D01*
X335000D01*
Y537000D01*
X345000D01*
X350000Y532000D01*
D02*
G37*
G36*
X107000Y636000D02*
X103000Y632000D01*
X95000D01*
X91000Y636000D01*
Y640000D01*
Y651000D01*
X83000Y659000D01*
Y683000D01*
X107000D01*
Y636000D01*
D02*
G37*
G36*
X1222000Y635000D02*
X1220000Y633000D01*
X1217000Y630000D01*
X1185000D01*
X1181000Y634000D01*
X1180000Y635000D01*
Y648000D01*
Y661000D01*
X1185000Y666000D01*
X1222000D01*
Y635000D01*
D02*
G37*
G36*
X523000Y344000D02*
Y341000D01*
X522000Y340000D01*
Y331000D01*
X502000D01*
Y338000D01*
X509000Y345000D01*
X522000D01*
X523000Y344000D01*
D02*
G37*
G36*
X441000Y337000D02*
X441922Y336078D01*
Y336000D01*
X442000Y335606D01*
Y335000D01*
X442150Y334850D01*
X442232Y334439D01*
X443116Y333116D01*
X444439Y332232D01*
X446000Y331922D01*
X447561Y332232D01*
X448710Y333000D01*
X453606D01*
X454000Y332922D01*
X454000Y332922D01*
X461000D01*
X462561Y333232D01*
X462680Y333312D01*
X463463Y333468D01*
X464704Y334296D01*
X465532Y335537D01*
X465823Y337000D01*
X465532Y338463D01*
X465104Y339104D01*
X481000Y355000D01*
X487000D01*
X491000Y359000D01*
X499000D01*
Y340000D01*
X498000Y339000D01*
Y331000D01*
X479000D01*
X476337Y328337D01*
X476303Y328333D01*
X474722Y327678D01*
X473364Y326636D01*
X472322Y325278D01*
X471667Y323697D01*
X471663Y323663D01*
X469000Y321000D01*
X462000D01*
X445000Y304000D01*
X252000D01*
X235000Y321000D01*
Y374000D01*
X241000D01*
Y337000D01*
X246000Y332000D01*
X269607D01*
X270000Y331922D01*
X270393Y332000D01*
X315000D01*
Y374000D01*
X321000D01*
Y336000D01*
X322150Y334850D01*
X322232Y334439D01*
X323116Y333116D01*
X324439Y332232D01*
X324849Y332151D01*
X325000Y332000D01*
X331000Y326000D01*
X331290D01*
X332439Y325232D01*
X334000Y324922D01*
X335560Y325232D01*
X336710Y326000D01*
X337000D01*
X343000Y332000D01*
X357607D01*
X358000Y331922D01*
X358393Y332000D01*
X375000D01*
X381000Y326000D01*
X381035D01*
X383017Y324017D01*
X383927Y323410D01*
X385000Y323196D01*
X417000D01*
X418073Y323410D01*
X418983Y324017D01*
X420965Y326000D01*
X427740D01*
X428537Y325468D01*
X430000Y325177D01*
X431463Y325468D01*
X432704Y326296D01*
X433523Y327523D01*
X435000Y329000D01*
Y374000D01*
X441000D01*
Y337000D01*
D02*
G37*
G36*
X791000Y375293D02*
X791000Y321000D01*
X776000Y306000D01*
X587000D01*
X580636Y312364D01*
X581678Y313722D01*
X582333Y315303D01*
X582556Y317000D01*
X582333Y318697D01*
X581678Y320278D01*
X580636Y321636D01*
X579278Y322678D01*
X577697Y323333D01*
X576000Y323556D01*
X574303Y323333D01*
X572722Y322678D01*
X571364Y321636D01*
X570322Y320278D01*
X569667Y318697D01*
X569576Y318000D01*
X562823D01*
X562823Y318000D01*
X562532Y319463D01*
X561704Y320704D01*
X560463Y321532D01*
X559000Y321824D01*
X557537Y321532D01*
X556296Y320704D01*
X555468Y319463D01*
X555177Y318000D01*
X555177Y318000D01*
X555177D01*
X555177Y318000D01*
X553000D01*
X552523Y318477D01*
X551704Y319704D01*
X550476Y320523D01*
X540000Y331000D01*
X526000D01*
Y344000D01*
X521000Y349000D01*
X512000D01*
Y359000D01*
X530000D01*
X532000Y357000D01*
X532740D01*
X533537Y356468D01*
X535000Y356177D01*
X536463Y356468D01*
X537104Y356896D01*
X545476Y348523D01*
X546296Y347296D01*
X547537Y346468D01*
X549000Y346176D01*
X550463Y346468D01*
X551260Y347000D01*
X555000D01*
X561386Y340614D01*
X561296Y339704D01*
X560468Y338463D01*
X560177Y337000D01*
X560468Y335537D01*
X561296Y334296D01*
X562537Y333468D01*
X564000Y333177D01*
X565281Y333431D01*
X570719D01*
X572000Y333177D01*
X573463Y333468D01*
X574260Y334000D01*
X582000D01*
X585000Y337000D01*
X585000D01*
X585000Y337000D01*
X585000Y376000D01*
X590293D01*
X591000Y375293D01*
X591000Y332000D01*
X661000D01*
X665000Y336000D01*
Y367000D01*
X664000Y368000D01*
Y376000D01*
X670000D01*
Y368000D01*
X671000Y367000D01*
Y332000D01*
X780000D01*
X785000Y337000D01*
X785000Y376000D01*
X790293D01*
X791000Y375293D01*
D02*
G37*
G36*
X517000Y385000D02*
X520000Y382000D01*
Y378000D01*
Y365000D01*
X491000D01*
Y375000D01*
X502000Y386000D01*
X516000D01*
X517000Y385000D01*
D02*
G37*
G36*
X85000Y335000D02*
X83000Y333000D01*
X73000D01*
Y343000D01*
X76000Y346000D01*
Y354000D01*
X79000Y357000D01*
X85000D01*
Y335000D01*
D02*
G37*
G36*
X681000Y721000D02*
X638000D01*
Y761000D01*
X671000D01*
X677000Y767000D01*
X681000D01*
Y721000D01*
D02*
G37*
G36*
X104000Y755000D02*
X107000Y752000D01*
Y721000D01*
X64000D01*
X58000Y727000D01*
Y748000D01*
X62000Y752000D01*
X92000D01*
X95000Y755000D01*
Y766000D01*
X104000D01*
Y755000D01*
D02*
G37*
G36*
X123000Y786000D02*
Y762000D01*
X119000Y758000D01*
X110000D01*
Y770000D01*
X105000Y775000D01*
Y793000D01*
X107000Y795000D01*
X114000D01*
X123000Y786000D01*
D02*
G37*
G36*
X563000Y795000D02*
Y768000D01*
X550000D01*
X550000Y768000D01*
X543000Y775000D01*
Y788000D01*
X550000Y795000D01*
X563000Y795000D01*
D02*
G37*
G36*
X213000Y766000D02*
X208000Y761000D01*
X198000D01*
X197000Y762000D01*
Y767000D01*
X200000Y770000D01*
Y795000D01*
X213000D01*
Y766000D01*
D02*
G37*
G36*
X1093000Y768000D02*
X1105000D01*
Y752000D01*
X1096000D01*
X1093000Y749000D01*
Y748474D01*
X1092116Y747884D01*
X1091232Y746561D01*
X1090922Y745000D01*
X1091232Y743439D01*
X1092116Y742116D01*
X1093000Y741526D01*
Y734000D01*
X1094295Y732705D01*
X1094468Y731837D01*
X1095296Y730596D01*
X1096537Y729768D01*
X1098000Y729477D01*
X1099463Y729768D01*
X1100704Y730596D01*
X1100973Y731000D01*
X1116000D01*
Y708872D01*
X1115826Y708000D01*
X1116000Y707128D01*
Y680000D01*
X1110000D01*
X1098000Y692000D01*
Y708000D01*
X1079000Y727000D01*
Y787000D01*
X1083000Y791000D01*
X1093000D01*
Y768000D01*
D02*
G37*
G36*
X88000Y635600D02*
X56000D01*
X53000Y638600D01*
Y648600D01*
X56000Y651600D01*
X88000D01*
Y635600D01*
D02*
G37*
G36*
X589000Y719000D02*
Y711000D01*
X583000D01*
X580000Y708000D01*
X575000D01*
X574000Y709000D01*
Y728000D01*
X575000Y729000D01*
X579000D01*
X589000Y719000D01*
D02*
G37*
G36*
X1282000Y749000D02*
X1290000D01*
X1304000Y735000D01*
Y711000D01*
X1286000D01*
Y730000D01*
X1282000Y734000D01*
X1244000D01*
X1237344Y727344D01*
X1237068Y727132D01*
X1236857Y726857D01*
X1206000Y696000D01*
X1171000D01*
X1164000Y703000D01*
Y721000D01*
X1170718Y727718D01*
X1173000Y727418D01*
X1177000D01*
X1179480Y727745D01*
X1180097Y728000D01*
X1195000D01*
X1218000Y751000D01*
X1280000D01*
X1282000Y749000D01*
D02*
G37*
G36*
X606000Y725000D02*
Y721000D01*
X604000Y719000D01*
X604000Y711707D01*
X603293Y711000D01*
X595000D01*
Y719000D01*
X595000D01*
X594000Y720000D01*
Y725000D01*
X595000Y726000D01*
X605000D01*
X606000Y725000D01*
D02*
G37*
G36*
X126000Y155000D02*
Y137000D01*
X124000Y135000D01*
X70000D01*
X61000Y126000D01*
Y120000D01*
X28000D01*
X21000Y127000D01*
X13000D01*
Y139000D01*
X15000Y141000D01*
X23000D01*
X24000Y140000D01*
X55000D01*
X64000Y149000D01*
X100000D01*
X105000Y154000D01*
X116000D01*
X119000Y157000D01*
X124000D01*
X126000Y155000D01*
D02*
G37*
G36*
X612000Y123000D02*
Y120000D01*
Y117000D01*
X609000Y114000D01*
X596000D01*
Y126000D01*
X609000D01*
X612000Y123000D01*
D02*
G37*
G36*
X36000Y168000D02*
X46000Y158000D01*
Y149000D01*
X41000Y144000D01*
X30000D01*
X28000Y146000D01*
Y165000D01*
X30000Y167000D01*
Y182000D01*
X36000D01*
Y168000D01*
D02*
G37*
G36*
X1222000Y170000D02*
X1216000Y164000D01*
X1212000Y160000D01*
X1175000D01*
X1174000Y161000D01*
Y189000D01*
X1185000Y200000D01*
X1222000D01*
Y170000D01*
D02*
G37*
G36*
X99000Y168000D02*
Y157000D01*
X97000Y155000D01*
X89000D01*
X84000Y160000D01*
Y169000D01*
X85000Y170000D01*
X97000D01*
X99000Y168000D01*
D02*
G37*
G36*
X606000Y3000D02*
X592000D01*
X589000Y6000D01*
Y24000D01*
X596000Y31000D01*
X606000D01*
Y3000D01*
D02*
G37*
G36*
X479000Y16000D02*
Y12000D01*
Y7000D01*
X475000Y3000D01*
X457000D01*
X454000Y6000D01*
X453000Y7000D01*
Y8000D01*
Y16000D01*
X456000Y19000D01*
X459000Y22000D01*
X473000D01*
X479000Y16000D01*
D02*
G37*
G36*
X819000Y60000D02*
X816000Y57000D01*
X807000D01*
X801000Y51000D01*
X771000D01*
Y69000D01*
X782000Y80000D01*
X819000D01*
Y60000D01*
D02*
G37*
G36*
Y97000D02*
Y86000D01*
X804000D01*
X802000Y88000D01*
Y93000D01*
X810000Y101000D01*
X815000D01*
X819000Y97000D01*
D02*
G37*
G36*
X452000Y123000D02*
Y91000D01*
X443000Y82000D01*
X437000D01*
Y116000D01*
X433000Y120000D01*
Y128000D01*
X437000Y132000D01*
X443000D01*
X452000Y123000D01*
D02*
G37*
G36*
X555000Y259000D02*
X532000D01*
X526000Y265000D01*
Y280000D01*
Y285000D01*
X532000Y291000D01*
X555000D01*
Y259000D01*
D02*
G37*
G36*
X504000Y296000D02*
Y265000D01*
X498000Y259000D01*
X475000D01*
Y291000D01*
X482000Y298000D01*
X502000D01*
X504000Y296000D01*
D02*
G37*
G36*
X848000Y259000D02*
X824000D01*
X818000Y265000D01*
Y291000D01*
X819000Y292000D01*
X848000D01*
Y259000D01*
D02*
G37*
G36*
X993000Y303000D02*
X985000D01*
Y308000D01*
X980000Y313000D01*
X972000D01*
X970000Y315000D01*
Y317000D01*
X972000Y319000D01*
X980000D01*
X985000Y324000D01*
Y330000D01*
X993000D01*
Y303000D01*
D02*
G37*
G36*
X83000Y279000D02*
X80000Y276000D01*
X49000D01*
X34000Y291000D01*
Y303000D01*
X37000Y306000D01*
X83000D01*
Y279000D01*
D02*
G37*
G36*
X46000Y223000D02*
Y201000D01*
X50000Y197000D01*
Y194000D01*
X61000Y183000D01*
Y176000D01*
X43000D01*
Y182000D01*
X41000Y184000D01*
Y195000D01*
X34000Y202000D01*
Y223000D01*
X37000Y226000D01*
X43000D01*
X46000Y223000D01*
D02*
G37*
G36*
X131000Y197000D02*
Y191000D01*
X133000Y189000D01*
X146000D01*
X149000Y192000D01*
Y196000D01*
X158000D01*
Y187000D01*
X162477Y182523D01*
X163296Y181296D01*
X164524Y180476D01*
X167000Y178000D01*
X187000D01*
Y172000D01*
X160000D01*
X150000Y182000D01*
X131000D01*
X125000Y188000D01*
X122000Y191000D01*
Y202000D01*
X126000D01*
X131000Y197000D01*
D02*
G37*
G36*
X173000Y189000D02*
X175000Y187000D01*
Y183000D01*
X174000Y182000D01*
X165166D01*
X164666Y182334D01*
X164334Y182666D01*
X164000Y183166D01*
Y196000D01*
X173000D01*
Y189000D01*
D02*
G37*
G36*
X211000Y285000D02*
Y265000D01*
X205000Y259000D01*
X182000D01*
Y291000D01*
X205000D01*
X211000Y285000D01*
D02*
G37*
G36*
X83000Y223000D02*
Y195000D01*
X54000D01*
Y224000D01*
X46000Y232000D01*
X39000D01*
X36000Y235000D01*
Y247000D01*
X39000Y250000D01*
X56000D01*
X83000Y223000D01*
D02*
G37*
G36*
X353000Y969000D02*
X350000Y966000D01*
X338000D01*
X335000Y969000D01*
Y979000D01*
X353000D01*
Y969000D01*
D02*
G37*
G36*
X199000Y887000D02*
X195000Y883000D01*
X194000Y882000D01*
X189000D01*
X187000Y884000D01*
Y905000D01*
X199000D01*
Y887000D01*
D02*
G37*
G36*
X916000Y971000D02*
Y949000D01*
X915000Y948000D01*
X905000D01*
X902000Y951000D01*
Y971000D01*
X904000Y973000D01*
X914000D01*
X916000Y971000D01*
D02*
G37*
G36*
X594000Y1005000D02*
X597000Y1002000D01*
X603000D01*
X608000Y997000D01*
Y974000D01*
Y970000D01*
X607000Y969000D01*
X603000Y965000D01*
X597000D01*
X592000Y970000D01*
Y992000D01*
X588000Y996000D01*
X575000Y1009000D01*
X566000D01*
Y1021000D01*
X578000D01*
X594000Y1005000D01*
D02*
G37*
G36*
X1119000Y977000D02*
X1127000D01*
Y971000D01*
X1122000Y966000D01*
X1096000D01*
X1091000Y971000D01*
Y978000D01*
X1095000Y982000D01*
X1114000D01*
X1119000Y977000D01*
D02*
G37*
G36*
X1130000Y844000D02*
X1121000D01*
X1119000Y842000D01*
X1101174D01*
X1100704Y842704D01*
X1099463Y843532D01*
X1098000Y843823D01*
X1096537Y843532D01*
X1095296Y842704D01*
X1094468Y841463D01*
X1094177Y840000D01*
X1094313Y839313D01*
X1093000Y838000D01*
Y820000D01*
X1078000D01*
Y841000D01*
X1087000Y850000D01*
X1130000D01*
Y844000D01*
D02*
G37*
G36*
X428000Y906000D02*
Y877000D01*
X417000D01*
X412000Y882000D01*
Y906000D01*
X415000Y909000D01*
X425000D01*
X428000Y906000D01*
D02*
G37*
G36*
X1147000Y855000D02*
Y845000D01*
X1138000D01*
X1131000Y852000D01*
X1130000D01*
X1129000Y853000D01*
Y856000D01*
X1132000Y859000D01*
X1134000Y861000D01*
X1141000D01*
X1147000Y855000D01*
D02*
G37*
G36*
X1183000Y894000D02*
X1156000Y867000D01*
X1146000D01*
X1143000Y870000D01*
Y888000D01*
X1136000Y895000D01*
X1118000Y913000D01*
X1118000D01*
Y932000D01*
X1120000Y934000D01*
Y934000D01*
X1125000D01*
X1127000Y932000D01*
Y928000D01*
X1130000Y925000D01*
X1148000D01*
X1150000Y927000D01*
X1157000Y934000D01*
X1183000D01*
Y894000D01*
D02*
G37*
G36*
X83998Y927045D02*
X83927Y926500D01*
X84219Y924281D01*
X85075Y922213D01*
X86438Y920438D01*
X88213Y919075D01*
X90281Y918219D01*
X92500Y917927D01*
X94719Y918219D01*
X96787Y919075D01*
X97997Y920004D01*
X110000Y908000D01*
X127000D01*
Y895000D01*
X117000D01*
Y875000D01*
X123606D01*
X124000Y874922D01*
X124394Y875000D01*
X127000D01*
Y862000D01*
X101000D01*
X78000Y885000D01*
X73057D01*
X72500Y885073D01*
X71943Y885000D01*
X48057D01*
X47500Y885073D01*
X46943Y885000D01*
X36839D01*
X36002Y885955D01*
X36073Y886500D01*
X35781Y888719D01*
X34925Y890787D01*
X33562Y892562D01*
X31787Y893925D01*
X29719Y894781D01*
X27500Y895073D01*
X25281Y894781D01*
X23213Y893925D01*
X21438Y892562D01*
X20239Y891000D01*
X7000D01*
Y911000D01*
X17000D01*
X23000Y917000D01*
X24530Y918530D01*
X25281Y918219D01*
X27500Y917927D01*
X29719Y918219D01*
X31787Y919075D01*
X33562Y920438D01*
X34925Y922213D01*
X35781Y924281D01*
X36073Y926500D01*
X36002Y927045D01*
X36839Y928000D01*
X46943D01*
X47500Y927927D01*
X48057Y928000D01*
X71943D01*
X72500Y927927D01*
X73057Y928000D01*
X83161D01*
X83998Y927045D01*
D02*
G37*
G36*
X128000Y932000D02*
Y917000D01*
X110000D01*
Y932000D01*
X111000Y933000D01*
X127000D01*
X128000Y932000D01*
D02*
G37*
G36*
X428000Y944000D02*
Y918000D01*
X428000D01*
X425000Y915000D01*
X415000D01*
X412000Y918000D01*
Y937000D01*
X398000Y951000D01*
X355000D01*
X352000Y954000D01*
Y964000D01*
X354000D01*
X357000Y967000D01*
X405000D01*
X428000Y944000D01*
D02*
G37*
G36*
X128000Y954000D02*
Y939000D01*
X110000D01*
Y954000D01*
X111000Y955000D01*
X127000D01*
X128000Y954000D01*
D02*
G37*
G36*
X1158000Y972000D02*
Y952000D01*
X1153000Y947000D01*
X1130000D01*
Y972000D01*
X1133000Y975000D01*
X1155000D01*
X1158000Y972000D01*
D02*
G37*
G36*
X1318000Y936000D02*
X1301000D01*
X1292000Y927000D01*
X1263000Y898000D01*
X1228000D01*
X1226000Y900000D01*
Y934000D01*
X1265000Y973000D01*
X1318000D01*
Y936000D01*
D02*
G37*
G36*
X250000Y934000D02*
X247000Y931000D01*
X235000D01*
X232000Y934000D01*
Y944000D01*
X250000D01*
Y934000D01*
D02*
G37*
G36*
X837000Y803000D02*
Y791000D01*
X830000Y784000D01*
Y768000D01*
X817000D01*
Y795000D01*
X822000D01*
X831000Y804000D01*
X836000D01*
X837000Y803000D01*
D02*
G37*
G36*
X108000Y992000D02*
X111000Y989000D01*
X128000D01*
Y969000D01*
X113000D01*
X103000Y959000D01*
X103000D01*
Y935000D01*
X93057D01*
X92500Y935073D01*
X91943Y935000D01*
X81839D01*
X81002Y935955D01*
X81073Y936500D01*
X80781Y938719D01*
X79925Y940787D01*
X78562Y942562D01*
X76787Y943925D01*
X74719Y944781D01*
X72500Y945073D01*
X70281Y944781D01*
X68213Y943925D01*
X66438Y942562D01*
X65075Y940787D01*
X64219Y938719D01*
X63927Y936500D01*
X63998Y935955D01*
X63161Y935000D01*
X56839D01*
X56002Y935955D01*
X56073Y936500D01*
X55781Y938719D01*
X54925Y940787D01*
X53562Y942562D01*
X51787Y943925D01*
X49719Y944781D01*
X47500Y945073D01*
X45281Y944781D01*
X43213Y943925D01*
X41438Y942562D01*
X40075Y940787D01*
X39219Y938719D01*
X38927Y936500D01*
X38998Y935955D01*
X38161Y935000D01*
X28057D01*
X27500Y935073D01*
X26943Y935000D01*
X17000D01*
Y993000D01*
X32000D01*
Y1003000D01*
X46000D01*
Y993000D01*
X57000D01*
X60000Y990000D01*
Y976000D01*
X64000D01*
Y968000D01*
X81000D01*
Y976000D01*
X85000D01*
Y990000D01*
X88000Y993000D01*
X94000D01*
Y1003000D01*
X108000D01*
Y992000D01*
D02*
G37*
G36*
X1147000Y826000D02*
X1137000Y816000D01*
Y805000D01*
X1129000D01*
X1124000Y810000D01*
Y816000D01*
X1131000D01*
X1132000Y817000D01*
Y827000D01*
X1126000Y833000D01*
X1124000Y835000D01*
Y839000D01*
X1147000D01*
Y826000D01*
D02*
G37*
G36*
X1281000Y781000D02*
Y769000D01*
X1280000Y768000D01*
X1277000D01*
X1273000Y772000D01*
X1257000D01*
Y781000D01*
X1258000Y782000D01*
X1280000D01*
X1281000Y781000D01*
D02*
G37*
G36*
X597000Y796000D02*
Y786000D01*
X588000Y777000D01*
Y768000D01*
X575000D01*
Y795000D01*
X577000Y797000D01*
X596000D01*
X597000Y796000D01*
D02*
G37*
G36*
X244000Y790000D02*
Y789000D01*
Y778000D01*
Y774000D01*
X238000Y768000D01*
X225000D01*
Y795000D01*
X239000D01*
X244000Y790000D01*
D02*
G37*
G36*
X788000Y795000D02*
X805000D01*
Y768000D01*
X792000D01*
X792000Y774000D01*
X785000Y781000D01*
Y793000D01*
X787000Y795000D01*
X788000Y795000D01*
D02*
G37*
G36*
X487000Y791000D02*
Y772000D01*
X483000Y768000D01*
X467000D01*
Y795000D01*
X483000D01*
X487000Y791000D01*
D02*
G37*
G36*
X460000Y791000D02*
Y772000D01*
X455000Y768000D01*
X442000D01*
Y795000D01*
X456000D01*
X460000Y791000D01*
D02*
G37*
G36*
X819000Y827000D02*
X817000Y825000D01*
X805000D01*
X803000Y827000D01*
Y850000D01*
X819000D01*
Y827000D01*
D02*
G37*
G36*
X227000Y828000D02*
X224000Y825000D01*
X214000D01*
X211000Y828000D01*
Y850000D01*
X227000D01*
Y828000D01*
D02*
G37*
G36*
X469000Y833000D02*
Y832000D01*
Y831000D01*
X450000D01*
X447000Y834000D01*
Y834000D01*
Y847000D01*
X450000Y850000D01*
X469000D01*
Y833000D01*
D02*
G37*
G36*
X128000Y838000D02*
X127000Y837000D01*
X111000D01*
X110000Y838000D01*
Y853000D01*
X128000D01*
Y838000D01*
D02*
G37*
G36*
X573000Y850000D02*
X577000D01*
Y831000D01*
X561000D01*
Y844000D01*
X555000Y850000D01*
Y854000D01*
X560000Y859000D01*
X564000D01*
X573000Y850000D01*
D02*
G37*
G36*
X1122000Y839000D02*
Y834000D01*
X1122500Y833500D01*
Y833000D01*
X1123000D01*
X1130000Y826000D01*
Y821000D01*
X1124000D01*
X1119000Y826000D01*
X1103000D01*
Y835000D01*
X1111000D01*
X1114000Y838000D01*
X1116000Y840000D01*
X1121000D01*
X1122000Y839000D01*
D02*
G37*
G36*
Y809000D02*
X1128000Y803000D01*
X1133000D01*
Y799077D01*
X1132611Y799000D01*
X1106000D01*
X1101423Y803577D01*
X1100704Y804654D01*
X1099627Y805373D01*
X1099000Y806000D01*
X1089000D01*
X1087000Y808000D01*
Y816000D01*
X1093667D01*
X1094301Y815227D01*
X1094177Y814600D01*
X1094468Y813137D01*
X1095296Y811896D01*
X1096537Y811068D01*
X1098000Y810777D01*
X1099463Y811068D01*
X1100704Y811896D01*
X1101532Y813137D01*
X1101823Y814600D01*
X1101699Y815227D01*
X1102333Y816000D01*
X1122000D01*
Y809000D01*
D02*
G37*
%LPC*%
G36*
X92000Y971078D02*
X90439Y970768D01*
X89116Y969884D01*
X88232Y968561D01*
X87922Y967000D01*
X88232Y965439D01*
X89116Y964116D01*
X89616Y963616D01*
X90939Y962732D01*
X92500Y962422D01*
X94061Y962732D01*
X95384Y963616D01*
X96268Y964939D01*
X96578Y966500D01*
X96268Y968061D01*
X95384Y969384D01*
X94884Y969884D01*
X93561Y970768D01*
X92000Y971078D01*
D02*
G37*
G36*
X27000Y971078D02*
X25439Y970768D01*
X24116Y969884D01*
X23232Y968561D01*
X22922Y967000D01*
X23232Y965439D01*
X24116Y964116D01*
X24616Y963616D01*
X25939Y962732D01*
X27500Y962422D01*
X29061Y962732D01*
X30384Y963616D01*
X31268Y964939D01*
X31578Y966500D01*
X31268Y968061D01*
X30384Y969384D01*
X29884Y969884D01*
X28561Y970768D01*
X27000Y971078D01*
D02*
G37*
G36*
X92500Y955073D02*
X90281Y954781D01*
X88213Y953925D01*
X86438Y952562D01*
X85075Y950787D01*
X84219Y948719D01*
X83927Y946500D01*
X84219Y944281D01*
X85075Y942213D01*
X86438Y940438D01*
X88213Y939075D01*
X90281Y938219D01*
X92500Y937927D01*
X94719Y938219D01*
X96787Y939075D01*
X98562Y940438D01*
X99925Y942213D01*
X100781Y944281D01*
X101073Y946500D01*
X100781Y948719D01*
X99925Y950787D01*
X98562Y952562D01*
X96787Y953925D01*
X94719Y954781D01*
X92500Y955073D01*
D02*
G37*
G36*
X27500D02*
X25281Y954781D01*
X23213Y953925D01*
X21438Y952562D01*
X20075Y950787D01*
X19219Y948719D01*
X18927Y946500D01*
X19219Y944281D01*
X20075Y942213D01*
X21438Y940438D01*
X23213Y939075D01*
X25281Y938219D01*
X27500Y937927D01*
X29719Y938219D01*
X31787Y939075D01*
X33562Y940438D01*
X34925Y942213D01*
X35781Y944281D01*
X36073Y946500D01*
X35781Y948719D01*
X34925Y950787D01*
X33562Y952562D01*
X31787Y953925D01*
X29719Y954781D01*
X27500Y955073D01*
D02*
G37*
G36*
X736000Y318823D02*
X734537Y318532D01*
X733296Y317704D01*
X732468Y316463D01*
X732177Y315000D01*
X732468Y313537D01*
X733296Y312296D01*
X734537Y311468D01*
X736000Y311177D01*
X737463Y311468D01*
X738704Y312296D01*
X739532Y313537D01*
X739823Y315000D01*
X739532Y316463D01*
X738704Y317704D01*
X737463Y318532D01*
X736000Y318823D01*
D02*
G37*
G36*
X725000D02*
X723537Y318532D01*
X722296Y317704D01*
X721468Y316463D01*
X721177Y315000D01*
X721468Y313537D01*
X722296Y312296D01*
X723537Y311468D01*
X725000Y311177D01*
X726463Y311468D01*
X727704Y312296D01*
X728532Y313537D01*
X728823Y315000D01*
X728532Y316463D01*
X727704Y317704D01*
X726463Y318532D01*
X725000Y318823D01*
D02*
G37*
G36*
X715000D02*
X713537Y318532D01*
X712296Y317704D01*
X711468Y316463D01*
X711177Y315000D01*
X711468Y313537D01*
X712296Y312296D01*
X713537Y311468D01*
X715000Y311177D01*
X716463Y311468D01*
X717704Y312296D01*
X718532Y313537D01*
X718823Y315000D01*
X718532Y316463D01*
X717704Y317704D01*
X716463Y318532D01*
X715000Y318823D01*
D02*
G37*
G36*
X47500Y905073D02*
X45281Y904781D01*
X43213Y903925D01*
X41438Y902562D01*
X40075Y900787D01*
X39219Y898719D01*
X38927Y896500D01*
X39219Y894281D01*
X40075Y892213D01*
X41438Y890438D01*
X43213Y889075D01*
X45281Y888219D01*
X47500Y887927D01*
X49719Y888219D01*
X51787Y889075D01*
X53562Y890438D01*
X54925Y892213D01*
X55781Y894281D01*
X56073Y896500D01*
X55781Y898719D01*
X54925Y900787D01*
X53562Y902562D01*
X51787Y903925D01*
X49719Y904781D01*
X47500Y905073D01*
D02*
G37*
G36*
X1098000Y724423D02*
X1096537Y724132D01*
X1095296Y723304D01*
X1094468Y722063D01*
X1094177Y720600D01*
X1094468Y719137D01*
X1095296Y717896D01*
X1096537Y717068D01*
X1098000Y716777D01*
X1099463Y717068D01*
X1100704Y717896D01*
X1101532Y719137D01*
X1101823Y720600D01*
X1101532Y722063D01*
X1100704Y723304D01*
X1099463Y724132D01*
X1098000Y724423D01*
D02*
G37*
G36*
X535000Y353823D02*
X533537Y353532D01*
X532296Y352704D01*
X531468Y351463D01*
X531176Y350000D01*
X531468Y348537D01*
X532296Y347296D01*
X533537Y346468D01*
X535000Y346176D01*
X536463Y346468D01*
X537704Y347296D01*
X538532Y348537D01*
X538823Y350000D01*
X538532Y351463D01*
X537704Y352704D01*
X536463Y353532D01*
X535000Y353823D01*
D02*
G37*
G36*
X555000Y334823D02*
X553537Y334532D01*
X552296Y333704D01*
X551468Y332463D01*
X551177Y331000D01*
X551468Y329537D01*
X552296Y328296D01*
X553537Y327468D01*
X555000Y327177D01*
X556463Y327468D01*
X557704Y328296D01*
X558532Y329537D01*
X558823Y331000D01*
X558532Y332463D01*
X557704Y333704D01*
X556463Y334532D01*
X555000Y334823D01*
D02*
G37*
G36*
X92500Y915073D02*
X90281Y914781D01*
X88213Y913925D01*
X86438Y912562D01*
X85075Y910787D01*
X84219Y908719D01*
X83927Y906500D01*
X84219Y904281D01*
X85075Y902213D01*
X86438Y900438D01*
X88213Y899075D01*
X90281Y898219D01*
X92500Y897927D01*
X94719Y898219D01*
X96787Y899075D01*
X98562Y900438D01*
X99925Y902213D01*
X100781Y904281D01*
X101073Y906500D01*
X100781Y908719D01*
X99925Y910787D01*
X98562Y912562D01*
X96787Y913925D01*
X94719Y914781D01*
X92500Y915073D01*
D02*
G37*
G36*
X47500Y925073D02*
X45281Y924781D01*
X43213Y923925D01*
X41438Y922562D01*
X40075Y920787D01*
X39219Y918719D01*
X38927Y916500D01*
X39219Y914281D01*
X40075Y912213D01*
X41438Y910438D01*
X43213Y909075D01*
X45281Y908219D01*
X47500Y907927D01*
X49719Y908219D01*
X51787Y909075D01*
X53562Y910438D01*
X54925Y912213D01*
X55781Y914281D01*
X56073Y916500D01*
X55781Y918719D01*
X54925Y920787D01*
X53562Y922562D01*
X51787Y923925D01*
X49719Y924781D01*
X47500Y925073D01*
D02*
G37*
G36*
X72500D02*
X70281Y924781D01*
X68213Y923925D01*
X66438Y922562D01*
X65075Y920787D01*
X64219Y918719D01*
X63927Y916500D01*
X64219Y914281D01*
X65075Y912213D01*
X66438Y910438D01*
X68213Y909075D01*
X70281Y908219D01*
X72500Y907927D01*
X74719Y908219D01*
X76787Y909075D01*
X78562Y910438D01*
X79925Y912213D01*
X80781Y914281D01*
X81073Y916500D01*
X80781Y918719D01*
X79925Y920787D01*
X78562Y922562D01*
X76787Y923925D01*
X74719Y924781D01*
X72500Y925073D01*
D02*
G37*
G36*
X592000Y323556D02*
X590303Y323333D01*
X588722Y322678D01*
X587364Y321636D01*
X586322Y320278D01*
X585667Y318697D01*
X585444Y317000D01*
X585667Y315303D01*
X586322Y313722D01*
X587364Y312364D01*
X588722Y311322D01*
X590303Y310667D01*
X592000Y310444D01*
X593697Y310667D01*
X595278Y311322D01*
X596636Y312364D01*
X597678Y313722D01*
X598333Y315303D01*
X598556Y317000D01*
X598333Y318697D01*
X597678Y320278D01*
X596636Y321636D01*
X595278Y322678D01*
X593697Y323333D01*
X592000Y323556D01*
D02*
G37*
G36*
X704000Y318823D02*
X702537Y318532D01*
X701296Y317704D01*
X700468Y316463D01*
X700177Y315000D01*
X700468Y313537D01*
X701296Y312296D01*
X702537Y311468D01*
X704000Y311177D01*
X705463Y311468D01*
X706704Y312296D01*
X707532Y313537D01*
X707823Y315000D01*
X707532Y316463D01*
X706704Y317704D01*
X705463Y318532D01*
X704000Y318823D01*
D02*
G37*
G36*
X694000D02*
X692537Y318532D01*
X691296Y317704D01*
X690468Y316463D01*
X690176Y315000D01*
X690468Y313537D01*
X691296Y312296D01*
X692537Y311468D01*
X694000Y311177D01*
X695463Y311468D01*
X696704Y312296D01*
X697532Y313537D01*
X697823Y315000D01*
X697532Y316463D01*
X696704Y317704D01*
X695463Y318532D01*
X694000Y318823D01*
D02*
G37*
G36*
X682000D02*
X680537Y318532D01*
X679296Y317704D01*
X678468Y316463D01*
X678177Y315000D01*
X678468Y313537D01*
X679296Y312296D01*
X680537Y311468D01*
X682000Y311177D01*
X683463Y311468D01*
X684704Y312296D01*
X685532Y313537D01*
X685823Y315000D01*
X685532Y316463D01*
X684704Y317704D01*
X683463Y318532D01*
X682000Y318823D01*
D02*
G37*
%LPD*%
D10*
X331000Y531251D02*
D03*
D11*
X326000Y515501D02*
D03*
X336000D02*
D03*
D12*
X325620Y530501D02*
D03*
X336380D02*
D03*
D13*
X470000Y712000D02*
D03*
Y722000D02*
D03*
X400000Y75000D02*
D03*
Y85000D02*
D03*
X384000Y85000D02*
D03*
Y75000D02*
D03*
X285000Y75000D02*
D03*
Y85000D02*
D03*
X315000Y75000D02*
D03*
Y85000D02*
D03*
X210000Y75000D02*
D03*
Y85000D02*
D03*
X194000Y85000D02*
D03*
Y75000D02*
D03*
X1138000Y706000D02*
D03*
Y696000D02*
D03*
X1153000Y696000D02*
D03*
Y706000D02*
D03*
X1174000Y847000D02*
D03*
Y857000D02*
D03*
X1145000Y744000D02*
D03*
Y754000D02*
D03*
X1159000Y847000D02*
D03*
Y857000D02*
D03*
X1208000Y815000D02*
D03*
Y825000D02*
D03*
Y768000D02*
D03*
Y778000D02*
D03*
X1090000Y788000D02*
D03*
Y798000D02*
D03*
Y823000D02*
D03*
Y813000D02*
D03*
X1127000Y837000D02*
D03*
Y847000D02*
D03*
X372000Y708000D02*
D03*
Y718000D02*
D03*
X309000Y795000D02*
D03*
Y785000D02*
D03*
X420000Y907000D02*
D03*
Y917000D02*
D03*
X331000Y855000D02*
D03*
Y865000D02*
D03*
X347000Y855000D02*
D03*
Y865000D02*
D03*
X945000Y925000D02*
D03*
Y915000D02*
D03*
X983000Y925000D02*
D03*
Y915000D02*
D03*
X1021000Y925000D02*
D03*
Y915000D02*
D03*
X1059000Y925000D02*
D03*
Y915000D02*
D03*
X107000Y339000D02*
D03*
Y329000D02*
D03*
Y353000D02*
D03*
Y363000D02*
D03*
X900000Y569000D02*
D03*
Y559000D02*
D03*
Y382000D02*
D03*
Y372000D02*
D03*
X10000Y884000D02*
D03*
Y894000D02*
D03*
X799000Y954000D02*
D03*
Y964000D02*
D03*
X815000Y954000D02*
D03*
Y964000D02*
D03*
X831000Y954000D02*
D03*
Y964000D02*
D03*
X178000Y85000D02*
D03*
Y75000D02*
D03*
X162000Y75000D02*
D03*
Y85000D02*
D03*
X705000Y773000D02*
D03*
Y763000D02*
D03*
X452000Y722000D02*
D03*
Y712000D02*
D03*
X356000Y708000D02*
D03*
Y718000D02*
D03*
X107000Y387000D02*
D03*
Y397000D02*
D03*
D15*
X1238500Y917000D02*
D03*
X1169500D02*
D03*
D24*
X371500Y926500D02*
D03*
Y921500D02*
D03*
Y916500D02*
D03*
Y911500D02*
D03*
Y906500D02*
D03*
Y901500D02*
D03*
Y896500D02*
D03*
Y891500D02*
D03*
X322500D02*
D03*
Y896500D02*
D03*
Y901500D02*
D03*
Y906500D02*
D03*
Y911500D02*
D03*
Y916500D02*
D03*
Y921500D02*
D03*
Y926500D02*
D03*
D25*
X329500Y933500D02*
D03*
X334500D02*
D03*
X339500D02*
D03*
X344500D02*
D03*
X349500D02*
D03*
X354500D02*
D03*
X359500D02*
D03*
X364500D02*
D03*
Y884500D02*
D03*
X359500D02*
D03*
X354500D02*
D03*
X349500D02*
D03*
X344500D02*
D03*
X339500D02*
D03*
X334500D02*
D03*
X329500D02*
D03*
D26*
X347000Y909000D02*
D03*
D35*
X333000Y753950D02*
D03*
Y766650D02*
D03*
Y779350D02*
D03*
Y792050D02*
D03*
X389000Y753950D02*
D03*
Y766650D02*
D03*
Y779350D02*
D03*
Y792050D02*
D03*
D36*
X32950Y176000D02*
D03*
X45650D02*
D03*
X58350D02*
D03*
X71050D02*
D03*
X32950Y120000D02*
D03*
X45650D02*
D03*
X58350D02*
D03*
X71050D02*
D03*
D38*
X388500Y880500D02*
D03*
X401500D02*
D03*
X395000Y861500D02*
D03*
X455500Y738500D02*
D03*
X442500D02*
D03*
X449000Y757500D02*
D03*
X435500Y709500D02*
D03*
X422500D02*
D03*
X429000Y728500D02*
D03*
X405500Y709500D02*
D03*
X392500D02*
D03*
X399000Y728500D02*
D03*
D39*
X1249000Y1017000D02*
D03*
X17000Y94000D02*
D03*
X102000Y1079000D02*
D03*
X1241000Y56000D02*
D03*
D42*
X516000Y354500D02*
D03*
Y369500D02*
D03*
X1143000Y834500D02*
D03*
Y849500D02*
D03*
X814000Y75500D02*
D03*
Y90500D02*
D03*
X93000Y144500D02*
D03*
Y159500D02*
D03*
X495000Y354500D02*
D03*
Y369500D02*
D03*
X989000Y325500D02*
D03*
Y340500D02*
D03*
Y307500D02*
D03*
Y292500D02*
D03*
D43*
X580750Y1042000D02*
D03*
Y1050000D02*
D03*
X599250Y1042000D02*
D03*
Y1050000D02*
D03*
X218750Y916000D02*
D03*
Y924000D02*
D03*
X237250Y916000D02*
D03*
Y924000D02*
D03*
D44*
X580000Y922000D02*
D03*
X570000Y1015000D02*
D03*
D45*
X580000Y904000D02*
D03*
X560000Y924000D02*
D03*
Y904000D02*
D03*
X570000Y997000D02*
D03*
X550000Y1017000D02*
D03*
Y997000D02*
D03*
D46*
X166000Y175192D02*
D03*
Y150808D02*
D03*
X183000Y175192D02*
D03*
Y150808D02*
D03*
D47*
X1112000Y743000D02*
D03*
X1102000D02*
D03*
X1090000Y774000D02*
D03*
X1100000D02*
D03*
X1137000Y728000D02*
D03*
X1147000D02*
D03*
X1113000Y699000D02*
D03*
X1123000D02*
D03*
X1102000Y758000D02*
D03*
X1112000D02*
D03*
X1113000Y728000D02*
D03*
X1123000D02*
D03*
X232000Y191000D02*
D03*
X242000D02*
D03*
X320000D02*
D03*
X310000D02*
D03*
X280000D02*
D03*
X290000D02*
D03*
X430000D02*
D03*
X440000D02*
D03*
X266000D02*
D03*
X256000D02*
D03*
X417000Y769000D02*
D03*
X407000D02*
D03*
X601000Y191000D02*
D03*
X591000D02*
D03*
X680000Y764000D02*
D03*
X690000D02*
D03*
X720000Y773000D02*
D03*
X730000D02*
D03*
X318000Y386000D02*
D03*
X328000D02*
D03*
X82000Y338000D02*
D03*
X92000D02*
D03*
X82000Y354000D02*
D03*
X92000D02*
D03*
X641000Y431000D02*
D03*
X631000D02*
D03*
X621000Y431000D02*
D03*
X631000D02*
D03*
X641000Y445000D02*
D03*
X631000D02*
D03*
X621000D02*
D03*
X631000D02*
D03*
X641000Y475000D02*
D03*
X631000D02*
D03*
X621000D02*
D03*
X631000D02*
D03*
X641000Y461000D02*
D03*
X631000D02*
D03*
X621000D02*
D03*
X631000D02*
D03*
X124000Y829000D02*
D03*
X114000D02*
D03*
X59000Y1001000D02*
D03*
X69000D02*
D03*
X668000Y388000D02*
D03*
X678000D02*
D03*
X1113000Y683000D02*
D03*
X1123000D02*
D03*
X363000Y735000D02*
D03*
X373000D02*
D03*
X184000Y191000D02*
D03*
X194000D02*
D03*
X208000D02*
D03*
X218000D02*
D03*
X280000Y207000D02*
D03*
X290000D02*
D03*
D50*
X95000Y733200D02*
D03*
Y670800D02*
D03*
D51*
X1138000Y951500D02*
D03*
Y920500D02*
D03*
X1265000Y776500D02*
D03*
Y745500D02*
D03*
X119000Y943500D02*
D03*
Y974500D02*
D03*
D52*
X910500Y956000D02*
D03*
X941500D02*
D03*
D54*
X1109000Y811500D02*
D03*
Y830500D02*
D03*
X119000Y902500D02*
D03*
Y921500D02*
D03*
Y867500D02*
D03*
Y848500D02*
D03*
D55*
X584500Y715000D02*
D03*
X599500D02*
D03*
X114500Y762000D02*
D03*
X99500D02*
D03*
X153500Y192000D02*
D03*
X168500D02*
D03*
D56*
X1116000Y793000D02*
D03*
X1126000D02*
D03*
X1199000Y754000D02*
D03*
X1209000D02*
D03*
X1209000Y838000D02*
D03*
X1199000D02*
D03*
X1116000Y780000D02*
D03*
X1126000D02*
D03*
X295000Y885000D02*
D03*
X305000D02*
D03*
X295000Y914000D02*
D03*
X305000D02*
D03*
X295000Y929000D02*
D03*
X305000D02*
D03*
X305000Y871000D02*
D03*
X295000D02*
D03*
X295000Y899000D02*
D03*
X305000D02*
D03*
X528000Y186000D02*
D03*
X538000D02*
D03*
X422000Y473000D02*
D03*
X412000D02*
D03*
X629000Y747000D02*
D03*
X639000D02*
D03*
X639000Y735000D02*
D03*
X629000D02*
D03*
X690000D02*
D03*
X680000D02*
D03*
X680000Y749000D02*
D03*
X690000D02*
D03*
X720000Y758000D02*
D03*
X730000D02*
D03*
X34000Y190000D02*
D03*
X44000D02*
D03*
X519000Y334000D02*
D03*
X529000D02*
D03*
X677000Y373000D02*
D03*
X667000D02*
D03*
X798000D02*
D03*
X788000D02*
D03*
X578000D02*
D03*
X588000D02*
D03*
X505000Y334000D02*
D03*
X495000D02*
D03*
X448000Y371000D02*
D03*
X438000D02*
D03*
X124000Y885000D02*
D03*
X114000D02*
D03*
X87000Y1000000D02*
D03*
X97000D02*
D03*
X25000D02*
D03*
X35000D02*
D03*
X328000Y371000D02*
D03*
X318000D02*
D03*
X228000D02*
D03*
X238000D02*
D03*
X138000Y194000D02*
D03*
X128000D02*
D03*
X430000Y85000D02*
D03*
X440000D02*
D03*
D57*
X600000Y1009000D02*
D03*
Y999000D02*
D03*
X415000Y75000D02*
D03*
Y85000D02*
D03*
X300000Y75000D02*
D03*
Y85000D02*
D03*
X225000Y75000D02*
D03*
Y85000D02*
D03*
X1128000Y751000D02*
D03*
Y761000D02*
D03*
X1209000Y791000D02*
D03*
Y801000D02*
D03*
X1127000Y823000D02*
D03*
Y813000D02*
D03*
X814000Y50000D02*
D03*
Y60000D02*
D03*
X421000Y744000D02*
D03*
Y754000D02*
D03*
X407000Y744000D02*
D03*
Y754000D02*
D03*
X942000Y726000D02*
D03*
Y716000D02*
D03*
X983000Y726000D02*
D03*
Y716000D02*
D03*
X1021000Y726000D02*
D03*
Y716000D02*
D03*
X1124000Y984000D02*
D03*
Y974000D02*
D03*
X1059000Y726000D02*
D03*
Y716000D02*
D03*
X641000Y760000D02*
D03*
Y770000D02*
D03*
X667000Y760000D02*
D03*
Y770000D02*
D03*
X638000Y722000D02*
D03*
Y712000D02*
D03*
X652000Y722000D02*
D03*
Y712000D02*
D03*
X654000Y760000D02*
D03*
Y770000D02*
D03*
X680000Y712000D02*
D03*
Y722000D02*
D03*
X666000Y722000D02*
D03*
Y712000D02*
D03*
X1286000Y756000D02*
D03*
Y746000D02*
D03*
X16000Y120000D02*
D03*
Y130000D02*
D03*
X109000Y161000D02*
D03*
Y151000D02*
D03*
X900000Y545000D02*
D03*
Y535000D02*
D03*
X306000Y523000D02*
D03*
Y533000D02*
D03*
Y555000D02*
D03*
Y565000D02*
D03*
X10000Y918000D02*
D03*
Y908000D02*
D03*
X114000Y198000D02*
D03*
Y208000D02*
D03*
Y283000D02*
D03*
Y273000D02*
D03*
Y223000D02*
D03*
Y233000D02*
D03*
Y259000D02*
D03*
Y249000D02*
D03*
X343000Y223000D02*
D03*
Y233000D02*
D03*
X1131000Y443000D02*
D03*
Y453000D02*
D03*
X1131000Y468000D02*
D03*
Y478000D02*
D03*
D63*
X193000Y901000D02*
D03*
D64*
X432000Y862000D02*
D03*
X441500Y882000D02*
D03*
X422500D02*
D03*
X175000Y901000D02*
D03*
X195000Y921000D02*
D03*
X175000D02*
D03*
D72*
X73000Y643800D02*
D03*
Y438300D02*
D03*
D73*
X280000Y570900D02*
D03*
Y558200D02*
D03*
Y545500D02*
D03*
Y532800D02*
D03*
Y520100D02*
D03*
Y507400D02*
D03*
Y494700D02*
D03*
Y482000D02*
D03*
D76*
X571750Y858000D02*
Y860245D01*
X578250Y858000D02*
Y860245D01*
X563250Y916386D02*
Y938850D01*
X576750Y893245D02*
Y909250D01*
X553250Y1010386D02*
Y1043614D01*
X566750Y981049D02*
Y1003250D01*
X195000Y917750D02*
X202750D01*
X186386D02*
X195000D01*
X168250Y904250D02*
X175000D01*
X179250D01*
X364500Y878500D02*
X366500Y876500D01*
X364500Y940500D02*
X365500Y941500D01*
X872000Y491000D02*
X884000Y503000D01*
X895000D01*
X1060000Y342000D02*
Y395929D01*
X1054500Y336500D02*
X1060000Y342000D01*
X1049500Y336500D02*
X1054500D01*
X1030000Y425929D02*
X1060000Y395929D01*
X831500Y592500D02*
X838000Y586000D01*
Y577700D02*
Y586000D01*
X832800Y572500D02*
X838000Y577700D01*
X801429Y592500D02*
X831500D01*
X842000Y571929D02*
Y590000D01*
X829000Y603000D02*
X842000Y590000D01*
X788000Y603000D02*
X829000D01*
X856500Y572500D02*
X861200D01*
X846000Y600928D02*
X861200Y585728D01*
Y582500D02*
Y585728D01*
X220000Y291000D02*
X249000D01*
X685000Y625000D02*
X693000D01*
X616000Y632000D02*
X678000D01*
X685000Y625000D01*
X591000Y607000D02*
X616000Y632000D01*
X846000Y600928D02*
Y605000D01*
X845000Y606000D02*
X846000Y605000D01*
X844929Y606000D02*
X845000D01*
X841000Y609929D02*
X844929Y606000D01*
X841000Y609929D02*
Y616000D01*
X793929Y617000D02*
X810000D01*
X835000Y622000D02*
X841000Y616000D01*
X815000Y622000D02*
X835000D01*
X810000Y617000D02*
X815000Y622000D01*
X852000Y602800D02*
Y618000D01*
X842500Y627500D02*
X852000Y618000D01*
X802500Y627500D02*
X842500D01*
X650000Y1032364D02*
X661000Y1021364D01*
Y900960D02*
Y1021364D01*
X650000Y889960D02*
X661000Y900960D01*
X633864Y1048500D02*
X650000Y1032364D01*
X645790Y885750D02*
X650000Y889960D01*
X160000Y214000D02*
Y255000D01*
X132000Y283000D02*
X160000Y255000D01*
X132000Y283000D02*
Y312000D01*
X177750Y246250D02*
X191000D01*
X141000Y283000D02*
X177750Y246250D01*
X141000Y283000D02*
Y311000D01*
X160000Y214000D02*
X172000Y202000D01*
X1130000Y686000D02*
X1142000Y674000D01*
X1148000D01*
X1153000Y679000D01*
Y696000D01*
X72500Y876500D02*
X77500D01*
X103000Y851000D01*
Y840000D02*
Y851000D01*
Y840000D02*
X114000Y829000D01*
X750000Y374000D02*
X756000Y368000D01*
X726000Y374000D02*
X750000D01*
X715000Y385000D02*
X726000Y374000D01*
X704000Y385000D02*
X715000D01*
X694000Y395000D02*
X704000Y385000D01*
X655000Y395000D02*
X694000D01*
X705000Y406000D02*
X726000Y385000D01*
X654000Y406000D02*
X705000D01*
X647000Y413000D02*
X654000Y406000D01*
X707000Y414000D02*
X729000Y392000D01*
X655000Y414000D02*
X707000D01*
X650000Y419000D02*
X655000Y414000D01*
X606929Y392000D02*
X622929Y408000D01*
X559000Y392000D02*
X606929D01*
X540000Y411000D02*
X559000Y392000D01*
X540000Y411000D02*
Y438000D01*
X306000Y226000D02*
Y234000D01*
X309500Y237500D01*
X314500D01*
X318000Y206000D02*
X321000Y209000D01*
X290000Y206000D02*
X318000D01*
X297000Y194000D02*
X303500Y200500D01*
X975000Y373000D02*
Y413071D01*
X993000Y362000D02*
X1003500Y351500D01*
X975000Y373000D02*
X986000Y362000D01*
X993000D01*
X1009000Y359000D02*
X1014071D01*
X984000Y384000D02*
X1009000Y359000D01*
X984000Y384000D02*
Y406071D01*
X1003500Y351500D02*
X1014500D01*
X210000Y40050D02*
X222500Y27550D01*
X210000Y40050D02*
Y75000D01*
X117500Y339000D02*
X118500Y340000D01*
X92000Y338000D02*
X93000Y339000D01*
X107000D01*
X117500D01*
X303500Y200500D02*
X321000D01*
X255000Y297000D02*
X375000D01*
X596000Y296000D02*
X602000Y302000D01*
X606000Y297000D02*
X632000D01*
X598000Y289000D02*
X606000Y297000D01*
X564000Y296000D02*
X596000D01*
X563000Y289000D02*
X598000D01*
X612000Y191000D02*
X613000Y190000D01*
X601000Y191000D02*
X612000D01*
X591500Y175500D02*
X601000Y185000D01*
Y191000D01*
X173250Y233250D02*
X191000D01*
X171000Y231000D02*
X173250Y233250D01*
X230000Y710000D02*
X245000Y695000D01*
X213929Y710000D02*
X230000D01*
X208000Y704071D02*
X213929Y710000D01*
X162000Y75000D02*
X162000Y75000D01*
X170000D01*
X178000D01*
X1107500Y387000D02*
X1123000D01*
X1097000Y397500D02*
X1107500Y387000D01*
X1123000D02*
X1133500Y397500D01*
X1050000Y442000D02*
X1094500Y397500D01*
X1050000Y442000D02*
Y449000D01*
X900050Y372050D02*
X930000D01*
X886000Y378000D02*
X891000Y373000D01*
Y344000D02*
Y373000D01*
X685250Y958750D02*
X698000Y946000D01*
X702000Y502000D02*
X705000Y499000D01*
X651000Y502000D02*
X702000D01*
X634000Y519000D02*
X651000Y502000D01*
X1126500Y400000D02*
X1129000Y402500D01*
X1116000Y400000D02*
X1126500D01*
X1087000Y429000D02*
X1116000Y400000D01*
X1130500Y412500D02*
X1140500D01*
X1113000Y430000D02*
X1130500Y412500D01*
X1113000Y430000D02*
Y480000D01*
X1072000Y460000D02*
Y466071D01*
X1042000Y477000D02*
X1061071D01*
X1072000Y466071D01*
X1140500Y412500D02*
X1145500Y407500D01*
X1099000Y494000D02*
X1113000Y480000D01*
X818000Y947000D02*
X828000D01*
X831000Y950000D01*
X131000Y321000D02*
X141000Y311000D01*
X131000Y321000D02*
Y371000D01*
X138000Y322000D02*
X160000Y300000D01*
X138000Y322000D02*
Y374000D01*
X124000Y320000D02*
X132000Y312000D01*
X124000Y320000D02*
Y367000D01*
X115000Y387000D02*
X131000Y371000D01*
X115000Y397000D02*
X138000Y374000D01*
X118000Y373000D02*
X124000Y367000D01*
X334000Y612000D02*
Y639929D01*
X320000Y598000D02*
X334000Y612000D01*
X278000Y598000D02*
X320000D01*
X217000Y537000D02*
X278000Y598000D01*
X380050Y792050D02*
X389000D01*
X353000Y765000D02*
X380050Y792050D01*
X353000Y756000D02*
Y765000D01*
X190750Y622750D02*
Y733250D01*
X128000Y560000D02*
X190750Y622750D01*
X116000Y430000D02*
Y594000D01*
X208000Y626000D02*
Y704071D01*
X140000Y558000D02*
X208000Y626000D01*
X140000Y457000D02*
Y558000D01*
X104000Y606000D02*
X135000Y637000D01*
X104000Y417000D02*
Y606000D01*
X96000Y409000D02*
X104000Y417000D01*
X116000Y430000D02*
X144000Y402000D01*
X128000Y446000D02*
Y560000D01*
Y446000D02*
X143000Y431000D01*
X140000Y457000D02*
X158000Y439000D01*
X151000Y456000D02*
Y555000D01*
Y456000D02*
X160000Y447000D01*
X96000Y390000D02*
Y409000D01*
X143000Y431000D02*
X163000D01*
X214000Y390000D02*
X258000D01*
X165000Y439000D02*
X214000Y390000D01*
X158000Y439000D02*
X165000D01*
X327000Y437000D02*
X387000Y377000D01*
Y365000D02*
Y377000D01*
X382750Y360750D02*
X387000Y365000D01*
X382750Y337250D02*
Y360750D01*
X322000Y462000D02*
X327000Y457000D01*
Y437000D02*
Y457000D01*
X322000Y462000D02*
Y481000D01*
X389000Y331000D02*
X410000D01*
X382750Y337250D02*
X389000Y331000D01*
X414000Y335000D02*
Y351000D01*
X410000Y331000D02*
X414000Y335000D01*
X336000Y495000D02*
Y515501D01*
X322000Y481000D02*
X336000Y495000D01*
X561000Y406000D02*
X611000D01*
X550000Y417000D02*
X561000Y406000D01*
X618000Y413000D02*
X647000D01*
X611000Y406000D02*
X618000Y413000D01*
X726000Y385000D02*
X752000D01*
X729000Y392000D02*
X761000D01*
X717071Y376000D02*
X738000Y355071D01*
X700000Y376000D02*
X717071D01*
X738000Y355000D02*
Y355071D01*
X752000Y385000D02*
X764000Y373000D01*
X761000Y392000D02*
X772000Y381000D01*
X591500Y163000D02*
Y175500D01*
X966850Y907095D02*
Y917000D01*
X969950Y893025D02*
Y903995D01*
X966850Y907095D02*
X969950Y903995D01*
X960350Y907095D02*
Y917000D01*
X957250Y903995D02*
X960350Y907095D01*
X957250Y893025D02*
Y903995D01*
X928750Y907095D02*
Y938000D01*
X931850Y893025D02*
Y903995D01*
X928750Y907095D02*
X931850Y903995D01*
X922250Y907095D02*
Y938000D01*
X919150Y903995D02*
X922250Y907095D01*
X919150Y893025D02*
Y903995D01*
X1008050Y893025D02*
Y903995D01*
X1004950Y907095D02*
X1008050Y903995D01*
X1004950Y907095D02*
Y911000D01*
X998450Y907095D02*
Y911000D01*
X995350Y903995D02*
X998450Y907095D01*
X995350Y893025D02*
Y903995D01*
X1036550Y907095D02*
Y911000D01*
X1033450Y903995D02*
X1036550Y907095D01*
X1033450Y893025D02*
Y903995D01*
X1043050Y907095D02*
Y911000D01*
X1046150Y893025D02*
Y903995D01*
X1043050Y907095D02*
X1046150Y903995D01*
X841000Y912000D02*
X894000D01*
X907000Y899000D01*
X800000Y675000D02*
Y693000D01*
X770000Y723000D02*
X800000Y693000D01*
X767000Y723000D02*
X770000D01*
X827692Y683500D02*
X832000D01*
X832500Y683000D01*
X823000Y688192D02*
X827692Y683500D01*
X825000Y677000D02*
X832500D01*
X816500Y685500D02*
X825000Y677000D01*
X980692Y673500D02*
X1004950Y697758D01*
X911000Y673500D02*
X980692D01*
X998450Y700450D02*
Y732895D01*
X978000Y680000D02*
X998450Y700450D01*
X867729Y680000D02*
X978000D01*
X1004950Y697758D02*
Y732895D01*
X822192Y754000D02*
X863000D01*
X800000Y731808D02*
X822192Y754000D01*
X800000Y720000D02*
Y731808D01*
X819500Y760500D02*
X865692D01*
X793500Y734500D02*
X819500Y760500D01*
X793500Y720000D02*
Y734500D01*
X873692Y704500D02*
X913500D01*
X861692Y716500D02*
X873692Y704500D01*
X871000Y698000D02*
X916192D01*
X861692Y716500D02*
Y726000D01*
X855000Y715308D02*
X855192Y715115D01*
Y728692D01*
Y713808D02*
Y715115D01*
Y713808D02*
X871000Y698000D01*
X865692Y760500D02*
X873500Y752692D01*
X861692Y726000D02*
X873500Y737808D01*
Y752692D01*
X855192Y728692D02*
X867000Y740500D01*
X863000Y754000D02*
X867000Y750000D01*
Y740500D02*
Y750000D01*
X919150Y735995D02*
Y746975D01*
Y735995D02*
X922250Y732895D01*
Y713250D02*
Y732895D01*
X913500Y704500D02*
X922250Y713250D01*
X931850Y735995D02*
Y746975D01*
X928750Y732895D02*
X931850Y735995D01*
X928750Y710558D02*
Y732895D01*
X916192Y698000D02*
X928750Y710558D01*
X1046150Y735995D02*
Y746975D01*
X1043050Y732895D02*
X1046150Y735995D01*
X1043050Y692050D02*
Y732895D01*
X1022000Y671000D02*
X1043050Y692050D01*
X1022000Y632000D02*
Y671000D01*
X1033450Y735995D02*
X1036550Y732895D01*
X1033450Y735995D02*
Y746975D01*
X1036550Y694742D02*
Y732895D01*
X1015500Y673692D02*
X1036550Y694742D01*
X1015500Y632000D02*
Y673692D01*
X960350Y726308D02*
X963500Y723158D01*
Y712692D02*
Y723158D01*
X960350Y726308D02*
Y732895D01*
X959500Y708692D02*
X963500Y712692D01*
X959500Y694500D02*
Y708692D01*
X957250Y735995D02*
X960350Y732895D01*
X957250Y735995D02*
Y746975D01*
X966850Y729000D02*
X970000Y725850D01*
X966000Y706000D02*
X970000Y710000D01*
X969950Y735995D02*
Y746975D01*
X966850Y732895D02*
X969950Y735995D01*
X970000Y710000D02*
Y725850D01*
X966850Y729000D02*
Y732895D01*
X966000Y694500D02*
Y706000D01*
X816500Y695692D02*
X826308Y705500D01*
X816500Y685500D02*
Y695692D01*
X823000Y688192D02*
Y693000D01*
X829000Y699000D01*
X865036Y673500D02*
X897000D01*
X902000Y665250D02*
X906000D01*
X909000Y668250D01*
Y671500D01*
X911000Y673500D01*
X899000Y668250D02*
X902000Y665250D01*
X899000Y668250D02*
Y671500D01*
X897000Y673500D02*
X899000Y671500D01*
X995350Y735995D02*
X998450Y732895D01*
X995350Y735995D02*
Y746975D01*
X842229Y705500D02*
X867729Y680000D01*
X826308Y705500D02*
X842229D01*
X1008050Y735995D02*
Y746975D01*
X1004950Y732895D02*
X1008050Y735995D01*
X839536Y699000D02*
X865036Y673500D01*
X829000Y699000D02*
X839536D01*
X829571Y657000D02*
X840571Y668000D01*
X850800D01*
X855300Y672500D01*
X888000Y644000D02*
X928000D01*
X874500Y657500D02*
X888000Y644000D01*
X867300Y657500D02*
X874500D01*
X868000Y649000D02*
X874000D01*
X887000Y636000D01*
X922000D01*
X628000Y367996D02*
Y373750D01*
X636000Y367996D02*
Y373750D01*
X635000Y398996D02*
X636000Y397996D01*
X635000Y398996D02*
Y403000D01*
X628000Y397996D02*
X629000Y398996D01*
Y403000D01*
X615000Y417000D02*
X617000Y419000D01*
X650000D01*
X642000Y408000D02*
X655000Y395000D01*
X622929Y408000D02*
X642000D01*
X978000Y439000D02*
X999000D01*
X969000Y448000D02*
X978000Y439000D01*
X969000Y448000D02*
Y463000D01*
X699000Y632000D02*
X719000Y612000D01*
X690929Y632000D02*
X699000D01*
X688000Y634929D02*
X690929Y632000D01*
X424000Y643000D02*
X425778D01*
X429886Y648250D02*
X478636Y697000D01*
X508364D01*
X559972Y682250D02*
X560722Y683000D01*
X562500D01*
X560722Y677000D02*
X562500D01*
X559972Y677750D02*
X560722Y677000D01*
X424000Y649000D02*
X425778D01*
X431750Y643750D02*
X480500Y692500D01*
X426528Y643750D02*
X431750D01*
X425778Y649000D02*
X426528Y648250D01*
X429886D01*
X521250Y677750D02*
X559972D01*
X480500Y692500D02*
X506500D01*
X521250Y677750D01*
X425778Y643000D02*
X426528Y643750D01*
X508364Y697000D02*
X523114Y682250D01*
X559972D01*
X488500Y667500D02*
X504000D01*
X484500Y663500D02*
X488500Y667500D01*
X485808Y674000D02*
X506692D01*
X478000Y666192D02*
X485808Y674000D01*
X456250Y642750D02*
X467942D01*
X586050Y668250D02*
X586300Y668000D01*
X568000Y668250D02*
X586050D01*
X558346Y658596D02*
X568000Y668250D01*
X524000Y665192D02*
X530596Y658596D01*
X558346D01*
X506692Y674000D02*
X515500Y665192D01*
X524000D01*
X586050Y661750D02*
X586300Y662000D01*
X570692Y661750D02*
X586050D01*
X561039Y652096D02*
X570692Y661750D01*
X521308Y658692D02*
X527904Y652096D01*
X561039D01*
X504000Y667500D02*
X512808Y658692D01*
X521308D01*
X478000Y662000D02*
Y666192D01*
X465250Y649250D02*
X478000Y662000D01*
X484500Y659308D02*
Y663500D01*
X467942Y642750D02*
X484500Y659308D01*
X456000Y649250D02*
X465250D01*
X470000Y722000D02*
X470000Y722000D01*
X479000D01*
X262000Y376000D02*
Y386000D01*
X258000Y390000D02*
X262000Y386000D01*
X144000Y402000D02*
X175000D01*
X561000Y551000D02*
X615000D01*
X549500Y562500D02*
X561000Y551000D01*
X532700Y562500D02*
X549500D01*
X559300D02*
X610500D01*
X165000Y233071D02*
X170929Y239000D01*
X165000Y227000D02*
Y233071D01*
X1147000Y728000D02*
Y728000D01*
X1151000D02*
X1153000Y730000D01*
X1147000Y728000D02*
X1151000D01*
X1123000Y668000D02*
X1131000Y660000D01*
X1136000D01*
X1138000Y691000D02*
Y696000D01*
Y691000D02*
X1143000Y686000D01*
X1148000D01*
X1123000Y668000D02*
Y683000D01*
X1130000Y686000D02*
Y697000D01*
X1197000Y847000D02*
X1217000D01*
X889600Y549600D02*
Y562500D01*
X732657Y224000D02*
X732657Y224000D01*
X633000Y205000D02*
X721000D01*
X584000Y243000D02*
X591000Y236000D01*
X587000Y226000D02*
X612000D01*
X576000Y237000D02*
X587000Y226000D01*
X600000Y216000D02*
X605071D01*
X577000D02*
X600000D01*
X94000Y373000D02*
X118000D01*
X42000Y425000D02*
X94000Y373000D01*
X42000Y425000D02*
Y791000D01*
X96000Y390000D02*
X99000Y387000D01*
X900050Y372050D02*
X901000Y372050D01*
X571000Y163000D02*
X571000Y163000D01*
X634250Y366245D02*
X636000Y367996D01*
X636000Y351000D02*
Y362996D01*
X634250Y364746D02*
X636000Y362996D01*
X634250Y364746D02*
Y366245D01*
X628000Y367996D02*
X629750Y366246D01*
Y364746D02*
Y366246D01*
X628000Y351000D02*
Y362996D01*
X629750Y364746D01*
X54000Y154000D02*
X58000D01*
X700000Y351000D02*
Y376000D01*
X688000Y388000D02*
X700000Y376000D01*
X375000Y297000D02*
X378000Y294000D01*
Y242000D02*
Y294000D01*
Y242000D02*
X400000Y220000D01*
X417000Y326000D02*
X422000Y331000D01*
X385000Y326000D02*
X417000D01*
X375000Y336000D02*
X385000Y326000D01*
X526000Y305000D02*
X533000Y312000D01*
X515000Y286000D02*
X534000Y305000D01*
X511000Y286000D02*
X515000D01*
X549000Y163000D02*
Y189000D01*
X1115602Y758000D02*
X1134602Y777000D01*
X1112000Y758000D02*
X1115602D01*
X1153000Y730000D02*
Y746000D01*
X1138000Y719000D02*
X1147000Y728000D01*
X1138000Y706000D02*
Y719000D01*
X1177070Y831000D02*
X1179000Y832930D01*
X1182930D01*
X1197000Y847000D01*
X1158500Y827500D02*
Y846500D01*
X1159000Y847000D01*
X1163500Y822500D02*
Y829500D01*
X1168500Y822500D02*
Y829500D01*
Y761500D02*
Y765000D01*
X1153000Y746000D02*
X1168500Y761500D01*
X1159000Y727000D02*
Y744000D01*
X1173500Y758500D02*
Y764750D01*
X1159000Y744000D02*
X1173500Y758500D01*
X1133500Y417500D02*
X1144300Y428300D01*
X1147500D01*
X320000Y587000D02*
X331000Y576000D01*
X1084500Y366500D02*
Y373000D01*
Y366500D02*
X1084500Y366500D01*
X835500Y318308D02*
X865308Y288500D01*
X915996Y286150D02*
X930000D01*
X912896Y283050D02*
X915996Y286150D01*
X842000Y321000D02*
Y376692D01*
X915996Y273450D02*
X930000D01*
X912896Y276550D02*
X915996Y273450D01*
X739558Y412250D02*
X769750D01*
X835500Y318308D02*
Y374000D01*
X842000Y321000D02*
X868000Y295000D01*
X997929Y420000D02*
X998000D01*
X1014071Y359000D02*
X1024500Y348571D01*
Y348500D02*
Y348571D01*
X776000Y534000D02*
X809000D01*
X286000Y373996D02*
Y379750D01*
X286000Y351000D02*
Y362996D01*
X284250Y364746D02*
X286000Y362996D01*
X284250Y372245D02*
X286000Y373996D01*
X284250Y364746D02*
Y372245D01*
X278000Y373996D02*
X279750Y372246D01*
X278000Y373996D02*
Y379750D01*
X279750Y364746D02*
Y372246D01*
X278000Y351000D02*
Y362996D01*
X279750Y364746D01*
X315000Y432000D02*
X375000Y372000D01*
X315000Y432000D02*
Y486000D01*
X641000Y531000D02*
X655000Y517000D01*
X572000Y531000D02*
X641000D01*
X721000Y796000D02*
X725000D01*
X674000Y843000D02*
X721000Y796000D01*
X645000Y843000D02*
X674000D01*
X599000Y889000D02*
X645000Y843000D01*
X716071Y913000D02*
X732000D01*
X739000Y906000D01*
X823000Y972000D02*
X831000Y964000D01*
X823000Y972000D02*
Y975000D01*
X723000Y666000D02*
X724000Y667000D01*
X740000Y695000D02*
X759000Y676000D01*
X732000Y702000D02*
X743000D01*
X766000Y679000D01*
X676000Y699000D02*
X682000Y705000D01*
X698000Y712000D02*
Y721000D01*
X124000Y829000D02*
X192000D01*
X322000Y523000D02*
X334000D01*
X336000Y515501D02*
Y521000D01*
X334000Y523000D02*
X336000Y521000D01*
X280000Y507400D02*
X313400D01*
X321501Y515501D01*
X326000D01*
X315000Y486000D02*
X326000Y497000D01*
Y515501D01*
X298000Y515000D02*
X314000D01*
X322000Y523000D01*
X320000Y529000D02*
X320000Y529000D01*
X324119Y529000D02*
X324119Y529000D01*
X320000Y529000D02*
X324119D01*
X315929Y543000D02*
X325620Y533309D01*
Y530501D02*
Y533309D01*
X326000Y540000D02*
X331000Y535000D01*
Y531251D02*
Y535000D01*
X320000Y529000D02*
X324119D01*
X325620Y530501D01*
X292900Y520100D02*
X298000Y515000D01*
X280000Y520100D02*
X292900D01*
X295129Y543000D02*
X315929D01*
X549000Y752000D02*
X600000D01*
X629000Y706000D02*
X636000Y699000D01*
X600000Y752000D02*
X629000Y723000D01*
Y706000D02*
Y723000D01*
X134000Y746000D02*
X168000D01*
X138000Y752000D02*
X172000D01*
X134000Y756000D02*
X138000Y752000D01*
X292629Y545500D02*
X295129Y543000D01*
X280000Y545500D02*
X292629D01*
X422000Y331000D02*
Y351000D01*
X731500Y199571D02*
X736929Y205000D01*
X731500Y181550D02*
Y199571D01*
X736929Y205000D02*
X737000D01*
X703800Y60000D02*
Y78800D01*
X678400Y60000D02*
Y81400D01*
X592000Y249000D02*
X598000Y243000D01*
X592000Y249000D02*
Y269000D01*
X600000Y253000D02*
X603000Y250000D01*
X576000Y237000D02*
Y269000D01*
X584000Y243000D02*
Y269000D01*
X691400Y47000D02*
X703800Y34600D01*
X395000Y42000D02*
X408050D01*
X422500Y27550D01*
X300000Y85000D02*
X315000D01*
X285000D02*
X300000D01*
X269000Y85000D02*
X279000Y75000D01*
X285000D01*
X327500Y207000D02*
Y218500D01*
X321000Y200500D02*
X327500Y207000D01*
X290000Y191000D02*
Y206000D01*
X321000Y209000D02*
Y218500D01*
X262200Y161200D02*
X280000Y179000D01*
Y191000D01*
X313000Y172000D02*
X320000Y179000D01*
X313000Y150000D02*
Y172000D01*
X320000Y179000D02*
Y191000D01*
X389000Y792050D02*
X397050D01*
X389000Y779350D02*
X399350D01*
X378350D02*
X389000D01*
X309000Y795000D02*
X316000D01*
X309000Y785000D02*
X320000D01*
X325650Y779350D01*
X333000D01*
X319592Y1064500D02*
X351500Y1032592D01*
X339500Y869500D02*
Y884500D01*
X344500Y876000D02*
Y884500D01*
X243500Y963000D02*
Y969000D01*
Y952750D02*
Y963000D01*
X238500Y958750D02*
Y969000D01*
X233500Y963000D02*
Y969000D01*
Y952750D02*
Y963000D01*
X248500Y958750D02*
Y969000D01*
Y952750D02*
Y958750D01*
X329500Y933500D02*
Y938500D01*
X336500Y993750D02*
Y1004000D01*
X277500Y1064500D02*
X319592D01*
X261106Y1008818D02*
Y1020106D01*
X264000Y1023000D02*
X281000D01*
X261106Y1020106D02*
X264000Y1023000D01*
X233378Y1020378D02*
X236000Y1023000D01*
X233378Y1008818D02*
Y1020378D01*
X274864Y1037182D02*
Y1047864D01*
X285000Y1058000D01*
X317000D01*
X294744Y987000D02*
X316563Y1008818D01*
X252000Y987000D02*
X294744D01*
X248500Y983500D02*
X252000Y987000D01*
X248500Y979000D02*
Y983500D01*
X273015Y993000D02*
X288834Y1008818D01*
X233500Y979000D02*
Y983500D01*
X230000Y987000D02*
X233500Y983500D01*
X208000Y987000D02*
X230000D01*
X192000Y1003000D02*
X208000Y987000D01*
X192000Y1003000D02*
Y1037000D01*
X210000Y1055000D01*
X229317D01*
X247136Y1037182D01*
X238500Y979000D02*
Y989500D01*
X235000Y993000D02*
X238500Y989500D01*
X612000Y351000D02*
Y381000D01*
X612000Y381000D01*
X350000Y336000D02*
Y337000D01*
X350000Y337000D02*
X350000Y337000D01*
X350000Y337000D02*
Y351000D01*
X190750Y240000D02*
X191000Y239750D01*
X526000Y571000D02*
X526200D01*
X532700Y577500D01*
X458000Y254000D02*
Y269000D01*
X818000Y914929D02*
Y917000D01*
X600000Y253000D02*
Y269000D01*
X359500Y871500D02*
Y884500D01*
X371500Y896500D02*
X385500D01*
X371500Y906500D02*
X385500D01*
X371500Y916500D02*
X385500D01*
X364500Y878500D02*
Y884500D01*
X371500Y901500D02*
X379500D01*
X371500Y911500D02*
X379500D01*
X371500Y921500D02*
X379500D01*
X516000Y163000D02*
Y173000D01*
X58000Y154000D02*
X71050Y167050D01*
Y176000D01*
X211400Y150000D02*
Y162400D01*
X236800Y150000D02*
Y162800D01*
X256000Y182000D01*
Y191000D01*
X262200Y150000D02*
Y161200D01*
X652000Y351000D02*
Y366000D01*
X660000Y351000D02*
Y366000D01*
X660000Y351000D02*
X660000Y351000D01*
X692000Y351000D02*
Y376000D01*
X815000Y964000D02*
Y968000D01*
X818000Y971000D01*
X813000Y952000D02*
X815000Y954000D01*
X813000Y941000D02*
Y952000D01*
X831000Y950000D02*
Y954000D01*
X1112000Y743000D02*
Y758000D01*
X1112000Y758000D02*
X1112000Y758000D01*
X342000Y351000D02*
X342000Y351000D01*
X900050Y372050D02*
X901000Y372000D01*
X317818Y1037182D02*
X336500Y1018500D01*
X302593Y1037182D02*
X317818D01*
X336500Y1014000D02*
Y1018500D01*
X314000Y1051000D02*
X341500Y1023500D01*
Y1014000D02*
Y1023500D01*
X346500Y1014000D02*
Y1028500D01*
X317000Y1058000D02*
X346500Y1028500D01*
X351500Y1014000D02*
Y1032592D01*
X325000Y943000D02*
X329500Y938500D01*
X354500Y933500D02*
Y941500D01*
X359500Y933500D02*
Y946500D01*
X364500Y933500D02*
Y940500D01*
X327000Y949000D02*
X334500Y941500D01*
Y933500D02*
Y941500D01*
X336500Y987750D02*
Y993750D01*
X341500Y987750D02*
Y998000D01*
Y1004000D01*
X346500Y993750D02*
Y1004000D01*
X351500Y998000D02*
Y1004000D01*
Y987750D02*
Y998000D01*
X346500Y987750D02*
Y993750D01*
X603000Y250000D02*
X655000D01*
X501500Y627500D02*
X504972D01*
X342000Y351000D02*
Y366000D01*
X756000Y351000D02*
Y368000D01*
X170929Y239000D02*
X171000D01*
X172000Y240000D01*
X190750D01*
X262000Y351000D02*
Y366000D01*
X254000Y351000D02*
Y366000D01*
X246000Y351000D02*
Y366000D01*
X302000Y351000D02*
Y377000D01*
X302000Y351000D02*
X302000Y351000D01*
X772000Y351000D02*
Y381000D01*
X764000Y351000D02*
Y373000D01*
X582000Y153000D02*
Y163000D01*
X612000Y226000D02*
X633000Y205000D01*
X420000Y168000D02*
X428000Y160000D01*
X420000Y168000D02*
Y196000D01*
X400000Y220000D02*
X439000D01*
X461000Y198000D01*
X563000Y230000D02*
Y267000D01*
Y230000D02*
X577000Y216000D01*
X322000Y644000D02*
X327000Y639000D01*
X319000Y607000D02*
X327000Y615000D01*
Y639000D01*
X104750Y816250D02*
X127000Y794000D01*
X410000Y790000D02*
Y845000D01*
X400000Y795000D02*
Y845000D01*
X397050Y792050D02*
X400000Y795000D01*
X238500Y952750D02*
Y958750D01*
X838000Y657000D02*
X860000D01*
X868000Y649000D01*
X825800Y576600D02*
X826700Y577500D01*
X824564Y582500D02*
X832800D01*
X854000Y581000D02*
Y585071D01*
Y581000D02*
X857500Y577500D01*
X867300D01*
Y597500D02*
X875000Y589800D01*
X862000Y557000D02*
X875000Y570000D01*
X636000Y699000D02*
X676000D01*
X875000Y570000D02*
Y589800D01*
X852000Y602800D02*
X867300Y587500D01*
X841700Y597371D02*
X854000Y585071D01*
X841700Y597371D02*
Y599571D01*
X832000Y557000D02*
X862000D01*
X809000Y534000D02*
X832000Y557000D01*
X526000Y560000D02*
X535000Y551000D01*
X552000D01*
X572000Y531000D01*
X526000Y560000D02*
Y571000D01*
X818000Y657000D02*
X829571D01*
X800000Y675000D02*
X818000Y657000D01*
X728000Y657000D02*
X733000Y652000D01*
X610500Y562500D02*
X638000Y590000D01*
X311000Y943000D02*
X325000D01*
X316000Y949000D02*
X327000D01*
X311000Y955000D02*
X329000D01*
X316000Y961000D02*
X331000D01*
X124000Y808000D02*
X134000Y798000D01*
X124000Y808000D02*
Y829000D01*
X375000Y336000D02*
Y372000D01*
X243500Y979000D02*
Y989500D01*
X247000Y993000D01*
X273015D01*
X107000Y387000D02*
X115000D01*
X99000D02*
X107000D01*
Y397000D02*
X115000D01*
X190000Y320000D02*
X201000Y309000D01*
X190000Y320000D02*
Y387000D01*
X175000Y402000D02*
X190000Y387000D01*
X160000Y447000D02*
X168000D01*
X217000Y398000D02*
X218000D01*
X168000Y447000D02*
X217000Y398000D01*
X207000Y461000D02*
X226000Y442000D01*
X217000Y464000D02*
X231000Y450000D01*
X275000Y607000D02*
X319000D01*
X207000Y461000D02*
Y539000D01*
X275000Y607000D01*
X217000Y464000D02*
Y537000D01*
X42000Y791000D02*
X47500Y796500D01*
X172000Y752000D02*
X190750Y733250D01*
X134000Y756000D02*
Y798000D01*
X127000Y753000D02*
X134000Y746000D01*
X168000D02*
X174000Y740000D01*
X127000Y753000D02*
Y794000D01*
X174000Y642000D02*
Y740000D01*
X166000Y634000D02*
X174000Y642000D01*
X395000Y852000D02*
Y861500D01*
X331000Y865000D02*
X335000D01*
X339500Y869500D01*
X347000Y865000D02*
Y873500D01*
X344500Y876000D02*
X347000Y873500D01*
X329000Y955000D02*
X339500Y944500D01*
Y933500D02*
Y944500D01*
X331000Y961000D02*
X344500Y947500D01*
Y938000D02*
Y947500D01*
X340000Y960000D02*
X349500Y950500D01*
Y933500D02*
Y950500D01*
X329500Y884500D02*
Y891500D01*
X347000Y909000D01*
X470000Y722000D02*
Y736000D01*
X498000Y764000D01*
X571000Y860995D02*
X571750Y860245D01*
X571000Y860995D02*
Y866750D01*
X578250Y860245D02*
X579000Y860995D01*
Y866750D01*
X361000Y762000D02*
X378350Y779350D01*
X399350D02*
X410000Y790000D01*
X316000Y795000D02*
X356000Y835000D01*
X378000D01*
X395000Y852000D01*
X245000Y695000D02*
X311000D01*
X402350Y769000D02*
X407000D01*
X400000Y766650D02*
X402350Y769000D01*
X389000Y766650D02*
X400000D01*
X429000Y728500D02*
X429000Y728500D01*
X399000Y728500D02*
X429000D01*
X455500Y732500D02*
Y738500D01*
X446500Y712000D02*
X452000D01*
X373000Y735000D02*
X386000D01*
X392500Y728500D01*
X397000D01*
X399000D01*
X435500Y709500D02*
X444000D01*
X446500Y712000D01*
X429000Y728500D02*
X451500D01*
X455500Y732500D01*
X449000Y757500D02*
X458500D01*
X364000Y718000D02*
X372000D01*
X356000D02*
Y724000D01*
X354000Y726000D02*
X356000Y724000D01*
X354000Y726000D02*
Y739000D01*
X354500Y868500D02*
Y884500D01*
Y868500D02*
X359000Y864000D01*
X366000D01*
X382500Y880500D01*
X388500D01*
X306000Y269000D02*
Y283000D01*
X298000Y269000D02*
X298000Y269000D01*
Y283000D01*
X406000Y669364D02*
X415000Y660364D01*
X401500Y667500D02*
X410500Y658500D01*
X408136Y683500D02*
X424136D01*
X393778Y649000D02*
X394528Y648250D01*
X392000Y649000D02*
X393778D01*
X424136Y683500D02*
X439886Y699250D01*
X452472D01*
X453222Y700000D01*
X455000D01*
X392000Y643000D02*
X393778D01*
X394528Y643750D01*
X394528D02*
X394528D01*
X453222Y694000D02*
X455000D01*
X441750Y694750D02*
X452472D01*
X453222Y694000D01*
X415000Y649636D02*
Y660364D01*
X426000Y679000D02*
X441750Y694750D01*
X394528Y648250D02*
X407250D01*
X410500Y651500D01*
Y658500D01*
X394528Y643750D02*
X409114D01*
X415000Y649636D01*
X406000Y669364D02*
Y675000D01*
X410000Y679000D01*
X426000D01*
X401500Y667500D02*
Y676864D01*
X408136Y683500D01*
X418000Y269000D02*
Y283000D01*
X410000Y269000D02*
X410000Y269000D01*
Y283000D01*
X330000Y269000D02*
X330000Y269000D01*
Y283000D01*
X338000Y269000D02*
Y283000D01*
X210000Y85000D02*
X225000D01*
X234000Y85000D02*
X269000D01*
X315000Y75000D02*
X322000D01*
X325000Y78000D01*
Y84000D01*
X315000Y35050D02*
Y75000D01*
Y35050D02*
X322500Y27550D01*
X384000Y53000D02*
Y75000D01*
Y53000D02*
X395000Y42000D01*
X336000Y386000D02*
X350000Y372000D01*
Y351000D02*
Y372000D01*
X328000Y386000D02*
X336000D01*
X116000Y594000D02*
X156000Y634000D01*
X166000D01*
X484000Y627000D02*
X484500Y627500D01*
X484000Y612500D02*
Y627000D01*
Y612500D02*
X494000Y602500D01*
X532000Y521000D02*
X543000Y510000D01*
X520000Y521000D02*
X532000D01*
X502000Y539000D02*
X520000Y521000D01*
X502000Y539000D02*
Y571800D01*
X522700Y592500D01*
X509000Y560000D02*
Y570300D01*
X528700Y590000D02*
Y597500D01*
X509000Y570300D02*
X528700Y590000D01*
X509000Y560000D02*
X550000Y519000D01*
X634000D01*
X490000Y484000D02*
Y492000D01*
X362000Y577000D02*
X366000Y581000D01*
X461000Y521000D02*
X490000Y492000D01*
X434000Y530000D02*
X437000Y533000D01*
X443000D01*
X446000Y530000D01*
Y524000D02*
Y530000D01*
Y524000D02*
X449000Y521000D01*
X461000D01*
X431000Y521000D02*
X434000Y524000D01*
Y530000D01*
X422000Y524000D02*
Y530000D01*
X419000Y533000D02*
X422000Y530000D01*
X425000Y521000D02*
X431000D01*
X422000Y524000D02*
X425000Y521000D01*
X410000Y524000D02*
Y530000D01*
X407000Y521000D02*
X410000Y524000D01*
X413000Y533000D02*
X419000D01*
X410000Y530000D02*
X413000Y533000D01*
X459000Y494000D02*
X462000D01*
X487000Y469000D01*
X417750Y501250D02*
X427000Y492000D01*
X494000Y422843D02*
X500000D01*
X487000Y469000D02*
X494500D01*
X386750Y488250D02*
X392750D01*
X433000Y397500D02*
X439000D01*
X392000Y432000D02*
X413000Y411000D01*
X414000D01*
X409500Y427000D02*
Y433000D01*
X412500Y436000D01*
X409500Y427000D02*
X412500Y424000D01*
X427000Y436000D02*
X430000Y439000D01*
Y445000D01*
X412500Y436000D02*
X427000D01*
X412500Y424000D02*
X427000D01*
X430000Y421000D01*
X427000Y448000D02*
X430000Y445000D01*
X448500Y390000D02*
X451500Y387000D01*
X448500Y390000D02*
Y396000D01*
X482000Y410343D02*
X488000D01*
X506000Y410343D02*
X512000D01*
X479000Y413343D02*
Y437000D01*
Y413343D02*
X482000Y410343D01*
X512000Y410343D02*
X515000Y413343D01*
X488000Y410343D02*
X491000Y413343D01*
Y419843D01*
X494000Y422843D01*
X503000Y413343D02*
X506000Y410343D01*
X503000Y413343D02*
Y419843D01*
X500000Y422843D02*
X503000Y419843D01*
X496500Y397500D02*
X502000Y392000D01*
X480000Y397500D02*
X496500D01*
X464000Y413500D02*
X480000Y397500D01*
X439750Y466250D02*
Y473250D01*
Y466250D02*
X464000Y442000D01*
Y413500D02*
Y442000D01*
X429000Y460000D02*
X453000Y436000D01*
X474000Y451000D02*
X478500Y455500D01*
X464000Y457000D02*
X470000Y451000D01*
X470000Y451000D02*
X474000D01*
X471000Y467000D02*
X478500Y459500D01*
Y455500D02*
Y459500D01*
X386750Y449000D02*
X392750D01*
X398750Y460000D02*
X429000D01*
X395750Y473250D02*
Y485250D01*
X392750Y488250D02*
X395750Y485250D01*
X494500Y469000D02*
X515000Y448500D01*
Y413343D02*
Y448500D01*
X383750Y452000D02*
X386750Y449000D01*
X383750Y452000D02*
Y485250D01*
X386750Y488250D01*
X392750Y449000D02*
X396000Y452250D01*
Y457250D01*
X398750Y460000D01*
X452000Y476929D02*
X461929Y467000D01*
X471000D01*
X427000Y492000D02*
X444000D01*
X452000Y484000D01*
Y476929D02*
Y484000D01*
X412000Y452000D02*
X416000Y448000D01*
X427000D01*
X430000Y400500D02*
Y421000D01*
Y400500D02*
X433000Y397500D01*
X439000D02*
X442000Y400500D01*
Y418000D01*
X368000Y469000D02*
Y502000D01*
X387000Y521000D01*
X407000D01*
X437000Y432000D02*
X461500Y407500D01*
Y402000D02*
Y407500D01*
X451500Y387000D02*
X489000D01*
X448500Y396000D02*
X451500Y399000D01*
X458500D01*
X461500Y402000D01*
X490071Y476000D02*
X507000D01*
X390000Y502000D02*
Y505000D01*
X529000Y454000D02*
X538000D01*
X507000Y476000D02*
X529000Y454000D01*
X390000Y505000D02*
X394000Y509000D01*
X457071D01*
X490071Y476000D01*
X627750Y464250D02*
Y468000D01*
Y464250D02*
X631000Y461000D01*
Y475000D02*
X634250Y471750D01*
X627750Y438000D02*
Y441750D01*
X631000Y445000D01*
Y431000D02*
X634250Y434250D01*
Y438000D01*
X912896Y314650D02*
X915996Y311550D01*
X930000D01*
X890308Y314650D02*
X912896D01*
X893000Y321150D02*
X912896D01*
X915996Y324250D02*
X930000D01*
X912896Y321150D02*
X915996Y324250D01*
X634250Y468000D02*
Y471750D01*
X644750Y464750D02*
X677942D01*
X641000Y461000D02*
X644750Y464750D01*
X641000Y475000D02*
X644750Y471250D01*
X779000Y440000D02*
X789000Y430000D01*
X819808D01*
X781692Y446500D02*
X791692Y436500D01*
X822500D01*
X681596Y468404D02*
X723596D01*
X752000Y440000D01*
X779000D01*
X754692Y446500D02*
X781692D01*
X769750Y412250D02*
X780000Y402000D01*
X807500D01*
X835500Y374000D01*
X772442Y418750D02*
X782692Y408500D01*
X810192D01*
X842000Y376692D01*
X742250Y418750D02*
X772442D01*
X644750Y441250D02*
X719750D01*
X641000Y445000D02*
X644750Y441250D01*
X641000Y431000D02*
X644750Y434750D01*
X717058D01*
X739558Y412250D01*
X719750Y441250D02*
X742250Y418750D01*
X726289Y474904D02*
X754692Y446500D01*
X678904Y474904D02*
X726289D01*
X563000Y441250D02*
X617250D01*
X621000Y445000D01*
X563000Y434750D02*
X617250D01*
X621000Y431000D01*
X677942Y464750D02*
X681596Y468404D01*
X644750Y471250D02*
X675250D01*
X678904Y474904D01*
X592000Y464750D02*
X617250D01*
X621000Y461000D01*
X592000Y471250D02*
X617250D01*
X621000Y475000D01*
X624000Y114000D02*
Y197071D01*
X605071Y216000D02*
X624000Y197071D01*
X543000Y204000D02*
X562000D01*
X562000Y204000D01*
X562000Y192000D02*
X565000Y195000D01*
Y201000D01*
X562000Y204000D02*
X565000Y201000D01*
X549000Y189000D02*
X552000Y192000D01*
Y192000D02*
X562000D01*
X505000Y165000D02*
Y171000D01*
X571000Y145000D02*
X573000Y143000D01*
X571000Y145000D02*
Y150000D01*
X573000Y143000D02*
X582000D01*
X571000Y150000D02*
Y163000D01*
X495000Y181000D02*
X505000Y171000D01*
X515071Y181000D02*
X527000Y169071D01*
X505000Y181000D02*
X515071D01*
X527000Y163000D02*
Y169071D01*
X881000Y567000D02*
Y593800D01*
X857300Y617500D02*
X881000Y593800D01*
X801000Y289000D02*
X808000Y296000D01*
X727000Y295000D02*
X794000D01*
X800000Y301000D01*
X730000Y261000D02*
Y281000D01*
X738000Y289000D01*
X801000D01*
X688000Y249500D02*
X718500D01*
X683000Y254500D02*
X688000Y249500D01*
X718500D02*
X730000Y261000D01*
X865000Y501000D02*
X875000Y511000D01*
X895000D01*
X834000Y521000D02*
X840000Y527000D01*
Y536000D01*
X845000Y541000D01*
X855000D01*
X881000Y567000D01*
X838000Y511000D02*
X854750Y527750D01*
X867750D01*
X889600Y549600D01*
X624000Y114000D02*
X666000Y72000D01*
Y54000D02*
Y72000D01*
Y54000D02*
X673000Y47000D01*
X691400D01*
X808000Y266000D02*
Y283000D01*
X789000Y248000D02*
X793000Y252000D01*
X699000Y244500D02*
X700500Y243000D01*
X721000Y205000D02*
X726000Y210000D01*
X714000Y215000D02*
X716000Y217000D01*
X809000D01*
X811000Y253000D02*
X821000D01*
X805000Y224000D02*
X834000Y253000D01*
X846000D01*
X726000Y210000D02*
X813000D01*
X831000Y228000D01*
X809000Y217000D02*
X838000Y246000D01*
X830271Y611000D02*
X841700Y599571D01*
X865308Y288500D02*
X892308D01*
X904258Y276550D02*
X912896D01*
X892308Y288500D02*
X904258Y276550D01*
X868000Y295000D02*
X895000D01*
X906950Y283050D02*
X912896D01*
X895000Y295000D02*
X906950Y283050D01*
X993929Y432000D02*
X998000D01*
X975000Y413071D02*
X993929Y432000D01*
X984000Y406071D02*
X997929Y420000D01*
X1118429Y407500D02*
X1133500D01*
X1098000Y427929D02*
X1118429Y407500D01*
X1036000Y486000D02*
X1044000Y494000D01*
X1030000Y470000D02*
X1046000D01*
X1024571Y320500D02*
X1049500D01*
X958000Y426000D02*
X960000Y428000D01*
X1021000Y455000D02*
X1030000Y446000D01*
X1004000Y406000D02*
X1010000Y400000D01*
X1004000Y406000D02*
Y434000D01*
X966000Y466000D02*
X969000Y463000D01*
X999000Y439000D02*
X1004000Y434000D01*
X1030000Y344000D02*
X1045500Y328500D01*
X1049500D01*
X1030000Y344000D02*
Y358071D01*
X988000Y455000D02*
Y466000D01*
Y455000D02*
X993000Y450000D01*
X999000D01*
X1010000Y378071D02*
X1030000Y358071D01*
X1010000Y378071D02*
Y400000D01*
X1030000Y425929D02*
Y446000D01*
X1018000Y383000D02*
Y389000D01*
X1024000Y395000D02*
Y401000D01*
X1018000Y389000D02*
X1024000Y395000D01*
X1006000Y458000D02*
X1022000Y442000D01*
Y419000D02*
Y442000D01*
Y419000D02*
X1033000Y408000D01*
Y380000D02*
Y408000D01*
X1006000Y458000D02*
Y468000D01*
X1002000Y472000D02*
X1006000Y468000D01*
X976000Y466000D02*
X982000Y472000D01*
X1002000D01*
X956000Y464000D02*
X960000Y460000D01*
Y428000D02*
Y460000D01*
X1014000Y411000D02*
X1024000Y401000D01*
X1014000Y411000D02*
Y435000D01*
X999000Y450000D02*
X1014000Y435000D01*
X991071Y354000D02*
X1024571Y320500D01*
X638000Y215000D02*
X714000D01*
X624000Y229000D02*
Y229071D01*
Y229000D02*
X638000Y215000D01*
X617071Y236000D02*
X624000Y229071D01*
X591000Y236000D02*
X617071D01*
X598000Y243000D02*
X623000D01*
X636000Y230000D01*
Y229929D02*
Y230000D01*
Y229929D02*
X641929Y224000D01*
X732657D01*
X668000Y237000D02*
X692000D01*
X655000Y250000D02*
X668000Y237000D01*
X722000Y243000D02*
X727000Y248000D01*
X789000D01*
X700500Y243000D02*
X722000D01*
X732657Y224000D02*
X805000D01*
X692000Y237000D02*
X697000Y232000D01*
X722000D01*
X724000Y234000D01*
X792000D01*
X811000Y253000D01*
X1072000Y460000D02*
X1098000Y434000D01*
Y427929D02*
Y434000D01*
X869000Y345150D02*
X893000Y321150D01*
X869000Y345150D02*
Y390000D01*
X822500Y436500D02*
X869000Y390000D01*
X862500Y342458D02*
X890308Y314650D01*
X862500Y342458D02*
Y387308D01*
X819808Y430000D02*
X862500Y387308D01*
X1094500Y397500D02*
X1097000D01*
X1129000Y402500D02*
X1139500D01*
X1046000Y470000D02*
X1053000Y463000D01*
Y457000D02*
Y463000D01*
Y457000D02*
X1081000Y429000D01*
X1087000D01*
X1044000Y494000D02*
X1099000D01*
X418000Y405000D02*
X424000Y411000D01*
X372000Y437000D02*
Y452000D01*
Y437000D02*
X404000Y405000D01*
X418000D01*
X515000Y624000D02*
X520129D01*
X526629Y617500D01*
X501500Y637500D02*
X515000Y624000D01*
X504972Y627500D02*
X519972Y612500D01*
X503571Y622500D02*
X518571Y607500D01*
X526629Y617500D02*
X544229D01*
X519972Y612500D02*
X534500D01*
X518571Y607500D02*
X532500D01*
X544229Y617500D02*
X554729Y607000D01*
X591000D01*
X547929Y599000D02*
X595000D01*
X615000Y619000D01*
X532500Y607500D02*
X549000Y591000D01*
X599000D01*
X619000Y611000D01*
X530771Y602500D02*
X550271Y583000D01*
X603000D01*
X623000Y603000D01*
X615000Y551000D02*
X647000Y583000D01*
X619000Y611000D02*
X697000D01*
X534500Y612429D02*
Y612500D01*
Y612429D02*
X547929Y599000D01*
X530771Y602500D02*
X530771Y602500D01*
X494000Y602500D02*
X530771D01*
X493000Y625000D02*
Y627500D01*
Y625000D02*
X495500Y622500D01*
X503571D01*
X647000Y583000D02*
X682000D01*
X774000Y491000D01*
X872000D01*
X638000Y590000D02*
X686000D01*
X775000Y501000D01*
X865000D01*
X719000Y571000D02*
X779000Y511000D01*
X838000D01*
X725000Y575000D02*
X779000Y521000D01*
X834000D01*
X731000Y579000D02*
X776000Y534000D01*
X705000Y603000D02*
X708000Y606000D01*
X623000Y603000D02*
X705000D01*
X958000Y379000D02*
Y426000D01*
Y379000D02*
X983000Y354000D01*
X991071D01*
X1036500Y348500D02*
X1039500D01*
X1045500Y354500D01*
Y367500D01*
X1033000Y380000D02*
X1045500Y367500D01*
X615000Y619000D02*
X702071D01*
X714000Y607071D01*
Y599000D02*
Y607071D01*
X719000Y571000D02*
Y612000D01*
X725000Y575000D02*
Y614000D01*
X731000Y579000D02*
Y616000D01*
X704000Y643000D02*
X731000Y616000D01*
X697000Y642000D02*
X725000Y614000D01*
X697000Y642000D02*
Y655000D01*
X688000Y634929D02*
Y659000D01*
X753000Y657000D02*
Y672000D01*
X739000Y651000D02*
Y662000D01*
X733000Y647000D02*
Y652000D01*
X759000Y661000D02*
Y676000D01*
Y661000D02*
X789000Y631000D01*
X766000Y664000D02*
Y679000D01*
Y664000D02*
X802500Y627500D01*
X789000Y621929D02*
Y631000D01*
Y621929D02*
X793929Y617000D01*
X777000Y624000D02*
X790000Y611000D01*
X830271D01*
X753000Y657000D02*
X777000Y633000D01*
Y624000D02*
Y633000D01*
X746000Y654000D02*
X767000Y633000D01*
Y624000D02*
Y633000D01*
Y624000D02*
X788000Y603000D01*
X792893Y595965D02*
X792929Y596000D01*
X779965Y595965D02*
X792893D01*
X797929Y596000D02*
X801429Y592500D01*
X792929Y596000D02*
X797929D01*
X723000Y647000D02*
Y666000D01*
X822408Y586000D02*
X823908Y587500D01*
X826700D01*
X777000Y576000D02*
X795929D01*
X797929Y574000D01*
X816129D01*
X824564Y582436D01*
X761000Y614929D02*
X779965Y595965D01*
X761000Y614929D02*
Y629000D01*
X739000Y651000D02*
X761000Y629000D01*
X779000Y586000D02*
X822408D01*
X740000Y599000D02*
Y620000D01*
X712000Y648000D02*
X740000Y620000D01*
X747000Y606000D02*
X777000Y576000D01*
X747000Y606000D02*
Y623000D01*
X723000Y647000D02*
X747000Y623000D01*
X754000Y611000D02*
X779000Y586000D01*
X754000Y611000D02*
Y626000D01*
X733000Y647000D02*
X754000Y626000D01*
X738000Y687000D02*
X753000Y672000D01*
X726000Y697000D02*
X728000Y695000D01*
X740000D01*
X724000Y677000D02*
X739000Y662000D01*
X726071Y682000D02*
X731000D01*
X746000Y667000D01*
Y654000D02*
Y667000D01*
X719000Y687000D02*
X721071D01*
X726071Y682000D01*
X712000Y648000D02*
Y660000D01*
X714000Y662000D01*
Y675000D01*
X853000Y569000D02*
X856500Y572500D01*
X463046Y613682D02*
X492364Y643000D01*
X515000D01*
X525000Y633000D01*
X554000D01*
X560318Y626682D01*
X310000Y660000D02*
X311778D01*
X312528Y660750D01*
X312528D02*
X312528D01*
X461182Y618182D02*
X490500Y647500D01*
X516864D01*
X526864Y637500D01*
X310000Y666000D02*
X310000Y666000D01*
X311778D01*
X312528Y665250D01*
X562182Y631182D02*
X571182D01*
X598772Y652250D02*
X599522Y653000D01*
X601300D01*
X601300Y653000D01*
X598772Y647750D02*
X598772D01*
X598772D02*
X599522Y647000D01*
X601300D01*
X571182Y631182D02*
X592250Y652250D01*
X598772D01*
X594114Y647750D02*
X598772D01*
X573046Y626682D02*
X594114Y647750D01*
X560318Y626682D02*
X573046D01*
X526864Y637500D02*
X555864D01*
X562182Y631182D01*
X312528Y660750D02*
X339250D01*
X386318Y613682D01*
X463046D01*
X312528Y665250D02*
X341114D01*
X388182Y618182D01*
X461182D01*
X278000Y398250D02*
Y403996D01*
X279750Y405746D01*
X270636Y421000D02*
X279750Y411886D01*
Y405746D02*
Y411886D01*
X181500Y459136D02*
X219636Y421000D01*
X270636D01*
X252136Y622500D02*
X303500D01*
X307750Y626750D01*
X307000Y633222D02*
Y635000D01*
X307750Y626750D02*
Y632472D01*
Y632472D01*
X307000Y633222D02*
X307750Y632472D01*
X284250Y405746D02*
Y413750D01*
X272500Y425500D02*
X284250Y413750D01*
Y405746D02*
X286000Y403996D01*
Y398250D02*
Y403996D01*
X186000Y461000D02*
X221500Y425500D01*
X186000Y550000D02*
X254000Y618000D01*
X186000Y461000D02*
Y550000D01*
X221500Y425500D02*
X272500D01*
X254000Y618000D02*
X305364D01*
X312250Y624886D01*
Y632472D01*
X313000Y633222D01*
Y635000D01*
X313000Y635000D01*
X181500Y459136D02*
Y551864D01*
X252136Y622500D01*
X290000Y786000D02*
X299000Y795000D01*
X309000D01*
X290000Y745000D02*
Y786000D01*
X311000Y695000D02*
X325000Y709000D01*
Y728500D01*
X323000Y676000D02*
X344000Y697000D01*
X361000Y753000D02*
Y762000D01*
X351929Y744000D02*
X352000D01*
X361000Y753000D01*
X344000Y736071D02*
X351929Y744000D01*
X344000Y697000D02*
Y736071D01*
X319000Y683000D02*
X337000Y701000D01*
Y740000D01*
X353000Y756000D01*
X306000Y676000D02*
X323000D01*
X303000Y683000D02*
X319000D01*
X270000Y722000D02*
Y746000D01*
X265500Y720136D02*
Y747864D01*
X273818Y756182D01*
Y803818D01*
X270000Y746000D02*
X278318Y754318D01*
X276636Y709000D02*
X307364D01*
X265500Y720136D02*
X276636Y709000D01*
X307364D02*
X313000Y714636D01*
Y724000D01*
X254000Y907000D02*
X257000D01*
X252000Y909000D02*
X254000Y907000D01*
X257000D02*
X258000Y908000D01*
X264500Y813136D02*
Y904500D01*
Y813136D02*
X273818Y803818D01*
X258000Y908000D02*
X261000D01*
X264500Y904500D01*
X237250Y916000D02*
X242997D01*
X246497Y919500D01*
X252000Y912000D02*
X253000Y913000D01*
X252000Y909000D02*
Y912000D01*
X249500Y919500D02*
X253000Y916000D01*
Y913000D02*
Y916000D01*
X278500Y713500D02*
X286000D01*
X270000Y722000D02*
X278500Y713500D01*
X286000D02*
X288500Y716000D01*
Y721000D01*
X291250Y723750D01*
X294750D01*
X300000Y713500D02*
X305500D01*
X297500Y716000D02*
Y721000D01*
Y716000D02*
X300000Y713500D01*
X305500D02*
X308500Y716500D01*
X294750Y723750D02*
X297500Y721000D01*
X307000Y722222D02*
Y724000D01*
X308500Y716500D02*
Y720722D01*
X307000Y722222D02*
X308500Y720722D01*
X269000Y815000D02*
Y906364D01*
X278318Y754318D02*
Y805682D01*
X251364Y924000D02*
X269000Y906364D01*
Y815000D02*
X278318Y805682D01*
X246497Y919500D02*
X249500D01*
X237250Y924000D02*
X251364D01*
X150000Y892000D02*
X160450Y902450D01*
X204614Y913250D02*
X209114Y917750D01*
X211248D02*
X212997Y916000D01*
X209114Y917750D02*
X211248D01*
X212997Y916000D02*
X218750D01*
X150000Y917400D02*
X160450Y906950D01*
X207250Y922250D02*
X211248D01*
X212997Y924000D01*
X218750D01*
X160450Y902450D02*
X166450D01*
X160450Y906950D02*
X164586D01*
X166450Y902450D02*
X168250Y904250D01*
X164586Y906950D02*
X166386Y908750D01*
X177386D01*
X202750Y917750D02*
X207250Y922250D01*
X188250Y913250D02*
X204614D01*
X177386Y908750D02*
X186386Y917750D01*
X179250Y904250D02*
X188250Y913250D01*
X704000Y643000D02*
Y677000D01*
X743000Y746000D02*
X776000Y779000D01*
X707500Y722571D02*
X730929Y746000D01*
X707500Y713500D02*
Y722571D01*
X730929Y746000D02*
X743000D01*
X740000Y599000D02*
X779750Y559250D01*
X813250D01*
X825800Y571800D01*
Y576600D01*
X842000Y571929D02*
X844929Y569000D01*
X853000D01*
X290000Y745000D02*
X296000Y739000D01*
X314500D01*
X325000Y728500D01*
X290000Y670000D02*
X303000Y683000D01*
X300000Y657000D02*
Y670000D01*
X306000Y676000D01*
X477000Y821000D02*
X483000D01*
X498000Y806000D01*
Y764000D02*
Y806000D01*
X520250Y753750D02*
Y794472D01*
X515750Y751886D02*
Y794472D01*
X521000Y795222D02*
Y797000D01*
X520250Y794472D02*
X521000Y795222D01*
X593000Y692864D02*
X595864D01*
X558500Y709500D02*
Y719935D01*
X571000Y697000D02*
X588864D01*
X558500Y709500D02*
X571000Y697000D01*
X602000Y687000D02*
X603500Y688500D01*
X602000Y683864D02*
Y687000D01*
X595864Y692864D02*
X597364Y694364D01*
X600500D02*
X603500Y691364D01*
X597364Y694364D02*
X600500D01*
X520250Y753750D02*
X542500Y731500D01*
X546935D02*
X558500Y719935D01*
X542500Y731500D02*
X546935D01*
X880500Y614750D02*
X888000Y607250D01*
X890772D01*
X891522Y608000D01*
X893300D01*
X605864Y680000D02*
X616364D01*
X633364Y663000D02*
X674071D01*
X616364Y680000D02*
X633364Y663000D01*
X603500Y688500D02*
Y691364D01*
X674071Y663000D02*
X732571Y721500D01*
X749500D01*
X808864Y646500D02*
X855864D01*
X880500Y614750D02*
Y621864D01*
X855864Y646500D02*
X880500Y621864D01*
X749500Y721500D02*
X788000Y683000D01*
Y667364D02*
X808864Y646500D01*
X788000Y667364D02*
Y683000D01*
X515000Y795222D02*
X515750Y794472D01*
X515000Y795222D02*
Y797000D01*
X554000Y707636D02*
Y718071D01*
Y707636D02*
X569136Y692500D01*
X515750Y751886D02*
X540636Y727000D01*
X545071D02*
X554000Y718071D01*
X614500Y675500D02*
X631500Y658500D01*
X675935D01*
X569136Y692500D02*
X587000D01*
X604000Y675500D02*
X614500D01*
X587000Y692500D02*
X604000Y675500D01*
X540636Y727000D02*
X545071D01*
X890772Y602750D02*
X890772D01*
X876000Y612886D02*
X886136Y602750D01*
X891522Y602000D02*
X893300D01*
X890772Y602750D02*
X891522Y602000D01*
X783500Y665500D02*
Y681136D01*
Y665500D02*
X807000Y642000D01*
X675935Y658500D02*
X734435Y717000D01*
X747636D02*
X783500Y681136D01*
X734435Y717000D02*
X747636D01*
X886136Y602750D02*
X890772D01*
X807000Y642000D02*
X854000D01*
X876000Y612886D02*
Y620000D01*
X854000Y642000D02*
X876000Y620000D01*
X628000Y392250D02*
Y397996D01*
X636000Y392250D02*
Y397996D01*
X620528Y885750D02*
X645790D01*
X599250Y1042000D02*
X604997D01*
X606997Y1044000D01*
X618000Y891000D02*
X619778D01*
X620528Y890250D01*
X619778Y885000D02*
X620528Y885750D01*
X604997Y1050000D02*
X606497Y1048500D01*
X599250Y1050000D02*
X604997D01*
X618000Y885000D02*
X619778D01*
X643926Y890250D02*
X656500Y902824D01*
X630250Y897000D02*
X633750D01*
X625000Y890250D02*
X627500Y892750D01*
X620528Y890250D02*
X625000D01*
X636500Y892750D02*
X639000Y890250D01*
X633750Y897000D02*
X636500Y894250D01*
X639000Y890250D02*
X643926D01*
X627500Y892750D02*
Y894250D01*
X636500Y892750D02*
Y894250D01*
X627500D02*
X630250Y897000D01*
X614500Y1040000D02*
X617250Y1037250D01*
X623500Y1040000D02*
Y1041500D01*
X614500Y1040000D02*
Y1041500D01*
X620750Y1037250D02*
X623500Y1040000D01*
Y1041500D02*
X626000Y1044000D01*
X612000D02*
X614500Y1041500D01*
X617250Y1037250D02*
X620750D01*
X606997Y1044000D02*
X612000D01*
X626000D02*
X632000D01*
X656500Y1019500D01*
Y902824D02*
Y1019500D01*
X606497Y1048500D02*
X633864D01*
X574997Y1042000D02*
X580750D01*
X573247Y1043750D02*
X574997Y1042000D01*
X559750Y1043750D02*
X573247D01*
X574997Y1050000D02*
X580750D01*
X573247Y1048250D02*
X574997Y1050000D01*
X553250Y1043614D02*
X557886Y1048250D01*
X557750Y1012250D02*
Y1024750D01*
Y1012250D02*
X566750Y1003250D01*
X557750Y1037250D02*
X559500Y1035500D01*
X557750Y1037250D02*
Y1041750D01*
X561000Y1035500D02*
X563750Y1032750D01*
X561000Y1026500D02*
X563750Y1029250D01*
Y1032750D01*
X553250Y1010386D02*
X562250Y1001386D01*
Y980549D02*
Y1001386D01*
X555000Y973300D02*
X562250Y980549D01*
X557750Y1041750D02*
X559750Y1043750D01*
X557886Y1048250D02*
X573247D01*
X557750Y1024750D02*
X559500Y1026500D01*
X561000D01*
X559500Y1035500D02*
X561000D01*
X566750Y981049D02*
X574500Y973300D01*
X575000D01*
X602000Y683864D02*
X605864Y680000D01*
X588864Y697000D02*
X593000Y692864D01*
X571000Y885250D02*
Y890995D01*
X579000Y885250D02*
Y890995D01*
X567750Y918250D02*
X576750Y909250D01*
Y893245D02*
X579000Y890995D01*
X567750Y939849D02*
X575000Y947100D01*
X567750Y918250D02*
Y939849D01*
X563250Y916386D02*
X572250Y907386D01*
Y892245D02*
Y907386D01*
X571000Y890995D02*
X572250Y892245D01*
X555000Y947100D02*
X563250Y938850D01*
X684000Y1004000D02*
X693000Y995000D01*
Y963000D02*
Y995000D01*
Y963000D02*
X705000Y951000D01*
X710000Y904000D02*
X728000D01*
X698000Y916000D02*
Y946000D01*
Y916000D02*
X710000Y904000D01*
X705000Y924071D02*
X716071Y913000D01*
X705000Y924071D02*
Y951000D01*
X728000Y904000D02*
X734000Y898000D01*
X801071D01*
X818000Y914929D01*
X812929Y924000D02*
X813000D01*
X794929Y906000D02*
X812929Y924000D01*
X739000Y906000D02*
X794929D01*
X776000Y779000D02*
Y847000D01*
X841000Y912000D01*
X160000Y300000D02*
X211000D01*
X220000Y291000D01*
X249000D02*
X255000Y297000D01*
X533000Y312000D02*
X548000D01*
X564000Y296000D01*
X534000Y305000D02*
X547000D01*
X563000Y289000D01*
X602000Y302000D02*
X784000D01*
X788000Y306000D01*
X724000Y292000D02*
X727000Y295000D01*
X632000Y297000D02*
X637000Y292000D01*
X724000D01*
X800000Y301000D02*
Y317000D01*
X811000Y328000D01*
X817000D01*
X336000Y574000D02*
X339000Y577000D01*
X336000Y573000D02*
X336500Y573500D01*
X339000Y577000D02*
X362000D01*
X678400Y81400D02*
X716000Y119000D01*
Y166050D01*
X731500Y181550D01*
X703800Y78800D02*
X741000Y116000D01*
Y198000D01*
X461000Y85000D02*
Y198000D01*
Y85000D02*
X491000Y55000D01*
X263500Y102500D02*
X275000Y114000D01*
Y158000D01*
X297000Y180000D01*
Y194000D01*
X281000Y1023000D02*
X289000Y1031000D01*
X261000Y1048000D02*
X277500Y1064500D01*
X236000Y1023000D02*
X253000D01*
X261000Y1031000D01*
Y1048000D01*
X289000Y1031000D02*
Y1046000D01*
X294000Y1051000D01*
X314000D01*
X219408Y1001592D02*
Y1037182D01*
Y1001592D02*
X228000Y993000D01*
X235000D01*
X37750Y832461D02*
Y866750D01*
Y832461D02*
X43461Y826750D01*
X37750Y866750D02*
X47500Y876500D01*
X43461Y826750D02*
X76250D01*
X86750Y816250D01*
X104750D01*
X290000Y656000D02*
Y670000D01*
Y656000D02*
X302000Y644000D01*
X322000D01*
X300000Y657000D02*
X306000Y651000D01*
X322929D01*
X334000Y639929D01*
X543000Y510000D02*
X630000D01*
X649000Y491000D01*
X695000D01*
X212000Y382000D02*
X254000D01*
X163000Y431000D02*
X212000Y382000D01*
X218000Y622000D02*
Y704000D01*
X151000Y555000D02*
X218000Y622000D01*
X226000Y442000D02*
X278000D01*
X302000Y418000D01*
Y377000D02*
Y418000D01*
X231000Y450000D02*
X281000D01*
X310000Y421000D01*
Y351000D02*
Y421000D01*
X232000Y183000D02*
Y191000D01*
X211400Y162400D02*
X232000Y183000D01*
X118000Y353000D02*
X118500Y352500D01*
X107000Y353000D02*
X118000D01*
X93000D02*
X107000D01*
X92000Y354000D02*
X93000Y353000D01*
X689000Y524000D02*
X719000D01*
X655000Y517000D02*
X716000D01*
X766000Y467000D01*
X838000D01*
X719000Y524000D02*
X766000Y477000D01*
X835000D01*
X844000Y486000D01*
X406000Y351000D02*
Y377000D01*
X342000Y441000D02*
X406000Y377000D01*
X342000Y441000D02*
Y484000D01*
X352999Y494999D01*
Y506999D01*
X331000Y561541D02*
X335790Y556751D01*
X331000Y561541D02*
Y576000D01*
X366000Y581000D02*
X447000D01*
X556000Y472000D01*
X445000Y572000D02*
X550000Y467000D01*
Y417000D02*
Y467000D01*
X540000Y438000D02*
X543000Y441000D01*
Y457000D01*
X441000Y559000D02*
X543000Y457000D01*
X556000Y425000D02*
Y472000D01*
Y425000D02*
X564000Y417000D01*
X615000D01*
X314000Y570000D02*
X337000Y547000D01*
X387000D02*
X399000Y559000D01*
X337000Y547000D02*
X387000D01*
X399000Y559000D02*
X441000D01*
X335790Y556751D02*
X363751D01*
X379000Y572000D01*
X445000D01*
X678000Y388000D02*
X688000D01*
X799000Y964000D02*
X802000D01*
X813000Y975000D01*
X1100000Y774000D02*
Y779071D01*
X1107579Y786650D01*
X1129000D01*
X387750Y696250D02*
X402250D01*
X405500Y699500D01*
Y709500D01*
Y710500D01*
X376000Y708000D02*
X387750Y696250D01*
X356000Y708000D02*
X372000D01*
X376000D01*
X309000Y768250D02*
X310600Y766650D01*
X333000D01*
X309200Y753950D02*
X333000D01*
X309000Y753750D02*
X309200Y753950D01*
X1153000Y706000D02*
Y721000D01*
X1159000Y727000D01*
X1123000Y699000D02*
X1128000D01*
X1130000Y697000D01*
X1168500Y829500D02*
X1192000Y853000D01*
X1210000D01*
X225000Y85000D02*
X242500Y102500D01*
X263500D01*
X210000Y75000D02*
X210000Y75000D01*
X186000Y75000D02*
X194000D01*
X210000D01*
X333000Y779350D02*
X348650D01*
X351000Y777000D01*
X906250Y575250D02*
X930000D01*
X900000Y569000D02*
X906250Y575250D01*
X664000Y682000D02*
X667000Y685000D01*
X679000D01*
X707500Y713500D01*
X634000Y692000D02*
X678000D01*
X698000Y712000D01*
X622000Y704000D02*
X634000Y692000D01*
X622000Y704000D02*
Y721000D01*
X539000Y752000D02*
X546000Y745000D01*
X598000D01*
X622000Y721000D01*
X400000Y85000D02*
X415000D01*
X415000Y85000D01*
X428000Y98000D01*
Y160000D01*
X400000Y75000D02*
X400000Y75000D01*
X384000Y75000D02*
X400000D01*
X674000Y1004000D02*
X685250Y992750D01*
Y958750D02*
Y992750D01*
X1036500Y357000D02*
Y358000D01*
Y364500D01*
X1018000Y383000D02*
X1036500Y364500D01*
X1206000Y863000D02*
Y872997D01*
X1202668Y869665D01*
X1199335Y872997D01*
Y863000D01*
X1196003D02*
Y872997D01*
X1192671Y869665D01*
X1189339Y872997D01*
Y863000D01*
D77*
X311500Y901500D02*
X322500D01*
X314864Y916500D02*
X322500D01*
X334500Y879500D02*
Y884500D01*
X313500Y911500D02*
X322500D01*
X304000Y906500D02*
X322500D01*
X309000Y899000D02*
X311500Y901500D01*
X305000Y899000D02*
X306000D01*
X309000D01*
X315500Y896500D02*
X322500D01*
X313000Y894000D02*
X315500Y896500D01*
X305000Y914000D02*
X311000D01*
X313500Y911500D01*
X311364Y920000D02*
X314864Y916500D01*
X310000Y929000D02*
X317500Y921500D01*
X322500D01*
X305000Y929000D02*
X310000D01*
X331750Y876750D02*
X334500Y879500D01*
D78*
X114000Y285000D02*
X119000Y290000D01*
X114000Y283000D02*
Y285000D01*
Y193000D02*
Y198000D01*
Y193000D02*
X120000Y187000D01*
X114000Y218000D02*
Y223000D01*
Y218000D02*
X117000Y215000D01*
X116000Y259000D02*
X120500Y254500D01*
X114000Y259000D02*
X116000D01*
X946000Y708000D02*
X953000Y715000D01*
X946000Y705000D02*
Y708000D01*
X977500Y292500D02*
X989000D01*
X975500Y294500D02*
X977500Y292500D01*
X957000Y294500D02*
X975500D01*
X912150Y448250D02*
X930000D01*
X911150Y384750D02*
X930000D01*
X914050Y336950D02*
X930000D01*
X914000Y337000D02*
X914050Y336950D01*
X914000Y299000D02*
X914150Y298850D01*
X930000D01*
X914250Y260750D02*
X930000D01*
X796000Y366000D02*
X798000Y368000D01*
Y373000D01*
X676000Y366000D02*
X677000Y367000D01*
Y373000D01*
X578000D02*
Y379000D01*
X580000Y381000D01*
X578000Y368000D02*
Y373000D01*
Y368000D02*
X580000Y366000D01*
X580000Y366000D02*
X580000Y366000D01*
X580000Y351000D02*
Y366000D01*
X620000Y351000D02*
Y367000D01*
X644000Y351000D02*
Y367000D01*
X676000Y351000D02*
Y366000D01*
X708000Y351000D02*
Y366000D01*
X796000Y351000D02*
Y366000D01*
X776000Y269000D02*
Y283750D01*
X752000Y254000D02*
Y269000D01*
X696000D02*
Y284000D01*
X672000Y269000D02*
Y284000D01*
X664000Y269000D02*
Y284000D01*
X640000Y269000D02*
Y284000D01*
X632000Y269000D02*
Y284000D01*
X608000Y269000D02*
Y284000D01*
X814000Y43000D02*
Y50000D01*
X528000Y186000D02*
X528000Y186000D01*
X528000Y178000D02*
Y186000D01*
X489498Y163000D02*
Y173498D01*
X430000Y78000D02*
Y85000D01*
X300000Y68000D02*
Y75000D01*
X218000Y75000D02*
X225000D01*
X152000Y85000D02*
X162000D01*
X16000Y113000D02*
X16000Y113000D01*
Y120000D01*
X138000Y194000D02*
X144000D01*
X242000Y183000D02*
Y191000D01*
X218000Y183000D02*
Y191000D01*
X303000D02*
X310000D01*
X343000Y216000D02*
Y223000D01*
X258000Y253000D02*
Y269000D01*
X258000Y269000D02*
X258000Y269000D01*
X282000Y253000D02*
Y269000D01*
X282000Y269000D02*
X282000Y269000D01*
X290000Y284000D02*
X290000Y284000D01*
X290000Y269000D02*
Y284000D01*
X314000D02*
X314000Y284000D01*
X314000Y269000D02*
Y284000D01*
X322000D02*
X322000Y284000D01*
X322000Y269000D02*
Y284000D01*
X346000Y269000D02*
Y284000D01*
X346000Y284000D01*
X402000Y269000D02*
Y284000D01*
X426000Y269000D02*
Y284000D01*
X358000Y336000D02*
Y351000D01*
X328000Y371000D02*
Y378000D01*
X326000Y336000D02*
Y351000D01*
X294000D02*
Y366000D01*
X270000Y336000D02*
Y351000D01*
X230000Y336000D02*
Y351000D01*
X221000Y371000D02*
X228000D01*
X446000Y336000D02*
Y351000D01*
X455000Y371000D02*
X462000Y364000D01*
X448000Y371000D02*
X455000D01*
X422000Y473000D02*
X428500D01*
X428750Y473250D01*
X297800Y558200D02*
X299000Y557000D01*
X280000Y558200D02*
X297800D01*
X323050Y792050D02*
X333000D01*
X295000Y885000D02*
X298000D01*
X288000D02*
X295000D01*
X288000Y899000D02*
X295000D01*
Y929000D02*
Y936000D01*
X10000Y918000D02*
Y925000D01*
X591000Y184000D02*
Y189000D01*
X600999Y57999D02*
X601000Y57998D01*
Y50000D02*
Y57998D01*
X1093111Y797889D02*
Y798000D01*
Y797889D02*
X1098000Y793000D01*
X183000Y150808D02*
X187808D01*
X195000Y158000D01*
Y165000D01*
X1131000Y478000D02*
Y486000D01*
X1131000Y486000D02*
X1131000Y486000D01*
X1131000Y454000D02*
Y468000D01*
Y453000D02*
Y454000D01*
Y468000D02*
X1131000Y468000D01*
X1131000Y454000D02*
X1131300Y453700D01*
X1147500D01*
X1131000Y436000D02*
Y443000D01*
X1129000Y434000D02*
X1131000Y436000D01*
X941500Y928500D02*
X945000Y925000D01*
X941500Y928500D02*
Y956000D01*
X1145000Y738000D02*
Y744000D01*
Y738000D02*
X1147000Y736000D01*
X274000Y269000D02*
X274000Y269000D01*
X266000Y246000D02*
Y269000D01*
X266000Y269000D02*
X266000Y269000D01*
X454000Y351000D02*
X454000Y351000D01*
Y337000D02*
Y351000D01*
Y337000D02*
X454000Y337000D01*
X461000D01*
X222000Y328000D02*
Y350999D01*
X222000Y351000D02*
X222000Y350999D01*
X886000Y763000D02*
X897000D01*
X113000Y165000D02*
X118500D01*
X109000Y161000D02*
X113000Y165000D01*
X560000Y163000D02*
Y178000D01*
Y163000D02*
X560000Y163000D01*
X900000Y545000D02*
Y547000D01*
X905000Y552000D01*
X900000Y557000D02*
Y559000D01*
Y557000D02*
X905000Y552000D01*
X1126000Y776000D02*
Y780000D01*
X1120000Y770000D02*
X1126000Y776000D01*
X1115750Y765750D02*
X1120000Y770000D01*
X1099250Y765750D02*
X1115750D01*
X1080500Y802500D02*
X1085000Y798000D01*
X1090000D01*
X1093111D01*
X1080500Y802500D02*
Y823000D01*
X1058850Y893025D02*
Y914850D01*
X1059000Y915000D01*
X1020750Y893025D02*
Y914750D01*
X1021000Y915000D01*
X982650Y893025D02*
Y914650D01*
X983000Y915000D01*
X944550Y893025D02*
Y914550D01*
X945000Y915000D01*
Y925000D02*
X983000D01*
X1021000D01*
X1059000D01*
X1170500Y428300D02*
X1182100Y439900D01*
X309839Y565000D02*
X340000Y534839D01*
X720000Y760000D02*
X725000Y765000D01*
X720000Y758000D02*
Y760000D01*
X306000Y565000D02*
X309839D01*
X298000Y523000D02*
X306000D01*
X296000Y525000D02*
X298000Y523000D01*
X296000Y532800D02*
X305800D01*
X306000Y533000D01*
X280000Y532800D02*
X296000D01*
X300100Y570900D02*
X306000Y565000D01*
X280000Y570900D02*
X300100D01*
X299000Y557000D02*
X301000Y555000D01*
X306000D01*
X334000Y329000D02*
Y351000D01*
X92000Y967000D02*
X92500Y966500D01*
X27000Y967000D02*
X27500Y966500D01*
X1147500Y453700D02*
X1170500D01*
X72500Y976500D02*
Y997500D01*
X69000Y1001000D02*
X72500Y997500D01*
X10000Y884000D02*
X25000D01*
X27500Y886500D01*
X124000Y879000D02*
Y885000D01*
X401500Y880500D02*
Y890000D01*
X167000Y921000D02*
X175000D01*
X80000Y1000000D02*
X87000D01*
X52000Y1001000D02*
X59000D01*
X18000Y1000000D02*
X25000D01*
X389050Y754000D02*
X407000D01*
X389000Y753950D02*
X389050Y754000D01*
X407000D02*
X421000D01*
X426000D01*
X429000Y757000D02*
Y765000D01*
X426000Y754000D02*
X429000Y757000D01*
X374950Y753950D02*
X389000D01*
X363000Y742000D02*
X374950Y753950D01*
X422500Y698500D02*
Y709500D01*
X384500Y709500D02*
X392500D01*
X407000Y737000D02*
Y744000D01*
X421000Y737000D02*
Y744000D01*
X434500Y738500D02*
X442500D01*
X408000Y68000D02*
X415000Y75000D01*
Y75000D01*
X780000Y351000D02*
X780000Y351000D01*
Y366000D01*
Y374000D01*
X804000Y351000D02*
Y364000D01*
X806000Y366000D01*
X814000D01*
X552000Y896000D02*
X560000Y904000D01*
X1173000Y381000D02*
X1187000D01*
X363000Y735000D02*
Y742000D01*
X600000Y1009000D02*
Y1016000D01*
X107000Y329000D02*
X117000D01*
X118500Y327500D01*
X107000Y363000D02*
X116000D01*
X118500Y360500D01*
X930000Y549850D02*
X947850D01*
X912150Y562550D02*
X930000D01*
X935000Y716000D02*
X942000D01*
X983000Y716000D02*
X990000D01*
X1021000Y709000D02*
Y716000D01*
X1021000Y716000D01*
X1059000D02*
X1066000D01*
X1095000Y745000D02*
X1100000D01*
X1102000Y743000D01*
X1110000Y780000D02*
X1116000D01*
X1108000Y778000D02*
X1110000Y780000D01*
X1109000Y793000D02*
X1116000D01*
X1108000Y794000D02*
X1109000Y793000D01*
X1209000Y791000D02*
X1215000D01*
X1286000Y756000D02*
Y764000D01*
X1174000Y857000D02*
Y863000D01*
X1159000Y857000D02*
Y863000D01*
X1124000Y984000D02*
Y991000D01*
X798000Y948000D02*
X799000Y949000D01*
Y954000D01*
X440000Y150000D02*
Y191000D01*
Y150000D02*
X440000Y150000D01*
X34000Y190000D02*
Y195984D01*
X32984Y197000D02*
X34000Y195984D01*
X1128000Y746000D02*
X1129000Y745000D01*
X1128000Y746000D02*
Y751000D01*
X274000Y248000D02*
Y254000D01*
Y248000D02*
X276000Y246000D01*
X274000Y254000D02*
Y269000D01*
D80*
X194000Y191000D02*
X208000D01*
Y201000D01*
X204000Y205000D02*
X208000Y201000D01*
X327500Y237500D02*
X338500D01*
X343000Y233000D01*
X1187000Y827000D02*
X1198000Y838000D01*
X1186000Y826000D02*
X1187000Y827000D01*
X1153500Y824500D02*
Y835500D01*
X1186000Y759000D02*
X1191000Y754000D01*
X1199750Y815000D02*
X1208000D01*
X170000Y85000D02*
X178000D01*
X664000Y388000D02*
X668000D01*
X661000Y385000D02*
X664000Y388000D01*
X661000Y380000D02*
Y385000D01*
X690000Y749000D02*
X698000Y741000D01*
Y741000D02*
Y741000D01*
X692000Y735000D02*
X698000Y741000D01*
X690000Y735000D02*
X692000D01*
X626000Y744000D02*
X629000Y747000D01*
X626000Y741000D02*
Y744000D01*
Y738000D02*
Y741000D01*
Y738000D02*
X629000Y735000D01*
X461000Y712000D02*
X470000D01*
X124000Y198000D02*
Y202000D01*
X538000Y186000D02*
Y194000D01*
Y163000D02*
Y186000D01*
X538000Y194000D02*
X538000Y194000D01*
X1058850Y726150D02*
X1059000Y726000D01*
X1058850Y726150D02*
Y746975D01*
X1020750Y726250D02*
X1021000Y726000D01*
X1020750Y726250D02*
Y746975D01*
X982650Y726650D02*
Y746975D01*
X942000Y726000D02*
Y730728D01*
X944550Y733278D01*
Y746975D01*
X1126000Y780000D02*
X1129217D01*
X1133467Y784250D01*
X1138000Y771000D02*
Y772000D01*
X1128000Y761000D02*
X1138000Y771000D01*
X1140000Y763000D02*
X1144000D01*
X1135000Y758000D02*
X1140000Y763000D01*
X1198000Y838000D02*
X1199000D01*
X1209000Y754000D02*
Y767000D01*
X1208000Y768000D02*
X1209000Y767000D01*
X1163500Y829500D02*
Y835500D01*
X1174000Y846000D01*
Y847000D01*
X1191000Y754000D02*
X1199000D01*
X1197500Y776500D02*
X1199500D01*
X1201000Y778000D02*
X1208000D01*
X1199500Y776500D02*
X1201000Y778000D01*
X1135000Y742132D02*
Y758000D01*
X1145000Y754000D02*
X1151000Y760000D01*
X989000Y349000D02*
X989000Y349000D01*
X989000Y340500D02*
Y349000D01*
X732000Y773000D02*
X735000Y770000D01*
X730000Y773000D02*
X732000D01*
X735000Y765000D02*
Y770000D01*
Y760000D02*
Y765000D01*
X733000Y758000D02*
X735000Y760000D01*
X730000Y758000D02*
X733000D01*
X700000Y763000D02*
X705000D01*
X698000Y765000D02*
X700000Y763000D01*
X690000Y764000D02*
X691000Y765000D01*
X698000D01*
X678250Y774250D02*
Y779750D01*
X674000Y770000D02*
X678250Y774250D01*
X667000Y770000D02*
X674000D01*
X701000Y780000D02*
X705000Y776000D01*
Y773000D02*
Y776000D01*
X638000Y709000D02*
X642000Y705000D01*
X638000Y709000D02*
Y712000D01*
X652000Y710500D02*
X657500Y705000D01*
X661500D01*
X680000Y712000D02*
X680000Y712000D01*
X666000Y712000D02*
X680000D01*
X666000D02*
X667250Y710750D01*
Y705250D02*
Y710750D01*
Y705250D02*
X667500Y705000D01*
X652000Y772000D02*
X654000Y770000D01*
X652000Y772000D02*
Y777000D01*
X678000Y780000D02*
X678250Y779750D01*
X780000Y366000D02*
X780000D01*
X748000Y351000D02*
Y366000D01*
X748000Y366000D01*
X430000Y329000D02*
Y351000D01*
X398000Y336000D02*
Y351000D01*
X318000Y386000D02*
Y393000D01*
X430000Y191000D02*
X430000Y191000D01*
Y184000D02*
Y191000D01*
X384000Y85000D02*
Y92000D01*
X186000Y85000D02*
X194000D01*
X343000Y233000D02*
X350000D01*
X343000Y233000D02*
X343000Y233000D01*
X280000Y200000D02*
Y207000D01*
X314500Y211500D02*
Y218500D01*
X452000Y722000D02*
X461000D01*
X305000Y879000D02*
Y885000D01*
X347000Y848000D02*
Y855000D01*
X331000Y848000D02*
Y855000D01*
X166000Y133000D02*
Y150808D01*
X266000Y191000D02*
X273000D01*
X177000D02*
X184000D01*
X624000Y269000D02*
Y284000D01*
X616000Y269000D02*
Y284000D01*
X684000Y351000D02*
Y374000D01*
X652000Y710500D02*
Y712000D01*
X1130000Y728000D02*
X1137000D01*
X441500Y882000D02*
Y890500D01*
X900000Y382000D02*
Y389000D01*
X417000Y769000D02*
Y777000D01*
X1077000Y930000D02*
X1084000D01*
X572000Y337000D02*
Y351000D01*
X286368Y906500D02*
X304000D01*
X305000Y885000D02*
Y886000D01*
X313000Y894000D01*
X295000Y919000D02*
X298000Y922000D01*
X295000Y914000D02*
Y919000D01*
X298000Y922000D02*
X309364D01*
X311364Y920000D01*
X305000Y871000D02*
X313000D01*
X317000Y875000D02*
X330000D01*
X331750Y876750D01*
X313000Y871000D02*
X317000Y875000D01*
X780000Y366000D02*
X780000Y366000D01*
X282000Y877000D02*
Y902132D01*
X286368Y906500D01*
X288000Y871000D02*
X295000D01*
X282000Y877000D02*
X288000Y871000D01*
X404750Y473250D02*
X411750D01*
X412000Y473000D01*
X634000Y769000D02*
X635000Y770000D01*
X641000D01*
X1198000Y801000D02*
X1209000D01*
Y825000D02*
Y838000D01*
X1123000Y728000D02*
Y730132D01*
X1135000Y742132D01*
X705000Y763000D02*
X710000D01*
X720000Y773000D01*
X616000Y284000D02*
Y288000D01*
X620000Y292000D01*
X624000Y284000D02*
Y288000D01*
X620000Y292000D02*
X624000Y288000D01*
X564000Y337000D02*
X572000D01*
X572000D01*
D82*
X1077500Y312500D02*
Y325000D01*
X1045000Y280000D02*
X1077500Y312500D01*
X959000Y280000D02*
X1045000D01*
X957000Y282000D02*
X959000Y280000D01*
X848500Y931000D02*
Y960460D01*
X754000Y990000D02*
X818960D01*
X848500Y931000D02*
X853000Y926500D01*
X727000Y963000D02*
X754000Y990000D01*
X709000Y963000D02*
X727000D01*
X432000Y851000D02*
Y862000D01*
X600000Y932000D02*
Y947100D01*
X590000Y922000D02*
X600000Y932000D01*
X818960Y990000D02*
X848500Y960460D01*
X580000Y922000D02*
X590000D01*
X536000Y997000D02*
X550000D01*
X550000Y997000D01*
D84*
X999500Y380500D02*
X1000000D01*
Y396000D02*
Y396500D01*
D86*
X178750Y220250D02*
X191000D01*
X97500Y220500D02*
X110000Y208000D01*
X114000D01*
X119000D02*
X124750Y213750D01*
X114000Y208000D02*
X119000D01*
X124750Y213750D02*
X135000D01*
X108000Y251000D02*
X110250Y248750D01*
X97500Y256250D02*
X105750D01*
X108000Y251000D02*
Y254000D01*
X105750Y256250D02*
X108000Y254000D01*
X120486Y265736D02*
X126972Y259250D01*
X120486Y265736D02*
Y269514D01*
X117000Y273000D02*
X120486Y269514D01*
X114000Y273000D02*
X117000D01*
X97500Y268750D02*
X107000D01*
X111250Y273000D01*
X114000D01*
X125750Y233250D02*
X135000D01*
X123000Y236000D02*
X125750Y233250D01*
X123000Y236000D02*
Y242000D01*
X110250Y248750D02*
X113250D01*
X144750Y259250D02*
X153500Y250500D01*
X126972Y259250D02*
X144750D01*
X153500Y222222D02*
Y250500D01*
X150278Y219000D02*
X153500Y222222D01*
X145000Y219000D02*
X150278D01*
X143750Y220250D02*
X145000Y219000D01*
X135000Y220250D02*
X143750D01*
X97500Y243750D02*
X108250D01*
X114000Y233000D02*
Y238000D01*
X108250Y243750D02*
X114000Y238000D01*
Y233000D02*
X118000D01*
X124250Y226750D02*
X135000D01*
X118000Y233000D02*
X124250Y226750D01*
X97500Y220500D02*
Y231250D01*
X201750Y207250D02*
X204000Y205000D01*
X191000Y207250D02*
X201750D01*
X178750Y226750D02*
X191000D01*
X135000Y239750D02*
X147250D01*
X124000Y202000D02*
Y205000D01*
X126250Y207250D01*
X135000D01*
X114000Y249000D02*
X116000D01*
X113250Y248750D02*
X113500Y248500D01*
X116000Y249000D02*
X123000Y242000D01*
D87*
X53000Y338000D02*
X73000D01*
X19000Y304000D02*
X53000Y338000D01*
X19000Y139000D02*
Y304000D01*
X432000Y809000D02*
Y851000D01*
X429000Y806000D02*
X432000Y809000D01*
X429000Y765000D02*
Y806000D01*
D89*
X383700Y959000D02*
D03*
X358300D02*
D03*
X371000Y690000D02*
D03*
X754600Y60000D02*
D03*
X729200D02*
D03*
X703800D02*
D03*
X678400D02*
D03*
X653000D02*
D03*
X627600D02*
D03*
X780000Y34600D02*
D03*
X754600D02*
D03*
X729200D02*
D03*
X703800D02*
D03*
X678400D02*
D03*
X653000D02*
D03*
X627600D02*
D03*
X753600Y155400D02*
D03*
X728200D02*
D03*
X702800D02*
D03*
X677400D02*
D03*
X652000D02*
D03*
X753600Y130000D02*
D03*
X728200D02*
D03*
X702800D02*
D03*
X677400D02*
D03*
X1315400Y443400D02*
D03*
Y468800D02*
D03*
Y494200D02*
D03*
Y519600D02*
D03*
Y545000D02*
D03*
X1290000Y443400D02*
D03*
Y468800D02*
D03*
Y494200D02*
D03*
Y519600D02*
D03*
X1269600Y720000D02*
D03*
X1244200D02*
D03*
X1295000Y694600D02*
D03*
X1269600D02*
D03*
X1244200D02*
D03*
D90*
X1209500Y977500D02*
D03*
Y1042500D02*
D03*
X670000Y550000D02*
D03*
X870000Y880000D02*
D03*
X520000D02*
D03*
Y230000D02*
D03*
X870000D02*
D03*
X385990Y1023000D02*
D03*
X136010D02*
D03*
X955500Y618800D02*
D03*
Y217200D02*
D03*
D91*
X1162500Y1007500D02*
D03*
D92*
X780000Y60000D02*
D03*
X652000Y130000D02*
D03*
X1295000Y720000D02*
D03*
D93*
X1290000Y545000D02*
D03*
D94*
X50000Y1050000D02*
D03*
X1300000D02*
D03*
Y50000D02*
D03*
X50000D02*
D03*
D95*
X230000Y879000D02*
D03*
X1110000D02*
D03*
Y279000D02*
D03*
X230000Y229000D02*
D03*
D96*
X1232000Y774000D02*
D03*
Y794000D02*
D03*
Y814000D02*
D03*
X47500Y976500D02*
D03*
Y956500D02*
D03*
Y936500D02*
D03*
Y916500D02*
D03*
Y896500D02*
D03*
Y876500D02*
D03*
Y836500D02*
D03*
Y816500D02*
D03*
Y796500D02*
D03*
X27500Y966500D02*
D03*
Y946500D02*
D03*
Y926500D02*
D03*
Y906500D02*
D03*
Y886500D02*
D03*
Y846500D02*
D03*
Y826500D02*
D03*
Y806500D02*
D03*
Y786500D02*
D03*
X92500D02*
D03*
Y806500D02*
D03*
Y826500D02*
D03*
Y846500D02*
D03*
Y886500D02*
D03*
Y906500D02*
D03*
Y926500D02*
D03*
Y946500D02*
D03*
Y966500D02*
D03*
X72500Y796500D02*
D03*
Y816500D02*
D03*
Y836500D02*
D03*
Y876500D02*
D03*
Y896500D02*
D03*
Y916500D02*
D03*
Y936500D02*
D03*
Y956500D02*
D03*
D97*
X1232000Y834000D02*
D03*
X72500Y976500D02*
D03*
D98*
X1175000Y686200D02*
D03*
X140000Y170000D02*
D03*
X150000Y765000D02*
D03*
Y866600D02*
D03*
X1310000Y329200D02*
D03*
Y380000D02*
D03*
Y278400D02*
D03*
D99*
X1175000Y711600D02*
D03*
Y737000D02*
D03*
X140000Y144600D02*
D03*
Y119200D02*
D03*
X150000Y841200D02*
D03*
Y815800D02*
D03*
Y790400D02*
D03*
Y892000D02*
D03*
Y917400D02*
D03*
Y942800D02*
D03*
X1310000Y303800D02*
D03*
Y354600D02*
D03*
Y253000D02*
D03*
D100*
X160000Y692000D02*
D03*
Y729000D02*
D03*
Y655000D02*
D03*
X1281000Y131000D02*
D03*
D101*
X134600Y692000D02*
D03*
Y729000D02*
D03*
Y655000D02*
D03*
X1331800Y131000D02*
D03*
X1306400D02*
D03*
D102*
X163000Y390000D02*
D03*
Y351900D02*
D03*
Y313800D02*
D03*
X994500Y1040300D02*
D03*
X1004700Y1022500D02*
D03*
X1014800Y1040300D02*
D03*
X1025000Y1022500D02*
D03*
X1035100Y1040300D02*
D03*
X1045200Y1022500D02*
D03*
X1055400Y1040300D02*
D03*
X1065600Y1022500D02*
D03*
D103*
X158000Y416700D02*
D03*
Y287100D02*
D03*
D104*
X153000Y377300D02*
D03*
Y364600D02*
D03*
Y339200D02*
D03*
Y326500D02*
D03*
D105*
X1220000Y30000D02*
D03*
X1200000Y54000D02*
D03*
Y109000D02*
D03*
X1220000Y146000D02*
D03*
Y91000D02*
D03*
X1000000Y30000D02*
D03*
X980000Y54000D02*
D03*
Y109000D02*
D03*
X1000000Y146000D02*
D03*
Y91000D02*
D03*
X1110000Y30000D02*
D03*
X1090000Y54000D02*
D03*
Y109000D02*
D03*
X1110000Y146000D02*
D03*
Y91000D02*
D03*
X890000Y30000D02*
D03*
X870000Y54000D02*
D03*
Y109000D02*
D03*
X890000Y146000D02*
D03*
Y91000D02*
D03*
D106*
X247136Y1037182D02*
D03*
X302593D02*
D03*
X233378Y1008818D02*
D03*
X219408Y1037182D02*
D03*
X274864D02*
D03*
X288834Y1008818D02*
D03*
X261106D02*
D03*
X205649D02*
D03*
D107*
X316563D02*
D03*
D108*
X104600Y50000D02*
D03*
Y75400D02*
D03*
X130000D02*
D03*
D109*
Y50000D02*
D03*
D110*
X1300000Y802600D02*
D03*
Y853400D02*
D03*
Y904200D02*
D03*
D111*
Y955000D02*
D03*
D112*
X422500Y27550D02*
D03*
X377500D02*
D03*
X322500D02*
D03*
X277500D02*
D03*
X222500D02*
D03*
X177500D02*
D03*
D113*
X435050Y52450D02*
D03*
X364950D02*
D03*
X335050D02*
D03*
X264950D02*
D03*
X235050D02*
D03*
X164950D02*
D03*
D114*
X1111300Y1031400D02*
D03*
X948700D02*
D03*
D115*
X1093500Y1065700D02*
D03*
X966500D02*
D03*
D116*
X984300Y974300D02*
D03*
X961400D02*
D03*
X1075700D02*
D03*
X1098600D02*
D03*
D117*
X630700Y943600D02*
D03*
X499300D02*
D03*
X630700Y1000400D02*
D03*
X499300D02*
D03*
D118*
X600000Y973300D02*
D03*
X575000D02*
D03*
X555000D02*
D03*
X530000Y947100D02*
D03*
X555000D02*
D03*
X575000D02*
D03*
X600000D02*
D03*
X530000Y973300D02*
D03*
D119*
X720500Y999000D02*
D03*
X865500D02*
D03*
D120*
Y1058600D02*
D03*
X720500D02*
D03*
D121*
X52000Y717250D02*
D03*
Y672750D02*
D03*
D122*
X22000Y733120D02*
D03*
Y656880D02*
D03*
D123*
X440000Y150000D02*
D03*
D124*
X414600D02*
D03*
X389200D02*
D03*
X363800D02*
D03*
X338400D02*
D03*
X313000D02*
D03*
X287600D02*
D03*
X262200D02*
D03*
X236800D02*
D03*
X211400D02*
D03*
X440000Y124600D02*
D03*
X414600D02*
D03*
X389200D02*
D03*
X363800D02*
D03*
X338400D02*
D03*
X313000D02*
D03*
X287600D02*
D03*
X262200D02*
D03*
X236800D02*
D03*
X211400D02*
D03*
D125*
X826700Y597500D02*
D03*
X120000Y187000D02*
D03*
X120500Y254500D02*
D03*
X1148000Y674000D02*
D03*
X229000Y297000D02*
D03*
X1077500Y325000D02*
D03*
X306000Y226000D02*
D03*
X1266000Y328000D02*
D03*
X955000Y254000D02*
D03*
X543000Y672000D02*
D03*
X166000Y133000D02*
D03*
X152000Y85000D02*
D03*
X170000Y75000D02*
D03*
Y85000D02*
D03*
X925000Y947000D02*
D03*
X1050200Y916000D02*
D03*
X1029400D02*
D03*
X1012100D02*
D03*
X991300D02*
D03*
X953200Y912000D02*
D03*
X974000D02*
D03*
X1182000Y648000D02*
D03*
X804000Y89000D02*
D03*
X501000Y296000D02*
D03*
X91000Y433000D02*
D03*
X602000Y174000D02*
D03*
X736000Y315000D02*
D03*
X682000D02*
D03*
X1201000Y882000D02*
D03*
X1189000D02*
D03*
X966850Y917000D02*
D03*
X960350D02*
D03*
X928750Y938000D02*
D03*
X922250D02*
D03*
X726000Y860000D02*
D03*
X886000Y962000D02*
D03*
X1004950Y911000D02*
D03*
X998450D02*
D03*
X1036550D02*
D03*
X1043050D02*
D03*
X963000Y686000D02*
D03*
X915000Y651000D02*
D03*
X788000Y713000D02*
D03*
X793500Y720000D02*
D03*
X800000Y720000D02*
D03*
X1022000Y632000D02*
D03*
X1015500D02*
D03*
X1021000Y709000D02*
D03*
X959500Y694500D02*
D03*
X966000Y694500D02*
D03*
X832500Y677000D02*
D03*
Y683000D02*
D03*
X776000Y681500D02*
D03*
X762442Y841442D02*
D03*
X768942D02*
D03*
X776000Y675000D02*
D03*
X827500Y668000D02*
D03*
X786500Y832000D02*
D03*
X827500Y662000D02*
D03*
X793000Y832000D02*
D03*
X889300Y668000D02*
D03*
X735000Y860000D02*
D03*
X889300Y662000D02*
D03*
X735000Y853500D02*
D03*
X900000Y651500D02*
D03*
X756250Y887000D02*
D03*
X900000Y658000D02*
D03*
X749750Y887000D02*
D03*
X643000Y399000D02*
D03*
X621000D02*
D03*
X481000Y683000D02*
D03*
Y676500D02*
D03*
X562500Y677000D02*
D03*
X424000Y643000D02*
D03*
X562500Y683000D02*
D03*
X424000Y649000D02*
D03*
X586300Y668000D02*
D03*
X456000Y649250D02*
D03*
X586300Y662000D02*
D03*
X456000Y642750D02*
D03*
X479000Y644000D02*
D03*
X462000Y705000D02*
D03*
X376000Y654000D02*
D03*
X472000Y638000D02*
D03*
X440000D02*
D03*
X408000D02*
D03*
X459000Y494000D02*
D03*
X378500Y530000D02*
D03*
X148000Y231000D02*
D03*
X385000Y530000D02*
D03*
X148000Y224500D02*
D03*
X392000Y544500D02*
D03*
X154000Y202000D02*
D03*
X392000Y538000D02*
D03*
X154000Y208500D02*
D03*
X124000Y305500D02*
D03*
Y312000D02*
D03*
X354904Y568096D02*
D03*
X136000Y447000D02*
D03*
X359500Y563500D02*
D03*
X142500Y447000D02*
D03*
X385000Y554000D02*
D03*
X126000Y268000D02*
D03*
X378500Y554000D02*
D03*
X126000Y274500D02*
D03*
X352000Y582500D02*
D03*
Y589000D02*
D03*
X844000Y486000D02*
D03*
X689000Y524000D02*
D03*
X1086000Y854000D02*
D03*
X1070000Y860000D02*
D03*
Y826000D02*
D03*
X1077000Y930000D02*
D03*
X1136000Y660000D02*
D03*
X814000Y366000D02*
D03*
X684000Y374000D02*
D03*
X620000Y292000D02*
D03*
X564000Y337000D02*
D03*
X454000Y337000D02*
D03*
X222000Y336000D02*
D03*
X276000Y246000D02*
D03*
X266000D02*
D03*
X462000Y337000D02*
D03*
X222000Y328000D02*
D03*
X334000Y329000D02*
D03*
X879000Y438000D02*
D03*
X889000Y446000D02*
D03*
X705000Y499000D02*
D03*
X695000Y491000D02*
D03*
X91000Y443000D02*
D03*
X223000Y827000D02*
D03*
X242000Y778000D02*
D03*
X485000Y777000D02*
D03*
X458000Y789000D02*
D03*
X595000Y787000D02*
D03*
X563000Y857000D02*
D03*
X595000Y795000D02*
D03*
X1004500Y302500D02*
D03*
X1004000Y329000D02*
D03*
X787000Y792000D02*
D03*
Y782000D02*
D03*
X805000Y827000D02*
D03*
X36000Y302000D02*
D03*
Y292000D02*
D03*
X40000Y246000D02*
D03*
Y236000D02*
D03*
Y146000D02*
D03*
X31000D02*
D03*
X390000Y350000D02*
D03*
X661000Y380000D02*
D03*
X327000Y291000D02*
D03*
X383000D02*
D03*
X512000Y343000D02*
D03*
X805500Y622500D02*
D03*
X613000Y190000D02*
D03*
X1098000Y720600D02*
D03*
X1098000Y793000D02*
D03*
X1120000Y770000D02*
D03*
X1160000Y781000D02*
D03*
X1153500Y835500D02*
D03*
X957000Y294500D02*
D03*
X989000Y349000D02*
D03*
X1190000Y264000D02*
D03*
X1228500Y248500D02*
D03*
X1266000Y248000D02*
D03*
X1252000Y233000D02*
D03*
X1154000Y400000D02*
D03*
X1148000Y383000D02*
D03*
X1127000Y348000D02*
D03*
X1085000D02*
D03*
X296000Y549200D02*
D03*
X1173000Y381000D02*
D03*
X1140000Y348000D02*
D03*
X1099000Y348000D02*
D03*
X1061000Y331000D02*
D03*
X914000Y337000D02*
D03*
X947000Y280000D02*
D03*
X879000Y183000D02*
D03*
X947000Y452000D02*
D03*
X912150Y448250D02*
D03*
X949000Y407500D02*
D03*
Y417500D02*
D03*
X980000Y411000D02*
D03*
X535000Y350000D02*
D03*
X591000Y184000D02*
D03*
X480000Y132000D02*
D03*
X718000Y368000D02*
D03*
X439750Y473250D02*
D03*
X428750Y473250D02*
D03*
X417750Y501250D02*
D03*
X404750Y473250D02*
D03*
X490000Y484000D02*
D03*
X368000Y469000D02*
D03*
X662000Y741000D02*
D03*
X642000Y705000D02*
D03*
X599000Y889000D02*
D03*
X907000Y899000D02*
D03*
X768000Y891000D02*
D03*
X192000Y829000D02*
D03*
X352999Y506999D02*
D03*
X320000Y529000D02*
D03*
X606000Y791000D02*
D03*
X299000Y557000D02*
D03*
X1158500Y762500D02*
D03*
X780000Y366000D02*
D03*
X748000D02*
D03*
X398000Y336000D02*
D03*
X296000Y532800D02*
D03*
X395750Y473250D02*
D03*
X808000Y283000D02*
D03*
X796000Y366000D02*
D03*
X708000D02*
D03*
X580000Y381000D02*
D03*
X620000Y367000D02*
D03*
X644000D02*
D03*
X776000Y284000D02*
D03*
X752000Y254000D02*
D03*
X696000Y284000D02*
D03*
X672000D02*
D03*
X664000D02*
D03*
X640000D02*
D03*
X632000D02*
D03*
X608000D02*
D03*
X560000Y178000D02*
D03*
X426000Y284000D02*
D03*
X402000D02*
D03*
X806000Y366000D02*
D03*
X624000Y284000D02*
D03*
X616000D02*
D03*
X572000Y337000D02*
D03*
X373000Y291000D02*
D03*
X341000D02*
D03*
X363000D02*
D03*
X349000D02*
D03*
X327000Y467000D02*
D03*
Y476000D02*
D03*
X462000Y484000D02*
D03*
X221000Y371000D02*
D03*
X358000Y336000D02*
D03*
X334000Y337000D02*
D03*
X274000Y254000D02*
D03*
X266000D02*
D03*
X346000Y284000D02*
D03*
X322000Y284000D02*
D03*
X314000D02*
D03*
X258000Y253000D02*
D03*
X282000Y253000D02*
D03*
X290000Y284000D02*
D03*
X446000Y336000D02*
D03*
X326000D02*
D03*
X230000D02*
D03*
X294000Y366000D02*
D03*
X270000Y336000D02*
D03*
X489498Y173498D02*
D03*
X538000Y194000D02*
D03*
X737000Y205000D02*
D03*
X741000Y198000D02*
D03*
X723000Y190000D02*
D03*
X737000Y229000D02*
D03*
X703000Y237000D02*
D03*
X627000Y255000D02*
D03*
X619000Y227000D02*
D03*
X608000Y231000D02*
D03*
X766500Y239500D02*
D03*
X718500Y237500D02*
D03*
X699000Y244500D02*
D03*
X691000Y254500D02*
D03*
X683000Y254500D02*
D03*
X675000Y254500D02*
D03*
X683000Y244500D02*
D03*
X675000Y244500D02*
D03*
X710000Y190000D02*
D03*
X687000D02*
D03*
X664000D02*
D03*
X608000Y206000D02*
D03*
X631000Y190000D02*
D03*
X591000Y210000D02*
D03*
X518000Y123000D02*
D03*
X508000D02*
D03*
X498000D02*
D03*
X492000Y19000D02*
D03*
X512000D02*
D03*
X532000D02*
D03*
X556000D02*
D03*
X450000Y27000D02*
D03*
X440000Y78000D02*
D03*
X610000Y118000D02*
D03*
X601000Y50000D02*
D03*
X591000Y9000D02*
D03*
Y24000D02*
D03*
X455000Y8000D02*
D03*
X477000D02*
D03*
X430000Y78000D02*
D03*
X430000Y184000D02*
D03*
X384000Y92000D02*
D03*
X408000Y68000D02*
D03*
X300000Y68000D02*
D03*
X218000Y75000D02*
D03*
X186000Y85000D02*
D03*
X343000Y216000D02*
D03*
X350000Y233000D02*
D03*
X280000Y200000D02*
D03*
X314500Y211500D02*
D03*
X186000Y75000D02*
D03*
X303000Y191000D02*
D03*
X422500Y698500D02*
D03*
X364000Y718000D02*
D03*
X384500Y709500D02*
D03*
X461000Y722000D02*
D03*
X351000Y777000D02*
D03*
X421000Y737000D02*
D03*
X407000D02*
D03*
X323050Y792050D02*
D03*
X347000Y848000D02*
D03*
X331000D02*
D03*
X401500Y890000D02*
D03*
X316000Y949000D02*
D03*
X316000Y961000D02*
D03*
X311000Y955000D02*
D03*
X243500Y963000D02*
D03*
X248500Y958750D02*
D03*
X238500D02*
D03*
X233500Y963000D02*
D03*
X311000Y943000D02*
D03*
X339000Y969000D02*
D03*
X349000D02*
D03*
X246000Y934000D02*
D03*
X236000D02*
D03*
X295000Y936000D02*
D03*
X288000Y899000D02*
D03*
Y885000D02*
D03*
X18000Y1000000D02*
D03*
X347000Y909000D02*
D03*
X338000Y920000D02*
D03*
X356000D02*
D03*
Y898000D02*
D03*
X305000Y879000D02*
D03*
X52000Y1001000D02*
D03*
X80000Y1000000D02*
D03*
X10000Y925000D02*
D03*
X420000Y196000D02*
D03*
X325000Y84000D02*
D03*
X540000Y123000D02*
D03*
X612000Y381000D02*
D03*
X54000Y154000D02*
D03*
X350000Y336000D02*
D03*
X684000Y1004000D02*
D03*
X479000Y722000D02*
D03*
X570000Y231000D02*
D03*
X563000Y267000D02*
D03*
X310000Y371000D02*
D03*
X171000Y231000D02*
D03*
X165000Y227000D02*
D03*
X302000Y377000D02*
D03*
X400000Y847000D02*
D03*
X410000Y847000D02*
D03*
X247000Y701000D02*
D03*
X532700Y562500D02*
D03*
Y577500D02*
D03*
X458000Y254000D02*
D03*
X486500Y652500D02*
D03*
X674000Y1004000D02*
D03*
X229000Y715000D02*
D03*
X803000Y598000D02*
D03*
X806000Y382000D02*
D03*
X342000Y366000D02*
D03*
X692000Y376000D02*
D03*
X911000Y372000D02*
D03*
X793000Y252000D02*
D03*
X788000Y306000D02*
D03*
X600000Y216000D02*
D03*
X795000Y591000D02*
D03*
X867300Y597500D02*
D03*
X458500Y757500D02*
D03*
X889600Y562500D02*
D03*
X528700Y597500D02*
D03*
X522700Y592500D02*
D03*
X895000Y503000D02*
D03*
Y511000D02*
D03*
X1007000Y576000D02*
D03*
X1004000Y583000D02*
D03*
X557300Y642500D02*
D03*
X786000Y693000D02*
D03*
X767000Y723000D02*
D03*
X808000Y912000D02*
D03*
X813000Y924000D02*
D03*
X818000Y918000D02*
D03*
X823000Y912000D02*
D03*
X922000Y636000D02*
D03*
X928000Y644000D02*
D03*
X867300Y657500D02*
D03*
X1081000Y526250D02*
D03*
Y532750D02*
D03*
X838000Y246000D02*
D03*
X848000Y253000D02*
D03*
X831000Y228000D02*
D03*
X821000Y253000D02*
D03*
X1145500Y407500D02*
D03*
X1139500Y402500D02*
D03*
X1133500Y397500D02*
D03*
Y407500D02*
D03*
X693000Y625000D02*
D03*
X714000Y599000D02*
D03*
X708000Y606000D02*
D03*
X697000Y611000D02*
D03*
X501500Y627500D02*
D03*
X493000Y627500D02*
D03*
X501500Y637500D02*
D03*
X484500Y627500D02*
D03*
X879000Y446000D02*
D03*
X1036500Y358000D02*
D03*
X1036500Y348500D02*
D03*
X1024500D02*
D03*
X1014500Y351500D02*
D03*
X1049500Y336500D02*
D03*
Y320500D02*
D03*
Y328500D02*
D03*
X559300Y562500D02*
D03*
X828000Y1007900D02*
D03*
X798000D02*
D03*
X783000D02*
D03*
X768000D02*
D03*
X753000D02*
D03*
X783000Y969000D02*
D03*
X753000D02*
D03*
X798000Y948000D02*
D03*
X768000D02*
D03*
X743000D02*
D03*
Y891000D02*
D03*
X753000Y912000D02*
D03*
X783000D02*
D03*
X798000Y891000D02*
D03*
X832800Y572500D02*
D03*
X359500Y871500D02*
D03*
X385500Y896500D02*
D03*
Y906500D02*
D03*
Y916500D02*
D03*
X366500Y876500D02*
D03*
X379500Y901500D02*
D03*
Y911500D02*
D03*
Y921500D02*
D03*
X861200Y572500D02*
D03*
X867300Y577500D02*
D03*
X861200Y582500D02*
D03*
X867300Y587500D02*
D03*
X832800Y582500D02*
D03*
X826700Y577500D02*
D03*
Y587500D02*
D03*
X800000Y579000D02*
D03*
X772000Y629000D02*
D03*
X866200Y622500D02*
D03*
X893000Y616000D02*
D03*
X495000Y181000D02*
D03*
X860300Y627500D02*
D03*
X516000Y173000D02*
D03*
X505000Y181000D02*
D03*
X582000Y153000D02*
D03*
Y143000D02*
D03*
X543000Y204000D02*
D03*
X783000Y629000D02*
D03*
X563300Y637500D02*
D03*
X527700Y672500D02*
D03*
X533700Y667500D02*
D03*
X551300Y617500D02*
D03*
X495500Y612500D02*
D03*
X489000Y617500D02*
D03*
X501500Y607500D02*
D03*
X557300Y612500D02*
D03*
X416000Y890000D02*
D03*
X1127250Y514250D02*
D03*
X1082000Y652000D02*
D03*
X493000Y657500D02*
D03*
X501500Y657500D02*
D03*
X37000Y745000D02*
D03*
X102000Y703000D02*
D03*
X19000Y711000D02*
D03*
Y702000D02*
D03*
Y688000D02*
D03*
Y678000D02*
D03*
X60000Y682000D02*
D03*
X65000Y656000D02*
D03*
X103000Y686000D02*
D03*
X55000Y648000D02*
D03*
Y639000D02*
D03*
X199000Y763000D02*
D03*
X167000Y921000D02*
D03*
X215000Y827000D02*
D03*
X207000Y763000D02*
D03*
X336000Y574000D02*
D03*
X320000Y587000D02*
D03*
X314000Y570000D02*
D03*
X55000Y443000D02*
D03*
Y433000D02*
D03*
Y423000D02*
D03*
X65000D02*
D03*
X263000Y519000D02*
D03*
X296000Y525000D02*
D03*
X326000Y540000D02*
D03*
X325000Y570000D02*
D03*
X118500Y327500D02*
D03*
Y177500D02*
D03*
Y165000D02*
D03*
X59000Y280000D02*
D03*
X79000D02*
D03*
X58000Y220000D02*
D03*
X78000D02*
D03*
X32984Y197000D02*
D03*
X16000Y113000D02*
D03*
X86000Y168000D02*
D03*
X96000D02*
D03*
X117000Y93000D02*
D03*
X107000D02*
D03*
X53000Y109000D02*
D03*
Y99000D02*
D03*
X144000Y194000D02*
D03*
X166000Y184000D02*
D03*
X173000D02*
D03*
X147250Y239750D02*
D03*
X178750Y226750D02*
D03*
Y220250D02*
D03*
X177000Y191000D02*
D03*
X218000Y183000D02*
D03*
X242000D02*
D03*
X273000Y191000D02*
D03*
X817000Y328000D02*
D03*
X704000Y315000D02*
D03*
X715000D02*
D03*
X694000D02*
D03*
X725000D02*
D03*
X652000Y366000D02*
D03*
X660000Y366000D02*
D03*
X684000Y366000D02*
D03*
X676000D02*
D03*
X596000Y906500D02*
D03*
X600000Y1016000D02*
D03*
X709000Y963000D02*
D03*
X716000Y946000D02*
D03*
Y922000D02*
D03*
X710000Y912000D02*
D03*
X717000Y895000D02*
D03*
X714000Y884000D02*
D03*
X818000Y947000D02*
D03*
X813000Y941000D02*
D03*
X833000Y975000D02*
D03*
X823000D02*
D03*
X813000D02*
D03*
X818000Y971000D02*
D03*
X853000Y926500D02*
D03*
X860000Y948000D02*
D03*
X860000Y962000D02*
D03*
X678000Y780000D02*
D03*
X652000Y777000D02*
D03*
X634000Y769000D02*
D03*
X698000Y741000D02*
D03*
Y765000D02*
D03*
X735000D02*
D03*
X664000Y682000D02*
D03*
X584500Y687500D02*
D03*
X501500D02*
D03*
X667500Y705000D02*
D03*
X661500Y705000D02*
D03*
X682000Y705000D02*
D03*
X626000Y741000D02*
D03*
X701000Y780000D02*
D03*
X725000Y796000D02*
D03*
X687000Y797000D02*
D03*
X624000Y791000D02*
D03*
X722000Y804000D02*
D03*
X725000Y765000D02*
D03*
X718000Y742000D02*
D03*
Y726000D02*
D03*
X714000Y710000D02*
D03*
X709000Y848000D02*
D03*
X647000Y753000D02*
D03*
X662000D02*
D03*
X647000Y741000D02*
D03*
X662000Y729000D02*
D03*
X677000Y741000D02*
D03*
Y729000D02*
D03*
Y753000D02*
D03*
X647000Y729000D02*
D03*
X576000Y710000D02*
D03*
Y727000D02*
D03*
X604000Y724000D02*
D03*
X596000D02*
D03*
X698000Y721000D02*
D03*
X739000Y711000D02*
D03*
X757000Y801000D02*
D03*
X758000Y815000D02*
D03*
X1124000Y991000D02*
D03*
X904000Y971000D02*
D03*
X913000D02*
D03*
X990000Y716000D02*
D03*
X1066000D02*
D03*
X1252000Y865000D02*
D03*
X1202000Y801000D02*
D03*
X1199000Y793000D02*
D03*
X1215000Y791000D02*
D03*
X1199000Y786000D02*
D03*
X1178500Y762500D02*
D03*
X1130000Y728000D02*
D03*
X1147000Y736000D02*
D03*
X1198500Y808500D02*
D03*
X1178500Y825500D02*
D03*
X1217000Y847000D02*
D03*
X1210000Y853000D02*
D03*
X1139000Y859000D02*
D03*
X1131000Y854000D02*
D03*
X1120000Y806000D02*
D03*
Y814000D02*
D03*
Y838000D02*
D03*
Y828350D02*
D03*
X1108000Y794000D02*
D03*
X1108000Y778000D02*
D03*
X1129000Y745000D02*
D03*
X1095000D02*
D03*
X1098000Y828350D02*
D03*
Y814600D02*
D03*
Y840000D02*
D03*
Y733300D02*
D03*
X1119650Y708000D02*
D03*
X1098000Y801950D02*
D03*
X390000Y502000D02*
D03*
X551300Y627500D02*
D03*
X557300Y622500D02*
D03*
X501500Y617500D02*
D03*
X528700Y622500D02*
D03*
X318000Y393000D02*
D03*
X328000Y378000D02*
D03*
X365000Y344000D02*
D03*
X462000Y364000D02*
D03*
X424000Y411000D02*
D03*
X414000D02*
D03*
X502000Y392000D02*
D03*
X442000Y418000D02*
D03*
X464000Y457000D02*
D03*
X453000Y436000D02*
D03*
X1187000Y827000D02*
D03*
X1186000Y759000D02*
D03*
X1043000Y762000D02*
D03*
Y834000D02*
D03*
X1175000Y621000D02*
D03*
X1182000Y637000D02*
D03*
X1165000Y640050D02*
D03*
X1090000D02*
D03*
Y627350D02*
D03*
X1206000Y597000D02*
D03*
X1192000Y596000D02*
D03*
X1136000Y584000D02*
D03*
X1152000Y584000D02*
D03*
X1175000Y589000D02*
D03*
X1225000Y551000D02*
D03*
X1097000Y588000D02*
D03*
X1055000Y489000D02*
D03*
Y537000D02*
D03*
X1086000Y489000D02*
D03*
X1190000Y524000D02*
D03*
X1198000Y530000D02*
D03*
X1127250Y520750D02*
D03*
X1119000Y519750D02*
D03*
X1147000Y415000D02*
D03*
X1072000Y479000D02*
D03*
X1106000Y467000D02*
D03*
X1092000D02*
D03*
X1078000D02*
D03*
X1171000Y357000D02*
D03*
X1173000Y370000D02*
D03*
X1084500Y372500D02*
D03*
X1252000Y328000D02*
D03*
X1245000Y341000D02*
D03*
X1259000D02*
D03*
X1273000Y317000D02*
D03*
X1264500Y304000D02*
D03*
X1264500Y294500D02*
D03*
X1133500Y417500D02*
D03*
X1129000Y434000D02*
D03*
X1266000Y239000D02*
D03*
X1280000Y254000D02*
D03*
X1310000Y229000D02*
D03*
X1113000Y365000D02*
D03*
X1092500Y372500D02*
D03*
X1222000Y360000D02*
D03*
X1215000Y344000D02*
D03*
X1218500Y248500D02*
D03*
X1209000Y248500D02*
D03*
X1222000Y218000D02*
D03*
X1174000Y333000D02*
D03*
X1180000Y299000D02*
D03*
X1180000Y291000D02*
D03*
X1182000Y264000D02*
D03*
X1167000Y307000D02*
D03*
X1169000Y284000D02*
D03*
X1169000Y271000D02*
D03*
X1170500Y263000D02*
D03*
X1186000Y222000D02*
D03*
X1170000Y222000D02*
D03*
X1167000Y323000D02*
D03*
X1199000Y317000D02*
D03*
X1280000Y302000D02*
D03*
X1046000Y388000D02*
D03*
X1250000Y366000D02*
D03*
X1250000Y380000D02*
D03*
X1040000Y423000D02*
D03*
X1040000Y437000D02*
D03*
X1046000Y375000D02*
D03*
X1137000Y432000D02*
D03*
X1064000Y467000D02*
D03*
X977000Y424500D02*
D03*
X991000Y444000D02*
D03*
X1089000Y418000D02*
D03*
X1115000D02*
D03*
X1089500Y391500D02*
D03*
X1115000Y392000D02*
D03*
X1102000Y405000D02*
D03*
X996000Y411000D02*
D03*
X975000Y261000D02*
D03*
X1026000Y246000D02*
D03*
X978000D02*
D03*
X1035000Y199000D02*
D03*
X1001000D02*
D03*
X1001000Y175000D02*
D03*
X1035000D02*
D03*
X1043000Y168000D02*
D03*
X1091000D02*
D03*
X1091000Y196000D02*
D03*
X1050000Y233000D02*
D03*
X1084000D02*
D03*
X883000Y198000D02*
D03*
X931000D02*
D03*
X940000Y254000D02*
D03*
X891000Y254000D02*
D03*
X890000Y282000D02*
D03*
X1105500Y480000D02*
D03*
X879000Y423000D02*
D03*
X885000Y416000D02*
D03*
X885000Y399000D02*
D03*
X879000Y407000D02*
D03*
X898000Y275000D02*
D03*
X958000Y324000D02*
D03*
Y309000D02*
D03*
X949000Y315000D02*
D03*
Y289000D02*
D03*
X972000Y316000D02*
D03*
X957000Y282000D02*
D03*
X989000Y371000D02*
D03*
X1100500Y316000D02*
D03*
X983000Y166000D02*
D03*
X935000Y183000D02*
D03*
X998000Y420000D02*
D03*
Y432000D02*
D03*
X1036000Y486000D02*
D03*
X1042000Y477000D02*
D03*
X1030000Y470000D02*
D03*
X1050000Y449000D02*
D03*
X966000Y466000D02*
D03*
X976000Y466000D02*
D03*
X988000Y466000D02*
D03*
X1021000Y455000D02*
D03*
X1142000Y486000D02*
D03*
X1131000D02*
D03*
X1231000Y281000D02*
D03*
X1242000Y270000D02*
D03*
X1220000D02*
D03*
X1242000Y292000D02*
D03*
X1220000D02*
D03*
X954000Y372000D02*
D03*
X940000Y363500D02*
D03*
X955000Y452000D02*
D03*
X850000Y479000D02*
D03*
X886000Y378000D02*
D03*
X1148000Y686000D02*
D03*
X1062000Y603000D02*
D03*
X1074000Y581000D02*
D03*
X1038000Y603000D02*
D03*
X1027500Y567500D02*
D03*
X526000Y305000D02*
D03*
X555000Y331000D02*
D03*
X559000Y318000D02*
D03*
X549000Y317000D02*
D03*
X518000D02*
D03*
X521000Y343000D02*
D03*
X503000Y351000D02*
D03*
X549000Y350000D02*
D03*
X580000Y366000D02*
D03*
X557000Y385000D02*
D03*
X1119000Y532750D02*
D03*
X1013000Y521000D02*
D03*
X912150Y537150D02*
D03*
Y524450D02*
D03*
X905000Y552000D02*
D03*
X912150Y562550D02*
D03*
X947850Y549850D02*
D03*
X911150Y384750D02*
D03*
X460000Y1055000D02*
D03*
X441500Y890500D02*
D03*
X1257000Y469000D02*
D03*
X981000Y444000D02*
D03*
X906000Y496500D02*
D03*
X805000Y516000D02*
D03*
Y526000D02*
D03*
X785000Y516000D02*
D03*
X847000Y535000D02*
D03*
Y546000D02*
D03*
Y585000D02*
D03*
Y611000D02*
D03*
Y652000D02*
D03*
Y663000D02*
D03*
Y709000D02*
D03*
Y719000D02*
D03*
X1164500Y552500D02*
D03*
X884500Y492500D02*
D03*
X674000Y479000D02*
D03*
X674000Y496000D02*
D03*
X684000Y511000D02*
D03*
X900000Y389000D02*
D03*
X814000Y43000D02*
D03*
Y99000D02*
D03*
X354500Y941500D02*
D03*
X340000Y960000D02*
D03*
X359500Y946500D02*
D03*
X365500Y941500D02*
D03*
X346500Y993750D02*
D03*
X351500Y998000D02*
D03*
X341500D02*
D03*
X336500Y993750D02*
D03*
X417000Y777000D02*
D03*
X461000Y712000D02*
D03*
X1139000Y198000D02*
D03*
X1146000Y161000D02*
D03*
X1182000Y440000D02*
D03*
X1096000Y503000D02*
D03*
X1145000Y550000D02*
D03*
X1137000Y557000D02*
D03*
X1286000Y764000D02*
D03*
X1160000Y807000D02*
D03*
X1176000Y807000D02*
D03*
Y781000D02*
D03*
X1279000Y770000D02*
D03*
Y780000D02*
D03*
X1159000Y863000D02*
D03*
X1174000D02*
D03*
X835000Y802000D02*
D03*
X813000Y827000D02*
D03*
X835000Y792000D02*
D03*
X546000Y787000D02*
D03*
X458000Y782000D02*
D03*
X449000Y845000D02*
D03*
Y836000D02*
D03*
X485000Y787000D02*
D03*
X963000Y417500D02*
D03*
Y407500D02*
D03*
X1015000Y366000D02*
D03*
X914000Y299000D02*
D03*
X914250Y260750D02*
D03*
X820000Y290000D02*
D03*
X821000Y266000D02*
D03*
X528000Y277000D02*
D03*
Y266000D02*
D03*
X502000Y279000D02*
D03*
X209000Y282000D02*
D03*
Y268000D02*
D03*
X1044000Y196000D02*
D03*
X769000Y614000D02*
D03*
X910000Y599000D02*
D03*
X654000Y232000D02*
D03*
X641000Y243000D02*
D03*
X654000D02*
D03*
X641000Y232000D02*
D03*
X600000Y231000D02*
D03*
X594000Y130000D02*
D03*
X528000Y178000D02*
D03*
X646000Y385000D02*
D03*
X543000Y721000D02*
D03*
Y644000D02*
D03*
Y697000D02*
D03*
X847000Y574000D02*
D03*
Y637000D02*
D03*
X543000Y583000D02*
D03*
Y573000D02*
D03*
Y611000D02*
D03*
Y534000D02*
D03*
Y544000D02*
D03*
X118500Y360500D02*
D03*
X117000Y215000D02*
D03*
X119000Y290000D02*
D03*
X462000Y474000D02*
D03*
X124000Y879000D02*
D03*
X124000Y839000D02*
D03*
X114000D02*
D03*
X542000Y299000D02*
D03*
X185000Y676000D02*
D03*
X118500Y352500D02*
D03*
Y340000D02*
D03*
X172000Y202000D02*
D03*
X195000Y165000D02*
D03*
X262000Y366000D02*
D03*
X254000D02*
D03*
X246000D02*
D03*
X218000Y398000D02*
D03*
X262000Y376000D02*
D03*
X299000Y217000D02*
D03*
X254000Y382000D02*
D03*
X201000Y309000D02*
D03*
X242000Y788000D02*
D03*
X471000Y1040000D02*
D03*
X808000Y296000D02*
D03*
X956000Y464000D02*
D03*
X859000Y496000D02*
D03*
X1031000Y499000D02*
D03*
X738000Y355000D02*
D03*
X561000Y222000D02*
D03*
X491000Y55000D02*
D03*
X831000Y486000D02*
D03*
X511000Y286000D02*
D03*
X814000Y241000D02*
D03*
X513000Y377000D02*
D03*
X503000D02*
D03*
Y367000D02*
D03*
X611500Y669150D02*
D03*
X462000Y354000D02*
D03*
X538000Y454000D02*
D03*
X489000Y387000D02*
D03*
X135000Y637000D02*
D03*
X424000Y890000D02*
D03*
X549000Y752000D02*
D03*
X539000D02*
D03*
X935000Y716000D02*
D03*
X837000Y657000D02*
D03*
X867300Y687500D02*
D03*
X855300Y672500D02*
D03*
X704000Y677000D02*
D03*
X670000D02*
D03*
X697000Y655000D02*
D03*
X688000Y659000D02*
D03*
X732000Y702000D02*
D03*
X726000Y697000D02*
D03*
X738000Y687000D02*
D03*
X719000D02*
D03*
X724000Y677000D02*
D03*
X728000Y657000D02*
D03*
X724000Y667000D02*
D03*
X714000Y677000D02*
D03*
X1198000Y632000D02*
D03*
X510000Y317000D02*
D03*
X1176000Y173000D02*
D03*
Y162000D02*
D03*
X1187000D02*
D03*
X1017000Y316000D02*
D03*
X1030000Y303000D02*
D03*
Y329000D02*
D03*
X1056000Y635000D02*
D03*
X557000Y852000D02*
D03*
X546000Y777000D02*
D03*
X676000Y672000D02*
D03*
X552000Y896000D02*
D03*
X572000Y858000D02*
D03*
X578000D02*
D03*
X367000Y359000D02*
D03*
X549000Y360000D02*
D03*
X535000D02*
D03*
X1121000Y471500D02*
D03*
X125000Y931000D02*
D03*
X113000D02*
D03*
Y953000D02*
D03*
X125000D02*
D03*
X218000Y704000D02*
D03*
X185000Y684000D02*
D03*
X189000Y850000D02*
D03*
X338000Y898000D02*
D03*
X477000Y821000D02*
D03*
X202000Y676000D02*
D03*
Y684000D02*
D03*
X261000Y796500D02*
D03*
Y803500D02*
D03*
X434500Y738500D02*
D03*
X354000Y739000D02*
D03*
X395000Y628000D02*
D03*
X306000Y283000D02*
D03*
X389000Y628000D02*
D03*
X298000Y283000D02*
D03*
X389000Y664000D02*
D03*
X395000D02*
D03*
X443000Y671000D02*
D03*
Y677000D02*
D03*
X392000Y649000D02*
D03*
X455000Y700000D02*
D03*
X392000Y643000D02*
D03*
X455000Y694000D02*
D03*
X418000Y283000D02*
D03*
X459250Y628000D02*
D03*
X410000Y283000D02*
D03*
X452750Y628000D02*
D03*
X330000Y283000D02*
D03*
X421000Y628000D02*
D03*
X338000Y283000D02*
D03*
X427000Y628000D02*
D03*
X234000Y85000D02*
D03*
X436000Y423000D02*
D03*
X419000Y418000D02*
D03*
X538000Y444000D02*
D03*
X509000Y482000D02*
D03*
Y398000D02*
D03*
X484000Y377000D02*
D03*
X359000Y469000D02*
D03*
X401000Y466000D02*
D03*
X479000Y437000D02*
D03*
Y446000D02*
D03*
X452000Y445000D02*
D03*
X398000Y502000D02*
D03*
X627750Y468000D02*
D03*
X551500Y692000D02*
D03*
X634250Y468000D02*
D03*
X551500Y698000D02*
D03*
X627750Y438000D02*
D03*
X523500Y692000D02*
D03*
X634250Y438000D02*
D03*
X523500Y698000D02*
D03*
X592000Y471250D02*
D03*
Y464750D02*
D03*
X563000Y441250D02*
D03*
Y434750D02*
D03*
X627000Y453000D02*
D03*
X641000Y483000D02*
D03*
X621000D02*
D03*
X627000Y424000D02*
D03*
X638000D02*
D03*
X592000Y456000D02*
D03*
Y480000D02*
D03*
X563000Y427000D02*
D03*
Y450000D02*
D03*
X795500Y622500D02*
D03*
X576000Y148000D02*
D03*
X535000Y204000D02*
D03*
X857300Y617500D02*
D03*
X430000Y337000D02*
D03*
X430000Y329000D02*
D03*
X780000Y374000D02*
D03*
X838000Y467000D02*
D03*
X795000Y516000D02*
D03*
X826000Y462000D02*
D03*
X982000Y459000D02*
D03*
X950000Y471000D02*
D03*
X1030000Y455000D02*
D03*
X891000Y344000D02*
D03*
X693000Y637000D02*
D03*
X702000Y596000D02*
D03*
X842000Y475000D02*
D03*
X1047000Y484000D02*
D03*
X709000Y667000D02*
D03*
X730000Y687000D02*
D03*
X718000Y657000D02*
D03*
X601300Y647000D02*
D03*
X310000Y660000D02*
D03*
X601300Y653000D02*
D03*
X310000Y666000D02*
D03*
X307000Y635000D02*
D03*
X313000D02*
D03*
X313000Y724000D02*
D03*
X307000D02*
D03*
X327000Y654000D02*
D03*
X310000Y733000D02*
D03*
X295000Y662000D02*
D03*
X300000Y638000D02*
D03*
X320000D02*
D03*
X510000Y781000D02*
D03*
X530000D02*
D03*
X513000Y813000D02*
D03*
X523000D02*
D03*
X521000Y797000D02*
D03*
X893300Y608000D02*
D03*
X515000Y797000D02*
D03*
X893300Y602000D02*
D03*
X536000Y794000D02*
D03*
X666500Y777000D02*
D03*
X536000Y800000D02*
D03*
X672500Y777000D02*
D03*
X122000Y740000D02*
D03*
Y746000D02*
D03*
X490000Y794000D02*
D03*
X490000Y800000D02*
D03*
X543000Y688000D02*
D03*
X289250Y815000D02*
D03*
X283250D02*
D03*
X612000Y715000D02*
D03*
X629000Y403000D02*
D03*
X612000Y721000D02*
D03*
X635000Y403000D02*
D03*
X618000Y891000D02*
D03*
Y885000D02*
D03*
X585000Y848000D02*
D03*
X205000Y813000D02*
D03*
X1119650Y746100D02*
D03*
D126*
X192000Y887000D02*
D03*
X536000Y997000D02*
D03*
X1155000Y891000D02*
D03*
X1139000Y899000D02*
D03*
X1122000Y930000D02*
D03*
X1122000Y914000D02*
D03*
X978000Y875000D02*
D03*
X1070000D02*
D03*
X1090000Y706000D02*
D03*
X1070000Y764000D02*
D03*
X1071000Y740000D02*
D03*
X1070000Y844000D02*
D03*
Y813000D02*
D03*
X1057000Y670000D02*
D03*
X1041000D02*
D03*
X1039000Y779000D02*
D03*
Y795000D02*
D03*
X982000Y571000D02*
D03*
X1127000Y613000D02*
D03*
X33000Y416500D02*
D03*
X86000D02*
D03*
Y101000D02*
D03*
X39000D02*
D03*
X121500Y152500D02*
D03*
Y135000D02*
D03*
X339000Y564501D02*
D03*
X345000Y529000D02*
D03*
X862000Y536000D02*
D03*
Y520000D02*
D03*
X802000Y545000D02*
D03*
X786000Y567000D02*
D03*
Y545000D02*
D03*
X667000Y872000D02*
D03*
X592000Y317000D02*
D03*
X576000D02*
D03*
X478000Y322000D02*
D03*
X494000D02*
D03*
X224000Y958000D02*
D03*
X208000D02*
D03*
X192000D02*
D03*
X281000Y932000D02*
D03*
Y916000D02*
D03*
X248000Y763000D02*
D03*
X264000D02*
D03*
X178000Y933000D02*
D03*
Y949000D02*
D03*
X199000Y705000D02*
D03*
X183000Y705000D02*
D03*
X182000Y640000D02*
D03*
X64000Y747000D02*
D03*
Y731000D02*
D03*
X118000Y776000D02*
D03*
X110000Y789000D02*
D03*
X99000Y652000D02*
D03*
Y636000D02*
D03*
X40000Y206000D02*
D03*
X33000Y162000D02*
D03*
X682800Y1054200D02*
D03*
X667800D02*
D03*
X683000Y872000D02*
D03*
X671000Y936000D02*
D03*
X687000Y936000D02*
D03*
X727000Y823000D02*
D03*
X741000Y841000D02*
D03*
X748000Y819000D02*
D03*
X760350Y777350D02*
D03*
X667000Y896000D02*
D03*
X683000D02*
D03*
X1262000Y935000D02*
D03*
Y903000D02*
D03*
X1135000Y970000D02*
D03*
X1153000Y954000D02*
D03*
X1262000Y919000D02*
D03*
X897000Y857000D02*
D03*
Y805000D02*
D03*
Y821000D02*
D03*
X957000Y765000D02*
D03*
X1242000Y616000D02*
D03*
X1226000D02*
D03*
X1243000Y585000D02*
D03*
X1226000D02*
D03*
X1222000Y387000D02*
D03*
X1238000D02*
D03*
X1197000Y412000D02*
D03*
Y428000D02*
D03*
X1000000Y380500D02*
D03*
Y396500D02*
D03*
X957000Y781000D02*
D03*
X953000Y715000D02*
D03*
X957000Y811000D02*
D03*
Y831000D02*
D03*
Y851000D02*
D03*
X897000Y839000D02*
D03*
Y745000D02*
D03*
Y727000D02*
D03*
Y779000D02*
D03*
Y763000D02*
D03*
X40000Y222000D02*
D03*
X1011000Y875000D02*
D03*
X1150000Y870000D02*
D03*
X994000Y875000D02*
D03*
X1151000Y970000D02*
D03*
X1226000Y481000D02*
D03*
X1210000D02*
D03*
X226000Y692050D02*
D03*
Y653950D02*
D03*
X984000Y508000D02*
D03*
X1000000D02*
D03*
X900000Y355000D02*
D03*
D164*
X836500Y275000D02*
D03*
X543500D02*
D03*
X486500D02*
D03*
X193500D02*
D03*
D165*
X572000Y351000D02*
D03*
X580000D02*
D03*
X588000D02*
D03*
X596000D02*
D03*
X604000D02*
D03*
X612000D02*
D03*
X620000D02*
D03*
X628000D02*
D03*
X636000D02*
D03*
X644000D02*
D03*
X652000D02*
D03*
X660000D02*
D03*
X668000D02*
D03*
X676000D02*
D03*
X684000D02*
D03*
X692000D02*
D03*
X700000D02*
D03*
X708000D02*
D03*
X748000D02*
D03*
X756000D02*
D03*
X764000D02*
D03*
X772000D02*
D03*
X780000D02*
D03*
X788000D02*
D03*
X796000D02*
D03*
X804000D02*
D03*
X576000Y269000D02*
D03*
X584000D02*
D03*
X592000D02*
D03*
X600000D02*
D03*
X608000D02*
D03*
X616000D02*
D03*
X624000D02*
D03*
X632000D02*
D03*
X640000D02*
D03*
X648000D02*
D03*
X656000D02*
D03*
X664000D02*
D03*
X672000D02*
D03*
X680000D02*
D03*
X688000D02*
D03*
X696000D02*
D03*
X704000D02*
D03*
X712000D02*
D03*
X752000D02*
D03*
X760000D02*
D03*
X768000D02*
D03*
X776000D02*
D03*
X784000D02*
D03*
X792000D02*
D03*
X800000D02*
D03*
X808000D02*
D03*
X222000Y351000D02*
D03*
X230000D02*
D03*
X238000D02*
D03*
X246000D02*
D03*
X254000D02*
D03*
X262000D02*
D03*
X270000D02*
D03*
X278000D02*
D03*
X286000D02*
D03*
X294000D02*
D03*
X302000D02*
D03*
X310000D02*
D03*
X318000D02*
D03*
X326000D02*
D03*
X334000D02*
D03*
X342000D02*
D03*
X350000D02*
D03*
X358000D02*
D03*
X398000D02*
D03*
X406000D02*
D03*
X414000D02*
D03*
X422000D02*
D03*
X430000D02*
D03*
X438000D02*
D03*
X446000D02*
D03*
X454000D02*
D03*
X226000Y269000D02*
D03*
X234000D02*
D03*
X242000D02*
D03*
X250000D02*
D03*
X258000D02*
D03*
X266000D02*
D03*
X274000D02*
D03*
X282000D02*
D03*
X290000D02*
D03*
X298000D02*
D03*
X306000D02*
D03*
X314000D02*
D03*
X322000D02*
D03*
X330000D02*
D03*
X338000D02*
D03*
X346000D02*
D03*
X354000D02*
D03*
X362000D02*
D03*
X402000D02*
D03*
X410000D02*
D03*
X418000D02*
D03*
X426000D02*
D03*
X434000D02*
D03*
X442000D02*
D03*
X450000D02*
D03*
X458000D02*
D03*
D166*
X233500Y952750D02*
D03*
X238500D02*
D03*
X243500D02*
D03*
X248500D02*
D03*
X233500Y941250D02*
D03*
X238500D02*
D03*
X243500D02*
D03*
X248500D02*
D03*
X336500Y987750D02*
D03*
X341500D02*
D03*
X346500D02*
D03*
X351500D02*
D03*
X336500Y976250D02*
D03*
X341500D02*
D03*
X346500D02*
D03*
X351500D02*
D03*
D167*
X1166000Y794000D02*
D03*
D168*
X1142000Y776500D02*
D03*
Y781500D02*
D03*
Y786500D02*
D03*
Y791500D02*
D03*
Y796500D02*
D03*
Y801500D02*
D03*
Y806500D02*
D03*
Y811500D02*
D03*
X1190000D02*
D03*
Y806500D02*
D03*
Y801500D02*
D03*
Y796500D02*
D03*
Y791500D02*
D03*
Y786500D02*
D03*
Y781500D02*
D03*
Y776500D02*
D03*
D169*
X1148500Y818000D02*
D03*
X1153500D02*
D03*
X1158500D02*
D03*
X1163500D02*
D03*
X1168500D02*
D03*
X1173500D02*
D03*
X1178500D02*
D03*
X1183500D02*
D03*
Y770000D02*
D03*
X1178500D02*
D03*
X1173500D02*
D03*
X1168500D02*
D03*
X1163500D02*
D03*
X1158500D02*
D03*
X1153500D02*
D03*
X1148500D02*
D03*
D170*
X336500Y1014000D02*
D03*
X341500D02*
D03*
X346500D02*
D03*
X351500D02*
D03*
X336500Y1004000D02*
D03*
X341500D02*
D03*
X346500D02*
D03*
X351500D02*
D03*
X233500Y979000D02*
D03*
X238500D02*
D03*
X243500D02*
D03*
X248500D02*
D03*
X233500Y969000D02*
D03*
X238500D02*
D03*
X243500D02*
D03*
X248500D02*
D03*
D171*
X135000Y207250D02*
D03*
Y213750D02*
D03*
Y220250D02*
D03*
Y226750D02*
D03*
Y233250D02*
D03*
Y239750D02*
D03*
Y246250D02*
D03*
Y252750D02*
D03*
X191000Y207250D02*
D03*
Y213750D02*
D03*
Y220250D02*
D03*
Y226750D02*
D03*
Y233250D02*
D03*
Y239750D02*
D03*
Y246250D02*
D03*
Y252750D02*
D03*
D172*
X97500Y268750D02*
D03*
Y256250D02*
D03*
Y243750D02*
D03*
Y231250D02*
D03*
D173*
X68500Y294250D02*
D03*
Y205750D02*
D03*
D174*
X1058850Y746975D02*
D03*
X1046150D02*
D03*
X1033450D02*
D03*
X1020750D02*
D03*
X1008050D02*
D03*
X995350D02*
D03*
X982650D02*
D03*
X969950D02*
D03*
X957250D02*
D03*
X944550D02*
D03*
X931850D02*
D03*
X919150D02*
D03*
X1058850Y893025D02*
D03*
X1046150D02*
D03*
X1033450D02*
D03*
X1020750D02*
D03*
X1008050D02*
D03*
X995350D02*
D03*
X982650D02*
D03*
X969950D02*
D03*
X957250D02*
D03*
X944550D02*
D03*
X931850D02*
D03*
X919150D02*
D03*
D175*
X1203500Y651000D02*
D03*
Y185000D02*
D03*
D176*
X930000Y260750D02*
D03*
Y273450D02*
D03*
Y286150D02*
D03*
Y298850D02*
D03*
Y311550D02*
D03*
Y324250D02*
D03*
Y336950D02*
D03*
Y575250D02*
D03*
Y562550D02*
D03*
Y549850D02*
D03*
Y537150D02*
D03*
Y524450D02*
D03*
Y511750D02*
D03*
Y499050D02*
D03*
Y486350D02*
D03*
Y473650D02*
D03*
Y460950D02*
D03*
Y448250D02*
D03*
Y435550D02*
D03*
Y422850D02*
D03*
Y410150D02*
D03*
Y397450D02*
D03*
Y384750D02*
D03*
Y372050D02*
D03*
D177*
X571000Y885250D02*
D03*
X579000D02*
D03*
X571000Y866750D02*
D03*
X579000D02*
D03*
X628000Y392250D02*
D03*
X636000D02*
D03*
X628000Y373750D02*
D03*
X636000D02*
D03*
X278000Y398250D02*
D03*
X286000D02*
D03*
X278000Y379750D02*
D03*
X286000D02*
D03*
X327500Y218500D02*
D03*
X321000D02*
D03*
X314500D02*
D03*
X327500Y237500D02*
D03*
X314500D02*
D03*
D178*
X946000Y705000D02*
D03*
X1084000Y930000D02*
D03*
X1084500Y366000D02*
D03*
X1187000Y381000D02*
D03*
X508000Y383000D02*
D03*
X437000Y432000D02*
D03*
X392000D02*
D03*
X372000Y452000D02*
D03*
X412000D02*
D03*
X886000Y763000D02*
D03*
D179*
X309000Y768250D02*
D03*
Y753750D02*
D03*
D180*
X1170500Y453700D02*
D03*
Y428300D02*
D03*
X1147500Y453700D02*
D03*
Y428300D02*
D03*
D181*
X823500Y781500D02*
D03*
X798500D02*
D03*
X581500D02*
D03*
X556500D02*
D03*
X206500Y781500D02*
D03*
X231500D02*
D03*
X448500D02*
D03*
X473500D02*
D03*
D182*
X811000Y840500D02*
D03*
X569000D02*
D03*
X219000Y840500D02*
D03*
X461000D02*
D03*
D183*
X600999Y120000D02*
D03*
D184*
Y57999D02*
D03*
D185*
Y16498D02*
D03*
D186*
X465998Y11999D02*
D03*
D187*
X489498Y163000D02*
D03*
D188*
X591500D02*
D03*
X582000D02*
D03*
X571000D02*
D03*
X560000D02*
D03*
X549000D02*
D03*
X538000D02*
D03*
X527000D02*
D03*
X516000D02*
D03*
X505000D02*
D03*
D189*
X1153500Y818000D02*
Y824500D01*
X1183500Y761500D02*
Y770000D01*
Y761500D02*
X1186000Y759000D01*
X1196500Y806500D02*
X1198500Y808500D01*
X1190000Y806500D02*
X1196500D01*
X1190000Y811500D02*
X1193500D01*
X1197000Y815000D02*
X1199750D01*
X1193500Y811500D02*
X1197000Y815000D01*
X1163500Y791500D02*
X1166000Y794000D01*
X1163500Y770000D02*
Y791500D01*
X1168500D02*
X1173500Y786500D01*
X1166000Y794000D02*
X1168500Y791500D01*
X1173500Y786500D02*
X1190000D01*
X1168500Y791500D02*
X1190000D01*
X1195500Y796500D02*
X1199000Y793000D01*
X1190000Y796500D02*
X1195500D01*
X1130500Y801500D02*
X1142000D01*
X1133626Y796500D02*
X1142000D01*
X1130126Y793000D02*
X1133626Y796500D01*
X1126000Y793000D02*
X1130126D01*
X1134000Y791500D02*
X1142000D01*
X1129150Y786650D02*
X1134000Y791500D01*
X1129000Y786650D02*
X1129150D01*
X1134500Y806500D02*
X1142000D01*
Y811500D02*
X1148500D01*
X1166000Y794000D01*
X1135717Y786500D02*
X1142000D01*
X1133467Y784250D02*
X1135717Y786500D01*
X1139102Y781500D02*
X1142000D01*
X1134602Y777000D02*
X1139102Y781500D01*
X1139500Y776500D02*
X1142000D01*
X1138502Y775502D02*
X1139500Y776500D01*
X1138502Y773502D02*
Y775502D01*
X1138000Y773000D02*
X1138502Y773502D01*
X1178500Y762500D02*
Y770000D01*
X1163500Y818000D02*
Y822500D01*
X1158500Y818000D02*
Y827500D01*
X1168500Y818000D02*
Y822500D01*
X1158500Y762500D02*
Y770000D01*
X1173500Y827430D02*
X1177070Y831000D01*
X1173500Y818000D02*
Y827430D01*
X1178500Y818000D02*
Y825500D01*
X1183500Y823500D02*
X1186000Y826000D01*
X1183500Y818000D02*
Y823500D01*
X1190000Y781500D02*
X1195500D01*
X1199000Y785000D02*
Y786000D01*
X1195500Y781500D02*
X1199000Y785000D01*
X1190000Y801500D02*
X1201500D01*
X1190000Y776500D02*
X1197500D01*
X1148500Y765500D02*
Y770000D01*
X1144000Y763000D02*
X1146000D01*
X1148500Y765500D01*
X1151500Y759500D02*
Y761000D01*
X1151750Y761250D01*
X1152000Y761000D02*
X1153500Y762500D01*
Y770000D01*
X1168500Y765000D02*
Y770000D01*
X1173500Y764750D02*
Y770000D01*
X1201500Y801500D02*
X1202000Y801000D01*
D190*
X716499Y1037000D02*
X713000Y1033501D01*
Y1030002D01*
X716499Y1026503D01*
X728745Y1030002D02*
X723497D01*
X721747Y1031752D01*
Y1035251D01*
X723497Y1037000D01*
X728745D01*
X732244D02*
X735743Y1033501D01*
Y1030002D01*
X732244Y1026503D01*
X758485D02*
X751488D01*
Y1031752D01*
X754986D01*
X751488D01*
Y1037000D01*
X768982Y1026503D02*
X761984D01*
Y1037000D01*
X768982D01*
X761984Y1031752D02*
X765483D01*
X772481Y1026503D02*
Y1037000D01*
X777729D01*
X779479Y1035251D01*
Y1028253D01*
X777729Y1026503D01*
X772481D01*
X789975D02*
X782977D01*
Y1037000D01*
X789975D01*
X782977Y1031752D02*
X786476D01*
X793474Y1026503D02*
Y1033501D01*
X796973Y1037000D01*
X800472Y1033501D01*
Y1026503D01*
X810968D02*
X803971D01*
Y1037000D01*
X810968D01*
X803971Y1031752D02*
X807469D01*
X814467Y1026503D02*
Y1037000D01*
X821465D01*
X842458D02*
X835460D01*
X842458Y1030002D01*
Y1028253D01*
X840709Y1026503D01*
X837210D01*
X835460Y1028253D01*
X845957D02*
X847706Y1026503D01*
X851205D01*
X852955Y1028253D01*
Y1035251D01*
X851205Y1037000D01*
X847706D01*
X845957Y1035251D01*
Y1028253D01*
X856454Y1037000D02*
X859952D01*
X858203D01*
Y1026503D01*
X856454Y1028253D01*
X865201D02*
X866950Y1026503D01*
X870449D01*
X872198Y1028253D01*
Y1030002D01*
X870449Y1031752D01*
X868700D01*
X870449D01*
X872198Y1033501D01*
Y1035251D01*
X870449Y1037000D01*
X866950D01*
X865201Y1035251D01*
M02*
