M48
;Layer_Color=9474304
;FILE_FORMAT=4:4
METRIC,LZ
;TYPE=PLATED
T1F00S00C0.2000
T2F00S00C0.5000
T3F00S00C0.7000
T4F00S00C0.7400
T5F00S00C0.8000
T6F00S00C0.8500
T7F00S00C0.9000
T8F00S00C1.0000
T9F00S00C1.0500
T10F00S00C1.0900
T11F00S00C1.1000
T12F00S00C1.3000
T13F00S00C1.3500
T14F00S00C1.4000
T15F00S00C1.5500
T16F00S00C1.6000
T17F00S00C1.8000
T18F00S00C2.0000
T19F00S00C2.2000
T20F00S00C2.3000
T21F00S00C2.3500
T22F00S00C2.4000
T23F00S00C2.7000
T24F00S00C3.0000
T25F00S00C3.1800
T26F00S00C3.2000
;TYPE=NON_PLATED
T27F00S00C1.0500
T28F00S00C1.3500
T29F00S00C1.7500
T30F00S00C3.2500
%
T01
X00016Y00113
X00053Y00109
Y00099
X00054Y00154
X0004Y00146
X00031
X00032984Y00197
X00058Y0022
X00078
X00117Y00215
X0012Y00187
X001185Y001775
Y00165
X00096Y00168
X00086
X00144Y00194
X00154Y00202
Y002085
X00148Y002245
Y00231
X00165Y00227
X00171Y00231
X0017875Y0022675
Y0022025
X00172Y00202
X00177Y00191
X00173Y00184
X00166
Y00133
X0017Y00085
Y00075
X00152Y00085
X00117Y00093
X00107
X00186Y00085
Y00075
X00218Y00075
X00234Y00085
X003Y00068
X00325Y00084
X00384Y00092
X00408Y00068
X0043Y00078
X0044Y00078
X0045Y00027
X00455Y00008
X00477
X00492Y00019
X00512
X00532
X00556
X00491Y00055
X00498Y00123
X00508
X00518
X0054
X00576Y00148
X0056Y00178
X00528Y00178
X00516Y00173
X00505Y00181
X00495
X00489498Y00173498
X0048Y00132
X0043Y00184
X0042Y00196
X00343Y00216
X0035Y00233
X00306Y00226
X00299Y00217
X003145Y002115
X00303Y00191
X00273
X0028Y002
X00242Y00183
X00218
X00195Y00165
X00538Y00194
X00535Y00204
X00543Y00204
X00561Y00222
X0057Y00231
X006
X00608
X00619Y00227
X00641Y00232
X00654
X00664Y0019
X00687
X0071
X00723
X00741Y00198
X00737Y00205
Y00229
X00831Y00228
X00883Y00198
X00879Y00183
X00935Y00183
X00931Y00198
X00814Y00099
X00804Y00089
X00814Y00043
X00601Y0005
X00591Y00024
Y00009
X00594Y0013
X00582Y00143
Y00153
X00591Y00184
X00602Y00174
X00613Y0019
X00631Y0019
X00608Y00206
X006Y00216
X00591Y0021
X0061Y00118
X00983Y00166
X01001Y00175
X01001Y00199
X01035
X01044Y00196
X01043Y00168
X01035Y00175
X01091Y00168
X01091Y00196
X01084Y00233
X0105
X01139Y00198
X01146Y00161
X01176Y00162
Y00173
X01187Y00162
X01186Y00222
X0117Y00222
X01222Y00218
X01252Y00233
X0131Y00229
X01266Y00239
Y00248
X0128Y00254
Y00302
X012645Y00304
X012645Y002945
X01242Y00292
X01231Y00281
X0122Y00292
Y0027
X01242
X012285Y002485
X012185
X01209Y002485
X0119Y00264
X01182
X011705Y00263
X01169Y00271
X01169Y00284
X0118Y00291
X0118Y00299
X01167Y00307
Y00323
X01174Y00333
X01171Y00357
X01173Y0037
Y00381
X01148Y00383
X01154Y004
X011455Y004075
X01147Y00415
X011335Y004175
Y004075
Y003975
X011395Y004025
X01137Y00432
X01129Y00434
X01115Y00418
X01102Y00405
X010895Y003915
X010925Y003725
X010845
X01085Y00348
X01099Y00348
X01127Y00348
X0114Y00348
X01113Y00365
X01115Y00392
X01089Y00418
X01092Y00467
X01106
X011055Y0048
X01121Y004715
X01131Y00486
X01142
X0112725Y0051425
Y0052075
X01119Y0051975
Y0053275
X01081
Y0052625
X01055Y00537
Y00489
X01047Y00484
X01042Y00477
X01036Y00486
X01031Y00499
X0103Y0047
Y00455
X01021
X0105Y00449
X0104Y00437
X0104Y00423
X01046Y00388
X01046Y00375
X010365Y00358
X010365Y003485
X010245
X010145Y003515
X01015Y00366
X00989Y00371
Y00349
X01004Y00329
X01017Y00316
X010045Y003025
X0103Y00303
Y00329
X010495Y003285
Y003365
Y003205
X01061Y00331
X010775Y00325
X011005Y00316
X01199Y00317
X01215Y00344
X01222Y0036
X0125Y00366
X0125Y0038
X01245Y00341
X01259
X01252Y00328
X01266
X01273Y00317
X01257Y00469
X01182Y0044
X0119Y00524
X01198Y0053
X01225Y00551
X011645Y005525
X01145Y0055
X01137Y00557
X01136Y00584
X01152Y00584
X01175Y00589
X01192Y00596
X01206Y00597
X01175Y00621
X0109Y0062735
X01097Y00588
X01074Y00581
X01062Y00603
X01038
X010275Y005675
X01007Y00576
X01004Y00583
X01013Y00521
X00988Y00466
X00976Y00466
X00982Y00459
X00981Y00444
X00991
X00998Y00432
Y0042
X00996Y00411
X0098
X00977Y004245
X01064Y00467
X01078
X01072Y00479
X01086Y00489
X01096Y00503
X01026Y00246
X00978
X00975Y00261
X00955Y00254
X0094Y00254
X0091425Y0026075
X00891Y00254
X00898Y00275
X0089Y00282
X00914Y00299
Y00337
X00891Y00344
X00886Y00378
X00885Y00399
X00879Y00407
X00885Y00416
X00879Y00423
Y00438
Y00446
X00889
X0091215Y0044825
X00947Y00452
X00955
X00956Y00464
X00966Y00466
X0095Y00471
X00949Y004175
Y004075
X00963
Y004175
X00954Y00372
X0094Y003635
X00911Y00372
X0091115Y0038475
X009Y00389
X00806Y00382
Y00366
X00814Y00366
X00796Y00366
X0078Y00366
X0078Y00374
X00748Y00366
X00738Y00355
X00718Y00368
X00708Y00366
X00684
X00676
X0066Y00366
X00652Y00366
X00644Y00367
X00646Y00385
X00643Y00399
X00635Y00403
X00629
X00621Y00399
X00612Y00381
X0062Y00367
X0058Y00366
Y00381
X00661Y0038
X00684Y00374
X00692Y00376
X00694Y00315
X00704
X00715
X00725
X00736
X00682
X00672Y00284
X00664
X0064
X00632
X00624
X00616
X00608
X0062Y00292
X00627Y00255
X00641Y00243
X00654
X00675Y002445
X00683Y002445
Y002545
X00691Y002545
X00675Y002545
X00699Y002445
X00703Y00237
X007185Y002375
X007665Y002395
X00752Y00254
X00793Y00252
X00821Y00253
Y00266
X0082Y0029
X00808Y00296
X00808Y00283
X00776Y00284
X00788Y00306
X00817Y00328
X00814Y00241
X00838Y00246
X00848Y00253
X00947Y0028
X00949Y00289
X00957Y002945
Y00282
X00958Y00309
X00949Y00315
X00958Y00324
X00972Y00316
X00906Y004965
X00895Y00503
Y00511
X008845Y004925
X00859Y00496
X00844Y00486
X0085Y00479
X00842Y00475
X00838Y00467
X00826Y00462
X00831Y00486
X00805Y00516
X00795
X00785
X00805Y00526
X00847Y00535
Y00546
Y00574
Y00585
X008612Y005825
Y005725
X008673Y005775
Y005875
Y005975
X008662Y006225
X008603Y006275
X008573Y006175
X00847Y00611
X008267Y005975
Y005875
Y005775
X008328Y005725
Y005825
X008Y00579
X00795Y00591
X00803Y00598
X008055Y006225
X007955
X00783Y00629
X00772
X00769Y00614
X00708Y00606
X00714Y00599
X00702Y00596
X00697Y00611
X00693Y00625
X00689Y00524
X00684Y00511
X00674Y00496
X00674Y00479
X00695Y00491
X00705Y00499
X00641Y00483
X00621
X0062775Y00468
X0063425
X00627Y00453
X0062775Y00438
X0063425
X00638Y00424
X00627
X00592Y00456
X00592Y0046475
Y0047125
X00592Y0048
X00696Y00284
X0091215Y0052445
Y0053715
X00905Y00552
X0091215Y0056255
X008896Y005625
X008933Y00602
Y00608
X00893Y00616
X0091Y00599
X0094785Y0054985
X005593Y005625
X005327
Y005775
X00543Y00573
Y00583
Y00611
X005513Y006175
X005513Y006275
X005573Y006225
Y006125
X005287Y006225
Y005975
X005227Y005925
X005015Y006075
Y006175
Y006275
X00493Y006275
X004845
X00489Y006175
X004955Y006125
X0045925Y00628
X0045275
X00427Y00628
X00421
X00395
X00389
X00352Y00589
Y005825
X00354904Y00568096
X003595Y005635
X003785Y00554
X00385
X00392Y005445
Y00538
X00385Y0053
X003785
X0039Y00502
X00398
X0041775Y0050125
X0042875Y0047325
X0043975Y0047325
X00462Y00474
Y00484
X00459Y00494
X0049Y00484
X00509Y00482
X00538Y00454
Y00444
X00563Y0044125
Y0043475
X00563Y00427
Y0045
X00557Y00385
X00549Y0036
Y0035
X00535
Y0036
X00521Y00343
X00512
X00503Y00351
Y00367
Y00377
X00513
X00509Y00398
X00502Y00392
X00489Y00387
X00484Y00377
X00462Y00364
Y00354
Y00337
X00454Y00337
X00446Y00336
X0043Y00337
X0043Y00329
X00398Y00336
X0039Y0035
X00365Y00344
X00358Y00336
X0035Y00336
X00334Y00337
X00334Y00329
X00326Y00336
X00328Y00378
X0031Y00371
X00302Y00377
X00294Y00366
X00262Y00366
X00254
X00246
X00254Y00382
X00262Y00376
X00221Y00371
X00218Y00398
X00222Y00336
X0023Y00336
X00222Y00328
X00229Y00297
X00209Y00282
Y00268
X00201Y00309
X0027Y00336
X0029Y00284
X00298Y00283
X00306Y00283
X00314Y00284
X00322
X0033Y00283
X00338Y00283
X00346Y00284
X00349Y00291
X00341
X00327
X00363
X00373
X00383
X00402Y00284
X0041Y00283
X00418Y00283
X00426Y00284
X00458Y00254
X00502Y00279
X00511Y00286
X00501Y00296
X0051Y00317
X00518
X00526Y00305
X00542Y00299
X00549Y00317
X00559Y00318
X00555Y00331
X00564Y00337
X00572
X00563Y00267
X00528Y00266
Y00277
X00479Y00437
Y00446
X00464Y00457
X00452Y00445
X00453Y00436
X00442Y00418
X00436Y00423
X00419Y00418
X00414Y00411
X00424
X00401Y00466
X0040475Y0047325
X0039575Y0047325
X00368Y00469
X00359
X00327Y00467
Y00476
X00352999Y00506999
X0032Y00529
X00326Y0054
X00325Y0057
X00314
X0032Y00587
X00336Y00574
X00299Y00557
X00296Y005492
Y005328
Y00525
X00263Y00519
X00318Y00393
X00342Y00366
X00367Y00359
X00282Y00253
X00274Y00254
X00266
X00266Y00246
X00276
X00258Y00253
X00543Y00534
Y00544
X001425Y00447
X00136
X00091Y00443
Y00433
X00055
Y00443
Y00423
X00065
X001185Y003605
Y003525
Y0034
Y003275
X00124Y00312
Y003055
X00119Y0029
X00126Y002745
Y00268
X001205Y002545
X0014725Y0023975
X00079Y0028
X00059
X00036Y00292
Y00302
X0004Y00246
Y00236
X00055Y00639
Y00648
X00065Y00656
X0006Y00682
X00019Y00678
Y00688
Y00702
Y00711
X00037Y00745
X00122Y00746
Y0074
X00102Y00703
X00103Y00686
X00135Y00637
X00124Y00839
X00114
X00124Y00879
X00125Y00931
X00113
Y00953
X00125
X00167Y00921
X0001Y00925
X00018Y01
X00052Y01001
X0008Y01
X002335Y00963
X002385Y0095875
X002435Y00963
X002485Y0095875
X00246Y00934
X00236
X00295Y00936
X00311Y00943
X00316Y00949
X00311Y00955
X00316Y00961
X0034Y0096
X00339Y00969
X00349
X003465Y0099375
X003515Y00998
X003415
X003365Y0099375
X003545Y009415
X003595Y009465
X003655Y009415
X00356Y0092
X00338
X00347Y00909
X00356Y00898
X00338
X003795Y009015
Y009115
Y009215
X003855Y009165
Y009065
Y008965
X004015Y0089
X00416
X00424
X004415Y008905
X00449Y00845
Y00836
X00477Y00821
X0049Y008
X0049Y00794
X00485Y00787
Y00777
X0051Y00781
X0053
X00536Y00794
Y008
X00521Y00797
X00515
X00513Y00813
X00523
X00546Y00787
Y00777
X00549Y00752
X00539
X00543Y00721
Y00697
Y00688
X005515Y00692
Y00698
X005625Y00683
Y00677
X00543Y00672
X005337Y006675
X005277Y006725
X005235Y00692
Y00698
X005015Y006875
X00481Y00683
Y006765
X004865Y006525
X00493Y006575
X005015Y006575
Y006375
X00479Y00644
X00472Y00638
X00456Y0064275
Y0064925
X0044Y00638
X00424Y00643
Y00649
X00408Y00638
X00392Y00643
Y00649
X00389Y00664
X00395
X00376Y00654
X00327
X0031Y0066
X0031Y00666
X00295Y00662
X003Y00638
X00307Y00635
X00313
X0032Y00638
X00313Y00724
X00307
X0031Y00733
X00354Y00739
X00364Y00718
X003845Y007095
X004225Y006985
X00455Y007
Y00694
X00462Y00705
X00461Y00712
X00461Y00722
X00479
X004585Y007575
X00458Y00782
Y00789
X00417Y00777
X00421Y00737
X00407
X004345Y007385
X00443Y00677
Y00671
X00543Y00644
X005573Y006425
X005633Y006375
X00576Y0071
Y00727
X00572Y00858
X00563Y00857
X00557Y00852
X00552Y00896
X0041Y00847
X004Y00847
X00347Y00848
X00331
X003595Y008715
X003665Y008765
X00305Y00879
X00288Y00885
Y00899
X0028925Y00815
X0028325
X00261Y008035
Y007965
X00242Y00788
Y00778
X00207Y00763
X00199
X00205Y00813
X00215Y00827
X00223
X00192Y00829
X00189Y0085
X00185Y00684
Y00676
X00202
Y00684
X00218Y00704
X00229Y00715
X00247Y00701
X0032305Y0079205
X00351Y00777
X00595Y00787
Y00795
X00606Y00791
X00624Y00791
X00634Y00769
X00652Y00777
X006665
X006725Y00777
X00678Y0078
X00701
X00698Y00765
Y00741
Y00721
X00718Y00726
Y00742
X00725Y00765
X00735
X00725Y00796
X00722Y00804
X00757Y00801
X00758Y00815
X00762442Y00841442
X00768942
X007865Y00832
X00793
X00805Y00827
X00813
X00835Y00802
Y00792
X00787Y00792
Y00782
X007935Y0072
X008Y0072
X00788Y00713
X00786Y00693
X00776Y006815
X00776Y00675
X00738Y00687
X0073
X00719
X00724Y00677
Y00667
X00728Y00657
X00718
X00709Y00667
X00714Y00677
X00704
X00697Y00655
X00688Y00659
X00676Y00672
X0067Y00677
X00664Y00682
X006615Y00705
X006675Y00705
X00682Y00705
X00677Y00729
Y00741
Y00753
X00662
Y00741
Y00729
X00647
Y00741
Y00753
X00626Y00741
X00612Y00721
X00612Y00715
X00604Y00724
X00596
X005845Y006875
X005863Y00668
Y00662
X006013Y00653
Y00647
X006115Y0066915
X00642Y00705
X00714Y0071
X00726Y00697
X00732Y00702
X00739Y00711
X00767Y00723
X00847Y00719
Y00709
X008325Y00683
Y00677
X008275Y00668
Y00662
X00837Y00657
X00847Y00652
Y00663
X008553Y006725
X008673Y006575
X008893Y00662
Y00668
X009Y00658
X009Y006515
X00915Y00651
X00928Y00644
X00922Y00636
X00847Y00637
X008673Y006875
X00935Y00716
X009595Y006945
X00966Y006945
X00963Y00686
X0096035Y00917
X0096685
X00974Y00912
X009532
X0092875Y00938
X0092225
X00925Y00947
X00913Y00971
X00904
X00886Y00962
X0086
X0086Y00948
X00853Y009265
X00813Y00924
X00818Y00918
X00823Y00912
X00808Y00912
X00783Y00912
X00753
X0075625Y00887
X0074975
X00743Y00891
X00768
X00798
Y00948
X00818Y00947
X00813Y00941
X00813Y00975
X00818Y00971
X00823Y00975
X00833
X00828Y010079
X00798
X00783
X00768
X00753
X00753Y00969
X00783
X00768Y00948
X00743
X00716Y00946
X00709Y00963
X00716Y00922
X0071Y00912
X00717Y00895
X00714Y00884
X00726Y0086
X00735Y0086
Y008535
X00709Y00848
X00687Y00797
X00585Y00848
X00578Y00858
X00599Y00889
X00596Y009065
X00618Y00891
Y00885
X006Y01016
X00674Y01004
X00684
X00907Y00899
X00693Y00637
X010155Y00632
X01022
X01056Y00635
X0109Y0064005
X01082Y00652
X01136Y0066
X01148Y00674
Y00686
X0111965Y00708
X0113Y00728
X01129Y00745
X0111965Y007461
X0112Y0077
X01108Y00778
X01108Y00794
X01098Y00793
X01098Y0080195
Y008146
Y0082835
Y0084
X0112Y00838
Y0082835
Y00814
Y00806
X0116Y00807
X01176Y00807
X011785Y008255
X01187Y00827
X011985Y008085
X01202Y00801
X01199Y00793
Y00786
X01215Y00791
X01176Y00781
X0116
X011585Y007625
X011785
X01186Y00759
X01147Y00736
X01098Y007333
Y007206
X01095Y00745
X01066Y00716
X01021Y00709
X0099Y00716
X01043Y00762
Y00834
X0107Y00826
Y0086
X01086Y00854
X01131
X01139Y00859
X01159Y00863
X01174
X01189Y00882
X01201
X0121Y00853
X01217Y00847
X01252Y00865
X01279Y0078
Y0077
X01286Y00764
X011535Y008355
X01077Y0093
X010502Y00916
X0104305Y00911
X0103655
X010294Y00916
X010121
X0100495Y00911
X0099845
X009913Y00916
X01124Y00991
X01165Y0064005
X01182Y00637
X01182Y00648
X01198Y00632
X00471Y0104
X0046Y01055
T02
X00039Y00101
X00086
X001215Y00135
Y001525
X00033Y00162
X0004Y00206
Y00222
X01Y003805
Y003965
X01Y00508
X00984
X00982Y00571
X01127Y00613
X01226Y00616
X01242
X01243Y00585
X01226
X01226Y00481
X0121
X01197Y00428
Y00412
X01222Y00387
X01238
X009Y00355
X00862Y0052
Y00536
X00802Y00545
X00786
Y00567
X00592Y00317
X00576
X00494Y00322
X00478
X00345Y00529
X00339Y00564501
X00086Y004165
X00033
X00099Y00636
Y00652
X00064Y00731
Y00747
X00118Y00776
X0011Y00789
X00178Y00933
Y00949
X00192Y00958
X00208
X00224
X00281Y00932
Y00916
X00192Y00887
X00248Y00763
X00264
X00226Y0069205
Y0065395
X00182Y0064
X00183Y00705
X00199Y00705
X00536Y00997
X00671Y00936
X00687Y00936
X00683Y00896
X00667
Y00872
X00683
X00741Y00841
X00748Y00819
X00727Y00823
X0076035Y0077735
X00897Y00779
Y00763
Y00745
Y00727
X00953Y00715
X00957Y00765
Y00781
Y00811
Y00831
Y00851
X00897Y00857
Y00839
Y00821
Y00805
X00978Y00875
X00994
X01011
X0107
Y00844
Y00813
Y00764
X01071Y0074
X0109Y00706
X01057Y0067
X01041
X01039Y00779
Y00795
X0115Y0087
X01155Y00891
X01139Y00899
X01122Y00914
X01122Y0093
X01135Y0097
X01151
X01153Y00954
X01262Y00935
Y00919
Y00903
X006828Y010542
X006678
T03
X000275Y007865
Y008065
Y008265
Y008465
X000475Y008365
Y008165
Y007965
X000725
Y008165
Y008365
X000925Y008265
Y008065
Y007865
Y008465
Y008865
Y009065
Y009265
Y009465
Y009665
X000725Y009565
Y009365
Y009165
Y008965
Y008765
X000475
Y008965
Y009165
Y009365
Y009565
Y009765
X000725
X000275Y009665
Y009465
Y009265
Y009065
Y008865
T04
X00163Y003138
X00153Y003265
Y003392
X00163Y003519
X00153Y003646
Y003773
X00163Y0039
T05
X01232Y00774
Y00794
Y00814
Y00834
T06
X00052Y0067275
Y0071725
T07
X002114Y001246
Y0015
X002368
X002622
X002876
X00313
X003384
X003638
X003892
X004146
X0044
Y001246
X004146
X003892
X003638
X003384
X00313
X002876
X002622
X002368
X009614Y009743
X009843
X010047Y010225
X01025
X010452
X010656
X010757Y009743
X010986
X010554Y010403
X010351
X010148
X009945
T08
X001775Y0002755
X002225
X002775
X003225
X003775
X004225
X006276Y000346
Y0006
X00653
X006784
X007038
X007292
X007546
X0078
Y000346
X007546
X007292
X007038
X006784
X00653
X00652Y0013
Y001554
X006774
X007028
X007282
X007536
Y0013
X007282
X007028
X006774
X0129Y004434
X013154
Y004688
Y004942
Y005196
Y00545
X0129
Y005196
Y004942
Y004688
X00371Y0069
X003837Y00959
X003583
X0053Y009471
X00555
X00575
Y009733
X00555
X0053
X006
Y009471
T09
X00219Y00813
X00569Y00813
T10
X00205649Y01008818
X00233378
X00261106
X00288834
X00316563
X00302593Y01037182
X00274864
X00247136
X00219408
T11
X001046Y0005
X0013
Y000754
X001046
X0014Y001192
Y001446
Y0017
X01281Y00131
X013064
X013318
X0131Y00253
Y002784
Y003038
Y003292
Y003546
Y0038
X00565Y0031
X00215
X0016Y00655
X001346
Y00692
X0016
Y00729
X001346
X0015Y00765
Y007904
Y008158
Y008412
Y008666
Y00892
Y009174
Y009428
X01175Y00737
Y007116
Y006862
X012442Y006946
Y0072
X012696
X01295
Y006946
X012696
T12
X0016495Y0005245
X0023505
X0026495
X0033505
X0036495
X0043505
X00022Y0065325
Y0073675
T13
X00158Y002871
Y004167
T14
X000653Y004594
X001633Y004621
X001633Y006199
X000653Y006226
T15
X00461Y00813
X00811Y00813
T16
X0089Y0003
X0087Y00054
Y00109
X0089Y00091
Y00146
X01
Y00091
X0098Y00109
Y00054
X01Y0003
X0111
X0109Y00054
Y00109
X0111Y00091
Y00146
X0122
Y00091
X012Y00109
Y00054
X0122Y0003
X00815Y0031
X00465
X011113Y010314
X009487
T17
X013Y008026
Y008534
Y009042
Y00955
T18
X007205Y010586
X008655
T19
X0052Y0023
X0087
X0067Y0055
X0052Y0088
X0087
T20
X009555Y002172
Y006188
T21
X0006Y007685
Y0086
T22
X004993Y009436
Y010004
X006307
Y009436
T23
X0023Y00229
X0111Y00279
X0023Y00879
X0111
X011625Y010075
X012095Y010425
T24
X007205Y00999
X008655
T25
X0013601Y01023
X0038599
T26
X0005Y0005
X013
X012095Y009775
X013Y0105
X0005
T27
X008267Y005326
X005227Y005326
Y007174
X008267Y007174
T28
X012365Y00191
Y00645
T29
X009855Y002172
Y006188
T30
X010935Y010657
X009665
M30
