%FSLAX44Y44*%
%MOMM*%
G71*
G01*
G75*
G04 Layer_Color=8388736*
%ADD10R,0.2500X0.8000*%
%ADD11R,0.4000X0.6500*%
%ADD12R,0.3250X0.6500*%
%ADD13R,0.6000X0.5000*%
%ADD14R,1.2000X1.1500*%
%ADD15R,2.5000X3.3000*%
%ADD16R,1.8288X3.4290*%
%ADD17R,0.6400X4.7000*%
%ADD18R,0.6400X2.5400*%
%ADD19R,1.4500X0.3000*%
%ADD20R,0.8500X0.2800*%
%ADD21R,0.2800X0.8500*%
%ADD22R,3.1500X3.1500*%
%ADD23R,3.5000X3.5000*%
%ADD24R,0.8500X0.3000*%
%ADD25R,0.3000X0.8500*%
%ADD26R,3.5000X3.5000*%
%ADD27R,1.0400X0.3800*%
%ADD28R,1.0000X0.2800*%
%ADD29R,0.2800X1.0000*%
%ADD30R,3.7000X3.7000*%
%ADD31R,0.8000X0.2400*%
%ADD32R,0.2400X0.8000*%
%ADD33R,2.2000X2.2000*%
%ADD34R,1.0000X0.5500*%
%ADD35R,1.2000X0.5800*%
%ADD36R,0.5800X1.2000*%
%ADD37R,0.9000X0.7000*%
%ADD38R,0.7000X0.9000*%
%ADD39C,1.0160*%
%ADD40R,1.9000X2.6000*%
%ADD41R,0.2800X1.4000*%
%ADD42R,0.8000X0.8000*%
%ADD43R,0.7500X0.4000*%
%ADD44R,0.9000X1.2000*%
%ADD45R,0.9000X0.8000*%
%ADD46R,0.6858X0.5588*%
%ADD47R,0.5000X0.6000*%
%ADD48R,1.6000X0.3000*%
%ADD49R,2.3700X2.4300*%
%ADD50R,2.4300X2.3700*%
%ADD51R,1.6000X0.9000*%
%ADD52R,0.9000X1.6000*%
%ADD53R,0.9000X1.3000*%
%ADD54R,1.3000X0.9000*%
%ADD55R,0.8000X0.8000*%
%ADD56R,0.5000X0.5000*%
%ADD57R,0.5000X0.5000*%
%ADD58R,0.3000X2.6000*%
%ADD59R,0.6000X1.0500*%
%ADD60R,0.7000X0.2800*%
%ADD61R,2.3368X1.6500*%
%ADD62O,0.2800X0.8500*%
%ADD63R,1.2000X0.9000*%
%ADD64R,0.8000X0.9000*%
%ADD65R,2.7000X1.4000*%
%ADD66R,0.7000X2.0000*%
%ADD67R,1.2000X1.2000*%
%ADD68R,1.5000X2.6000*%
%ADD69R,1.0000X2.6000*%
%ADD70R,1.9000X1.8000*%
%ADD71R,1.3500X0.4000*%
%ADD72R,2.9500X1.5000*%
%ADD73R,2.3000X1.0000*%
%ADD74R,2.0000X1.2500*%
%ADD75R,1.7000X0.8000*%
%ADD76C,0.2500*%
%ADD77C,0.3000*%
%ADD78C,0.5000*%
%ADD79C,0.2800*%
%ADD80C,0.4000*%
%ADD81C,0.2400*%
%ADD82C,0.8000*%
%ADD83C,0.5800*%
%ADD84C,0.6000*%
%ADD85C,0.4300*%
%ADD86C,0.3500*%
%ADD87C,1.0000*%
%ADD88C,0.2830*%
%ADD89C,1.7000*%
%ADD90C,5.0000*%
%ADD91O,4.0000X5.0000*%
%ADD92R,1.7000X1.7000*%
%ADD93R,1.7000X1.7000*%
%ADD94C,7.4000*%
%ADD95C,5.2000*%
%ADD96C,1.4000*%
%ADD97R,1.4000X1.4000*%
%ADD98R,2.0000X1.6000*%
%ADD99O,2.0000X1.6000*%
%ADD100R,1.6000X2.0000*%
%ADD101O,1.6000X2.0000*%
%ADD102C,1.3000*%
%ADD103C,2.0000*%
%ADD104O,1.3000X1.1000*%
%ADD105C,2.4000*%
%ADD106O,1.6000X2.0000*%
%ADD107R,1.6000X2.0000*%
%ADD108C,1.9000*%
%ADD109R,1.9000X1.9000*%
%ADD110C,3.6000*%
%ADD111R,3.6000X3.6000*%
%ADD112C,1.8000*%
%ADD113C,2.2000*%
%ADD114C,2.7000*%
%ADD115C,3.2500*%
%ADD116C,1.5748*%
%ADD117C,3.0000*%
%ADD118C,1.5240*%
%ADD119O,3.3000X4.0000*%
%ADD120C,3.0000*%
G04:AMPARAMS|DCode=121|XSize=1.25mm|YSize=1.1mm|CornerRadius=0.462mm|HoleSize=0mm|Usage=FLASHONLY|Rotation=0.000|XOffset=0mm|YOffset=0mm|HoleType=Round|Shape=RoundedRectangle|*
%AMROUNDEDRECTD121*
21,1,1.2500,0.1760,0,0,0.0*
21,1,0.3260,1.1000,0,0,0.0*
1,1,0.9240,0.1630,-0.0880*
1,1,0.9240,-0.1630,-0.0880*
1,1,0.9240,-0.1630,0.0880*
1,1,0.9240,0.1630,0.0880*
%
%ADD121ROUNDEDRECTD121*%
G04:AMPARAMS|DCode=122|XSize=1.9mm|YSize=2.425mm|CornerRadius=0.57mm|HoleSize=0mm|Usage=FLASHONLY|Rotation=0.000|XOffset=0mm|YOffset=0mm|HoleType=Round|Shape=RoundedRectangle|*
%AMROUNDEDRECTD122*
21,1,1.9000,1.2850,0,0,0.0*
21,1,0.7600,2.4250,0,0,0.0*
1,1,1.1400,0.3800,-0.6425*
1,1,1.1400,-0.3800,-0.6425*
1,1,1.1400,-0.3800,0.6425*
1,1,1.1400,0.3800,0.6425*
%
%ADD122ROUNDEDRECTD122*%
%ADD123R,1.5000X1.5000*%
%ADD124C,1.5000*%
%ADD125C,0.4500*%
%ADD126C,1.0000*%
%ADD127C,1.0000*%
%ADD128C,1.6000*%
G04:AMPARAMS|DCode=129|XSize=2mm|YSize=2mm|CornerRadius=0mm|HoleSize=0mm|Usage=FLASHONLY|Rotation=0.000|XOffset=0mm|YOffset=0mm|HoleType=Round|Shape=Relief|Width=0.5mm|Gap=0.2mm|Entries=4|*
%AMTHD129*
7,0,0,2.0000,1.6000,0.5000,45*
%
%ADD129THD129*%
%ADD130C,2.2000*%
%ADD131C,3.8000*%
G04:AMPARAMS|DCode=132|XSize=3.7mm|YSize=3.7mm|CornerRadius=0mm|HoleSize=0mm|Usage=FLASHONLY|Rotation=0.000|XOffset=0mm|YOffset=0mm|HoleType=Round|Shape=Relief|Width=0.5mm|Gap=0.2mm|Entries=4|*
%AMTHD132*
7,0,0,3.7000,3.3000,0.5000,45*
%
%ADD132THD132*%
G04:AMPARAMS|DCode=133|XSize=2.1mm|YSize=2.1mm|CornerRadius=0mm|HoleSize=0mm|Usage=FLASHONLY|Rotation=0.000|XOffset=0mm|YOffset=0mm|HoleType=Round|Shape=Relief|Width=0.5mm|Gap=0.2mm|Entries=4|*
%AMTHD133*
7,0,0,2.1000,1.7000,0.5000,45*
%
%ADD133THD133*%
%ADD134C,1.6500*%
G04:AMPARAMS|DCode=135|XSize=4.2mm|YSize=4.2mm|CornerRadius=0mm|HoleSize=0mm|Usage=FLASHONLY|Rotation=0.000|XOffset=0mm|YOffset=0mm|HoleType=Round|Shape=Relief|Width=0.5mm|Gap=0.2mm|Entries=4|*
%AMTHD135*
7,0,0,4.2000,3.8000,0.5000,45*
%
%ADD135THD135*%
G04:AMPARAMS|DCode=136|XSize=1.8mm|YSize=1.8mm|CornerRadius=0mm|HoleSize=0mm|Usage=FLASHONLY|Rotation=0.000|XOffset=0mm|YOffset=0mm|HoleType=Round|Shape=Relief|Width=0.5mm|Gap=0.2mm|Entries=4|*
%AMTHD136*
7,0,0,1.8000,1.4000,0.5000,45*
%
%ADD136THD136*%
G04:AMPARAMS|DCode=137|XSize=3.2mm|YSize=3.2mm|CornerRadius=0mm|HoleSize=0mm|Usage=FLASHONLY|Rotation=0.000|XOffset=0mm|YOffset=0mm|HoleType=Round|Shape=Relief|Width=0.5mm|Gap=0.2mm|Entries=4|*
%AMTHD137*
7,0,0,3.2000,2.8000,0.5000,45*
%
%ADD137THD137*%
G04:AMPARAMS|DCode=138|XSize=1.74mm|YSize=1.74mm|CornerRadius=0mm|HoleSize=0mm|Usage=FLASHONLY|Rotation=0.000|XOffset=0mm|YOffset=0mm|HoleType=Round|Shape=Relief|Width=0.5mm|Gap=0.2mm|Entries=4|*
%AMTHD138*
7,0,0,1.7400,1.3400,0.5000,45*
%
%ADD138THD138*%
G04:AMPARAMS|DCode=139|XSize=2.35mm|YSize=2.35mm|CornerRadius=0mm|HoleSize=0mm|Usage=FLASHONLY|Rotation=0.000|XOffset=0mm|YOffset=0mm|HoleType=Round|Shape=Relief|Width=0.5mm|Gap=0.2mm|Entries=4|*
%AMTHD139*
7,0,0,2.3500,1.9500,0.5000,45*
%
%ADD139THD139*%
%ADD140C,1.3400*%
G04:AMPARAMS|DCode=141|XSize=2.6mm|YSize=2.6mm|CornerRadius=0mm|HoleSize=0mm|Usage=FLASHONLY|Rotation=0.000|XOffset=0mm|YOffset=0mm|HoleType=Round|Shape=Relief|Width=0.5mm|Gap=0.2mm|Entries=4|*
%AMTHD141*
7,0,0,2.6000,2.2000,0.5000,45*
%
%ADD141THD141*%
%ADD142C,1.6900*%
G04:AMPARAMS|DCode=143|XSize=4.18mm|YSize=4.18mm|CornerRadius=0mm|HoleSize=0mm|Usage=FLASHONLY|Rotation=0.000|XOffset=0mm|YOffset=0mm|HoleType=Round|Shape=Relief|Width=0.5mm|Gap=0.2mm|Entries=4|*
%AMTHD143*
7,0,0,4.1800,3.7800,0.5000,45*
%
%ADD143THD143*%
G04:AMPARAMS|DCode=144|XSize=2.09mm|YSize=2.09mm|CornerRadius=0mm|HoleSize=0mm|Usage=FLASHONLY|Rotation=0.000|XOffset=0mm|YOffset=0mm|HoleType=Round|Shape=Relief|Width=0.5mm|Gap=0.2mm|Entries=4|*
%AMTHD144*
7,0,0,2.0900,1.6900,0.5000,45*
%
%ADD144THD144*%
%ADD145C,2.4000*%
G04:AMPARAMS|DCode=146|XSize=2.8mm|YSize=2.8mm|CornerRadius=0mm|HoleSize=0mm|Usage=FLASHONLY|Rotation=0.000|XOffset=0mm|YOffset=0mm|HoleType=Round|Shape=Relief|Width=0.5mm|Gap=0.2mm|Entries=4|*
%AMTHD146*
7,0,0,2.8000,2.4000,0.5000,45*
%
%ADD146THD146*%
G04:AMPARAMS|DCode=147|XSize=2.3mm|YSize=2.3mm|CornerRadius=0mm|HoleSize=0mm|Usage=FLASHONLY|Rotation=0.000|XOffset=0mm|YOffset=0mm|HoleType=Round|Shape=Relief|Width=0.5mm|Gap=0.2mm|Entries=4|*
%AMTHD147*
7,0,0,2.3000,1.9000,0.5000,45*
%
%ADD147THD147*%
%ADD148C,3.8500*%
%ADD149C,1.9500*%
G04:AMPARAMS|DCode=150|XSize=3.3mm|YSize=3.3mm|CornerRadius=0mm|HoleSize=0mm|Usage=FLASHONLY|Rotation=0.000|XOffset=0mm|YOffset=0mm|HoleType=Round|Shape=Relief|Width=0.5mm|Gap=0.2mm|Entries=4|*
%AMTHD150*
7,0,0,3.3000,2.9000,0.5000,45*
%
%ADD150THD150*%
%ADD151C,2.3500*%
G04:AMPARAMS|DCode=152|XSize=3.4mm|YSize=3.4mm|CornerRadius=0mm|HoleSize=0mm|Usage=FLASHONLY|Rotation=0.000|XOffset=0mm|YOffset=0mm|HoleType=Round|Shape=Relief|Width=0.5mm|Gap=0.2mm|Entries=4|*
%AMTHD152*
7,0,0,3.4000,3.0000,0.5000,45*
%
%ADD152THD152*%
G04:AMPARAMS|DCode=153|XSize=4mm|YSize=4mm|CornerRadius=0mm|HoleSize=0mm|Usage=FLASHONLY|Rotation=0.000|XOffset=0mm|YOffset=0mm|HoleType=Round|Shape=Relief|Width=0.5mm|Gap=0.2mm|Entries=4|*
%AMTHD153*
7,0,0,4.0000,3.6000,0.5000,45*
%
%ADD153THD153*%
G04:AMPARAMS|DCode=154|XSize=3mm|YSize=3mm|CornerRadius=0mm|HoleSize=0mm|Usage=FLASHONLY|Rotation=0.000|XOffset=0mm|YOffset=0mm|HoleType=Round|Shape=Relief|Width=0.5mm|Gap=0.2mm|Entries=4|*
%AMTHD154*
7,0,0,3.0000,2.6000,0.5000,45*
%
%ADD154THD154*%
%ADD155C,2.1500*%
G04:AMPARAMS|DCode=156|XSize=1.85mm|YSize=1.85mm|CornerRadius=0mm|HoleSize=0mm|Usage=FLASHONLY|Rotation=0.000|XOffset=0mm|YOffset=0mm|HoleType=Round|Shape=Relief|Width=0.5mm|Gap=0.2mm|Entries=4|*
%AMTHD156*
7,0,0,1.8500,1.4500,0.5000,45*
%
%ADD156THD156*%
%ADD157C,2.0000*%
%ADD158C,2.9500*%
G04:AMPARAMS|DCode=159|XSize=1.7mm|YSize=1.7mm|CornerRadius=0mm|HoleSize=0mm|Usage=FLASHONLY|Rotation=0.000|XOffset=0mm|YOffset=0mm|HoleType=Round|Shape=Relief|Width=0.5mm|Gap=0.2mm|Entries=4|*
%AMTHD159*
7,0,0,1.7000,1.3000,0.5000,45*
%
%ADD159THD159*%
G04:AMPARAMS|DCode=160|XSize=1.9mm|YSize=1.9mm|CornerRadius=0mm|HoleSize=0mm|Usage=FLASHONLY|Rotation=0.000|XOffset=0mm|YOffset=0mm|HoleType=Round|Shape=Relief|Width=0.5mm|Gap=0.2mm|Entries=4|*
%AMTHD160*
7,0,0,1.9000,1.5000,0.5000,45*
%
%ADD160THD160*%
%ADD161C,0.8000*%
%ADD162C,1.1000*%
%ADD163C,0.2000*%
%ADD164R,2.3000X3.2000*%
%ADD165R,0.6000X2.0000*%
%ADD166R,0.2500X0.6000*%
%ADD167R,3.3000X3.3000*%
%ADD168R,0.6000X0.2300*%
%ADD169R,0.2300X0.6000*%
%ADD170R,0.2500X0.5000*%
%ADD171R,1.6000X0.3500*%
%ADD172R,1.6000X0.8000*%
%ADD173R,3.0000X2.1000*%
%ADD174R,0.7620X1.9050*%
%ADD175R,3.6000X3.0000*%
%ADD176R,2.5000X0.8000*%
%ADD177R,0.4000X0.7500*%
%ADD178C,0.6350*%
%ADD179R,1.4000X0.7500*%
%ADD180R,1.1000X1.2000*%
%ADD181R,1.2000X2.7000*%
%ADD182R,1.5000X1.9000*%
%ADD183R,1.0000X1.2000*%
%ADD184R,1.0000X0.8001*%
%ADD185R,1.0000X2.8001*%
%ADD186R,1.3000X1.8999*%
%ADD187R,1.0000X1.2000*%
%ADD188R,0.7000X1.2000*%
%ADD189C,0.2300*%
%ADD190C,0.2200*%
%ADD191C,0.2540*%
%ADD192C,0.2032*%
%ADD193C,0.1500*%
%ADD194R,1.4000X1.4000*%
%ADD195R,1.6000X1.6000*%
%ADD196R,1.6000X1.6000*%
%ADD197R,1.6000X1.6000*%
%ADD198R,1.6000X1.6000*%
%ADD199R,1.0414X0.6604*%
%ADD200R,0.3500X0.9000*%
%ADD201R,0.5000X0.7500*%
%ADD202R,0.4250X0.7500*%
%ADD203R,0.8032X0.7032*%
%ADD204R,1.4032X1.3532*%
%ADD205R,2.7032X3.5032*%
%ADD206R,2.0320X3.6322*%
%ADD207R,0.6908X4.7508*%
%ADD208R,0.6908X2.5908*%
%ADD209R,1.5008X0.3508*%
%ADD210R,0.9000X0.3300*%
%ADD211R,0.3300X0.9000*%
%ADD212R,3.2008X3.2008*%
%ADD213R,3.5508X3.5508*%
%ADD214R,0.9008X0.3508*%
%ADD215R,0.3508X0.9008*%
%ADD216R,3.5508X3.5508*%
%ADD217R,1.1924X0.5324*%
%ADD218R,1.0500X0.3300*%
%ADD219R,0.3300X1.0500*%
%ADD220R,3.7508X3.7508*%
%ADD221R,0.8508X0.2908*%
%ADD222R,0.2908X0.8508*%
%ADD223R,2.2508X2.2508*%
%ADD224R,1.2032X0.7532*%
%ADD225R,1.4032X0.7832*%
%ADD226R,0.7832X1.4032*%
%ADD227R,1.1032X0.9032*%
%ADD228R,0.9032X1.1032*%
%ADD229C,3.0480*%
%ADD230R,2.1032X2.8032*%
%ADD231R,0.3308X1.4508*%
%ADD232R,1.0032X1.0032*%
%ADD233R,0.9024X0.5524*%
%ADD234R,1.1032X1.4032*%
%ADD235R,1.1032X1.0032*%
%ADD236R,0.8382X0.7112*%
%ADD237R,0.8008X0.4508*%
%ADD238R,0.7032X0.8032*%
%ADD239R,1.7400X0.4400*%
%ADD240R,2.5732X2.6332*%
%ADD241R,2.6332X2.5732*%
%ADD242R,1.8032X1.1032*%
%ADD243R,1.1032X1.8032*%
%ADD244R,1.1032X1.5032*%
%ADD245R,1.5032X1.1032*%
%ADD246R,1.0032X1.0032*%
%ADD247R,0.7032X0.7032*%
%ADD248R,0.7032X0.7032*%
%ADD249R,0.3508X2.6508*%
%ADD250R,0.7400X1.1900*%
%ADD251R,0.9540X0.5340*%
%ADD252R,2.3876X1.7008*%
%ADD253O,0.3308X0.9008*%
%ADD254R,1.4032X1.1032*%
%ADD255R,1.0032X1.1032*%
%ADD256R,2.9032X1.6032*%
%ADD257R,0.9032X2.2032*%
%ADD258R,1.4032X1.4032*%
%ADD259R,1.7032X2.8032*%
%ADD260R,1.2032X2.8032*%
%ADD261R,2.1032X2.0032*%
%ADD262R,1.4008X0.4508*%
%ADD263R,3.1532X1.7032*%
%ADD264R,2.4020X1.1020*%
%ADD265R,2.2032X1.4532*%
%ADD266R,1.9032X1.0032*%
%ADD267C,1.9032*%
G04:AMPARAMS|DCode=268|XSize=0.2032mm|YSize=0.2032mm|CornerRadius=0mm|HoleSize=0mm|Usage=FLASHONLY|Rotation=90.000|XOffset=0mm|YOffset=0mm|HoleType=Round|Shape=RoundedRectangle|*
%AMROUNDEDRECTD268*
21,1,0.2032,0.2032,0,0,90.0*
21,1,0.2032,0.2032,0,0,90.0*
1,1,0.0000,0.1016,0.1016*
1,1,0.0000,0.1016,-0.1016*
1,1,0.0000,-0.1016,-0.1016*
1,1,0.0000,-0.1016,0.1016*
%
%ADD268ROUNDEDRECTD268*%
%ADD269C,5.2032*%
%ADD270O,4.2032X5.2032*%
%ADD271R,1.9032X1.9032*%
%ADD272R,1.9032X1.9032*%
%ADD273C,0.2032*%
%ADD274C,7.4508*%
%ADD275C,5.4032*%
%ADD276C,1.6032*%
%ADD277R,1.6032X1.6032*%
%ADD278R,2.2032X1.8032*%
%ADD279O,2.2032X1.8032*%
%ADD280R,1.8032X2.2032*%
%ADD281O,1.8032X2.2032*%
%ADD282C,1.5032*%
%ADD283C,2.2032*%
%ADD284O,1.5032X1.3032*%
%ADD285C,2.6032*%
%ADD286O,1.8032X2.2032*%
%ADD287R,1.8032X2.2032*%
%ADD288C,2.1032*%
%ADD289R,2.1032X2.1032*%
%ADD290C,3.8032*%
%ADD291R,3.8032X3.8032*%
%ADD292C,2.0032*%
%ADD293C,2.4032*%
%ADD294C,2.9032*%
%ADD295C,3.4532*%
%ADD296C,1.7780*%
%ADD297C,5.0508*%
%ADD298C,3.2032*%
%ADD299C,1.7272*%
%ADD300O,3.5032X4.2032*%
%ADD301C,3.2032*%
G04:AMPARAMS|DCode=302|XSize=1.33mm|YSize=1.18mm|CornerRadius=0.502mm|HoleSize=0mm|Usage=FLASHONLY|Rotation=0.000|XOffset=0mm|YOffset=0mm|HoleType=Round|Shape=RoundedRectangle|*
%AMROUNDEDRECTD302*
21,1,1.3300,0.1760,0,0,0.0*
21,1,0.3260,1.1800,0,0,0.0*
1,1,1.0040,0.1630,-0.0880*
1,1,1.0040,-0.1630,-0.0880*
1,1,1.0040,-0.1630,0.0880*
1,1,1.0040,0.1630,0.0880*
%
%ADD302ROUNDEDRECTD302*%
G04:AMPARAMS|DCode=303|XSize=2.1032mm|YSize=2.6282mm|CornerRadius=0.6716mm|HoleSize=0mm|Usage=FLASHONLY|Rotation=0.000|XOffset=0mm|YOffset=0mm|HoleType=Round|Shape=RoundedRectangle|*
%AMROUNDEDRECTD303*
21,1,2.1032,1.2850,0,0,0.0*
21,1,0.7600,2.6282,0,0,0.0*
1,1,1.3432,0.3800,-0.6425*
1,1,1.3432,-0.3800,-0.6425*
1,1,1.3432,-0.3800,0.6425*
1,1,1.3432,0.3800,0.6425*
%
%ADD303ROUNDEDRECTD303*%
G04:AMPARAMS|DCode=304|XSize=0.2032mm|YSize=0.2032mm|CornerRadius=0mm|HoleSize=0mm|Usage=FLASHONLY|Rotation=180.000|XOffset=0mm|YOffset=0mm|HoleType=Round|Shape=RoundedRectangle|*
%AMROUNDEDRECTD304*
21,1,0.2032,0.2032,0,0,180.0*
21,1,0.2032,0.2032,0,0,180.0*
1,1,0.0000,-0.1016,0.1016*
1,1,0.0000,0.1016,0.1016*
1,1,0.0000,0.1016,-0.1016*
1,1,0.0000,-0.1016,-0.1016*
%
%ADD304ROUNDEDRECTD304*%
%ADD305R,1.7032X1.7032*%
%ADD306C,1.7032*%
G36*
X1006500Y93500D02*
X996500Y83500D01*
X973500Y106500D01*
X983500Y116500D01*
X1006500Y93500D01*
D02*
G37*
G36*
X896500D02*
X886500Y83500D01*
X863500Y106500D01*
X873500Y116500D01*
X896500Y93500D01*
D02*
G37*
G36*
X1226500D02*
X1216500Y83500D01*
X1193500Y106500D01*
X1203500Y116500D01*
X1226500Y93500D01*
D02*
G37*
G36*
X1116500D02*
X1106500Y83500D01*
X1083500Y106500D01*
X1093500Y116500D01*
X1116500Y93500D01*
D02*
G37*
D200*
X325000Y562749D02*
D03*
D201*
X330000Y578499D02*
D03*
X320000D02*
D03*
D202*
X330380Y563499D02*
D03*
X319620D02*
D03*
D203*
X449000Y636000D02*
D03*
Y646000D02*
D03*
X614000Y791000D02*
D03*
Y781000D02*
D03*
X638000Y387000D02*
D03*
Y377000D02*
D03*
X654000Y387000D02*
D03*
Y377000D02*
D03*
X1097000Y581000D02*
D03*
Y571000D02*
D03*
X1081000Y581000D02*
D03*
Y571000D02*
D03*
X1273000Y334000D02*
D03*
Y324000D02*
D03*
X769000Y222000D02*
D03*
Y212000D02*
D03*
X753000Y222000D02*
D03*
Y212000D02*
D03*
X785000Y222000D02*
D03*
Y212000D02*
D03*
X801000Y222000D02*
D03*
Y212000D02*
D03*
X654000Y674000D02*
D03*
Y684000D02*
D03*
X906000Y490000D02*
D03*
Y480000D02*
D03*
X1055000Y530000D02*
D03*
Y520000D02*
D03*
Y496000D02*
D03*
Y506000D02*
D03*
X457000Y17000D02*
D03*
Y27000D02*
D03*
X1026000Y220000D02*
D03*
Y230000D02*
D03*
X1010000Y220000D02*
D03*
Y230000D02*
D03*
X948000Y264000D02*
D03*
Y254000D02*
D03*
X883000Y272000D02*
D03*
Y282000D02*
D03*
X111000Y684000D02*
D03*
Y694000D02*
D03*
X303000Y653000D02*
D03*
Y663000D02*
D03*
Y673000D02*
D03*
Y663000D02*
D03*
X317000Y653000D02*
D03*
Y663000D02*
D03*
Y673000D02*
D03*
Y663000D02*
D03*
X1190000Y637000D02*
D03*
Y627000D02*
D03*
Y604000D02*
D03*
Y614000D02*
D03*
X1206000Y627000D02*
D03*
Y637000D02*
D03*
Y604000D02*
D03*
Y614000D02*
D03*
X1076000Y638000D02*
D03*
Y628000D02*
D03*
X1218000Y551000D02*
D03*
Y561000D02*
D03*
X718000Y860000D02*
D03*
Y870000D02*
D03*
X1170000Y239000D02*
D03*
Y229000D02*
D03*
X1186000Y229000D02*
D03*
Y239000D02*
D03*
X1031000Y421000D02*
D03*
Y411000D02*
D03*
X547000Y98000D02*
D03*
Y108000D02*
D03*
X532000Y98000D02*
D03*
Y108000D02*
D03*
X517000Y98000D02*
D03*
Y108000D02*
D03*
X502000Y98000D02*
D03*
Y108000D02*
D03*
X385000Y636000D02*
D03*
Y646000D02*
D03*
Y656000D02*
D03*
Y646000D02*
D03*
X399000Y636000D02*
D03*
Y646000D02*
D03*
Y656000D02*
D03*
Y646000D02*
D03*
X417000Y636000D02*
D03*
Y646000D02*
D03*
Y656000D02*
D03*
Y646000D02*
D03*
X431000Y636000D02*
D03*
Y646000D02*
D03*
Y656000D02*
D03*
Y646000D02*
D03*
X449000Y656000D02*
D03*
Y646000D02*
D03*
X463000Y636000D02*
D03*
Y646000D02*
D03*
Y656000D02*
D03*
Y646000D02*
D03*
X550000Y295000D02*
D03*
Y305000D02*
D03*
X534000Y295000D02*
D03*
Y305000D02*
D03*
X1137000Y550000D02*
D03*
Y540000D02*
D03*
X1121000Y465000D02*
D03*
Y455000D02*
D03*
X1152000Y577000D02*
D03*
Y567000D02*
D03*
X1136000Y567000D02*
D03*
Y577000D02*
D03*
X737000Y212000D02*
D03*
Y222000D02*
D03*
X711000Y237000D02*
D03*
Y247000D02*
D03*
X518000Y295000D02*
D03*
Y305000D02*
D03*
X691000Y237000D02*
D03*
Y247000D02*
D03*
D204*
X901000Y326750D02*
D03*
Y303250D02*
D03*
X929000Y326750D02*
D03*
Y303250D02*
D03*
D205*
X1169500Y917000D02*
D03*
X1238500D02*
D03*
X1261500Y628000D02*
D03*
X1330500D02*
D03*
D206*
X1028686Y752000D02*
D03*
X973314D02*
D03*
Y832000D02*
D03*
X1028686D02*
D03*
D207*
X543000Y656750D02*
D03*
Y593250D02*
D03*
X847000Y656750D02*
D03*
Y593250D02*
D03*
D208*
X543000Y709450D02*
D03*
Y540550D02*
D03*
X847000Y709450D02*
D03*
Y540550D02*
D03*
D209*
X512100Y697500D02*
D03*
Y692500D02*
D03*
Y687500D02*
D03*
Y682500D02*
D03*
Y677500D02*
D03*
Y672500D02*
D03*
Y667500D02*
D03*
Y662500D02*
D03*
Y657500D02*
D03*
Y652500D02*
D03*
Y647500D02*
D03*
Y642500D02*
D03*
Y637500D02*
D03*
Y632500D02*
D03*
Y627500D02*
D03*
Y622500D02*
D03*
Y617500D02*
D03*
Y612500D02*
D03*
Y607500D02*
D03*
Y602500D02*
D03*
Y597500D02*
D03*
Y592500D02*
D03*
Y587500D02*
D03*
Y582500D02*
D03*
Y577500D02*
D03*
Y572500D02*
D03*
Y567500D02*
D03*
Y562500D02*
D03*
Y557500D02*
D03*
Y552500D02*
D03*
X573900Y697500D02*
D03*
Y692500D02*
D03*
Y687500D02*
D03*
Y682500D02*
D03*
Y677500D02*
D03*
Y672500D02*
D03*
Y667500D02*
D03*
Y662500D02*
D03*
Y657500D02*
D03*
Y652500D02*
D03*
Y647500D02*
D03*
Y642500D02*
D03*
Y637500D02*
D03*
Y632500D02*
D03*
Y627500D02*
D03*
Y622500D02*
D03*
Y617500D02*
D03*
Y612500D02*
D03*
Y607500D02*
D03*
Y602500D02*
D03*
Y597500D02*
D03*
Y592500D02*
D03*
Y587500D02*
D03*
Y582500D02*
D03*
Y577500D02*
D03*
Y572500D02*
D03*
Y567500D02*
D03*
Y562500D02*
D03*
Y557500D02*
D03*
Y552500D02*
D03*
X816100Y697500D02*
D03*
Y692500D02*
D03*
Y687500D02*
D03*
Y682500D02*
D03*
Y677500D02*
D03*
Y672500D02*
D03*
Y667500D02*
D03*
Y662500D02*
D03*
Y657500D02*
D03*
Y652500D02*
D03*
Y647500D02*
D03*
Y642500D02*
D03*
Y637500D02*
D03*
Y632500D02*
D03*
Y627500D02*
D03*
Y622500D02*
D03*
Y617500D02*
D03*
Y612500D02*
D03*
Y607500D02*
D03*
Y602500D02*
D03*
Y597500D02*
D03*
Y592500D02*
D03*
Y587500D02*
D03*
Y582500D02*
D03*
Y577500D02*
D03*
Y572500D02*
D03*
Y567500D02*
D03*
Y562500D02*
D03*
Y557500D02*
D03*
Y552500D02*
D03*
X877900Y697500D02*
D03*
Y692500D02*
D03*
Y687500D02*
D03*
Y682500D02*
D03*
Y677500D02*
D03*
Y672500D02*
D03*
Y667500D02*
D03*
Y662500D02*
D03*
Y657500D02*
D03*
Y652500D02*
D03*
Y647500D02*
D03*
Y642500D02*
D03*
Y637500D02*
D03*
Y632500D02*
D03*
Y627500D02*
D03*
Y622500D02*
D03*
Y617500D02*
D03*
Y612500D02*
D03*
Y607500D02*
D03*
Y602500D02*
D03*
Y597500D02*
D03*
Y592500D02*
D03*
Y587500D02*
D03*
Y582500D02*
D03*
Y577500D02*
D03*
Y572500D02*
D03*
Y567500D02*
D03*
Y562500D02*
D03*
Y557500D02*
D03*
Y552500D02*
D03*
D210*
X1206250Y263500D02*
D03*
Y268500D02*
D03*
Y273500D02*
D03*
Y278500D02*
D03*
Y283500D02*
D03*
Y288500D02*
D03*
Y293500D02*
D03*
Y298500D02*
D03*
X1255750D02*
D03*
Y293500D02*
D03*
Y288500D02*
D03*
Y283500D02*
D03*
Y278500D02*
D03*
Y273500D02*
D03*
Y268500D02*
D03*
Y263500D02*
D03*
D211*
X1213500Y305750D02*
D03*
X1218500D02*
D03*
X1223500D02*
D03*
X1228500D02*
D03*
X1233500D02*
D03*
X1238500D02*
D03*
X1243500D02*
D03*
X1248500D02*
D03*
Y256250D02*
D03*
X1243500D02*
D03*
X1238500D02*
D03*
X1233500D02*
D03*
X1228500D02*
D03*
X1223500D02*
D03*
X1218500D02*
D03*
X1213500D02*
D03*
D212*
X1231000Y281000D02*
D03*
D213*
X1017000Y316000D02*
D03*
D214*
X992500Y333500D02*
D03*
Y328500D02*
D03*
Y323500D02*
D03*
Y318500D02*
D03*
Y313500D02*
D03*
Y308500D02*
D03*
Y303500D02*
D03*
Y298500D02*
D03*
X1041500D02*
D03*
Y303500D02*
D03*
Y308500D02*
D03*
Y313500D02*
D03*
Y318500D02*
D03*
Y323500D02*
D03*
Y328500D02*
D03*
Y333500D02*
D03*
X1077500Y422500D02*
D03*
Y417500D02*
D03*
Y412500D02*
D03*
Y407500D02*
D03*
Y402500D02*
D03*
Y397500D02*
D03*
Y392500D02*
D03*
Y387500D02*
D03*
X1126500D02*
D03*
Y392500D02*
D03*
Y397500D02*
D03*
Y402500D02*
D03*
Y407500D02*
D03*
Y412500D02*
D03*
Y417500D02*
D03*
Y422500D02*
D03*
D215*
X999500Y291500D02*
D03*
X1004500D02*
D03*
X1009500D02*
D03*
X1014500D02*
D03*
X1019500D02*
D03*
X1024500D02*
D03*
X1029500D02*
D03*
X1034500D02*
D03*
Y340500D02*
D03*
X1029500D02*
D03*
X1024500D02*
D03*
X1019500D02*
D03*
X1014500D02*
D03*
X1009500D02*
D03*
X1004500D02*
D03*
X999500D02*
D03*
X1119500Y429500D02*
D03*
X1114500D02*
D03*
X1109500D02*
D03*
X1104500D02*
D03*
X1099500D02*
D03*
X1094500D02*
D03*
X1089500D02*
D03*
X1084500D02*
D03*
Y380500D02*
D03*
X1089500D02*
D03*
X1094500D02*
D03*
X1099500D02*
D03*
X1104500D02*
D03*
X1109500D02*
D03*
X1114500D02*
D03*
X1119500D02*
D03*
D216*
X1102000Y405000D02*
D03*
D217*
X1072000Y532750D02*
D03*
Y526250D02*
D03*
Y519750D02*
D03*
Y513250D02*
D03*
X1110000Y532750D02*
D03*
Y526250D02*
D03*
Y519750D02*
D03*
Y513250D02*
D03*
D218*
X634000Y761000D02*
D03*
Y756000D02*
D03*
Y751000D02*
D03*
Y746000D02*
D03*
Y741000D02*
D03*
Y736000D02*
D03*
Y731000D02*
D03*
Y726000D02*
D03*
Y721000D02*
D03*
X690000D02*
D03*
Y726000D02*
D03*
Y731000D02*
D03*
Y736000D02*
D03*
Y741000D02*
D03*
Y746000D02*
D03*
Y751000D02*
D03*
Y756000D02*
D03*
Y761000D02*
D03*
D219*
X642000Y713000D02*
D03*
X647000D02*
D03*
X652000D02*
D03*
X657000D02*
D03*
X662000D02*
D03*
X667000D02*
D03*
X672000D02*
D03*
X677000D02*
D03*
X682000D02*
D03*
Y769000D02*
D03*
X677000D02*
D03*
X672000D02*
D03*
X667000D02*
D03*
X662000D02*
D03*
X657000D02*
D03*
X652000D02*
D03*
X647000D02*
D03*
X642000D02*
D03*
D220*
X662000Y741000D02*
D03*
D221*
X627500Y224500D02*
D03*
Y229500D02*
D03*
Y234500D02*
D03*
Y239500D02*
D03*
Y244500D02*
D03*
Y249500D02*
D03*
X666500D02*
D03*
Y244500D02*
D03*
Y239500D02*
D03*
Y234500D02*
D03*
Y229500D02*
D03*
Y224500D02*
D03*
D222*
X634500Y256500D02*
D03*
X639500D02*
D03*
X644500D02*
D03*
X649500D02*
D03*
X654500D02*
D03*
X659500D02*
D03*
Y217500D02*
D03*
X654500D02*
D03*
X649500D02*
D03*
X644500D02*
D03*
X639500D02*
D03*
X634500D02*
D03*
D223*
X647000Y237000D02*
D03*
D224*
X1063500Y567500D02*
D03*
Y586500D02*
D03*
X1036500Y567500D02*
D03*
Y577000D02*
D03*
Y586500D02*
D03*
X1200500Y552500D02*
D03*
Y571500D02*
D03*
X1173500Y552500D02*
D03*
Y562000D02*
D03*
Y571500D02*
D03*
D225*
X268000Y653950D02*
D03*
Y666650D02*
D03*
Y679350D02*
D03*
Y692050D02*
D03*
X212000Y653950D02*
D03*
Y666650D02*
D03*
Y679350D02*
D03*
Y692050D02*
D03*
X1156000Y601950D02*
D03*
Y614650D02*
D03*
Y627350D02*
D03*
Y640050D02*
D03*
X1100000Y601950D02*
D03*
Y614650D02*
D03*
Y627350D02*
D03*
Y640050D02*
D03*
X1109000Y707950D02*
D03*
Y720650D02*
D03*
Y733350D02*
D03*
Y746050D02*
D03*
X1053000Y707950D02*
D03*
Y720650D02*
D03*
Y733350D02*
D03*
Y746050D02*
D03*
X1109000Y801950D02*
D03*
Y814650D02*
D03*
Y827350D02*
D03*
Y840050D02*
D03*
X1053000Y801950D02*
D03*
Y814650D02*
D03*
Y827350D02*
D03*
Y840050D02*
D03*
D226*
X734950Y735000D02*
D03*
X747650D02*
D03*
X760350D02*
D03*
X773050D02*
D03*
X734950Y791000D02*
D03*
X747650D02*
D03*
X760350D02*
D03*
X773050D02*
D03*
D227*
X726500Y250500D02*
D03*
Y237500D02*
D03*
X745500Y244000D02*
D03*
X774500Y250500D02*
D03*
Y237500D02*
D03*
X793500Y244000D02*
D03*
D228*
X460500Y82500D02*
D03*
X447500D02*
D03*
X454000Y63500D02*
D03*
D229*
X16000Y92000D02*
D03*
X1139000Y1077000D02*
D03*
X1241000Y60000D02*
D03*
X113000Y1064000D02*
D03*
D230*
X680500Y816000D02*
D03*
X637500D02*
D03*
D231*
X733000Y901500D02*
D03*
X738000D02*
D03*
X743000D02*
D03*
X748000D02*
D03*
X753000D02*
D03*
X758000D02*
D03*
X763000D02*
D03*
X768000D02*
D03*
X773000D02*
D03*
X778000D02*
D03*
X783000D02*
D03*
X788000D02*
D03*
X793000D02*
D03*
X798000D02*
D03*
X803000D02*
D03*
X808000D02*
D03*
X813000D02*
D03*
X818000D02*
D03*
X823000D02*
D03*
X733000Y958500D02*
D03*
X738000D02*
D03*
X743000D02*
D03*
X748000D02*
D03*
X753000D02*
D03*
X758000D02*
D03*
X763000D02*
D03*
X768000D02*
D03*
X773000D02*
D03*
X778000D02*
D03*
X783000D02*
D03*
X788000D02*
D03*
X793000D02*
D03*
X798000D02*
D03*
X803000D02*
D03*
X808000D02*
D03*
X813000D02*
D03*
X818000D02*
D03*
X823000D02*
D03*
D232*
X541000Y35000D02*
D03*
Y19000D02*
D03*
X477000Y35000D02*
D03*
Y19000D02*
D03*
X460000Y1063000D02*
D03*
Y1079000D02*
D03*
X565000Y35000D02*
D03*
Y19000D02*
D03*
X521000Y35000D02*
D03*
Y19000D02*
D03*
X501000Y35000D02*
D03*
Y19000D02*
D03*
X486000Y308500D02*
D03*
Y293500D02*
D03*
X591000Y161500D02*
D03*
Y176500D02*
D03*
X988000Y396000D02*
D03*
Y411000D02*
D03*
X512000Y367500D02*
D03*
Y352500D02*
D03*
X75000Y678500D02*
D03*
Y663500D02*
D03*
D233*
X231750Y804000D02*
D03*
Y796000D02*
D03*
X250250Y804000D02*
D03*
Y796000D02*
D03*
X93750Y747000D02*
D03*
Y739000D02*
D03*
X112250Y747000D02*
D03*
Y739000D02*
D03*
D234*
X72500Y717000D02*
D03*
D235*
Y699000D02*
D03*
X92500Y719000D02*
D03*
Y699000D02*
D03*
D236*
X876000Y937808D02*
D03*
Y962192D02*
D03*
D237*
X891500Y479500D02*
D03*
Y486000D02*
D03*
Y492500D02*
D03*
X872500Y479500D02*
D03*
Y492500D02*
D03*
X664500Y487500D02*
D03*
Y481000D02*
D03*
Y474500D02*
D03*
X683500Y487500D02*
D03*
Y474500D02*
D03*
D238*
X907000Y578000D02*
D03*
X897000D02*
D03*
X1293000Y229000D02*
D03*
X1303000D02*
D03*
X654000Y790000D02*
D03*
X664000D02*
D03*
X515000Y385000D02*
D03*
X525000D02*
D03*
X788000Y610000D02*
D03*
X778000D02*
D03*
X1122000Y183000D02*
D03*
X1132000D02*
D03*
X1009000Y246000D02*
D03*
X1019000D02*
D03*
X995000D02*
D03*
X985000D02*
D03*
X1074000Y196000D02*
D03*
X1084000D02*
D03*
X1060000D02*
D03*
X1050000D02*
D03*
X1084000Y225000D02*
D03*
X1074000D02*
D03*
X1050000D02*
D03*
X1060000D02*
D03*
X914000Y198000D02*
D03*
X924000D02*
D03*
X900000D02*
D03*
X890000D02*
D03*
X922000Y283000D02*
D03*
X932000D02*
D03*
X908000D02*
D03*
X898000D02*
D03*
X708000Y718000D02*
D03*
X718000D02*
D03*
X708000Y812000D02*
D03*
X718000D02*
D03*
X708000Y734000D02*
D03*
X718000D02*
D03*
X708000Y750000D02*
D03*
X718000D02*
D03*
X708000Y828000D02*
D03*
X718000D02*
D03*
X708000Y780000D02*
D03*
X718000D02*
D03*
X718000Y702000D02*
D03*
X708000D02*
D03*
X739000Y702000D02*
D03*
X749000D02*
D03*
X739000Y718000D02*
D03*
X749000D02*
D03*
X528000Y790000D02*
D03*
X518000D02*
D03*
X508000D02*
D03*
X518000D02*
D03*
X528000Y804000D02*
D03*
X518000D02*
D03*
X508000D02*
D03*
X518000D02*
D03*
X1163000Y655000D02*
D03*
X1173000D02*
D03*
X871000Y919000D02*
D03*
X881000D02*
D03*
X853000Y919000D02*
D03*
X843000D02*
D03*
X853000Y934000D02*
D03*
X843000D02*
D03*
X843000Y962000D02*
D03*
X853000D02*
D03*
X1184000Y323000D02*
D03*
X1174000D02*
D03*
X1184000Y307000D02*
D03*
X1174000D02*
D03*
X1174000Y339000D02*
D03*
X1184000D02*
D03*
X1142000Y480000D02*
D03*
X1152000D02*
D03*
X1112000D02*
D03*
X1122000D02*
D03*
X964000Y379500D02*
D03*
X954000D02*
D03*
X988000D02*
D03*
X978000D02*
D03*
X965000Y324000D02*
D03*
X975000D02*
D03*
X540000Y385000D02*
D03*
X550000D02*
D03*
X718000Y796000D02*
D03*
X708000D02*
D03*
X723000Y198000D02*
D03*
X733000D02*
D03*
X608000D02*
D03*
X618000D02*
D03*
X585000D02*
D03*
X595000D02*
D03*
X631000Y198000D02*
D03*
X641000D02*
D03*
X654000Y198000D02*
D03*
X664000D02*
D03*
X700000D02*
D03*
X710000D02*
D03*
X677000D02*
D03*
X687000D02*
D03*
X382000Y344000D02*
D03*
X372000D02*
D03*
D239*
X1139000Y520750D02*
D03*
Y514250D02*
D03*
Y507750D02*
D03*
Y501250D02*
D03*
X1173000Y520750D02*
D03*
Y514250D02*
D03*
Y507750D02*
D03*
Y501250D02*
D03*
D240*
X258200Y734000D02*
D03*
X195800D02*
D03*
X262200Y935000D02*
D03*
X199800D02*
D03*
X1238200Y420000D02*
D03*
X1175800D02*
D03*
X689200Y331000D02*
D03*
X626800D02*
D03*
X785200D02*
D03*
X722800D02*
D03*
X339200Y307000D02*
D03*
X276800D02*
D03*
X435200D02*
D03*
X372800D02*
D03*
X992200Y534000D02*
D03*
X929800D02*
D03*
D241*
X675000Y915200D02*
D03*
Y852800D02*
D03*
Y1035200D02*
D03*
Y972800D02*
D03*
D242*
X1138000Y951500D02*
D03*
Y920500D02*
D03*
X787000Y524500D02*
D03*
Y555500D02*
D03*
X1234000Y597500D02*
D03*
Y628500D02*
D03*
D243*
X913500Y729000D02*
D03*
X944500D02*
D03*
X913500Y754000D02*
D03*
X944500D02*
D03*
X913500Y779000D02*
D03*
X944500D02*
D03*
X913500Y855000D02*
D03*
X944500D02*
D03*
X913500Y805000D02*
D03*
X944500D02*
D03*
X913500Y830000D02*
D03*
X944500D02*
D03*
X1051500Y686000D02*
D03*
X1082500D02*
D03*
X1052500Y780000D02*
D03*
X1083500D02*
D03*
D244*
X1214500Y870000D02*
D03*
X1195500D02*
D03*
D245*
X112000Y122500D02*
D03*
Y103500D02*
D03*
D246*
X1077500Y298000D02*
D03*
X1062500D02*
D03*
X978500Y362000D02*
D03*
X963500D02*
D03*
X963500Y344000D02*
D03*
X978500D02*
D03*
X1209500Y461000D02*
D03*
X1224500D02*
D03*
X579500Y304000D02*
D03*
X594500D02*
D03*
X1076500Y316000D02*
D03*
X1091500D02*
D03*
X1185500Y255000D02*
D03*
X1170500D02*
D03*
X1163500Y375000D02*
D03*
X1148500D02*
D03*
X1094500Y479000D02*
D03*
X1079500D02*
D03*
X1148500Y357000D02*
D03*
X1163500D02*
D03*
D247*
X1045000Y603000D02*
D03*
X1055000D02*
D03*
X1156000Y182000D02*
D03*
X1146000D02*
D03*
X1084000D02*
D03*
X1074000D02*
D03*
X1050000D02*
D03*
X1060000D02*
D03*
X1266000Y366000D02*
D03*
X1256000D02*
D03*
X1245000Y865000D02*
D03*
X1235000D02*
D03*
X674000Y502000D02*
D03*
X684000D02*
D03*
X1086000Y496000D02*
D03*
X1096000D02*
D03*
X613000Y238000D02*
D03*
X603000D02*
D03*
X1146000Y168000D02*
D03*
X1156000D02*
D03*
X1132000D02*
D03*
X1122000D02*
D03*
X1132000Y198000D02*
D03*
X1122000D02*
D03*
X1035000Y168000D02*
D03*
X1025000D02*
D03*
X1001000D02*
D03*
X1011000D02*
D03*
X1025000Y206000D02*
D03*
X1035000D02*
D03*
X1011000D02*
D03*
X1001000D02*
D03*
X1084000Y168000D02*
D03*
X1074000D02*
D03*
X1050000D02*
D03*
X1060000D02*
D03*
X1084000Y239000D02*
D03*
X1074000D02*
D03*
X1050000D02*
D03*
X1060000D02*
D03*
X1074000Y210000D02*
D03*
X1084000D02*
D03*
X1060000D02*
D03*
X1050000D02*
D03*
X965000Y309000D02*
D03*
X975000D02*
D03*
X1015000Y360000D02*
D03*
X1005000D02*
D03*
X932000Y254000D02*
D03*
X922000D02*
D03*
X898000D02*
D03*
X908000D02*
D03*
X932000Y268000D02*
D03*
X922000D02*
D03*
X898000D02*
D03*
X908000D02*
D03*
X853000Y948000D02*
D03*
X843000D02*
D03*
X677000Y791000D02*
D03*
X687000D02*
D03*
X641000D02*
D03*
X631000D02*
D03*
X718000Y765000D02*
D03*
X708000D02*
D03*
X199000Y770000D02*
D03*
X189000D02*
D03*
X596000Y912000D02*
D03*
X606000D02*
D03*
X758000Y808000D02*
D03*
X748000D02*
D03*
X44000Y745000D02*
D03*
X54000D02*
D03*
X1182000Y589000D02*
D03*
X1192000D02*
D03*
X721000Y884000D02*
D03*
X731000D02*
D03*
X1186000Y284000D02*
D03*
X1176000D02*
D03*
X1209000Y324000D02*
D03*
X1199000D02*
D03*
X1056000Y423000D02*
D03*
X1046000D02*
D03*
X1056000Y381000D02*
D03*
X1046000D02*
D03*
X1256000Y380000D02*
D03*
X1266000D02*
D03*
X1046000Y395000D02*
D03*
X1056000D02*
D03*
X1046000Y409000D02*
D03*
X1056000D02*
D03*
X1046000Y437000D02*
D03*
X1056000D02*
D03*
X1176000Y271000D02*
D03*
X1186000D02*
D03*
X942000Y445000D02*
D03*
X952000D02*
D03*
X724000Y368000D02*
D03*
X734000D02*
D03*
X559000Y324000D02*
D03*
X549000D02*
D03*
X240000Y329000D02*
D03*
X230000D02*
D03*
X229000Y304000D02*
D03*
X239000D02*
D03*
X907000Y593000D02*
D03*
X897000D02*
D03*
X324000Y343000D02*
D03*
X334000D02*
D03*
X257000Y263000D02*
D03*
X267000D02*
D03*
X798000Y373000D02*
D03*
X808000D02*
D03*
X641000Y292000D02*
D03*
X631000D02*
D03*
X702000Y368000D02*
D03*
X692000D02*
D03*
X612000Y367000D02*
D03*
X602000D02*
D03*
X444000Y344000D02*
D03*
X454000D02*
D03*
X277000Y343000D02*
D03*
X287000D02*
D03*
D248*
X1229000Y350000D02*
D03*
Y360000D02*
D03*
X1092000Y358000D02*
D03*
Y348000D02*
D03*
X1229000Y228000D02*
D03*
Y218000D02*
D03*
X1106000Y358000D02*
D03*
Y348000D02*
D03*
X1025000Y182000D02*
D03*
Y192000D02*
D03*
X1011000Y182000D02*
D03*
Y192000D02*
D03*
X914000Y173000D02*
D03*
Y183000D02*
D03*
X900000Y173000D02*
D03*
Y183000D02*
D03*
X859000Y489000D02*
D03*
Y479000D02*
D03*
X593000Y137000D02*
D03*
Y147000D02*
D03*
X1250000Y469000D02*
D03*
Y459000D02*
D03*
X1009000Y261000D02*
D03*
Y271000D02*
D03*
X995000Y261000D02*
D03*
Y271000D02*
D03*
X981000Y261000D02*
D03*
Y271000D02*
D03*
X949000Y322000D02*
D03*
Y332000D02*
D03*
Y296000D02*
D03*
Y306000D02*
D03*
X1061000Y324000D02*
D03*
Y314000D02*
D03*
X928000Y183000D02*
D03*
Y173000D02*
D03*
X886000Y183000D02*
D03*
Y173000D02*
D03*
X306000Y559000D02*
D03*
Y549000D02*
D03*
X193000Y677000D02*
D03*
Y667000D02*
D03*
X1175000Y604000D02*
D03*
Y614000D02*
D03*
Y627000D02*
D03*
Y637000D02*
D03*
X716000Y953000D02*
D03*
Y963000D02*
D03*
Y929000D02*
D03*
Y939000D02*
D03*
X717000Y902000D02*
D03*
Y912000D02*
D03*
X1273000Y268000D02*
D03*
Y278000D02*
D03*
X1064000Y460000D02*
D03*
Y450000D02*
D03*
X1092000Y460000D02*
D03*
Y450000D02*
D03*
X1078000Y460000D02*
D03*
Y450000D02*
D03*
X1064000Y354000D02*
D03*
Y364000D02*
D03*
X1050000Y354000D02*
D03*
Y364000D02*
D03*
X1273000Y302000D02*
D03*
Y292000D02*
D03*
X1152000Y550000D02*
D03*
Y540000D02*
D03*
X1215000Y350000D02*
D03*
Y360000D02*
D03*
X1078000Y348000D02*
D03*
Y358000D02*
D03*
X1215000Y228000D02*
D03*
Y218000D02*
D03*
X1134000Y348000D02*
D03*
Y358000D02*
D03*
X1147000Y400000D02*
D03*
Y390000D02*
D03*
X1120000Y348000D02*
D03*
Y358000D02*
D03*
X1106000Y460000D02*
D03*
Y450000D02*
D03*
X1147000Y432000D02*
D03*
Y422000D02*
D03*
X1273000Y244000D02*
D03*
Y254000D02*
D03*
X1259000Y334000D02*
D03*
Y324000D02*
D03*
X1245000Y334000D02*
D03*
Y324000D02*
D03*
X1259000Y229000D02*
D03*
Y239000D02*
D03*
X940000Y371000D02*
D03*
Y381000D02*
D03*
X986000Y426500D02*
D03*
Y436500D02*
D03*
X306000Y523000D02*
D03*
Y513000D02*
D03*
X572000Y355000D02*
D03*
Y345000D02*
D03*
Y376000D02*
D03*
Y386000D02*
D03*
X514000Y336000D02*
D03*
Y326000D02*
D03*
X592000Y687000D02*
D03*
Y677000D02*
D03*
X898000Y552000D02*
D03*
Y542000D02*
D03*
X605000Y674000D02*
D03*
Y684000D02*
D03*
X189000Y857000D02*
D03*
Y867000D02*
D03*
D249*
X748000Y991400D02*
D03*
X753000D02*
D03*
X758000D02*
D03*
X763000D02*
D03*
X768000D02*
D03*
X773000D02*
D03*
X778000D02*
D03*
X783000D02*
D03*
X788000D02*
D03*
X793000D02*
D03*
X798000D02*
D03*
X803000D02*
D03*
X808000D02*
D03*
X813000D02*
D03*
X818000D02*
D03*
X823000D02*
D03*
X828000D02*
D03*
X833000D02*
D03*
X838000D02*
D03*
D250*
X629000Y690850D02*
D03*
X638500Y667150D02*
D03*
X619500D02*
D03*
D251*
X558510Y357500D02*
D03*
Y352500D02*
D03*
X525490Y357500D02*
D03*
Y352500D02*
D03*
X939490Y410000D02*
D03*
Y415000D02*
D03*
X972510Y410000D02*
D03*
Y415000D02*
D03*
D252*
X542000Y355000D02*
D03*
X956000Y412500D02*
D03*
D253*
X552000Y369750D02*
D03*
X547000D02*
D03*
X542000D02*
D03*
X537000D02*
D03*
X532000D02*
D03*
X552000Y340250D02*
D03*
X547000D02*
D03*
X542000D02*
D03*
X537000D02*
D03*
X532000D02*
D03*
X946000Y397750D02*
D03*
X951000D02*
D03*
X956000D02*
D03*
X961000D02*
D03*
X966000D02*
D03*
X946000Y427250D02*
D03*
X951000D02*
D03*
X956000D02*
D03*
X961000D02*
D03*
X966000D02*
D03*
D254*
X187000Y784000D02*
D03*
D255*
X205000D02*
D03*
X185000Y804000D02*
D03*
X205000D02*
D03*
D256*
X387750Y360000D02*
D03*
X436750D02*
D03*
D257*
X450750Y487000D02*
D03*
X439750D02*
D03*
X428750D02*
D03*
X417750D02*
D03*
X406750D02*
D03*
X395750D02*
D03*
X384750D02*
D03*
X373750D02*
D03*
D258*
X357250Y359000D02*
D03*
D259*
X338250Y482000D02*
D03*
D260*
X471750Y482000D02*
D03*
D261*
X22000Y683500D02*
D03*
Y706500D02*
D03*
D262*
X48750Y682000D02*
D03*
Y688500D02*
D03*
Y695000D02*
D03*
Y701500D02*
D03*
Y708000D02*
D03*
D263*
X73000Y643700D02*
D03*
Y438200D02*
D03*
D264*
X280000Y600000D02*
D03*
Y587300D02*
D03*
Y574600D02*
D03*
Y561900D02*
D03*
Y549200D02*
D03*
Y536500D02*
D03*
Y523800D02*
D03*
Y511100D02*
D03*
D265*
X66500Y412500D02*
D03*
Y105000D02*
D03*
D266*
X105000Y377500D02*
D03*
Y365000D02*
D03*
Y352500D02*
D03*
Y340000D02*
D03*
Y327500D02*
D03*
Y315000D02*
D03*
Y302500D02*
D03*
Y290000D02*
D03*
Y277500D02*
D03*
Y265000D02*
D03*
Y252500D02*
D03*
Y240000D02*
D03*
Y227500D02*
D03*
Y215000D02*
D03*
Y202500D02*
D03*
Y190000D02*
D03*
Y177500D02*
D03*
Y165000D02*
D03*
Y152500D02*
D03*
Y140000D02*
D03*
D267*
X383700Y959000D02*
D03*
X358300D02*
D03*
X371000Y690000D02*
D03*
X754600Y60000D02*
D03*
X729200D02*
D03*
X703800D02*
D03*
X678400D02*
D03*
X653000D02*
D03*
X627600D02*
D03*
X780000Y34600D02*
D03*
X754600D02*
D03*
X729200D02*
D03*
X703800D02*
D03*
X678400D02*
D03*
X653000D02*
D03*
X627600D02*
D03*
X753600Y155400D02*
D03*
X728200D02*
D03*
X702800D02*
D03*
X677400D02*
D03*
X652000D02*
D03*
X753600Y130000D02*
D03*
X728200D02*
D03*
X702800D02*
D03*
X677400D02*
D03*
X1315400Y443400D02*
D03*
Y468800D02*
D03*
Y494200D02*
D03*
Y519600D02*
D03*
Y545000D02*
D03*
X1290000Y443400D02*
D03*
Y468800D02*
D03*
Y494200D02*
D03*
Y519600D02*
D03*
X1269600Y720000D02*
D03*
X1244200D02*
D03*
X1295000Y694600D02*
D03*
X1269600D02*
D03*
X1244200D02*
D03*
D268*
X565000Y310000D02*
D03*
X815000D02*
D03*
X215000D02*
D03*
X465000D02*
D03*
X811000Y813000D02*
D03*
X569000D02*
D03*
X219000Y813000D02*
D03*
X461000D02*
D03*
X60000Y768500D02*
D03*
Y860000D02*
D03*
D269*
X1209500Y977500D02*
D03*
Y1042500D02*
D03*
X670000Y550000D02*
D03*
X870000Y880000D02*
D03*
X520000D02*
D03*
Y230000D02*
D03*
X870000D02*
D03*
X385990Y1023000D02*
D03*
X136010D02*
D03*
D270*
X1162500Y1007500D02*
D03*
D271*
X780000Y60000D02*
D03*
X652000Y130000D02*
D03*
X1295000Y720000D02*
D03*
D272*
X1290000Y545000D02*
D03*
D273*
X522700Y717400D02*
D03*
Y532600D02*
D03*
X826700Y717400D02*
D03*
Y532600D02*
D03*
X1236500Y645000D02*
D03*
Y191000D02*
D03*
X985500Y618800D02*
D03*
Y217200D02*
D03*
D274*
X50000Y1050000D02*
D03*
X1300000D02*
D03*
Y50000D02*
D03*
X50000D02*
D03*
D275*
X230000Y879000D02*
D03*
X1110000D02*
D03*
Y279000D02*
D03*
X230000Y229000D02*
D03*
D276*
X1232000Y774000D02*
D03*
Y794000D02*
D03*
Y814000D02*
D03*
X47500Y976500D02*
D03*
Y956500D02*
D03*
Y936500D02*
D03*
Y916500D02*
D03*
Y896500D02*
D03*
Y876500D02*
D03*
Y836500D02*
D03*
Y816500D02*
D03*
Y796500D02*
D03*
X27500Y966500D02*
D03*
Y946500D02*
D03*
Y926500D02*
D03*
Y906500D02*
D03*
Y886500D02*
D03*
Y846500D02*
D03*
Y826500D02*
D03*
Y806500D02*
D03*
Y786500D02*
D03*
X92500D02*
D03*
Y806500D02*
D03*
Y826500D02*
D03*
Y846500D02*
D03*
Y886500D02*
D03*
Y906500D02*
D03*
Y926500D02*
D03*
Y946500D02*
D03*
Y966500D02*
D03*
X72500Y796500D02*
D03*
Y816500D02*
D03*
Y836500D02*
D03*
Y876500D02*
D03*
Y896500D02*
D03*
Y916500D02*
D03*
Y936500D02*
D03*
Y956500D02*
D03*
D277*
X1232000Y834000D02*
D03*
X72500Y976500D02*
D03*
D278*
X1175000Y686200D02*
D03*
X140000Y170000D02*
D03*
X150000Y765000D02*
D03*
Y866600D02*
D03*
X1310000Y329200D02*
D03*
Y380000D02*
D03*
Y278400D02*
D03*
D279*
X1175000Y711600D02*
D03*
Y737000D02*
D03*
X140000Y144600D02*
D03*
Y119200D02*
D03*
X150000Y841200D02*
D03*
Y815800D02*
D03*
Y790400D02*
D03*
Y892000D02*
D03*
Y917400D02*
D03*
Y942800D02*
D03*
X1310000Y303800D02*
D03*
Y354600D02*
D03*
Y253000D02*
D03*
D280*
X160000Y692000D02*
D03*
Y729000D02*
D03*
Y655000D02*
D03*
X1281000Y131000D02*
D03*
D281*
X134600Y692000D02*
D03*
Y729000D02*
D03*
Y655000D02*
D03*
X1331800Y131000D02*
D03*
X1306400D02*
D03*
D282*
X163000Y390000D02*
D03*
Y351900D02*
D03*
Y313800D02*
D03*
X994500Y1040300D02*
D03*
X1004700Y1022500D02*
D03*
X1014800Y1040300D02*
D03*
X1025000Y1022500D02*
D03*
X1035100Y1040300D02*
D03*
X1045200Y1022500D02*
D03*
X1055400Y1040300D02*
D03*
X1065600Y1022500D02*
D03*
D283*
X158000Y416700D02*
D03*
Y287100D02*
D03*
D284*
X153000Y377300D02*
D03*
Y364600D02*
D03*
Y339200D02*
D03*
Y326500D02*
D03*
D285*
X1220000Y30000D02*
D03*
X1200000Y54000D02*
D03*
Y109000D02*
D03*
X1220000Y146000D02*
D03*
Y91000D02*
D03*
X1000000Y30000D02*
D03*
X980000Y54000D02*
D03*
Y109000D02*
D03*
X1000000Y146000D02*
D03*
Y91000D02*
D03*
X1110000Y30000D02*
D03*
X1090000Y54000D02*
D03*
Y109000D02*
D03*
X1110000Y146000D02*
D03*
Y91000D02*
D03*
X890000Y30000D02*
D03*
X870000Y54000D02*
D03*
Y109000D02*
D03*
X890000Y146000D02*
D03*
Y91000D02*
D03*
D286*
X247136Y1037182D02*
D03*
X302593D02*
D03*
X233378Y1008818D02*
D03*
X219408Y1037182D02*
D03*
X274864D02*
D03*
X288834Y1008818D02*
D03*
X261106D02*
D03*
X205649D02*
D03*
D287*
X316563D02*
D03*
D288*
X104600Y50000D02*
D03*
Y75400D02*
D03*
X130000D02*
D03*
D289*
Y50000D02*
D03*
D290*
X1300000Y802600D02*
D03*
Y853400D02*
D03*
Y904200D02*
D03*
D291*
Y955000D02*
D03*
D292*
X422500Y27550D02*
D03*
X377500D02*
D03*
X322500D02*
D03*
X277500D02*
D03*
X222500D02*
D03*
X177500D02*
D03*
D293*
X435050Y52450D02*
D03*
X364950D02*
D03*
X335050D02*
D03*
X264950D02*
D03*
X235050D02*
D03*
X164950D02*
D03*
D294*
X1111300Y1031400D02*
D03*
X948700D02*
D03*
D295*
X1093500Y1065700D02*
D03*
X966500D02*
D03*
D296*
X984300Y974300D02*
D03*
X961400D02*
D03*
X1075700D02*
D03*
X1098600D02*
D03*
D297*
X955500Y618800D02*
D03*
Y217200D02*
D03*
D298*
X630700Y943600D02*
D03*
X499300D02*
D03*
X630700Y1000400D02*
D03*
X499300D02*
D03*
D299*
X600000Y973300D02*
D03*
X575000D02*
D03*
X555000D02*
D03*
X530000Y947100D02*
D03*
X555000D02*
D03*
X575000D02*
D03*
X600000D02*
D03*
X530000Y973300D02*
D03*
D300*
X720500Y999000D02*
D03*
X865500D02*
D03*
D301*
Y1058600D02*
D03*
X720500D02*
D03*
D302*
X52000Y717250D02*
D03*
Y672750D02*
D03*
D303*
X22000Y733120D02*
D03*
Y656880D02*
D03*
D304*
X65300Y459400D02*
D03*
X163300Y619900D02*
D03*
X163300Y462100D02*
D03*
X65300Y622600D02*
D03*
D305*
X440000Y150000D02*
D03*
D306*
X414600D02*
D03*
X389200D02*
D03*
X363800D02*
D03*
X338400D02*
D03*
X313000D02*
D03*
X287600D02*
D03*
X262200D02*
D03*
X236800D02*
D03*
X211400D02*
D03*
X440000Y124600D02*
D03*
X414600D02*
D03*
X389200D02*
D03*
X363800D02*
D03*
X338400D02*
D03*
X313000D02*
D03*
X287600D02*
D03*
X262200D02*
D03*
X236800D02*
D03*
X211400D02*
D03*
M02*
