%FSLAX44Y44*%
%MOMM*%
G71*
G01*
G75*
G04 Layer_Physical_Order=3*
G04 Layer_Color=36540*
%ADD10R,0.2500X0.8000*%
%ADD11R,0.4000X0.6500*%
%ADD12R,0.3250X0.6500*%
%ADD13R,0.6000X0.5000*%
%ADD14R,1.2000X1.1500*%
%ADD15R,2.5000X3.3000*%
%ADD16R,1.8288X3.4290*%
%ADD17R,0.6400X4.7000*%
%ADD18R,0.6400X2.5400*%
%ADD19R,1.4500X0.3000*%
%ADD20R,0.8500X0.2800*%
%ADD21R,0.2800X0.8500*%
%ADD22R,3.1500X3.1500*%
%ADD23R,3.5000X3.5000*%
%ADD24R,0.8500X0.3000*%
%ADD25R,0.3000X0.8500*%
%ADD26R,3.5000X3.5000*%
%ADD27R,1.0400X0.3800*%
%ADD28R,1.0000X0.2800*%
%ADD29R,0.2800X1.0000*%
%ADD30R,3.7000X3.7000*%
%ADD31R,0.8000X0.2400*%
%ADD32R,0.2400X0.8000*%
%ADD33R,2.2000X2.2000*%
%ADD34R,1.0000X0.5500*%
%ADD35R,1.2000X0.5800*%
%ADD36R,0.5800X1.2000*%
%ADD37R,0.9000X0.7000*%
%ADD38R,0.7000X0.9000*%
%ADD39C,1.0160*%
%ADD40R,1.9000X2.6000*%
%ADD41R,0.2800X1.4000*%
%ADD42R,0.8000X0.8000*%
%ADD43R,0.7500X0.4000*%
%ADD44R,0.9000X1.2000*%
%ADD45R,0.9000X0.8000*%
%ADD46R,0.6858X0.5588*%
%ADD47R,0.5000X0.6000*%
%ADD48R,1.6000X0.3000*%
%ADD49R,2.3700X2.4300*%
%ADD50R,2.4300X2.3700*%
%ADD51R,1.6000X0.9000*%
%ADD52R,0.9000X1.6000*%
%ADD53R,0.9000X1.3000*%
%ADD54R,1.3000X0.9000*%
%ADD55R,0.8000X0.8000*%
%ADD56R,0.5000X0.5000*%
%ADD57R,0.5000X0.5000*%
%ADD58R,0.3000X2.6000*%
%ADD59R,0.6000X1.0500*%
%ADD60R,0.7000X0.2800*%
%ADD61R,2.3368X1.6500*%
%ADD62O,0.2800X0.8500*%
%ADD63R,1.2000X0.9000*%
%ADD64R,0.8000X0.9000*%
%ADD65R,2.7000X1.4000*%
%ADD66R,0.7000X2.0000*%
%ADD67R,1.2000X1.2000*%
%ADD68R,1.5000X2.6000*%
%ADD69R,1.0000X2.6000*%
%ADD70R,1.9000X1.8000*%
%ADD71R,1.3500X0.4000*%
%ADD72R,2.9500X1.5000*%
%ADD73R,2.3000X1.0000*%
%ADD74R,2.0000X1.2500*%
%ADD75R,1.7000X0.8000*%
%ADD76C,0.2500*%
%ADD77C,0.3000*%
%ADD78C,0.5000*%
%ADD79C,0.2800*%
%ADD80C,0.4000*%
%ADD81C,0.2400*%
%ADD82C,0.8000*%
%ADD83C,0.5800*%
%ADD84C,0.6000*%
%ADD85C,0.4300*%
%ADD86C,0.3500*%
%ADD87C,1.0000*%
%ADD88C,0.2830*%
%ADD89C,1.7000*%
%ADD90C,5.0000*%
%ADD91O,4.0000X5.0000*%
%ADD92R,1.7000X1.7000*%
%ADD93R,1.7000X1.7000*%
%ADD94C,7.4000*%
%ADD95C,5.2000*%
%ADD96C,1.4000*%
%ADD97R,1.4000X1.4000*%
%ADD98R,2.0000X1.6000*%
%ADD99O,2.0000X1.6000*%
%ADD100R,1.6000X2.0000*%
%ADD101O,1.6000X2.0000*%
%ADD102C,1.3000*%
%ADD103C,2.0000*%
%ADD104O,1.3000X1.1000*%
%ADD105C,2.4000*%
%ADD106O,1.6000X2.0000*%
%ADD107R,1.6000X2.0000*%
%ADD108C,1.9000*%
%ADD109R,1.9000X1.9000*%
%ADD110C,3.6000*%
%ADD111R,3.6000X3.6000*%
%ADD112C,1.8000*%
%ADD113C,2.2000*%
%ADD114C,2.7000*%
%ADD115C,3.2500*%
%ADD116C,1.5748*%
%ADD117C,3.0000*%
%ADD118C,1.5240*%
%ADD119O,3.3000X4.0000*%
%ADD120C,3.0000*%
G04:AMPARAMS|DCode=121|XSize=1.25mm|YSize=1.1mm|CornerRadius=0.462mm|HoleSize=0mm|Usage=FLASHONLY|Rotation=0.000|XOffset=0mm|YOffset=0mm|HoleType=Round|Shape=RoundedRectangle|*
%AMROUNDEDRECTD121*
21,1,1.2500,0.1760,0,0,0.0*
21,1,0.3260,1.1000,0,0,0.0*
1,1,0.9240,0.1630,-0.0880*
1,1,0.9240,-0.1630,-0.0880*
1,1,0.9240,-0.1630,0.0880*
1,1,0.9240,0.1630,0.0880*
%
%ADD121ROUNDEDRECTD121*%
G04:AMPARAMS|DCode=122|XSize=1.9mm|YSize=2.425mm|CornerRadius=0.57mm|HoleSize=0mm|Usage=FLASHONLY|Rotation=0.000|XOffset=0mm|YOffset=0mm|HoleType=Round|Shape=RoundedRectangle|*
%AMROUNDEDRECTD122*
21,1,1.9000,1.2850,0,0,0.0*
21,1,0.7600,2.4250,0,0,0.0*
1,1,1.1400,0.3800,-0.6425*
1,1,1.1400,-0.3800,-0.6425*
1,1,1.1400,-0.3800,0.6425*
1,1,1.1400,0.3800,0.6425*
%
%ADD122ROUNDEDRECTD122*%
%ADD123R,1.5000X1.5000*%
%ADD124C,1.5000*%
%ADD125C,0.4500*%
%ADD126C,1.0000*%
%ADD127C,1.0000*%
%ADD128C,1.6000*%
G04:AMPARAMS|DCode=129|XSize=2mm|YSize=2mm|CornerRadius=0mm|HoleSize=0mm|Usage=FLASHONLY|Rotation=0.000|XOffset=0mm|YOffset=0mm|HoleType=Round|Shape=Relief|Width=0.5mm|Gap=0.2mm|Entries=4|*
%AMTHD129*
7,0,0,2.0000,1.6000,0.5000,45*
%
%ADD129THD129*%
%ADD130C,2.2000*%
%ADD131C,3.8000*%
G04:AMPARAMS|DCode=132|XSize=3.7mm|YSize=3.7mm|CornerRadius=0mm|HoleSize=0mm|Usage=FLASHONLY|Rotation=0.000|XOffset=0mm|YOffset=0mm|HoleType=Round|Shape=Relief|Width=0.5mm|Gap=0.2mm|Entries=4|*
%AMTHD132*
7,0,0,3.7000,3.3000,0.5000,45*
%
%ADD132THD132*%
G04:AMPARAMS|DCode=133|XSize=2.1mm|YSize=2.1mm|CornerRadius=0mm|HoleSize=0mm|Usage=FLASHONLY|Rotation=0.000|XOffset=0mm|YOffset=0mm|HoleType=Round|Shape=Relief|Width=0.5mm|Gap=0.2mm|Entries=4|*
%AMTHD133*
7,0,0,2.1000,1.7000,0.5000,45*
%
%ADD133THD133*%
%ADD134C,1.6500*%
G04:AMPARAMS|DCode=135|XSize=4.2mm|YSize=4.2mm|CornerRadius=0mm|HoleSize=0mm|Usage=FLASHONLY|Rotation=0.000|XOffset=0mm|YOffset=0mm|HoleType=Round|Shape=Relief|Width=0.5mm|Gap=0.2mm|Entries=4|*
%AMTHD135*
7,0,0,4.2000,3.8000,0.5000,45*
%
%ADD135THD135*%
G04:AMPARAMS|DCode=136|XSize=1.8mm|YSize=1.8mm|CornerRadius=0mm|HoleSize=0mm|Usage=FLASHONLY|Rotation=0.000|XOffset=0mm|YOffset=0mm|HoleType=Round|Shape=Relief|Width=0.5mm|Gap=0.2mm|Entries=4|*
%AMTHD136*
7,0,0,1.8000,1.4000,0.5000,45*
%
%ADD136THD136*%
G04:AMPARAMS|DCode=137|XSize=3.2mm|YSize=3.2mm|CornerRadius=0mm|HoleSize=0mm|Usage=FLASHONLY|Rotation=0.000|XOffset=0mm|YOffset=0mm|HoleType=Round|Shape=Relief|Width=0.5mm|Gap=0.2mm|Entries=4|*
%AMTHD137*
7,0,0,3.2000,2.8000,0.5000,45*
%
%ADD137THD137*%
G04:AMPARAMS|DCode=138|XSize=1.74mm|YSize=1.74mm|CornerRadius=0mm|HoleSize=0mm|Usage=FLASHONLY|Rotation=0.000|XOffset=0mm|YOffset=0mm|HoleType=Round|Shape=Relief|Width=0.5mm|Gap=0.2mm|Entries=4|*
%AMTHD138*
7,0,0,1.7400,1.3400,0.5000,45*
%
%ADD138THD138*%
G04:AMPARAMS|DCode=139|XSize=2.35mm|YSize=2.35mm|CornerRadius=0mm|HoleSize=0mm|Usage=FLASHONLY|Rotation=0.000|XOffset=0mm|YOffset=0mm|HoleType=Round|Shape=Relief|Width=0.5mm|Gap=0.2mm|Entries=4|*
%AMTHD139*
7,0,0,2.3500,1.9500,0.5000,45*
%
%ADD139THD139*%
%ADD140C,1.3400*%
G04:AMPARAMS|DCode=141|XSize=2.6mm|YSize=2.6mm|CornerRadius=0mm|HoleSize=0mm|Usage=FLASHONLY|Rotation=0.000|XOffset=0mm|YOffset=0mm|HoleType=Round|Shape=Relief|Width=0.5mm|Gap=0.2mm|Entries=4|*
%AMTHD141*
7,0,0,2.6000,2.2000,0.5000,45*
%
%ADD141THD141*%
%ADD142C,1.6900*%
G04:AMPARAMS|DCode=143|XSize=4.18mm|YSize=4.18mm|CornerRadius=0mm|HoleSize=0mm|Usage=FLASHONLY|Rotation=0.000|XOffset=0mm|YOffset=0mm|HoleType=Round|Shape=Relief|Width=0.5mm|Gap=0.2mm|Entries=4|*
%AMTHD143*
7,0,0,4.1800,3.7800,0.5000,45*
%
%ADD143THD143*%
G04:AMPARAMS|DCode=144|XSize=2.09mm|YSize=2.09mm|CornerRadius=0mm|HoleSize=0mm|Usage=FLASHONLY|Rotation=0.000|XOffset=0mm|YOffset=0mm|HoleType=Round|Shape=Relief|Width=0.5mm|Gap=0.2mm|Entries=4|*
%AMTHD144*
7,0,0,2.0900,1.6900,0.5000,45*
%
%ADD144THD144*%
%ADD145C,2.4000*%
G04:AMPARAMS|DCode=146|XSize=2.8mm|YSize=2.8mm|CornerRadius=0mm|HoleSize=0mm|Usage=FLASHONLY|Rotation=0.000|XOffset=0mm|YOffset=0mm|HoleType=Round|Shape=Relief|Width=0.5mm|Gap=0.2mm|Entries=4|*
%AMTHD146*
7,0,0,2.8000,2.4000,0.5000,45*
%
%ADD146THD146*%
G04:AMPARAMS|DCode=147|XSize=2.3mm|YSize=2.3mm|CornerRadius=0mm|HoleSize=0mm|Usage=FLASHONLY|Rotation=0.000|XOffset=0mm|YOffset=0mm|HoleType=Round|Shape=Relief|Width=0.5mm|Gap=0.2mm|Entries=4|*
%AMTHD147*
7,0,0,2.3000,1.9000,0.5000,45*
%
%ADD147THD147*%
%ADD148C,3.8500*%
%ADD149C,1.9500*%
G04:AMPARAMS|DCode=150|XSize=3.3mm|YSize=3.3mm|CornerRadius=0mm|HoleSize=0mm|Usage=FLASHONLY|Rotation=0.000|XOffset=0mm|YOffset=0mm|HoleType=Round|Shape=Relief|Width=0.5mm|Gap=0.2mm|Entries=4|*
%AMTHD150*
7,0,0,3.3000,2.9000,0.5000,45*
%
%ADD150THD150*%
%ADD151C,2.3500*%
G04:AMPARAMS|DCode=152|XSize=3.4mm|YSize=3.4mm|CornerRadius=0mm|HoleSize=0mm|Usage=FLASHONLY|Rotation=0.000|XOffset=0mm|YOffset=0mm|HoleType=Round|Shape=Relief|Width=0.5mm|Gap=0.2mm|Entries=4|*
%AMTHD152*
7,0,0,3.4000,3.0000,0.5000,45*
%
%ADD152THD152*%
G04:AMPARAMS|DCode=153|XSize=4mm|YSize=4mm|CornerRadius=0mm|HoleSize=0mm|Usage=FLASHONLY|Rotation=0.000|XOffset=0mm|YOffset=0mm|HoleType=Round|Shape=Relief|Width=0.5mm|Gap=0.2mm|Entries=4|*
%AMTHD153*
7,0,0,4.0000,3.6000,0.5000,45*
%
%ADD153THD153*%
G04:AMPARAMS|DCode=154|XSize=3mm|YSize=3mm|CornerRadius=0mm|HoleSize=0mm|Usage=FLASHONLY|Rotation=0.000|XOffset=0mm|YOffset=0mm|HoleType=Round|Shape=Relief|Width=0.5mm|Gap=0.2mm|Entries=4|*
%AMTHD154*
7,0,0,3.0000,2.6000,0.5000,45*
%
%ADD154THD154*%
%ADD155C,2.1500*%
G04:AMPARAMS|DCode=156|XSize=1.85mm|YSize=1.85mm|CornerRadius=0mm|HoleSize=0mm|Usage=FLASHONLY|Rotation=0.000|XOffset=0mm|YOffset=0mm|HoleType=Round|Shape=Relief|Width=0.5mm|Gap=0.2mm|Entries=4|*
%AMTHD156*
7,0,0,1.8500,1.4500,0.5000,45*
%
%ADD156THD156*%
%ADD157C,2.0000*%
%ADD158C,2.9500*%
G04:AMPARAMS|DCode=159|XSize=1.7mm|YSize=1.7mm|CornerRadius=0mm|HoleSize=0mm|Usage=FLASHONLY|Rotation=0.000|XOffset=0mm|YOffset=0mm|HoleType=Round|Shape=Relief|Width=0.5mm|Gap=0.2mm|Entries=4|*
%AMTHD159*
7,0,0,1.7000,1.3000,0.5000,45*
%
%ADD159THD159*%
G04:AMPARAMS|DCode=160|XSize=1.9mm|YSize=1.9mm|CornerRadius=0mm|HoleSize=0mm|Usage=FLASHONLY|Rotation=0.000|XOffset=0mm|YOffset=0mm|HoleType=Round|Shape=Relief|Width=0.5mm|Gap=0.2mm|Entries=4|*
%AMTHD160*
7,0,0,1.9000,1.5000,0.5000,45*
%
%ADD160THD160*%
%ADD161C,0.8000*%
%ADD162C,1.1000*%
%ADD163C,0.2000*%
G36*
X1340000Y650000D02*
X1243062D01*
X1242384Y650884D01*
X1240661Y652206D01*
X1238654Y653038D01*
X1236500Y653321D01*
X1234346Y653038D01*
X1232339Y652206D01*
X1230616Y650884D01*
X1229938Y650000D01*
X1185174D01*
X1184704Y650704D01*
X1183463Y651532D01*
X1182000Y651823D01*
X1180537Y651532D01*
X1179296Y650704D01*
X1178826Y650000D01*
X1165000D01*
Y690000D01*
X1215000D01*
X1237521Y712521D01*
X1239157Y711265D01*
X1241590Y710257D01*
X1244200Y709914D01*
X1246811Y710257D01*
X1249243Y711265D01*
X1251332Y712868D01*
X1252935Y714957D01*
X1253943Y717390D01*
X1254286Y720000D01*
X1253943Y722610D01*
X1252935Y725043D01*
X1251679Y726679D01*
X1270000Y745000D01*
Y870000D01*
X1235000Y905000D01*
Y970198D01*
X1235755Y973342D01*
X1236082Y977500D01*
X1235755Y981658D01*
X1235141Y984215D01*
X1235760Y985000D01*
X1340000D01*
Y650000D01*
D02*
G37*
G36*
X55000Y222260D02*
X54468Y221463D01*
X54177Y220000D01*
X54468Y218537D01*
X55000Y217740D01*
Y215000D01*
X95000Y175000D01*
X115660D01*
X115796Y174796D01*
X117037Y173968D01*
X118500Y173677D01*
X119963Y173968D01*
X121204Y174796D01*
X121340Y175000D01*
X128500D01*
Y160500D01*
X150000D01*
Y125935D01*
X149053Y125614D01*
X148776Y125975D01*
X146791Y127498D01*
X144480Y128455D01*
X142000Y128782D01*
X138000D01*
X135520Y128455D01*
X133209Y127498D01*
X131224Y125975D01*
X129702Y123991D01*
X128744Y121680D01*
X128418Y119200D01*
X128744Y116720D01*
X129702Y114409D01*
X131224Y112424D01*
X133150Y110947D01*
X132829Y110000D01*
X110000D01*
X25000Y195000D01*
Y230000D01*
X55000D01*
Y222260D01*
D02*
G37*
G36*
X847413Y995500D02*
X847760Y991971D01*
X848790Y988578D01*
X850461Y985451D01*
X852710Y982710D01*
X855451Y980461D01*
X858578Y978790D01*
X861971Y977760D01*
X865500Y977413D01*
X869029Y977760D01*
X872422Y978790D01*
X875549Y980461D01*
X878289Y982710D01*
X880168Y985000D01*
X950000D01*
Y965000D01*
X960224D01*
X961400Y964845D01*
X962576Y965000D01*
X970000D01*
Y970567D01*
X970533Y971853D01*
X970855Y974300D01*
X970533Y976747D01*
X970000Y978033D01*
Y985000D01*
X1065000D01*
Y965000D01*
X1074524D01*
X1075700Y964845D01*
X1076876Y965000D01*
X1085000D01*
Y973124D01*
X1085155Y974300D01*
X1085000Y975476D01*
Y985000D01*
X1149933D01*
X1150497Y984537D01*
X1154232Y982540D01*
X1158285Y981311D01*
X1162500Y980896D01*
X1166715Y981311D01*
X1170767Y982540D01*
X1174502Y984537D01*
X1175067Y985000D01*
X1183240D01*
X1183859Y984215D01*
X1183245Y981658D01*
X1182918Y977500D01*
X1183245Y973342D01*
X1184219Y969286D01*
X1185815Y965432D01*
X1187995Y961876D01*
X1190704Y958704D01*
X1193876Y955995D01*
X1197432Y953815D01*
X1201286Y952219D01*
X1205342Y951245D01*
X1209500Y950918D01*
X1213658Y951245D01*
X1217714Y952219D01*
X1221568Y953815D01*
X1225125Y955995D01*
X1228296Y958704D01*
X1229062Y959600D01*
X1230000Y959254D01*
Y903000D01*
X1265000Y868000D01*
Y747000D01*
X1247470Y729470D01*
X1246811Y729743D01*
X1244200Y730086D01*
X1241590Y729743D01*
X1239157Y728735D01*
X1237068Y727132D01*
X1235465Y725043D01*
X1234457Y722610D01*
X1234114Y720000D01*
X1234457Y717390D01*
X1234730Y716730D01*
X1213000Y695000D01*
X1186500D01*
Y695700D01*
X1163500D01*
Y695000D01*
X1160000D01*
Y605000D01*
X1115000D01*
X1110000Y610000D01*
Y670000D01*
X1168558Y728557D01*
X1170520Y727745D01*
X1173000Y727418D01*
X1177000D01*
X1179480Y727745D01*
X1181791Y728702D01*
X1183483Y730000D01*
X1185000D01*
X1215000Y760000D01*
Y787177D01*
X1216463Y787468D01*
X1217704Y788296D01*
X1218532Y789537D01*
X1218823Y791000D01*
X1218532Y792463D01*
X1217704Y793704D01*
X1216463Y794532D01*
X1215000Y794823D01*
Y840000D01*
X1160532Y894468D01*
X1159636Y895636D01*
X1158468Y896532D01*
X1140000Y915000D01*
X1128424D01*
X1128333Y915697D01*
X1127678Y917278D01*
X1126636Y918636D01*
X1125278Y919678D01*
X1123697Y920333D01*
X1122000Y920556D01*
X1120303Y920333D01*
X1118722Y919678D01*
X1117364Y918636D01*
X1116322Y917278D01*
X1115667Y915697D01*
X1115576Y915000D01*
X1054613D01*
X1053978Y915773D01*
X1054023Y916000D01*
X1053732Y917463D01*
X1052904Y918704D01*
X1051663Y919532D01*
X1050200Y919823D01*
X1048737Y919532D01*
X1047496Y918704D01*
X1046668Y917463D01*
X1046377Y916000D01*
X1046422Y915773D01*
X1045787Y915000D01*
X1033813D01*
X1033178Y915773D01*
X1033223Y916000D01*
X1032932Y917463D01*
X1032104Y918704D01*
X1030863Y919532D01*
X1029400Y919823D01*
X1027937Y919532D01*
X1026696Y918704D01*
X1025868Y917463D01*
X1025577Y916000D01*
X1025622Y915773D01*
X1024987Y915000D01*
X1016513D01*
X1015878Y915773D01*
X1015923Y916000D01*
X1015632Y917463D01*
X1014804Y918704D01*
X1013563Y919532D01*
X1012100Y919823D01*
X1010637Y919532D01*
X1009396Y918704D01*
X1008568Y917463D01*
X1008277Y916000D01*
X1008322Y915773D01*
X1007687Y915000D01*
X995713D01*
X995078Y915773D01*
X995124Y916000D01*
X994832Y917463D01*
X994004Y918704D01*
X992763Y919532D01*
X991300Y919823D01*
X989837Y919532D01*
X988596Y918704D01*
X987768Y917463D01*
X987477Y916000D01*
X987522Y915773D01*
X986887Y915000D01*
X976260D01*
X975463Y915532D01*
X974000Y915823D01*
X972537Y915532D01*
X971740Y915000D01*
X971064D01*
X970429Y915773D01*
X970673Y917000D01*
X970382Y918463D01*
X969554Y919704D01*
X968313Y920532D01*
X966850Y920823D01*
X965387Y920532D01*
X964146Y919704D01*
X964100Y919634D01*
X963100D01*
X963054Y919704D01*
X961813Y920532D01*
X960350Y920823D01*
X958887Y920532D01*
X957646Y919704D01*
X956818Y918463D01*
X956527Y917000D01*
X956771Y915773D01*
X956136Y915000D01*
X955460D01*
X954663Y915532D01*
X954419Y915581D01*
X932478Y937522D01*
X932573Y938000D01*
X932282Y939463D01*
X931454Y940704D01*
X930213Y941532D01*
X928750Y941823D01*
X928272Y941728D01*
X927062Y942938D01*
X927160Y943933D01*
X927704Y944296D01*
X928532Y945537D01*
X928823Y947000D01*
X928532Y948463D01*
X927704Y949704D01*
X926463Y950532D01*
X925000Y950823D01*
X923537Y950532D01*
X922296Y949704D01*
X921933Y949160D01*
X920938Y949062D01*
X920000Y950000D01*
X863174D01*
X862704Y950704D01*
X861463Y951532D01*
X860000Y951823D01*
X858537Y951532D01*
X857296Y950704D01*
X856826Y950000D01*
X820260D01*
X819463Y950532D01*
X818000Y950823D01*
X816537Y950532D01*
X815740Y950000D01*
X801174D01*
X800704Y950704D01*
X799463Y951532D01*
X798000Y951824D01*
X796537Y951532D01*
X795296Y950704D01*
X794467Y949463D01*
X794176Y948000D01*
X794467Y946537D01*
X795296Y945296D01*
X795296Y945296D01*
X795296D01*
X795296Y945296D01*
X744505Y894505D01*
X744463Y894532D01*
X743000Y894824D01*
X741537Y894532D01*
X740296Y893704D01*
X739468Y892463D01*
X739177Y891000D01*
X739468Y889537D01*
X739495Y889495D01*
X730000Y880000D01*
Y855000D01*
X722605D01*
X719549Y858056D01*
Y873000D01*
X719355Y873976D01*
X718802Y874802D01*
X715000Y878605D01*
Y880376D01*
X715463Y880468D01*
X716704Y881296D01*
X717532Y882537D01*
X717823Y884000D01*
X717532Y885463D01*
X716704Y886704D01*
X715463Y887532D01*
X715000Y887625D01*
Y890786D01*
X715773Y891421D01*
X717000Y891177D01*
X718463Y891468D01*
X719704Y892296D01*
X720532Y893537D01*
X720824Y895000D01*
X720532Y896463D01*
X719704Y897704D01*
X718463Y898532D01*
X717000Y898823D01*
X715773Y898579D01*
X715000Y899214D01*
Y917587D01*
X715773Y918222D01*
X716000Y918177D01*
X717463Y918468D01*
X718704Y919296D01*
X719532Y920537D01*
X719824Y922000D01*
X719532Y923463D01*
X718704Y924704D01*
X717463Y925532D01*
X716000Y925823D01*
X715773Y925778D01*
X715000Y926413D01*
Y941587D01*
X715773Y942222D01*
X716000Y942177D01*
X717463Y942468D01*
X718704Y943296D01*
X719532Y944537D01*
X719824Y946000D01*
X719532Y947463D01*
X718704Y948704D01*
X717463Y949532D01*
X716000Y949823D01*
X715773Y949778D01*
X715000Y950413D01*
Y977519D01*
X715803Y978115D01*
X716971Y977760D01*
X720500Y977413D01*
X724029Y977760D01*
X727422Y978790D01*
X730549Y980461D01*
X733289Y982710D01*
X735539Y985451D01*
X737210Y988578D01*
X738240Y991971D01*
X738587Y995500D01*
Y999000D01*
X847413D01*
Y995500D01*
D02*
G37*
%LPC*%
G36*
X1269600Y730086D02*
X1266990Y729743D01*
X1264557Y728735D01*
X1262468Y727132D01*
X1260865Y725043D01*
X1259857Y722610D01*
X1259514Y720000D01*
X1259857Y717390D01*
X1260865Y714957D01*
X1262468Y712868D01*
X1264557Y711265D01*
X1266990Y710257D01*
X1269600Y709914D01*
X1272210Y710257D01*
X1274643Y711265D01*
X1276732Y712868D01*
X1278335Y714957D01*
X1279343Y717390D01*
X1279686Y720000D01*
X1279343Y722610D01*
X1278335Y725043D01*
X1276732Y727132D01*
X1274643Y728735D01*
X1272210Y729743D01*
X1269600Y730086D01*
D02*
G37*
G36*
X1305000Y730000D02*
X1285000D01*
Y710000D01*
X1305000D01*
Y730000D01*
D02*
G37*
G36*
X1295000Y704686D02*
X1292390Y704343D01*
X1289957Y703335D01*
X1287868Y701732D01*
X1286265Y699643D01*
X1285257Y697210D01*
X1284914Y694600D01*
X1285257Y691990D01*
X1286265Y689557D01*
X1287868Y687468D01*
X1289957Y685865D01*
X1292390Y684857D01*
X1295000Y684514D01*
X1297610Y684857D01*
X1300043Y685865D01*
X1302132Y687468D01*
X1303735Y689557D01*
X1304743Y691990D01*
X1305086Y694600D01*
X1304743Y697210D01*
X1303735Y699643D01*
X1302132Y701732D01*
X1300043Y703335D01*
X1297610Y704343D01*
X1295000Y704686D01*
D02*
G37*
G36*
X1177000Y721182D02*
X1173000D01*
X1170520Y720855D01*
X1168209Y719898D01*
X1166225Y718375D01*
X1164702Y716391D01*
X1163745Y714080D01*
X1163418Y711600D01*
X1163745Y709120D01*
X1164702Y706809D01*
X1166225Y704825D01*
X1168209Y703302D01*
X1170520Y702345D01*
X1173000Y702018D01*
X1177000D01*
X1179480Y702345D01*
X1181791Y703302D01*
X1183775Y704825D01*
X1185298Y706809D01*
X1186255Y709120D01*
X1186582Y711600D01*
X1186255Y714080D01*
X1185298Y716391D01*
X1183775Y718375D01*
X1181791Y719898D01*
X1179480Y720855D01*
X1177000Y721182D01*
D02*
G37*
G36*
X1286000Y767823D02*
X1284537Y767532D01*
X1283296Y766703D01*
X1282468Y765463D01*
X1282177Y764000D01*
X1282468Y762537D01*
X1283296Y761296D01*
X1284537Y760468D01*
X1286000Y760176D01*
X1287463Y760468D01*
X1288704Y761296D01*
X1289532Y762537D01*
X1289823Y764000D01*
X1289532Y765463D01*
X1288704Y766703D01*
X1287463Y767532D01*
X1286000Y767823D01*
D02*
G37*
G36*
X1300000Y822194D02*
X1296177Y821818D01*
X1292502Y820703D01*
X1289114Y818892D01*
X1286145Y816455D01*
X1283708Y813486D01*
X1281897Y810098D01*
X1280782Y806423D01*
X1280406Y802600D01*
X1280782Y798777D01*
X1281897Y795102D01*
X1283708Y791714D01*
X1286145Y788745D01*
X1289114Y786308D01*
X1292502Y784497D01*
X1296177Y783382D01*
X1300000Y783006D01*
X1303823Y783382D01*
X1307498Y784497D01*
X1310886Y786308D01*
X1313855Y788745D01*
X1316292Y791714D01*
X1318103Y795102D01*
X1319218Y798777D01*
X1319594Y802600D01*
X1319218Y806423D01*
X1318103Y810098D01*
X1316292Y813486D01*
X1313855Y816455D01*
X1310886Y818892D01*
X1307498Y820703D01*
X1303823Y821818D01*
X1300000Y822194D01*
D02*
G37*
G36*
X1232000Y802573D02*
X1229781Y802281D01*
X1227713Y801425D01*
X1225938Y800062D01*
X1224575Y798287D01*
X1223719Y796219D01*
X1223427Y794000D01*
X1223719Y791781D01*
X1224575Y789713D01*
X1225938Y787938D01*
X1227713Y786575D01*
X1229781Y785719D01*
X1232000Y785427D01*
X1234219Y785719D01*
X1236287Y786575D01*
X1238062Y787938D01*
X1239425Y789713D01*
X1240281Y791781D01*
X1240573Y794000D01*
X1240281Y796219D01*
X1239425Y798287D01*
X1238062Y800062D01*
X1236287Y801425D01*
X1234219Y802281D01*
X1232000Y802573D01*
D02*
G37*
G36*
X1279000Y783823D02*
X1277537Y783532D01*
X1276296Y782704D01*
X1275468Y781463D01*
X1275177Y780000D01*
X1275468Y778537D01*
X1276296Y777296D01*
X1277537Y776468D01*
X1279000Y776177D01*
X1280463Y776468D01*
X1281704Y777296D01*
X1282532Y778537D01*
X1282823Y780000D01*
X1282532Y781463D01*
X1281704Y782704D01*
X1280463Y783532D01*
X1279000Y783823D01*
D02*
G37*
G36*
X1232000Y782573D02*
X1229781Y782281D01*
X1227713Y781425D01*
X1225938Y780062D01*
X1224575Y778287D01*
X1223719Y776219D01*
X1223427Y774000D01*
X1223719Y771781D01*
X1224575Y769713D01*
X1225938Y767938D01*
X1227713Y766575D01*
X1229781Y765719D01*
X1232000Y765427D01*
X1234219Y765719D01*
X1236287Y766575D01*
X1238062Y767938D01*
X1239425Y769713D01*
X1240281Y771781D01*
X1240573Y774000D01*
X1240281Y776219D01*
X1239425Y778287D01*
X1238062Y780062D01*
X1236287Y781425D01*
X1234219Y782281D01*
X1232000Y782573D01*
D02*
G37*
G36*
X1279000Y773823D02*
X1277537Y773532D01*
X1276296Y772704D01*
X1275468Y771463D01*
X1275177Y770000D01*
X1275468Y768537D01*
X1276296Y767296D01*
X1277537Y766468D01*
X1279000Y766177D01*
X1280463Y766468D01*
X1281704Y767296D01*
X1282532Y768537D01*
X1282823Y770000D01*
X1282532Y771463D01*
X1281704Y772704D01*
X1280463Y773532D01*
X1279000Y773823D01*
D02*
G37*
G36*
X86000Y171823D02*
X84537Y171532D01*
X83296Y170704D01*
X82468Y169463D01*
X82177Y168000D01*
X82468Y166537D01*
X83296Y165296D01*
X84537Y164468D01*
X86000Y164177D01*
X87463Y164468D01*
X88704Y165296D01*
X89532Y166537D01*
X89823Y168000D01*
X89532Y169463D01*
X88704Y170704D01*
X87463Y171532D01*
X86000Y171823D01*
D02*
G37*
G36*
X96000D02*
X94537Y171532D01*
X93296Y170704D01*
X92468Y169463D01*
X92177Y168000D01*
X92468Y166537D01*
X93296Y165296D01*
X94537Y164468D01*
X96000Y164177D01*
X97463Y164468D01*
X98704Y165296D01*
X99532Y166537D01*
X99823Y168000D01*
X99532Y169463D01*
X98704Y170704D01*
X97463Y171532D01*
X96000Y171823D01*
D02*
G37*
G36*
X118500Y168823D02*
X117037Y168532D01*
X115796Y167704D01*
X114968Y166463D01*
X114677Y165000D01*
X114968Y163537D01*
X115796Y162296D01*
X117037Y161468D01*
X118500Y161177D01*
X119963Y161468D01*
X121204Y162296D01*
X122032Y163537D01*
X122323Y165000D01*
X122032Y166463D01*
X121204Y167704D01*
X119963Y168532D01*
X118500Y168823D01*
D02*
G37*
G36*
X121500Y141556D02*
X119803Y141333D01*
X118222Y140678D01*
X116864Y139636D01*
X115822Y138278D01*
X115167Y136697D01*
X114944Y135000D01*
X115167Y133303D01*
X115822Y131722D01*
X116864Y130364D01*
X118222Y129322D01*
X119803Y128667D01*
X121500Y128444D01*
X123197Y128667D01*
X124778Y129322D01*
X126136Y130364D01*
X127178Y131722D01*
X127833Y133303D01*
X128056Y135000D01*
X127833Y136697D01*
X127178Y138278D01*
X126136Y139636D01*
X124778Y140678D01*
X123197Y141333D01*
X121500Y141556D01*
D02*
G37*
G36*
Y159056D02*
X119803Y158833D01*
X118222Y158178D01*
X116864Y157136D01*
X115822Y155778D01*
X115167Y154197D01*
X114944Y152500D01*
X115167Y150803D01*
X115822Y149222D01*
X116864Y147864D01*
X118222Y146822D01*
X119803Y146167D01*
X121500Y145944D01*
X123197Y146167D01*
X124778Y146822D01*
X126136Y147864D01*
X127178Y149222D01*
X127833Y150803D01*
X128056Y152500D01*
X127833Y154197D01*
X127178Y155778D01*
X126136Y157136D01*
X124778Y158178D01*
X123197Y158833D01*
X121500Y159056D01*
D02*
G37*
G36*
X32984Y200823D02*
X31521Y200532D01*
X30280Y199704D01*
X29452Y198463D01*
X29161Y197000D01*
X29452Y195537D01*
X30280Y194296D01*
X31521Y193468D01*
X32984Y193177D01*
X34447Y193468D01*
X35688Y194296D01*
X36516Y195537D01*
X36807Y197000D01*
X36516Y198463D01*
X35688Y199704D01*
X34447Y200532D01*
X32984Y200823D01*
D02*
G37*
G36*
X1244200Y704686D02*
X1241590Y704343D01*
X1239157Y703335D01*
X1237068Y701732D01*
X1235465Y699643D01*
X1234457Y697210D01*
X1234114Y694600D01*
X1234457Y691990D01*
X1235465Y689557D01*
X1237068Y687468D01*
X1239157Y685865D01*
X1241590Y684857D01*
X1244200Y684514D01*
X1246811Y684857D01*
X1249243Y685865D01*
X1251332Y687468D01*
X1252935Y689557D01*
X1253943Y691990D01*
X1254286Y694600D01*
X1253943Y697210D01*
X1252935Y699643D01*
X1251332Y701732D01*
X1249243Y703335D01*
X1246811Y704343D01*
X1244200Y704686D01*
D02*
G37*
G36*
X1269600D02*
X1266990Y704343D01*
X1264557Y703335D01*
X1262468Y701732D01*
X1260865Y699643D01*
X1259857Y697210D01*
X1259514Y694600D01*
X1259857Y691990D01*
X1260865Y689557D01*
X1262468Y687468D01*
X1264557Y685865D01*
X1266990Y684857D01*
X1269600Y684514D01*
X1272210Y684857D01*
X1274643Y685865D01*
X1276732Y687468D01*
X1278335Y689557D01*
X1279343Y691990D01*
X1279686Y694600D01*
X1279343Y697210D01*
X1278335Y699643D01*
X1276732Y701732D01*
X1274643Y703335D01*
X1272210Y704343D01*
X1269600Y704686D01*
D02*
G37*
G36*
X1148000Y689823D02*
X1146537Y689532D01*
X1145296Y688704D01*
X1144468Y687463D01*
X1144177Y686000D01*
X1144468Y684537D01*
X1145296Y683296D01*
X1146537Y682468D01*
X1148000Y682177D01*
X1149463Y682468D01*
X1150704Y683296D01*
X1151532Y684537D01*
X1151823Y686000D01*
X1151532Y687463D01*
X1150704Y688704D01*
X1149463Y689532D01*
X1148000Y689823D01*
D02*
G37*
G36*
X1136000Y663823D02*
X1134537Y663532D01*
X1133296Y662704D01*
X1132468Y661463D01*
X1132177Y660000D01*
X1132468Y658537D01*
X1133296Y657296D01*
X1134537Y656468D01*
X1136000Y656177D01*
X1137463Y656468D01*
X1138704Y657296D01*
X1139532Y658537D01*
X1139823Y660000D01*
X1139532Y661463D01*
X1138704Y662704D01*
X1137463Y663532D01*
X1136000Y663823D01*
D02*
G37*
G36*
X1148000Y677823D02*
X1146537Y677532D01*
X1145296Y676704D01*
X1144468Y675463D01*
X1144177Y674000D01*
X1144468Y672537D01*
X1145296Y671296D01*
X1146537Y670468D01*
X1148000Y670177D01*
X1149463Y670468D01*
X1150704Y671296D01*
X1151532Y672537D01*
X1151823Y674000D01*
X1151532Y675463D01*
X1150704Y676704D01*
X1149463Y677532D01*
X1148000Y677823D01*
D02*
G37*
G36*
X1232000Y822573D02*
X1229781Y822281D01*
X1227713Y821425D01*
X1225938Y820062D01*
X1224575Y818287D01*
X1223719Y816219D01*
X1223427Y814000D01*
X1223719Y811781D01*
X1224575Y809713D01*
X1225938Y807938D01*
X1227713Y806575D01*
X1229781Y805719D01*
X1232000Y805427D01*
X1234219Y805719D01*
X1236287Y806575D01*
X1238062Y807938D01*
X1239425Y809713D01*
X1240281Y811781D01*
X1240573Y814000D01*
X1240281Y816219D01*
X1239425Y818287D01*
X1238062Y820062D01*
X1236287Y821425D01*
X1234219Y822281D01*
X1232000Y822573D01*
D02*
G37*
G36*
X1135000Y976556D02*
X1133303Y976333D01*
X1131722Y975678D01*
X1130364Y974636D01*
X1129322Y973278D01*
X1128667Y971697D01*
X1128444Y970000D01*
X1128667Y968303D01*
X1129322Y966722D01*
X1130364Y965364D01*
X1131722Y964322D01*
X1133303Y963667D01*
X1135000Y963444D01*
X1136697Y963667D01*
X1138278Y964322D01*
X1139636Y965364D01*
X1140678Y966722D01*
X1141333Y968303D01*
X1141556Y970000D01*
X1141333Y971697D01*
X1140678Y973278D01*
X1139636Y974636D01*
X1138278Y975678D01*
X1136697Y976333D01*
X1135000Y976556D01*
D02*
G37*
G36*
X1151000D02*
X1149303Y976333D01*
X1147722Y975678D01*
X1146364Y974636D01*
X1145322Y973278D01*
X1144667Y971697D01*
X1144444Y970000D01*
X1144667Y968303D01*
X1145322Y966722D01*
X1146364Y965364D01*
X1147722Y964322D01*
X1149303Y963667D01*
X1151000Y963444D01*
X1152697Y963667D01*
X1154278Y964322D01*
X1155636Y965364D01*
X1156678Y966722D01*
X1157333Y968303D01*
X1157556Y970000D01*
X1157333Y971697D01*
X1156678Y973278D01*
X1155636Y974636D01*
X1154278Y975678D01*
X1152697Y976333D01*
X1151000Y976556D01*
D02*
G37*
G36*
X860000Y965823D02*
X858537Y965532D01*
X857296Y964704D01*
X856468Y963463D01*
X856177Y962000D01*
X856468Y960537D01*
X857296Y959296D01*
X858537Y958468D01*
X860000Y958177D01*
X861463Y958468D01*
X862704Y959296D01*
X863532Y960537D01*
X863823Y962000D01*
X863532Y963463D01*
X862704Y964704D01*
X861463Y965532D01*
X860000Y965823D01*
D02*
G37*
G36*
X768000Y951824D02*
X766537Y951532D01*
X765296Y950704D01*
X764468Y949463D01*
X764177Y948000D01*
X764468Y946537D01*
X765296Y945296D01*
X766537Y944468D01*
X768000Y944177D01*
X769463Y944468D01*
X770704Y945296D01*
X771532Y946537D01*
X771823Y948000D01*
X771532Y949463D01*
X770704Y950704D01*
X769463Y951532D01*
X768000Y951824D01*
D02*
G37*
G36*
X1153000Y960556D02*
X1151303Y960333D01*
X1149722Y959678D01*
X1148364Y958636D01*
X1147322Y957278D01*
X1146667Y955697D01*
X1146444Y954000D01*
X1146667Y952303D01*
X1147322Y950722D01*
X1148364Y949364D01*
X1149722Y948322D01*
X1151303Y947667D01*
X1153000Y947444D01*
X1154697Y947667D01*
X1156278Y948322D01*
X1157636Y949364D01*
X1158678Y950722D01*
X1159333Y952303D01*
X1159556Y954000D01*
X1159333Y955697D01*
X1158678Y957278D01*
X1157636Y958636D01*
X1156278Y959678D01*
X1154697Y960333D01*
X1153000Y960556D01*
D02*
G37*
G36*
X753000Y972823D02*
X751537Y972532D01*
X750296Y971703D01*
X749468Y970463D01*
X749177Y969000D01*
X749468Y967537D01*
X750296Y966296D01*
X751537Y965468D01*
X753000Y965176D01*
X754463Y965468D01*
X755704Y966296D01*
X756532Y967537D01*
X756824Y969000D01*
X756532Y970463D01*
X755704Y971703D01*
X754463Y972532D01*
X753000Y972823D01*
D02*
G37*
G36*
X833000Y978823D02*
X831537Y978532D01*
X830296Y977704D01*
X829468Y976463D01*
X829177Y975000D01*
X829468Y973537D01*
X830296Y972296D01*
X831537Y971468D01*
X833000Y971177D01*
X834463Y971468D01*
X835704Y972296D01*
X836532Y973537D01*
X836823Y975000D01*
X836532Y976463D01*
X835704Y977704D01*
X834463Y978532D01*
X833000Y978823D01*
D02*
G37*
G36*
X823000D02*
X821537Y978532D01*
X820296Y977704D01*
X819468Y976463D01*
X819236Y975299D01*
X818404Y974743D01*
X818000Y974824D01*
X817596Y974743D01*
X816764Y975299D01*
X816533Y976463D01*
X815704Y977704D01*
X814463Y978532D01*
X813000Y978823D01*
X811537Y978532D01*
X810296Y977704D01*
X809468Y976463D01*
X809177Y975000D01*
X809468Y973537D01*
X810296Y972296D01*
X811537Y971468D01*
X813000Y971177D01*
X813404Y971257D01*
X814236Y970701D01*
X814468Y969537D01*
X815296Y968296D01*
X816537Y967468D01*
X818000Y967177D01*
X819463Y967468D01*
X820704Y968296D01*
X821532Y969537D01*
X821764Y970701D01*
X822596Y971257D01*
X823000Y971177D01*
X824463Y971468D01*
X825704Y972296D01*
X826532Y973537D01*
X826824Y975000D01*
X826532Y976463D01*
X825704Y977704D01*
X824463Y978532D01*
X823000Y978823D01*
D02*
G37*
G36*
X913000Y974823D02*
X911537Y974532D01*
X910296Y973704D01*
X909468Y972463D01*
X909177Y971000D01*
X909468Y969537D01*
X910296Y968296D01*
X911537Y967468D01*
X913000Y967177D01*
X914463Y967468D01*
X915704Y968296D01*
X916532Y969537D01*
X916823Y971000D01*
X916532Y972463D01*
X915704Y973704D01*
X914463Y974532D01*
X913000Y974823D01*
D02*
G37*
G36*
X783000Y972823D02*
X781537Y972532D01*
X780296Y971703D01*
X779468Y970463D01*
X779176Y969000D01*
X779468Y967537D01*
X780296Y966296D01*
X781537Y965468D01*
X783000Y965176D01*
X784463Y965468D01*
X785704Y966296D01*
X786532Y967537D01*
X786823Y969000D01*
X786532Y970463D01*
X785704Y971703D01*
X784463Y972532D01*
X783000Y972823D01*
D02*
G37*
G36*
X904000Y974823D02*
X902537Y974532D01*
X901296Y973704D01*
X900468Y972463D01*
X900177Y971000D01*
X900468Y969537D01*
X901296Y968296D01*
X902537Y967468D01*
X904000Y967177D01*
X905463Y967468D01*
X906704Y968296D01*
X907532Y969537D01*
X907823Y971000D01*
X907532Y972463D01*
X906704Y973704D01*
X905463Y974532D01*
X904000Y974823D01*
D02*
G37*
G36*
X743000Y951824D02*
X741537Y951532D01*
X740296Y950704D01*
X739468Y949463D01*
X739177Y948000D01*
X739468Y946537D01*
X740296Y945296D01*
X741537Y944468D01*
X743000Y944177D01*
X744463Y944468D01*
X745704Y945296D01*
X746533Y946537D01*
X746824Y948000D01*
X746533Y949463D01*
X745704Y950704D01*
X744463Y951532D01*
X743000Y951824D01*
D02*
G37*
G36*
X1210000Y856823D02*
X1208537Y856532D01*
X1207296Y855704D01*
X1206468Y854463D01*
X1206177Y853000D01*
X1206468Y851537D01*
X1207296Y850296D01*
X1208537Y849468D01*
X1210000Y849177D01*
X1211463Y849468D01*
X1212704Y850296D01*
X1213532Y851537D01*
X1213823Y853000D01*
X1213532Y854463D01*
X1212704Y855704D01*
X1211463Y856532D01*
X1210000Y856823D01*
D02*
G37*
G36*
X1252000Y868823D02*
X1250537Y868532D01*
X1249296Y867704D01*
X1248468Y866463D01*
X1248176Y865000D01*
X1248468Y863537D01*
X1249296Y862296D01*
X1250537Y861468D01*
X1252000Y861177D01*
X1253463Y861468D01*
X1254704Y862296D01*
X1255532Y863537D01*
X1255823Y865000D01*
X1255532Y866463D01*
X1254704Y867704D01*
X1253463Y868532D01*
X1252000Y868823D01*
D02*
G37*
G36*
X1217000Y850823D02*
X1215537Y850532D01*
X1214296Y849704D01*
X1213468Y848463D01*
X1213177Y847000D01*
X1213468Y845537D01*
X1214296Y844296D01*
X1215537Y843468D01*
X1217000Y843177D01*
X1218463Y843468D01*
X1219704Y844296D01*
X1220532Y845537D01*
X1220823Y847000D01*
X1220532Y848463D01*
X1219704Y849704D01*
X1218463Y850532D01*
X1217000Y850823D01*
D02*
G37*
G36*
X1240500Y842500D02*
X1223500D01*
Y825500D01*
X1240500D01*
Y842500D01*
D02*
G37*
G36*
X1300000Y872994D02*
X1296177Y872618D01*
X1292502Y871503D01*
X1289114Y869692D01*
X1286145Y867255D01*
X1283708Y864286D01*
X1281897Y860898D01*
X1280782Y857223D01*
X1280406Y853400D01*
X1280782Y849577D01*
X1281897Y845902D01*
X1283708Y842514D01*
X1286145Y839545D01*
X1289114Y837108D01*
X1292502Y835297D01*
X1296177Y834182D01*
X1300000Y833806D01*
X1303823Y834182D01*
X1307498Y835297D01*
X1310886Y837108D01*
X1313855Y839545D01*
X1316292Y842514D01*
X1318103Y845902D01*
X1319218Y849577D01*
X1319594Y853400D01*
X1319218Y857223D01*
X1318103Y860898D01*
X1316292Y864286D01*
X1313855Y867255D01*
X1310886Y869692D01*
X1307498Y871503D01*
X1303823Y872618D01*
X1300000Y872994D01*
D02*
G37*
G36*
X1189000Y885823D02*
X1187537Y885532D01*
X1186296Y884704D01*
X1185468Y883463D01*
X1185177Y882000D01*
X1185468Y880537D01*
X1186296Y879296D01*
X1187537Y878468D01*
X1189000Y878177D01*
X1190463Y878468D01*
X1191704Y879296D01*
X1192532Y880537D01*
X1192823Y882000D01*
X1192532Y883463D01*
X1191704Y884704D01*
X1190463Y885532D01*
X1189000Y885823D01*
D02*
G37*
G36*
X1122000Y936556D02*
X1120303Y936333D01*
X1118722Y935678D01*
X1117364Y934636D01*
X1116322Y933278D01*
X1115667Y931697D01*
X1115444Y930000D01*
X1115667Y928303D01*
X1116322Y926722D01*
X1117364Y925364D01*
X1118722Y924322D01*
X1120303Y923667D01*
X1122000Y923444D01*
X1123697Y923667D01*
X1125278Y924322D01*
X1126636Y925364D01*
X1127678Y926722D01*
X1128333Y928303D01*
X1128556Y930000D01*
X1128333Y931697D01*
X1127678Y933278D01*
X1126636Y934636D01*
X1125278Y935678D01*
X1123697Y936333D01*
X1122000Y936556D01*
D02*
G37*
G36*
X1077000Y933823D02*
X1075537Y933532D01*
X1074296Y932704D01*
X1073468Y931463D01*
X1073177Y930000D01*
X1073468Y928537D01*
X1074296Y927296D01*
X1075537Y926468D01*
X1077000Y926177D01*
X1078463Y926468D01*
X1079704Y927296D01*
X1080532Y928537D01*
X1080823Y930000D01*
X1080532Y931463D01*
X1079704Y932704D01*
X1078463Y933532D01*
X1077000Y933823D01*
D02*
G37*
G36*
X753000Y915823D02*
X751537Y915532D01*
X750296Y914704D01*
X749468Y913463D01*
X749177Y912000D01*
X749468Y910537D01*
X750296Y909296D01*
X751537Y908468D01*
X753000Y908176D01*
X754463Y908468D01*
X755704Y909296D01*
X756532Y910537D01*
X756824Y912000D01*
X756532Y913463D01*
X755704Y914704D01*
X754463Y915532D01*
X753000Y915823D01*
D02*
G37*
G36*
X1201000Y885823D02*
X1199537Y885532D01*
X1198296Y884704D01*
X1197468Y883463D01*
X1197177Y882000D01*
X1197468Y880537D01*
X1198296Y879296D01*
X1199537Y878468D01*
X1201000Y878177D01*
X1202463Y878468D01*
X1203704Y879296D01*
X1204532Y880537D01*
X1204823Y882000D01*
X1204532Y883463D01*
X1203704Y884704D01*
X1202463Y885532D01*
X1201000Y885823D01*
D02*
G37*
G36*
X1300000Y923794D02*
X1296177Y923418D01*
X1292502Y922303D01*
X1289114Y920492D01*
X1286145Y918055D01*
X1283708Y915086D01*
X1281897Y911698D01*
X1280782Y908023D01*
X1280406Y904200D01*
X1280782Y900377D01*
X1281897Y896702D01*
X1283708Y893314D01*
X1286145Y890345D01*
X1289114Y887908D01*
X1292502Y886097D01*
X1296177Y884982D01*
X1300000Y884606D01*
X1303823Y884982D01*
X1307498Y886097D01*
X1310886Y887908D01*
X1313855Y890345D01*
X1316292Y893314D01*
X1318103Y896702D01*
X1319218Y900377D01*
X1319594Y904200D01*
X1319218Y908023D01*
X1318103Y911698D01*
X1316292Y915086D01*
X1313855Y918055D01*
X1310886Y920492D01*
X1307498Y922303D01*
X1303823Y923418D01*
X1300000Y923794D01*
D02*
G37*
%LPD*%
D77*
X1149000Y263000D02*
Y286000D01*
X1162000Y299000D01*
X1180000D01*
X1181000Y324000D02*
X1211000Y294000D01*
X1174425Y324000D02*
X1181000D01*
X1240750Y375250D02*
X1250000Y366000D01*
X966000Y289000D02*
X970000Y285000D01*
X949000Y289000D02*
X966000D01*
X993000Y285000D02*
X1008000Y270000D01*
X970000Y285000D02*
X993000D01*
X1008000Y270000D02*
X1039575D01*
X957000Y300000D02*
X992000D01*
X1010000Y282000D01*
X1245000Y237000D02*
X1264500Y256500D01*
Y294500D01*
X1245000Y218636D02*
Y237000D01*
X1236000Y240000D02*
X1254000Y258000D01*
X1236000Y221000D02*
Y240000D01*
X1157750Y342750D02*
X1165000Y350000D01*
X1132250Y342750D02*
X1157750D01*
X1165000Y350000D02*
X1225000D01*
X1127000Y348000D02*
X1132250Y342750D01*
X1073000Y398000D02*
X1118000D01*
X1138000Y364000D02*
X1218000D01*
X1222000Y360000D01*
X1202000Y228000D02*
X1212000Y218000D01*
X1222000D01*
X1202000Y228000D02*
Y290000D01*
X1177000Y315000D02*
X1202000Y290000D01*
X1167000Y291000D02*
X1180000D01*
X1160000Y284000D02*
X1167000Y291000D01*
X1160000Y256000D02*
Y284000D01*
X1130000Y226000D02*
X1160000Y256000D01*
X1083575Y226000D02*
X1130000D01*
X1039575Y270000D02*
X1083575Y226000D01*
X949000Y308000D02*
Y315000D01*
Y308000D02*
X957000Y300000D01*
X1225250Y264250D02*
Y312750D01*
X1218500Y257500D02*
X1225250Y264250D01*
X1218500Y248500D02*
Y257500D01*
X1115175Y370250D02*
X1121425Y364000D01*
Y339575D02*
Y364000D01*
X1108000Y360000D02*
X1113000Y365000D01*
X1102250Y370250D02*
X1115175D01*
X1085000Y353000D02*
X1102250Y370250D01*
X1085000Y348000D02*
Y353000D01*
X1122000Y380000D02*
X1138000Y364000D01*
X1100000Y380000D02*
X1122000D01*
X1092500Y372500D02*
X1100000Y380000D01*
X898000Y275000D02*
X920000D01*
X934000Y261000D01*
X1228500Y248500D02*
X1236750Y256750D01*
Y338250D01*
X1225000Y350000D02*
X1236750Y338250D01*
X1215000Y323000D02*
Y344000D01*
Y323000D02*
X1225250Y312750D01*
X1125000Y239000D02*
X1149000Y263000D01*
X1010000Y282000D02*
X1049000D01*
X1092000Y239000D01*
X1125000D01*
X1046000Y388000D02*
X1063000D01*
X1073000Y398000D01*
X1060000Y204000D02*
X1219000D01*
X1236000Y221000D01*
X1059250Y190750D02*
X1217114D01*
X996000Y254000D02*
X1059250Y190750D01*
X1217114D02*
X1245000Y218636D01*
X1118000Y398000D02*
X1140750Y375250D01*
X1240750D01*
X934000Y261000D02*
X957000D01*
X964000Y254000D01*
X996000D01*
X947000Y280000D02*
X959000Y268000D01*
X996000D01*
X1060000Y204000D01*
X1121425Y339575D02*
X1132000Y329000D01*
X1169425D01*
X1174425Y324000D01*
X1108000Y336000D02*
Y360000D01*
Y336000D02*
X1129000Y315000D01*
X1177000D01*
X1254000Y258000D02*
Y293500D01*
X1264500Y304000D01*
X1211000Y257000D02*
Y294000D01*
D79*
X1209000Y248500D02*
X1211000Y250500D01*
Y257000D01*
D82*
X1192040Y789000D02*
X1195790Y785250D01*
X1142000Y789000D02*
X1192040D01*
X1128000Y775000D02*
X1142000Y789000D01*
X1128000Y767040D02*
Y775000D01*
X1119650Y758690D02*
X1128000Y767040D01*
X1119650Y746100D02*
Y758690D01*
X1147750Y814750D02*
X1167750D01*
X1130000Y797000D02*
X1147750Y814750D01*
X1117000Y797000D02*
X1130000D01*
X1198500Y808500D02*
Y836500D01*
X1182000Y853000D02*
X1198500Y836500D01*
X1151000Y853000D02*
X1182000D01*
X1158000Y735000D02*
Y747000D01*
X1131000Y708000D02*
X1158000Y735000D01*
X1119650Y708000D02*
X1131000D01*
X1173500Y762500D02*
X1177500D01*
X1158000Y747000D02*
X1173500Y762500D01*
X1195790Y785250D02*
X1199000D01*
X1167750Y814750D02*
X1178500Y825500D01*
X1144000Y846000D02*
X1151000Y853000D01*
X1104000Y846000D02*
X1144000D01*
X1098000Y840000D02*
X1104000Y846000D01*
X1112050Y801950D02*
X1117000Y797000D01*
X1098000Y801950D02*
X1112050D01*
X1161750Y390750D02*
Y406250D01*
X1152750Y415250D02*
X1161750Y406250D01*
X1154000Y383000D02*
X1161750Y390750D01*
X1148000Y383000D02*
X1154000D01*
X1147000Y415250D02*
X1152750D01*
D84*
X1142000Y760000D02*
X1156000Y774000D01*
X1142000Y748000D02*
Y760000D01*
X1128750Y734750D02*
X1142000Y748000D01*
X1095891Y754000D02*
X1115141Y734750D01*
X1186000Y759000D02*
Y768000D01*
X1180000Y774000D02*
X1186000Y768000D01*
X1156000Y774000D02*
X1180000D01*
X1115141Y734750D02*
X1128750D01*
X1051000Y754000D02*
X1095891D01*
X1043000Y762000D02*
X1051000Y754000D01*
X1187000Y827000D02*
Y830000D01*
X1182000Y835000D02*
X1187000Y830000D01*
X1163000Y835000D02*
X1182000D01*
X1076000Y834000D02*
X1088650Y821350D01*
X1127350D01*
X1156750Y828750D02*
X1163000Y835000D01*
X1134750Y828750D02*
X1156750D01*
X1127350Y821350D02*
X1134750Y828750D01*
X1043000Y834000D02*
X1076000D01*
D89*
X653000Y60000D02*
D03*
X729200Y34600D02*
D03*
X703800D02*
D03*
X678400D02*
D03*
X653000D02*
D03*
X627600D02*
D03*
X753600Y155400D02*
D03*
X728200D02*
D03*
X1315400Y494200D02*
D03*
Y519600D02*
D03*
X1290000Y494200D02*
D03*
Y519600D02*
D03*
D90*
X955500Y618800D02*
D03*
Y217200D02*
D03*
D96*
X47500Y936500D02*
D03*
Y876500D02*
D03*
Y816500D02*
D03*
X27500Y926500D02*
D03*
Y826500D02*
D03*
X92500Y806500D02*
D03*
Y826500D02*
D03*
X72500Y796500D02*
D03*
Y836500D02*
D03*
D98*
X1175000Y686200D02*
D03*
D99*
X140000Y144600D02*
D03*
D100*
X160000Y692000D02*
D03*
Y729000D02*
D03*
Y655000D02*
D03*
D111*
X1300000Y955000D02*
D03*
D116*
X984300Y974300D02*
D03*
X961400D02*
D03*
X1075700D02*
D03*
X1098600D02*
D03*
D124*
X414600Y150000D02*
D03*
X389200D02*
D03*
X363800D02*
D03*
X338400D02*
D03*
X287600D02*
D03*
D125*
X826700Y597500D02*
D03*
X170000Y75000D02*
D03*
X726000Y860000D02*
D03*
X886000Y962000D02*
D03*
X776000Y681500D02*
D03*
X762442Y841442D02*
D03*
X768942D02*
D03*
X776000Y675000D02*
D03*
X827500Y668000D02*
D03*
X786500Y832000D02*
D03*
X827500Y662000D02*
D03*
X793000Y832000D02*
D03*
X889300Y668000D02*
D03*
X735000Y860000D02*
D03*
X889300Y662000D02*
D03*
X735000Y853500D02*
D03*
X900000Y651500D02*
D03*
X756250Y887000D02*
D03*
X900000Y658000D02*
D03*
X749750Y887000D02*
D03*
X481000Y683000D02*
D03*
Y676500D02*
D03*
X479000Y644000D02*
D03*
X378500Y530000D02*
D03*
X148000Y231000D02*
D03*
X385000Y530000D02*
D03*
X148000Y224500D02*
D03*
X392000Y544500D02*
D03*
X154000Y202000D02*
D03*
X392000Y538000D02*
D03*
X154000Y208500D02*
D03*
X124000Y305500D02*
D03*
Y312000D02*
D03*
X354904Y568096D02*
D03*
X136000Y447000D02*
D03*
X359500Y563500D02*
D03*
X142500Y447000D02*
D03*
X385000Y554000D02*
D03*
X126000Y268000D02*
D03*
X378500Y554000D02*
D03*
X126000Y274500D02*
D03*
X352000Y582500D02*
D03*
Y589000D02*
D03*
X879000Y438000D02*
D03*
X889000Y446000D02*
D03*
X705000Y499000D02*
D03*
X695000Y491000D02*
D03*
X390000Y350000D02*
D03*
X805500Y622500D02*
D03*
X613000Y190000D02*
D03*
X1228500Y248500D02*
D03*
X1148000Y383000D02*
D03*
X1127000Y348000D02*
D03*
X1085000D02*
D03*
X947000Y280000D02*
D03*
X480000Y132000D02*
D03*
X490000Y484000D02*
D03*
X907000Y899000D02*
D03*
X808000Y283000D02*
D03*
X691000Y254500D02*
D03*
X675000Y254500D02*
D03*
X683000Y244500D02*
D03*
X675000Y244500D02*
D03*
X518000Y123000D02*
D03*
X508000D02*
D03*
X498000D02*
D03*
X316000Y949000D02*
D03*
X316000Y961000D02*
D03*
X311000Y955000D02*
D03*
X243500Y963000D02*
D03*
X248500Y958750D02*
D03*
X238500D02*
D03*
X233500Y963000D02*
D03*
X311000Y943000D02*
D03*
X540000Y123000D02*
D03*
X612000Y381000D02*
D03*
X54000Y154000D02*
D03*
X350000Y336000D02*
D03*
X684000Y1004000D02*
D03*
X479000Y722000D02*
D03*
X570000Y231000D02*
D03*
X400000Y847000D02*
D03*
X410000Y847000D02*
D03*
X247000Y701000D02*
D03*
X486500Y652500D02*
D03*
X674000Y1004000D02*
D03*
X229000Y715000D02*
D03*
X803000Y598000D02*
D03*
X806000Y382000D02*
D03*
X342000Y366000D02*
D03*
X793000Y252000D02*
D03*
X788000Y306000D02*
D03*
X795000Y591000D02*
D03*
X458500Y757500D02*
D03*
X1007000Y576000D02*
D03*
X1004000Y583000D02*
D03*
X557300Y642500D02*
D03*
X786000Y693000D02*
D03*
X767000Y723000D02*
D03*
X808000Y912000D02*
D03*
X813000Y924000D02*
D03*
X818000Y918000D02*
D03*
X823000Y912000D02*
D03*
X922000Y636000D02*
D03*
X928000Y644000D02*
D03*
X1081000Y526250D02*
D03*
Y532750D02*
D03*
X838000Y246000D02*
D03*
X848000Y253000D02*
D03*
X831000Y228000D02*
D03*
X821000Y253000D02*
D03*
X693000Y625000D02*
D03*
X714000Y599000D02*
D03*
X708000Y606000D02*
D03*
X697000Y611000D02*
D03*
X879000Y446000D02*
D03*
X359500Y871500D02*
D03*
X385500Y896500D02*
D03*
Y906500D02*
D03*
Y916500D02*
D03*
X366500Y876500D02*
D03*
X379500Y901500D02*
D03*
Y911500D02*
D03*
Y921500D02*
D03*
X800000Y579000D02*
D03*
X772000Y629000D02*
D03*
X866200Y622500D02*
D03*
X893000Y616000D02*
D03*
X495000Y181000D02*
D03*
X860300Y627500D02*
D03*
X516000Y173000D02*
D03*
X505000Y181000D02*
D03*
X582000Y153000D02*
D03*
Y143000D02*
D03*
X543000Y204000D02*
D03*
X783000Y629000D02*
D03*
X563300Y637500D02*
D03*
X527700Y672500D02*
D03*
X533700Y667500D02*
D03*
X551300Y617500D02*
D03*
X495500Y612500D02*
D03*
X489000Y617500D02*
D03*
X501500Y607500D02*
D03*
X557300Y612500D02*
D03*
X493000Y657500D02*
D03*
X501500Y657500D02*
D03*
X652000Y366000D02*
D03*
X660000Y366000D02*
D03*
X709000Y848000D02*
D03*
X1199000Y786000D02*
D03*
X1178500Y762500D02*
D03*
X1198500Y808500D02*
D03*
X1178500Y825500D02*
D03*
X1098000Y840000D02*
D03*
X1119650Y708000D02*
D03*
X1098000Y801950D02*
D03*
X551300Y627500D02*
D03*
X557300Y622500D02*
D03*
X501500Y617500D02*
D03*
X528700Y622500D02*
D03*
X424000Y411000D02*
D03*
X414000D02*
D03*
X502000Y392000D02*
D03*
X442000Y418000D02*
D03*
X464000Y457000D02*
D03*
X453000Y436000D02*
D03*
X1187000Y827000D02*
D03*
X1186000Y759000D02*
D03*
X1043000Y762000D02*
D03*
Y834000D02*
D03*
X1190000Y524000D02*
D03*
X1198000Y530000D02*
D03*
X1147000Y415000D02*
D03*
X1264500Y304000D02*
D03*
X1264500Y294500D02*
D03*
X1113000Y365000D02*
D03*
X1092500Y372500D02*
D03*
X1222000Y360000D02*
D03*
X1215000Y344000D02*
D03*
X1218500Y248500D02*
D03*
X1209000Y248500D02*
D03*
X1222000Y218000D02*
D03*
X1180000Y299000D02*
D03*
X1180000Y291000D02*
D03*
X1046000Y388000D02*
D03*
X1250000Y366000D02*
D03*
X879000Y423000D02*
D03*
X885000Y416000D02*
D03*
X885000Y399000D02*
D03*
X879000Y407000D02*
D03*
X898000Y275000D02*
D03*
X949000Y315000D02*
D03*
Y289000D02*
D03*
X998000Y420000D02*
D03*
Y432000D02*
D03*
X1036000Y486000D02*
D03*
X1042000Y477000D02*
D03*
X1030000Y470000D02*
D03*
X1050000Y449000D02*
D03*
X966000Y466000D02*
D03*
X976000Y466000D02*
D03*
X988000Y466000D02*
D03*
X1021000Y455000D02*
D03*
X526000Y305000D02*
D03*
X555000Y331000D02*
D03*
X1013000Y521000D02*
D03*
X354500Y941500D02*
D03*
X340000Y960000D02*
D03*
X359500Y946500D02*
D03*
X365500Y941500D02*
D03*
X346500Y993750D02*
D03*
X351500Y998000D02*
D03*
X341500D02*
D03*
X336500Y993750D02*
D03*
X172000Y202000D02*
D03*
X262000Y366000D02*
D03*
X254000D02*
D03*
X246000D02*
D03*
X218000Y398000D02*
D03*
X262000Y376000D02*
D03*
X299000Y217000D02*
D03*
X471000Y1040000D02*
D03*
X956000Y464000D02*
D03*
X1031000Y499000D02*
D03*
X738000Y355000D02*
D03*
X561000Y222000D02*
D03*
X491000Y55000D02*
D03*
X831000Y486000D02*
D03*
X814000Y241000D02*
D03*
X538000Y454000D02*
D03*
X489000Y387000D02*
D03*
X135000Y637000D02*
D03*
X867300Y687500D02*
D03*
X704000Y677000D02*
D03*
X670000D02*
D03*
X697000Y655000D02*
D03*
X688000Y659000D02*
D03*
X732000Y702000D02*
D03*
X726000Y697000D02*
D03*
X738000Y687000D02*
D03*
X719000D02*
D03*
X724000Y677000D02*
D03*
X728000Y657000D02*
D03*
X724000Y667000D02*
D03*
X714000Y677000D02*
D03*
X1056000Y635000D02*
D03*
X676000Y672000D02*
D03*
X218000Y704000D02*
D03*
X477000Y821000D02*
D03*
X261000Y796500D02*
D03*
Y803500D02*
D03*
X354000Y739000D02*
D03*
X395000Y628000D02*
D03*
X306000Y283000D02*
D03*
X389000Y628000D02*
D03*
X298000Y283000D02*
D03*
X389000Y664000D02*
D03*
X395000D02*
D03*
X443000Y671000D02*
D03*
Y677000D02*
D03*
X418000Y283000D02*
D03*
X459250Y628000D02*
D03*
X410000Y283000D02*
D03*
X452750Y628000D02*
D03*
X330000Y283000D02*
D03*
X421000Y628000D02*
D03*
X338000Y283000D02*
D03*
X427000Y628000D02*
D03*
X234000Y85000D02*
D03*
X479000Y437000D02*
D03*
X627750Y468000D02*
D03*
X551500Y692000D02*
D03*
X634250Y468000D02*
D03*
X551500Y698000D02*
D03*
X627750Y438000D02*
D03*
X523500Y692000D02*
D03*
X634250Y438000D02*
D03*
X523500Y698000D02*
D03*
X795500Y622500D02*
D03*
X838000Y467000D02*
D03*
X826000Y462000D02*
D03*
X536000Y794000D02*
D03*
X666500Y777000D02*
D03*
X536000Y800000D02*
D03*
X672500Y777000D02*
D03*
X122000Y740000D02*
D03*
Y746000D02*
D03*
X490000Y794000D02*
D03*
X490000Y800000D02*
D03*
X289250Y815000D02*
D03*
X283250D02*
D03*
X612000Y715000D02*
D03*
X629000Y403000D02*
D03*
X612000Y721000D02*
D03*
X635000Y403000D02*
D03*
X1119650Y746100D02*
D03*
D126*
X1127000Y613000D02*
D03*
X40000Y206000D02*
D03*
X1262000Y935000D02*
D03*
Y903000D02*
D03*
Y919000D02*
D03*
X40000Y222000D02*
D03*
D163*
X340754Y554000D02*
X354877Y568123D01*
X366500Y876500D02*
X414000D01*
X364500Y941500D02*
X365000Y942000D01*
X365500Y941500D02*
X371000Y947000D01*
X834500Y597500D02*
X842000Y590000D01*
X826700Y597500D02*
X834500D01*
X229000Y305000D02*
Y323000D01*
X224000Y279929D02*
X264000Y239929D01*
X224000Y300000D02*
X229000Y305000D01*
X224000Y279929D02*
Y300000D01*
X823000Y912000D02*
X831000Y920000D01*
X818000Y917000D02*
X818500Y917500D01*
X819000Y918000D02*
X833000Y932000D01*
X818000Y918000D02*
X819000D01*
X829000Y940000D02*
X877000D01*
X813000Y924000D02*
X829000Y940000D01*
X1022000Y723071D02*
X1069000Y676071D01*
X1250300Y509000D02*
X1260900Y519600D01*
X1290000D01*
X1118000Y509000D02*
X1250300D01*
X972000Y582000D02*
X993000D01*
X959000Y569000D02*
X972000Y582000D01*
X935000Y569000D02*
X959000D01*
X993000Y582000D02*
X1009536Y565465D01*
X1121000Y488000D02*
X1136000Y473000D01*
X912000Y604071D02*
Y624000D01*
X900000Y636000D02*
X912000Y624000D01*
X881000Y636000D02*
X900000D01*
X919000Y608000D02*
Y630000D01*
X906000Y643000D02*
X919000Y630000D01*
X884000Y643000D02*
X906000D01*
X923000Y581000D02*
Y604000D01*
Y581000D02*
X935000Y569000D01*
X930000Y563000D02*
X1003657D01*
X915000Y578000D02*
X930000Y563000D01*
X414000Y876500D02*
X431500Y859000D01*
X461000D01*
X490500Y829500D01*
X433000Y844000D02*
X441000D01*
X407500Y869500D02*
X433000Y844000D01*
X361500Y869500D02*
X407500D01*
X441000Y844000D02*
X444000Y847000D01*
X458000Y850000D02*
X486000Y822000D01*
X446929Y850000D02*
X458000D01*
X444000Y847000D02*
Y847071D01*
X446929Y850000D01*
X446598Y906500D02*
X501098Y852000D01*
X483000Y896000D02*
X497000Y910000D01*
X470000Y896000D02*
X483000D01*
X452250Y913750D02*
X470000Y896000D01*
X497000Y910000D02*
X578000D01*
X590000Y898000D01*
X610000Y918000D02*
X717000Y811000D01*
X462000Y918000D02*
X610000D01*
X457000Y923000D02*
X462000Y918000D01*
X616000Y925000D02*
X661000Y880000D01*
X475068Y925000D02*
X616000D01*
X468068Y932000D02*
X475068Y925000D01*
X399000Y896000D02*
X446000D01*
X393500Y901500D02*
X399000Y896000D01*
X446000D02*
X497500Y844500D01*
X379500Y901500D02*
X393500D01*
X390000Y932000D02*
X468068D01*
X379500Y921500D02*
X390000Y932000D01*
X589000Y837500D02*
X597500Y846000D01*
X606500Y837500D02*
X636500D01*
X390000Y884000D02*
X447000D01*
X385500Y888500D02*
X390000Y884000D01*
X385500Y888500D02*
Y896500D01*
X602000Y865000D02*
X636000D01*
X588000Y879000D02*
X602000Y865000D01*
X576929Y879000D02*
X588000D01*
X600000Y879000D02*
X631000D01*
X591000Y888000D02*
X600000Y879000D01*
X575000Y888000D02*
X591000D01*
X636000Y865000D02*
X699000Y802000D01*
X788000Y308000D02*
Y328000D01*
X791000Y331000D01*
Y371000D01*
X795000Y325000D02*
X801000Y331000D01*
X795000Y297000D02*
Y325000D01*
X802000Y292000D02*
Y323000D01*
X820000Y341000D02*
Y376000D01*
X802000Y323000D02*
X820000Y341000D01*
X786000Y288000D02*
X795000Y297000D01*
X777000Y354000D02*
X785000Y362000D01*
X777000Y292071D02*
Y354000D01*
X771000Y286071D02*
X777000Y292071D01*
X769000Y371000D02*
X787000Y389000D01*
X769000Y295000D02*
Y371000D01*
X761000Y287000D02*
X769000Y295000D01*
X762000Y374000D02*
X781000Y393000D01*
X762000Y298000D02*
Y374000D01*
X754000Y290000D02*
X762000Y298000D01*
X791000Y371000D02*
X801000Y381000D01*
X817000Y489000D02*
X839929Y511929D01*
X817000Y473000D02*
Y489000D01*
X805000Y461000D02*
X817000Y473000D01*
X801000Y384071D02*
X805000Y388071D01*
Y461000D01*
X801000Y381000D02*
Y384071D01*
X813000Y460000D02*
X823000Y470000D01*
X813000Y383000D02*
Y460000D01*
Y383000D02*
X820000Y376000D01*
Y456000D02*
X826000Y462000D01*
X820000Y386000D02*
Y456000D01*
Y386000D02*
X828000Y378000D01*
X827000Y452000D02*
X831000Y456000D01*
X827000Y389000D02*
Y452000D01*
Y389000D02*
X835000Y381000D01*
X834000Y448000D02*
X838000Y452000D01*
X834000Y392000D02*
Y448000D01*
Y392000D02*
X842000Y384000D01*
X946500Y758500D02*
X973000Y732000D01*
Y689000D02*
Y732000D01*
X581000Y407000D02*
Y485000D01*
X571000Y495000D02*
X581000Y485000D01*
X571000Y495000D02*
Y580500D01*
X442000Y230000D02*
X449000Y237000D01*
X442000Y177400D02*
Y230000D01*
X414600Y150000D02*
X442000Y177400D01*
X494000Y297000D02*
X503000Y306000D01*
X455929Y259000D02*
X462000D01*
X494000Y291000D02*
Y297000D01*
X462000Y259000D02*
X494000Y291000D01*
X449000Y252071D02*
X455929Y259000D01*
X512929Y327000D02*
X529000D01*
X503000Y306000D02*
Y317071D01*
X512929Y327000D01*
X543000Y351071D02*
X546929Y355000D01*
X543000Y341000D02*
Y351071D01*
X529000Y327000D02*
X543000Y341000D01*
X612000Y390929D02*
Y486000D01*
X592000Y506000D02*
X612000Y486000D01*
X592000Y506000D02*
Y575000D01*
X578000Y502000D02*
X597000Y483000D01*
X578000Y502000D02*
Y579000D01*
X597000Y406864D02*
Y483000D01*
X581071Y360000D02*
X612000Y390929D01*
X296000Y276000D02*
X313000Y259000D01*
Y225000D02*
Y259000D01*
X305000Y217000D02*
X313000Y225000D01*
X287000Y276000D02*
X296000D01*
X304000Y232000D02*
Y257000D01*
X291000Y270000D02*
X304000Y257000D01*
X280000Y270000D02*
X291000D01*
X291000Y219000D02*
X304000Y232000D01*
X288000Y264000D02*
X296000Y256000D01*
Y235000D02*
Y256000D01*
X281000Y220000D02*
X296000Y235000D01*
X276000Y264000D02*
X288000D01*
X283071Y259000D02*
X289000Y253071D01*
X269000Y259000D02*
X283071D01*
X276000Y287000D02*
X287000Y276000D01*
X276000Y287000D02*
Y312000D01*
X268000Y320000D02*
Y331000D01*
Y320000D02*
X276000Y312000D01*
X261000Y289000D02*
X280000Y270000D01*
X261000Y289000D02*
Y365000D01*
X246000Y294000D02*
X276000Y264000D01*
X246000Y294000D02*
Y316000D01*
X238000Y290000D02*
X269000Y259000D01*
X238000Y290000D02*
Y321000D01*
X289000Y239000D02*
Y253071D01*
X272000Y222000D02*
X289000Y239000D01*
X272000Y210000D02*
Y222000D01*
X281000Y209272D02*
Y220000D01*
X291000Y201929D02*
Y219000D01*
X299000Y217000D02*
X305000D01*
X329000Y238000D02*
X357000Y266000D01*
X281000Y177000D02*
X300000Y196000D01*
X336000Y227000D02*
X368000Y259000D01*
X336000Y211000D02*
Y227000D01*
X296500Y171500D02*
X336000Y211000D01*
X368000Y259000D02*
Y303000D01*
X515000D02*
X563000Y351000D01*
X515000Y300000D02*
Y303000D01*
X460000Y245000D02*
X515000Y300000D01*
X563000Y351000D02*
X587000D01*
X949000Y841000D02*
X962000D01*
X940000Y850000D02*
X949000Y841000D01*
X940000Y850000D02*
Y875000D01*
X916000Y899000D02*
X940000Y875000D01*
X922521Y544479D02*
X1005521D01*
X898300Y568700D02*
X922521Y544479D01*
X898300Y568700D02*
Y617771D01*
X926000Y556000D02*
X997000D01*
X905000Y577000D02*
X926000Y556000D01*
X905000Y577000D02*
Y620000D01*
X1003657Y563000D02*
X1008385Y558272D01*
X957000Y991000D02*
X961400Y986600D01*
X937000Y991000D02*
X957000D01*
X902000Y1026000D02*
X937000Y991000D01*
X711000Y1026000D02*
X902000D01*
X1063000Y1005000D02*
X1075700Y992300D01*
X945000Y1005000D02*
X1063000D01*
X913000Y1037000D02*
X945000Y1005000D01*
X302000Y975000D02*
X316000Y961000D01*
X264750Y975000D02*
X302000D01*
X248500Y958750D02*
X264750Y975000D01*
X190000Y408000D02*
X240100D01*
X252101Y396000D02*
X272899D01*
X240100Y408000D02*
X252101Y396000D01*
X878000Y920000D02*
X924000Y874000D01*
Y829000D02*
Y874000D01*
Y829000D02*
X981000Y772000D01*
X877000Y913000D02*
X914000Y876000D01*
X1242000Y473000D02*
X1251000Y482000D01*
X1136000Y473000D02*
X1242000D01*
X564000Y121000D02*
X596000D01*
X603500Y128500D01*
X681500Y261000D02*
X698000D01*
X675000Y254500D02*
X681500Y261000D01*
X961400Y974300D02*
Y986600D01*
X1075700Y974300D02*
Y992300D01*
X708000Y1037000D02*
X913000D01*
X704000Y886000D02*
Y969000D01*
Y886000D02*
X717000Y873000D01*
X709000Y856000D02*
Y868000D01*
X691000Y886000D02*
X709000Y868000D01*
X691000Y886000D02*
Y910000D01*
X700000Y857000D02*
Y868000D01*
X675000Y893000D02*
X700000Y868000D01*
X384500Y916500D02*
X385000Y917000D01*
X392000Y923000D02*
X457000D01*
X385500Y916500D02*
X392000Y923000D01*
X603000Y396000D02*
Y485000D01*
X585000Y503000D02*
X603000Y485000D01*
X585000Y503000D02*
Y576000D01*
X223071Y77000D02*
X273000D01*
X183000Y80000D02*
X220071D01*
X223071Y77000D01*
X174000Y109000D02*
X189500Y93500D01*
X215500D01*
X224000Y85000D01*
X234000D01*
X226000Y93000D02*
X237000D01*
X185000Y115000D02*
X199000Y101000D01*
X218000D02*
X226000Y93000D01*
X199000Y101000D02*
X218000D01*
X231000Y100000D02*
X243000D01*
X196000Y116000D02*
X202500Y109500D01*
X221500D02*
X231000Y100000D01*
X202500Y109500D02*
X221500D01*
X159000Y104000D02*
Y189000D01*
Y104000D02*
X183000Y80000D01*
X174000Y109000D02*
Y168000D01*
X904000Y321000D02*
X907000Y318000D01*
X899500Y321000D02*
X904000D01*
X896500Y324000D02*
X899500Y321000D01*
X904000Y333000D02*
X907000Y336000D01*
X899500Y333000D02*
X904000D01*
X896500Y330000D02*
X899500Y333000D01*
X1016000Y460000D02*
X1030000D01*
X1000000Y476000D02*
X1016000Y460000D01*
X1050000Y449000D02*
Y468000D01*
X1030000Y460000D02*
X1041000Y471000D01*
X1047000D01*
X1050000Y468000D01*
X679000Y977000D02*
X689000Y987000D01*
X679000Y922000D02*
X691000Y910000D01*
X679000Y922000D02*
Y977000D01*
X660000Y925000D02*
X675000Y910000D01*
X689000Y987000D02*
Y1018000D01*
X202000Y196000D02*
X247000D01*
X174000Y168000D02*
X202000Y196000D01*
X217000Y178000D02*
X249728D01*
X196000Y157000D02*
X217000Y178000D01*
X196000Y116000D02*
Y157000D01*
X210000Y188000D02*
X250000D01*
X185000Y163000D02*
X210000Y188000D01*
X185000Y115000D02*
Y163000D01*
X715000Y505000D02*
X723600Y513600D01*
X715000Y428000D02*
Y505000D01*
X685000Y398000D02*
X715000Y428000D01*
X1094071Y488000D02*
X1121000D01*
X1022000Y723071D02*
Y808000D01*
X909000Y921000D02*
X1022000Y808000D01*
X887000Y921000D02*
X909000D01*
X889343Y927657D02*
X912343D01*
X1031000Y725929D02*
Y809000D01*
X912343Y927657D02*
X1031000Y809000D01*
X877000Y940000D02*
X889343Y927657D01*
X876000Y932000D02*
X887000Y921000D01*
X833000Y932000D02*
X876000D01*
X831000Y920000D02*
X878000D01*
X697000Y1012000D02*
X711000Y1026000D01*
X697000Y976000D02*
Y1012000D01*
X677000Y997000D02*
X684000Y1004000D01*
X663000Y997000D02*
X677000D01*
X112000Y924000D02*
X130000D01*
X104750Y916750D02*
X112000Y924000D01*
X87750Y916750D02*
X104750D01*
X77750Y906750D02*
X87750Y916750D01*
X130000Y924000D02*
X136000Y930000D01*
X359000Y858000D02*
X404000D01*
X311000Y906000D02*
X359000Y858000D01*
X263000Y906000D02*
X311000D01*
X465500Y287500D02*
X486000Y308000D01*
X465500Y277500D02*
Y287500D01*
X443000Y255000D02*
X465500Y277500D01*
X569000Y251000D02*
Y283000D01*
X561000Y243000D02*
X569000Y251000D01*
X561000Y222000D02*
Y243000D01*
X689000Y313000D02*
Y325071D01*
X674071Y298071D02*
X689000Y313000D01*
X662000Y298071D02*
X674071D01*
X535600Y173600D02*
X540000D01*
X528000Y166000D02*
X535600Y173600D01*
X689000Y325071D02*
X707000Y343071D01*
X652000Y288071D02*
X662000Y298071D01*
X642000Y215000D02*
X645000D01*
X639500Y217500D02*
X642000Y215000D01*
X635500Y217500D02*
X639500D01*
X634000Y204000D02*
Y207000D01*
X631500Y209500D02*
X634000Y207000D01*
X631500Y209500D02*
Y213500D01*
X699000Y312929D02*
Y325686D01*
X662929Y290000D02*
X676071D01*
X699000Y312929D01*
X740000Y327000D02*
Y353000D01*
X730000Y317000D02*
X740000Y327000D01*
X730000Y293000D02*
Y317000D01*
X699000Y325686D02*
X717000Y343686D01*
X710000Y313000D02*
Y327000D01*
X659000Y262000D02*
X710000Y313000D01*
X659000Y214343D02*
Y262000D01*
X710000Y327000D02*
X726000Y343000D01*
X733000Y332000D02*
Y358000D01*
X720000Y319000D02*
X733000Y332000D01*
X720000Y300929D02*
Y319000D01*
X687071Y268000D02*
X720000Y300929D01*
X645000Y291000D02*
X697000Y343000D01*
X645000Y280071D02*
Y291000D01*
X697000Y343000D02*
Y355000D01*
X907000Y899000D02*
X916000D01*
X746000Y780000D02*
X783000Y743000D01*
X740000Y777000D02*
X777000Y740000D01*
Y692000D02*
Y740000D01*
X768000Y683000D02*
X777000Y692000D01*
X981000Y685000D02*
Y772000D01*
X928000Y644000D02*
X973000Y689000D01*
X803250Y690250D02*
X806250Y687250D01*
Y684000D02*
Y687250D01*
Y684000D02*
X808250Y682000D01*
X796250Y684000D02*
Y687250D01*
X794250Y682000D02*
X796250Y684000D01*
Y687250D02*
X799250Y690250D01*
X776000Y675000D02*
X814900D01*
X749500Y877350D02*
X756851Y870000D01*
X749500Y877350D02*
Y886750D01*
X756500Y880250D02*
Y886750D01*
Y880250D02*
X759750Y877000D01*
X749500Y886750D02*
X749750Y887000D01*
X756250D02*
X756500Y886750D01*
X900500Y658500D02*
X904500D01*
X900000Y658000D02*
X900500Y658500D01*
X904500D02*
X907000Y661000D01*
X868250Y786750D02*
Y791649D01*
X806399Y853500D02*
X868250Y791649D01*
X754000Y853500D02*
X806399D01*
X861250Y783850D02*
Y788750D01*
X803500Y846500D02*
X861250Y788750D01*
X751100Y846500D02*
X803500D01*
X788900Y772000D02*
X811000D01*
X769000Y791899D02*
X788900Y772000D01*
X769000Y791899D02*
Y806808D01*
X786000Y765000D02*
X808101D01*
X762000Y789000D02*
X786000Y765000D01*
X762000Y789000D02*
Y809707D01*
X764192Y811899D02*
Y822808D01*
X762000Y809707D02*
X764192Y811899D01*
X769000Y806808D02*
X771192Y809000D01*
Y825707D01*
X762192Y824808D02*
X764192Y822808D01*
X769192Y827707D02*
X771192Y825707D01*
X824050Y741050D02*
Y749050D01*
X821000Y738000D02*
X824050Y741050D01*
X808101Y765000D02*
X824050Y749050D01*
X815101Y738000D02*
X821000D01*
X805000Y727899D02*
X815101Y738000D01*
X805000Y709000D02*
X816000Y698000D01*
X805000Y709000D02*
Y727899D01*
X799250Y690250D02*
X803250D01*
X816000Y686000D02*
Y698000D01*
X812000Y682000D02*
X816000Y686000D01*
X808250Y682000D02*
X812000D01*
X776000Y681500D02*
X776500Y682000D01*
X794250D01*
X762192Y841192D02*
X762442Y841442D01*
X762192Y824808D02*
Y841192D01*
X811000Y772000D02*
X831050Y751950D01*
Y738151D02*
Y751950D01*
X818000Y731000D02*
X823900D01*
X831050Y738151D01*
X823000Y683101D02*
Y700900D01*
X812000Y711899D02*
X823000Y700900D01*
X814900Y675000D02*
X823000Y683101D01*
X812000Y725000D02*
X818000Y731000D01*
X812000Y711899D02*
Y725000D01*
X768942Y841442D02*
X769192Y841192D01*
Y827707D02*
Y841192D01*
X786250Y799850D02*
X798600Y787500D01*
X801500Y794500D02*
X824399D01*
X793250Y802750D02*
X801500Y794500D01*
X793250Y802750D02*
Y831750D01*
X854000Y734000D02*
X856000Y736000D01*
X850500Y734000D02*
X854000D01*
X847500Y731000D02*
X850500Y734000D01*
X854000Y724000D02*
X856000Y722000D01*
X850500Y724000D02*
X854000D01*
X847500Y727000D02*
X850500Y724000D01*
X786250Y799850D02*
Y831750D01*
X793000Y832000D02*
X793250Y831750D01*
X786250Y831750D02*
X786500Y832000D01*
X856000Y736000D02*
Y753000D01*
X821500Y787500D02*
X856000Y753000D01*
X847500Y727000D02*
Y731000D01*
X856000Y708000D02*
Y722000D01*
X847101Y704000D02*
X852000D01*
X856000Y708000D01*
X840000Y696899D02*
X847101Y704000D01*
X840000Y672617D02*
Y696899D01*
X836383Y669000D02*
X840000Y672617D01*
X828500Y669000D02*
X836383D01*
X827500Y668000D02*
X828500Y669000D01*
X798600Y787500D02*
X821500D01*
X824399Y794500D02*
X863000Y755900D01*
Y705100D02*
Y755900D01*
X854900Y697000D02*
X863000Y705100D01*
X850000Y697000D02*
X854900D01*
X847000Y694000D02*
X850000Y697000D01*
X847000Y669717D02*
Y694000D01*
X839282Y662000D02*
X847000Y669717D01*
X827500Y662000D02*
X839282D01*
X863000Y683200D02*
X867300Y687500D01*
X863000Y668000D02*
Y683200D01*
X852000Y657000D02*
X863000Y668000D01*
X744351Y853250D02*
X751100Y846500D01*
X747250Y860250D02*
X754000Y853500D01*
X735250Y853250D02*
X744351D01*
X735250Y860250D02*
X747250D01*
X735000Y853500D02*
X735250Y853250D01*
X868250Y786750D02*
X887000Y768000D01*
Y695000D02*
Y768000D01*
X861250Y783850D02*
X880000Y765100D01*
Y697899D02*
Y765100D01*
X882000Y690000D02*
X887000Y695000D01*
X875000Y692900D02*
X880000Y697899D01*
X884500Y668500D02*
X888800D01*
X882000Y671000D02*
X884500Y668500D01*
X882000Y671000D02*
Y690000D01*
X888800Y668500D02*
X889300Y668000D01*
X888800Y661500D02*
X889300Y662000D01*
X881601Y661500D02*
X888800D01*
X875000Y668101D02*
X881601Y661500D01*
X875000Y668101D02*
Y692900D01*
X735000Y860000D02*
X735250Y860250D01*
X914000Y658017D02*
Y783000D01*
X900000Y651500D02*
X907483D01*
X914000Y658017D01*
X907000Y661000D02*
Y674000D01*
X902000Y795000D02*
X914000Y783000D01*
X907000Y688000D02*
Y780100D01*
X899100Y788000D02*
X907000Y780100D01*
X905000Y676000D02*
X907000Y674000D01*
X901750Y676000D02*
X905000D01*
X898750Y679000D02*
X901750Y676000D01*
X898750Y679000D02*
Y683000D01*
X901750Y686000D01*
X905000D01*
X907000Y688000D01*
X759750Y877000D02*
X818900D01*
X756851Y870000D02*
X816000D01*
X888000Y802899D02*
X895900Y795000D01*
X818900Y877000D02*
X888000Y807899D01*
X895900Y795000D02*
X902000D01*
X888000Y802899D02*
Y807899D01*
X881000Y800000D02*
X893000Y788000D01*
X816000Y870000D02*
X881000Y805000D01*
X893000Y788000D02*
X899100D01*
X881000Y800000D02*
Y805000D01*
X876500Y650500D02*
X884000Y643000D01*
X872500Y644500D02*
X881000Y636000D01*
X896000Y629000D02*
X905000Y620000D01*
X878000Y629000D02*
X896000D01*
X868500Y638500D02*
X878000Y629000D01*
X894071Y622000D02*
X898300Y617771D01*
X875500Y622000D02*
X894071D01*
X865000Y632500D02*
X875500Y622000D01*
X932000Y636000D02*
X981000Y685000D01*
X634250Y407169D02*
X683500Y456418D01*
X629750Y409033D02*
X679000Y458283D01*
Y494000D01*
X629750Y408114D02*
Y409033D01*
X629750Y408114D02*
X629750Y408114D01*
X631000Y698636D02*
X682500Y647136D01*
Y641000D02*
Y647136D01*
X635500Y700500D02*
X687000Y649000D01*
Y584000D02*
Y649000D01*
X680750Y630250D02*
X682500Y628500D01*
Y582136D02*
Y628500D01*
Y582136D02*
X704500Y560136D01*
X687000Y584000D02*
X709000Y562000D01*
X676500Y633000D02*
X679250Y630250D01*
X676500Y636500D02*
X679250Y639250D01*
X676500Y633000D02*
Y636500D01*
X680750Y639250D02*
X682500Y641000D01*
X679250Y639250D02*
X680750D01*
X679250Y630250D02*
X680750D01*
X634250Y403750D02*
Y407169D01*
X629000Y403000D02*
X629750Y403750D01*
Y408114D01*
X106883Y829500D02*
X113000Y823383D01*
X92500Y826500D02*
X95500Y829500D01*
X106883D01*
X72500Y836500D02*
X109783D01*
X127000Y772000D02*
Y809383D01*
X123000Y813383D02*
X127000Y809383D01*
X134000Y769100D02*
Y812282D01*
X109783Y836500D02*
X134000Y812282D01*
X113000Y748101D02*
X134000Y769100D01*
X113000Y715399D02*
Y748101D01*
X454750Y683250D02*
X480750D01*
X416899Y721100D02*
X454750Y683250D01*
X480750D02*
X481000Y683000D01*
X396000Y731000D02*
X405900Y721100D01*
X343101Y731000D02*
X396000D01*
X405900Y721100D02*
X416899D01*
X293100Y681000D02*
X343101Y731000D01*
X272101Y681000D02*
X293100D01*
X197101Y606000D02*
X272101Y681000D01*
X132000Y606000D02*
X197101D01*
X107750Y811133D02*
X110750Y808133D01*
X106000Y751000D02*
X127000Y772000D01*
X106000Y712500D02*
Y751000D01*
X414000Y714100D02*
X451851Y676250D01*
X480500D02*
X480750Y676500D01*
X451851Y676250D02*
X480500D01*
X393101Y724000D02*
X403000Y714100D01*
X414000D01*
X346000Y724000D02*
X393101D01*
X296000Y674000D02*
X346000Y724000D01*
X200000Y599000D02*
X275000Y674000D01*
X296000D01*
X129101Y599000D02*
X200000D01*
X110000Y618101D02*
X129101Y599000D01*
X316000Y750000D02*
X343000D01*
X354000Y739000D01*
X489000Y673000D02*
Y712000D01*
X479000Y663000D02*
X489000Y673000D01*
X479000Y644000D02*
Y663000D01*
X486500Y652500D02*
Y658500D01*
X479000Y722000D02*
X489000Y712000D01*
X363000Y308000D02*
X368000Y303000D01*
X350000Y309000D02*
Y336000D01*
Y309000D02*
X357000Y302000D01*
X308100Y517100D02*
Y539000D01*
X303050Y512050D02*
X308100Y517100D01*
X78000Y439000D02*
X88050Y449050D01*
X78000Y382000D02*
Y439000D01*
X103000Y424000D02*
X106750Y427750D01*
X103000Y383000D02*
Y424000D01*
X362900Y609000D02*
X385250Y586649D01*
Y554250D02*
Y586649D01*
X374500Y587500D02*
X378250Y583750D01*
Y554250D02*
Y583750D01*
X300000Y609000D02*
X362900D01*
X302899Y602000D02*
X360000D01*
X364500Y597500D01*
X385000Y554000D02*
X385250Y554250D01*
X378250Y554250D02*
X378500Y554000D01*
X270000Y403000D02*
X378250Y511250D01*
X255000Y403000D02*
X270000D01*
X243000Y415000D02*
X255000Y403000D01*
X272899Y396000D02*
X385250Y508351D01*
X135000Y393000D02*
X137000Y395000D01*
X135000Y322900D02*
Y393000D01*
X157750Y482000D02*
X174000D01*
X151000Y475250D02*
X157750Y482000D01*
X108000D02*
X141000D01*
X147750Y475250D01*
X151000D01*
X110000Y380101D02*
Y421101D01*
X71000Y379100D02*
Y441899D01*
X191302Y269000D02*
X193302Y271000D01*
X187552Y269000D02*
X191302D01*
X184552Y266000D02*
X187552Y269000D01*
X191302Y259000D02*
X193302Y257000D01*
X187552Y259000D02*
X191302D01*
X184552Y262000D02*
X187552Y259000D01*
X193302Y271000D02*
Y289698D01*
Y251201D02*
Y257000D01*
X184552Y262000D02*
Y266000D01*
X184000Y308900D02*
Y345000D01*
X378250Y529750D02*
X378500Y530000D01*
X378250Y511250D02*
Y529750D01*
X200000Y379000D02*
X205000Y374000D01*
Y362000D02*
Y374000D01*
X200000Y357000D02*
X205000Y362000D01*
X187101Y415000D02*
X243000D01*
X187101Y379000D02*
X200000D01*
X178000Y405900D02*
X187101Y415000D01*
X178000Y388101D02*
X187101Y379000D01*
X186101Y357000D02*
X200000D01*
X177000Y347900D02*
X186101Y357000D01*
X178000Y388101D02*
Y405900D01*
X187201Y245100D02*
X193302Y251201D01*
X166101Y245100D02*
X187201D01*
X152250Y231250D02*
X166101Y245100D01*
X148250Y231250D02*
X152250D01*
X148000Y231000D02*
X148250Y231250D01*
X385000Y530000D02*
X385250Y529750D01*
Y508351D02*
Y529750D01*
X185000Y391000D02*
X190000Y386000D01*
X202899D02*
X212000Y376899D01*
X185000Y403000D02*
X190000Y408000D01*
X185000Y391000D02*
Y403000D01*
X212000Y359100D02*
Y376899D01*
X202899Y350000D02*
X212000Y359100D01*
X190000Y386000D02*
X202899D01*
X189000Y350000D02*
X202899D01*
X184000Y345000D02*
X189000Y350000D01*
X169000Y238100D02*
X190100D01*
X200302Y248302D01*
X148250Y224250D02*
X155149D01*
X169000Y238100D01*
X148000Y224500D02*
X148250Y224250D01*
X177000Y306000D02*
Y347900D01*
X184000Y308900D02*
X200302Y292598D01*
Y248302D02*
Y292598D01*
X177000Y306000D02*
X193302Y289698D01*
X343654Y547000D02*
X359500Y562846D01*
Y563500D01*
X268000Y341071D02*
Y370000D01*
X262000Y376000D02*
X268000Y370000D01*
X137100Y405000D02*
X146350D01*
X137000Y395000D02*
X146250D01*
X315550Y487550D02*
X372750Y544750D01*
X301101Y487550D02*
X315550D01*
X291050Y477500D02*
X301101Y487550D01*
X318450Y480550D02*
X375649Y537750D01*
X304000Y480550D02*
X318450D01*
X298050Y474601D02*
X304000Y480550D01*
X291050Y463050D02*
Y477500D01*
X298050Y460151D02*
Y474601D01*
X270000Y442000D02*
X291050Y463050D01*
X272899Y435000D02*
X298050Y460151D01*
X391750Y544750D02*
X392000Y544500D01*
X372750Y544750D02*
X391750D01*
X153750Y201750D02*
X154000Y202000D01*
X151000Y442000D02*
X270000D01*
X136101Y275000D02*
X146000Y265100D01*
X128000Y419000D02*
X151000Y442000D01*
X146000Y258899D02*
Y265100D01*
X136101Y249000D02*
X146000Y258899D01*
X130149Y210000D02*
X137851D01*
X128000Y320000D02*
X136101Y311900D01*
Y275000D02*
Y311900D01*
X128000Y320000D02*
Y419000D01*
X112100Y249000D02*
X136101D01*
X99750Y236649D02*
X112100Y249000D01*
X99750Y210851D02*
Y236649D01*
X137851Y210000D02*
X146101Y201750D01*
X121899D02*
X130149Y210000D01*
X146101Y201750D02*
X153750D01*
X99750Y210851D02*
X108850Y201750D01*
X121899D01*
X391750Y537750D02*
X392000Y538000D01*
X375649Y537750D02*
X391750D01*
X153899Y435000D02*
X272899D01*
X153750Y208750D02*
X154000Y208500D01*
X146350Y405000D02*
X149300Y402050D01*
Y398050D02*
Y402050D01*
X146250Y395000D02*
X149300Y398050D01*
X153000Y256000D02*
Y268000D01*
X149000Y208750D02*
X153750D01*
X143101Y277899D02*
Y314799D01*
X135050Y416151D02*
X153899Y435000D01*
X135000Y322900D02*
X143101Y314799D01*
Y277899D02*
X153000Y268000D01*
X139000Y242000D02*
X153000Y256000D01*
X115000Y242000D02*
X139000D01*
X135050Y407050D02*
X137100Y405000D01*
X135050Y407050D02*
Y416151D01*
X106750Y233750D02*
X115000Y242000D01*
X127250Y217000D02*
X140750D01*
X149000Y208750D01*
X119000D02*
X127250Y217000D01*
X106750Y213750D02*
X111750Y208750D01*
X119000D01*
X106750Y213750D02*
Y233750D01*
X72649Y297250D02*
Y334250D01*
X79649Y294351D02*
Y331351D01*
X101649Y314351D02*
Y331351D01*
X99549Y343351D02*
X108649Y334250D01*
Y317250D02*
Y334250D01*
X50000Y297899D02*
Y346750D01*
Y361250D02*
Y475000D01*
X82000Y507000D02*
X241900D01*
X50000Y346750D02*
X55250Y352000D01*
X50000Y361250D02*
X55250Y356000D01*
Y352000D02*
Y356000D01*
X43000Y477900D02*
X79100Y514000D01*
X96649Y336351D02*
X101649Y331351D01*
X84649Y336351D02*
X96649D01*
X79649Y331351D02*
X84649Y336351D01*
X110750Y305250D02*
X123750D01*
X124000Y305500D01*
X101649Y314351D02*
X110750Y305250D01*
X52750Y285250D02*
X70549D01*
X79649Y294351D01*
X43000Y295000D02*
X52750Y285250D01*
X82000Y507000D02*
Y507000D01*
X72000Y497000D02*
X82000Y507000D01*
X72000Y494000D02*
Y497000D01*
Y494000D02*
X74750Y491250D01*
Y487250D02*
Y491250D01*
X71750Y484250D02*
X74750Y487250D01*
X65000Y487000D02*
X67750Y484250D01*
X71750D01*
X62000Y487000D02*
X65000D01*
X50000Y475000D02*
X62000Y487000D01*
X50000Y475000D02*
X50000D01*
X123750Y312250D02*
X124000Y312000D01*
X113650Y312250D02*
X123750D01*
X108649Y317250D02*
X113650Y312250D01*
X108649Y317250D02*
Y317250D01*
Y317250D02*
X113649Y312250D01*
X81750Y343351D02*
X99549D01*
X72649Y334250D02*
X81750Y343351D01*
X55649Y292250D02*
X67649D01*
X72649Y297250D01*
X50000Y297899D02*
X55649Y292250D01*
X43000Y295000D02*
Y477900D01*
X79100Y514000D02*
X239000D01*
X105100Y489000D02*
X176900D01*
X88050Y449050D02*
Y462050D01*
X323101Y554000D02*
X340754D01*
X308100Y539000D02*
X323101Y554000D01*
X275151Y512050D02*
X303050D01*
X266000Y502900D02*
X275151Y512050D01*
X217101Y489000D02*
X234900D01*
X176900Y489000D02*
X186000Y479899D01*
X266000Y474000D02*
Y502900D01*
X234900Y489000D02*
X244000Y479899D01*
Y474000D02*
Y479899D01*
X208000Y479899D02*
X217101Y489000D01*
X208000Y474000D02*
Y479899D01*
X249000Y469000D02*
X261000D01*
X266000Y474000D01*
X203000Y469000D02*
X208000Y474000D01*
X244000Y474000D02*
X249000Y469000D01*
X186000Y474000D02*
X191000Y469000D01*
X186000Y474000D02*
Y479899D01*
X191000Y469000D02*
X203000D01*
X135750Y447250D02*
Y452000D01*
Y447250D02*
X136000Y447000D01*
X130750Y457101D02*
X135750Y452100D01*
X118750Y457101D02*
X130750D01*
X113750Y452100D02*
X118750Y457101D01*
X113750Y424850D02*
Y452100D01*
X71000Y441899D02*
X81050Y451950D01*
X110000Y421101D02*
X113750Y424850D01*
X99900Y370000D02*
X110000Y380101D01*
X71000Y379100D02*
X80101Y370000D01*
X99900D01*
X326000Y547000D02*
X343654D01*
X315100Y536101D02*
X326000Y547000D01*
X315100Y514201D02*
Y536101D01*
X305950Y505050D02*
X315100Y514201D01*
X278050Y505050D02*
X305950D01*
X273000Y500000D02*
X278050Y505050D01*
X273000Y471101D02*
Y500000D01*
X220000Y482000D02*
X232000D01*
X237000Y477000D01*
X246101Y462000D02*
X263900D01*
X273000Y471101D01*
X237000Y471101D02*
Y477000D01*
Y471101D02*
X246101Y462000D01*
X215000Y477000D02*
X220000Y482000D01*
X215000Y471101D02*
Y477000D01*
X174000Y482000D02*
X179000Y477000D01*
Y471101D02*
Y477000D01*
X188100Y462000D02*
X205900D01*
X215000Y471101D01*
X179000Y471101D02*
X188100Y462000D01*
X142750Y447250D02*
Y455000D01*
X133649Y464100D02*
X142750Y455000D01*
X115850Y464100D02*
X133649D01*
X106750Y427750D02*
Y455000D01*
X115850Y464100D01*
X142500Y447000D02*
X142750Y447250D01*
X97000Y377000D02*
X103000Y383000D01*
X78000Y382000D02*
X83000Y377000D01*
X97000D01*
X81050Y464950D02*
X105100Y489000D01*
X88050Y462050D02*
X108000Y482000D01*
X81050Y451950D02*
Y464950D01*
X331250Y589250D02*
X351750D01*
X324000Y582000D02*
X331250Y589250D01*
X334150Y582250D02*
X351750D01*
X326899Y575000D02*
X334150Y582250D01*
X351750Y589250D02*
X352000Y589000D01*
X351750Y582250D02*
X352000Y582500D01*
X58101Y540000D02*
X231000D01*
X18000Y499899D02*
X58101Y540000D01*
X61000Y533000D02*
X233900D01*
X48000Y520000D02*
X61000Y533000D01*
X18000Y284100D02*
Y499899D01*
X25000Y287000D02*
Y497000D01*
X54000Y269250D02*
X57000Y272250D01*
X64000Y266000D02*
Y269250D01*
X54000Y266000D02*
Y269250D01*
X368750Y584750D02*
X371500Y587500D01*
X361750Y591750D02*
X364500Y594500D01*
X48000Y517000D02*
X50750Y514250D01*
X41000Y510000D02*
X43750Y507250D01*
X364750Y584750D02*
X368750D01*
X50750Y510250D02*
Y514250D01*
X88750Y274750D02*
X125750D01*
X78000Y264000D02*
X88750Y274750D01*
X61000Y272250D02*
X64000Y269250D01*
X57000Y272250D02*
X61000D01*
X91650Y267750D02*
X125750D01*
X18000Y284100D02*
X45100Y257000D01*
X80899D02*
X91650Y267750D01*
X45100Y257000D02*
X80899D01*
X25000Y287000D02*
X48000Y264000D01*
X52000D01*
X54000Y266000D01*
X64000D02*
X66000Y264000D01*
X78000D01*
X25000Y497000D02*
X38000Y510000D01*
X48000Y517000D02*
Y520000D01*
X47750Y507250D02*
X50750Y510250D01*
X43750Y507250D02*
X47750D01*
X38000Y510000D02*
X41000D01*
X364500Y594500D02*
Y597500D01*
X361750Y587750D02*
Y591750D01*
Y587750D02*
X364750Y584750D01*
X371500Y587500D02*
X374500D01*
X125750Y274750D02*
X126000Y274500D01*
X125750Y267750D02*
X126000Y268000D01*
X231000Y540000D02*
X300000Y609000D01*
X233900Y533000D02*
X302899Y602000D01*
X564300Y486700D02*
Y583800D01*
X572200Y591700D01*
X554000Y557000D02*
Y567000D01*
Y557000D02*
X556000Y555000D01*
X557000Y587000D02*
X564500Y594500D01*
X557000Y570000D02*
Y587000D01*
X554000Y567000D02*
X557000Y570000D01*
X571000Y580500D02*
X580000Y589500D01*
X578000Y579000D02*
X587600Y588600D01*
X585000Y576000D02*
X595300Y586300D01*
X289000Y554100D02*
X309900Y575000D01*
X241900Y507000D02*
X264000Y529100D01*
X282000Y557000D02*
X307000Y582000D01*
X239000Y514000D02*
X261101Y536101D01*
X309900Y575000D02*
X326899D01*
X307000Y582000D02*
X324000D01*
X289000Y538000D02*
Y554100D01*
X282000Y540900D02*
Y557000D01*
X280100Y529100D02*
X289000Y538000D01*
X277201Y536101D02*
X282000Y540900D01*
X261101Y536101D02*
X277201D01*
X264000Y529100D02*
X280100D01*
X389500Y911500D02*
X391750Y913750D01*
X452250D01*
X385500Y906500D02*
X446598D01*
X359500Y871500D02*
X361500Y869500D01*
X767000Y723000D02*
X769000Y721000D01*
X728000Y657000D02*
X755000Y684000D01*
Y688000D01*
X749000Y699000D02*
Y733929D01*
X719000Y763929D02*
X749000Y733929D01*
X720071Y747000D02*
X735464Y731607D01*
X734000Y713071D02*
X735464Y714536D01*
X730000Y777071D02*
Y807000D01*
X674750Y862250D02*
X730000Y807000D01*
X711000Y793000D02*
Y808000D01*
X705000Y790000D02*
Y805000D01*
Y790000D02*
X713000Y782000D01*
X711000Y793000D02*
X719000Y785000D01*
Y763929D02*
Y785000D01*
X717000Y796929D02*
X725000Y788929D01*
Y775000D02*
Y788929D01*
Y775000D02*
X730000Y770000D01*
Y777071D02*
X741000Y766071D01*
X703000Y762929D02*
Y769000D01*
X693000Y779000D02*
Y799000D01*
Y779000D02*
X703000Y769000D01*
X707000Y758036D02*
Y781071D01*
X699000Y789071D02*
Y802000D01*
Y789071D02*
X707000Y781071D01*
X639000Y853000D02*
X693000Y799000D01*
X674750Y862250D02*
Y875210D01*
X717000Y796929D02*
Y811000D01*
X447000Y884000D02*
X494000Y837000D01*
X670000Y879960D02*
X674750Y875210D01*
X670000Y879960D02*
Y880000D01*
X720000Y707000D02*
Y715929D01*
X719000Y706000D02*
X720000Y707000D01*
X719000Y687000D02*
Y706000D01*
X734000Y704000D02*
Y713071D01*
X732000Y702000D02*
X734000Y704000D01*
X718036Y747000D02*
X720071D01*
X707000Y758036D02*
X718036Y747000D01*
X683036Y740035D02*
X696071Y727000D01*
X678000Y748000D02*
X683036Y742964D01*
Y740035D02*
Y742964D01*
X664929Y746000D02*
X675929Y735000D01*
X664071Y734000D02*
X678071Y720000D01*
X678000Y711000D02*
X683071D01*
X687000Y700000D02*
Y707071D01*
X684000Y697000D02*
X687000Y700000D01*
X684000Y672000D02*
Y697000D01*
X826000Y652000D02*
X839500D01*
X818000Y660000D02*
X826000Y652000D01*
X775000Y660000D02*
X818000D01*
X816000Y653000D02*
X822000Y647000D01*
X808986Y635000D02*
X817986Y626000D01*
X755000Y635000D02*
X808986D01*
X752000Y641000D02*
X812000D01*
X763000Y629000D02*
X772000D01*
X782000D02*
X783000D01*
X844500Y657000D02*
X852000D01*
X839500Y652000D02*
X844500Y657000D01*
X596000Y639000D02*
X603000Y632000D01*
X592000Y575000D02*
X603000Y586000D01*
Y632000D01*
X564500Y625200D02*
X568300Y629000D01*
X564500Y594500D02*
Y625200D01*
X572200Y591700D02*
Y625000D01*
X573840Y626640D01*
X580000Y589500D02*
Y639185D01*
X587600Y588600D02*
Y624320D01*
X584920Y627000D02*
X587600Y624320D01*
X590460Y630000D02*
X595300Y625160D01*
Y586300D02*
Y625160D01*
X573840Y626640D02*
Y639688D01*
X568300Y629000D02*
Y631500D01*
X564185Y655000D02*
X580000Y639185D01*
X584920Y627000D02*
Y641080D01*
X590460Y630000D02*
Y642540D01*
X568300Y631500D02*
Y639571D01*
X557300Y642500D02*
X565371D01*
X568300Y639571D01*
X596000Y639000D02*
Y644000D01*
X568000Y672000D02*
X596000Y644000D01*
X684000Y672000D02*
X688000Y668000D01*
Y659000D02*
Y668000D01*
X676000Y672000D02*
Y704000D01*
X683071Y711000D02*
X687000Y707071D01*
X526500Y637500D02*
X563300D01*
X568300Y631500D02*
X568300Y631500D01*
X557300Y642500D02*
X557300Y642500D01*
X595000Y288000D02*
X612000Y305000D01*
X603000Y286071D02*
X613929Y297000D01*
X654000Y384071D02*
Y388071D01*
X595929Y326000D02*
X654000Y384071D01*
X440000Y777000D02*
X465000D01*
X486000Y308000D02*
Y325000D01*
X502000Y342000D02*
X516364Y356364D01*
X527000Y341429D02*
Y350000D01*
X532000Y355000D01*
X569000Y378864D02*
X597000Y406864D01*
X546929Y355000D02*
X557000D01*
X532000D02*
X537071D01*
X516364Y356364D02*
X523000D01*
X531636Y365000D01*
X265000Y338071D02*
X268000Y341071D01*
X363000Y308000D02*
Y338071D01*
X583750Y311750D02*
Y319750D01*
X562000Y214000D02*
X595000Y247000D01*
Y288000D01*
X568000Y143000D02*
X582000D01*
X578657Y247657D02*
Y284657D01*
X570000Y239000D02*
X578657Y247657D01*
X792500Y622500D02*
X795500D01*
X629000Y110000D02*
X766000D01*
X544000Y153000D02*
X567000Y130000D01*
X1072000Y541000D02*
Y552000D01*
Y541000D02*
X1080250Y532750D01*
X1081000D01*
X1095000Y495000D02*
X1289200D01*
X997929Y420000D02*
X998000D01*
X993929Y432000D02*
X998000D01*
X646000Y734000D02*
X649071D01*
X675929Y735000D02*
X678071D01*
X674071Y748000D02*
X678000D01*
X678071Y735000D02*
X693000Y720071D01*
X696071Y727000D02*
X699071D01*
X703000Y749929D02*
Y762929D01*
X703000Y762929D01*
X656929Y712000D02*
X668000D01*
X676000Y704000D01*
X699071Y727000D02*
X704000Y722071D01*
X720000Y715929D02*
X720000Y715929D01*
X726000Y709929D02*
X730000Y713929D01*
X726000Y697000D02*
Y709929D01*
X761000Y694000D02*
Y742000D01*
X741000Y762000D02*
X761000Y742000D01*
X755000Y688000D02*
X761000Y694000D01*
X741000Y762000D02*
Y766071D01*
X740000Y777000D02*
Y806071D01*
X746000Y780000D02*
Y808000D01*
X768000Y667000D02*
Y683000D01*
Y667000D02*
X775000Y660000D01*
X715000Y845960D02*
X734750Y826210D01*
X715000Y845960D02*
Y850000D01*
X709000Y856000D02*
X715000Y850000D01*
X732000Y837000D02*
X740250Y828750D01*
X732000Y837000D02*
Y842000D01*
X844000Y913000D02*
X877000D01*
X838000Y907000D02*
X844000Y913000D01*
X813000Y907000D02*
X838000D01*
X749000Y661000D02*
X761000Y673000D01*
X734750Y811321D02*
X740000Y806071D01*
X740250Y813750D02*
X746000Y808000D01*
X734750Y811321D02*
Y826210D01*
X697000Y976000D02*
X704000Y969000D01*
X700000Y857000D02*
X709000Y848000D01*
X740250Y813750D02*
Y828750D01*
X159000Y189000D02*
X172000Y202000D01*
X629000Y772000D02*
X632000Y775000D01*
X238500Y949500D02*
Y958750D01*
X47500Y936500D02*
X48500D01*
X808000Y912000D02*
X813000Y907000D01*
X666000Y47000D02*
X678400Y34600D01*
X922000Y636000D02*
X932000D01*
X666000Y47000D02*
Y67000D01*
X653000Y60000D02*
Y72000D01*
X1190000Y524000D02*
X1205000D01*
X1210000Y529000D01*
X1189657Y530000D02*
X1198000D01*
X1289200Y495000D02*
X1290000Y494200D01*
X332000Y989250D02*
X336500Y993750D01*
X333000Y1000000D02*
X339500D01*
X341500Y998000D01*
X1019000Y477000D02*
X1042000D01*
X1016000Y470000D02*
X1030000D01*
X1019272Y486000D02*
X1036000D01*
X729200Y34600D02*
X740600Y46000D01*
X807000D01*
X666000Y67000D02*
X672000Y73000D01*
X798000D01*
X653000Y72000D02*
X660000Y79000D01*
X786000D01*
X585000Y18000D02*
X679000D01*
X796000Y504000D02*
X800000Y508000D01*
X570000Y231000D02*
Y239000D01*
X781000Y469000D02*
X796000Y484000D01*
Y504000D01*
X787000Y466000D02*
X802000Y481000D01*
Y500000D01*
X793000Y385000D02*
Y462000D01*
X808000Y477000D01*
X610000Y356000D02*
X617343D01*
X351500Y998000D02*
X371000Y978500D01*
X243500Y956500D02*
Y963000D01*
Y956500D02*
X248000Y952000D01*
X241000Y840000D02*
X260000Y859000D01*
X527700Y666300D02*
Y672500D01*
X237000Y729000D02*
X255000Y747000D01*
X252000Y714000D02*
X269000Y731000D01*
X1075750Y526250D02*
X1081000D01*
X1065000Y537000D02*
X1075750Y526250D01*
X1181907Y537750D02*
X1189657Y530000D01*
X1092750Y537750D02*
X1181907D01*
X1184000Y524000D02*
X1190000D01*
X385000Y765000D02*
X394000Y756000D01*
X527000Y544000D02*
Y588000D01*
Y544000D02*
X532500Y538500D01*
X15000Y939000D02*
X27500Y926500D01*
X132000Y1073000D02*
X604000D01*
X55000Y996000D02*
X132000Y1073000D01*
X37750Y946250D02*
X47500Y936500D01*
X15000Y939000D02*
Y973000D01*
X38000Y996000D01*
X55000D01*
X37750Y946250D02*
Y982750D01*
X44000Y989000D01*
X61657D01*
X47500Y876500D02*
X57250Y886250D01*
X289000Y723000D02*
X316000Y750000D01*
X229000Y715000D02*
Y739000D01*
X244000Y754000D01*
X237000Y714000D02*
Y729000D01*
X183000Y840000D02*
X241000D01*
X260000Y859000D02*
X328000D01*
X379500Y911500D02*
X389500D01*
X346000Y952000D02*
X351500Y946500D01*
X332000Y968000D02*
Y989250D01*
Y968000D02*
X340000Y960000D01*
X344000Y966000D02*
X346000Y964000D01*
X351500Y946500D02*
X359500D01*
X346000Y952000D02*
Y964000D01*
X371000Y947000D02*
Y978500D01*
X308000Y958000D02*
X311000Y955000D01*
X267000Y958000D02*
X308000D01*
X248000Y952000D02*
X261000D01*
X267000Y958000D01*
X238500Y949500D02*
X242000Y946000D01*
X268000D01*
X404000Y858000D02*
X410000Y852000D01*
Y847000D02*
Y852000D01*
X272000Y940000D02*
X273000Y941000D01*
X268000Y946000D02*
X271000Y949000D01*
X316000D01*
X273000Y941000D02*
X309000D01*
X311000Y943000D01*
X111000D02*
X126000D01*
X48500Y936500D02*
X58750Y926250D01*
X77250D01*
X87250Y936250D01*
X104250D01*
X111000Y943000D01*
X57250Y886250D02*
X76539D01*
X41250Y906750D02*
X77750D01*
X37000Y911000D02*
X41250Y906750D01*
X37000Y911000D02*
Y917000D01*
X27500Y926500D02*
X37000Y917000D01*
X136000Y930000D02*
X162000D01*
X218000Y921000D02*
X248000D01*
X263000Y906000D01*
X311000Y894000D02*
X354000Y851000D01*
X396000D01*
X400000Y847000D01*
X261000Y796500D02*
X262250Y797750D01*
X281114D01*
X391828Y748172D02*
X418828D01*
X423500Y743500D01*
X426000Y772000D02*
X433000Y765000D01*
X394500Y617364D02*
X408000Y603864D01*
X390000Y615500D02*
X403500Y602000D01*
X287000Y334000D02*
Y374000D01*
X408000Y495000D01*
Y603864D01*
X403500Y496864D02*
Y602000D01*
X298000Y283000D02*
X299750Y284750D01*
X304250Y284750D02*
X306000Y283000D01*
X299750Y284750D02*
Y314886D01*
X287000Y334000D02*
X304250Y316750D01*
Y284750D02*
Y316750D01*
X521500Y632500D02*
X526500Y637500D01*
X113000Y820383D02*
Y823383D01*
X107750Y811133D02*
Y815133D01*
X113000Y820383D01*
X120000Y813383D02*
X123000D01*
X110750Y808133D02*
X114750D01*
X120000Y813383D01*
X389750Y615750D02*
Y627250D01*
X394250Y617614D02*
Y627250D01*
X395000Y628000D01*
X389000D02*
X389750Y627250D01*
X223500Y560500D02*
X288500Y625500D01*
X329500D01*
X364000Y660000D01*
X389000Y664000D02*
X389750Y664750D01*
Y668000D01*
X12000Y780000D02*
Y811364D01*
X35500Y722864D02*
X43000Y730364D01*
X12000Y780000D02*
X43000Y749000D01*
Y730364D02*
Y749000D01*
X221636Y565000D02*
X286636Y630000D01*
X327636D01*
X394250Y664750D02*
Y669864D01*
Y664750D02*
X395000Y664000D01*
X40000Y721000D02*
X47500Y728500D01*
Y750864D01*
X16500Y781864D02*
Y809500D01*
X24000Y817000D01*
X47000D01*
X16500Y781864D02*
X47500Y750864D01*
X47000Y817000D02*
X47500Y816500D01*
X364000Y660000D02*
X367000D01*
X372000Y665000D02*
Y668000D01*
X12000Y811364D02*
X18636Y818000D01*
X76000Y637000D02*
X81500Y631500D01*
Y607136D02*
Y631500D01*
X76000Y637000D02*
Y670364D01*
X81500Y675864D01*
Y768500D01*
Y607136D02*
X112136Y576500D01*
X210864D01*
X277864Y643500D01*
X308136D02*
X338772Y674136D01*
X277864Y643500D02*
X308136D01*
X77500Y772500D02*
X81500Y768500D01*
X338772Y682408D02*
X359364Y703000D01*
X338772Y674136D02*
Y682408D01*
X359364Y703000D02*
X377919D01*
X382919Y698000D01*
X442250Y671750D02*
X443000Y671000D01*
X86000Y609000D02*
Y633364D01*
Y609000D02*
X114000Y581000D01*
X80500Y638864D02*
Y668500D01*
Y638864D02*
X86000Y633364D01*
X114000Y581000D02*
X209000D01*
X276000Y648000D01*
X306272D01*
X334272Y676000D01*
X80500Y668500D02*
X86000Y674000D01*
Y770364D01*
X82000Y774364D02*
Y792565D01*
Y774364D02*
X86000Y770364D01*
X82000Y792565D02*
X92500Y803065D01*
X334272Y684272D02*
X357500Y707500D01*
X92500Y803065D02*
Y806500D01*
X334272Y676000D02*
Y684272D01*
X357500Y707500D02*
X379782D01*
X384782Y702500D01*
X442250Y676250D02*
X443000Y677000D01*
X419886Y671750D02*
X442250D01*
X421750Y676250D02*
X442250D01*
X393636Y698000D02*
X419886Y671750D01*
X382919Y698000D02*
X393636D01*
X75000Y784000D02*
X77500Y781500D01*
Y772500D02*
Y781500D01*
X71500Y784000D02*
X75000D01*
X69000Y793000D02*
X72500Y796500D01*
X69000Y786500D02*
X71500Y784000D01*
X69000Y786500D02*
Y793000D01*
X384782Y702500D02*
X395500D01*
X421750Y676250D01*
X35500Y606136D02*
Y722864D01*
Y606136D02*
X81136Y560500D01*
X223500D01*
X40000Y608000D02*
Y721000D01*
Y608000D02*
X83000Y565000D01*
X221636D01*
X22000Y826500D02*
X27500D01*
X18636Y818000D02*
Y823136D01*
X22000Y826500D01*
X372000Y668000D02*
X375250Y671250D01*
X386500D02*
X389750Y668000D01*
X375250Y671250D02*
X386500D01*
X327636Y630000D02*
X373386Y675750D01*
X388364D01*
X394250Y669864D01*
X368500Y658500D02*
X371500D01*
X367000Y660000D02*
X368500Y658500D01*
X371500D02*
X373500Y660500D01*
Y663500D01*
X372000Y665000D02*
X373500Y663500D01*
X282500Y332136D02*
X299750Y314886D01*
X282500Y332136D02*
Y375864D01*
X403500Y496864D01*
X384000Y332000D02*
X389000Y327000D01*
X384000Y361000D02*
X390000Y367000D01*
X384000Y332000D02*
Y361000D01*
X389000Y327000D02*
X408899D01*
X402000Y398900D02*
Y409000D01*
X453000Y460000D01*
X417500Y283500D02*
X418000Y283000D01*
X459250Y628000D02*
X459500Y627750D01*
X377000Y329100D02*
X386101Y320000D01*
X377000Y363899D02*
X387100Y374000D01*
X377000Y329100D02*
Y363899D01*
X395000Y396000D02*
Y411899D01*
X446000Y462900D01*
X395000Y396000D02*
X406000Y385000D01*
X410000Y283000D02*
X410500Y283500D01*
X446000Y462900D02*
Y615900D01*
X452500Y627750D02*
X452750Y628000D01*
X387100Y374000D02*
X401000D01*
X406000Y379000D01*
Y385000D01*
X390000Y367000D02*
X403899D01*
X386101Y320000D02*
X406000D01*
X410500Y315500D01*
Y283500D02*
Y315500D01*
X408899Y327000D02*
X417500Y318400D01*
Y283500D02*
Y318400D01*
X370000Y392500D02*
Y420000D01*
X374500Y390636D02*
Y418136D01*
X330000Y283000D02*
X331750Y284750D01*
Y312250D01*
X316682Y327318D02*
Y359046D01*
Y327318D02*
X331750Y312250D01*
X370000Y420000D02*
X414000Y464000D01*
Y478000D01*
X423500Y487500D01*
X421750Y615750D02*
X423500Y614000D01*
Y487500D02*
Y614000D01*
X421750Y615750D02*
Y627250D01*
X421000Y628000D02*
X421750Y627250D01*
X336250Y284750D02*
X338000Y283000D01*
X336250Y284750D02*
Y314114D01*
X321182Y329182D02*
X336250Y314114D01*
X374500Y418136D02*
X418500Y462136D01*
Y476136D01*
X428000Y485636D01*
X426250Y617614D02*
X428000Y615864D01*
Y485636D02*
Y615864D01*
X426250Y617614D02*
Y627250D01*
X427000Y628000D01*
X362500Y385000D02*
X370000Y392500D01*
X321182Y329182D02*
Y357182D01*
X344500Y380500D01*
X316682Y359046D02*
X342636Y385000D01*
X362500D01*
X344500Y380500D02*
X364364D01*
Y380500D02*
X374500Y390636D01*
X403899Y367000D02*
X413000Y376101D01*
X402000Y398900D02*
X413000Y387900D01*
Y376101D02*
Y387900D01*
X342000Y366000D02*
X350071Y357929D01*
Y351000D02*
Y357929D01*
Y351000D02*
X363000Y338071D01*
X229000Y323000D02*
X235000Y329000D01*
X246000D02*
Y366000D01*
X238000Y321000D02*
X246000Y329000D01*
X261000Y365000D02*
X262000Y366000D01*
X249728Y178000D02*
X281000Y209272D01*
X250000Y188000D02*
X272000Y210000D01*
X247000Y196000D02*
X264000Y213000D01*
Y239929D01*
X246000Y316000D02*
X254000Y324000D01*
Y366000D01*
X265000Y333929D02*
X267929Y331000D01*
X268000D01*
X268000Y331000D01*
X265000Y333929D02*
Y338071D01*
X224000Y162000D02*
X233000Y171000D01*
X224000Y119000D02*
Y162000D01*
X249000Y118000D02*
Y156000D01*
X233000Y171000D02*
X253000D01*
X266000Y184000D01*
X273071D01*
X291000Y201929D01*
X249000Y156000D02*
X270000Y177000D01*
X281000D01*
X357000Y266000D02*
Y302000D01*
X275000Y162000D02*
X284500Y171500D01*
X296500D01*
X315000Y55000D02*
X326200Y66200D01*
X375800D01*
X387000Y55000D01*
X414000D01*
X426000Y67000D01*
X595000D01*
X285000Y55000D02*
X315000D01*
X271000Y69000D02*
X285000Y55000D01*
X491000D02*
X548000D01*
X585000Y18000D01*
X410000Y61000D02*
X422000Y73000D01*
X381000Y72000D02*
X392000Y61000D01*
X321000Y72000D02*
X381000D01*
X311000Y62000D02*
X321000Y72000D01*
X392000Y61000D02*
X410000D01*
X237000Y93000D02*
X245000Y85000D01*
X415000Y79000D02*
X419000Y83000D01*
X518000Y99000D02*
Y123000D01*
X243000Y100000D02*
X250000Y93000D01*
X330000Y89000D02*
X333000Y86000D01*
X502000Y83000D02*
X518000Y99000D01*
X419000Y83000D02*
X502000D01*
X333000Y86000D02*
X411000D01*
X415000Y90000D01*
X233000Y110000D02*
X246000D01*
X485000Y97000D02*
X498000Y110000D01*
Y123000D01*
X246000Y110000D02*
X255000Y101000D01*
X224000Y119000D02*
X233000Y110000D01*
X273000Y77000D02*
X288000Y62000D01*
X311000D01*
X245000Y85000D02*
X275000D01*
X281000Y79000D01*
X415000D01*
X250000Y93000D02*
X276000D01*
X280000Y89000D01*
X330000D01*
X255000Y101000D02*
X277000D01*
X281000Y97000D01*
X485000D01*
X249000Y118000D02*
X259000Y108000D01*
X275000Y122000D02*
X286000Y111000D01*
X275000Y122000D02*
Y162000D01*
X259000Y108000D02*
X279000D01*
X283000Y104000D01*
X470808D01*
X160000Y692000D02*
Y694000D01*
X171000Y705000D01*
Y711000D01*
X177000Y717000D01*
X160000Y655000D02*
Y657000D01*
X174000Y671000D01*
Y682000D01*
X183000Y691000D01*
X167000Y637000D02*
X199000Y669000D01*
X135000Y637000D02*
X167000D01*
X232500Y709500D02*
X237000Y714000D01*
X213990Y691000D02*
X224990Y702000D01*
X183000Y691000D02*
X213990D01*
X224990Y702000D02*
X238000D01*
X244000Y708000D01*
X247000Y701000D02*
X252000Y706000D01*
Y714000D01*
X280000Y723000D02*
X289000D01*
X240000Y693000D02*
X250000D01*
X280000Y723000D01*
X199000Y669000D02*
X216000D01*
X240000Y693000D01*
X244000Y708000D02*
Y721000D01*
X262000Y739000D01*
X269000Y731000D02*
X287000D01*
X262000Y739000D02*
X285000D01*
X311000Y765000D01*
X385000D01*
X244000Y754000D02*
X268000D01*
X278000Y764000D01*
X294000Y757000D02*
X309000Y772000D01*
X278000Y764000D02*
X292000D01*
X211000Y755000D02*
X239000Y783000D01*
X292000D01*
X177000Y717000D02*
X207000D01*
X220000Y730000D01*
X160000Y729000D02*
X202000D01*
X211000Y738000D01*
Y755000D01*
X287000Y731000D02*
X313000Y757000D01*
X383000D01*
X391828Y748172D01*
X292000Y783000D02*
X306050Y797050D01*
X329000D01*
X292000Y764000D02*
X307000Y779000D01*
X331000Y786000D02*
X333000Y788000D01*
X305000Y786000D02*
X331000D01*
X291000Y772000D02*
X305000Y786000D01*
X309000Y772000D02*
X390000D01*
X398000Y764000D01*
X395000Y779000D02*
X402000Y772000D01*
X426000D01*
X333000Y788000D02*
X399000D01*
X410000Y789000D02*
X428000D01*
X440000Y777000D01*
X399000Y788000D02*
X405000Y782000D01*
X394000Y756000D02*
X422000D01*
X428000Y750000D01*
X398000Y764000D02*
X424000D01*
X430500Y757500D01*
X458500D01*
X405000Y782000D02*
X425000D01*
X435000Y772000D01*
X446000Y743500D02*
X449500Y740000D01*
X423500Y743500D02*
X446000D01*
X455000Y750000D02*
X458000Y747000D01*
X428000Y750000D02*
X455000D01*
X628000Y747000D02*
X632000Y743000D01*
Y736929D02*
Y743000D01*
X465000Y777000D02*
X470000Y782000D01*
X619429Y740000D02*
X670000Y689429D01*
Y677000D02*
Y689429D01*
X632000Y736929D02*
X656929Y712000D01*
X649071Y734000D02*
X664071Y719000D01*
X670000D01*
X678000Y711000D01*
X678071Y720000D02*
X682000D01*
X692000Y710000D01*
X660000Y734000D02*
X664071D01*
X655000Y739000D02*
X660000Y734000D01*
X632000Y775000D02*
X637000D01*
X647000Y765000D01*
X627929D02*
X645929Y747000D01*
X651000D01*
X655000Y743000D01*
Y739000D02*
Y743000D01*
X661929Y746000D02*
X664929D01*
X647000Y760929D02*
X661929Y746000D01*
X647000Y760929D02*
Y765000D01*
X659929Y762000D02*
X666000D01*
X671000Y757000D01*
Y751071D02*
Y757000D01*
X639929Y782000D02*
X659929Y762000D01*
X671000Y751071D02*
X674071Y748000D01*
X329000Y797050D02*
X331050Y795000D01*
X404000D01*
X410000Y789000D01*
X548000Y588700D02*
X553000Y593700D01*
X478000Y628071D02*
X482429Y632500D01*
X517700Y544700D02*
Y594700D01*
X527000Y604000D01*
X527000Y588000D02*
X533700Y594700D01*
X548000Y606315D02*
Y614200D01*
X551300Y617500D01*
X543000Y594700D02*
Y601315D01*
X548000Y606315D01*
X538000Y589700D02*
X543000Y594700D01*
X557300Y607300D02*
Y612500D01*
X553000Y603000D02*
X557300Y607300D01*
X553000Y593700D02*
Y603000D01*
X533700Y600000D02*
X538000Y604300D01*
X533700Y594700D02*
Y600000D01*
X542500Y627500D02*
X551300D01*
X527000Y612000D02*
X542500Y627500D01*
X527000Y604000D02*
Y612000D01*
X511000Y547000D02*
Y597000D01*
X453000Y460000D02*
Y613000D01*
X459500Y619500D01*
Y627750D01*
X446000Y615900D02*
X452500Y622399D01*
Y627750D01*
X478000Y617000D02*
Y628071D01*
X490000Y607000D02*
X495500Y612500D01*
X490000Y484000D02*
Y607000D01*
X497000Y603000D02*
X501500Y607500D01*
X511000Y597000D02*
X517000Y603000D01*
X532500Y526500D02*
Y538500D01*
X548000Y528000D02*
Y588700D01*
X546000Y526000D02*
X548000Y528000D01*
X530000Y524000D02*
X532500Y526500D01*
X471000Y610000D02*
X478000Y617000D01*
X480000Y608500D02*
X489000Y617500D01*
X492000Y475000D02*
X497000Y480000D01*
Y603000D01*
X502000Y392000D02*
X511000D01*
X546000Y427000D01*
Y526000D01*
X442000Y418000D02*
X444000Y420000D01*
X392000Y349000D02*
X420000D01*
X424000Y411000D02*
X488000D01*
X514000Y437000D01*
Y516000D01*
X444000Y420000D02*
X484000D01*
X504000Y440000D01*
Y601000D01*
X480000Y459000D02*
Y608500D01*
X479000Y437000D02*
X486000D01*
X492000Y443000D01*
Y475000D01*
X470000Y449000D02*
X480000Y459000D01*
X453000Y436000D02*
X461500D01*
X470000Y444500D02*
Y449000D01*
X461500Y436000D02*
X470000Y444500D01*
X464000Y457000D02*
X471000Y464000D01*
Y610000D01*
X504000Y601000D02*
X509000Y606000D01*
Y610000D01*
X501500Y617500D02*
X509000Y610000D01*
X489000Y387000D02*
X506000Y404000D01*
X521500Y632500D02*
X521500Y632500D01*
X482429Y632500D02*
X521500D01*
X538000Y454000D02*
Y589700D01*
X558000Y398000D02*
X568000Y408000D01*
X564300Y486700D02*
X568000Y483000D01*
Y408000D02*
Y483000D01*
X565000Y391000D02*
X581000Y407000D01*
X444000Y279071D02*
Y321000D01*
X454000Y331000D01*
X459000Y324000D02*
X468000D01*
X468000Y359000D02*
X471000Y362000D01*
X468000Y353000D02*
Y359000D01*
Y353000D02*
X471000Y350000D01*
X482000D01*
X485000Y347000D01*
Y341000D02*
Y347000D01*
X482000Y338000D02*
X485000Y341000D01*
X471000Y338000D02*
X482000D01*
X464000Y331000D02*
X471000Y338000D01*
X454000Y331000D02*
X464000D01*
X436500Y373500D02*
X445000Y382000D01*
X436500Y365500D02*
Y373500D01*
X420000Y349000D02*
X436500Y365500D01*
X363800Y150000D02*
Y179800D01*
X372800Y182800D02*
X375800Y179800D01*
X366800Y182800D02*
X372800D01*
X363800Y179800D02*
X366800Y182800D01*
X375800Y166200D02*
Y179800D01*
X384800Y163200D02*
X387800Y166200D01*
X378800Y163200D02*
X384800D01*
X375800Y166200D02*
X378800Y163200D01*
X338400Y150000D02*
Y170400D01*
X389200Y150000D02*
X397000Y157800D01*
Y196000D01*
X406000Y199000D02*
X409000Y196000D01*
X400000Y199000D02*
X406000D01*
X397000Y196000D02*
X400000Y199000D01*
X412000Y171000D02*
X418000D01*
X421000Y184000D02*
X429000Y192000D01*
X387800Y166200D02*
Y200800D01*
X429000Y192000D02*
Y230000D01*
X443000Y244000D01*
X449000Y237000D02*
Y252071D01*
X443000Y244000D02*
Y255000D01*
X435000Y248000D02*
Y257000D01*
X396000Y209000D02*
X413000D01*
X418500Y214500D01*
Y231500D01*
X387800Y200800D02*
X396000Y209000D01*
X418500Y231500D02*
X435000Y248000D01*
X408000Y243071D02*
X444000Y279071D01*
X338400Y170400D02*
X387000Y219000D01*
X317000Y166000D02*
X383500Y232500D01*
X427000Y276000D02*
X435000Y284000D01*
X383500Y232500D02*
Y240500D01*
X419000Y276000D01*
X427000D01*
X287600Y150000D02*
X303600Y166000D01*
X317000D01*
X435000Y284000D02*
Y337000D01*
X450000Y352000D01*
Y367000D01*
X455000Y372000D01*
X557000Y355000D02*
X562000Y360000D01*
X581071D01*
X501500Y657500D02*
X508000Y664000D01*
X518000D01*
X527000Y655000D01*
X564185D01*
X387000Y219000D02*
X401000D01*
X408000Y226000D01*
Y243071D01*
X496000Y342000D02*
X502000D01*
X468000Y324000D02*
X475000Y331000D01*
X485000D01*
X496000Y342000D01*
X486000Y325000D02*
X496000Y335000D01*
X520571D01*
X527000Y341429D01*
X537071Y355000D02*
X542000Y359929D01*
Y362000D01*
X531636Y365000D02*
X536000D01*
X549864Y378864D01*
X569000D01*
X542000Y362000D02*
X551000Y371000D01*
X578000D01*
X603000Y396000D01*
X445000Y382000D02*
X516000D01*
X556000Y422000D01*
Y555000D01*
X455000Y372000D02*
X517000D01*
X543000Y398000D01*
X558000D01*
X471000Y362000D02*
X518000D01*
X547000Y391000D01*
X565000D01*
X631000Y585101D02*
Y640000D01*
X627500Y468250D02*
X627750Y468000D01*
X612000Y510000D02*
X627500Y494500D01*
X612000Y510000D02*
Y576000D01*
X624000Y588000D01*
X553750Y684000D02*
X556783D01*
X551500Y686250D02*
Y692000D01*
Y686250D02*
X553750Y684000D01*
X572000Y683101D02*
X580101Y675000D01*
X572000Y683101D02*
Y688500D01*
X569500Y691000D02*
X572000Y688500D01*
X580101Y675000D02*
X586101D01*
X624000Y637100D01*
Y588000D02*
Y637100D01*
X619000Y512900D02*
X634500Y497399D01*
X634250Y468000D02*
X634500Y468250D01*
X619000Y512900D02*
Y573101D01*
X631000Y585101D01*
X579000Y686000D02*
X583000Y682000D01*
X572400Y698000D02*
X579000Y691400D01*
Y686000D02*
Y691400D01*
X583000Y682000D02*
X589000D01*
X631000Y640000D01*
X551500Y698000D02*
X572400D01*
X550000Y672000D02*
X568000D01*
X548000Y674000D02*
Y674071D01*
Y674000D02*
X550000Y672000D01*
X556783Y684000D02*
X559000Y686217D01*
Y689500D01*
X560500Y691000D01*
X569500D01*
X505500Y677500D02*
X544571D01*
X486500Y658500D02*
X505500Y677500D01*
X544571D02*
X548000Y674071D01*
X493000Y657500D02*
X501500Y649000D01*
X564528D01*
X573840Y639688D01*
X533700Y667500D02*
X534200Y667000D01*
X566000D01*
X590460Y642540D01*
X527700Y666300D02*
X532000Y662000D01*
X564000D01*
X584920Y641080D01*
X627500Y438250D02*
X627750Y438000D01*
X627500Y438250D02*
Y446500D01*
X636000Y524000D02*
Y566000D01*
X650000Y580000D01*
Y645000D01*
X627500Y446500D02*
X652000Y471000D01*
X636000Y524000D02*
X652000Y508000D01*
Y471000D02*
Y508000D01*
X634250Y438000D02*
X634500Y438250D01*
Y443601D01*
X643000Y526899D02*
Y563101D01*
X657000Y577100D01*
Y647899D01*
X634500Y443601D02*
X659000Y468101D01*
X643000Y526899D02*
X659000Y510900D01*
Y468101D02*
Y510900D01*
X590250Y700250D02*
X593250Y697250D01*
X590250Y700250D02*
Y704250D01*
X593000Y707000D01*
Y710000D01*
X554033Y715033D02*
X587967D01*
X593000Y710000D01*
X608000Y687000D02*
X650000Y645000D01*
X615000Y689900D02*
Y697899D01*
Y689900D02*
X657000Y647899D01*
X597250Y697250D02*
X600000Y700000D01*
X608000Y687000D02*
Y695000D01*
X593250Y697250D02*
X597250D01*
X603000Y700000D02*
X608000Y695000D01*
X600000Y700000D02*
X603000D01*
X531000Y692000D02*
X554033Y715033D01*
X523500Y692000D02*
X531000D01*
X523500Y698000D02*
X524500Y699000D01*
X528101Y699000D01*
X551133Y722032D02*
X590867D01*
X528101Y699000D02*
X551133Y722032D01*
X590867Y722032D02*
X615000Y697899D01*
X554000Y320821D02*
X560179Y327000D01*
X581000D01*
X610000Y356000D01*
X587000Y351000D02*
X612000Y376000D01*
Y381000D01*
X554000Y295000D02*
Y320821D01*
X617343Y356000D02*
X636000Y374657D01*
X660000Y362000D02*
Y366000D01*
X529000Y305000D02*
X555000Y331000D01*
X526000Y305000D02*
X529000D01*
X606000Y312000D02*
X610000D01*
X578657Y284657D02*
X606000Y312000D01*
X610000D02*
X660000Y362000D01*
X612000Y305000D02*
X624000D01*
X613929Y297000D02*
X634000D01*
X639657Y195000D02*
X659000Y214343D01*
X648000Y264000D02*
X658000Y274000D01*
X652000Y278000D02*
Y288071D01*
X710071Y361000D02*
X713000Y363929D01*
Y371000D01*
X684000Y347000D02*
Y358000D01*
X634000Y297000D02*
X684000Y347000D01*
X634500Y468250D02*
Y497399D01*
X627500Y468250D02*
Y494500D01*
X643929Y392000D02*
X648000D01*
X636000Y374657D02*
Y384071D01*
X643929Y392000D01*
X697000Y371000D02*
Y396000D01*
X725000Y424000D01*
X684000Y358000D02*
X697000Y371000D01*
X681429Y268000D02*
X687071D01*
X708000Y378000D02*
Y393000D01*
X735000Y420000D01*
X703000Y373000D02*
X708000Y378000D01*
X713000Y371000D02*
X716000Y374000D01*
Y391000D01*
X741500Y416500D01*
X723000Y388000D02*
X748000Y413000D01*
X754500Y409500D02*
Y482500D01*
X741500Y416500D02*
Y488500D01*
X735000Y420000D02*
Y492000D01*
X778250Y494250D02*
Y582321D01*
X754500Y482500D02*
X769000Y497000D01*
Y581000D01*
X741500Y488500D02*
X753000Y500000D01*
Y583000D01*
X792500Y622500D01*
X735000Y492000D02*
X745000Y502000D01*
Y582929D01*
X748000Y413000D02*
Y486000D01*
X761000Y499000D01*
Y582000D01*
X703000Y361000D02*
Y373000D01*
X710071Y357000D02*
Y361000D01*
X726000Y343000D02*
Y358615D01*
X707000Y343071D02*
Y353929D01*
X710071Y357000D01*
X697000Y355000D02*
X703000Y361000D01*
X869371Y592500D02*
X893000Y616129D01*
X850000Y592500D02*
X869371D01*
X769000Y581000D02*
X799000Y611000D01*
X839750D01*
X844750Y606000D01*
X778250Y582321D02*
X798929Y603000D01*
X839500D01*
X850000Y592500D01*
X842000Y639000D02*
Y639071D01*
X814000Y647000D02*
X822000Y639000D01*
X842000D01*
X821000Y632000D02*
X849071D01*
X812000Y641000D02*
X821000Y632000D01*
X735000Y624000D02*
X752000Y641000D01*
X726000Y624000D02*
X735000D01*
X706000Y584000D02*
X709000Y581000D01*
X706000Y584000D02*
Y590000D01*
X709000Y593000D01*
X720600Y581000D02*
X723600Y578000D01*
X709000Y593000D02*
X727000D01*
X763000Y629000D01*
X709000Y581000D02*
X720600D01*
X723600Y513600D02*
Y578000D01*
X624000Y305000D02*
X669000Y350000D01*
Y379400D01*
X672000Y382400D01*
X682400D01*
X685000Y385000D01*
Y398000D01*
X600000Y211000D02*
X611000D01*
X669000Y255571D02*
X681429Y268000D01*
X611000Y211000D02*
X633000Y233000D01*
Y259000D01*
X652000Y278000D01*
X543000Y204000D02*
Y209000D01*
X548000Y214000D01*
X562000D01*
X603000Y281000D02*
X606000Y278000D01*
X619600Y269000D02*
Y275000D01*
X603000Y281000D02*
Y286071D01*
X603000Y286071D02*
X603000Y286071D01*
X603000Y263000D02*
X606000Y266000D01*
X603000Y242000D02*
Y263000D01*
X606000Y266000D02*
X616600D01*
X619600Y269000D01*
X606000Y278000D02*
X616600D01*
X619600Y275000D01*
X546000Y163000D02*
X552000D01*
X555000Y166000D01*
Y181071D01*
X549000Y199000D02*
X555000Y205000D01*
X566000D01*
X603000Y242000D01*
X631500Y213500D02*
X635500Y217500D01*
X565000Y146000D02*
X568000Y143000D01*
X565000Y146000D02*
Y152000D01*
X578500Y158000D02*
Y164000D01*
X565000Y170000D02*
Y176000D01*
X568000Y179000D01*
X555000Y181071D02*
X559929Y186000D01*
X575000D01*
X600000Y211000D01*
X551000Y188000D02*
X556000Y193000D01*
X566929D01*
X598929Y225000D01*
X631000Y201000D02*
X634000Y204000D01*
X645000Y215000D02*
X648000Y218000D01*
Y264000D01*
X761000Y582000D02*
X794000Y615000D01*
X605000Y156000D02*
Y162000D01*
X592000Y165000D02*
X592000Y165000D01*
X589000Y174000D02*
X592000Y177000D01*
X589000Y168000D02*
X592000Y165000D01*
X589000Y168000D02*
Y174000D01*
X606000Y191000D02*
X610000Y195000D01*
X639657D01*
X592000Y177000D02*
X597000D01*
X606000Y186000D01*
Y191000D01*
X592000Y165000D02*
X602000D01*
X605000Y162000D01*
X582000Y153000D02*
X602000D01*
X602000Y153000D02*
X605000Y156000D01*
X613000Y190000D02*
X618000Y185000D01*
X646000D01*
X669000Y208000D01*
Y255571D01*
X808000Y627500D02*
X817500Y618000D01*
X745000Y582929D02*
X789571Y627500D01*
X808000D01*
X543000Y166000D02*
X546000Y163000D01*
X543000Y166000D02*
Y170600D01*
X540000Y173600D02*
X543000Y170600D01*
X619000Y254071D02*
X645000Y280071D01*
X730000Y385000D02*
X754500Y409500D01*
X726000Y358615D02*
X730000Y362615D01*
Y385000D01*
X733000Y358000D02*
X737041Y362042D01*
X717000Y343686D02*
Y359000D01*
X723000Y365000D01*
Y388000D01*
X658000Y285071D02*
X662929Y290000D01*
X658000Y274000D02*
Y285071D01*
X565000Y152000D02*
X568000Y155000D01*
X575500D01*
X578500Y158000D01*
X565000Y170000D02*
X568000Y167000D01*
X575500D01*
X578500Y164000D01*
X794000Y615000D02*
X799000D01*
X805500Y621500D02*
Y622500D01*
X799000Y615000D02*
X805500Y621500D01*
X510000Y166000D02*
X528000D01*
X495000Y181000D02*
X510000Y166000D01*
X844750Y606000D02*
X856000D01*
X866200Y616200D01*
Y622500D01*
X505000Y181000D02*
Y193000D01*
X511000Y199000D01*
X549000D01*
X595000Y67000D02*
X632000Y104000D01*
X761000Y116000D02*
X772000Y127000D01*
X528000Y90000D02*
X609000D01*
X511000Y73000D02*
X528000Y90000D01*
X609000D02*
X629000Y110000D01*
X422000Y73000D02*
X511000D01*
X415000Y90000D02*
X493000D01*
X508000Y105000D01*
Y123000D01*
X641000Y46600D02*
X653000Y34600D01*
X547000Y103000D02*
X612000D01*
X625000Y116000D01*
X761000D01*
X459000Y111000D02*
X480000Y132000D01*
X286000Y111000D02*
X459000D01*
X539000Y146000D02*
X564000Y121000D01*
X528000Y135000D02*
X540000Y123000D01*
X470808Y104000D02*
X494808Y128000D01*
X522000D01*
X547000Y103000D01*
X477000Y167000D02*
Y242071D01*
Y167000D02*
X498000Y146000D01*
X539000D01*
X502926Y153000D02*
X544000D01*
X484498Y171427D02*
X502926Y153000D01*
X484498Y171427D02*
Y238498D01*
X517429Y282500D02*
X541500D01*
X477000Y242071D02*
X517429Y282500D01*
X541500D02*
X554000Y295000D01*
X484498Y238498D02*
X518000Y272000D01*
X544000D01*
X583750Y311750D01*
X590000Y326000D02*
X595929D01*
X583750Y319750D02*
X590000Y326000D01*
X713600Y170000D02*
X728200Y155400D01*
X622000Y160000D02*
X640000Y178000D01*
X717000D01*
X725000Y170000D01*
X739000D01*
X753600Y155400D01*
X675000Y244500D02*
X675571D01*
X738071Y182000D01*
X683000Y244500D02*
X687429D01*
X742429Y189500D01*
X738071Y182000D02*
X748000D01*
X772000Y158000D01*
Y127000D02*
Y158000D01*
X742429Y189500D02*
X751500D01*
X691000Y254500D02*
X694500Y251000D01*
X713000D01*
X728000Y236000D01*
Y224000D02*
Y236000D01*
X766000Y110000D02*
X780000Y124000D01*
Y161000D01*
X751500Y189500D02*
X780000Y161000D01*
X728000Y224000D02*
X788000Y164000D01*
X632000Y104000D02*
X771000D01*
X788000Y121000D01*
Y164000D01*
X641500Y93500D02*
X776500D01*
X800000Y117000D01*
X781000Y85000D02*
X810000Y114000D01*
X798000Y73000D02*
X826000Y101000D01*
X786000Y79000D02*
X818000Y111000D01*
X807000Y46000D02*
X835000Y74000D01*
X742000Y228000D02*
X800000Y170000D01*
Y117000D02*
Y170000D01*
X810000Y114000D02*
Y175000D01*
X818000Y111000D02*
Y177000D01*
X826000Y101000D02*
Y179000D01*
X738000Y355000D02*
X740000Y353000D01*
X742000Y228000D02*
Y300000D01*
X753000Y311000D01*
X757000Y228000D02*
X810000Y175000D01*
X762000Y478000D02*
X778250Y494250D01*
X725000Y424000D02*
Y499000D01*
X734000Y508000D01*
Y586071D01*
X771500Y223500D02*
X818000Y177000D01*
X757000Y228000D02*
Y258000D01*
X754000Y261000D02*
X757000Y258000D01*
X754000Y261000D02*
Y290000D01*
X761000Y263000D02*
Y287000D01*
X771500Y223500D02*
Y252500D01*
X761000Y263000D02*
X771500Y252500D01*
X771000Y265000D02*
Y286071D01*
X785000Y362000D02*
Y377000D01*
X793000Y385000D01*
X787000Y389000D02*
Y466000D01*
X737041Y362042D02*
Y379041D01*
X762000Y404000D01*
Y478000D01*
X753000Y311000D02*
Y378000D01*
X773000Y398000D01*
X781000Y393000D02*
Y469000D01*
X801000Y331000D02*
Y368071D01*
X806000Y373071D01*
Y382000D01*
X793000Y252000D02*
Y283000D01*
X802000Y292000D01*
X790000Y525000D02*
X794000Y529000D01*
X808000Y477000D02*
Y495000D01*
X823000Y470000D02*
Y486000D01*
X831000Y456000D02*
Y486000D01*
X786000Y233000D02*
Y288000D01*
Y233000D02*
X835000Y184000D01*
Y74000D02*
Y184000D01*
X843000Y60000D02*
Y188000D01*
X807000Y235000D02*
X851000Y191000D01*
Y47000D02*
Y191000D01*
X800000Y231000D02*
X843000Y188000D01*
X800000Y231000D02*
Y275000D01*
X586000Y130000D02*
X593000Y137000D01*
X614000D01*
X622000Y145000D01*
X567000Y130000D02*
X586000D01*
X622000Y145000D02*
Y160000D01*
X838000Y452000D02*
Y467000D01*
X808000Y283000D02*
X814000Y289000D01*
Y293000D02*
X817000Y296000D01*
X821000D01*
X814000Y289000D02*
Y293000D01*
X800000Y275000D02*
X808000Y283000D01*
X814000Y241000D02*
Y269000D01*
X807000Y235000D02*
Y269929D01*
X821000Y253000D02*
Y259000D01*
X823000Y261000D01*
X823071D01*
X831000Y228000D02*
Y255000D01*
X838000Y246000D02*
Y252000D01*
X821000Y296000D02*
X828000Y303000D01*
Y378000D01*
X807000Y269929D02*
X835000Y297929D01*
Y381000D01*
X814000Y269000D02*
X842000Y297000D01*
Y384000D01*
X568000Y179000D02*
X578929D01*
X600929Y201000D01*
X631000D01*
X846000Y396000D02*
Y467929D01*
X871000Y402000D02*
Y452000D01*
X864000Y400000D02*
Y455000D01*
X856932Y397068D02*
Y459932D01*
X648000Y392000D02*
X700000Y444000D01*
Y486000D01*
X695000Y491000D02*
X700000Y486000D01*
X654000Y388071D02*
X706000Y440071D01*
X879000Y446000D02*
X884000Y441000D01*
X885000Y416000D02*
X933500D01*
X794000Y529000D02*
Y573000D01*
X800000Y579000D01*
X800000Y508000D02*
Y530000D01*
X810000Y540000D01*
Y576071D01*
X641000Y46600D02*
Y71000D01*
X655000Y85000D01*
X781000D01*
X808000Y495000D02*
X842000Y529000D01*
Y548071D01*
X831600Y551000D02*
X834600Y554000D01*
Y560000D01*
X831600Y563000D02*
X834600Y560000D01*
X802000Y500000D02*
X816000Y514000D01*
X810000Y525000D02*
Y530000D01*
Y525000D02*
X816000Y519000D01*
Y514000D02*
Y519000D01*
X821000Y551000D02*
X831600D01*
X821000Y551000D02*
X821000Y551000D01*
X821000Y551000D02*
X821000D01*
X818000Y548000D02*
X821000Y551000D01*
X821000Y563000D02*
X831600D01*
X818000Y566000D02*
X821000Y563000D01*
X810000Y530000D02*
X818000Y538000D01*
Y548000D01*
Y566000D02*
Y581000D01*
X1005272Y500000D02*
X1019272Y486000D01*
X948000Y502000D02*
X950000Y500000D01*
X1005272D01*
X885000Y399000D02*
X889000Y395000D01*
X910000D01*
X879000Y407000D02*
X910000D01*
X920000Y397000D01*
X879000Y438000D02*
X886000Y431000D01*
X924000D01*
X879000Y423000D02*
X929000D01*
X884000Y441000D02*
X922750D01*
X926750Y445000D01*
X955343D02*
X966000Y455657D01*
Y466000D01*
X926750Y445000D02*
X955343D01*
X976000Y456000D02*
Y466000D01*
X924000Y431000D02*
X930000Y437000D01*
X957000D01*
X976000Y456000D01*
X929000Y423000D02*
X935000Y429000D01*
X897000Y454000D02*
X925000D01*
X920000Y476000D02*
X1000000D01*
X916000Y482000D02*
X1004000D01*
X1016000Y470000D01*
X911500Y488000D02*
X1008000D01*
X1019000Y477000D01*
X889929Y487500D02*
X904429Y502000D01*
X948000D01*
X846000Y467929D02*
X865571Y487500D01*
X889929D01*
X871000Y452000D02*
X883000Y464000D01*
X908000D01*
X920000Y476000D01*
X864000Y455000D02*
X880000Y471000D01*
X905000D01*
X916000Y482000D01*
X856932Y459932D02*
X875000Y478000D01*
X901500D01*
X911500Y488000D01*
X935000Y429000D02*
X958929D01*
X988000Y466000D02*
X996000D01*
X999000Y463000D01*
Y457000D02*
Y463000D01*
X996000Y454000D02*
X999000Y457000D01*
X983929Y454000D02*
X996000D01*
X958929Y429000D02*
X983929Y454000D01*
X910000Y395000D02*
X927000Y378000D01*
X955929D01*
X997929Y420000D01*
X889000Y446000D02*
X897000Y454000D01*
X982000Y439000D02*
X1012000D01*
X1021000Y448000D01*
Y455000D01*
X925000Y454000D02*
X935000Y464000D01*
X956000D01*
X848000Y253000D02*
X907000Y312000D01*
X838000Y252000D02*
X881000Y295000D01*
X823071Y261000D02*
X856000Y293929D01*
Y386000D01*
X846000Y396000D02*
X856000Y386000D01*
X831000Y255000D02*
X868000Y292000D01*
Y386000D01*
X856932Y397068D02*
X868000Y386000D01*
X907000Y312000D02*
Y318000D01*
X896500Y324000D02*
Y330000D01*
X904000Y345000D02*
X907000Y342000D01*
Y336000D02*
Y342000D01*
X898000Y345000D02*
X904000D01*
X892000Y351000D02*
X898000Y345000D01*
X884000Y318000D02*
X890000D01*
X893000Y315000D01*
Y309000D02*
Y315000D01*
X884000Y306000D02*
X890000D01*
X893000Y309000D01*
X881000Y303000D02*
X884000Y306000D01*
X881000Y295000D02*
Y303000D01*
Y321000D02*
X884000Y318000D01*
X886000Y360000D02*
Y366000D01*
X881000Y371000D02*
X886000Y366000D01*
X864000Y400000D02*
X881000Y383000D01*
Y371000D02*
Y383000D01*
Y321000D02*
Y355000D01*
X886000Y360000D01*
X517000Y610800D02*
X528700Y622500D01*
X517000Y603000D02*
Y610800D01*
X538000Y604300D02*
Y614000D01*
X546500Y622500D01*
X557300D01*
X506000Y404000D02*
X508000D01*
X530000Y426000D01*
Y524000D01*
X729000Y636000D02*
X746000Y653000D01*
X816000D01*
X732000Y630000D02*
X749000Y647000D01*
X814000D01*
X697000Y611000D02*
X702000D01*
X721000Y630000D01*
X732000D01*
X693000Y625000D02*
X705000D01*
X716000Y636000D01*
X729000D01*
X738000Y618000D02*
X755000Y635000D01*
X516000Y173000D02*
Y177000D01*
X527000Y188000D01*
X551000D01*
X609071Y225000D02*
X619000Y234929D01*
X598929Y225000D02*
X609071D01*
X619000Y234929D02*
Y254071D01*
X850729Y618000D02*
X860229Y627500D01*
X860300D01*
X817500Y618000D02*
X850729D01*
X817986Y626000D02*
X851000D01*
X857500Y632500D01*
X842000Y639071D02*
X844929Y642000D01*
X849071Y647000D02*
Y647000D01*
X822000D02*
X849071D01*
X849071Y632000D02*
X855571Y638500D01*
X849071Y647000D02*
X852571Y650500D01*
X857500Y632500D02*
X865000D01*
X855571Y638500D02*
X868500D01*
X852571Y650500D02*
X876500D01*
X912000Y604071D02*
X915000Y601071D01*
Y578000D02*
Y601071D01*
X919000Y608000D02*
X923000Y604000D01*
X1025000Y499000D02*
X1031000D01*
X1004000Y530000D02*
X1013000Y521000D01*
X1004000Y583000D02*
X1041000D01*
X1072000Y552000D01*
X1007000Y576000D02*
X1037000D01*
X1065000Y548000D01*
Y537000D02*
Y548000D01*
X1081000Y532750D02*
X1087750D01*
X1092750Y537750D01*
X1198000Y530000D02*
X1199000D01*
X1210000Y529000D02*
Y547000D01*
X1172929Y584000D02*
X1173000D01*
X1210000Y547000D01*
X1199000Y530000D02*
X1203000Y534000D01*
Y542071D01*
X1009536Y565465D02*
X1017535D01*
X1068000Y515000D01*
X1112000D01*
X1008385Y558272D02*
X1013728D01*
X997000Y556000D02*
X1001000Y552000D01*
X1009000D01*
X1005521Y544479D02*
X1056000Y494000D01*
X1088071D01*
X1009000Y552000D02*
X1060000Y501000D01*
X1089000D01*
X1095000Y495000D01*
X1013728Y558272D02*
X1064000Y508000D01*
X1107000D01*
X1112000Y515000D02*
X1118000Y509000D01*
X844929Y642000D02*
X851000D01*
X853500Y644500D01*
X872500D01*
X1088071Y494000D02*
X1094071Y488000D01*
X1107000Y508000D02*
X1113000Y502000D01*
X1273000D01*
X1278000Y507000D01*
X1309000D01*
X1315400Y513400D01*
Y519600D01*
X1251000Y482000D02*
X1303200D01*
X1315400Y494200D01*
X692000Y671000D02*
Y710000D01*
Y671000D02*
X697000Y666000D01*
Y655000D02*
Y666000D01*
X698000Y673000D02*
Y713000D01*
X693000Y718000D02*
Y720071D01*
Y718000D02*
X698000Y713000D01*
X708000Y606000D02*
X726000Y624000D01*
X734000Y586071D02*
X766929Y619000D01*
X772000D01*
X782000Y629000D01*
X795035Y591035D02*
X810000Y576071D01*
X803000Y598000D02*
X806000Y595000D01*
X818000Y581000D02*
X821700Y584700D01*
X806000Y595000D02*
X818000D01*
X821700Y591300D01*
Y584700D02*
Y591300D01*
X609000Y61000D02*
X641500Y93500D01*
X609000Y43000D02*
Y61000D01*
Y43000D02*
X617400Y34600D01*
X627600D01*
X724000Y667000D02*
X726000D01*
X733000Y651000D02*
X743000Y661000D01*
X749000D01*
X738000Y687000D02*
Y688000D01*
X749000Y699000D01*
X724000Y677000D02*
Y689000D01*
X726000Y667000D02*
X755000Y696000D01*
X724000Y689000D02*
X727000Y692000D01*
X731000D01*
X744000Y705000D01*
X704000Y661000D02*
X714000Y651000D01*
X704000Y661000D02*
Y667000D01*
X714000Y651000D02*
X733000D01*
X698000Y673000D02*
X704000Y667000D01*
X761000Y673000D02*
Y685000D01*
X769000Y693000D01*
Y721000D01*
X693000Y738929D02*
X695929Y736000D01*
X699000D01*
X710000Y725000D01*
X693000Y738929D02*
Y745000D01*
X703000Y741000D02*
Y743071D01*
X730000Y767071D02*
Y770000D01*
X730000Y767071D02*
X730000Y767071D01*
X730000Y762929D02*
Y767071D01*
X755000Y696000D02*
Y737929D01*
X730000Y762929D02*
X755000Y737929D01*
X693000Y758000D02*
Y769000D01*
X688000Y774000D02*
X693000Y769000D01*
X683000Y755000D02*
X693000Y745000D01*
X697000Y749071D02*
X703000Y743071D01*
X697000Y749071D02*
Y754000D01*
X693000Y758000D02*
X697000Y754000D01*
X661000Y880000D02*
X670000D01*
X590000Y898000D02*
X621000D01*
X711000Y808000D01*
X631000Y879000D02*
X705000Y805000D01*
X497500Y844500D02*
X542429D01*
X501098Y852000D02*
X539000D01*
X575000Y888000D01*
X542429Y844500D02*
X576929Y879000D01*
X494000Y837000D02*
X552000D01*
X568000Y853000D01*
X639000D01*
X449500Y740000D02*
X619429D01*
X458000Y747000D02*
X628000D01*
X458500Y757500D02*
X626500D01*
X433000Y765000D02*
X627929D01*
X435000Y772000D02*
X629000D01*
X597500Y846000D02*
X637000D01*
X681000Y802000D01*
X636500Y837500D02*
X675000Y799000D01*
X233500Y947500D02*
Y963000D01*
Y947500D02*
X241000Y940000D01*
X272000D01*
X319000Y986000D02*
X333000Y1000000D01*
X319000Y968000D02*
Y986000D01*
Y968000D02*
X345500Y941500D01*
X354500D01*
X162000Y930000D02*
X173000Y941000D01*
X183000D01*
X126000Y943000D02*
X140000Y957000D01*
X182000D01*
X218000Y921000D01*
X704000Y677000D02*
Y722071D01*
X714000Y677000D02*
Y700000D01*
X709000Y705000D02*
X714000Y700000D01*
X709000Y705000D02*
Y713071D01*
X710000Y714071D01*
Y725000D01*
X735464Y714536D02*
Y731607D01*
X713000Y762000D02*
Y782000D01*
Y762000D02*
X744000Y731000D01*
Y705000D02*
Y731000D01*
X703000Y749929D02*
X715929Y737000D01*
X721000D01*
X730000Y728000D01*
Y713929D02*
Y728000D01*
X720000Y715929D02*
X723000Y718929D01*
X703000Y741000D02*
X711000Y733000D01*
X718071D02*
X723000Y728071D01*
X711000Y733000D02*
X718071D01*
X723000Y718929D02*
Y728071D01*
X470000Y782000D02*
X503929D01*
X542000D02*
X639929D01*
X503929D02*
X507929Y786000D01*
X538000D01*
X542000Y782000D01*
X681000Y795929D02*
Y802000D01*
X675000Y794000D02*
Y799000D01*
Y794000D02*
X683000Y786000D01*
Y755000D02*
Y786000D01*
X666500Y777000D02*
X667250Y777750D01*
X671750Y777750D02*
X672500Y777000D01*
X536000Y794000D02*
X536750Y794750D01*
X536000Y800000D02*
X536750Y799250D01*
X536750Y794750D02*
X586114D01*
X591364Y800000D01*
X536750Y799250D02*
X584250D01*
X589500Y804500D01*
X654500Y784500D02*
X657500D01*
X652500Y786500D02*
X654500Y784500D01*
X652500Y786500D02*
Y789500D01*
X659000Y786000D02*
X662000D01*
X654000Y791000D02*
Y794000D01*
Y794000D01*
X657500Y784500D02*
X659000Y786000D01*
X652500Y789500D02*
X654000Y791000D01*
X681000Y795929D02*
X688000Y788929D01*
Y774000D02*
Y788929D01*
X662000Y786000D02*
X667250Y780750D01*
Y777750D02*
Y780750D01*
X671750Y777750D02*
Y782614D01*
X591364Y800000D02*
X648000D01*
X654000Y794000D01*
X589500Y804500D02*
X649864D01*
X671750Y782614D01*
X328000Y859000D02*
X356000Y831000D01*
X467000D01*
X477000Y821000D01*
X122000Y740000D02*
X122750Y740750D01*
X166500Y745500D02*
X213500Y792500D01*
X489250Y794750D02*
X490000Y794000D01*
X448250Y794750D02*
X489250D01*
X432500Y810500D02*
X448250Y794750D01*
X122000Y746000D02*
X122750Y745250D01*
X130636Y750000D02*
X164636D01*
X211636Y797000D01*
X261136Y833500D02*
X323864D01*
X434364Y815000D02*
X450114Y799250D01*
X489250D01*
X323864Y833500D02*
X342364Y815000D01*
X434364D01*
X489250Y799250D02*
X490000Y800000D01*
X122750Y740750D02*
X127750D01*
X132500Y745500D01*
X166500D01*
X122750Y745250D02*
X125886D01*
X130636Y750000D01*
X340500Y810500D02*
X432500D01*
X322000Y829000D02*
X340500Y810500D01*
X283250Y815000D02*
X284000Y814250D01*
Y807000D02*
Y814250D01*
X288500Y805136D02*
Y814250D01*
X279250Y802250D02*
X284000Y807000D01*
X281114Y797750D02*
X288500Y805136D01*
X683500Y456418D02*
Y492136D01*
X614132Y715000D02*
X615566Y716434D01*
X620202D02*
X631000Y705636D01*
X612000Y715000D02*
X614132D01*
X615566Y716434D02*
X620202D01*
X631000Y698636D02*
Y705636D01*
X679000Y494000D02*
X704500Y519500D01*
Y560136D01*
X612000Y721000D02*
X612066Y720934D01*
X622066D02*
X635500Y707500D01*
X612066Y720934D02*
X622066D01*
X635500Y700500D02*
Y707500D01*
X683500Y492136D02*
X709000Y517636D01*
Y562000D01*
X634250Y403750D02*
X635000Y403000D01*
X689000Y1018000D02*
X708000Y1037000D01*
X213500Y792500D02*
X226500D01*
X263000Y829000D01*
X322000D01*
X211636Y797000D02*
X224636D01*
X261136Y833500D01*
X269000Y804500D02*
Y806750D01*
X262750Y808500D02*
X267250D01*
X261000Y806750D02*
X262750Y808500D01*
X267250D02*
X269000Y806750D01*
X261000Y803500D02*
Y806750D01*
X269000Y804500D02*
X271250Y802250D01*
X279250D01*
X288500Y814250D02*
X289250Y815000D01*
X344000Y966000D02*
Y991250D01*
X346500Y993750D01*
X183000Y941000D02*
X213000Y911000D01*
X245000D01*
X262000Y894000D01*
X311000D01*
X76539Y886250D02*
X108789Y854000D01*
X169000D01*
X183000Y840000D01*
X61657Y989000D02*
X136657Y1064000D01*
X596000D01*
X663000Y997000D01*
X660000Y925000D02*
Y943000D01*
X1069000Y629000D02*
Y676071D01*
X1081000Y526250D02*
X1181750D01*
X1184000Y524000D01*
X235000Y329000D02*
Y381000D01*
X218000Y398000D02*
X235000Y381000D01*
X354000Y782000D02*
X357000Y779000D01*
X395000D01*
X307000D02*
X344000D01*
X347000Y782000D01*
X354000D01*
X1077000Y633279D02*
Y679929D01*
X1031000Y725929D02*
X1077000Y679929D01*
X892000Y351000D02*
Y381000D01*
X871000Y402000D02*
X892000Y381000D01*
X220000Y730000D02*
Y747000D01*
X245000Y772000D01*
X291000D01*
X218000Y704000D02*
X223500Y709500D01*
X232500D01*
X640000Y740000D02*
X646000Y734000D01*
X640000Y740000D02*
Y744000D01*
X626500Y757500D02*
X640000Y744000D01*
X773000Y398000D02*
Y473000D01*
X790000Y490000D01*
Y525000D01*
X842000Y548071D02*
X851000Y557071D01*
X842000Y571929D02*
Y590000D01*
X851000Y557071D02*
Y562929D01*
X842000Y571929D02*
X851000Y562929D01*
X778000Y227000D02*
X826000Y179000D01*
X778000Y227000D02*
Y258000D01*
X771000Y265000D02*
X778000Y258000D01*
X783000Y696000D02*
X786000Y693000D01*
X783000Y696000D02*
Y743000D01*
X717000Y857000D02*
X732000Y842000D01*
X717000Y857000D02*
Y873000D01*
X1001000Y690000D02*
Y789000D01*
Y690000D02*
X1056000Y635000D01*
X968000Y822000D02*
X1001000Y789000D01*
X968000Y822000D02*
Y835000D01*
X962000Y841000D02*
X968000Y835000D01*
X914000Y826000D02*
Y876000D01*
Y826000D02*
X946500Y793500D01*
Y758500D02*
Y793500D01*
X675000Y893000D02*
Y910000D01*
X632000Y156000D02*
X646000Y170000D01*
X713600D01*
X603500Y128500D02*
X620500D01*
X632000Y140000D01*
Y156000D01*
X706000Y440071D02*
Y498000D01*
X705000Y499000D02*
X706000Y498000D01*
X652000Y366000D02*
X652000D01*
X569000Y283000D02*
X652000Y366000D01*
X1069000Y629000D02*
X1119000Y579000D01*
X1166071D01*
X1203000Y542071D01*
X1077000Y633279D02*
X1121279Y589000D01*
X1167929D01*
X1172929Y584000D01*
X409000Y174000D02*
Y196000D01*
Y174000D02*
X412000Y171000D01*
X421000Y174000D02*
Y184000D01*
X418000Y171000D02*
X421000Y174000D01*
X460000Y161000D02*
X486000Y135000D01*
X528000D01*
X460000Y161000D02*
Y245000D01*
X1007000Y517000D02*
X1025000Y499000D01*
X823000Y486000D02*
X841000Y504000D01*
X880000D01*
X893000Y517000D01*
X1007000D01*
X839929Y511929D02*
X871929D01*
X890000Y530000D01*
X1004000D01*
X170000Y75000D02*
X176000Y69000D01*
X271000D01*
X300000Y196000D02*
X308000D01*
X329000Y217000D01*
Y238000D01*
X698000Y261000D02*
X730000Y293000D01*
X255000Y747000D02*
X276000D01*
X286000Y757000D01*
X294000D01*
X567750Y829750D02*
X598750D01*
X560000Y822000D02*
X567750Y829750D01*
X598750D02*
X606500Y837500D01*
X486000Y822000D02*
X560000D01*
X490500Y829500D02*
X556500D01*
X564500Y837500D01*
X589000D01*
X522000Y434000D02*
Y518000D01*
X509000Y521000D02*
X514000Y516000D01*
X509000Y521000D02*
Y545000D01*
X511000Y547000D01*
X513000Y527000D02*
X522000Y518000D01*
X513000Y527000D02*
Y540000D01*
X517700Y544700D01*
X435000Y257000D02*
X452000Y274000D01*
Y317000D01*
X459000Y324000D01*
X414000Y411000D02*
X422000Y403000D01*
X491000D01*
X522000Y434000D01*
X117000Y621000D02*
X132000Y606000D01*
X117000Y621000D02*
Y711400D01*
X113000Y715399D02*
X117000Y711400D01*
X110000Y618101D02*
Y708500D01*
X106000Y712500D02*
X110000Y708500D01*
X471000Y1040000D02*
X483000Y1028000D01*
X575000D01*
X660000Y943000D01*
X703800Y34600D02*
X718400Y20000D01*
X803000D01*
X843000Y60000D01*
X679000Y18000D02*
X683000Y14000D01*
X818000D01*
X851000Y47000D01*
X604000Y1073000D02*
X673000Y1004000D01*
X674000D01*
X933500Y416000D02*
X940500Y423000D01*
X966000D01*
X982000Y439000D01*
X920000Y397000D02*
X964000D01*
X972000Y405000D01*
Y410071D01*
X993929Y432000D01*
X54000Y147000D02*
Y154000D01*
Y147000D02*
X101000Y100000D01*
X145000D01*
X170000Y75000D01*
X714000Y599000D02*
X733000Y618000D01*
X738000D01*
M02*
