%FSLAX44Y44*%
%MOMM*%
G71*
G01*
G75*
G04 Layer_Color=65535*
%ADD10R,0.2500X0.8000*%
%ADD11R,0.4000X0.6500*%
%ADD12R,0.3250X0.6500*%
%ADD13R,0.6000X0.5000*%
%ADD14R,1.2000X1.1500*%
%ADD15R,2.5000X3.3000*%
%ADD16R,1.8288X3.4290*%
%ADD17R,0.6400X4.7000*%
%ADD18R,0.6400X2.5400*%
%ADD19R,1.4500X0.3000*%
%ADD20R,0.8500X0.2800*%
%ADD21R,0.2800X0.8500*%
%ADD22R,3.1500X3.1500*%
%ADD23R,3.5000X3.5000*%
%ADD24R,0.8500X0.3000*%
%ADD25R,0.3000X0.8500*%
%ADD26R,3.5000X3.5000*%
%ADD27R,1.0400X0.3800*%
%ADD28R,1.0000X0.2800*%
%ADD29R,0.2800X1.0000*%
%ADD30R,3.7000X3.7000*%
%ADD31R,0.8000X0.2400*%
%ADD32R,0.2400X0.8000*%
%ADD33R,2.2000X2.2000*%
%ADD34R,1.0000X0.5500*%
%ADD35R,1.2000X0.5800*%
%ADD36R,0.5800X1.2000*%
%ADD37R,0.9000X0.7000*%
%ADD38R,0.7000X0.9000*%
%ADD39C,1.0160*%
%ADD40R,1.9000X2.6000*%
%ADD41R,0.2800X1.4000*%
%ADD42R,0.8000X0.8000*%
%ADD43R,0.7500X0.4000*%
%ADD44R,0.9000X1.2000*%
%ADD45R,0.9000X0.8000*%
%ADD46R,0.6858X0.5588*%
%ADD47R,0.5000X0.6000*%
%ADD48R,1.6000X0.3000*%
%ADD49R,2.3700X2.4300*%
%ADD50R,2.4300X2.3700*%
%ADD51R,1.6000X0.9000*%
%ADD52R,0.9000X1.6000*%
%ADD53R,0.9000X1.3000*%
%ADD54R,1.3000X0.9000*%
%ADD55R,0.8000X0.8000*%
%ADD56R,0.5000X0.5000*%
%ADD57R,0.5000X0.5000*%
%ADD58R,0.3000X2.6000*%
%ADD59R,0.6000X1.0500*%
%ADD60R,0.7000X0.2800*%
%ADD61R,2.3368X1.6500*%
%ADD62O,0.2800X0.8500*%
%ADD63R,1.2000X0.9000*%
%ADD64R,0.8000X0.9000*%
%ADD65R,2.7000X1.4000*%
%ADD66R,0.7000X2.0000*%
%ADD67R,1.2000X1.2000*%
%ADD68R,1.5000X2.6000*%
%ADD69R,1.0000X2.6000*%
%ADD70R,1.9000X1.8000*%
%ADD71R,1.3500X0.4000*%
%ADD72R,2.9500X1.5000*%
%ADD73R,2.3000X1.0000*%
%ADD74R,2.0000X1.2500*%
%ADD75R,1.7000X0.8000*%
%ADD76C,0.2500*%
%ADD77C,0.3000*%
%ADD78C,0.5000*%
%ADD79C,0.2800*%
%ADD80C,0.4000*%
%ADD81C,0.2400*%
%ADD82C,0.8000*%
%ADD83C,0.5800*%
%ADD84C,0.6000*%
%ADD85C,0.4300*%
%ADD86C,0.3500*%
%ADD87C,1.0000*%
%ADD88C,0.2830*%
%ADD89C,1.7000*%
%ADD90C,5.0000*%
%ADD91O,4.0000X5.0000*%
%ADD92R,1.7000X1.7000*%
%ADD93R,1.7000X1.7000*%
%ADD94C,7.4000*%
%ADD95C,5.2000*%
%ADD96C,1.4000*%
%ADD97R,1.4000X1.4000*%
%ADD98R,2.0000X1.6000*%
%ADD99O,2.0000X1.6000*%
%ADD100R,1.6000X2.0000*%
%ADD101O,1.6000X2.0000*%
%ADD102C,1.3000*%
%ADD103C,2.0000*%
%ADD104O,1.3000X1.1000*%
%ADD105C,2.4000*%
%ADD106O,1.6000X2.0000*%
%ADD107R,1.6000X2.0000*%
%ADD108C,1.9000*%
%ADD109R,1.9000X1.9000*%
%ADD110C,3.6000*%
%ADD111R,3.6000X3.6000*%
%ADD112C,1.8000*%
%ADD113C,2.2000*%
%ADD114C,2.7000*%
%ADD115C,3.2500*%
%ADD116C,1.5748*%
%ADD117C,3.0000*%
%ADD118C,1.5240*%
%ADD119O,3.3000X4.0000*%
%ADD120C,3.0000*%
G04:AMPARAMS|DCode=121|XSize=1.25mm|YSize=1.1mm|CornerRadius=0.462mm|HoleSize=0mm|Usage=FLASHONLY|Rotation=0.000|XOffset=0mm|YOffset=0mm|HoleType=Round|Shape=RoundedRectangle|*
%AMROUNDEDRECTD121*
21,1,1.2500,0.1760,0,0,0.0*
21,1,0.3260,1.1000,0,0,0.0*
1,1,0.9240,0.1630,-0.0880*
1,1,0.9240,-0.1630,-0.0880*
1,1,0.9240,-0.1630,0.0880*
1,1,0.9240,0.1630,0.0880*
%
%ADD121ROUNDEDRECTD121*%
G04:AMPARAMS|DCode=122|XSize=1.9mm|YSize=2.425mm|CornerRadius=0.57mm|HoleSize=0mm|Usage=FLASHONLY|Rotation=0.000|XOffset=0mm|YOffset=0mm|HoleType=Round|Shape=RoundedRectangle|*
%AMROUNDEDRECTD122*
21,1,1.9000,1.2850,0,0,0.0*
21,1,0.7600,2.4250,0,0,0.0*
1,1,1.1400,0.3800,-0.6425*
1,1,1.1400,-0.3800,-0.6425*
1,1,1.1400,-0.3800,0.6425*
1,1,1.1400,0.3800,0.6425*
%
%ADD122ROUNDEDRECTD122*%
%ADD123R,1.5000X1.5000*%
%ADD124C,1.5000*%
%ADD125C,0.4500*%
%ADD126C,1.0000*%
%ADD127C,1.0000*%
%ADD128C,1.6000*%
G04:AMPARAMS|DCode=129|XSize=2mm|YSize=2mm|CornerRadius=0mm|HoleSize=0mm|Usage=FLASHONLY|Rotation=0.000|XOffset=0mm|YOffset=0mm|HoleType=Round|Shape=Relief|Width=0.5mm|Gap=0.2mm|Entries=4|*
%AMTHD129*
7,0,0,2.0000,1.6000,0.5000,45*
%
%ADD129THD129*%
%ADD130C,2.2000*%
%ADD131C,3.8000*%
G04:AMPARAMS|DCode=132|XSize=3.7mm|YSize=3.7mm|CornerRadius=0mm|HoleSize=0mm|Usage=FLASHONLY|Rotation=0.000|XOffset=0mm|YOffset=0mm|HoleType=Round|Shape=Relief|Width=0.5mm|Gap=0.2mm|Entries=4|*
%AMTHD132*
7,0,0,3.7000,3.3000,0.5000,45*
%
%ADD132THD132*%
G04:AMPARAMS|DCode=133|XSize=2.1mm|YSize=2.1mm|CornerRadius=0mm|HoleSize=0mm|Usage=FLASHONLY|Rotation=0.000|XOffset=0mm|YOffset=0mm|HoleType=Round|Shape=Relief|Width=0.5mm|Gap=0.2mm|Entries=4|*
%AMTHD133*
7,0,0,2.1000,1.7000,0.5000,45*
%
%ADD133THD133*%
%ADD134C,1.6500*%
G04:AMPARAMS|DCode=135|XSize=4.2mm|YSize=4.2mm|CornerRadius=0mm|HoleSize=0mm|Usage=FLASHONLY|Rotation=0.000|XOffset=0mm|YOffset=0mm|HoleType=Round|Shape=Relief|Width=0.5mm|Gap=0.2mm|Entries=4|*
%AMTHD135*
7,0,0,4.2000,3.8000,0.5000,45*
%
%ADD135THD135*%
G04:AMPARAMS|DCode=136|XSize=1.8mm|YSize=1.8mm|CornerRadius=0mm|HoleSize=0mm|Usage=FLASHONLY|Rotation=0.000|XOffset=0mm|YOffset=0mm|HoleType=Round|Shape=Relief|Width=0.5mm|Gap=0.2mm|Entries=4|*
%AMTHD136*
7,0,0,1.8000,1.4000,0.5000,45*
%
%ADD136THD136*%
G04:AMPARAMS|DCode=137|XSize=3.2mm|YSize=3.2mm|CornerRadius=0mm|HoleSize=0mm|Usage=FLASHONLY|Rotation=0.000|XOffset=0mm|YOffset=0mm|HoleType=Round|Shape=Relief|Width=0.5mm|Gap=0.2mm|Entries=4|*
%AMTHD137*
7,0,0,3.2000,2.8000,0.5000,45*
%
%ADD137THD137*%
G04:AMPARAMS|DCode=138|XSize=1.74mm|YSize=1.74mm|CornerRadius=0mm|HoleSize=0mm|Usage=FLASHONLY|Rotation=0.000|XOffset=0mm|YOffset=0mm|HoleType=Round|Shape=Relief|Width=0.5mm|Gap=0.2mm|Entries=4|*
%AMTHD138*
7,0,0,1.7400,1.3400,0.5000,45*
%
%ADD138THD138*%
G04:AMPARAMS|DCode=139|XSize=2.35mm|YSize=2.35mm|CornerRadius=0mm|HoleSize=0mm|Usage=FLASHONLY|Rotation=0.000|XOffset=0mm|YOffset=0mm|HoleType=Round|Shape=Relief|Width=0.5mm|Gap=0.2mm|Entries=4|*
%AMTHD139*
7,0,0,2.3500,1.9500,0.5000,45*
%
%ADD139THD139*%
%ADD140C,1.3400*%
G04:AMPARAMS|DCode=141|XSize=2.6mm|YSize=2.6mm|CornerRadius=0mm|HoleSize=0mm|Usage=FLASHONLY|Rotation=0.000|XOffset=0mm|YOffset=0mm|HoleType=Round|Shape=Relief|Width=0.5mm|Gap=0.2mm|Entries=4|*
%AMTHD141*
7,0,0,2.6000,2.2000,0.5000,45*
%
%ADD141THD141*%
%ADD142C,1.6900*%
G04:AMPARAMS|DCode=143|XSize=4.18mm|YSize=4.18mm|CornerRadius=0mm|HoleSize=0mm|Usage=FLASHONLY|Rotation=0.000|XOffset=0mm|YOffset=0mm|HoleType=Round|Shape=Relief|Width=0.5mm|Gap=0.2mm|Entries=4|*
%AMTHD143*
7,0,0,4.1800,3.7800,0.5000,45*
%
%ADD143THD143*%
G04:AMPARAMS|DCode=144|XSize=2.09mm|YSize=2.09mm|CornerRadius=0mm|HoleSize=0mm|Usage=FLASHONLY|Rotation=0.000|XOffset=0mm|YOffset=0mm|HoleType=Round|Shape=Relief|Width=0.5mm|Gap=0.2mm|Entries=4|*
%AMTHD144*
7,0,0,2.0900,1.6900,0.5000,45*
%
%ADD144THD144*%
%ADD145C,2.4000*%
G04:AMPARAMS|DCode=146|XSize=2.8mm|YSize=2.8mm|CornerRadius=0mm|HoleSize=0mm|Usage=FLASHONLY|Rotation=0.000|XOffset=0mm|YOffset=0mm|HoleType=Round|Shape=Relief|Width=0.5mm|Gap=0.2mm|Entries=4|*
%AMTHD146*
7,0,0,2.8000,2.4000,0.5000,45*
%
%ADD146THD146*%
G04:AMPARAMS|DCode=147|XSize=2.3mm|YSize=2.3mm|CornerRadius=0mm|HoleSize=0mm|Usage=FLASHONLY|Rotation=0.000|XOffset=0mm|YOffset=0mm|HoleType=Round|Shape=Relief|Width=0.5mm|Gap=0.2mm|Entries=4|*
%AMTHD147*
7,0,0,2.3000,1.9000,0.5000,45*
%
%ADD147THD147*%
%ADD148C,3.8500*%
%ADD149C,1.9500*%
G04:AMPARAMS|DCode=150|XSize=3.3mm|YSize=3.3mm|CornerRadius=0mm|HoleSize=0mm|Usage=FLASHONLY|Rotation=0.000|XOffset=0mm|YOffset=0mm|HoleType=Round|Shape=Relief|Width=0.5mm|Gap=0.2mm|Entries=4|*
%AMTHD150*
7,0,0,3.3000,2.9000,0.5000,45*
%
%ADD150THD150*%
%ADD151C,2.3500*%
G04:AMPARAMS|DCode=152|XSize=3.4mm|YSize=3.4mm|CornerRadius=0mm|HoleSize=0mm|Usage=FLASHONLY|Rotation=0.000|XOffset=0mm|YOffset=0mm|HoleType=Round|Shape=Relief|Width=0.5mm|Gap=0.2mm|Entries=4|*
%AMTHD152*
7,0,0,3.4000,3.0000,0.5000,45*
%
%ADD152THD152*%
G04:AMPARAMS|DCode=153|XSize=4mm|YSize=4mm|CornerRadius=0mm|HoleSize=0mm|Usage=FLASHONLY|Rotation=0.000|XOffset=0mm|YOffset=0mm|HoleType=Round|Shape=Relief|Width=0.5mm|Gap=0.2mm|Entries=4|*
%AMTHD153*
7,0,0,4.0000,3.6000,0.5000,45*
%
%ADD153THD153*%
G04:AMPARAMS|DCode=154|XSize=3mm|YSize=3mm|CornerRadius=0mm|HoleSize=0mm|Usage=FLASHONLY|Rotation=0.000|XOffset=0mm|YOffset=0mm|HoleType=Round|Shape=Relief|Width=0.5mm|Gap=0.2mm|Entries=4|*
%AMTHD154*
7,0,0,3.0000,2.6000,0.5000,45*
%
%ADD154THD154*%
%ADD155C,2.1500*%
G04:AMPARAMS|DCode=156|XSize=1.85mm|YSize=1.85mm|CornerRadius=0mm|HoleSize=0mm|Usage=FLASHONLY|Rotation=0.000|XOffset=0mm|YOffset=0mm|HoleType=Round|Shape=Relief|Width=0.5mm|Gap=0.2mm|Entries=4|*
%AMTHD156*
7,0,0,1.8500,1.4500,0.5000,45*
%
%ADD156THD156*%
%ADD157C,2.0000*%
%ADD158C,2.9500*%
G04:AMPARAMS|DCode=159|XSize=1.7mm|YSize=1.7mm|CornerRadius=0mm|HoleSize=0mm|Usage=FLASHONLY|Rotation=0.000|XOffset=0mm|YOffset=0mm|HoleType=Round|Shape=Relief|Width=0.5mm|Gap=0.2mm|Entries=4|*
%AMTHD159*
7,0,0,1.7000,1.3000,0.5000,45*
%
%ADD159THD159*%
G04:AMPARAMS|DCode=160|XSize=1.9mm|YSize=1.9mm|CornerRadius=0mm|HoleSize=0mm|Usage=FLASHONLY|Rotation=0.000|XOffset=0mm|YOffset=0mm|HoleType=Round|Shape=Relief|Width=0.5mm|Gap=0.2mm|Entries=4|*
%AMTHD160*
7,0,0,1.9000,1.5000,0.5000,45*
%
%ADD160THD160*%
%ADD161C,0.8000*%
%ADD162C,1.1000*%
%ADD163C,0.2000*%
%ADD164R,2.3000X3.2000*%
%ADD165R,0.6000X2.0000*%
%ADD166R,0.2500X0.6000*%
%ADD167R,3.3000X3.3000*%
%ADD168R,0.6000X0.2300*%
%ADD169R,0.2300X0.6000*%
%ADD170R,0.2500X0.5000*%
%ADD171R,1.6000X0.3500*%
%ADD172R,1.6000X0.8000*%
%ADD173R,3.0000X2.1000*%
%ADD174R,0.7620X1.9050*%
%ADD175R,3.6000X3.0000*%
%ADD176R,2.5000X0.8000*%
%ADD177R,0.4000X0.7500*%
%ADD178C,0.6350*%
%ADD179R,1.4000X0.7500*%
%ADD180R,1.1000X1.2000*%
%ADD181R,1.2000X2.7000*%
%ADD182R,1.5000X1.9000*%
%ADD183R,1.0000X1.2000*%
%ADD184R,1.0000X0.8001*%
%ADD185R,1.0000X2.8001*%
%ADD186R,1.3000X1.8999*%
%ADD187R,1.0000X1.2000*%
%ADD188R,0.7000X1.2000*%
%ADD189C,0.2300*%
%ADD190C,0.2200*%
%ADD191C,0.2540*%
%ADD192C,0.2032*%
%ADD193C,0.1500*%
D76*
X23000Y988000D02*
Y1002995D01*
X30498D01*
X32997Y1000496D01*
Y995498D01*
X30498Y992998D01*
X23000D01*
X40494Y997997D02*
X45493D01*
X47992Y995498D01*
Y988000D01*
X40494D01*
X37995Y990499D01*
X40494Y992998D01*
X47992D01*
X52990Y988000D02*
Y997997D01*
X60488D01*
X62987Y995498D01*
Y988000D01*
X75483D02*
X70485D01*
X67985Y990499D01*
Y995498D01*
X70485Y997997D01*
X75483D01*
X77982Y995498D01*
Y992998D01*
X67985D01*
X82981Y988000D02*
X87979D01*
X85480D01*
Y1002995D01*
X82981D01*
D77*
X1120000Y939005D02*
X1115335D01*
X1117667D01*
Y953000D01*
X1120000D01*
X1115335D01*
X1108337D02*
Y939005D01*
X1099007Y953000D01*
Y939005D01*
X1094342Y953000D02*
Y939005D01*
X1087344D01*
X1085011Y941337D01*
Y946002D01*
X1087344Y948335D01*
X1094342D01*
X1080346Y939005D02*
Y950667D01*
X1078014Y953000D01*
X1073348D01*
X1071016Y950667D01*
Y939005D01*
X1066351D02*
X1057020D01*
X1061685D01*
Y953000D01*
X1052355Y943670D02*
X1050023D01*
Y946002D01*
X1052355D01*
Y943670D01*
Y950667D02*
X1050023D01*
Y953000D01*
X1052355D01*
Y950667D01*
X1026697Y946002D02*
X1017366D01*
X1022032Y941337D02*
Y950667D01*
X1012701Y939005D02*
X1003371D01*
Y941337D01*
X1012701Y950667D01*
Y953000D01*
X998706Y939005D02*
Y948335D01*
X994041Y953000D01*
X989376Y948335D01*
Y939005D01*
X984710Y946002D02*
X975380D01*
X961385Y953000D02*
X970715D01*
X961385Y943670D01*
Y941337D01*
X963717Y939005D01*
X968382D01*
X970715Y941337D01*
X949722Y953000D02*
Y939005D01*
X956719Y946002D01*
X947389D01*
X942724Y939005D02*
Y948335D01*
X938059Y953000D01*
X933394Y948335D01*
Y939005D01*
X914733D02*
Y953000D01*
X907735D01*
X905403Y950667D01*
Y941337D01*
X907735Y939005D01*
X914733D01*
X891407Y941337D02*
X893740Y939005D01*
X898405D01*
X900738Y941337D01*
Y950667D01*
X898405Y953000D01*
X893740D01*
X891407Y950667D01*
D80*
X104473Y1117182D02*
X417739D01*
X874000Y931000D02*
X878000D01*
D86*
X40994Y379004D02*
Y391000D01*
X31997D01*
Y385002D01*
Y391000D01*
X23000D01*
X40994Y361010D02*
Y373006D01*
X23000D01*
Y361010D01*
X31997Y373006D02*
Y367008D01*
X40994Y355012D02*
X23000D01*
Y346015D01*
X25999Y343016D01*
X37995D01*
X40994Y346015D01*
Y355012D01*
Y325021D02*
Y337018D01*
X23000D01*
Y325021D01*
X31997Y337018D02*
Y331019D01*
X40994Y319023D02*
X28998D01*
X23000Y313025D01*
X28998Y307027D01*
X40994D01*
Y289033D02*
Y301029D01*
X23000D01*
Y289033D01*
X31997Y301029D02*
Y295031D01*
X40994Y283035D02*
X23000D01*
Y271039D01*
Y247047D02*
X34996D01*
X40994Y241049D01*
X34996Y235051D01*
X23000D01*
X31997D01*
Y247047D01*
X34996Y217056D02*
Y226053D01*
X31997Y229053D01*
X25999D01*
X23000Y226053D01*
Y217056D01*
X34996Y208059D02*
Y202061D01*
X31997Y199062D01*
X23000D01*
Y208059D01*
X25999Y211058D01*
X28998Y208059D01*
Y199062D01*
X40994Y181068D02*
X23000D01*
Y190065D01*
X25999Y193064D01*
X31997D01*
X34996Y190065D01*
Y181068D01*
X23000Y166073D02*
Y172071D01*
X25999Y175070D01*
X31997D01*
X34996Y172071D01*
Y166073D01*
X31997Y163074D01*
X28998D01*
Y175070D01*
X23000Y157076D02*
X34996D01*
Y154077D01*
X31997Y151078D01*
X23000D01*
X31997D01*
X34996Y148079D01*
X31997Y145080D01*
X23000D01*
X34996Y139082D02*
X25999D01*
X23000Y136083D01*
Y127086D01*
X20001D01*
X17002Y130084D01*
Y133083D01*
X23000Y127086D02*
X34996D01*
D163*
X452000Y764500D02*
G03*
X452000Y884500I-80000J60000D01*
G01*
X290000D02*
G03*
X290000Y764500I80000J-60000D01*
G01*
X300000Y965500D02*
G03*
X290000Y955000I250J-10250D01*
G01*
X452000D02*
G03*
X442000Y965500I-10250J250D01*
G01*
X290000Y694000D02*
G03*
X300000Y683500I10250J-250D01*
G01*
X442000D02*
G03*
X452000Y694000I-250J10250D01*
G01*
X1216200Y664300D02*
G03*
X1223800Y664300I3800J0D01*
G01*
X1315400D02*
G03*
X1323000Y664300I3800J0D01*
G01*
X1265600D02*
G03*
X1273200Y664300I3800J0D01*
G01*
X1097350Y507506D02*
G03*
X1084650Y507506I-6350J0D01*
G01*
X243175Y647600D02*
G03*
X236825Y647600I-3175J0D01*
G01*
X728600Y759825D02*
G03*
X728600Y766175I0J3175D01*
G01*
X1131175Y595600D02*
G03*
X1124825Y595600I-3175J0D01*
G01*
X1084175Y701600D02*
G03*
X1077825Y701600I-3175J0D01*
G01*
X1084175Y795600D02*
G03*
X1077825Y795600I-3175J0D01*
G01*
X728000Y924992D02*
G03*
X728000Y934992I0J5000D01*
G01*
X693000Y1125000D02*
G03*
X696000Y1121500I3250J-250D01*
G01*
X890000D02*
G03*
X893000Y1125000I-250J3250D01*
G01*
X334200Y565499D02*
Y575499D01*
X324500Y578999D02*
X325500D01*
X315800Y565499D02*
Y575499D01*
X452000Y818000D02*
Y955000D01*
X495000Y777000D02*
X541000D01*
Y851000D01*
X495000Y777000D02*
Y851000D01*
X495000D02*
X541000D01*
X331000Y608000D02*
Y681000D01*
X289000D02*
X331000D01*
X289000Y608000D02*
X331000D01*
X289000Y608000D02*
X289000Y608000D01*
X289000Y608000D02*
Y681000D01*
X373000Y608000D02*
Y667000D01*
X475000D01*
X373000Y608000D02*
X475000D01*
Y667000D01*
X443000Y651000D02*
X455000D01*
Y631000D02*
Y651000D01*
X443000Y631000D02*
X455000D01*
X443000D02*
Y651000D01*
X889570Y334000D02*
X892000D01*
X910000D02*
X912430D01*
X889570Y337860D02*
X912430D01*
Y292140D02*
Y337860D01*
X889570Y292140D02*
Y337860D01*
Y292140D02*
X912430D01*
X917570Y334000D02*
X920000D01*
X938000D02*
X940430D01*
X917570Y337860D02*
X940430D01*
Y292140D02*
Y337860D01*
X917570Y292140D02*
Y337860D01*
Y292140D02*
X940430D01*
X608000Y776000D02*
X620000D01*
X608000D02*
Y796000D01*
X620000D01*
Y776000D02*
Y796000D01*
X300000Y683500D02*
X361000D01*
X381000D02*
X442000D01*
X394000Y965500D02*
X442000D01*
X368000D02*
X374000D01*
X300000D02*
X348000D01*
X290000Y694000D02*
Y955000D01*
X452000Y694000D02*
Y808000D01*
X1164500Y937000D02*
Y949000D01*
X1164000Y885000D02*
Y897000D01*
X1158000Y885000D02*
X1250500D01*
X1158000Y949000D02*
X1250500D01*
X1158000Y937000D02*
Y949000D01*
Y885000D02*
Y897000D01*
X1250500Y885000D02*
Y897000D01*
Y937000D02*
Y949000D01*
X1249500Y596000D02*
Y608000D01*
Y648000D02*
Y660000D01*
X1342000Y648000D02*
Y660000D01*
Y596000D02*
Y608000D01*
X1249500Y596000D02*
X1342000D01*
X1249500Y660000D02*
X1342000D01*
X1336000Y648000D02*
Y660000D01*
X1335500Y596000D02*
Y608000D01*
X1208250Y1152500D02*
Y1176000D01*
X1202250Y1158500D02*
X1208250Y1152500D01*
X1214250Y1158500D01*
X577300Y1100D02*
Y89000D01*
Y1100D02*
X830300D01*
X577300Y89000D02*
X830300D01*
Y1100D02*
Y89000D01*
X803900Y101000D02*
Y188900D01*
X601700Y188600D02*
X602000Y188900D01*
X803900D01*
X601700Y101000D02*
X803900D01*
X601700D02*
Y188600D01*
X1261000Y393100D02*
X1348900D01*
X1348600Y595300D02*
X1348900Y595000D01*
Y393100D02*
Y595000D01*
X1261000Y393100D02*
Y595300D01*
X1348600D01*
X1192000Y664300D02*
X1216200D01*
X1223800D02*
X1265600D01*
X1273200D02*
X1315400D01*
X1323000D02*
X1347600D01*
X1191600D02*
Y750300D01*
X1347600D01*
Y664300D02*
Y750300D01*
X513000Y725000D02*
X563000D01*
X513000Y525000D02*
X563000D01*
X573000Y535000D01*
X563000Y725000D02*
X573000Y715000D01*
X573000Y702000D02*
Y715000D01*
Y535000D02*
Y548000D01*
X513000Y525000D02*
Y548000D01*
Y702000D02*
Y725000D01*
X817000Y725000D02*
X867000D01*
X817000Y525000D02*
X867000D01*
X877000Y535000D01*
X867000Y725000D02*
X877000Y715000D01*
X877000Y702000D02*
Y715000D01*
Y535000D02*
Y548000D01*
X817000Y525000D02*
Y548000D01*
Y702000D02*
Y725000D01*
X1248000Y753000D02*
Y855000D01*
X1209500D02*
X1248000D01*
X1209500Y753000D02*
X1248000D01*
X1209500D02*
Y855000D01*
X1206000Y259000D02*
X1209000Y256000D01*
X1253000D02*
X1256000D01*
Y259000D01*
Y303000D02*
Y306000D01*
X1206000D02*
X1209000D01*
X1206000Y303000D02*
Y306000D01*
X1253000D02*
X1256000D01*
X1042000Y291000D02*
Y294000D01*
X1039000Y341000D02*
X1042000D01*
Y338000D02*
Y341000D01*
X1039000Y291000D02*
X1042000D01*
X992000D02*
X995000D01*
X992000D02*
Y294000D01*
Y338000D02*
X995000Y341000D01*
X1077000Y380000D02*
X1080000D01*
X1127000D02*
Y383000D01*
X1124000Y380000D02*
X1127000D01*
X1077000D02*
Y383000D01*
Y427000D02*
Y430000D01*
X1080000D01*
X1124000D02*
X1127000Y427000D01*
X1076000Y507000D02*
X1106000D01*
X1076000Y539000D02*
X1106000D01*
X1162000Y673500D02*
X1188000D01*
X1162000Y749700D02*
X1188000D01*
Y673500D02*
Y749800D01*
X1162000Y673500D02*
Y749200D01*
X127000Y182700D02*
X153000D01*
X127000Y106500D02*
X153000D01*
X127000Y106400D02*
Y182700D01*
X153000Y107000D02*
Y182700D01*
X121900Y679000D02*
Y705000D01*
X172700Y679000D02*
Y705000D01*
X121900D02*
X172700D01*
X121900Y679000D02*
X172700D01*
X121900Y716000D02*
Y742000D01*
X172700Y716000D02*
Y742000D01*
X121900D02*
X172700D01*
X121900Y716000D02*
X172700D01*
X121900Y642000D02*
Y668000D01*
X172700Y642000D02*
Y668000D01*
X121900D02*
X172700D01*
X121900Y642000D02*
X172700D01*
X124000Y264900D02*
Y434900D01*
Y264900D02*
X189000D01*
X124000Y434900D02*
X189000D01*
Y264900D02*
Y434900D01*
X693000Y710000D02*
Y717000D01*
X686000Y710000D02*
X693000D01*
X631000D02*
Y717000D01*
Y710000D02*
X638000D01*
X631000Y765000D02*
Y768500D01*
X693000Y765000D02*
Y772000D01*
X686000D02*
X693000D01*
X634500D02*
X638000D01*
X631000Y768500D02*
X634500Y772000D01*
X627000Y221000D02*
X631000Y217000D01*
X627000Y253000D02*
Y257000D01*
X631000D01*
X663000D02*
X667000D01*
Y253000D02*
Y257000D01*
Y217000D02*
Y221000D01*
X663000Y217000D02*
X667000D01*
X1060160Y573190D02*
Y580810D01*
X1041000Y561100D02*
X1059000D01*
X1041000Y592850D02*
X1059000D01*
X1197160Y558190D02*
Y565810D01*
X1178000Y546100D02*
X1196000D01*
X1178000Y577850D02*
X1196000D01*
X243175Y647600D02*
X259050D01*
X220950D02*
X236825D01*
X220950D02*
Y698400D01*
X259050D01*
Y647600D02*
Y698400D01*
X728600Y743950D02*
Y759825D01*
Y766175D02*
Y782050D01*
X779400D01*
Y743950D02*
Y782050D01*
X728600Y743950D02*
X779400D01*
X1131175Y595600D02*
X1147050D01*
X1108950D02*
X1124825D01*
X1108950D02*
Y646400D01*
X1147050D01*
Y595600D02*
Y646400D01*
X1084175Y701600D02*
X1100050D01*
X1061950D02*
X1077825D01*
X1061950D02*
Y752400D01*
X1100050D01*
Y701600D02*
Y752400D01*
X1084175Y795600D02*
X1100050D01*
X1061950D02*
X1077825D01*
X1061950D02*
Y846400D01*
X1100050D01*
Y795600D02*
Y846400D01*
X729015Y256700D02*
X742985D01*
X729015Y231300D02*
X742985D01*
Y250350D02*
Y256700D01*
Y231300D02*
Y237650D01*
X777015Y256700D02*
X790985D01*
X777015Y231300D02*
X790985D01*
Y250350D02*
Y256700D01*
Y231300D02*
Y237650D01*
X466700Y66015D02*
Y79985D01*
X441300Y66015D02*
Y79985D01*
X460350Y66015D02*
X466700D01*
X441300D02*
X447650D01*
X1231000Y158000D02*
X1260000D01*
X1178002D02*
X1208000D01*
X1241000Y18000D02*
X1260000D01*
Y158000D01*
X1178000Y18000D02*
Y158000D01*
Y18000D02*
X1181000D01*
Y-22000D02*
Y18000D01*
X1241000Y-22000D02*
Y18000D01*
X1181000Y-22000D02*
X1241000D01*
X1011000Y158000D02*
X1040000D01*
X958002D02*
X988000D01*
X1021000Y18000D02*
X1040000D01*
Y158000D01*
X958000Y18000D02*
Y158000D01*
Y18000D02*
X961000D01*
Y-22000D02*
Y18000D01*
X1021000Y-22000D02*
Y18000D01*
X961000Y-22000D02*
X1021000D01*
X1121000Y158000D02*
X1150000D01*
X1068002D02*
X1098000D01*
X1131000Y18000D02*
X1150000D01*
Y158000D01*
X1068000Y18000D02*
Y158000D01*
Y18000D02*
X1071000D01*
Y-22000D02*
Y18000D01*
X1131000Y-22000D02*
Y18000D01*
X1071000Y-22000D02*
X1131000D01*
X901000Y158000D02*
X930000D01*
X848002D02*
X878000D01*
X911000Y18000D02*
X930000D01*
Y158000D01*
X848000Y18000D02*
Y158000D01*
Y18000D02*
X851000D01*
Y-22000D02*
Y18000D01*
X911000Y-22000D02*
Y18000D01*
X851000Y-22000D02*
X911000D01*
X261000Y1182500D02*
Y1206000D01*
X255000Y1188500D02*
X261000Y1182500D01*
X267000Y1188500D01*
X93000Y1182000D02*
Y1205500D01*
X429000Y1182000D02*
Y1205500D01*
X625000Y834000D02*
X693000D01*
X625000Y798000D02*
Y834000D01*
Y798000D02*
X693000D01*
Y834000D01*
X1256000Y768800D02*
Y967000D01*
Y768800D02*
X1274000Y750800D01*
X1276000Y1008800D02*
X1344000D01*
X1258000Y990800D02*
X1276000Y1008800D01*
X1344000Y750800D02*
Y1008800D01*
X728000Y907000D02*
Y925000D01*
Y935000D02*
Y953000D01*
X828000Y907000D02*
Y953000D01*
X533380Y11760D02*
Y44780D01*
Y11760D02*
X548620D01*
Y44780D01*
X533380Y42240D02*
X548620D01*
X533380Y44780D02*
X548620D01*
X469380Y11760D02*
Y44780D01*
Y11760D02*
X484620D01*
Y44780D01*
X469380Y42240D02*
X484620D01*
X469380Y44780D02*
X484620D01*
X467620Y1053220D02*
Y1086240D01*
X452380D02*
X467620D01*
X452380Y1053220D02*
Y1086240D01*
Y1055760D02*
X467620D01*
X452380Y1053220D02*
X467620D01*
X557380Y11760D02*
Y44780D01*
Y11760D02*
X572620D01*
Y44780D01*
X557380Y42240D02*
X572620D01*
X557380Y44780D02*
X572620D01*
X513380Y11760D02*
Y44780D01*
Y11760D02*
X528620D01*
Y44780D01*
X513380Y42240D02*
X528620D01*
X513380Y44780D02*
X528620D01*
X493380Y11760D02*
Y44780D01*
Y11760D02*
X508620D01*
Y44780D01*
X493380Y42240D02*
X508620D01*
X493380Y44780D02*
X508620D01*
X363500Y66000D02*
Y68500D01*
X370000Y38550D02*
X373000D01*
X383000D02*
X417000D01*
X427000D02*
X430000D01*
X369450Y66000D02*
Y68500D01*
X363500D02*
X369450D01*
X430550D02*
X436500D01*
X430550Y66000D02*
Y68500D01*
X436500Y66000D02*
Y68500D01*
X382000Y-31450D02*
X418000D01*
X382000D02*
Y1550D01*
X418000Y-31450D02*
Y1550D01*
X436500D02*
Y39000D01*
X363500Y1550D02*
X436500D01*
X363500D02*
Y39000D01*
X263500Y66000D02*
Y68500D01*
X270000Y38550D02*
X273000D01*
X283000D02*
X317000D01*
X327000D02*
X330000D01*
X269450Y66000D02*
Y68500D01*
X263500D02*
X269450D01*
X330550D02*
X336500D01*
X330550Y66000D02*
Y68500D01*
X336500Y66000D02*
Y68500D01*
X282000Y-31450D02*
X318000D01*
X282000D02*
Y1550D01*
X318000Y-31450D02*
Y1550D01*
X336500D02*
Y39000D01*
X263500Y1550D02*
X336500D01*
X263500D02*
Y39000D01*
X182000Y-11450D02*
X218000D01*
X182000D02*
Y1550D01*
X218000Y-11450D02*
Y1550D01*
X236500D02*
Y39000D01*
X163500Y66000D02*
Y68500D01*
Y1550D02*
X236500D01*
X163500D02*
Y39000D01*
X170000Y38550D02*
X173000D01*
X183000D02*
X217000D01*
X227000D02*
X230000D01*
X169450Y66000D02*
Y68500D01*
X163500D02*
X169450D01*
X230550D02*
X236500D01*
X230550Y66000D02*
Y68500D01*
X236500Y66000D02*
Y68500D01*
X972000Y1135000D02*
Y1162300D01*
X1088000Y1135000D02*
Y1162300D01*
X947000Y1120300D02*
X1113000D01*
X947000Y960900D02*
X1113000D01*
X962000Y1162300D02*
X1098000D01*
X947000Y1048600D02*
Y1120300D01*
Y960900D02*
Y1013400D01*
X1113000Y960900D02*
Y1013400D01*
Y1048600D02*
Y1120300D01*
X1030000Y1162500D02*
Y1186000D01*
X1024000Y1168500D02*
X1030000Y1162500D01*
X1036000Y1168500D01*
X962000Y1162300D02*
Y1185800D01*
X1098000Y1162300D02*
Y1185800D01*
X230000Y809000D02*
X252000D01*
X230000Y791000D02*
X252000D01*
X92000Y752000D02*
X114000D01*
X92000Y734000D02*
X114000D01*
X625000Y1112000D02*
Y1132000D01*
X505000Y1112000D02*
Y1132000D01*
X672500D02*
Y1155500D01*
X457500Y1132000D02*
Y1155500D01*
X565000Y1132500D02*
Y1156000D01*
X559000Y1138500D02*
X565000Y1132500D01*
X571000Y1138500D01*
X457500Y1132000D02*
X672500D01*
X631000Y1020000D02*
Y1102000D01*
Y962000D02*
Y981000D01*
X499000Y962000D02*
Y981000D01*
X513000Y927000D02*
X615000D01*
X499000Y1020000D02*
Y1102000D01*
X631000D01*
X72500Y692000D02*
X92500D01*
X72500Y726000D02*
X92500D01*
X72500Y706000D02*
Y708000D01*
X92500Y706000D02*
Y712000D01*
X874380Y497430D02*
X889620D01*
X874380Y474570D02*
X889620D01*
X666380Y469570D02*
X681620D01*
X666380Y492430D02*
X681620D01*
X632000Y372000D02*
X644000D01*
X632000D02*
Y392000D01*
X644000D01*
Y372000D02*
Y392000D01*
X648000Y372000D02*
X660000D01*
X648000D02*
Y392000D01*
X660000D01*
Y372000D02*
Y392000D01*
X892000Y572000D02*
Y584000D01*
X912000D01*
Y572000D02*
Y584000D01*
X892000Y572000D02*
X912000D01*
X1091000Y566000D02*
X1103000D01*
X1091000D02*
Y586000D01*
X1103000D01*
Y566000D02*
Y586000D01*
X1075000Y566000D02*
X1087000D01*
X1075000D02*
Y586000D01*
X1087000D01*
Y566000D02*
Y586000D01*
X1308000Y223000D02*
Y235000D01*
X1288000Y223000D02*
X1308000D01*
X1288000D02*
Y235000D01*
X1308000D01*
X1267000Y319000D02*
X1279000D01*
X1267000D02*
Y339000D01*
X1279000D01*
Y319000D02*
Y339000D01*
X669000Y784000D02*
Y796000D01*
X649000Y784000D02*
X669000D01*
X649000D02*
Y796000D01*
X669000D01*
X530000Y379000D02*
Y391000D01*
X510000Y379000D02*
X530000D01*
X510000D02*
Y391000D01*
X530000D01*
X763000Y207000D02*
X775000D01*
X763000D02*
Y227000D01*
X775000D01*
Y207000D02*
Y227000D01*
X747000Y207000D02*
X759000D01*
X747000D02*
Y227000D01*
X759000D01*
Y207000D02*
Y227000D01*
X779000Y207000D02*
X791000D01*
X779000D02*
Y227000D01*
X791000D01*
Y207000D02*
Y227000D01*
X795000Y207000D02*
X807000D01*
X795000D02*
Y227000D01*
X807000D01*
Y207000D02*
Y227000D01*
X648000Y689000D02*
X660000D01*
Y669000D02*
Y689000D01*
X648000Y669000D02*
X660000D01*
X648000D02*
Y689000D01*
X900000Y475000D02*
X912000D01*
X900000D02*
Y495000D01*
X912000D01*
Y475000D02*
Y495000D01*
X1049000Y515000D02*
X1061000D01*
X1049000D02*
Y535000D01*
X1061000D01*
Y515000D02*
Y535000D01*
X1049000Y511000D02*
X1061000D01*
Y491000D02*
Y511000D01*
X1049000Y491000D02*
X1061000D01*
X1049000D02*
Y511000D01*
X451000Y32000D02*
X463000D01*
Y12000D02*
Y32000D01*
X451000Y12000D02*
X463000D01*
X451000D02*
Y32000D01*
X773000Y604000D02*
Y616000D01*
X793000D01*
Y604000D02*
Y616000D01*
X773000Y604000D02*
X793000D01*
X1137000Y177000D02*
Y189000D01*
X1117000Y177000D02*
X1137000D01*
X1117000D02*
Y189000D01*
X1137000D01*
X1024000Y240000D02*
Y252000D01*
X1004000Y240000D02*
X1024000D01*
X1004000D02*
Y252000D01*
X1024000D01*
X980000Y240000D02*
Y252000D01*
X1000000D01*
Y240000D02*
Y252000D01*
X980000Y240000D02*
X1000000D01*
X1020000Y235000D02*
X1032000D01*
Y215000D02*
Y235000D01*
X1020000Y215000D02*
X1032000D01*
X1020000D02*
Y235000D01*
X1004000D02*
X1016000D01*
Y215000D02*
Y235000D01*
X1004000Y215000D02*
X1016000D01*
X1004000D02*
Y235000D01*
X1089000Y190000D02*
Y202000D01*
X1069000Y190000D02*
X1089000D01*
X1069000D02*
Y202000D01*
X1089000D01*
X1045000Y190000D02*
Y202000D01*
X1065000D01*
Y190000D02*
Y202000D01*
X1045000Y190000D02*
X1065000D01*
X1069000Y219000D02*
Y231000D01*
X1089000D01*
Y219000D02*
Y231000D01*
X1069000Y219000D02*
X1089000D01*
X1065000D02*
Y231000D01*
X1045000Y219000D02*
X1065000D01*
X1045000D02*
Y231000D01*
X1065000D01*
X942000Y249000D02*
X954000D01*
X942000D02*
Y269000D01*
X954000D01*
Y249000D02*
Y269000D01*
X877000Y287000D02*
X889000D01*
Y267000D02*
Y287000D01*
X877000Y267000D02*
X889000D01*
X877000D02*
Y287000D01*
X929000Y192000D02*
Y204000D01*
X909000Y192000D02*
X929000D01*
X909000D02*
Y204000D01*
X929000D01*
X885000Y192000D02*
Y204000D01*
X905000D01*
Y192000D02*
Y204000D01*
X885000Y192000D02*
X905000D01*
X937000Y277000D02*
Y289000D01*
X917000Y277000D02*
X937000D01*
X917000D02*
Y289000D01*
X937000D01*
X893000Y277000D02*
Y289000D01*
X913000D01*
Y277000D02*
Y289000D01*
X893000Y277000D02*
X913000D01*
X723000Y712000D02*
Y724000D01*
X703000Y712000D02*
X723000D01*
X703000D02*
Y724000D01*
X723000D01*
X723000Y806000D02*
Y818000D01*
X703000Y806000D02*
X723000D01*
X703000D02*
Y818000D01*
X723000D01*
X723000Y728000D02*
Y740000D01*
X703000Y728000D02*
X723000D01*
X703000D02*
Y740000D01*
X723000D01*
Y744000D02*
Y756000D01*
X703000Y744000D02*
X723000D01*
X703000D02*
Y756000D01*
X723000D01*
X723000Y822000D02*
Y834000D01*
X703000Y822000D02*
X723000D01*
X703000D02*
Y834000D01*
X723000D01*
Y774000D02*
Y786000D01*
X703000Y774000D02*
X723000D01*
X703000D02*
Y786000D01*
X723000D01*
X105000Y699000D02*
X117000D01*
Y679000D02*
Y699000D01*
X105000Y679000D02*
X117000D01*
X105000D02*
Y699000D01*
X703000Y696000D02*
Y708000D01*
X723000D01*
Y696000D02*
Y708000D01*
X703000Y696000D02*
X723000D01*
X754000Y696000D02*
Y708000D01*
X734000Y696000D02*
X754000D01*
X734000D02*
Y708000D01*
X754000D01*
Y712000D02*
Y724000D01*
X734000Y712000D02*
X754000D01*
X734000D02*
Y724000D01*
X754000D01*
X297000Y668000D02*
X309000D01*
Y648000D02*
Y668000D01*
X297000Y648000D02*
X309000D01*
X297000D02*
Y668000D01*
Y658000D02*
X309000D01*
X297000D02*
Y678000D01*
X309000D01*
Y658000D02*
Y678000D01*
X513000Y784000D02*
Y796000D01*
X533000D01*
Y784000D02*
Y796000D01*
X513000Y784000D02*
X533000D01*
X311000Y668000D02*
X323000D01*
Y648000D02*
Y668000D01*
X311000Y648000D02*
X323000D01*
X311000D02*
Y668000D01*
X523000Y784000D02*
Y796000D01*
X503000Y784000D02*
X523000D01*
X503000D02*
Y796000D01*
X523000D01*
X311000Y658000D02*
X323000D01*
X311000D02*
Y678000D01*
X323000D01*
Y658000D02*
Y678000D01*
X513000Y798000D02*
Y810000D01*
X533000D01*
Y798000D02*
Y810000D01*
X513000Y798000D02*
X533000D01*
X523000D02*
Y810000D01*
X503000Y798000D02*
X523000D01*
X503000D02*
Y810000D01*
X523000D01*
X1184000Y622000D02*
X1196000D01*
X1184000D02*
Y642000D01*
X1196000D01*
Y622000D02*
Y642000D01*
X1184000Y619000D02*
X1196000D01*
Y599000D02*
Y619000D01*
X1184000Y599000D02*
X1196000D01*
X1184000D02*
Y619000D01*
X1200000Y642000D02*
X1212000D01*
Y622000D02*
Y642000D01*
X1200000Y622000D02*
X1212000D01*
X1200000D02*
Y642000D01*
X1178000Y649000D02*
Y661000D01*
X1158000Y649000D02*
X1178000D01*
X1158000D02*
Y661000D01*
X1178000D01*
X1200000Y619000D02*
X1212000D01*
Y599000D02*
Y619000D01*
X1200000Y599000D02*
X1212000D01*
X1200000D02*
Y619000D01*
X1070000Y623000D02*
X1082000D01*
X1070000D02*
Y643000D01*
X1082000D01*
Y623000D02*
Y643000D01*
X1212000Y566000D02*
X1224000D01*
Y546000D02*
Y566000D01*
X1212000Y546000D02*
X1224000D01*
X1212000D02*
Y566000D01*
X886000Y913000D02*
Y925000D01*
X866000Y913000D02*
X886000D01*
X866000D02*
Y925000D01*
X886000D01*
X838000Y913000D02*
Y925000D01*
X858000D01*
Y913000D02*
Y925000D01*
X838000Y913000D02*
X858000D01*
X838000Y928000D02*
Y940000D01*
X858000D01*
Y928000D02*
Y940000D01*
X838000Y928000D02*
X858000D01*
Y956000D02*
Y968000D01*
X838000Y956000D02*
X858000D01*
X838000D02*
Y968000D01*
X858000D01*
X712000Y875000D02*
X724000D01*
Y855000D02*
Y875000D01*
X712000Y855000D02*
X724000D01*
X712000D02*
Y875000D01*
X1164000Y224000D02*
X1176000D01*
X1164000D02*
Y244000D01*
X1176000D01*
Y224000D02*
Y244000D01*
X1169000Y317000D02*
Y329000D01*
X1189000D01*
Y317000D02*
Y329000D01*
X1169000Y317000D02*
X1189000D01*
X1180000Y244000D02*
X1192000D01*
Y224000D02*
Y244000D01*
X1180000Y224000D02*
X1192000D01*
X1180000D02*
Y244000D01*
X1169000Y301000D02*
Y313000D01*
X1189000D01*
Y301000D02*
Y313000D01*
X1169000Y301000D02*
X1189000D01*
Y333000D02*
Y345000D01*
X1169000Y333000D02*
X1189000D01*
X1169000D02*
Y345000D01*
X1189000D01*
X1157000Y474000D02*
Y486000D01*
X1137000Y474000D02*
X1157000D01*
X1137000D02*
Y486000D01*
X1157000D01*
X1127000Y474000D02*
Y486000D01*
X1107000Y474000D02*
X1127000D01*
X1107000D02*
Y486000D01*
X1127000D01*
X1025000Y406000D02*
X1037000D01*
X1025000D02*
Y426000D01*
X1037000D01*
Y406000D02*
Y426000D01*
X949000Y373500D02*
Y385500D01*
X969000D01*
Y373500D02*
Y385500D01*
X949000Y373500D02*
X969000D01*
X973000D02*
Y385500D01*
X993000D01*
Y373500D02*
Y385500D01*
X973000Y373500D02*
X993000D01*
X541000Y113000D02*
X553000D01*
Y93000D02*
Y113000D01*
X541000Y93000D02*
X553000D01*
X541000D02*
Y113000D01*
X980000Y318000D02*
Y330000D01*
X960000Y318000D02*
X980000D01*
X960000D02*
Y330000D01*
X980000D01*
X526000Y113000D02*
X538000D01*
Y93000D02*
Y113000D01*
X526000Y93000D02*
X538000D01*
X526000D02*
Y113000D01*
X511000D02*
X523000D01*
Y93000D02*
Y113000D01*
X511000Y93000D02*
X523000D01*
X511000D02*
Y113000D01*
X555000Y379000D02*
Y391000D01*
X535000Y379000D02*
X555000D01*
X535000D02*
Y391000D01*
X555000D01*
X496000Y113000D02*
X508000D01*
Y93000D02*
Y113000D01*
X496000Y93000D02*
X508000D01*
X496000D02*
Y113000D01*
X379000Y651000D02*
X391000D01*
Y631000D02*
Y651000D01*
X379000Y631000D02*
X391000D01*
X379000D02*
Y651000D01*
Y641000D02*
X391000D01*
X379000D02*
Y661000D01*
X391000D01*
Y641000D02*
Y661000D01*
X393000Y651000D02*
X405000D01*
Y631000D02*
Y651000D01*
X393000Y631000D02*
X405000D01*
X393000D02*
Y651000D01*
Y641000D02*
X405000D01*
X393000D02*
Y661000D01*
X405000D01*
Y641000D02*
Y661000D01*
X411000Y651000D02*
X423000D01*
Y631000D02*
Y651000D01*
X411000Y631000D02*
X423000D01*
X411000D02*
Y651000D01*
Y641000D02*
X423000D01*
X411000D02*
Y661000D01*
X423000D01*
Y641000D02*
Y661000D01*
X425000Y651000D02*
X437000D01*
Y631000D02*
Y651000D01*
X425000Y631000D02*
X437000D01*
X425000D02*
Y651000D01*
Y641000D02*
X437000D01*
X425000D02*
Y661000D01*
X437000D01*
Y641000D02*
Y661000D01*
X443000Y641000D02*
X455000D01*
X443000D02*
Y661000D01*
X455000D01*
Y641000D02*
Y661000D01*
X457000Y651000D02*
X469000D01*
Y631000D02*
Y651000D01*
X457000Y631000D02*
X469000D01*
X457000D02*
Y651000D01*
Y641000D02*
X469000D01*
X457000D02*
Y661000D01*
X469000D01*
Y641000D02*
Y661000D01*
X544000Y310000D02*
X556000D01*
Y290000D02*
Y310000D01*
X544000Y290000D02*
X556000D01*
X544000D02*
Y310000D01*
X528000D02*
X540000D01*
Y290000D02*
Y310000D01*
X528000Y290000D02*
X540000D01*
X528000D02*
Y310000D01*
X1131000Y535000D02*
X1143000D01*
X1131000D02*
Y555000D01*
X1143000D01*
Y535000D02*
Y555000D01*
X1115000Y450000D02*
X1127000D01*
X1115000D02*
Y470000D01*
X1127000D01*
Y450000D02*
Y470000D01*
X1146000Y562000D02*
X1158000D01*
X1146000D02*
Y582000D01*
X1158000D01*
Y562000D02*
Y582000D01*
X1130000D02*
X1142000D01*
Y562000D02*
Y582000D01*
X1130000Y562000D02*
X1142000D01*
X1130000D02*
Y582000D01*
X703000Y790000D02*
Y802000D01*
X723000D01*
Y790000D02*
Y802000D01*
X703000Y790000D02*
X723000D01*
X738000Y192000D02*
Y204000D01*
X718000Y192000D02*
X738000D01*
X718000D02*
Y204000D01*
X738000D01*
X731000Y227000D02*
X743000D01*
Y207000D02*
Y227000D01*
X731000Y207000D02*
X743000D01*
X731000D02*
Y227000D01*
X623000Y192000D02*
Y204000D01*
X603000Y192000D02*
X623000D01*
X603000D02*
Y204000D01*
X623000D01*
X600000Y192000D02*
Y204000D01*
X580000Y192000D02*
X600000D01*
X580000D02*
Y204000D01*
X600000D01*
X646000Y192000D02*
Y204000D01*
X626000Y192000D02*
X646000D01*
X626000D02*
Y204000D01*
X646000D01*
X669000Y192000D02*
Y204000D01*
X649000Y192000D02*
X669000D01*
X649000D02*
Y204000D01*
X669000D01*
X715000Y192000D02*
Y204000D01*
X695000Y192000D02*
X715000D01*
X695000D02*
Y204000D01*
X715000D01*
X692000Y192000D02*
Y204000D01*
X672000Y192000D02*
X692000D01*
X672000D02*
Y204000D01*
X692000D01*
X705000Y252000D02*
X717000D01*
Y232000D02*
Y252000D01*
X705000Y232000D02*
X717000D01*
X705000D02*
Y252000D01*
X512000Y310000D02*
X524000D01*
Y290000D02*
Y310000D01*
X512000Y290000D02*
X524000D01*
X512000D02*
Y310000D01*
X1141000Y495000D02*
Y497000D01*
Y495000D02*
X1171000D01*
Y497000D01*
X1141000Y525000D02*
Y527000D01*
X1171000Y525000D02*
Y527000D01*
X1141000D02*
X1171000D01*
X273550Y707500D02*
Y760500D01*
X180550Y707500D02*
Y760500D01*
X273550D01*
X180550Y707500D02*
X273550D01*
X184600D02*
Y718000D01*
Y750000D02*
Y760500D01*
X691000Y926400D02*
X701500D01*
X648500D02*
X659000D01*
X648500Y837450D02*
Y930450D01*
X701500Y837450D02*
Y930450D01*
X648500D02*
X701500D01*
X648500Y837450D02*
X701500D01*
X648500Y1050550D02*
X701500D01*
X648500Y957550D02*
X701500D01*
X648500D02*
Y1050550D01*
X701500Y957550D02*
Y1050550D01*
X691000Y961600D02*
X701500D01*
X648500D02*
X659000D01*
X277550Y908500D02*
Y961500D01*
X184550Y908500D02*
Y961500D01*
X277550D01*
X184550Y908500D02*
X277550D01*
X188600D02*
Y919000D01*
Y951000D02*
Y961500D01*
X1249400Y393500D02*
Y404000D01*
Y436000D02*
Y446500D01*
X1160450D02*
X1253450D01*
X1160450Y393500D02*
X1253450D01*
Y446500D01*
X1160450Y393500D02*
Y446500D01*
X704550Y304500D02*
Y357500D01*
X611550Y304500D02*
Y357500D01*
X704550D01*
X611550Y304500D02*
X704550D01*
X615600D02*
Y315000D01*
Y347000D02*
Y357500D01*
X796400Y304500D02*
Y315000D01*
Y347000D02*
Y357500D01*
X707450D02*
X800450D01*
X707450Y304500D02*
X800450D01*
Y357500D01*
X707450Y304500D02*
Y357500D01*
X354550Y280500D02*
Y333500D01*
X261550Y280500D02*
Y333500D01*
X354550D01*
X261550Y280500D02*
X354550D01*
X265600D02*
Y291000D01*
Y323000D02*
Y333500D01*
X446400Y280500D02*
Y291000D01*
Y323000D02*
Y333500D01*
X357450D02*
X450450D01*
X357450Y280500D02*
X450450D01*
Y333500D01*
X357450Y280500D02*
Y333500D01*
X1007550Y507500D02*
Y560500D01*
X914550Y507500D02*
Y560500D01*
X1007550D01*
X914550Y507500D02*
X1007550D01*
X918600D02*
Y518000D01*
Y550000D02*
Y560500D01*
X1149430Y913140D02*
Y958860D01*
X1126570Y913140D02*
X1149430D01*
X1126570D02*
Y958860D01*
X1149430D01*
X906140Y740430D02*
X951860D01*
Y717570D02*
Y740430D01*
X906140Y717570D02*
X951860D01*
X906140D02*
Y740430D01*
Y765430D02*
X951860D01*
Y742570D02*
Y765430D01*
X906140Y742570D02*
X951860D01*
X906140D02*
Y765430D01*
Y790430D02*
X951860D01*
Y767570D02*
Y790430D01*
X906140Y767570D02*
X951860D01*
X906140D02*
Y790430D01*
Y866430D02*
X951860D01*
Y843570D02*
Y866430D01*
X906140Y843570D02*
X951860D01*
X906140D02*
Y866430D01*
Y816430D02*
X951860D01*
Y793570D02*
Y816430D01*
X906140Y793570D02*
X951860D01*
X906140D02*
Y816430D01*
Y841430D02*
X951860D01*
Y818570D02*
Y841430D01*
X906140Y818570D02*
X951860D01*
X906140D02*
Y841430D01*
X1044140Y697430D02*
X1089860D01*
Y674570D02*
Y697430D01*
X1044140Y674570D02*
X1089860D01*
X1044140D02*
Y697430D01*
X1045140Y791430D02*
X1090860D01*
Y768570D02*
Y791430D01*
X1045140Y768570D02*
X1090860D01*
X1045140D02*
Y791430D01*
X775570Y517140D02*
Y562860D01*
X798430D01*
Y517140D02*
Y562860D01*
X775570Y517140D02*
X798430D01*
X1222570Y590140D02*
Y635860D01*
X1245430D01*
Y590140D02*
Y635860D01*
X1222570Y590140D02*
X1245430D01*
X1187220Y880160D02*
X1222780D01*
X1187220Y859840D02*
Y880160D01*
Y859840D02*
X1222780D01*
Y880160D01*
X101840Y95220D02*
Y130780D01*
Y95220D02*
X122160D01*
Y130780D01*
X101840D02*
X122160D01*
X1056000Y305000D02*
X1084000D01*
X1056000Y291000D02*
Y305000D01*
Y291000D02*
X1084000D01*
Y305000D01*
X957000Y369000D02*
X985000D01*
X957000Y355000D02*
Y369000D01*
Y355000D02*
X985000D01*
Y369000D01*
X957000Y337000D02*
X985000D01*
Y351000D01*
X957000D02*
X985000D01*
X957000Y337000D02*
Y351000D01*
X1203000Y454000D02*
X1231000D01*
Y468000D01*
X1203000D02*
X1231000D01*
X1203000Y454000D02*
Y468000D01*
X573000Y297000D02*
X601000D01*
Y311000D01*
X573000D02*
X601000D01*
X573000Y297000D02*
Y311000D01*
X479000Y287000D02*
Y315000D01*
Y287000D02*
X493000D01*
Y315000D01*
X479000D02*
X493000D01*
X598000Y155000D02*
Y183000D01*
X584000D02*
X598000D01*
X584000Y155000D02*
Y183000D01*
Y155000D02*
X598000D01*
X1070000Y309000D02*
X1098000D01*
Y323000D01*
X1070000D02*
X1098000D01*
X1070000Y309000D02*
Y323000D01*
X1164000Y262000D02*
X1192000D01*
X1164000Y248000D02*
Y262000D01*
Y248000D02*
X1192000D01*
Y262000D01*
X995000Y389500D02*
Y417500D01*
X981000D02*
X995000D01*
X981000Y389500D02*
Y417500D01*
Y389500D02*
X995000D01*
X505000Y346000D02*
Y374000D01*
Y346000D02*
X519000D01*
Y374000D01*
X505000D02*
X519000D01*
X68000Y657000D02*
Y685000D01*
Y657000D02*
X82000D01*
Y685000D01*
X68000D02*
X82000D01*
X1142000Y382000D02*
X1170000D01*
X1142000Y368000D02*
Y382000D01*
Y368000D02*
X1170000D01*
Y382000D01*
X1073000Y486000D02*
X1101000D01*
X1073000Y472000D02*
Y486000D01*
Y472000D02*
X1101000D01*
Y486000D01*
X1142000Y350000D02*
X1170000D01*
Y364000D01*
X1142000D02*
X1170000D01*
X1142000Y350000D02*
Y364000D01*
X1040000Y608000D02*
X1060000D01*
Y598000D02*
Y608000D01*
X1040000Y598000D02*
X1060000D01*
X1040000D02*
Y608000D01*
X1224000Y345000D02*
Y365000D01*
X1234000D01*
Y345000D02*
Y365000D01*
X1224000Y345000D02*
X1234000D01*
X1097000Y343000D02*
Y363000D01*
X1087000Y343000D02*
X1097000D01*
X1087000D02*
Y363000D01*
X1097000D01*
X1234000Y213000D02*
Y233000D01*
X1224000Y213000D02*
X1234000D01*
X1224000D02*
Y233000D01*
X1234000D01*
X1111000Y343000D02*
Y363000D01*
X1101000Y343000D02*
X1111000D01*
X1101000D02*
Y363000D01*
X1111000D01*
X1141000Y177000D02*
X1161000D01*
X1141000D02*
Y187000D01*
X1161000D01*
Y177000D02*
Y187000D01*
X1020000Y177000D02*
Y197000D01*
X1030000D01*
Y177000D02*
Y197000D01*
X1020000Y177000D02*
X1030000D01*
X1006000D02*
Y197000D01*
X1016000D01*
Y177000D02*
Y197000D01*
X1006000Y177000D02*
X1016000D01*
X1069000Y177000D02*
X1089000D01*
X1069000D02*
Y187000D01*
X1089000D01*
Y177000D02*
Y187000D01*
X1045000D02*
X1065000D01*
Y177000D02*
Y187000D01*
X1045000Y177000D02*
X1065000D01*
X1045000D02*
Y187000D01*
X909000Y168000D02*
Y188000D01*
X919000D01*
Y168000D02*
Y188000D01*
X909000Y168000D02*
X919000D01*
X895000D02*
Y188000D01*
X905000D01*
Y168000D02*
Y188000D01*
X895000Y168000D02*
X905000D01*
X1251000Y361000D02*
X1271000D01*
X1251000D02*
Y371000D01*
X1271000D01*
Y361000D02*
Y371000D01*
X1230000Y860000D02*
X1250000D01*
X1230000D02*
Y870000D01*
X1250000D01*
Y860000D02*
Y870000D01*
X864000Y474000D02*
Y494000D01*
X854000Y474000D02*
X864000D01*
X854000D02*
Y494000D01*
X864000D01*
X588000Y132000D02*
Y152000D01*
X598000D01*
Y132000D02*
Y152000D01*
X588000Y132000D02*
X598000D01*
X669000Y507000D02*
X689000D01*
Y497000D02*
Y507000D01*
X669000Y497000D02*
X689000D01*
X669000D02*
Y507000D01*
X1081000Y501000D02*
X1101000D01*
Y491000D02*
Y501000D01*
X1081000Y491000D02*
X1101000D01*
X1081000D02*
Y501000D01*
X598000Y233000D02*
X618000D01*
X598000D02*
Y243000D01*
X618000D01*
Y233000D02*
Y243000D01*
X1255000Y454000D02*
Y474000D01*
X1245000Y454000D02*
X1255000D01*
X1245000D02*
Y474000D01*
X1255000D01*
X1141000Y173000D02*
X1161000D01*
Y163000D02*
Y173000D01*
X1141000Y163000D02*
X1161000D01*
X1141000D02*
Y173000D01*
X1117000Y163000D02*
X1137000D01*
X1117000D02*
Y173000D01*
X1137000D01*
Y163000D02*
Y173000D01*
X1117000Y193000D02*
X1137000D01*
X1117000D02*
Y203000D01*
X1137000D01*
Y193000D02*
Y203000D01*
X1020000Y163000D02*
X1040000D01*
X1020000D02*
Y173000D01*
X1040000D01*
Y163000D02*
Y173000D01*
X996000D02*
X1016000D01*
Y163000D02*
Y173000D01*
X996000Y163000D02*
X1016000D01*
X996000D02*
Y173000D01*
X1020000Y211000D02*
X1040000D01*
Y201000D02*
Y211000D01*
X1020000Y201000D02*
X1040000D01*
X1020000D02*
Y211000D01*
X996000Y201000D02*
X1016000D01*
X996000D02*
Y211000D01*
X1016000D01*
Y201000D02*
Y211000D01*
X1004000Y256000D02*
Y276000D01*
X1014000D01*
Y256000D02*
Y276000D01*
X1004000Y256000D02*
X1014000D01*
X990000D02*
Y276000D01*
X1000000D01*
Y256000D02*
Y276000D01*
X990000Y256000D02*
X1000000D01*
X976000D02*
Y276000D01*
X986000D01*
Y256000D02*
Y276000D01*
X976000Y256000D02*
X986000D01*
X944000Y317000D02*
Y337000D01*
X954000D01*
Y317000D02*
Y337000D01*
X944000Y317000D02*
X954000D01*
X944000Y291000D02*
Y311000D01*
X954000D01*
Y291000D02*
Y311000D01*
X944000Y291000D02*
X954000D01*
X1069000Y163000D02*
X1089000D01*
X1069000D02*
Y173000D01*
X1089000D01*
Y163000D02*
Y173000D01*
X1045000D02*
X1065000D01*
Y163000D02*
Y173000D01*
X1045000Y163000D02*
X1065000D01*
X1045000D02*
Y173000D01*
X1069000Y234000D02*
X1089000D01*
X1069000D02*
Y244000D01*
X1089000D01*
Y234000D02*
Y244000D01*
X1045000D02*
X1065000D01*
Y234000D02*
Y244000D01*
X1045000Y234000D02*
X1065000D01*
X1045000D02*
Y244000D01*
X1069000Y215000D02*
X1089000D01*
Y205000D02*
Y215000D01*
X1069000Y205000D02*
X1089000D01*
X1069000D02*
Y215000D01*
X1045000Y205000D02*
X1065000D01*
X1045000D02*
Y215000D01*
X1065000D01*
Y205000D02*
Y215000D01*
X960000Y314000D02*
X980000D01*
Y304000D02*
Y314000D01*
X960000Y304000D02*
X980000D01*
X960000D02*
Y314000D01*
X1000000Y355000D02*
X1020000D01*
X1000000D02*
Y365000D01*
X1020000D01*
Y355000D02*
Y365000D01*
X1066000Y309000D02*
Y329000D01*
X1056000Y309000D02*
X1066000D01*
X1056000D02*
Y329000D01*
X1066000D01*
X917000Y249000D02*
X937000D01*
X917000D02*
Y259000D01*
X937000D01*
Y249000D02*
Y259000D01*
X893000D02*
X913000D01*
Y249000D02*
Y259000D01*
X893000Y249000D02*
X913000D01*
X893000D02*
Y259000D01*
X933000Y168000D02*
Y188000D01*
X923000Y168000D02*
X933000D01*
X923000D02*
Y188000D01*
X933000D01*
X891000Y168000D02*
Y188000D01*
X881000Y168000D02*
X891000D01*
X881000D02*
Y188000D01*
X891000D01*
X917000Y263000D02*
X937000D01*
X917000D02*
Y273000D01*
X937000D01*
Y263000D02*
Y273000D01*
X893000D02*
X913000D01*
Y263000D02*
Y273000D01*
X893000Y263000D02*
X913000D01*
X893000D02*
Y273000D01*
X838000Y943000D02*
X858000D01*
X838000D02*
Y953000D01*
X858000D01*
Y943000D02*
Y953000D01*
X311000Y544000D02*
Y564000D01*
X301000Y544000D02*
X311000D01*
X301000D02*
Y564000D01*
X311000D01*
X672000Y796000D02*
X692000D01*
Y786000D02*
Y796000D01*
X672000Y786000D02*
X692000D01*
X672000D02*
Y796000D01*
X626000Y786000D02*
X646000D01*
X626000D02*
Y796000D01*
X646000D01*
Y786000D02*
Y796000D01*
X703000Y760000D02*
X723000D01*
X703000D02*
Y770000D01*
X723000D01*
Y760000D02*
Y770000D01*
X184000Y765000D02*
X204000D01*
X184000D02*
Y775000D01*
X204000D01*
Y765000D02*
Y775000D01*
X591000Y917000D02*
X611000D01*
Y907000D02*
Y917000D01*
X591000Y907000D02*
X611000D01*
X591000D02*
Y917000D01*
X198000Y662000D02*
Y682000D01*
X188000Y662000D02*
X198000D01*
X188000D02*
Y682000D01*
X198000D01*
X743000Y803000D02*
X763000D01*
X743000D02*
Y813000D01*
X763000D01*
Y803000D02*
Y813000D01*
X39000Y750000D02*
X59000D01*
Y740000D02*
Y750000D01*
X39000Y740000D02*
X59000D01*
X39000D02*
Y750000D01*
X1170000Y599000D02*
Y619000D01*
X1180000D01*
Y599000D02*
Y619000D01*
X1170000Y599000D02*
X1180000D01*
X1170000Y622000D02*
Y642000D01*
X1180000D01*
Y622000D02*
Y642000D01*
X1170000Y622000D02*
X1180000D01*
X1177000Y594000D02*
X1197000D01*
Y584000D02*
Y594000D01*
X1177000Y584000D02*
X1197000D01*
X1177000D02*
Y594000D01*
X711000Y948000D02*
Y968000D01*
X721000D01*
Y948000D02*
Y968000D01*
X711000Y948000D02*
X721000D01*
X711000Y924000D02*
Y944000D01*
X721000D01*
Y924000D02*
Y944000D01*
X711000Y924000D02*
X721000D01*
X716000Y889000D02*
X736000D01*
Y879000D02*
Y889000D01*
X716000Y879000D02*
X736000D01*
X716000D02*
Y889000D01*
X712000Y897000D02*
Y917000D01*
X722000D01*
Y897000D02*
Y917000D01*
X712000Y897000D02*
X722000D01*
X1171000Y279000D02*
X1191000D01*
X1171000D02*
Y289000D01*
X1191000D01*
Y279000D02*
Y289000D01*
X1194000Y319000D02*
X1214000D01*
X1194000D02*
Y329000D01*
X1214000D01*
Y319000D02*
Y329000D01*
X1268000Y263000D02*
Y283000D01*
X1278000D01*
Y263000D02*
Y283000D01*
X1268000Y263000D02*
X1278000D01*
X1041000Y418000D02*
X1061000D01*
X1041000D02*
Y428000D01*
X1061000D01*
Y418000D02*
Y428000D01*
X1041000Y376000D02*
X1061000D01*
X1041000D02*
Y386000D01*
X1061000D01*
Y376000D02*
Y386000D01*
X1069000Y445000D02*
Y465000D01*
X1059000Y445000D02*
X1069000D01*
X1059000D02*
Y465000D01*
X1069000D01*
X1097000Y445000D02*
Y465000D01*
X1087000Y445000D02*
X1097000D01*
X1087000D02*
Y465000D01*
X1097000D01*
X1083000Y445000D02*
Y465000D01*
X1073000Y445000D02*
X1083000D01*
X1073000D02*
Y465000D01*
X1083000D01*
X1059000Y349000D02*
Y369000D01*
X1069000D01*
Y349000D02*
Y369000D01*
X1059000Y349000D02*
X1069000D01*
X1045000D02*
Y369000D01*
X1055000D01*
Y349000D02*
Y369000D01*
X1045000Y349000D02*
X1055000D01*
X1278000Y287000D02*
Y307000D01*
X1268000Y287000D02*
X1278000D01*
X1268000D02*
Y307000D01*
X1278000D01*
X1157000Y535000D02*
Y555000D01*
X1147000Y535000D02*
X1157000D01*
X1147000D02*
Y555000D01*
X1157000D01*
X1210000Y345000D02*
Y365000D01*
X1220000D01*
Y345000D02*
Y365000D01*
X1210000Y345000D02*
X1220000D01*
X1073000Y343000D02*
Y363000D01*
X1083000D01*
Y343000D02*
Y363000D01*
X1073000Y343000D02*
X1083000D01*
X1251000Y385000D02*
X1271000D01*
Y375000D02*
Y385000D01*
X1251000Y375000D02*
X1271000D01*
X1251000D02*
Y385000D01*
X1041000Y400000D02*
X1061000D01*
Y390000D02*
Y400000D01*
X1041000Y390000D02*
X1061000D01*
X1041000D02*
Y400000D01*
X1220000Y213000D02*
Y233000D01*
X1210000Y213000D02*
X1220000D01*
X1210000D02*
Y233000D01*
X1220000D01*
X1129000Y343000D02*
Y363000D01*
X1139000D01*
Y343000D02*
Y363000D01*
X1129000Y343000D02*
X1139000D01*
X1152000Y385000D02*
Y405000D01*
X1142000Y385000D02*
X1152000D01*
X1142000D02*
Y405000D01*
X1152000D01*
X1041000Y414000D02*
X1061000D01*
Y404000D02*
Y414000D01*
X1041000Y404000D02*
X1061000D01*
X1041000D02*
Y414000D01*
X1115000Y343000D02*
Y363000D01*
X1125000D01*
Y343000D02*
Y363000D01*
X1115000Y343000D02*
X1125000D01*
X1041000Y442000D02*
X1061000D01*
Y432000D02*
Y442000D01*
X1041000Y432000D02*
X1061000D01*
X1041000D02*
Y442000D01*
X1111000Y445000D02*
Y465000D01*
X1101000Y445000D02*
X1111000D01*
X1101000D02*
Y465000D01*
X1111000D01*
X1152000Y417000D02*
Y437000D01*
X1142000Y417000D02*
X1152000D01*
X1142000D02*
Y437000D01*
X1152000D01*
X1268000Y239000D02*
Y259000D01*
X1278000D01*
Y239000D02*
Y259000D01*
X1268000Y239000D02*
X1278000D01*
X1264000Y319000D02*
Y339000D01*
X1254000Y319000D02*
X1264000D01*
X1254000D02*
Y339000D01*
X1264000D01*
X1250000Y319000D02*
Y339000D01*
X1240000Y319000D02*
X1250000D01*
X1240000D02*
Y339000D01*
X1250000D01*
X1254000Y224000D02*
Y244000D01*
X1264000D01*
Y224000D02*
Y244000D01*
X1254000Y224000D02*
X1264000D01*
X1171000Y276000D02*
X1191000D01*
Y266000D02*
Y276000D01*
X1171000Y266000D02*
X1191000D01*
X1171000D02*
Y276000D01*
X935000Y366000D02*
Y386000D01*
X945000D01*
Y366000D02*
Y386000D01*
X935000Y366000D02*
X945000D01*
X937000Y450000D02*
X957000D01*
Y440000D02*
Y450000D01*
X937000Y440000D02*
X957000D01*
X937000D02*
Y450000D01*
X981000Y421500D02*
Y441500D01*
X991000D01*
Y421500D02*
Y441500D01*
X981000Y421500D02*
X991000D01*
X311000Y508000D02*
Y528000D01*
X301000Y508000D02*
X311000D01*
X301000D02*
Y528000D01*
X311000D01*
X577000Y340000D02*
Y360000D01*
X567000Y340000D02*
X577000D01*
X567000D02*
Y360000D01*
X577000D01*
X719000Y373000D02*
X739000D01*
Y363000D02*
Y373000D01*
X719000Y363000D02*
X739000D01*
X719000D02*
Y373000D01*
X567000Y371000D02*
Y391000D01*
X577000D01*
Y371000D02*
Y391000D01*
X567000Y371000D02*
X577000D01*
X544000Y319000D02*
X564000D01*
X544000D02*
Y329000D01*
X564000D01*
Y319000D02*
Y329000D01*
X519000Y321000D02*
Y341000D01*
X509000Y321000D02*
X519000D01*
X509000D02*
Y341000D01*
X519000D01*
X225000Y324000D02*
X245000D01*
X225000D02*
Y334000D01*
X245000D01*
Y324000D02*
Y334000D01*
X224000Y309000D02*
X244000D01*
Y299000D02*
Y309000D01*
X224000Y299000D02*
X244000D01*
X224000D02*
Y309000D01*
X597000Y672000D02*
Y692000D01*
X587000Y672000D02*
X597000D01*
X587000D02*
Y692000D01*
X597000D01*
X892000Y588000D02*
X912000D01*
X892000D02*
Y598000D01*
X912000D01*
Y588000D02*
Y598000D01*
X903000Y537000D02*
Y557000D01*
X893000Y537000D02*
X903000D01*
X893000D02*
Y557000D01*
X903000D01*
X319000Y348000D02*
X339000D01*
Y338000D02*
Y348000D01*
X319000Y338000D02*
X339000D01*
X319000D02*
Y348000D01*
X252000Y268000D02*
X272000D01*
Y258000D02*
Y268000D01*
X252000Y258000D02*
X272000D01*
X252000D02*
Y268000D01*
X793000Y378000D02*
X813000D01*
Y368000D02*
Y378000D01*
X793000Y368000D02*
X813000D01*
X793000D02*
Y378000D01*
X626000Y287000D02*
X646000D01*
X626000D02*
Y297000D01*
X646000D01*
Y287000D02*
Y297000D01*
X600000Y669000D02*
Y689000D01*
X610000D01*
Y669000D02*
Y689000D01*
X600000Y669000D02*
X610000D01*
X720500Y1024000D02*
Y1039000D01*
Y974000D02*
X865500D01*
X720500Y1079000D02*
Y1094000D01*
X865500Y1024000D02*
Y1039000D01*
Y1079000D02*
Y1094000D01*
X865000Y1094500D02*
X865500Y1094000D01*
X720500Y1094500D02*
X865000D01*
X793000Y1122000D02*
Y1145500D01*
X787000Y1128000D02*
X793000Y1122000D01*
X799000Y1128000D01*
X862500Y1110000D02*
Y1121500D01*
X723500Y1110000D02*
Y1121500D01*
X693000Y1124500D02*
Y1145000D01*
X696000Y1121500D02*
X890000D01*
X893000Y1125000D02*
Y1145000D01*
X645000Y671000D02*
Y687000D01*
X636000D02*
X645000D01*
X613000D02*
X622000D01*
X613000Y671000D02*
Y687000D01*
X626000Y671000D02*
X632000D01*
X525490Y362620D02*
Y371510D01*
Y338490D02*
Y347380D01*
X558510Y338490D02*
Y347380D01*
Y362620D02*
Y371510D01*
X555970D02*
X558510D01*
X555970Y338490D02*
X558510D01*
X525490D02*
X528030D01*
X525490Y371510D02*
X528030D01*
X972510Y395990D02*
Y404880D01*
Y420120D02*
Y429010D01*
X939490Y420120D02*
Y429010D01*
Y395990D02*
Y404880D01*
Y395990D02*
X942030D01*
X939490Y429010D02*
X942030D01*
X969970D02*
X972510D01*
X969970Y395990D02*
X972510D01*
X212000Y784000D02*
Y804000D01*
X178000Y784000D02*
Y804000D01*
X196000Y784000D02*
X198000D01*
X192000Y804000D02*
X198000D01*
X367000Y338000D02*
Y350000D01*
X387000D01*
Y338000D02*
Y350000D01*
X367000Y338000D02*
X387000D01*
X685000Y252000D02*
X697000D01*
Y232000D02*
Y252000D01*
X685000Y232000D02*
X697000D01*
X685000D02*
Y252000D01*
X350750Y518000D02*
Y522500D01*
X460750Y518000D02*
Y522500D01*
X350750Y512500D02*
X460750D01*
X350750Y502000D02*
Y512500D01*
X460750Y502000D02*
Y512500D01*
X350750Y522500D02*
X460750D01*
X349750Y494000D02*
X366750D01*
X457750D02*
X463750D01*
X472750Y353000D02*
Y431000D01*
X334750Y353000D02*
Y431000D01*
Y353000D02*
X347750D01*
X366750D02*
X370750D01*
X404750D02*
X419750D01*
X453750D02*
X472750D01*
X332750Y431000D02*
X338750D01*
X332750D02*
Y465000D01*
X338750Y431000D02*
Y465000D01*
X332750D02*
X338750D01*
X468750D02*
X474750D01*
Y431000D02*
Y465000D01*
X468750Y431000D02*
Y465000D01*
Y431000D02*
X474750D01*
X368000Y382000D02*
X456500D01*
X368000D02*
Y407000D01*
X456500D01*
Y382000D02*
Y407000D01*
X405000Y502500D02*
X411000Y508500D01*
X399000D02*
X405000Y502500D01*
Y522500D01*
X-5500Y738000D02*
X9000D01*
X-5500Y652000D02*
X9000D01*
X7500Y660000D02*
Y730000D01*
X-5500Y652000D02*
Y738000D01*
X35000Y654000D02*
X50500D01*
X35000Y736000D02*
X50500D01*
Y725000D02*
Y736000D01*
Y654000D02*
Y665000D01*
X281000Y612000D02*
Y638700D01*
X91000D02*
X281000D01*
X22500D02*
X55000D01*
X22500Y443200D02*
Y638700D01*
Y443200D02*
X55000D01*
X286500D02*
Y499000D01*
X91000Y443200D02*
X286500D01*
X268100Y499000D02*
Y502900D01*
Y499000D02*
X286500D01*
X268000Y608000D02*
Y612000D01*
X281000D01*
X2500Y444200D02*
Y637700D01*
X220500Y580700D02*
Y610700D01*
Y580700D02*
X257500D01*
Y610700D01*
X220500D02*
X257500D01*
X15000Y547000D02*
X21000Y541000D01*
X15000Y535000D02*
X21000Y541000D01*
X2500D02*
X21000D01*
X8250Y976500D02*
X19750D01*
X8250Y961500D02*
X18750D01*
X8250Y786500D02*
X16750D01*
X8250Y874000D02*
X22250D01*
Y877500D01*
X8250Y889000D02*
Y961500D01*
Y801500D02*
Y874000D01*
Y889000D02*
X16250D01*
X8250Y801500D02*
X18750D01*
X98250Y857500D02*
Y877500D01*
X8250Y976500D02*
Y1007500D01*
Y755500D02*
Y786500D01*
Y755500D02*
X52000D01*
X67000D02*
X98250D01*
Y778500D01*
Y977500D02*
Y1007500D01*
X8250D02*
X98250D01*
X165000Y841000D02*
X173000D01*
X165000Y765000D02*
X173000D01*
X135000Y752000D02*
Y854000D01*
X123000Y752000D02*
Y854000D01*
X165000Y765000D02*
Y841000D01*
X173000Y752000D02*
Y854000D01*
X123000D02*
X173000D01*
X123000Y752000D02*
X173000D01*
X123000Y853600D02*
X173000D01*
X123000Y955600D02*
X173000D01*
Y853600D02*
Y955600D01*
X165000Y866600D02*
Y942600D01*
X123000Y853600D02*
Y955600D01*
X135000Y853600D02*
Y955600D01*
X165000Y866600D02*
X173000D01*
X165000Y942600D02*
X173000D01*
X1331800Y108000D02*
Y116000D01*
X1268300Y108000D02*
Y158000D01*
Y108000D02*
X1344500D01*
X1268300Y158000D02*
X1344500D01*
Y108000D02*
Y158000D01*
X1281000Y108000D02*
Y116000D01*
X1268300Y146000D02*
X1344500D01*
X1281000Y116000D02*
X1331800D01*
X1287000Y303800D02*
X1295000D01*
Y329200D01*
X1325000Y291200D02*
Y341900D01*
X1287000Y329200D02*
X1295000D01*
X1287000Y291100D02*
X1337000D01*
Y341900D01*
X1287000Y291100D02*
Y341900D01*
X1337000D01*
X1287000Y392700D02*
X1337000D01*
X1287000Y341900D02*
Y392700D01*
X1337000Y341900D02*
Y392700D01*
X1287000Y341900D02*
X1337000D01*
X1287000Y380000D02*
X1295000D01*
X1325000Y342000D02*
Y392700D01*
X1295000Y354600D02*
Y380000D01*
X1287000Y354600D02*
X1295000D01*
X1287000Y253000D02*
X1295000D01*
Y278400D01*
X1325000Y240400D02*
Y291100D01*
X1287000Y278400D02*
X1295000D01*
X1287000Y240300D02*
X1337000D01*
Y291100D01*
X1287000Y240300D02*
Y291100D01*
X1337000D01*
X80000Y406500D02*
X97000D01*
Y384500D02*
Y406500D01*
X53000Y111000D02*
Y406500D01*
X97000Y111000D02*
Y133000D01*
X80000Y111000D02*
X97000D01*
X491800Y90580D02*
Y184000D01*
X491780Y184020D02*
X491800Y184000D01*
X159600Y184020D02*
X491780D01*
X159600Y90580D02*
X491800D01*
X159600D02*
Y184020D01*
X687000Y363000D02*
X707000D01*
X687000D02*
Y373000D01*
X707000D01*
Y363000D02*
Y373000D01*
X597000Y362000D02*
X617000D01*
X597000D02*
Y372000D01*
X617000D01*
Y362000D02*
Y372000D01*
X439000Y349000D02*
X459000D01*
Y339000D02*
Y349000D01*
X439000Y339000D02*
X459000D01*
X439000D02*
Y349000D01*
X272000Y348000D02*
X292000D01*
Y338000D02*
Y348000D01*
X272000Y338000D02*
X292000D01*
X272000D02*
Y348000D01*
X184000Y852000D02*
Y872000D01*
X194000D01*
Y852000D02*
Y872000D01*
X184000Y852000D02*
X194000D01*
X308830Y483336D02*
X310996Y485502D01*
Y489834D01*
X308830Y492000D01*
X306664D01*
X304498Y489834D01*
Y485502D01*
X302332Y483336D01*
X300166D01*
X298000Y485502D01*
Y489834D01*
X300166Y492000D01*
X310996Y479004D02*
Y474672D01*
Y476838D01*
X298000D01*
Y479004D01*
Y474672D01*
Y468174D02*
X310996D01*
X306664Y463842D01*
X310996Y459510D01*
X298000D01*
Y446515D02*
Y455179D01*
X306664Y446515D01*
X308830D01*
X310996Y448681D01*
Y453013D01*
X308830Y455179D01*
X523335Y835669D02*
X525002Y834003D01*
X528334D01*
X530000Y835669D01*
Y837336D01*
X528334Y839002D01*
X525002D01*
X523335Y840668D01*
Y842334D01*
X525002Y844000D01*
X528334D01*
X530000Y842334D01*
X513339Y834003D02*
X520003D01*
Y844000D01*
X513339D01*
X520003Y839002D02*
X516671D01*
X510006Y834003D02*
Y844000D01*
X503342D01*
X477000Y1049000D02*
Y1040336D01*
X472668Y1036004D01*
X468336Y1040336D01*
Y1049000D01*
Y1042502D01*
X477000D01*
X455340Y1038170D02*
X457506Y1036004D01*
X461838D01*
X464004Y1038170D01*
Y1046834D01*
X461838Y1049000D01*
X457506D01*
X455340Y1046834D01*
X451008Y1036004D02*
X442345D01*
X446676D01*
Y1049000D01*
X477000Y998004D02*
Y1008834D01*
X474834Y1011000D01*
X470502D01*
X468336Y1008834D01*
Y998004D01*
X455340Y1000170D02*
X457506Y998004D01*
X461838D01*
X464004Y1000170D01*
Y1002336D01*
X461838Y1004502D01*
X457506D01*
X455340Y1006668D01*
Y1008834D01*
X457506Y1011000D01*
X461838D01*
X464004Y1008834D01*
X451008Y998004D02*
Y1011000D01*
X444510D01*
X442345Y1008834D01*
Y1006668D01*
X444510Y1004502D01*
X451008D01*
X444510D01*
X442345Y1002336D01*
Y1000170D01*
X444510Y998004D01*
X451008D01*
X316336Y632669D02*
X318002Y631003D01*
X321334D01*
X323000Y632669D01*
Y634336D01*
X321334Y636002D01*
X318002D01*
X316336Y637668D01*
Y639334D01*
X318002Y641000D01*
X321334D01*
X323000Y639334D01*
X306339Y631003D02*
X313003D01*
Y641000D01*
X306339D01*
X313003Y636002D02*
X309671D01*
X303006Y631003D02*
Y641000D01*
X296342D01*
X1118000Y931000D02*
Y918004D01*
X1111502D01*
X1109336Y920170D01*
Y924502D01*
X1111502Y926668D01*
X1118000D01*
X1098506Y918004D02*
X1102838D01*
X1105004Y920170D01*
Y928834D01*
X1102838Y931000D01*
X1098506D01*
X1096340Y928834D01*
Y920170D01*
X1098506Y918004D01*
X1083344Y920170D02*
X1085510Y918004D01*
X1089842D01*
X1092008Y920170D01*
Y922336D01*
X1089842Y924502D01*
X1085510D01*
X1083344Y926668D01*
Y928834D01*
X1085510Y931000D01*
X1089842D01*
X1092008Y928834D01*
X1079013Y918004D02*
X1074681D01*
X1076847D01*
Y931000D01*
X1079013D01*
X1074681D01*
X1068183Y918004D02*
X1059519D01*
X1063851D01*
Y931000D01*
X1055187Y918004D02*
X1050855D01*
X1053021D01*
Y931000D01*
X1055187D01*
X1050855D01*
X1044357Y918004D02*
Y926668D01*
X1040025Y931000D01*
X1035693Y926668D01*
Y918004D01*
X1022697D02*
X1031361D01*
Y931000D01*
X1022697D01*
X1031361Y924502D02*
X1027029D01*
X1005370Y918004D02*
X1001038D01*
X1003204D01*
Y931000D01*
X1005370D01*
X1001038D01*
X994540D02*
Y918004D01*
X985876Y931000D01*
Y918004D01*
X959884Y920170D02*
X962050Y918004D01*
X966382D01*
X968548Y920170D01*
Y928834D01*
X966382Y931000D01*
X962050D01*
X959884Y928834D01*
X946889Y918004D02*
X955552D01*
Y931000D01*
X946889D01*
X955552Y924502D02*
X951220D01*
X942557Y931000D02*
Y918004D01*
X933893Y931000D01*
Y918004D01*
X929561D02*
X920897D01*
X925229D01*
Y931000D01*
X907901Y918004D02*
X916565D01*
Y931000D01*
X907901D01*
X916565Y924502D02*
X912233D01*
X903569Y931000D02*
Y918004D01*
X897071D01*
X894905Y920170D01*
Y924502D01*
X897071Y926668D01*
X903569D01*
X899237D02*
X894905Y931000D01*
X13664Y339000D02*
X7166D01*
X5000Y336834D01*
X7166Y334668D01*
X5000Y332502D01*
X7166Y330336D01*
X13664D01*
Y326004D02*
X7166D01*
X5000Y323838D01*
X7166Y321672D01*
X5000Y319506D01*
X7166Y317340D01*
X13664D01*
Y313008D02*
X7166D01*
X5000Y310842D01*
X7166Y308676D01*
X5000Y306511D01*
X7166Y304345D01*
X13664D01*
X5000Y300013D02*
X7166D01*
Y297847D01*
X5000D01*
Y300013D01*
Y289183D02*
Y284851D01*
Y287017D01*
X13664D01*
Y289183D01*
X5000Y278353D02*
X17996D01*
X13664Y274021D01*
X17996Y269689D01*
X5000D01*
X17996Y265357D02*
X5000Y256693D01*
X17996D02*
X5000Y265357D01*
X17996Y243697D02*
X15830Y248029D01*
X11498Y252361D01*
X7166D01*
X5000Y250195D01*
Y245863D01*
X7166Y243697D01*
X9332D01*
X11498Y245863D01*
Y252361D01*
X5000Y239366D02*
X17996D01*
Y232868D01*
X15830Y230702D01*
X11498D01*
X9332Y232868D01*
Y239366D01*
Y235034D02*
X5000Y230702D01*
Y219872D02*
Y224204D01*
X7166Y226370D01*
X11498D01*
X13664Y224204D01*
Y219872D01*
X11498Y217706D01*
X9332D01*
Y226370D01*
X13664Y213374D02*
X5000Y204710D01*
X9332Y209042D01*
X13664Y204710D01*
X5000Y213374D01*
Y200378D02*
X7166D01*
Y198212D01*
X5000D01*
Y200378D01*
X13664Y180884D02*
Y187382D01*
X11498Y189548D01*
X7166D01*
X5000Y187382D01*
Y180884D01*
Y174387D02*
Y170054D01*
X7166Y167889D01*
X11498D01*
X13664Y170054D01*
Y174387D01*
X11498Y176553D01*
X7166D01*
X5000Y174387D01*
Y163557D02*
X13664D01*
Y161391D01*
X11498Y159225D01*
X5000D01*
X11498D01*
X13664Y157059D01*
X11498Y154893D01*
X5000D01*
X171000Y73000D02*
Y85996D01*
X177498D01*
X179664Y83830D01*
Y79498D01*
X177498Y77332D01*
X171000D01*
X175332D02*
X179664Y73000D01*
X192660Y85996D02*
X183996D01*
Y73000D01*
X192660D01*
X183996Y79498D02*
X188328D01*
X205655Y83830D02*
X203489Y85996D01*
X199158D01*
X196992Y83830D01*
Y81664D01*
X199158Y79498D01*
X203489D01*
X205655Y77332D01*
Y75166D01*
X203489Y73000D01*
X199158D01*
X196992Y75166D01*
X218651Y85996D02*
X209987D01*
Y73000D01*
X218651D01*
X209987Y79498D02*
X214319D01*
X222983Y85996D02*
X231647D01*
X227315D01*
Y73000D01*
X269498Y86996D02*
X265166D01*
X263000Y84830D01*
Y76166D01*
X265166Y74000D01*
X269498D01*
X271664Y76166D01*
Y84830D01*
X269498Y86996D01*
X275996Y74000D02*
Y86996D01*
X284660Y74000D01*
Y86996D01*
X288992Y74000D02*
X297656Y82664D01*
X308485Y86996D02*
X304153D01*
X301987Y84830D01*
Y76166D01*
X304153Y74000D01*
X308485D01*
X310651Y76166D01*
Y84830D01*
X308485Y86996D01*
X323647D02*
X314983D01*
Y80498D01*
X319315D01*
X314983D01*
Y74000D01*
X336643Y86996D02*
X327979D01*
Y80498D01*
X332311D01*
X327979D01*
Y74000D01*
X376000Y85996D02*
Y75166D01*
X378166Y73000D01*
X382498D01*
X384664Y75166D01*
Y85996D01*
X397660Y83830D02*
X395494Y85996D01*
X391162D01*
X388996Y83830D01*
Y81664D01*
X391162Y79498D01*
X395494D01*
X397660Y77332D01*
Y75166D01*
X395494Y73000D01*
X391162D01*
X388996Y75166D01*
X410656Y85996D02*
X401992D01*
Y73000D01*
X410656D01*
X401992Y79498D02*
X406324D01*
X414987Y73000D02*
Y85996D01*
X421485D01*
X423651Y83830D01*
Y79498D01*
X421485Y77332D01*
X414987D01*
X419319D02*
X423651Y73000D01*
X115996Y437000D02*
X103000D01*
Y428336D01*
X115996Y424004D02*
X107332D01*
X103000Y419672D01*
X107332Y415340D01*
X115996D01*
Y411008D02*
X103000D01*
Y404510D01*
X105166Y402345D01*
X113830D01*
X115996Y404510D01*
Y411008D01*
X113830Y389349D02*
X115996Y391515D01*
Y395847D01*
X113830Y398013D01*
X111664D01*
X109498Y395847D01*
Y391515D01*
X107332Y389349D01*
X105166D01*
X103000Y391515D01*
Y395847D01*
X105166Y398013D01*
X536000Y819003D02*
Y827334D01*
X534334Y829000D01*
X531002D01*
X529336Y827334D01*
Y819003D01*
X519339Y820669D02*
X521005Y819003D01*
X524337D01*
X526003Y820669D01*
Y822336D01*
X524337Y824002D01*
X521005D01*
X519339Y825668D01*
Y827334D01*
X521005Y829000D01*
X524337D01*
X526003Y827334D01*
X516006Y819003D02*
Y829000D01*
X511008D01*
X509342Y827334D01*
Y825668D01*
X511008Y824002D01*
X516006D01*
X511008D01*
X509342Y822336D01*
Y820669D01*
X511008Y819003D01*
X516006D01*
X506010Y820669D02*
X504343Y819003D01*
X501011D01*
X499345Y820669D01*
Y827334D01*
X501011Y829000D01*
X504343D01*
X506010Y827334D01*
Y820669D01*
X326000Y615003D02*
Y623334D01*
X324334Y625000D01*
X321002D01*
X319335Y623334D01*
Y615003D01*
X309339Y616669D02*
X311005Y615003D01*
X314337D01*
X316003Y616669D01*
Y618335D01*
X314337Y620002D01*
X311005D01*
X309339Y621668D01*
Y623334D01*
X311005Y625000D01*
X314337D01*
X316003Y623334D01*
X306006Y615003D02*
Y625000D01*
X301008D01*
X299342Y623334D01*
Y621668D01*
X301008Y620002D01*
X306006D01*
X301008D01*
X299342Y618335D01*
Y616669D01*
X301008Y615003D01*
X306006D01*
X296010Y625000D02*
X292677D01*
X294343D01*
Y615003D01*
X296010Y616669D01*
X461000Y624000D02*
Y614003D01*
X456002D01*
X454336Y615669D01*
Y619002D01*
X456002Y620668D01*
X461000D01*
X444339Y615669D02*
X446005Y614003D01*
X449337D01*
X451003Y615669D01*
Y622334D01*
X449337Y624000D01*
X446005D01*
X444339Y622334D01*
X441006Y614003D02*
X437674D01*
X439340D01*
Y624000D01*
X441006D01*
X437674D01*
X426011Y614003D02*
X432676D01*
Y624000D01*
X426011D01*
X432676Y619002D02*
X429343D01*
X422679Y625666D02*
X416015D01*
X406018Y615669D02*
X407684Y614003D01*
X411016D01*
X412682Y615669D01*
Y617336D01*
X411016Y619002D01*
X407684D01*
X406018Y620668D01*
Y622334D01*
X407684Y624000D01*
X411016D01*
X412682Y622334D01*
X396021Y614003D02*
X402686D01*
Y624000D01*
X396021D01*
X402686Y619002D02*
X399353D01*
X392689Y614003D02*
Y624000D01*
X386024D01*
X477000Y1017004D02*
Y1030000D01*
Y1023502D01*
X468336D01*
Y1017004D01*
Y1030000D01*
X464004Y1017004D02*
Y1027834D01*
X461838Y1030000D01*
X457506D01*
X455340Y1027834D01*
Y1017004D01*
X451008D02*
Y1030000D01*
X444510D01*
X442345Y1027834D01*
Y1025668D01*
X444510Y1023502D01*
X451008D01*
X444510D01*
X442345Y1021336D01*
Y1019170D01*
X444510Y1017004D01*
X451008D01*
X494000Y86000D02*
X506996D01*
Y79502D01*
X504830Y77336D01*
X500498D01*
X498332Y79502D01*
Y86000D01*
X494000Y73004D02*
X502664D01*
X506996Y68672D01*
X502664Y64340D01*
X494000D01*
X500498D01*
Y73004D01*
X494000Y60008D02*
X506996D01*
X494000Y51344D01*
X506996D01*
X527996Y86000D02*
X515000D01*
Y77336D01*
Y73004D02*
X523664D01*
X527996Y68672D01*
X523664Y64340D01*
X515000D01*
X521498D01*
Y73004D01*
X515000Y60008D02*
X527996D01*
X515000Y51344D01*
X527996D01*
X547996Y86000D02*
X535000D01*
X539332Y81668D01*
X535000Y77336D01*
X547996D01*
X535000Y73004D02*
X543664D01*
X547996Y68672D01*
X543664Y64340D01*
X535000D01*
X541498D01*
Y73004D01*
X535000Y60008D02*
X547996D01*
X535000Y51344D01*
X547996D01*
X481830Y63336D02*
X483996Y65502D01*
Y69834D01*
X481830Y72000D01*
X479664D01*
X477498Y69834D01*
Y65502D01*
X475332Y63336D01*
X473166D01*
X471000Y65502D01*
Y69834D01*
X473166Y72000D01*
X483996Y59004D02*
X471000D01*
Y52506D01*
X473166Y50340D01*
X481830D01*
X483996Y52506D01*
Y59004D01*
X559000Y112000D02*
X571996D01*
X567664Y107668D01*
X571996Y103336D01*
X559000D01*
X571996Y92506D02*
Y96838D01*
X569830Y99004D01*
X561166D01*
X559000Y96838D01*
Y92506D01*
X561166Y90340D01*
X569830D01*
X571996Y92506D01*
Y86008D02*
X559000D01*
Y79510D01*
X561166Y77344D01*
X569830D01*
X571996Y79510D01*
Y86008D01*
Y64349D02*
Y73013D01*
X559000D01*
Y64349D01*
X565498Y73013D02*
Y68681D01*
X559000Y60017D02*
X571996D01*
X567664Y55685D01*
X571996Y51353D01*
X559000D01*
X142664Y256830D02*
X140498Y258996D01*
X136166D01*
X134000Y256830D01*
Y254664D01*
X136166Y252498D01*
X140498D01*
X142664Y250332D01*
Y248166D01*
X140498Y246000D01*
X136166D01*
X134000Y248166D01*
X146996Y246000D02*
Y254664D01*
X151328Y258996D01*
X155660Y254664D01*
Y246000D01*
Y252498D01*
X146996D01*
X159992Y258996D02*
X168655D01*
X164324D01*
Y246000D01*
X172987D02*
Y254664D01*
X177319Y258996D01*
X181651Y254664D01*
Y246000D01*
Y252498D01*
X172987D01*
D191*
X315000Y559999D02*
G03*
X315000Y559999I-1000J0D01*
G01*
X510000Y547000D02*
G03*
X510000Y547000I-1000J0D01*
G01*
X814000Y547000D02*
G03*
X814000Y547000I-1000J0D01*
G01*
X100536Y-6388D02*
G03*
X134064Y-6388I16764J0D01*
G01*
X729000Y900000D02*
G03*
X729000Y900000I-1000J0D01*
G01*
X1136000Y528000D02*
G03*
X1136000Y528000I-1000J0D01*
G01*
X528000Y335000D02*
G03*
X528000Y335000I-1000J0D01*
G01*
X972000Y432500D02*
G03*
X972000Y432500I-1000J0D01*
G01*
X1254500Y1152500D02*
Y1176000D01*
X1162000Y1152500D02*
Y1176000D01*
X1235500Y1140000D02*
Y1152500D01*
X1239000Y971000D02*
X1254500D01*
X1162000Y971000D02*
X1180000D01*
X1162000D02*
Y978000D01*
Y1037000D02*
Y1117500D01*
Y1087500D02*
X1254500D01*
X1162000Y1152500D02*
X1254500D01*
Y971000D02*
Y1117500D01*
X1162000D02*
X1254500D01*
X1181000Y1140000D02*
Y1152500D01*
X963500Y714500D02*
X1038500D01*
X963500Y789500D02*
X1038500D01*
Y772320D02*
Y789500D01*
Y714500D02*
Y731680D01*
X963500Y714500D02*
Y731680D01*
Y772320D02*
Y789500D01*
Y869500D02*
X1038500D01*
X963500Y794500D02*
X1038500D01*
X963500D02*
Y811680D01*
Y852320D02*
Y869500D01*
X1038500Y852320D02*
Y869500D01*
Y794500D02*
Y811680D01*
X95800Y5700D02*
Y37700D01*
X95710Y5550D02*
X138890D01*
X138800Y5700D02*
Y37700D01*
X95710Y88330D02*
X138890D01*
X100536Y-6388D02*
Y5550D01*
X134064Y-6388D02*
Y5550D01*
X869000Y931000D02*
Y968000D01*
X883000Y931000D02*
Y968000D01*
X869000D02*
X883000D01*
X774700Y97300D02*
Y93914D01*
Y95607D01*
X784857D01*
X783164Y97300D01*
X657300Y92700D02*
Y96086D01*
Y94393D01*
X647143D01*
X648836Y92700D01*
X1252700Y539700D02*
X1256086D01*
X1254393D01*
Y549857D01*
X1252700Y548164D01*
X1290000Y737000D02*
Y733614D01*
Y735307D01*
X1300157D01*
X1298464Y737000D01*
X1202000Y829000D02*
X1205386D01*
X1203693D01*
Y839157D01*
X1202000Y837464D01*
X1157000Y691000D02*
X1153614D01*
X1155307D01*
Y680843D01*
X1157000Y682536D01*
X139000Y187000D02*
Y190386D01*
Y188693D01*
X128843D01*
X130536Y187000D01*
X161000Y712000D02*
Y708614D01*
Y710307D01*
X171157D01*
X169464Y712000D01*
X161000Y748600D02*
Y745501D01*
Y747050D01*
X170297D01*
X168748Y748600D01*
X161000Y675000D02*
Y671614D01*
Y673307D01*
X171157D01*
X169464Y675000D01*
X255000Y652000D02*
Y655386D01*
Y653693D01*
X244843D01*
X246536Y652000D01*
X733000Y748000D02*
X736385D01*
X734693D01*
Y758157D01*
X733000Y756464D01*
X1143000Y600000D02*
Y603386D01*
Y601693D01*
X1132843D01*
X1134536Y600000D01*
X1096000Y706000D02*
Y709386D01*
Y707693D01*
X1085843D01*
X1087536Y706000D01*
X1096000Y800000D02*
Y803386D01*
Y801693D01*
X1085843D01*
X1087536Y800000D01*
X1249000Y955000D02*
X1252386D01*
X1250693D01*
Y965157D01*
X1249000Y963464D01*
X180000Y774000D02*
X176614D01*
X178307D01*
Y763843D01*
X180000Y765536D01*
X179940Y872300D02*
X176554D01*
X178247D01*
Y862143D01*
X179940Y863836D01*
X1286700Y101060D02*
Y104446D01*
Y102753D01*
X1276543D01*
X1278236Y101060D01*
X1341000Y323000D02*
X1344386D01*
X1342693D01*
Y333157D01*
X1341000Y331464D01*
Y374000D02*
X1344386D01*
X1342693D01*
Y384157D01*
X1341000Y382464D01*
Y272000D02*
X1344386D01*
X1342693D01*
Y282157D01*
X1341000Y280464D01*
X62000Y386000D02*
X77235D01*
Y378382D01*
X74696Y375843D01*
X69618D01*
X67078Y378382D01*
Y386000D01*
X72157Y368226D02*
Y363147D01*
X69618Y360608D01*
X62000D01*
Y368226D01*
X64539Y370765D01*
X67078Y368226D01*
Y360608D01*
X74696Y352991D02*
X72157D01*
Y355530D01*
Y350452D01*
Y352991D01*
X64539D01*
X62000Y350452D01*
X74696Y340295D02*
X72157D01*
Y342834D01*
Y337756D01*
Y340295D01*
X64539D01*
X62000Y337756D01*
Y322520D02*
Y327599D01*
X64539Y330138D01*
X69618D01*
X72157Y327599D01*
Y322520D01*
X69618Y319981D01*
X67078D01*
Y330138D01*
X72157Y314903D02*
X62000D01*
X67078D01*
X69618Y312364D01*
X72157Y309825D01*
Y307285D01*
X62000Y299668D02*
X72157D01*
Y292050D01*
X69618Y289511D01*
X62000D01*
Y269198D02*
X77235D01*
Y261580D01*
X74696Y259041D01*
X69618D01*
X67078Y261580D01*
Y269198D01*
X72157Y253963D02*
X62000D01*
X67078D01*
X69618Y251423D01*
X72157Y248884D01*
Y246345D01*
X62000Y236189D02*
Y231110D01*
X64539Y228571D01*
X69618D01*
X72157Y231110D01*
Y236189D01*
X69618Y238728D01*
X64539D01*
X62000Y236189D01*
X77235Y223493D02*
X62000D01*
X69618D01*
X72157Y220953D01*
Y215875D01*
X69618Y213336D01*
X62000D01*
Y208258D02*
Y203179D01*
Y205718D01*
X72157D01*
Y208258D01*
X77235Y195562D02*
X62000D01*
Y187944D01*
X64539Y185405D01*
X67078D01*
X69618D01*
X72157Y187944D01*
Y195562D01*
X62000Y180326D02*
Y175248D01*
Y177787D01*
X72157D01*
Y180326D01*
X74696Y165091D02*
X72157D01*
Y167631D01*
Y162552D01*
Y165091D01*
X64539D01*
X62000Y162552D01*
Y147317D02*
Y152396D01*
X64539Y154935D01*
X69618D01*
X72157Y152396D01*
Y147317D01*
X69618Y144778D01*
X67078D01*
Y154935D01*
X77235Y129543D02*
X62000D01*
Y137161D01*
X64539Y139700D01*
X69618D01*
X72157Y137161D01*
Y129543D01*
X120000Y150000D02*
X116614D01*
X118307D01*
Y139843D01*
X120000Y141536D01*
X433000Y193000D02*
Y189615D01*
Y191307D01*
X443157D01*
X441464Y193000D01*
D192*
X386011Y1158772D02*
G03*
X360567Y1158772I-12722J-12722D01*
G01*
X411411D02*
G03*
X385967Y1158772I-12722J-12722D01*
G01*
Y1122745D02*
G03*
X411411Y1122745I12722J12722D01*
G01*
X360567D02*
G03*
X386011Y1122745I12722J12722D01*
G01*
X136245Y1158772D02*
G03*
X110801Y1158772I-12722J-12722D01*
G01*
X161645D02*
G03*
X136201Y1158772I-12722J-12722D01*
G01*
Y1122745D02*
G03*
X161645Y1122745I12722J12722D01*
G01*
X110801D02*
G03*
X136245Y1122745I12722J12722D01*
G01*
X381756Y1067450D02*
G03*
X394456Y1067450I6350J0D01*
G01*
X127756D02*
G03*
X140456Y1067450I6350J0D01*
G01*
X324606Y1086500D02*
G03*
X337306Y1099200I0J12700D01*
G01*
X184906D02*
G03*
X197606Y1086500I12700J0D01*
G01*
X93000Y1182000D02*
X429000D01*
X360589Y1122767D02*
X366939Y1116417D01*
X360589Y1122767D02*
Y1158750D01*
X366939Y1165100D01*
X405039D01*
X411389Y1158750D01*
Y1122767D02*
Y1158750D01*
X405039Y1116417D02*
X411389Y1122767D01*
X385989D02*
Y1158750D01*
X110823Y1122767D02*
X117173Y1116417D01*
X110823Y1122767D02*
Y1158750D01*
X117173Y1165100D01*
X155273D01*
X161623Y1158750D01*
Y1122767D02*
Y1158750D01*
X155273Y1116417D02*
X161623Y1122767D01*
X136223D02*
Y1158750D01*
X316139Y1023000D02*
Y1086500D01*
X301323Y1050000D02*
Y1086500D01*
X288623Y1023000D02*
Y1086500D01*
X273806Y1050000D02*
Y1086500D01*
X261106Y1023000D02*
Y1086500D01*
X246289Y1050000D02*
Y1086500D01*
X233589Y1023000D02*
Y1086500D01*
X218773Y1050000D02*
Y1086500D01*
X206073Y1023000D02*
Y1086500D01*
X318256Y1127000D02*
Y1171450D01*
X203956Y1127000D02*
Y1171450D01*
X394456Y1067450D02*
Y1073800D01*
X381756Y1067450D02*
Y1073800D01*
X400806Y1048400D02*
Y1073800D01*
X375406Y1048400D02*
Y1073800D01*
X140456Y1067450D02*
Y1073800D01*
X127756Y1067450D02*
Y1073800D01*
X121406Y1048400D02*
Y1073800D01*
X146806Y1048400D02*
Y1073800D01*
X350006D02*
X413506D01*
X350006D02*
Y1117182D01*
X108706Y1073800D02*
X172206D01*
Y1118182D01*
X337306Y1099200D02*
Y1118182D01*
X197606Y1086500D02*
X324606D01*
X184906Y1099200D02*
X184906Y1117182D01*
X324606Y1120650D02*
Y1177800D01*
X197606D02*
X324606D01*
X197606Y1120650D02*
Y1177800D01*
X104473Y991250D02*
X417739D01*
Y1117182D01*
X104473Y991250D02*
Y1117182D01*
D193*
X1084800Y987600D02*
Y1002800D01*
Y995100D02*
X1092600Y987300D01*
Y1002600D01*
X1084900Y994900D02*
X1092600Y1002600D01*
Y994900D02*
X1103000D01*
X1073700D02*
X1084900D01*
X958500Y994700D02*
X969700D01*
X977400D02*
X987800D01*
X969700D02*
X977400Y1002400D01*
Y987100D02*
Y1002400D01*
X969600Y994900D02*
X977400Y987100D01*
X969600Y987400D02*
Y1002600D01*
X326999Y1040998D02*
X324999Y1039998D01*
X323000Y1037999D01*
Y1036000D01*
X324000Y1035000D01*
X325999D01*
X326999Y1036000D01*
Y1036999D01*
X325999Y1037999D01*
X323000D01*
X331000Y1007000D02*
X332999D01*
X332000D01*
Y1012998D01*
X331000Y1011998D01*
X191999Y1011998D02*
X188000D01*
Y1008999D01*
X189999Y1009999D01*
X190999D01*
X191999Y1008999D01*
Y1007000D01*
X190999Y1006000D01*
X189000D01*
X188000Y1007000D01*
X194000Y1036000D02*
X195000Y1035000D01*
X196999D01*
X197999Y1036000D01*
Y1039998D01*
X196999Y1040998D01*
X195000D01*
X194000Y1039998D01*
Y1038999D01*
X195000Y1037999D01*
X197999D01*
X1060000Y1059802D02*
X1056002D01*
Y1060801D01*
X1060000Y1064800D01*
Y1065800D01*
X996000D02*
X994001D01*
X995001D01*
Y1059802D01*
X996000Y1060801D01*
X376000Y399997D02*
Y390000D01*
Y393332D01*
X382664Y399997D01*
X377666Y394998D01*
X382664Y390000D01*
X390995D02*
X387663D01*
X385997Y391666D01*
Y394998D01*
X387663Y396665D01*
X390995D01*
X392661Y394998D01*
Y393332D01*
X385997D01*
X400992Y390000D02*
X397660D01*
X395993Y391666D01*
Y394998D01*
X397660Y396665D01*
X400992D01*
X402658Y394998D01*
Y393332D01*
X395993D01*
X405990Y386668D02*
Y396665D01*
X410989D01*
X412655Y394998D01*
Y391666D01*
X410989Y390000D01*
X405990D01*
X430982Y399997D02*
X427650D01*
X425984Y398331D01*
Y391666D01*
X427650Y390000D01*
X430982D01*
X432648Y391666D01*
Y398331D01*
X430982Y399997D01*
X435981Y396665D02*
Y391666D01*
X437647Y390000D01*
X442645D01*
Y396665D01*
X447644Y398331D02*
Y396665D01*
X445977D01*
X449310D01*
X447644D01*
Y391666D01*
X449310Y390000D01*
X245001Y597003D02*
X247667D01*
X249000Y598335D01*
Y603667D01*
X247667Y605000D01*
X245001D01*
X243668Y603667D01*
Y598335D01*
X245001Y597003D01*
X241003Y599668D02*
Y603667D01*
X239670Y605000D01*
X235671D01*
Y599668D01*
X231672Y598335D02*
Y599668D01*
X233005D01*
X230339D01*
X231672D01*
Y603667D01*
X230339Y605000D01*
X253000Y584003D02*
Y592000D01*
Y589334D01*
X247668Y584003D01*
X251667Y588001D01*
X247668Y592000D01*
X241004D02*
X243670D01*
X245003Y590667D01*
Y588001D01*
X243670Y586668D01*
X241004D01*
X239671Y588001D01*
Y589334D01*
X245003D01*
X233006Y592000D02*
X235672D01*
X237005Y590667D01*
Y588001D01*
X235672Y586668D01*
X233006D01*
X231674Y588001D01*
Y589334D01*
X237005D01*
X229008Y594666D02*
Y586668D01*
X225009D01*
X223676Y588001D01*
Y590667D01*
X225009Y592000D01*
X229008D01*
M02*
