%FSLAX44Y44*%
%MOMM*%
G71*
G01*
G75*
G04 Layer_Color=128*
%ADD10R,0.2500X0.8000*%
%ADD11R,0.4000X0.6500*%
%ADD12R,0.3250X0.6500*%
%ADD13R,0.6000X0.5000*%
%ADD14R,1.2000X1.1500*%
%ADD15R,2.5000X3.3000*%
%ADD16R,1.8288X3.4290*%
%ADD17R,0.6400X4.7000*%
%ADD18R,0.6400X2.5400*%
%ADD19R,1.4500X0.3000*%
%ADD20R,0.8500X0.2800*%
%ADD21R,0.2800X0.8500*%
%ADD22R,3.1500X3.1500*%
%ADD23R,3.5000X3.5000*%
%ADD24R,0.8500X0.3000*%
%ADD25R,0.3000X0.8500*%
%ADD26R,3.5000X3.5000*%
%ADD27R,1.0400X0.3800*%
%ADD28R,1.0000X0.2800*%
%ADD29R,0.2800X1.0000*%
%ADD30R,3.7000X3.7000*%
%ADD31R,0.8000X0.2400*%
%ADD32R,0.2400X0.8000*%
%ADD33R,2.2000X2.2000*%
%ADD34R,1.0000X0.5500*%
%ADD35R,1.2000X0.5800*%
%ADD36R,0.5800X1.2000*%
%ADD37R,0.9000X0.7000*%
%ADD38R,0.7000X0.9000*%
%ADD39C,1.0160*%
%ADD40R,1.9000X2.6000*%
%ADD41R,0.2800X1.4000*%
%ADD42R,0.8000X0.8000*%
%ADD43R,0.7500X0.4000*%
%ADD44R,0.9000X1.2000*%
%ADD45R,0.9000X0.8000*%
%ADD46R,0.6858X0.5588*%
%ADD47R,0.5000X0.6000*%
%ADD48R,1.6000X0.3000*%
%ADD49R,2.3700X2.4300*%
%ADD50R,2.4300X2.3700*%
%ADD51R,1.6000X0.9000*%
%ADD52R,0.9000X1.6000*%
%ADD53R,0.9000X1.3000*%
%ADD54R,1.3000X0.9000*%
%ADD55R,0.8000X0.8000*%
%ADD56R,0.5000X0.5000*%
%ADD57R,0.5000X0.5000*%
%ADD58R,0.3000X2.6000*%
%ADD59R,0.6000X1.0500*%
%ADD60R,0.7000X0.2800*%
%ADD61R,2.3368X1.6500*%
%ADD62O,0.2800X0.8500*%
%ADD63R,1.2000X0.9000*%
%ADD64R,0.8000X0.9000*%
%ADD65R,2.7000X1.4000*%
%ADD66R,0.7000X2.0000*%
%ADD67R,1.2000X1.2000*%
%ADD68R,1.5000X2.6000*%
%ADD69R,1.0000X2.6000*%
%ADD70R,1.9000X1.8000*%
%ADD71R,1.3500X0.4000*%
%ADD72R,2.9500X1.5000*%
%ADD73R,2.3000X1.0000*%
%ADD74R,2.0000X1.2500*%
%ADD75R,1.7000X0.8000*%
%ADD76C,0.2500*%
%ADD77C,0.3000*%
%ADD78C,0.5000*%
%ADD79C,0.2800*%
%ADD80C,0.4000*%
%ADD81C,0.2400*%
%ADD82C,0.8000*%
%ADD83C,0.5800*%
%ADD84C,0.6000*%
%ADD85C,0.4300*%
%ADD86C,0.3500*%
%ADD87C,1.0000*%
%ADD88C,0.2830*%
%ADD89C,1.7000*%
%ADD90C,5.0000*%
%ADD91O,4.0000X5.0000*%
%ADD92R,1.7000X1.7000*%
%ADD93R,1.7000X1.7000*%
%ADD94C,7.4000*%
%ADD95C,5.2000*%
%ADD96C,1.4000*%
%ADD97R,1.4000X1.4000*%
%ADD98R,2.0000X1.6000*%
%ADD99O,2.0000X1.6000*%
%ADD100R,1.6000X2.0000*%
%ADD101O,1.6000X2.0000*%
%ADD102C,1.3000*%
%ADD103C,2.0000*%
%ADD104O,1.3000X1.1000*%
%ADD105C,2.4000*%
%ADD106O,1.6000X2.0000*%
%ADD107R,1.6000X2.0000*%
%ADD108C,1.9000*%
%ADD109R,1.9000X1.9000*%
%ADD110C,3.6000*%
%ADD111R,3.6000X3.6000*%
%ADD112C,1.8000*%
%ADD113C,2.2000*%
%ADD114C,2.7000*%
%ADD115C,3.2500*%
%ADD116C,1.5748*%
%ADD117C,3.0000*%
%ADD118C,1.5240*%
%ADD119O,3.3000X4.0000*%
%ADD120C,3.0000*%
G04:AMPARAMS|DCode=121|XSize=1.25mm|YSize=1.1mm|CornerRadius=0.462mm|HoleSize=0mm|Usage=FLASHONLY|Rotation=0.000|XOffset=0mm|YOffset=0mm|HoleType=Round|Shape=RoundedRectangle|*
%AMROUNDEDRECTD121*
21,1,1.2500,0.1760,0,0,0.0*
21,1,0.3260,1.1000,0,0,0.0*
1,1,0.9240,0.1630,-0.0880*
1,1,0.9240,-0.1630,-0.0880*
1,1,0.9240,-0.1630,0.0880*
1,1,0.9240,0.1630,0.0880*
%
%ADD121ROUNDEDRECTD121*%
G04:AMPARAMS|DCode=122|XSize=1.9mm|YSize=2.425mm|CornerRadius=0.57mm|HoleSize=0mm|Usage=FLASHONLY|Rotation=0.000|XOffset=0mm|YOffset=0mm|HoleType=Round|Shape=RoundedRectangle|*
%AMROUNDEDRECTD122*
21,1,1.9000,1.2850,0,0,0.0*
21,1,0.7600,2.4250,0,0,0.0*
1,1,1.1400,0.3800,-0.6425*
1,1,1.1400,-0.3800,-0.6425*
1,1,1.1400,-0.3800,0.6425*
1,1,1.1400,0.3800,0.6425*
%
%ADD122ROUNDEDRECTD122*%
%ADD123R,1.5000X1.5000*%
%ADD124C,1.5000*%
%ADD125C,0.4500*%
%ADD126C,1.0000*%
%ADD127C,1.0000*%
%ADD128C,1.6000*%
G04:AMPARAMS|DCode=129|XSize=2mm|YSize=2mm|CornerRadius=0mm|HoleSize=0mm|Usage=FLASHONLY|Rotation=0.000|XOffset=0mm|YOffset=0mm|HoleType=Round|Shape=Relief|Width=0.5mm|Gap=0.2mm|Entries=4|*
%AMTHD129*
7,0,0,2.0000,1.6000,0.5000,45*
%
%ADD129THD129*%
%ADD130C,2.2000*%
%ADD131C,3.8000*%
G04:AMPARAMS|DCode=132|XSize=3.7mm|YSize=3.7mm|CornerRadius=0mm|HoleSize=0mm|Usage=FLASHONLY|Rotation=0.000|XOffset=0mm|YOffset=0mm|HoleType=Round|Shape=Relief|Width=0.5mm|Gap=0.2mm|Entries=4|*
%AMTHD132*
7,0,0,3.7000,3.3000,0.5000,45*
%
%ADD132THD132*%
G04:AMPARAMS|DCode=133|XSize=2.1mm|YSize=2.1mm|CornerRadius=0mm|HoleSize=0mm|Usage=FLASHONLY|Rotation=0.000|XOffset=0mm|YOffset=0mm|HoleType=Round|Shape=Relief|Width=0.5mm|Gap=0.2mm|Entries=4|*
%AMTHD133*
7,0,0,2.1000,1.7000,0.5000,45*
%
%ADD133THD133*%
%ADD134C,1.6500*%
G04:AMPARAMS|DCode=135|XSize=4.2mm|YSize=4.2mm|CornerRadius=0mm|HoleSize=0mm|Usage=FLASHONLY|Rotation=0.000|XOffset=0mm|YOffset=0mm|HoleType=Round|Shape=Relief|Width=0.5mm|Gap=0.2mm|Entries=4|*
%AMTHD135*
7,0,0,4.2000,3.8000,0.5000,45*
%
%ADD135THD135*%
G04:AMPARAMS|DCode=136|XSize=1.8mm|YSize=1.8mm|CornerRadius=0mm|HoleSize=0mm|Usage=FLASHONLY|Rotation=0.000|XOffset=0mm|YOffset=0mm|HoleType=Round|Shape=Relief|Width=0.5mm|Gap=0.2mm|Entries=4|*
%AMTHD136*
7,0,0,1.8000,1.4000,0.5000,45*
%
%ADD136THD136*%
G04:AMPARAMS|DCode=137|XSize=3.2mm|YSize=3.2mm|CornerRadius=0mm|HoleSize=0mm|Usage=FLASHONLY|Rotation=0.000|XOffset=0mm|YOffset=0mm|HoleType=Round|Shape=Relief|Width=0.5mm|Gap=0.2mm|Entries=4|*
%AMTHD137*
7,0,0,3.2000,2.8000,0.5000,45*
%
%ADD137THD137*%
G04:AMPARAMS|DCode=138|XSize=1.74mm|YSize=1.74mm|CornerRadius=0mm|HoleSize=0mm|Usage=FLASHONLY|Rotation=0.000|XOffset=0mm|YOffset=0mm|HoleType=Round|Shape=Relief|Width=0.5mm|Gap=0.2mm|Entries=4|*
%AMTHD138*
7,0,0,1.7400,1.3400,0.5000,45*
%
%ADD138THD138*%
G04:AMPARAMS|DCode=139|XSize=2.35mm|YSize=2.35mm|CornerRadius=0mm|HoleSize=0mm|Usage=FLASHONLY|Rotation=0.000|XOffset=0mm|YOffset=0mm|HoleType=Round|Shape=Relief|Width=0.5mm|Gap=0.2mm|Entries=4|*
%AMTHD139*
7,0,0,2.3500,1.9500,0.5000,45*
%
%ADD139THD139*%
%ADD140C,1.3400*%
G04:AMPARAMS|DCode=141|XSize=2.6mm|YSize=2.6mm|CornerRadius=0mm|HoleSize=0mm|Usage=FLASHONLY|Rotation=0.000|XOffset=0mm|YOffset=0mm|HoleType=Round|Shape=Relief|Width=0.5mm|Gap=0.2mm|Entries=4|*
%AMTHD141*
7,0,0,2.6000,2.2000,0.5000,45*
%
%ADD141THD141*%
%ADD142C,1.6900*%
G04:AMPARAMS|DCode=143|XSize=4.18mm|YSize=4.18mm|CornerRadius=0mm|HoleSize=0mm|Usage=FLASHONLY|Rotation=0.000|XOffset=0mm|YOffset=0mm|HoleType=Round|Shape=Relief|Width=0.5mm|Gap=0.2mm|Entries=4|*
%AMTHD143*
7,0,0,4.1800,3.7800,0.5000,45*
%
%ADD143THD143*%
G04:AMPARAMS|DCode=144|XSize=2.09mm|YSize=2.09mm|CornerRadius=0mm|HoleSize=0mm|Usage=FLASHONLY|Rotation=0.000|XOffset=0mm|YOffset=0mm|HoleType=Round|Shape=Relief|Width=0.5mm|Gap=0.2mm|Entries=4|*
%AMTHD144*
7,0,0,2.0900,1.6900,0.5000,45*
%
%ADD144THD144*%
%ADD145C,2.4000*%
G04:AMPARAMS|DCode=146|XSize=2.8mm|YSize=2.8mm|CornerRadius=0mm|HoleSize=0mm|Usage=FLASHONLY|Rotation=0.000|XOffset=0mm|YOffset=0mm|HoleType=Round|Shape=Relief|Width=0.5mm|Gap=0.2mm|Entries=4|*
%AMTHD146*
7,0,0,2.8000,2.4000,0.5000,45*
%
%ADD146THD146*%
G04:AMPARAMS|DCode=147|XSize=2.3mm|YSize=2.3mm|CornerRadius=0mm|HoleSize=0mm|Usage=FLASHONLY|Rotation=0.000|XOffset=0mm|YOffset=0mm|HoleType=Round|Shape=Relief|Width=0.5mm|Gap=0.2mm|Entries=4|*
%AMTHD147*
7,0,0,2.3000,1.9000,0.5000,45*
%
%ADD147THD147*%
%ADD148C,3.8500*%
%ADD149C,1.9500*%
G04:AMPARAMS|DCode=150|XSize=3.3mm|YSize=3.3mm|CornerRadius=0mm|HoleSize=0mm|Usage=FLASHONLY|Rotation=0.000|XOffset=0mm|YOffset=0mm|HoleType=Round|Shape=Relief|Width=0.5mm|Gap=0.2mm|Entries=4|*
%AMTHD150*
7,0,0,3.3000,2.9000,0.5000,45*
%
%ADD150THD150*%
%ADD151C,2.3500*%
G04:AMPARAMS|DCode=152|XSize=3.4mm|YSize=3.4mm|CornerRadius=0mm|HoleSize=0mm|Usage=FLASHONLY|Rotation=0.000|XOffset=0mm|YOffset=0mm|HoleType=Round|Shape=Relief|Width=0.5mm|Gap=0.2mm|Entries=4|*
%AMTHD152*
7,0,0,3.4000,3.0000,0.5000,45*
%
%ADD152THD152*%
G04:AMPARAMS|DCode=153|XSize=4mm|YSize=4mm|CornerRadius=0mm|HoleSize=0mm|Usage=FLASHONLY|Rotation=0.000|XOffset=0mm|YOffset=0mm|HoleType=Round|Shape=Relief|Width=0.5mm|Gap=0.2mm|Entries=4|*
%AMTHD153*
7,0,0,4.0000,3.6000,0.5000,45*
%
%ADD153THD153*%
G04:AMPARAMS|DCode=154|XSize=3mm|YSize=3mm|CornerRadius=0mm|HoleSize=0mm|Usage=FLASHONLY|Rotation=0.000|XOffset=0mm|YOffset=0mm|HoleType=Round|Shape=Relief|Width=0.5mm|Gap=0.2mm|Entries=4|*
%AMTHD154*
7,0,0,3.0000,2.6000,0.5000,45*
%
%ADD154THD154*%
%ADD155C,2.1500*%
G04:AMPARAMS|DCode=156|XSize=1.85mm|YSize=1.85mm|CornerRadius=0mm|HoleSize=0mm|Usage=FLASHONLY|Rotation=0.000|XOffset=0mm|YOffset=0mm|HoleType=Round|Shape=Relief|Width=0.5mm|Gap=0.2mm|Entries=4|*
%AMTHD156*
7,0,0,1.8500,1.4500,0.5000,45*
%
%ADD156THD156*%
%ADD157C,2.0000*%
%ADD158C,2.9500*%
G04:AMPARAMS|DCode=159|XSize=1.7mm|YSize=1.7mm|CornerRadius=0mm|HoleSize=0mm|Usage=FLASHONLY|Rotation=0.000|XOffset=0mm|YOffset=0mm|HoleType=Round|Shape=Relief|Width=0.5mm|Gap=0.2mm|Entries=4|*
%AMTHD159*
7,0,0,1.7000,1.3000,0.5000,45*
%
%ADD159THD159*%
G04:AMPARAMS|DCode=160|XSize=1.9mm|YSize=1.9mm|CornerRadius=0mm|HoleSize=0mm|Usage=FLASHONLY|Rotation=0.000|XOffset=0mm|YOffset=0mm|HoleType=Round|Shape=Relief|Width=0.5mm|Gap=0.2mm|Entries=4|*
%AMTHD160*
7,0,0,1.9000,1.5000,0.5000,45*
%
%ADD160THD160*%
%ADD161C,0.8000*%
%ADD162C,1.1000*%
%ADD163C,0.2000*%
%ADD164R,2.3000X3.2000*%
%ADD165R,0.6000X2.0000*%
%ADD166R,0.2500X0.6000*%
%ADD167R,3.3000X3.3000*%
%ADD168R,0.6000X0.2300*%
%ADD169R,0.2300X0.6000*%
%ADD170R,0.2500X0.5000*%
%ADD171R,1.6000X0.3500*%
%ADD172R,1.6000X0.8000*%
%ADD173R,3.0000X2.1000*%
%ADD174R,0.7620X1.9050*%
%ADD175R,3.6000X3.0000*%
%ADD176R,2.5000X0.8000*%
%ADD177R,0.4000X0.7500*%
%ADD178C,0.6350*%
%ADD179R,1.4000X0.7500*%
%ADD180R,1.1000X1.2000*%
%ADD181R,1.2000X2.7000*%
%ADD182R,1.5000X1.9000*%
%ADD183R,1.0000X1.2000*%
%ADD184R,1.0000X0.8001*%
%ADD185R,1.0000X2.8001*%
%ADD186R,1.3000X1.8999*%
%ADD187R,1.0000X1.2000*%
%ADD188R,0.7000X1.2000*%
%ADD189C,0.2300*%
%ADD190C,0.2200*%
%ADD191C,0.2540*%
%ADD192C,0.2032*%
%ADD193C,0.1500*%
%ADD194R,1.4000X1.4000*%
%ADD195R,1.6000X1.6000*%
%ADD196R,1.6000X1.6000*%
%ADD197R,1.6000X1.6000*%
%ADD198R,1.6000X1.6000*%
%ADD199R,1.0414X0.6604*%
%ADD200R,0.3500X0.9000*%
%ADD201R,0.5000X0.7500*%
%ADD202R,0.4250X0.7500*%
%ADD203R,0.8032X0.7032*%
%ADD204R,1.4032X1.3532*%
%ADD205R,2.7032X3.5032*%
%ADD206R,2.0320X3.6322*%
%ADD207R,0.6908X4.7508*%
%ADD208R,0.6908X2.5908*%
%ADD209R,1.5008X0.3508*%
%ADD210R,0.9000X0.3300*%
%ADD211R,0.3300X0.9000*%
%ADD212R,3.2008X3.2008*%
%ADD213R,3.5508X3.5508*%
%ADD214R,0.9008X0.3508*%
%ADD215R,0.3508X0.9008*%
%ADD216R,3.5508X3.5508*%
%ADD217R,1.1924X0.5324*%
%ADD218R,1.0500X0.3300*%
%ADD219R,0.3300X1.0500*%
%ADD220R,3.7508X3.7508*%
%ADD221R,0.8508X0.2908*%
%ADD222R,0.2908X0.8508*%
%ADD223R,2.2508X2.2508*%
%ADD224R,1.2032X0.7532*%
%ADD225R,1.4032X0.7832*%
%ADD226R,0.7832X1.4032*%
%ADD227R,1.1032X0.9032*%
%ADD228R,0.9032X1.1032*%
%ADD229C,3.0480*%
%ADD230R,2.1032X2.8032*%
%ADD231R,0.3308X1.4508*%
%ADD232R,1.0032X1.0032*%
%ADD233R,0.9024X0.5524*%
%ADD234R,1.1032X1.4032*%
%ADD235R,1.1032X1.0032*%
%ADD236R,0.8382X0.7112*%
%ADD237R,0.8008X0.4508*%
%ADD238R,0.7032X0.8032*%
%ADD239R,1.7400X0.4400*%
%ADD240R,2.5732X2.6332*%
%ADD241R,2.6332X2.5732*%
%ADD242R,1.8032X1.1032*%
%ADD243R,1.1032X1.8032*%
%ADD244R,1.1032X1.5032*%
%ADD245R,1.5032X1.1032*%
%ADD246R,1.0032X1.0032*%
%ADD247R,0.7032X0.7032*%
%ADD248R,0.7032X0.7032*%
%ADD249R,0.3508X2.6508*%
%ADD250R,0.7400X1.1900*%
%ADD251R,0.9540X0.5340*%
%ADD252R,2.3876X1.7008*%
%ADD253O,0.3308X0.9008*%
%ADD254R,1.4032X1.1032*%
%ADD255R,1.0032X1.1032*%
%ADD256R,2.9032X1.6032*%
%ADD257R,0.9032X2.2032*%
%ADD258R,1.4032X1.4032*%
%ADD259R,1.7032X2.8032*%
%ADD260R,1.2032X2.8032*%
%ADD261R,2.1032X2.0032*%
%ADD262R,1.4008X0.4508*%
%ADD263R,3.1532X1.7032*%
%ADD264R,2.4020X1.1020*%
%ADD265R,2.2032X1.4532*%
%ADD266R,1.9032X1.0032*%
%ADD267C,1.9032*%
G04:AMPARAMS|DCode=268|XSize=0.2032mm|YSize=0.2032mm|CornerRadius=0mm|HoleSize=0mm|Usage=FLASHONLY|Rotation=90.000|XOffset=0mm|YOffset=0mm|HoleType=Round|Shape=RoundedRectangle|*
%AMROUNDEDRECTD268*
21,1,0.2032,0.2032,0,0,90.0*
21,1,0.2032,0.2032,0,0,90.0*
1,1,0.0000,0.1016,0.1016*
1,1,0.0000,0.1016,-0.1016*
1,1,0.0000,-0.1016,-0.1016*
1,1,0.0000,-0.1016,0.1016*
%
%ADD268ROUNDEDRECTD268*%
%ADD269C,5.2032*%
%ADD270O,4.2032X5.2032*%
%ADD271R,1.9032X1.9032*%
%ADD272R,1.9032X1.9032*%
%ADD273C,0.2032*%
%ADD274C,7.4508*%
%ADD275C,5.4032*%
%ADD276C,1.6032*%
%ADD277R,1.6032X1.6032*%
%ADD278R,2.2032X1.8032*%
%ADD279O,2.2032X1.8032*%
%ADD280R,1.8032X2.2032*%
%ADD281O,1.8032X2.2032*%
%ADD282C,1.5032*%
%ADD283C,2.2032*%
%ADD284O,1.5032X1.3032*%
%ADD285C,2.6032*%
%ADD286O,1.8032X2.2032*%
%ADD287R,1.8032X2.2032*%
%ADD288C,2.1032*%
%ADD289R,2.1032X2.1032*%
%ADD290C,3.8032*%
%ADD291R,3.8032X3.8032*%
%ADD292C,2.0032*%
%ADD293C,2.4032*%
%ADD294C,2.9032*%
%ADD295C,3.4532*%
%ADD296C,1.7780*%
%ADD297C,5.0508*%
%ADD298C,3.2032*%
%ADD299C,1.7272*%
%ADD300O,3.5032X4.2032*%
%ADD301C,3.2032*%
G04:AMPARAMS|DCode=302|XSize=1.33mm|YSize=1.18mm|CornerRadius=0.502mm|HoleSize=0mm|Usage=FLASHONLY|Rotation=0.000|XOffset=0mm|YOffset=0mm|HoleType=Round|Shape=RoundedRectangle|*
%AMROUNDEDRECTD302*
21,1,1.3300,0.1760,0,0,0.0*
21,1,0.3260,1.1800,0,0,0.0*
1,1,1.0040,0.1630,-0.0880*
1,1,1.0040,-0.1630,-0.0880*
1,1,1.0040,-0.1630,0.0880*
1,1,1.0040,0.1630,0.0880*
%
%ADD302ROUNDEDRECTD302*%
G04:AMPARAMS|DCode=303|XSize=2.1032mm|YSize=2.6282mm|CornerRadius=0.6716mm|HoleSize=0mm|Usage=FLASHONLY|Rotation=0.000|XOffset=0mm|YOffset=0mm|HoleType=Round|Shape=RoundedRectangle|*
%AMROUNDEDRECTD303*
21,1,2.1032,1.2850,0,0,0.0*
21,1,0.7600,2.6282,0,0,0.0*
1,1,1.3432,0.3800,-0.6425*
1,1,1.3432,-0.3800,-0.6425*
1,1,1.3432,-0.3800,0.6425*
1,1,1.3432,0.3800,0.6425*
%
%ADD303ROUNDEDRECTD303*%
G04:AMPARAMS|DCode=304|XSize=0.2032mm|YSize=0.2032mm|CornerRadius=0mm|HoleSize=0mm|Usage=FLASHONLY|Rotation=180.000|XOffset=0mm|YOffset=0mm|HoleType=Round|Shape=RoundedRectangle|*
%AMROUNDEDRECTD304*
21,1,0.2032,0.2032,0,0,180.0*
21,1,0.2032,0.2032,0,0,180.0*
1,1,0.0000,-0.1016,0.1016*
1,1,0.0000,0.1016,0.1016*
1,1,0.0000,0.1016,-0.1016*
1,1,0.0000,-0.1016,-0.1016*
%
%ADD304ROUNDEDRECTD304*%
%ADD305R,1.7032X1.7032*%
%ADD306C,1.7032*%
%ADD307R,2.5032X3.4032*%
%ADD308R,0.7000X2.1000*%
%ADD309R,0.3008X0.6508*%
%ADD310R,3.4016X3.4016*%
%ADD311R,0.7016X0.3316*%
%ADD312R,0.3316X0.7016*%
%ADD313R,0.3008X0.5508*%
%ADD314R,1.7400X0.4900*%
%ADD315R,1.8032X1.0032*%
%ADD316R,3.2032X2.3032*%
%ADD317R,0.9652X2.1082*%
%ADD318R,3.8032X3.2032*%
%ADD319R,2.7032X1.0032*%
%ADD320R,0.5524X0.9024*%
%ADD321C,0.7366*%
%ADD322R,0.4508X0.8008*%
%ADD323R,1.6032X0.9532*%
%ADD324R,1.3032X1.4032*%
%ADD325R,1.4032X2.9032*%
%ADD326R,1.7032X2.1032*%
%ADD327R,1.2032X1.4032*%
%ADD328R,1.2032X1.0033*%
%ADD329R,1.2032X3.0033*%
%ADD330R,1.5032X2.1031*%
%ADD331R,1.2032X1.4032*%
%ADD332R,0.8400X1.3400*%
%ADD333R,0.9032X1.4032*%
D10*
X331000Y531251D02*
D03*
D11*
X326000Y515501D02*
D03*
X336000D02*
D03*
D12*
X325620Y530501D02*
D03*
X336380D02*
D03*
D13*
X470000Y712000D02*
D03*
Y722000D02*
D03*
X400000Y75000D02*
D03*
Y85000D02*
D03*
X384000Y85000D02*
D03*
Y75000D02*
D03*
X285000Y75000D02*
D03*
Y85000D02*
D03*
X315000Y75000D02*
D03*
Y85000D02*
D03*
X210000Y75000D02*
D03*
Y85000D02*
D03*
X194000Y85000D02*
D03*
Y75000D02*
D03*
X1138000Y706000D02*
D03*
Y696000D02*
D03*
X1153000Y696000D02*
D03*
Y706000D02*
D03*
X1174000Y847000D02*
D03*
Y857000D02*
D03*
X1145000Y744000D02*
D03*
Y754000D02*
D03*
X1159000Y847000D02*
D03*
Y857000D02*
D03*
X1208000Y815000D02*
D03*
Y825000D02*
D03*
Y768000D02*
D03*
Y778000D02*
D03*
X1090000Y788000D02*
D03*
Y798000D02*
D03*
Y823000D02*
D03*
Y813000D02*
D03*
X1127000Y837000D02*
D03*
Y847000D02*
D03*
X372000Y708000D02*
D03*
Y718000D02*
D03*
X309000Y795000D02*
D03*
Y785000D02*
D03*
X420000Y907000D02*
D03*
Y917000D02*
D03*
X331000Y855000D02*
D03*
Y865000D02*
D03*
X347000Y855000D02*
D03*
Y865000D02*
D03*
X945000Y925000D02*
D03*
Y915000D02*
D03*
X983000Y925000D02*
D03*
Y915000D02*
D03*
X1021000Y925000D02*
D03*
Y915000D02*
D03*
X1059000Y925000D02*
D03*
Y915000D02*
D03*
X107000Y339000D02*
D03*
Y329000D02*
D03*
Y353000D02*
D03*
Y363000D02*
D03*
X900000Y569000D02*
D03*
Y559000D02*
D03*
Y382000D02*
D03*
Y372000D02*
D03*
X10000Y884000D02*
D03*
Y894000D02*
D03*
X799000Y954000D02*
D03*
Y964000D02*
D03*
X815000Y954000D02*
D03*
Y964000D02*
D03*
X831000Y954000D02*
D03*
Y964000D02*
D03*
X178000Y85000D02*
D03*
Y75000D02*
D03*
X162000Y75000D02*
D03*
Y85000D02*
D03*
X705000Y773000D02*
D03*
Y763000D02*
D03*
X452000Y722000D02*
D03*
Y712000D02*
D03*
X356000Y708000D02*
D03*
Y718000D02*
D03*
X107000Y387000D02*
D03*
Y397000D02*
D03*
D15*
X1238500Y917000D02*
D03*
X1169500D02*
D03*
D24*
X371500Y926500D02*
D03*
Y921500D02*
D03*
Y916500D02*
D03*
Y911500D02*
D03*
Y906500D02*
D03*
Y901500D02*
D03*
Y896500D02*
D03*
Y891500D02*
D03*
X322500D02*
D03*
Y896500D02*
D03*
Y901500D02*
D03*
Y906500D02*
D03*
Y911500D02*
D03*
Y916500D02*
D03*
Y921500D02*
D03*
Y926500D02*
D03*
D25*
X329500Y933500D02*
D03*
X334500D02*
D03*
X339500D02*
D03*
X344500D02*
D03*
X349500D02*
D03*
X354500D02*
D03*
X359500D02*
D03*
X364500D02*
D03*
Y884500D02*
D03*
X359500D02*
D03*
X354500D02*
D03*
X349500D02*
D03*
X344500D02*
D03*
X339500D02*
D03*
X334500D02*
D03*
X329500D02*
D03*
D35*
X333000Y753950D02*
D03*
Y766650D02*
D03*
Y779350D02*
D03*
Y792050D02*
D03*
X389000Y753950D02*
D03*
Y766650D02*
D03*
Y779350D02*
D03*
Y792050D02*
D03*
D36*
X32950Y176000D02*
D03*
X45650D02*
D03*
X58350D02*
D03*
X71050D02*
D03*
X32950Y120000D02*
D03*
X45650D02*
D03*
X58350D02*
D03*
X71050D02*
D03*
D38*
X388500Y880500D02*
D03*
X401500D02*
D03*
X395000Y861500D02*
D03*
X455500Y738500D02*
D03*
X442500D02*
D03*
X449000Y757500D02*
D03*
X435500Y709500D02*
D03*
X422500D02*
D03*
X429000Y728500D02*
D03*
X405500Y709500D02*
D03*
X392500D02*
D03*
X399000Y728500D02*
D03*
D42*
X516000Y354500D02*
D03*
Y369500D02*
D03*
X1143000Y834500D02*
D03*
Y849500D02*
D03*
X814000Y75500D02*
D03*
Y90500D02*
D03*
X93000Y144500D02*
D03*
Y159500D02*
D03*
X495000Y354500D02*
D03*
Y369500D02*
D03*
X989000Y325500D02*
D03*
Y340500D02*
D03*
Y307500D02*
D03*
Y292500D02*
D03*
D43*
X580750Y1042000D02*
D03*
Y1050000D02*
D03*
X599250Y1042000D02*
D03*
Y1050000D02*
D03*
X218750Y916000D02*
D03*
Y924000D02*
D03*
X237250Y916000D02*
D03*
Y924000D02*
D03*
D44*
X580000Y922000D02*
D03*
X570000Y1015000D02*
D03*
D45*
X580000Y904000D02*
D03*
X560000Y924000D02*
D03*
Y904000D02*
D03*
X570000Y997000D02*
D03*
X550000Y1017000D02*
D03*
Y997000D02*
D03*
D46*
X166000Y175192D02*
D03*
Y150808D02*
D03*
X183000Y175192D02*
D03*
Y150808D02*
D03*
D47*
X1112000Y743000D02*
D03*
X1102000D02*
D03*
X1090000Y774000D02*
D03*
X1100000D02*
D03*
X1137000Y728000D02*
D03*
X1147000D02*
D03*
X1113000Y699000D02*
D03*
X1123000D02*
D03*
X1102000Y758000D02*
D03*
X1112000D02*
D03*
X1113000Y728000D02*
D03*
X1123000D02*
D03*
X232000Y191000D02*
D03*
X242000D02*
D03*
X320000D02*
D03*
X310000D02*
D03*
X280000D02*
D03*
X290000D02*
D03*
X430000D02*
D03*
X440000D02*
D03*
X266000D02*
D03*
X256000D02*
D03*
X417000Y769000D02*
D03*
X407000D02*
D03*
X601000Y191000D02*
D03*
X591000D02*
D03*
X680000Y764000D02*
D03*
X690000D02*
D03*
X720000Y773000D02*
D03*
X730000D02*
D03*
X318000Y386000D02*
D03*
X328000D02*
D03*
X82000Y338000D02*
D03*
X92000D02*
D03*
X82000Y354000D02*
D03*
X92000D02*
D03*
X641000Y431000D02*
D03*
X631000D02*
D03*
X621000Y431000D02*
D03*
X631000D02*
D03*
X641000Y445000D02*
D03*
X631000D02*
D03*
X621000D02*
D03*
X631000D02*
D03*
X641000Y475000D02*
D03*
X631000D02*
D03*
X621000D02*
D03*
X631000D02*
D03*
X641000Y461000D02*
D03*
X631000D02*
D03*
X621000D02*
D03*
X631000D02*
D03*
X124000Y829000D02*
D03*
X114000D02*
D03*
X59000Y1001000D02*
D03*
X69000D02*
D03*
X668000Y388000D02*
D03*
X678000D02*
D03*
X1113000Y683000D02*
D03*
X1123000D02*
D03*
X363000Y735000D02*
D03*
X373000D02*
D03*
X184000Y191000D02*
D03*
X194000D02*
D03*
X208000D02*
D03*
X218000D02*
D03*
X280000Y207000D02*
D03*
X290000D02*
D03*
D50*
X95000Y733200D02*
D03*
Y670800D02*
D03*
D51*
X1138000Y951500D02*
D03*
Y920500D02*
D03*
X1265000Y776500D02*
D03*
Y745500D02*
D03*
X119000Y943500D02*
D03*
Y974500D02*
D03*
D52*
X910500Y956000D02*
D03*
X941500D02*
D03*
D54*
X1109000Y811500D02*
D03*
Y830500D02*
D03*
X119000Y902500D02*
D03*
Y921500D02*
D03*
Y867500D02*
D03*
Y848500D02*
D03*
D55*
X584500Y715000D02*
D03*
X599500D02*
D03*
X114500Y762000D02*
D03*
X99500D02*
D03*
X153500Y192000D02*
D03*
X168500D02*
D03*
D56*
X1116000Y793000D02*
D03*
X1126000D02*
D03*
X1199000Y754000D02*
D03*
X1209000D02*
D03*
X1209000Y838000D02*
D03*
X1199000D02*
D03*
X1116000Y780000D02*
D03*
X1126000D02*
D03*
X295000Y885000D02*
D03*
X305000D02*
D03*
X295000Y914000D02*
D03*
X305000D02*
D03*
X295000Y929000D02*
D03*
X305000D02*
D03*
X305000Y871000D02*
D03*
X295000D02*
D03*
X295000Y899000D02*
D03*
X305000D02*
D03*
X528000Y186000D02*
D03*
X538000D02*
D03*
X422000Y473000D02*
D03*
X412000D02*
D03*
X629000Y747000D02*
D03*
X639000D02*
D03*
X639000Y735000D02*
D03*
X629000D02*
D03*
X690000D02*
D03*
X680000D02*
D03*
X680000Y749000D02*
D03*
X690000D02*
D03*
X720000Y758000D02*
D03*
X730000D02*
D03*
X34000Y190000D02*
D03*
X44000D02*
D03*
X519000Y334000D02*
D03*
X529000D02*
D03*
X677000Y373000D02*
D03*
X667000D02*
D03*
X798000D02*
D03*
X788000D02*
D03*
X578000D02*
D03*
X588000D02*
D03*
X505000Y334000D02*
D03*
X495000D02*
D03*
X448000Y371000D02*
D03*
X438000D02*
D03*
X124000Y885000D02*
D03*
X114000D02*
D03*
X87000Y1000000D02*
D03*
X97000D02*
D03*
X25000D02*
D03*
X35000D02*
D03*
X328000Y371000D02*
D03*
X318000D02*
D03*
X228000D02*
D03*
X238000D02*
D03*
X138000Y194000D02*
D03*
X128000D02*
D03*
X430000Y85000D02*
D03*
X440000D02*
D03*
D57*
X600000Y1009000D02*
D03*
Y999000D02*
D03*
X415000Y75000D02*
D03*
Y85000D02*
D03*
X300000Y75000D02*
D03*
Y85000D02*
D03*
X225000Y75000D02*
D03*
Y85000D02*
D03*
X1128000Y751000D02*
D03*
Y761000D02*
D03*
X1209000Y791000D02*
D03*
Y801000D02*
D03*
X1127000Y823000D02*
D03*
Y813000D02*
D03*
X814000Y50000D02*
D03*
Y60000D02*
D03*
X421000Y744000D02*
D03*
Y754000D02*
D03*
X407000Y744000D02*
D03*
Y754000D02*
D03*
X942000Y726000D02*
D03*
Y716000D02*
D03*
X983000Y726000D02*
D03*
Y716000D02*
D03*
X1021000Y726000D02*
D03*
Y716000D02*
D03*
X1124000Y984000D02*
D03*
Y974000D02*
D03*
X1059000Y726000D02*
D03*
Y716000D02*
D03*
X641000Y760000D02*
D03*
Y770000D02*
D03*
X667000Y760000D02*
D03*
Y770000D02*
D03*
X638000Y722000D02*
D03*
Y712000D02*
D03*
X652000Y722000D02*
D03*
Y712000D02*
D03*
X654000Y760000D02*
D03*
Y770000D02*
D03*
X680000Y712000D02*
D03*
Y722000D02*
D03*
X666000Y722000D02*
D03*
Y712000D02*
D03*
X1286000Y756000D02*
D03*
Y746000D02*
D03*
X16000Y120000D02*
D03*
Y130000D02*
D03*
X109000Y161000D02*
D03*
Y151000D02*
D03*
X900000Y545000D02*
D03*
Y535000D02*
D03*
X306000Y523000D02*
D03*
Y533000D02*
D03*
Y555000D02*
D03*
Y565000D02*
D03*
X10000Y918000D02*
D03*
Y908000D02*
D03*
X114000Y198000D02*
D03*
Y208000D02*
D03*
Y283000D02*
D03*
Y273000D02*
D03*
Y223000D02*
D03*
Y233000D02*
D03*
Y259000D02*
D03*
Y249000D02*
D03*
X343000Y223000D02*
D03*
Y233000D02*
D03*
X1131000Y443000D02*
D03*
Y453000D02*
D03*
X1131000Y468000D02*
D03*
Y478000D02*
D03*
D63*
X193000Y901000D02*
D03*
D64*
X432000Y862000D02*
D03*
X441500Y882000D02*
D03*
X422500D02*
D03*
X175000Y901000D02*
D03*
X195000Y921000D02*
D03*
X175000D02*
D03*
D72*
X73000Y643800D02*
D03*
Y438300D02*
D03*
D73*
X280000Y570900D02*
D03*
Y558200D02*
D03*
Y545500D02*
D03*
Y532800D02*
D03*
Y520100D02*
D03*
Y507400D02*
D03*
Y494700D02*
D03*
Y482000D02*
D03*
D97*
X1158000Y786001D02*
D03*
X1173999D02*
D03*
X1158000Y802000D02*
D03*
X1173999D02*
D03*
D164*
X836500Y275000D02*
D03*
X543500D02*
D03*
X486500D02*
D03*
X193500D02*
D03*
D165*
X572000Y351000D02*
D03*
X580000D02*
D03*
X588000D02*
D03*
X596000D02*
D03*
X604000D02*
D03*
X612000D02*
D03*
X620000D02*
D03*
X628000D02*
D03*
X636000D02*
D03*
X644000D02*
D03*
X652000D02*
D03*
X660000D02*
D03*
X668000D02*
D03*
X676000D02*
D03*
X684000D02*
D03*
X692000D02*
D03*
X700000D02*
D03*
X708000D02*
D03*
X748000D02*
D03*
X756000D02*
D03*
X764000D02*
D03*
X772000D02*
D03*
X780000D02*
D03*
X788000D02*
D03*
X796000D02*
D03*
X804000D02*
D03*
X576000Y269000D02*
D03*
X584000D02*
D03*
X592000D02*
D03*
X600000D02*
D03*
X608000D02*
D03*
X616000D02*
D03*
X624000D02*
D03*
X632000D02*
D03*
X640000D02*
D03*
X648000D02*
D03*
X656000D02*
D03*
X664000D02*
D03*
X672000D02*
D03*
X680000D02*
D03*
X688000D02*
D03*
X696000D02*
D03*
X704000D02*
D03*
X712000D02*
D03*
X752000D02*
D03*
X760000D02*
D03*
X768000D02*
D03*
X776000D02*
D03*
X784000D02*
D03*
X792000D02*
D03*
X800000D02*
D03*
X808000D02*
D03*
X222000Y351000D02*
D03*
X230000D02*
D03*
X238000D02*
D03*
X246000D02*
D03*
X254000D02*
D03*
X262000D02*
D03*
X270000D02*
D03*
X278000D02*
D03*
X286000D02*
D03*
X294000D02*
D03*
X302000D02*
D03*
X310000D02*
D03*
X318000D02*
D03*
X326000D02*
D03*
X334000D02*
D03*
X342000D02*
D03*
X350000D02*
D03*
X358000D02*
D03*
X398000D02*
D03*
X406000D02*
D03*
X414000D02*
D03*
X422000D02*
D03*
X430000D02*
D03*
X438000D02*
D03*
X446000D02*
D03*
X454000D02*
D03*
X226000Y269000D02*
D03*
X234000D02*
D03*
X242000D02*
D03*
X250000D02*
D03*
X258000D02*
D03*
X266000D02*
D03*
X274000D02*
D03*
X282000D02*
D03*
X290000D02*
D03*
X298000D02*
D03*
X306000D02*
D03*
X314000D02*
D03*
X322000D02*
D03*
X330000D02*
D03*
X338000D02*
D03*
X346000D02*
D03*
X354000D02*
D03*
X362000D02*
D03*
X402000D02*
D03*
X410000D02*
D03*
X418000D02*
D03*
X426000D02*
D03*
X434000D02*
D03*
X442000D02*
D03*
X450000D02*
D03*
X458000D02*
D03*
D166*
X233500Y952750D02*
D03*
X238500D02*
D03*
X243500D02*
D03*
X248500D02*
D03*
X233500Y941250D02*
D03*
X238500D02*
D03*
X243500D02*
D03*
X248500D02*
D03*
X336500Y987750D02*
D03*
X341500D02*
D03*
X346500D02*
D03*
X351500D02*
D03*
X336500Y976250D02*
D03*
X341500D02*
D03*
X346500D02*
D03*
X351500D02*
D03*
D168*
X1142000Y776500D02*
D03*
Y781500D02*
D03*
Y786500D02*
D03*
Y791500D02*
D03*
Y796500D02*
D03*
Y801500D02*
D03*
Y806500D02*
D03*
Y811500D02*
D03*
X1190000D02*
D03*
Y806500D02*
D03*
Y801500D02*
D03*
Y796500D02*
D03*
Y791500D02*
D03*
Y786500D02*
D03*
Y781500D02*
D03*
Y776500D02*
D03*
D169*
X1148500Y818000D02*
D03*
X1153500D02*
D03*
X1158500D02*
D03*
X1163500D02*
D03*
X1168500D02*
D03*
X1173500D02*
D03*
X1178500D02*
D03*
X1183500D02*
D03*
Y770000D02*
D03*
X1178500D02*
D03*
X1173500D02*
D03*
X1168500D02*
D03*
X1163500D02*
D03*
X1158500D02*
D03*
X1153500D02*
D03*
X1148500D02*
D03*
D170*
X336500Y1014000D02*
D03*
X341500D02*
D03*
X346500D02*
D03*
X351500D02*
D03*
X336500Y1004000D02*
D03*
X341500D02*
D03*
X346500D02*
D03*
X351500D02*
D03*
X233500Y979000D02*
D03*
X238500D02*
D03*
X243500D02*
D03*
X248500D02*
D03*
X233500Y969000D02*
D03*
X238500D02*
D03*
X243500D02*
D03*
X248500D02*
D03*
D171*
X135000Y207250D02*
D03*
Y213750D02*
D03*
Y220250D02*
D03*
Y226750D02*
D03*
Y233250D02*
D03*
Y239750D02*
D03*
Y246250D02*
D03*
Y252750D02*
D03*
X191000Y207250D02*
D03*
Y213750D02*
D03*
Y220250D02*
D03*
Y226750D02*
D03*
Y233250D02*
D03*
Y239750D02*
D03*
Y246250D02*
D03*
Y252750D02*
D03*
D172*
X97500Y268750D02*
D03*
Y256250D02*
D03*
Y243750D02*
D03*
Y231250D02*
D03*
D173*
X68500Y294250D02*
D03*
Y205750D02*
D03*
D174*
X1058850Y746975D02*
D03*
X1046150D02*
D03*
X1033450D02*
D03*
X1020750D02*
D03*
X1008050D02*
D03*
X995350D02*
D03*
X982650D02*
D03*
X969950D02*
D03*
X957250D02*
D03*
X944550D02*
D03*
X931850D02*
D03*
X919150D02*
D03*
X1058850Y893025D02*
D03*
X1046150D02*
D03*
X1033450D02*
D03*
X1020750D02*
D03*
X1008050D02*
D03*
X995350D02*
D03*
X982650D02*
D03*
X969950D02*
D03*
X957250D02*
D03*
X944550D02*
D03*
X931850D02*
D03*
X919150D02*
D03*
D175*
X1203500Y651000D02*
D03*
Y185000D02*
D03*
D176*
X930000Y260750D02*
D03*
Y273450D02*
D03*
Y286150D02*
D03*
Y298850D02*
D03*
Y311550D02*
D03*
Y324250D02*
D03*
Y336950D02*
D03*
Y575250D02*
D03*
Y562550D02*
D03*
Y549850D02*
D03*
Y537150D02*
D03*
Y524450D02*
D03*
Y511750D02*
D03*
Y499050D02*
D03*
Y486350D02*
D03*
Y473650D02*
D03*
Y460950D02*
D03*
Y448250D02*
D03*
Y435550D02*
D03*
Y422850D02*
D03*
Y410150D02*
D03*
Y397450D02*
D03*
Y384750D02*
D03*
Y372050D02*
D03*
D177*
X571000Y885250D02*
D03*
X579000D02*
D03*
X571000Y866750D02*
D03*
X579000D02*
D03*
X628000Y392250D02*
D03*
X636000D02*
D03*
X628000Y373750D02*
D03*
X636000D02*
D03*
X278000Y398250D02*
D03*
X286000D02*
D03*
X278000Y379750D02*
D03*
X286000D02*
D03*
X327500Y218500D02*
D03*
X321000D02*
D03*
X314500D02*
D03*
X327500Y237500D02*
D03*
X314500D02*
D03*
D179*
X309000Y768250D02*
D03*
Y753750D02*
D03*
D180*
X1170500Y453700D02*
D03*
Y428300D02*
D03*
X1147500Y453700D02*
D03*
Y428300D02*
D03*
D181*
X823500Y781500D02*
D03*
X798500D02*
D03*
X581500D02*
D03*
X556500D02*
D03*
X206500Y781500D02*
D03*
X231500D02*
D03*
X448500D02*
D03*
X473500D02*
D03*
D182*
X811000Y840500D02*
D03*
X569000D02*
D03*
X219000Y840500D02*
D03*
X461000D02*
D03*
D183*
X600999Y120000D02*
D03*
D184*
Y57999D02*
D03*
D185*
Y16498D02*
D03*
D186*
X465998Y11999D02*
D03*
D187*
X489498Y163000D02*
D03*
D188*
X591500D02*
D03*
X582000D02*
D03*
X571000D02*
D03*
X560000D02*
D03*
X549000D02*
D03*
X538000D02*
D03*
X527000D02*
D03*
X516000D02*
D03*
X505000D02*
D03*
D195*
X338000Y900001D02*
D03*
X355999Y917999D02*
D03*
D196*
X338000Y917999D02*
D03*
X355999Y900001D02*
D03*
M02*
