%FSLAX44Y44*%
%MOMM*%
G71*
G01*
G75*
G04 Layer_Color=32896*
%ADD10R,0.2500X0.8000*%
%ADD11R,0.4000X0.6500*%
%ADD12R,0.3250X0.6500*%
%ADD13R,0.6000X0.5000*%
%ADD14R,1.2000X1.1500*%
%ADD15R,2.5000X3.3000*%
%ADD16R,1.8288X3.4290*%
%ADD17R,0.6400X4.7000*%
%ADD18R,0.6400X2.5400*%
%ADD19R,1.4500X0.3000*%
%ADD20R,0.8500X0.2800*%
%ADD21R,0.2800X0.8500*%
%ADD22R,3.1500X3.1500*%
%ADD23R,3.5000X3.5000*%
%ADD24R,0.8500X0.3000*%
%ADD25R,0.3000X0.8500*%
%ADD26R,3.5000X3.5000*%
%ADD27R,1.0400X0.3800*%
%ADD28R,1.0000X0.2800*%
%ADD29R,0.2800X1.0000*%
%ADD30R,3.7000X3.7000*%
%ADD31R,0.8000X0.2400*%
%ADD32R,0.2400X0.8000*%
%ADD33R,2.2000X2.2000*%
%ADD34R,1.0000X0.5500*%
%ADD35R,1.2000X0.5800*%
%ADD36R,0.5800X1.2000*%
%ADD37R,0.9000X0.7000*%
%ADD38R,0.7000X0.9000*%
%ADD39C,1.0160*%
%ADD40R,1.9000X2.6000*%
%ADD41R,0.2800X1.4000*%
%ADD42R,0.8000X0.8000*%
%ADD43R,0.7500X0.4000*%
%ADD44R,0.9000X1.2000*%
%ADD45R,0.9000X0.8000*%
%ADD46R,0.6858X0.5588*%
%ADD47R,0.5000X0.6000*%
%ADD48R,1.6000X0.3000*%
%ADD49R,2.3700X2.4300*%
%ADD50R,2.4300X2.3700*%
%ADD51R,1.6000X0.9000*%
%ADD52R,0.9000X1.6000*%
%ADD53R,0.9000X1.3000*%
%ADD54R,1.3000X0.9000*%
%ADD55R,0.8000X0.8000*%
%ADD56R,0.5000X0.5000*%
%ADD57R,0.5000X0.5000*%
%ADD58R,0.3000X2.6000*%
%ADD59R,0.6000X1.0500*%
%ADD60R,0.7000X0.2800*%
%ADD61R,2.3368X1.6500*%
%ADD62O,0.2800X0.8500*%
%ADD63R,1.2000X0.9000*%
%ADD64R,0.8000X0.9000*%
%ADD65R,2.7000X1.4000*%
%ADD66R,0.7000X2.0000*%
%ADD67R,1.2000X1.2000*%
%ADD68R,1.5000X2.6000*%
%ADD69R,1.0000X2.6000*%
%ADD70R,1.9000X1.8000*%
%ADD71R,1.3500X0.4000*%
%ADD72R,2.9500X1.5000*%
%ADD73R,2.3000X1.0000*%
%ADD74R,2.0000X1.2500*%
%ADD75R,1.7000X0.8000*%
%ADD76C,0.2500*%
%ADD77C,0.3000*%
%ADD78C,0.5000*%
%ADD79C,0.2800*%
%ADD80C,0.4000*%
%ADD81C,0.2400*%
%ADD82C,0.8000*%
%ADD83C,0.5800*%
%ADD84C,0.6000*%
%ADD85C,0.4300*%
%ADD86C,0.3500*%
%ADD87C,1.0000*%
%ADD88C,0.2830*%
%ADD89C,1.7000*%
%ADD90C,5.0000*%
%ADD91O,4.0000X5.0000*%
%ADD92R,1.7000X1.7000*%
%ADD93R,1.7000X1.7000*%
%ADD94C,7.4000*%
%ADD95C,5.2000*%
%ADD96C,1.4000*%
%ADD97R,1.4000X1.4000*%
%ADD98R,2.0000X1.6000*%
%ADD99O,2.0000X1.6000*%
%ADD100R,1.6000X2.0000*%
%ADD101O,1.6000X2.0000*%
%ADD102C,1.3000*%
%ADD103C,2.0000*%
%ADD104O,1.3000X1.1000*%
%ADD105C,2.4000*%
%ADD106O,1.6000X2.0000*%
%ADD107R,1.6000X2.0000*%
%ADD108C,1.9000*%
%ADD109R,1.9000X1.9000*%
%ADD110C,3.6000*%
%ADD111R,3.6000X3.6000*%
%ADD112C,1.8000*%
%ADD113C,2.2000*%
%ADD114C,2.7000*%
%ADD115C,3.2500*%
%ADD116C,1.5748*%
%ADD117C,3.0000*%
%ADD118C,1.5240*%
%ADD119O,3.3000X4.0000*%
%ADD120C,3.0000*%
G04:AMPARAMS|DCode=121|XSize=1.25mm|YSize=1.1mm|CornerRadius=0.462mm|HoleSize=0mm|Usage=FLASHONLY|Rotation=0.000|XOffset=0mm|YOffset=0mm|HoleType=Round|Shape=RoundedRectangle|*
%AMROUNDEDRECTD121*
21,1,1.2500,0.1760,0,0,0.0*
21,1,0.3260,1.1000,0,0,0.0*
1,1,0.9240,0.1630,-0.0880*
1,1,0.9240,-0.1630,-0.0880*
1,1,0.9240,-0.1630,0.0880*
1,1,0.9240,0.1630,0.0880*
%
%ADD121ROUNDEDRECTD121*%
G04:AMPARAMS|DCode=122|XSize=1.9mm|YSize=2.425mm|CornerRadius=0.57mm|HoleSize=0mm|Usage=FLASHONLY|Rotation=0.000|XOffset=0mm|YOffset=0mm|HoleType=Round|Shape=RoundedRectangle|*
%AMROUNDEDRECTD122*
21,1,1.9000,1.2850,0,0,0.0*
21,1,0.7600,2.4250,0,0,0.0*
1,1,1.1400,0.3800,-0.6425*
1,1,1.1400,-0.3800,-0.6425*
1,1,1.1400,-0.3800,0.6425*
1,1,1.1400,0.3800,0.6425*
%
%ADD122ROUNDEDRECTD122*%
%ADD123R,1.5000X1.5000*%
%ADD124C,1.5000*%
%ADD125C,0.4500*%
%ADD126C,1.0000*%
%ADD127C,1.0000*%
%ADD128C,1.6000*%
G04:AMPARAMS|DCode=129|XSize=2mm|YSize=2mm|CornerRadius=0mm|HoleSize=0mm|Usage=FLASHONLY|Rotation=0.000|XOffset=0mm|YOffset=0mm|HoleType=Round|Shape=Relief|Width=0.5mm|Gap=0.2mm|Entries=4|*
%AMTHD129*
7,0,0,2.0000,1.6000,0.5000,45*
%
%ADD129THD129*%
%ADD130C,2.2000*%
%ADD131C,3.8000*%
G04:AMPARAMS|DCode=132|XSize=3.7mm|YSize=3.7mm|CornerRadius=0mm|HoleSize=0mm|Usage=FLASHONLY|Rotation=0.000|XOffset=0mm|YOffset=0mm|HoleType=Round|Shape=Relief|Width=0.5mm|Gap=0.2mm|Entries=4|*
%AMTHD132*
7,0,0,3.7000,3.3000,0.5000,45*
%
%ADD132THD132*%
G04:AMPARAMS|DCode=133|XSize=2.1mm|YSize=2.1mm|CornerRadius=0mm|HoleSize=0mm|Usage=FLASHONLY|Rotation=0.000|XOffset=0mm|YOffset=0mm|HoleType=Round|Shape=Relief|Width=0.5mm|Gap=0.2mm|Entries=4|*
%AMTHD133*
7,0,0,2.1000,1.7000,0.5000,45*
%
%ADD133THD133*%
%ADD134C,1.6500*%
G04:AMPARAMS|DCode=135|XSize=4.2mm|YSize=4.2mm|CornerRadius=0mm|HoleSize=0mm|Usage=FLASHONLY|Rotation=0.000|XOffset=0mm|YOffset=0mm|HoleType=Round|Shape=Relief|Width=0.5mm|Gap=0.2mm|Entries=4|*
%AMTHD135*
7,0,0,4.2000,3.8000,0.5000,45*
%
%ADD135THD135*%
G04:AMPARAMS|DCode=136|XSize=1.8mm|YSize=1.8mm|CornerRadius=0mm|HoleSize=0mm|Usage=FLASHONLY|Rotation=0.000|XOffset=0mm|YOffset=0mm|HoleType=Round|Shape=Relief|Width=0.5mm|Gap=0.2mm|Entries=4|*
%AMTHD136*
7,0,0,1.8000,1.4000,0.5000,45*
%
%ADD136THD136*%
G04:AMPARAMS|DCode=137|XSize=3.2mm|YSize=3.2mm|CornerRadius=0mm|HoleSize=0mm|Usage=FLASHONLY|Rotation=0.000|XOffset=0mm|YOffset=0mm|HoleType=Round|Shape=Relief|Width=0.5mm|Gap=0.2mm|Entries=4|*
%AMTHD137*
7,0,0,3.2000,2.8000,0.5000,45*
%
%ADD137THD137*%
G04:AMPARAMS|DCode=138|XSize=1.74mm|YSize=1.74mm|CornerRadius=0mm|HoleSize=0mm|Usage=FLASHONLY|Rotation=0.000|XOffset=0mm|YOffset=0mm|HoleType=Round|Shape=Relief|Width=0.5mm|Gap=0.2mm|Entries=4|*
%AMTHD138*
7,0,0,1.7400,1.3400,0.5000,45*
%
%ADD138THD138*%
G04:AMPARAMS|DCode=139|XSize=2.35mm|YSize=2.35mm|CornerRadius=0mm|HoleSize=0mm|Usage=FLASHONLY|Rotation=0.000|XOffset=0mm|YOffset=0mm|HoleType=Round|Shape=Relief|Width=0.5mm|Gap=0.2mm|Entries=4|*
%AMTHD139*
7,0,0,2.3500,1.9500,0.5000,45*
%
%ADD139THD139*%
%ADD140C,1.3400*%
G04:AMPARAMS|DCode=141|XSize=2.6mm|YSize=2.6mm|CornerRadius=0mm|HoleSize=0mm|Usage=FLASHONLY|Rotation=0.000|XOffset=0mm|YOffset=0mm|HoleType=Round|Shape=Relief|Width=0.5mm|Gap=0.2mm|Entries=4|*
%AMTHD141*
7,0,0,2.6000,2.2000,0.5000,45*
%
%ADD141THD141*%
%ADD142C,1.6900*%
G04:AMPARAMS|DCode=143|XSize=4.18mm|YSize=4.18mm|CornerRadius=0mm|HoleSize=0mm|Usage=FLASHONLY|Rotation=0.000|XOffset=0mm|YOffset=0mm|HoleType=Round|Shape=Relief|Width=0.5mm|Gap=0.2mm|Entries=4|*
%AMTHD143*
7,0,0,4.1800,3.7800,0.5000,45*
%
%ADD143THD143*%
G04:AMPARAMS|DCode=144|XSize=2.09mm|YSize=2.09mm|CornerRadius=0mm|HoleSize=0mm|Usage=FLASHONLY|Rotation=0.000|XOffset=0mm|YOffset=0mm|HoleType=Round|Shape=Relief|Width=0.5mm|Gap=0.2mm|Entries=4|*
%AMTHD144*
7,0,0,2.0900,1.6900,0.5000,45*
%
%ADD144THD144*%
%ADD145C,2.4000*%
G04:AMPARAMS|DCode=146|XSize=2.8mm|YSize=2.8mm|CornerRadius=0mm|HoleSize=0mm|Usage=FLASHONLY|Rotation=0.000|XOffset=0mm|YOffset=0mm|HoleType=Round|Shape=Relief|Width=0.5mm|Gap=0.2mm|Entries=4|*
%AMTHD146*
7,0,0,2.8000,2.4000,0.5000,45*
%
%ADD146THD146*%
G04:AMPARAMS|DCode=147|XSize=2.3mm|YSize=2.3mm|CornerRadius=0mm|HoleSize=0mm|Usage=FLASHONLY|Rotation=0.000|XOffset=0mm|YOffset=0mm|HoleType=Round|Shape=Relief|Width=0.5mm|Gap=0.2mm|Entries=4|*
%AMTHD147*
7,0,0,2.3000,1.9000,0.5000,45*
%
%ADD147THD147*%
%ADD148C,3.8500*%
%ADD149C,1.9500*%
G04:AMPARAMS|DCode=150|XSize=3.3mm|YSize=3.3mm|CornerRadius=0mm|HoleSize=0mm|Usage=FLASHONLY|Rotation=0.000|XOffset=0mm|YOffset=0mm|HoleType=Round|Shape=Relief|Width=0.5mm|Gap=0.2mm|Entries=4|*
%AMTHD150*
7,0,0,3.3000,2.9000,0.5000,45*
%
%ADD150THD150*%
%ADD151C,2.3500*%
G04:AMPARAMS|DCode=152|XSize=3.4mm|YSize=3.4mm|CornerRadius=0mm|HoleSize=0mm|Usage=FLASHONLY|Rotation=0.000|XOffset=0mm|YOffset=0mm|HoleType=Round|Shape=Relief|Width=0.5mm|Gap=0.2mm|Entries=4|*
%AMTHD152*
7,0,0,3.4000,3.0000,0.5000,45*
%
%ADD152THD152*%
G04:AMPARAMS|DCode=153|XSize=4mm|YSize=4mm|CornerRadius=0mm|HoleSize=0mm|Usage=FLASHONLY|Rotation=0.000|XOffset=0mm|YOffset=0mm|HoleType=Round|Shape=Relief|Width=0.5mm|Gap=0.2mm|Entries=4|*
%AMTHD153*
7,0,0,4.0000,3.6000,0.5000,45*
%
%ADD153THD153*%
G04:AMPARAMS|DCode=154|XSize=3mm|YSize=3mm|CornerRadius=0mm|HoleSize=0mm|Usage=FLASHONLY|Rotation=0.000|XOffset=0mm|YOffset=0mm|HoleType=Round|Shape=Relief|Width=0.5mm|Gap=0.2mm|Entries=4|*
%AMTHD154*
7,0,0,3.0000,2.6000,0.5000,45*
%
%ADD154THD154*%
%ADD155C,2.1500*%
G04:AMPARAMS|DCode=156|XSize=1.85mm|YSize=1.85mm|CornerRadius=0mm|HoleSize=0mm|Usage=FLASHONLY|Rotation=0.000|XOffset=0mm|YOffset=0mm|HoleType=Round|Shape=Relief|Width=0.5mm|Gap=0.2mm|Entries=4|*
%AMTHD156*
7,0,0,1.8500,1.4500,0.5000,45*
%
%ADD156THD156*%
%ADD157C,2.0000*%
%ADD158C,2.9500*%
G04:AMPARAMS|DCode=159|XSize=1.7mm|YSize=1.7mm|CornerRadius=0mm|HoleSize=0mm|Usage=FLASHONLY|Rotation=0.000|XOffset=0mm|YOffset=0mm|HoleType=Round|Shape=Relief|Width=0.5mm|Gap=0.2mm|Entries=4|*
%AMTHD159*
7,0,0,1.7000,1.3000,0.5000,45*
%
%ADD159THD159*%
G04:AMPARAMS|DCode=160|XSize=1.9mm|YSize=1.9mm|CornerRadius=0mm|HoleSize=0mm|Usage=FLASHONLY|Rotation=0.000|XOffset=0mm|YOffset=0mm|HoleType=Round|Shape=Relief|Width=0.5mm|Gap=0.2mm|Entries=4|*
%AMTHD160*
7,0,0,1.9000,1.5000,0.5000,45*
%
%ADD160THD160*%
%ADD161C,0.8000*%
%ADD162C,1.1000*%
%ADD163C,0.2000*%
%ADD164R,2.3000X3.2000*%
%ADD165R,0.6000X2.0000*%
%ADD166R,0.2500X0.6000*%
%ADD167R,3.3000X3.3000*%
%ADD168R,0.6000X0.2300*%
%ADD169R,0.2300X0.6000*%
%ADD170R,0.2500X0.5000*%
%ADD171R,1.6000X0.3500*%
%ADD172R,1.6000X0.8000*%
%ADD173R,3.0000X2.1000*%
%ADD174R,0.7620X1.9050*%
%ADD175R,3.6000X3.0000*%
%ADD176R,2.5000X0.8000*%
%ADD177R,0.4000X0.7500*%
%ADD178C,0.6350*%
%ADD179R,1.4000X0.7500*%
%ADD180R,1.1000X1.2000*%
%ADD181R,1.2000X2.7000*%
%ADD182R,1.5000X1.9000*%
%ADD183R,1.0000X1.2000*%
%ADD184R,1.0000X0.8001*%
%ADD185R,1.0000X2.8001*%
%ADD186R,1.3000X1.8999*%
%ADD187R,1.0000X1.2000*%
%ADD188R,0.7000X1.2000*%
%ADD189C,0.2300*%
%ADD190C,0.2200*%
%ADD191C,0.2540*%
%ADD192C,0.2032*%
%ADD193C,0.1500*%
%ADD194R,1.4000X1.4000*%
%ADD195R,1.6000X1.6000*%
%ADD196R,1.6000X1.6000*%
%ADD197R,1.6000X1.6000*%
%ADD198R,1.6000X1.6000*%
%ADD199R,1.0414X0.6604*%
%ADD200R,0.3500X0.9000*%
%ADD201R,0.5000X0.7500*%
%ADD202R,0.4250X0.7500*%
%ADD203R,0.8032X0.7032*%
%ADD204R,1.4032X1.3532*%
%ADD205R,2.7032X3.5032*%
%ADD206R,2.0320X3.6322*%
%ADD207R,0.6908X4.7508*%
%ADD208R,0.6908X2.5908*%
%ADD209R,1.5008X0.3508*%
%ADD210R,0.9000X0.3300*%
%ADD211R,0.3300X0.9000*%
%ADD212R,3.2008X3.2008*%
%ADD213R,3.5508X3.5508*%
%ADD214R,0.9008X0.3508*%
%ADD215R,0.3508X0.9008*%
%ADD216R,3.5508X3.5508*%
%ADD217R,1.1924X0.5324*%
%ADD218R,1.0500X0.3300*%
%ADD219R,0.3300X1.0500*%
%ADD220R,3.7508X3.7508*%
%ADD221R,0.8508X0.2908*%
%ADD222R,0.2908X0.8508*%
%ADD223R,2.2508X2.2508*%
%ADD224R,1.2032X0.7532*%
%ADD225R,1.4032X0.7832*%
%ADD226R,0.7832X1.4032*%
%ADD227R,1.1032X0.9032*%
%ADD228R,0.9032X1.1032*%
%ADD229C,3.0480*%
%ADD230R,2.1032X2.8032*%
%ADD231R,0.3308X1.4508*%
%ADD232R,1.0032X1.0032*%
%ADD233R,0.9024X0.5524*%
%ADD234R,1.1032X1.4032*%
%ADD235R,1.1032X1.0032*%
%ADD236R,0.8382X0.7112*%
%ADD237R,0.8008X0.4508*%
%ADD238R,0.7032X0.8032*%
%ADD239R,1.7400X0.4400*%
%ADD240R,2.5732X2.6332*%
%ADD241R,2.6332X2.5732*%
%ADD242R,1.8032X1.1032*%
%ADD243R,1.1032X1.8032*%
%ADD244R,1.1032X1.5032*%
%ADD245R,1.5032X1.1032*%
%ADD246R,1.0032X1.0032*%
%ADD247R,0.7032X0.7032*%
%ADD248R,0.7032X0.7032*%
%ADD249R,0.3508X2.6508*%
%ADD250R,0.7400X1.1900*%
%ADD251R,0.9540X0.5340*%
%ADD252R,2.3876X1.7008*%
%ADD253O,0.3308X0.9008*%
%ADD254R,1.4032X1.1032*%
%ADD255R,1.0032X1.1032*%
%ADD256R,2.9032X1.6032*%
%ADD257R,0.9032X2.2032*%
%ADD258R,1.4032X1.4032*%
%ADD259R,1.7032X2.8032*%
%ADD260R,1.2032X2.8032*%
%ADD261R,2.1032X2.0032*%
%ADD262R,1.4008X0.4508*%
%ADD263R,3.1532X1.7032*%
%ADD264R,2.4020X1.1020*%
%ADD265R,2.2032X1.4532*%
%ADD266R,1.9032X1.0032*%
%ADD267C,1.9032*%
G04:AMPARAMS|DCode=268|XSize=0.2032mm|YSize=0.2032mm|CornerRadius=0mm|HoleSize=0mm|Usage=FLASHONLY|Rotation=90.000|XOffset=0mm|YOffset=0mm|HoleType=Round|Shape=RoundedRectangle|*
%AMROUNDEDRECTD268*
21,1,0.2032,0.2032,0,0,90.0*
21,1,0.2032,0.2032,0,0,90.0*
1,1,0.0000,0.1016,0.1016*
1,1,0.0000,0.1016,-0.1016*
1,1,0.0000,-0.1016,-0.1016*
1,1,0.0000,-0.1016,0.1016*
%
%ADD268ROUNDEDRECTD268*%
%ADD269C,5.2032*%
%ADD270O,4.2032X5.2032*%
%ADD271R,1.9032X1.9032*%
%ADD272R,1.9032X1.9032*%
%ADD273C,0.2032*%
%ADD274C,7.4508*%
%ADD275C,5.4032*%
%ADD276C,1.6032*%
%ADD277R,1.6032X1.6032*%
%ADD278R,2.2032X1.8032*%
%ADD279O,2.2032X1.8032*%
%ADD280R,1.8032X2.2032*%
%ADD281O,1.8032X2.2032*%
%ADD282C,1.5032*%
%ADD283C,2.2032*%
%ADD284O,1.5032X1.3032*%
%ADD285C,2.6032*%
%ADD286O,1.8032X2.2032*%
%ADD287R,1.8032X2.2032*%
%ADD288C,2.1032*%
%ADD289R,2.1032X2.1032*%
%ADD290C,3.8032*%
%ADD291R,3.8032X3.8032*%
%ADD292C,2.0032*%
%ADD293C,2.4032*%
%ADD294C,2.9032*%
%ADD295C,3.4532*%
%ADD296C,1.7780*%
%ADD297C,5.0508*%
%ADD298C,3.2032*%
%ADD299C,1.7272*%
%ADD300O,3.5032X4.2032*%
%ADD301C,3.2032*%
G04:AMPARAMS|DCode=302|XSize=1.33mm|YSize=1.18mm|CornerRadius=0.502mm|HoleSize=0mm|Usage=FLASHONLY|Rotation=0.000|XOffset=0mm|YOffset=0mm|HoleType=Round|Shape=RoundedRectangle|*
%AMROUNDEDRECTD302*
21,1,1.3300,0.1760,0,0,0.0*
21,1,0.3260,1.1800,0,0,0.0*
1,1,1.0040,0.1630,-0.0880*
1,1,1.0040,-0.1630,-0.0880*
1,1,1.0040,-0.1630,0.0880*
1,1,1.0040,0.1630,0.0880*
%
%ADD302ROUNDEDRECTD302*%
G04:AMPARAMS|DCode=303|XSize=2.1032mm|YSize=2.6282mm|CornerRadius=0.6716mm|HoleSize=0mm|Usage=FLASHONLY|Rotation=0.000|XOffset=0mm|YOffset=0mm|HoleType=Round|Shape=RoundedRectangle|*
%AMROUNDEDRECTD303*
21,1,2.1032,1.2850,0,0,0.0*
21,1,0.7600,2.6282,0,0,0.0*
1,1,1.3432,0.3800,-0.6425*
1,1,1.3432,-0.3800,-0.6425*
1,1,1.3432,-0.3800,0.6425*
1,1,1.3432,0.3800,0.6425*
%
%ADD303ROUNDEDRECTD303*%
G04:AMPARAMS|DCode=304|XSize=0.2032mm|YSize=0.2032mm|CornerRadius=0mm|HoleSize=0mm|Usage=FLASHONLY|Rotation=180.000|XOffset=0mm|YOffset=0mm|HoleType=Round|Shape=RoundedRectangle|*
%AMROUNDEDRECTD304*
21,1,0.2032,0.2032,0,0,180.0*
21,1,0.2032,0.2032,0,0,180.0*
1,1,0.0000,-0.1016,0.1016*
1,1,0.0000,0.1016,0.1016*
1,1,0.0000,0.1016,-0.1016*
1,1,0.0000,-0.1016,-0.1016*
%
%ADD304ROUNDEDRECTD304*%
%ADD305R,1.7032X1.7032*%
%ADD306C,1.7032*%
%ADD307R,2.5032X3.4032*%
%ADD308R,0.7000X2.1000*%
%ADD309R,0.3008X0.6508*%
%ADD310R,3.4016X3.4016*%
%ADD311R,0.7016X0.3316*%
%ADD312R,0.3316X0.7016*%
%ADD313R,0.3008X0.5508*%
%ADD314R,1.7400X0.4900*%
%ADD315R,1.8032X1.0032*%
%ADD316R,3.2032X2.3032*%
%ADD317R,0.9652X2.1082*%
%ADD318R,3.8032X3.2032*%
%ADD319R,2.7032X1.0032*%
%ADD320R,0.5524X0.9024*%
%ADD321C,0.7366*%
%ADD322R,0.4508X0.8008*%
%ADD323R,1.6032X0.9532*%
%ADD324R,1.3032X1.4032*%
%ADD325R,1.4032X2.9032*%
%ADD326R,1.7032X2.1032*%
%ADD327R,1.2032X1.4032*%
%ADD328R,1.2032X1.0033*%
%ADD329R,1.2032X3.0033*%
%ADD330R,1.5032X2.1031*%
%ADD331R,1.2032X1.4032*%
%ADD332R,0.8400X1.3400*%
%ADD333R,0.9032X1.4032*%
%ADD334C,0.1000*%
%ADD335C,0.1524*%
%ADD336C,0.7000*%
D191*
X2300000Y1135157D02*
Y1127539D01*
X2302539Y1125000D01*
X2310157D01*
Y1135157D01*
X2315235Y1125000D02*
X2322853D01*
X2325392Y1127539D01*
X2322853Y1130078D01*
X2317774D01*
X2315235Y1132617D01*
X2317774Y1135157D01*
X2325392D01*
X2338088Y1125000D02*
X2333009D01*
X2330470Y1127539D01*
Y1132617D01*
X2333009Y1135157D01*
X2338088D01*
X2340627Y1132617D01*
Y1130078D01*
X2330470D01*
X2363479Y1137696D02*
Y1135157D01*
X2360940D01*
X2366019D01*
X2363479D01*
Y1127539D01*
X2366019Y1125000D01*
X2373636Y1140235D02*
Y1125000D01*
Y1132617D01*
X2376175Y1135157D01*
X2381254D01*
X2383793Y1132617D01*
Y1125000D01*
X2396489D02*
X2391411D01*
X2388871Y1127539D01*
Y1132617D01*
X2391411Y1135157D01*
X2396489D01*
X2399028Y1132617D01*
Y1130078D01*
X2388871D01*
X2419341Y1125000D02*
Y1135157D01*
X2421881D01*
X2424420Y1132617D01*
Y1125000D01*
Y1132617D01*
X2426959Y1135157D01*
X2429498Y1132617D01*
Y1125000D01*
X2437116Y1135157D02*
X2442194D01*
X2444733Y1132617D01*
Y1125000D01*
X2437116D01*
X2434577Y1127539D01*
X2437116Y1130078D01*
X2444733D01*
X2452351Y1137696D02*
Y1135157D01*
X2449812D01*
X2454890D01*
X2452351D01*
Y1127539D01*
X2454890Y1125000D01*
X2470125D02*
X2465047D01*
X2462507Y1127539D01*
Y1132617D01*
X2465047Y1135157D01*
X2470125D01*
X2472664Y1132617D01*
Y1130078D01*
X2462507D01*
X2477742Y1135157D02*
Y1125000D01*
Y1130078D01*
X2480282Y1132617D01*
X2482821Y1135157D01*
X2485360D01*
X2492978Y1125000D02*
X2498056D01*
X2495517D01*
Y1135157D01*
X2492978D01*
X2508213D02*
X2513291D01*
X2515830Y1132617D01*
Y1125000D01*
X2508213D01*
X2505674Y1127539D01*
X2508213Y1130078D01*
X2515830D01*
X2520909Y1125000D02*
X2525987D01*
X2523448D01*
Y1140235D01*
X2520909D01*
X2533604Y1125000D02*
Y1127539D01*
X2536144D01*
Y1125000D01*
X2533604D01*
X2300000Y1150000D02*
X2305078D01*
X2302539D01*
Y1160157D01*
X2300000D01*
X2312696Y1150000D02*
Y1160157D01*
X2320313D01*
X2322853Y1157617D01*
Y1150000D01*
X2330470Y1162696D02*
Y1160157D01*
X2327931D01*
X2333009D01*
X2330470D01*
Y1152539D01*
X2333009Y1150000D01*
X2348244D02*
X2343166D01*
X2340627Y1152539D01*
Y1157617D01*
X2343166Y1160157D01*
X2348244D01*
X2350784Y1157617D01*
Y1155078D01*
X2340627D01*
X2355862Y1150000D02*
Y1160157D01*
X2363479D01*
X2366019Y1157617D01*
Y1150000D01*
X2381254Y1165235D02*
Y1150000D01*
X2373636D01*
X2371097Y1152539D01*
Y1157617D01*
X2373636Y1160157D01*
X2381254D01*
X2393950Y1150000D02*
X2388871D01*
X2386332Y1152539D01*
Y1157617D01*
X2388871Y1160157D01*
X2393950D01*
X2396489Y1157617D01*
Y1155078D01*
X2386332D01*
X2411724Y1165235D02*
Y1150000D01*
X2404106D01*
X2401567Y1152539D01*
Y1157617D01*
X2404106Y1160157D01*
X2411724D01*
X2432037D02*
Y1152539D01*
X2434577Y1150000D01*
X2442194D01*
Y1160157D01*
X2447272Y1150000D02*
X2454890D01*
X2457429Y1152539D01*
X2454890Y1155078D01*
X2449812D01*
X2447272Y1157617D01*
X2449812Y1160157D01*
X2457429D01*
X2470125Y1150000D02*
X2465047D01*
X2462507Y1152539D01*
Y1157617D01*
X2465047Y1160157D01*
X2470125D01*
X2472664Y1157617D01*
Y1155078D01*
X2462507D01*
X2477742Y1150000D02*
Y1152539D01*
X2480282D01*
Y1150000D01*
X2477742D01*
X2515830Y1165235D02*
X2505674D01*
Y1157617D01*
X2510752D01*
X2505674D01*
Y1150000D01*
X2523448D02*
X2528526D01*
X2531065Y1152539D01*
Y1157617D01*
X2528526Y1160157D01*
X2523448D01*
X2520909Y1157617D01*
Y1152539D01*
X2523448Y1150000D01*
X2536144Y1160157D02*
Y1150000D01*
Y1155078D01*
X2538683Y1157617D01*
X2541222Y1160157D01*
X2543761D01*
X2574231Y1150000D02*
X2569153D01*
X2566614Y1152539D01*
Y1157617D01*
X2569153Y1160157D01*
X2574231D01*
X2576771Y1157617D01*
Y1155078D01*
X2566614D01*
X2581849Y1160157D02*
X2592006Y1150000D01*
X2586927Y1155078D01*
X2592006Y1160157D01*
X2581849Y1150000D01*
X2599623Y1160157D02*
X2604702D01*
X2607241Y1157617D01*
Y1150000D01*
X2599623D01*
X2597084Y1152539D01*
X2599623Y1155078D01*
X2607241D01*
X2612319Y1150000D02*
Y1160157D01*
X2614858D01*
X2617397Y1157617D01*
Y1150000D01*
Y1157617D01*
X2619937Y1160157D01*
X2622476Y1157617D01*
Y1150000D01*
X2627554Y1144922D02*
Y1160157D01*
X2635172D01*
X2637711Y1157617D01*
Y1152539D01*
X2635172Y1150000D01*
X2627554D01*
X2642789D02*
X2647867D01*
X2645328D01*
Y1165235D01*
X2642789D01*
X2663102Y1150000D02*
X2658024D01*
X2655485Y1152539D01*
Y1157617D01*
X2658024Y1160157D01*
X2663102D01*
X2665642Y1157617D01*
Y1155078D01*
X2655485D01*
X2673259Y1147461D02*
X2675798Y1150000D01*
Y1152539D01*
X2673259D01*
Y1150000D01*
X2675798D01*
X2673259Y1147461D01*
X2670720Y1144922D01*
X2703729Y1150000D02*
X2708808D01*
X2711347Y1152539D01*
Y1157617D01*
X2708808Y1160157D01*
X2703729D01*
X2701190Y1157617D01*
Y1152539D01*
X2703729Y1150000D01*
X2718965Y1162696D02*
Y1160157D01*
X2716425D01*
X2721504D01*
X2718965D01*
Y1152539D01*
X2721504Y1150000D01*
X2729121Y1165235D02*
Y1150000D01*
Y1157617D01*
X2731660Y1160157D01*
X2736739D01*
X2739278Y1157617D01*
Y1150000D01*
X2751974D02*
X2746895D01*
X2744356Y1152539D01*
Y1157617D01*
X2746895Y1160157D01*
X2751974D01*
X2754513Y1157617D01*
Y1155078D01*
X2744356D01*
X2759591Y1160157D02*
Y1150000D01*
Y1155078D01*
X2762130Y1157617D01*
X2764670Y1160157D01*
X2767209D01*
X2790062D02*
Y1150000D01*
Y1155078D01*
X2792601Y1157617D01*
X2795140Y1160157D01*
X2797679D01*
X2805297Y1150000D02*
X2810375D01*
X2807836D01*
Y1160157D01*
X2805297D01*
X2823071Y1144922D02*
X2825610D01*
X2828149Y1147461D01*
Y1160157D01*
X2820532D01*
X2817992Y1157617D01*
Y1152539D01*
X2820532Y1150000D01*
X2828149D01*
X2833228Y1165235D02*
Y1150000D01*
Y1157617D01*
X2835767Y1160157D01*
X2840845D01*
X2843384Y1157617D01*
Y1150000D01*
X2851002Y1162696D02*
Y1160157D01*
X2848463D01*
X2853541D01*
X2851002D01*
Y1152539D01*
X2853541Y1150000D01*
X2861158D02*
X2868776D01*
X2871315Y1152539D01*
X2868776Y1155078D01*
X2863698D01*
X2861158Y1157617D01*
X2863698Y1160157D01*
X2871315D01*
X2891629Y1150000D02*
X2899246D01*
X2901785Y1152539D01*
X2899246Y1155078D01*
X2894168D01*
X2891629Y1157617D01*
X2894168Y1160157D01*
X2901785D01*
X2906864D02*
Y1152539D01*
X2909403Y1150000D01*
X2917020D01*
Y1160157D01*
X2932256D02*
X2924638D01*
X2922099Y1157617D01*
Y1152539D01*
X2924638Y1150000D01*
X2932256D01*
X2937334Y1165235D02*
Y1150000D01*
Y1157617D01*
X2939873Y1160157D01*
X2944951D01*
X2947491Y1157617D01*
Y1150000D01*
X2970343Y1160157D02*
X2975421D01*
X2977961Y1157617D01*
Y1150000D01*
X2970343D01*
X2967804Y1152539D01*
X2970343Y1155078D01*
X2977961D01*
X2983039Y1150000D02*
X2990657D01*
X2993196Y1152539D01*
X2990657Y1155078D01*
X2985578D01*
X2983039Y1157617D01*
X2985578Y1160157D01*
X2993196D01*
X3013509Y1144922D02*
Y1160157D01*
X3021127D01*
X3023666Y1157617D01*
Y1152539D01*
X3021127Y1150000D01*
X3013509D01*
X3028744Y1160157D02*
Y1152539D01*
X3031283Y1150000D01*
X3038901D01*
Y1160157D01*
X3043979Y1165235D02*
Y1150000D01*
X3051597D01*
X3054136Y1152539D01*
Y1155078D01*
Y1157617D01*
X3051597Y1160157D01*
X3043979D01*
X3059214Y1150000D02*
X3064293D01*
X3061754D01*
Y1165235D01*
X3059214D01*
X3071910Y1150000D02*
X3076989D01*
X3074449D01*
Y1160157D01*
X3071910D01*
X3094763D02*
X3087145D01*
X3084606Y1157617D01*
Y1152539D01*
X3087145Y1150000D01*
X3094763D01*
X3099841D02*
X3104920D01*
X3102380D01*
Y1160157D01*
X3099841D01*
X3115076Y1162696D02*
Y1160157D01*
X3112537D01*
X3117615D01*
X3115076D01*
Y1152539D01*
X3117615Y1150000D01*
X3125233Y1160157D02*
Y1152539D01*
X3127772Y1150000D01*
X3135390D01*
Y1147461D01*
X3132851Y1144922D01*
X3130311D01*
X3135390Y1150000D02*
Y1160157D01*
X3143007Y1147461D02*
X3145546Y1150000D01*
Y1152539D01*
X3143007D01*
Y1150000D01*
X3145546D01*
X3143007Y1147461D01*
X3140468Y1144922D01*
X3170938D02*
Y1160157D01*
X3178556D01*
X3181095Y1157617D01*
Y1152539D01*
X3178556Y1150000D01*
X3170938D01*
X3186173Y1160157D02*
Y1150000D01*
Y1155078D01*
X3188712Y1157617D01*
X3191252Y1160157D01*
X3193791D01*
X3201408Y1150000D02*
X3206487D01*
X3203947D01*
Y1160157D01*
X3201408D01*
X3214104D02*
X3219183Y1150000D01*
X3224261Y1160157D01*
X3231878D02*
X3236957D01*
X3239496Y1157617D01*
Y1150000D01*
X3231878D01*
X3229339Y1152539D01*
X3231878Y1155078D01*
X3239496D01*
X3254731Y1160157D02*
X3247114D01*
X3244574Y1157617D01*
Y1152539D01*
X3247114Y1150000D01*
X3254731D01*
X3259810Y1160157D02*
Y1152539D01*
X3262349Y1150000D01*
X3269966D01*
Y1147461D01*
X3267427Y1144922D01*
X3264888D01*
X3269966Y1150000D02*
Y1160157D01*
X3277584Y1147461D02*
X3280123Y1150000D01*
Y1152539D01*
X3277584D01*
Y1150000D01*
X3280123D01*
X3277584Y1147461D01*
X3275045Y1144922D01*
X3308054Y1150000D02*
X3313132D01*
X3315671Y1152539D01*
Y1157617D01*
X3313132Y1160157D01*
X3308054D01*
X3305515Y1157617D01*
Y1152539D01*
X3308054Y1150000D01*
X3320750Y1160157D02*
Y1150000D01*
Y1155078D01*
X3323289Y1157617D01*
X3325828Y1160157D01*
X3328367D01*
X3351220Y1150000D02*
Y1160157D01*
X3353759D01*
X3356298Y1157617D01*
Y1150000D01*
Y1157617D01*
X3358838Y1160157D01*
X3361377Y1157617D01*
Y1150000D01*
X3368994D02*
X3374073D01*
X3376612Y1152539D01*
Y1157617D01*
X3374073Y1160157D01*
X3368994D01*
X3366455Y1157617D01*
Y1152539D01*
X3368994Y1150000D01*
X3381690Y1160157D02*
Y1150000D01*
Y1155078D01*
X3384229Y1157617D01*
X3386768Y1160157D01*
X3389308D01*
X3399464D02*
X3404543D01*
X3407082Y1157617D01*
Y1150000D01*
X3399464D01*
X3396925Y1152539D01*
X3399464Y1155078D01*
X3407082D01*
X3412160Y1150000D02*
X3417238D01*
X3414699D01*
Y1165235D01*
X3412160D01*
X3440091Y1160157D02*
Y1150000D01*
Y1155078D01*
X3442630Y1157617D01*
X3445169Y1160157D01*
X3447709D01*
X3455326Y1150000D02*
X3460405D01*
X3457865D01*
Y1160157D01*
X3455326D01*
X3473101Y1144922D02*
X3475640D01*
X3478179Y1147461D01*
Y1160157D01*
X3470561D01*
X3468022Y1157617D01*
Y1152539D01*
X3470561Y1150000D01*
X3478179D01*
X3483257Y1165235D02*
Y1150000D01*
Y1157617D01*
X3485797Y1160157D01*
X3490875D01*
X3493414Y1157617D01*
Y1150000D01*
X3501031Y1162696D02*
Y1160157D01*
X3498492D01*
X3503571D01*
X3501031D01*
Y1152539D01*
X3503571Y1150000D01*
X3511188D02*
X3518806D01*
X3521345Y1152539D01*
X3518806Y1155078D01*
X3513727D01*
X3511188Y1157617D01*
X3513727Y1160157D01*
X3521345D01*
X3541658Y1150000D02*
Y1160157D01*
X3544197D01*
X3546736Y1157617D01*
Y1150000D01*
Y1157617D01*
X3549276Y1160157D01*
X3551815Y1157617D01*
Y1150000D01*
X3559433Y1160157D02*
X3564511D01*
X3567050Y1157617D01*
Y1150000D01*
X3559433D01*
X3556893Y1152539D01*
X3559433Y1155078D01*
X3567050D01*
X3572128Y1160157D02*
Y1152539D01*
X3574668Y1150000D01*
X3582285D01*
Y1147461D01*
X3579746Y1144922D01*
X3577207D01*
X3582285Y1150000D02*
Y1160157D01*
X3602599Y1150000D02*
X3607677D01*
X3605138D01*
Y1165235D01*
X3602599D01*
X3615294Y1150000D02*
X3620373D01*
X3617834D01*
Y1160157D01*
X3615294D01*
X3627990Y1150000D02*
Y1160157D01*
X3630529D01*
X3633069Y1157617D01*
Y1150000D01*
Y1157617D01*
X3635608Y1160157D01*
X3638147Y1157617D01*
Y1150000D01*
X3643225D02*
X3648304D01*
X3645764D01*
Y1160157D01*
X3643225D01*
X3658460Y1162696D02*
Y1160157D01*
X3655921D01*
X3661000D01*
X3658460D01*
Y1152539D01*
X3661000Y1150000D01*
X3683852Y1165235D02*
Y1150000D01*
Y1157617D01*
X3686392Y1160157D01*
X3691470D01*
X3694009Y1157617D01*
Y1150000D01*
X3701627D02*
X3706705D01*
X3709244Y1152539D01*
Y1157617D01*
X3706705Y1160157D01*
X3701627D01*
X3699087Y1157617D01*
Y1152539D01*
X3701627Y1150000D01*
X3714323Y1160157D02*
Y1152539D01*
X3716862Y1150000D01*
X3719401Y1152539D01*
X3721940Y1150000D01*
X3724479Y1152539D01*
Y1160157D01*
X3744792D02*
Y1152539D01*
X3747332Y1150000D01*
X3754949D01*
Y1147461D01*
X3752410Y1144922D01*
X3749871D01*
X3754949Y1150000D02*
Y1160157D01*
X3762567Y1150000D02*
X3767645D01*
X3770184Y1152539D01*
Y1157617D01*
X3767645Y1160157D01*
X3762567D01*
X3760027Y1157617D01*
Y1152539D01*
X3762567Y1150000D01*
X3775263Y1160157D02*
Y1152539D01*
X3777802Y1150000D01*
X3785419D01*
Y1160157D01*
X2300000Y1175000D02*
Y1190235D01*
X2310157Y1175000D01*
Y1190235D01*
X2317774Y1175000D02*
X2322853D01*
X2325392Y1177539D01*
Y1182617D01*
X2322853Y1185157D01*
X2317774D01*
X2315235Y1182617D01*
Y1177539D01*
X2317774Y1175000D01*
X2345705Y1185157D02*
Y1177539D01*
X2348244Y1175000D01*
X2350784Y1177539D01*
X2353323Y1175000D01*
X2355862Y1177539D01*
Y1185157D01*
X2363479D02*
X2368558D01*
X2371097Y1182617D01*
Y1175000D01*
X2363479D01*
X2360940Y1177539D01*
X2363479Y1180078D01*
X2371097D01*
X2376175Y1185157D02*
Y1175000D01*
Y1180078D01*
X2378715Y1182617D01*
X2381254Y1185157D01*
X2383793D01*
X2391411D02*
Y1175000D01*
Y1180078D01*
X2393950Y1182617D01*
X2396489Y1185157D01*
X2399028D01*
X2409185D02*
X2414263D01*
X2416802Y1182617D01*
Y1175000D01*
X2409185D01*
X2406646Y1177539D01*
X2409185Y1180078D01*
X2416802D01*
X2421881Y1175000D02*
Y1185157D01*
X2429498D01*
X2432037Y1182617D01*
Y1175000D01*
X2439655Y1187696D02*
Y1185157D01*
X2437116D01*
X2442194D01*
X2439655D01*
Y1177539D01*
X2442194Y1175000D01*
X2449812D02*
X2454890D01*
X2452351D01*
Y1185157D01*
X2449812D01*
X2470125Y1175000D02*
X2465047D01*
X2462507Y1177539D01*
Y1182617D01*
X2465047Y1185157D01*
X2470125D01*
X2472664Y1182617D01*
Y1180078D01*
X2462507D01*
X2477742Y1175000D02*
X2485360D01*
X2487899Y1177539D01*
X2485360Y1180078D01*
X2480282D01*
X2477742Y1182617D01*
X2480282Y1185157D01*
X2487899D01*
X2510752D02*
X2515830D01*
X2518369Y1182617D01*
Y1175000D01*
X2510752D01*
X2508213Y1177539D01*
X2510752Y1180078D01*
X2518369D01*
X2523448Y1185157D02*
Y1175000D01*
Y1180078D01*
X2525987Y1182617D01*
X2528526Y1185157D01*
X2531065D01*
X2546300Y1175000D02*
X2541222D01*
X2538683Y1177539D01*
Y1182617D01*
X2541222Y1185157D01*
X2546300D01*
X2548840Y1182617D01*
Y1180078D01*
X2538683D01*
X2574231Y1169922D02*
X2576771D01*
X2579310Y1172461D01*
Y1185157D01*
X2571692D01*
X2569153Y1182617D01*
Y1177539D01*
X2571692Y1175000D01*
X2579310D01*
X2584388D02*
X2589466D01*
X2586927D01*
Y1185157D01*
X2584388D01*
X2597084D02*
X2602162Y1175000D01*
X2607241Y1185157D01*
X2619937Y1175000D02*
X2614858D01*
X2612319Y1177539D01*
Y1182617D01*
X2614858Y1185157D01*
X2619937D01*
X2622476Y1182617D01*
Y1180078D01*
X2612319D01*
X2627554Y1175000D02*
Y1185157D01*
X2635172D01*
X2637711Y1182617D01*
Y1175000D01*
X2642789D02*
Y1177539D01*
X2645328D01*
Y1175000D01*
X2642789D01*
X2670720Y1190235D02*
X2680877D01*
X2675798D01*
Y1175000D01*
X2685955Y1190235D02*
Y1175000D01*
Y1182617D01*
X2688494Y1185157D01*
X2693573D01*
X2696112Y1182617D01*
Y1175000D01*
X2708808D02*
X2703729D01*
X2701190Y1177539D01*
Y1182617D01*
X2703729Y1185157D01*
X2708808D01*
X2711347Y1182617D01*
Y1180078D01*
X2701190D01*
X2731660Y1175000D02*
X2736739D01*
X2734200D01*
Y1190235D01*
X2731660D01*
X2744356Y1175000D02*
X2749435D01*
X2746895D01*
Y1185157D01*
X2744356D01*
X2767209D02*
X2759591D01*
X2757052Y1182617D01*
Y1177539D01*
X2759591Y1175000D01*
X2767209D01*
X2779905D02*
X2774826D01*
X2772287Y1177539D01*
Y1182617D01*
X2774826Y1185157D01*
X2779905D01*
X2782444Y1182617D01*
Y1180078D01*
X2772287D01*
X2787522Y1175000D02*
Y1185157D01*
X2795140D01*
X2797679Y1182617D01*
Y1175000D01*
X2802757D02*
X2810375D01*
X2812914Y1177539D01*
X2810375Y1180078D01*
X2805297D01*
X2802757Y1182617D01*
X2805297Y1185157D01*
X2812914D01*
X2825610Y1175000D02*
X2820532D01*
X2817992Y1177539D01*
Y1182617D01*
X2820532Y1185157D01*
X2825610D01*
X2828149Y1182617D01*
Y1180078D01*
X2817992D01*
X2848463Y1175000D02*
Y1185157D01*
X2851002D01*
X2853541Y1182617D01*
Y1175000D01*
Y1182617D01*
X2856080Y1185157D01*
X2858619Y1182617D01*
Y1175000D01*
X2866237Y1185157D02*
X2871315D01*
X2873854Y1182617D01*
Y1175000D01*
X2866237D01*
X2863698Y1177539D01*
X2866237Y1180078D01*
X2873854D01*
X2878933Y1185157D02*
Y1177539D01*
X2881472Y1175000D01*
X2889089D01*
Y1172461D01*
X2886550Y1169922D01*
X2884011D01*
X2889089Y1175000D02*
Y1185157D01*
X2909403Y1175000D02*
Y1185157D01*
X2917020D01*
X2919560Y1182617D01*
Y1175000D01*
X2927177D02*
X2932256D01*
X2934795Y1177539D01*
Y1182617D01*
X2932256Y1185157D01*
X2927177D01*
X2924638Y1182617D01*
Y1177539D01*
X2927177Y1175000D01*
X2942412Y1187696D02*
Y1185157D01*
X2939873D01*
X2944951D01*
X2942412D01*
Y1177539D01*
X2944951Y1175000D01*
X2972882Y1169922D02*
X2975421D01*
X2977961Y1172461D01*
Y1185157D01*
X2970343D01*
X2967804Y1182617D01*
Y1177539D01*
X2970343Y1175000D01*
X2977961D01*
X2983039D02*
X2988117D01*
X2985578D01*
Y1185157D01*
X2983039D01*
X2995735D02*
X3000813Y1175000D01*
X3005892Y1185157D01*
X3018588Y1175000D02*
X3013509D01*
X3010970Y1177539D01*
Y1182617D01*
X3013509Y1185157D01*
X3018588D01*
X3021127Y1182617D01*
Y1180078D01*
X3010970D01*
X3041440Y1185157D02*
Y1177539D01*
X3043979Y1175000D01*
X3051597D01*
Y1172461D01*
X3049058Y1169922D01*
X3046519D01*
X3051597Y1175000D02*
Y1185157D01*
X3059214Y1175000D02*
X3064293D01*
X3066832Y1177539D01*
Y1182617D01*
X3064293Y1185157D01*
X3059214D01*
X3056675Y1182617D01*
Y1177539D01*
X3059214Y1175000D01*
X3071910Y1185157D02*
Y1177539D01*
X3074449Y1175000D01*
X3082067D01*
Y1185157D01*
X3104920D02*
X3109998D01*
X3112537Y1182617D01*
Y1175000D01*
X3104920D01*
X3102380Y1177539D01*
X3104920Y1180078D01*
X3112537D01*
X3117615Y1175000D02*
X3122694D01*
X3120155D01*
Y1190235D01*
X3117615D01*
X3130311Y1175000D02*
X3135390D01*
X3132851D01*
Y1190235D01*
X3130311D01*
X3160782Y1175000D02*
X3165860D01*
X3168399Y1177539D01*
Y1182617D01*
X3165860Y1185157D01*
X3160782D01*
X3158242Y1182617D01*
Y1177539D01*
X3160782Y1175000D01*
X3176017D02*
Y1187696D01*
Y1182617D01*
X3173477D01*
X3178556D01*
X3176017D01*
Y1187696D01*
X3178556Y1190235D01*
X3203947Y1187696D02*
Y1185157D01*
X3201408D01*
X3206487D01*
X3203947D01*
Y1177539D01*
X3206487Y1175000D01*
X3214104Y1190235D02*
Y1175000D01*
Y1182617D01*
X3216643Y1185157D01*
X3221722D01*
X3224261Y1182617D01*
Y1175000D01*
X3236957D02*
X3231878D01*
X3229339Y1177539D01*
Y1182617D01*
X3231878Y1185157D01*
X3236957D01*
X3239496Y1182617D01*
Y1180078D01*
X3229339D01*
X3259810Y1169922D02*
Y1185157D01*
X3267427D01*
X3269966Y1182617D01*
Y1177539D01*
X3267427Y1175000D01*
X3259810D01*
X3282662D02*
X3277584D01*
X3275045Y1177539D01*
Y1182617D01*
X3277584Y1185157D01*
X3282662D01*
X3285201Y1182617D01*
Y1180078D01*
X3275045D01*
X3290280Y1185157D02*
Y1175000D01*
Y1180078D01*
X3292819Y1182617D01*
X3295358Y1185157D01*
X3297897D01*
X3305515Y1175000D02*
Y1185157D01*
X3308054D01*
X3310593Y1182617D01*
Y1175000D01*
Y1182617D01*
X3313132Y1185157D01*
X3315671Y1182617D01*
Y1175000D01*
X3320750D02*
X3325828D01*
X3323289D01*
Y1185157D01*
X3320750D01*
X3333446Y1175000D02*
X3341063D01*
X3343602Y1177539D01*
X3341063Y1180078D01*
X3335985D01*
X3333446Y1182617D01*
X3335985Y1185157D01*
X3343602D01*
X3348681Y1175000D02*
X3356298D01*
X3358838Y1177539D01*
X3356298Y1180078D01*
X3351220D01*
X3348681Y1182617D01*
X3351220Y1185157D01*
X3358838D01*
X3363916Y1175000D02*
X3368994D01*
X3366455D01*
Y1185157D01*
X3363916D01*
X3379151Y1175000D02*
X3384229D01*
X3386768Y1177539D01*
Y1182617D01*
X3384229Y1185157D01*
X3379151D01*
X3376612Y1182617D01*
Y1177539D01*
X3379151Y1175000D01*
X3391847D02*
Y1185157D01*
X3399464D01*
X3402003Y1182617D01*
Y1175000D01*
X3407082D02*
X3414699D01*
X3417238Y1177539D01*
X3414699Y1180078D01*
X3409621D01*
X3407082Y1182617D01*
X3409621Y1185157D01*
X3417238D01*
X3437552Y1175000D02*
Y1185157D01*
X3445169D01*
X3447709Y1182617D01*
Y1175000D01*
X3460405D02*
X3455326D01*
X3452787Y1177539D01*
Y1182617D01*
X3455326Y1185157D01*
X3460405D01*
X3462944Y1182617D01*
Y1180078D01*
X3452787D01*
X3478179Y1185157D02*
X3470561D01*
X3468022Y1182617D01*
Y1177539D01*
X3470561Y1175000D01*
X3478179D01*
X3490875D02*
X3485797D01*
X3483257Y1177539D01*
Y1182617D01*
X3485797Y1185157D01*
X3490875D01*
X3493414Y1182617D01*
Y1180078D01*
X3483257D01*
X3498492Y1175000D02*
X3506110D01*
X3508649Y1177539D01*
X3506110Y1180078D01*
X3501031D01*
X3498492Y1182617D01*
X3501031Y1185157D01*
X3508649D01*
X3513727Y1175000D02*
X3521345D01*
X3523884Y1177539D01*
X3521345Y1180078D01*
X3516266D01*
X3513727Y1182617D01*
X3516266Y1185157D01*
X3523884D01*
X3531501D02*
X3536580D01*
X3539119Y1182617D01*
Y1175000D01*
X3531501D01*
X3528962Y1177539D01*
X3531501Y1180078D01*
X3539119D01*
X3544197Y1185157D02*
Y1175000D01*
Y1180078D01*
X3546737Y1182617D01*
X3549276Y1185157D01*
X3551815D01*
X3559433D02*
Y1177539D01*
X3561972Y1175000D01*
X3569589D01*
Y1172461D01*
X3567050Y1169922D01*
X3564511D01*
X3569589Y1175000D02*
Y1185157D01*
X3592442Y1175000D02*
Y1187696D01*
Y1182617D01*
X3589903D01*
X3594981D01*
X3592442D01*
Y1187696D01*
X3594981Y1190235D01*
X3605138Y1175000D02*
X3610216D01*
X3612755Y1177539D01*
Y1182617D01*
X3610216Y1185157D01*
X3605138D01*
X3602599Y1182617D01*
Y1177539D01*
X3605138Y1175000D01*
X3617834Y1185157D02*
Y1175000D01*
Y1180078D01*
X3620373Y1182617D01*
X3622912Y1185157D01*
X3625451D01*
X3648304D02*
Y1177539D01*
X3650843Y1175000D01*
X3658460D01*
Y1172461D01*
X3655921Y1169922D01*
X3653382D01*
X3658460Y1175000D02*
Y1185157D01*
X3666078Y1175000D02*
X3671156D01*
X3673696Y1177539D01*
Y1182617D01*
X3671156Y1185157D01*
X3666078D01*
X3663539Y1182617D01*
Y1177539D01*
X3666078Y1175000D01*
X3678774Y1185157D02*
Y1177539D01*
X3681313Y1175000D01*
X3688931D01*
Y1185157D01*
X3694009D02*
Y1175000D01*
Y1180078D01*
X3696548Y1182617D01*
X3699088Y1185157D01*
X3701627D01*
X2300000Y1235157D02*
Y1227539D01*
X2302539Y1225000D01*
X2310157D01*
Y1222461D01*
X2307618Y1219922D01*
X2305078D01*
X2310157Y1225000D02*
Y1235157D01*
X2317774Y1225000D02*
X2322853D01*
X2325392Y1227539D01*
Y1232617D01*
X2322853Y1235157D01*
X2317774D01*
X2315235Y1232617D01*
Y1227539D01*
X2317774Y1225000D01*
X2330470Y1235157D02*
Y1227539D01*
X2333009Y1225000D01*
X2340627D01*
Y1235157D01*
X2345705D02*
Y1225000D01*
Y1230078D01*
X2348244Y1232617D01*
X2350784Y1235157D01*
X2353323D01*
X2376175D02*
Y1227539D01*
X2378715Y1225000D01*
X2386332D01*
Y1235157D01*
X2391411Y1225000D02*
X2399028D01*
X2401567Y1227539D01*
X2399028Y1230078D01*
X2393950D01*
X2391411Y1232617D01*
X2393950Y1235157D01*
X2401567D01*
X2414263Y1225000D02*
X2409185D01*
X2406646Y1227539D01*
Y1232617D01*
X2409185Y1235157D01*
X2414263D01*
X2416802Y1232617D01*
Y1230078D01*
X2406646D01*
X2437116Y1225000D02*
X2442194D01*
X2439655D01*
Y1235157D01*
X2437116D01*
X2449812Y1225000D02*
X2457429D01*
X2459968Y1227539D01*
X2457429Y1230078D01*
X2452351D01*
X2449812Y1232617D01*
X2452351Y1235157D01*
X2459968D01*
X2480282Y1219922D02*
Y1235157D01*
X2487899D01*
X2490438Y1232617D01*
Y1227539D01*
X2487899Y1225000D01*
X2480282D01*
X2503134D02*
X2498056D01*
X2495517Y1227539D01*
Y1232617D01*
X2498056Y1235157D01*
X2503134D01*
X2505674Y1232617D01*
Y1230078D01*
X2495517D01*
X2510752Y1235157D02*
Y1225000D01*
Y1230078D01*
X2513291Y1232617D01*
X2515830Y1235157D01*
X2518369D01*
X2525987Y1225000D02*
Y1235157D01*
X2528526D01*
X2531065Y1232617D01*
Y1225000D01*
Y1232617D01*
X2533604Y1235157D01*
X2536144Y1232617D01*
Y1225000D01*
X2541222D02*
X2546300D01*
X2543761D01*
Y1235157D01*
X2541222D01*
X2556457Y1237696D02*
Y1235157D01*
X2553918D01*
X2558996D01*
X2556457D01*
Y1227539D01*
X2558996Y1225000D01*
X2569153Y1237696D02*
Y1235157D01*
X2566614D01*
X2571692D01*
X2569153D01*
Y1227539D01*
X2571692Y1225000D01*
X2586927D02*
X2581849D01*
X2579310Y1227539D01*
Y1232617D01*
X2581849Y1235157D01*
X2586927D01*
X2589466Y1232617D01*
Y1230078D01*
X2579310D01*
X2604702Y1240235D02*
Y1225000D01*
X2597084D01*
X2594545Y1227539D01*
Y1232617D01*
X2597084Y1235157D01*
X2604702D01*
X2625015Y1240235D02*
Y1225000D01*
X2632632D01*
X2635172Y1227539D01*
Y1230078D01*
Y1232617D01*
X2632632Y1235157D01*
X2625015D01*
X2640250D02*
Y1227539D01*
X2642789Y1225000D01*
X2650407D01*
Y1222461D01*
X2647867Y1219922D01*
X2645328D01*
X2650407Y1225000D02*
Y1235157D01*
X2673259D02*
X2678338D01*
X2680877Y1232617D01*
Y1225000D01*
X2673259D01*
X2670720Y1227539D01*
X2673259Y1230078D01*
X2680877D01*
X2685955Y1225000D02*
Y1235157D01*
X2693573D01*
X2696112Y1232617D01*
Y1225000D01*
X2718965Y1235157D02*
X2724043D01*
X2726582Y1232617D01*
Y1225000D01*
X2718965D01*
X2716425Y1227539D01*
X2718965Y1230078D01*
X2726582D01*
X2731660Y1219922D02*
Y1235157D01*
X2739278D01*
X2741817Y1232617D01*
Y1227539D01*
X2739278Y1225000D01*
X2731660D01*
X2746895Y1219922D02*
Y1235157D01*
X2754513D01*
X2757052Y1232617D01*
Y1227539D01*
X2754513Y1225000D01*
X2746895D01*
X2762130D02*
X2767209D01*
X2764670D01*
Y1240235D01*
X2762130D01*
X2774826Y1225000D02*
X2779905D01*
X2777366D01*
Y1235157D01*
X2774826D01*
X2797679D02*
X2790062D01*
X2787522Y1232617D01*
Y1227539D01*
X2790062Y1225000D01*
X2797679D01*
X2805297Y1235157D02*
X2810375D01*
X2812914Y1232617D01*
Y1225000D01*
X2805297D01*
X2802757Y1227539D01*
X2805297Y1230078D01*
X2812914D01*
X2817992Y1240235D02*
Y1225000D01*
X2825610D01*
X2828149Y1227539D01*
Y1230078D01*
Y1232617D01*
X2825610Y1235157D01*
X2817992D01*
X2833228Y1225000D02*
X2838306D01*
X2835767D01*
Y1240235D01*
X2833228D01*
X2853541Y1225000D02*
X2848463D01*
X2845923Y1227539D01*
Y1232617D01*
X2848463Y1235157D01*
X2853541D01*
X2856080Y1232617D01*
Y1230078D01*
X2845923D01*
X2884011Y1225000D02*
X2878933D01*
X2876393Y1227539D01*
Y1232617D01*
X2878933Y1235157D01*
X2884011D01*
X2886550Y1232617D01*
Y1230078D01*
X2876393D01*
X2891629Y1235157D02*
X2901785Y1225000D01*
X2896707Y1230078D01*
X2901785Y1235157D01*
X2891629Y1225000D01*
X2917020Y1235157D02*
X2909403D01*
X2906864Y1232617D01*
Y1227539D01*
X2909403Y1225000D01*
X2917020D01*
X2929716D02*
X2924638D01*
X2922099Y1227539D01*
Y1232617D01*
X2924638Y1235157D01*
X2929716D01*
X2932256Y1232617D01*
Y1230078D01*
X2922099D01*
X2937334Y1219922D02*
Y1235157D01*
X2944951D01*
X2947491Y1232617D01*
Y1227539D01*
X2944951Y1225000D01*
X2937334D01*
X2955108Y1237696D02*
Y1235157D01*
X2952569D01*
X2957647D01*
X2955108D01*
Y1227539D01*
X2957647Y1225000D01*
X2965265D02*
X2970343D01*
X2967804D01*
Y1235157D01*
X2965265D01*
X2980500Y1225000D02*
X2985578D01*
X2988117Y1227539D01*
Y1232617D01*
X2985578Y1235157D01*
X2980500D01*
X2977961Y1232617D01*
Y1227539D01*
X2980500Y1225000D01*
X2993196D02*
Y1235157D01*
X3000813D01*
X3003352Y1232617D01*
Y1225000D01*
X3026205D02*
X3031283D01*
X3033823Y1227539D01*
Y1232617D01*
X3031283Y1235157D01*
X3026205D01*
X3023666Y1232617D01*
Y1227539D01*
X3026205Y1225000D01*
X3038901Y1235157D02*
Y1225000D01*
Y1230078D01*
X3041440Y1232617D01*
X3043979Y1235157D01*
X3046519D01*
X3069371Y1225000D02*
X3074449D01*
X3071910D01*
Y1240235D01*
X3069371D01*
X3082067Y1225000D02*
X3087145D01*
X3084606D01*
Y1235157D01*
X3082067D01*
X3094763Y1225000D02*
Y1235157D01*
X3097302D01*
X3099841Y1232617D01*
Y1225000D01*
Y1232617D01*
X3102380Y1235157D01*
X3104920Y1232617D01*
Y1225000D01*
X3109998D02*
X3115076D01*
X3112537D01*
Y1235157D01*
X3109998D01*
X3125233Y1237696D02*
Y1235157D01*
X3122694D01*
X3127772D01*
X3125233D01*
Y1227539D01*
X3127772Y1225000D01*
X3137929Y1235157D02*
X3143007D01*
X3145546Y1232617D01*
Y1225000D01*
X3137929D01*
X3135390Y1227539D01*
X3137929Y1230078D01*
X3145546D01*
X3153164Y1237696D02*
Y1235157D01*
X3150625D01*
X3155703D01*
X3153164D01*
Y1227539D01*
X3155703Y1225000D01*
X3163321D02*
X3168399D01*
X3165860D01*
Y1235157D01*
X3163321D01*
X3178556Y1225000D02*
X3183634D01*
X3186173Y1227539D01*
Y1232617D01*
X3183634Y1235157D01*
X3178556D01*
X3176017Y1232617D01*
Y1227539D01*
X3178556Y1225000D01*
X3191252D02*
Y1235157D01*
X3198869D01*
X3201408Y1232617D01*
Y1225000D01*
X3206487D02*
Y1227539D01*
X3209026D01*
Y1225000D01*
X3206487D01*
X2300000Y1265235D02*
Y1262696D01*
X2305078Y1257617D01*
X2310157Y1262696D01*
Y1265235D01*
X2305078Y1257617D02*
Y1250000D01*
X2317774D02*
X2322853D01*
X2325392Y1252539D01*
Y1257617D01*
X2322853Y1260157D01*
X2317774D01*
X2315235Y1257617D01*
Y1252539D01*
X2317774Y1250000D01*
X2330470Y1260157D02*
Y1252539D01*
X2333009Y1250000D01*
X2340627D01*
Y1260157D01*
X2371097Y1265235D02*
Y1250000D01*
X2363479D01*
X2360940Y1252539D01*
Y1257617D01*
X2363479Y1260157D01*
X2371097D01*
X2378715Y1250000D02*
X2383793D01*
X2386332Y1252539D01*
Y1257617D01*
X2383793Y1260157D01*
X2378715D01*
X2376175Y1257617D01*
Y1252539D01*
X2378715Y1250000D01*
X2406646D02*
Y1260157D01*
X2414263D01*
X2416802Y1257617D01*
Y1250000D01*
X2424420D02*
X2429498D01*
X2432037Y1252539D01*
Y1257617D01*
X2429498Y1260157D01*
X2424420D01*
X2421881Y1257617D01*
Y1252539D01*
X2424420Y1250000D01*
X2439655Y1262696D02*
Y1260157D01*
X2437116D01*
X2442194D01*
X2439655D01*
Y1252539D01*
X2442194Y1250000D01*
X2465047Y1265235D02*
Y1250000D01*
Y1257617D01*
X2467586Y1260157D01*
X2472664D01*
X2475203Y1257617D01*
Y1250000D01*
X2482821Y1260157D02*
X2487899D01*
X2490438Y1257617D01*
Y1250000D01*
X2482821D01*
X2480282Y1252539D01*
X2482821Y1255078D01*
X2490438D01*
X2495517Y1260157D02*
X2500595Y1250000D01*
X2505674Y1260157D01*
X2518369Y1250000D02*
X2513291D01*
X2510752Y1252539D01*
Y1257617D01*
X2513291Y1260157D01*
X2518369D01*
X2520909Y1257617D01*
Y1255078D01*
X2510752D01*
X2543761Y1262696D02*
Y1260157D01*
X2541222D01*
X2546300D01*
X2543761D01*
Y1252539D01*
X2546300Y1250000D01*
X2556457D02*
X2561535D01*
X2564075Y1252539D01*
Y1257617D01*
X2561535Y1260157D01*
X2556457D01*
X2553918Y1257617D01*
Y1252539D01*
X2556457Y1250000D01*
X2594545Y1260157D02*
X2586927D01*
X2584388Y1257617D01*
Y1252539D01*
X2586927Y1250000D01*
X2594545D01*
X2602162D02*
X2607241D01*
X2609780Y1252539D01*
Y1257617D01*
X2607241Y1260157D01*
X2602162D01*
X2599623Y1257617D01*
Y1252539D01*
X2602162Y1250000D01*
X2614858D02*
Y1260157D01*
X2617397D01*
X2619937Y1257617D01*
Y1250000D01*
Y1257617D01*
X2622476Y1260157D01*
X2625015Y1257617D01*
Y1250000D01*
X2630093Y1244922D02*
Y1260157D01*
X2637711D01*
X2640250Y1257617D01*
Y1252539D01*
X2637711Y1250000D01*
X2630093D01*
X2645328D02*
X2650407D01*
X2647867D01*
Y1265235D01*
X2645328D01*
X2658024Y1260157D02*
Y1252539D01*
X2660563Y1250000D01*
X2668181D01*
Y1247461D01*
X2665642Y1244922D01*
X2663102D01*
X2668181Y1250000D02*
Y1260157D01*
X2688494D02*
Y1252539D01*
X2691034Y1250000D01*
X2693573Y1252539D01*
X2696112Y1250000D01*
X2698651Y1252539D01*
Y1260157D01*
X2703729Y1250000D02*
X2708808D01*
X2706269D01*
Y1260157D01*
X2703729D01*
X2718965Y1262696D02*
Y1260157D01*
X2716425D01*
X2721504D01*
X2718965D01*
Y1252539D01*
X2721504Y1250000D01*
X2729121Y1265235D02*
Y1250000D01*
Y1257617D01*
X2731660Y1260157D01*
X2736739D01*
X2739278Y1257617D01*
Y1250000D01*
X2762130Y1262696D02*
Y1260157D01*
X2759591D01*
X2764670D01*
X2762130D01*
Y1252539D01*
X2764670Y1250000D01*
X2772287Y1265235D02*
Y1250000D01*
Y1257617D01*
X2774826Y1260157D01*
X2779905D01*
X2782444Y1257617D01*
Y1250000D01*
X2795140D02*
X2790062D01*
X2787522Y1252539D01*
Y1257617D01*
X2790062Y1260157D01*
X2795140D01*
X2797679Y1257617D01*
Y1255078D01*
X2787522D01*
X2817992Y1250000D02*
X2823071D01*
X2820532D01*
Y1265235D01*
X2817992D01*
X2830688Y1250000D02*
X2835767D01*
X2833228D01*
Y1260157D01*
X2830688D01*
X2853541D02*
X2845923D01*
X2843384Y1257617D01*
Y1252539D01*
X2845923Y1250000D01*
X2853541D01*
X2866237D02*
X2861158D01*
X2858619Y1252539D01*
Y1257617D01*
X2861158Y1260157D01*
X2866237D01*
X2868776Y1257617D01*
Y1255078D01*
X2858619D01*
X2873854Y1250000D02*
Y1260157D01*
X2881472D01*
X2884011Y1257617D01*
Y1250000D01*
X2889089D02*
X2896707D01*
X2899246Y1252539D01*
X2896707Y1255078D01*
X2891629D01*
X2889089Y1257617D01*
X2891629Y1260157D01*
X2899246D01*
X2911942Y1250000D02*
X2906864D01*
X2904325Y1252539D01*
Y1257617D01*
X2906864Y1260157D01*
X2911942D01*
X2914481Y1257617D01*
Y1255078D01*
X2904325D01*
X2937334Y1250000D02*
Y1262696D01*
Y1257617D01*
X2934795D01*
X2939873D01*
X2937334D01*
Y1262696D01*
X2939873Y1265235D01*
X2950030Y1250000D02*
X2955108D01*
X2957647Y1252539D01*
Y1257617D01*
X2955108Y1260157D01*
X2950030D01*
X2947491Y1257617D01*
Y1252539D01*
X2950030Y1250000D01*
X2962726Y1260157D02*
Y1250000D01*
Y1255078D01*
X2965265Y1257617D01*
X2967804Y1260157D01*
X2970343D01*
X3000813Y1250000D02*
X2995735D01*
X2993196Y1252539D01*
Y1257617D01*
X2995735Y1260157D01*
X3000813D01*
X3003352Y1257617D01*
Y1255078D01*
X2993196D01*
X3008431Y1250000D02*
X3013509D01*
X3010970D01*
Y1265235D01*
X3008431D01*
X3028744Y1250000D02*
X3023666D01*
X3021127Y1252539D01*
Y1257617D01*
X3023666Y1260157D01*
X3028744D01*
X3031283Y1257617D01*
Y1255078D01*
X3021127D01*
X3036362Y1250000D02*
Y1260157D01*
X3038901D01*
X3041440Y1257617D01*
Y1250000D01*
Y1257617D01*
X3043979Y1260157D01*
X3046519Y1257617D01*
Y1250000D01*
X3059214D02*
X3054136D01*
X3051597Y1252539D01*
Y1257617D01*
X3054136Y1260157D01*
X3059214D01*
X3061754Y1257617D01*
Y1255078D01*
X3051597D01*
X3066832Y1250000D02*
Y1260157D01*
X3074449D01*
X3076989Y1257617D01*
Y1250000D01*
X3084606Y1262696D02*
Y1260157D01*
X3082067D01*
X3087145D01*
X3084606D01*
Y1252539D01*
X3087145Y1250000D01*
X3094763D02*
X3102380D01*
X3104920Y1252539D01*
X3102380Y1255078D01*
X3097302D01*
X3094763Y1257617D01*
X3097302Y1260157D01*
X3104920D01*
X3127772Y1250000D02*
X3132851D01*
X3135390Y1252539D01*
Y1257617D01*
X3132851Y1260157D01*
X3127772D01*
X3125233Y1257617D01*
Y1252539D01*
X3127772Y1250000D01*
X3143007D02*
Y1262696D01*
Y1257617D01*
X3140468D01*
X3145546D01*
X3143007D01*
Y1262696D01*
X3145546Y1265235D01*
X3170938Y1262696D02*
Y1260157D01*
X3168399D01*
X3173477D01*
X3170938D01*
Y1252539D01*
X3173477Y1250000D01*
X3181095Y1265235D02*
Y1250000D01*
Y1257617D01*
X3183634Y1260157D01*
X3188712D01*
X3191252Y1257617D01*
Y1250000D01*
X3203947D02*
X3198869D01*
X3196330Y1252539D01*
Y1257617D01*
X3198869Y1260157D01*
X3203947D01*
X3206487Y1257617D01*
Y1255078D01*
X3196330D01*
X3226800Y1250000D02*
Y1260157D01*
X3229339D01*
X3231878Y1257617D01*
Y1250000D01*
Y1257617D01*
X3234418Y1260157D01*
X3236957Y1257617D01*
Y1250000D01*
X3244574Y1260157D02*
X3249653D01*
X3252192Y1257617D01*
Y1250000D01*
X3244574D01*
X3242035Y1252539D01*
X3244574Y1255078D01*
X3252192D01*
X3259810Y1262696D02*
Y1260157D01*
X3257270D01*
X3262349D01*
X3259810D01*
Y1252539D01*
X3262349Y1250000D01*
X3277584D02*
X3272505D01*
X3269966Y1252539D01*
Y1257617D01*
X3272505Y1260157D01*
X3277584D01*
X3280123Y1257617D01*
Y1255078D01*
X3269966D01*
X3285201Y1260157D02*
Y1250000D01*
Y1255078D01*
X3287740Y1257617D01*
X3290280Y1260157D01*
X3292819D01*
X3300436Y1250000D02*
X3305515D01*
X3302975D01*
Y1260157D01*
X3300436D01*
X3315671D02*
X3320750D01*
X3323289Y1257617D01*
Y1250000D01*
X3315671D01*
X3313132Y1252539D01*
X3315671Y1255078D01*
X3323289D01*
X3328367Y1250000D02*
X3333446D01*
X3330906D01*
Y1265235D01*
X3328367D01*
X3356298Y1250000D02*
X3361377D01*
X3358837D01*
Y1260157D01*
X3356298D01*
X3368994Y1250000D02*
Y1260157D01*
X3376612D01*
X3379151Y1257617D01*
Y1250000D01*
X3402003Y1262696D02*
Y1260157D01*
X3399464D01*
X3404543D01*
X3402003D01*
Y1252539D01*
X3404543Y1250000D01*
X3412160Y1265235D02*
Y1250000D01*
Y1257617D01*
X3414699Y1260157D01*
X3419778D01*
X3422317Y1257617D01*
Y1250000D01*
X3435013D02*
X3429934D01*
X3427395Y1252539D01*
Y1257617D01*
X3429934Y1260157D01*
X3435013D01*
X3437552Y1257617D01*
Y1255078D01*
X3427395D01*
X3457865Y1244922D02*
Y1260157D01*
X3465483D01*
X3468022Y1257617D01*
Y1252539D01*
X3465483Y1250000D01*
X3457865D01*
X3473100Y1260157D02*
Y1252539D01*
X3475640Y1250000D01*
X3483257D01*
Y1260157D01*
X3488336Y1265235D02*
Y1250000D01*
X3495953D01*
X3498492Y1252539D01*
Y1255078D01*
Y1257617D01*
X3495953Y1260157D01*
X3488336D01*
X3503571Y1250000D02*
X3508649D01*
X3506110D01*
Y1265235D01*
X3503571D01*
X3516266Y1250000D02*
X3521345D01*
X3518806D01*
Y1260157D01*
X3516266D01*
X3539119D02*
X3531501D01*
X3528962Y1257617D01*
Y1252539D01*
X3531501Y1250000D01*
X3539119D01*
X3569589Y1265235D02*
Y1250000D01*
X3561972D01*
X3559432Y1252539D01*
Y1257617D01*
X3561972Y1260157D01*
X3569589D01*
X3577207Y1250000D02*
X3582285D01*
X3584824Y1252539D01*
Y1257617D01*
X3582285Y1260157D01*
X3577207D01*
X3574668Y1257617D01*
Y1252539D01*
X3577207Y1250000D01*
X3589903D02*
Y1260157D01*
X3592442D01*
X3594981Y1257617D01*
Y1250000D01*
Y1257617D01*
X3597520Y1260157D01*
X3600060Y1257617D01*
Y1250000D01*
X3607677Y1260157D02*
X3612755D01*
X3615294Y1257617D01*
Y1250000D01*
X3607677D01*
X3605138Y1252539D01*
X3607677Y1255078D01*
X3615294D01*
X3620373Y1250000D02*
X3625451D01*
X3622912D01*
Y1260157D01*
X3620373D01*
X3633069Y1250000D02*
Y1260157D01*
X3640686D01*
X3643225Y1257617D01*
Y1250000D01*
X3666078D02*
X3671156D01*
X3673695Y1252539D01*
Y1257617D01*
X3671156Y1260157D01*
X3666078D01*
X3663539Y1257617D01*
Y1252539D01*
X3666078Y1250000D01*
X3678774Y1260157D02*
Y1250000D01*
Y1255078D01*
X3681313Y1257617D01*
X3683852Y1260157D01*
X3686391D01*
X3709244D02*
Y1252539D01*
X3711783Y1250000D01*
X3714323Y1252539D01*
X3716862Y1250000D01*
X3719401Y1252539D01*
Y1260157D01*
X3724479Y1265235D02*
Y1250000D01*
Y1257617D01*
X3727018Y1260157D01*
X3732097D01*
X3734636Y1257617D01*
Y1250000D01*
X3747332D02*
X3742253D01*
X3739714Y1252539D01*
Y1257617D01*
X3742253Y1260157D01*
X3747332D01*
X3749871Y1257617D01*
Y1255078D01*
X3739714D01*
X3754949Y1260157D02*
Y1250000D01*
Y1255078D01*
X3757488Y1257617D01*
X3760027Y1260157D01*
X3762567D01*
X3777802Y1250000D02*
X3772723D01*
X3770184Y1252539D01*
Y1257617D01*
X3772723Y1260157D01*
X3777802D01*
X3780341Y1257617D01*
Y1255078D01*
X3770184D01*
X2300000Y1275000D02*
Y1290235D01*
X2310157Y1275000D01*
Y1290235D01*
X2317774Y1275000D02*
X2322853D01*
X2325392Y1277539D01*
Y1282617D01*
X2322853Y1285157D01*
X2317774D01*
X2315235Y1282617D01*
Y1277539D01*
X2317774Y1275000D01*
X2333009Y1287696D02*
Y1285157D01*
X2330470D01*
X2335549D01*
X2333009D01*
Y1277539D01*
X2335549Y1275000D01*
X2343166D02*
X2348244D01*
X2345705D01*
Y1285157D01*
X2343166D01*
X2366019D02*
X2358401D01*
X2355862Y1282617D01*
Y1277539D01*
X2358401Y1275000D01*
X2366019D01*
X2378714D02*
X2373636D01*
X2371097Y1277539D01*
Y1282617D01*
X2373636Y1285157D01*
X2378714D01*
X2381254Y1282617D01*
Y1280078D01*
X2371097D01*
X2386332Y1275000D02*
X2393950D01*
X2396489Y1277539D01*
X2393950Y1280078D01*
X2388871D01*
X2386332Y1282617D01*
X2388871Y1285157D01*
X2396489D01*
X2401567D02*
X2404106D01*
Y1282617D01*
X2401567D01*
Y1285157D01*
Y1277539D02*
X2404106D01*
Y1275000D01*
X2401567D01*
Y1277539D01*
X2302539Y1337696D02*
Y1335157D01*
X2300000D01*
X2305078D01*
X2302539D01*
Y1327539D01*
X2305078Y1325000D01*
X2312696Y1340235D02*
Y1325000D01*
Y1332617D01*
X2315235Y1335157D01*
X2320313D01*
X2322853Y1332617D01*
Y1325000D01*
X2330470Y1335157D02*
X2335549D01*
X2338088Y1332617D01*
Y1325000D01*
X2330470D01*
X2327931Y1327539D01*
X2330470Y1330078D01*
X2338088D01*
X2345705Y1337696D02*
Y1335157D01*
X2343166D01*
X2348244D01*
X2345705D01*
Y1327539D01*
X2348244Y1325000D01*
X2371097D02*
X2376175D01*
X2373636D01*
Y1340235D01*
X2371097D01*
X2391410Y1325000D02*
X2386332D01*
X2383793Y1327539D01*
Y1332617D01*
X2386332Y1335157D01*
X2391410D01*
X2393950Y1332617D01*
Y1330078D01*
X2383793D01*
X2404106Y1319922D02*
X2406646D01*
X2409185Y1322461D01*
Y1335157D01*
X2401567D01*
X2399028Y1332617D01*
Y1327539D01*
X2401567Y1325000D01*
X2409185D01*
X2416802Y1335157D02*
X2421881D01*
X2424420Y1332617D01*
Y1325000D01*
X2416802D01*
X2414263Y1327539D01*
X2416802Y1330078D01*
X2424420D01*
X2429498Y1325000D02*
X2434577D01*
X2432037D01*
Y1340235D01*
X2429498D01*
X2442194Y1325000D02*
X2447272D01*
X2444733D01*
Y1340235D01*
X2442194D01*
X2454890Y1335157D02*
Y1327539D01*
X2457429Y1325000D01*
X2465047D01*
Y1322461D01*
X2462507Y1319922D01*
X2459968D01*
X2465047Y1325000D02*
Y1335157D01*
X2485360D02*
Y1325000D01*
Y1330078D01*
X2487899Y1332617D01*
X2490438Y1335157D01*
X2492978D01*
X2508213Y1325000D02*
X2503134D01*
X2500595Y1327539D01*
Y1332617D01*
X2503134Y1335157D01*
X2508213D01*
X2510752Y1332617D01*
Y1330078D01*
X2500595D01*
X2515830Y1325000D02*
X2523448D01*
X2525987Y1327539D01*
X2523448Y1330078D01*
X2518369D01*
X2515830Y1332617D01*
X2518369Y1335157D01*
X2525987D01*
X2533604Y1337696D02*
Y1335157D01*
X2531065D01*
X2536144D01*
X2533604D01*
Y1327539D01*
X2536144Y1325000D01*
X2543761Y1335157D02*
Y1325000D01*
Y1330078D01*
X2546300Y1332617D01*
X2548840Y1335157D01*
X2551379D01*
X2558996Y1325000D02*
X2564075D01*
X2561535D01*
Y1335157D01*
X2558996D01*
X2581849D02*
X2574231D01*
X2571692Y1332617D01*
Y1327539D01*
X2574231Y1325000D01*
X2581849D01*
X2589466Y1337696D02*
Y1335157D01*
X2586927D01*
X2592006D01*
X2589466D01*
Y1327539D01*
X2592006Y1325000D01*
X2617397D02*
X2622476D01*
X2625015Y1327539D01*
Y1332617D01*
X2622476Y1335157D01*
X2617397D01*
X2614858Y1332617D01*
Y1327539D01*
X2617397Y1325000D01*
X2632632Y1337696D02*
Y1335157D01*
X2630093D01*
X2635172D01*
X2632632D01*
Y1327539D01*
X2635172Y1325000D01*
X2642789Y1340235D02*
Y1325000D01*
Y1332617D01*
X2645328Y1335157D01*
X2650406D01*
X2652946Y1332617D01*
Y1325000D01*
X2665642D02*
X2660563D01*
X2658024Y1327539D01*
Y1332617D01*
X2660563Y1335157D01*
X2665642D01*
X2668181Y1332617D01*
Y1330078D01*
X2658024D01*
X2673259Y1335157D02*
Y1325000D01*
Y1330078D01*
X2675798Y1332617D01*
X2678338Y1335157D01*
X2680877D01*
X2688494Y1325000D02*
X2696112D01*
X2698651Y1327539D01*
X2696112Y1330078D01*
X2691034D01*
X2688494Y1332617D01*
X2691034Y1335157D01*
X2698651D01*
X2721504Y1325000D02*
Y1337696D01*
Y1332617D01*
X2718965D01*
X2724043D01*
X2721504D01*
Y1337696D01*
X2724043Y1340235D01*
X2731660Y1335157D02*
Y1325000D01*
Y1330078D01*
X2734200Y1332617D01*
X2736739Y1335157D01*
X2739278D01*
X2749435Y1325000D02*
X2754513D01*
X2757052Y1327539D01*
Y1332617D01*
X2754513Y1335157D01*
X2749435D01*
X2746895Y1332617D01*
Y1327539D01*
X2749435Y1325000D01*
X2762130D02*
Y1335157D01*
X2764670D01*
X2767209Y1332617D01*
Y1325000D01*
Y1332617D01*
X2769748Y1335157D01*
X2772287Y1332617D01*
Y1325000D01*
X2802757Y1340235D02*
Y1325000D01*
X2795140D01*
X2792601Y1327539D01*
Y1332617D01*
X2795140Y1335157D01*
X2802757D01*
X2810375Y1325000D02*
X2815453D01*
X2817992Y1327539D01*
Y1332617D01*
X2815453Y1335157D01*
X2810375D01*
X2807836Y1332617D01*
Y1327539D01*
X2810375Y1325000D01*
X2823071D02*
X2828149D01*
X2825610D01*
Y1335157D01*
X2823071D01*
X2835767Y1325000D02*
Y1335157D01*
X2843384D01*
X2845923Y1332617D01*
Y1325000D01*
X2856080Y1319922D02*
X2858619D01*
X2861158Y1322461D01*
Y1335157D01*
X2853541D01*
X2851002Y1332617D01*
Y1327539D01*
X2853541Y1325000D01*
X2861158D01*
X2884011Y1335157D02*
X2889089D01*
X2891629Y1332617D01*
Y1325000D01*
X2884011D01*
X2881472Y1327539D01*
X2884011Y1330078D01*
X2891629D01*
X2896707Y1325000D02*
Y1335157D01*
X2904325D01*
X2906864Y1332617D01*
Y1325000D01*
X2911942Y1335157D02*
Y1327539D01*
X2914481Y1325000D01*
X2922099D01*
Y1322461D01*
X2919560Y1319922D01*
X2917020D01*
X2922099Y1325000D02*
Y1335157D01*
X2929716Y1337696D02*
Y1335157D01*
X2927177D01*
X2932255D01*
X2929716D01*
Y1327539D01*
X2932255Y1325000D01*
X2939873Y1340235D02*
Y1325000D01*
Y1332617D01*
X2942412Y1335157D01*
X2947491D01*
X2950030Y1332617D01*
Y1325000D01*
X2955108D02*
X2960186D01*
X2957647D01*
Y1335157D01*
X2955108D01*
X2967804Y1325000D02*
Y1335157D01*
X2975421D01*
X2977961Y1332617D01*
Y1325000D01*
X2988117Y1319922D02*
X2990656D01*
X2993196Y1322461D01*
Y1335157D01*
X2985578D01*
X2983039Y1332617D01*
Y1327539D01*
X2985578Y1325000D01*
X2993196D01*
X3016048Y1337696D02*
Y1335157D01*
X3013509D01*
X3018588D01*
X3016048D01*
Y1327539D01*
X3018588Y1325000D01*
X3026205Y1340235D02*
Y1325000D01*
Y1332617D01*
X3028744Y1335157D01*
X3033823D01*
X3036362Y1332617D01*
Y1325000D01*
X3049058D02*
X3043979D01*
X3041440Y1327539D01*
Y1332617D01*
X3043979Y1335157D01*
X3049058D01*
X3051597Y1332617D01*
Y1330078D01*
X3041440D01*
X3071910Y1325000D02*
X3076989D01*
X3074449D01*
Y1340235D01*
X3071910D01*
X3084606Y1325000D02*
X3089684D01*
X3087145D01*
Y1335157D01*
X3084606D01*
X3107459D02*
X3099841D01*
X3097302Y1332617D01*
Y1327539D01*
X3099841Y1325000D01*
X3107459D01*
X3120155D02*
X3115076D01*
X3112537Y1327539D01*
Y1332617D01*
X3115076Y1335157D01*
X3120155D01*
X3122694Y1332617D01*
Y1330078D01*
X3112537D01*
X3127772Y1325000D02*
Y1335157D01*
X3135390D01*
X3137929Y1332617D01*
Y1325000D01*
X3143007D02*
X3150625D01*
X3153164Y1327539D01*
X3150625Y1330078D01*
X3145546D01*
X3143007Y1332617D01*
X3145546Y1335157D01*
X3153164D01*
X3165860Y1325000D02*
X3160782D01*
X3158242Y1327539D01*
Y1332617D01*
X3160782Y1335157D01*
X3165860D01*
X3168399Y1332617D01*
Y1330078D01*
X3158242D01*
X3188712Y1319922D02*
Y1335157D01*
X3196330D01*
X3198869Y1332617D01*
Y1327539D01*
X3196330Y1325000D01*
X3188712D01*
X3211565D02*
X3206487D01*
X3203947Y1327539D01*
Y1332617D01*
X3206487Y1335157D01*
X3211565D01*
X3214104Y1332617D01*
Y1330078D01*
X3203947D01*
X3219183Y1335157D02*
Y1325000D01*
Y1330078D01*
X3221722Y1332617D01*
X3224261Y1335157D01*
X3226800D01*
X3234418Y1325000D02*
Y1335157D01*
X3236957D01*
X3239496Y1332617D01*
Y1325000D01*
Y1332617D01*
X3242035Y1335157D01*
X3244574Y1332617D01*
Y1325000D01*
X3249653D02*
X3254731D01*
X3252192D01*
Y1335157D01*
X3249653D01*
X3264888Y1337696D02*
Y1335157D01*
X3262349D01*
X3267427D01*
X3264888D01*
Y1327539D01*
X3267427Y1325000D01*
X3275045D02*
X3282662D01*
X3285201Y1327539D01*
X3282662Y1330078D01*
X3277584D01*
X3275045Y1332617D01*
X3277584Y1335157D01*
X3285201D01*
X3290280Y1325000D02*
Y1327539D01*
X3292819D01*
Y1325000D01*
X3290280D01*
X2300000Y1350000D02*
Y1365235D01*
X2310157Y1350000D01*
Y1365235D01*
X2317774Y1350000D02*
X2322853D01*
X2325392Y1352539D01*
Y1357617D01*
X2322853Y1360157D01*
X2317774D01*
X2315235Y1357617D01*
Y1352539D01*
X2317774Y1350000D01*
X2348244Y1360157D02*
X2353323D01*
X2355862Y1357617D01*
Y1350000D01*
X2348244D01*
X2345705Y1352539D01*
X2348244Y1355078D01*
X2355862D01*
X2371097Y1365235D02*
Y1350000D01*
X2363479D01*
X2360940Y1352539D01*
Y1357617D01*
X2363479Y1360157D01*
X2371097D01*
X2386332Y1365235D02*
Y1350000D01*
X2378715D01*
X2376175Y1352539D01*
Y1357617D01*
X2378715Y1360157D01*
X2386332D01*
X2391411Y1350000D02*
X2396489D01*
X2393950D01*
Y1360157D01*
X2391411D01*
X2406646Y1362696D02*
Y1360157D01*
X2404106D01*
X2409185D01*
X2406646D01*
Y1352539D01*
X2409185Y1350000D01*
X2416802D02*
X2421881D01*
X2419341D01*
Y1360157D01*
X2416802D01*
X2432037Y1350000D02*
X2437116D01*
X2439655Y1352539D01*
Y1357617D01*
X2437116Y1360157D01*
X2432037D01*
X2429498Y1357617D01*
Y1352539D01*
X2432037Y1350000D01*
X2444733D02*
Y1360157D01*
X2452351D01*
X2454890Y1357617D01*
Y1350000D01*
X2462507Y1360157D02*
X2467586D01*
X2470125Y1357617D01*
Y1350000D01*
X2462507D01*
X2459968Y1352539D01*
X2462507Y1355078D01*
X2470125D01*
X2475203Y1350000D02*
X2480282D01*
X2477742D01*
Y1365235D01*
X2475203D01*
X2503134Y1360157D02*
Y1350000D01*
Y1355078D01*
X2505674Y1357617D01*
X2508213Y1360157D01*
X2510752D01*
X2525987Y1350000D02*
X2520909D01*
X2518369Y1352539D01*
Y1357617D01*
X2520909Y1360157D01*
X2525987D01*
X2528526Y1357617D01*
Y1355078D01*
X2518369D01*
X2533604Y1350000D02*
X2541222D01*
X2543761Y1352539D01*
X2541222Y1355078D01*
X2536144D01*
X2533604Y1357617D01*
X2536144Y1360157D01*
X2543761D01*
X2551379Y1362696D02*
Y1360157D01*
X2548840D01*
X2553918D01*
X2551379D01*
Y1352539D01*
X2553918Y1350000D01*
X2561535Y1360157D02*
Y1350000D01*
Y1355078D01*
X2564075Y1357617D01*
X2566614Y1360157D01*
X2569153D01*
X2576771Y1350000D02*
X2581849D01*
X2579310D01*
Y1360157D01*
X2576771D01*
X2599623D02*
X2592006D01*
X2589466Y1357617D01*
Y1352539D01*
X2592006Y1350000D01*
X2599623D01*
X2607241Y1362696D02*
Y1360157D01*
X2604702D01*
X2609780D01*
X2607241D01*
Y1352539D01*
X2609780Y1350000D01*
X2617397D02*
X2622476D01*
X2619937D01*
Y1360157D01*
X2617397D01*
X2632632Y1350000D02*
X2637711D01*
X2640250Y1352539D01*
Y1357617D01*
X2637711Y1360157D01*
X2632632D01*
X2630093Y1357617D01*
Y1352539D01*
X2632632Y1350000D01*
X2645328D02*
Y1360157D01*
X2652946D01*
X2655485Y1357617D01*
Y1350000D01*
X2660563D02*
X2668181D01*
X2670720Y1352539D01*
X2668181Y1355078D01*
X2663102D01*
X2660563Y1357617D01*
X2663102Y1360157D01*
X2670720D01*
X2691034Y1357617D02*
X2701190D01*
X2721504Y1365235D02*
Y1362696D01*
X2726582Y1357617D01*
X2731660Y1362696D01*
Y1365235D01*
X2726582Y1357617D02*
Y1350000D01*
X2739278D02*
X2744356D01*
X2746895Y1352539D01*
Y1357617D01*
X2744356Y1360157D01*
X2739278D01*
X2736739Y1357617D01*
Y1352539D01*
X2739278Y1350000D01*
X2751974Y1360157D02*
Y1352539D01*
X2754513Y1350000D01*
X2762130D01*
Y1360157D01*
X2782444Y1350000D02*
Y1360157D01*
X2784983D01*
X2787522Y1357617D01*
Y1350000D01*
Y1357617D01*
X2790062Y1360157D01*
X2792601Y1357617D01*
Y1350000D01*
X2800218Y1360157D02*
X2805297D01*
X2807836Y1357617D01*
Y1350000D01*
X2800218D01*
X2797679Y1352539D01*
X2800218Y1355078D01*
X2807836D01*
X2812914Y1360157D02*
Y1352539D01*
X2815453Y1350000D01*
X2823071D01*
Y1347461D01*
X2820532Y1344922D01*
X2817992D01*
X2823071Y1350000D02*
Y1360157D01*
X2843384Y1350000D02*
Y1360157D01*
X2851002D01*
X2853541Y1357617D01*
Y1350000D01*
X2861158D02*
X2866237D01*
X2868776Y1352539D01*
Y1357617D01*
X2866237Y1360157D01*
X2861158D01*
X2858619Y1357617D01*
Y1352539D01*
X2861158Y1350000D01*
X2876393Y1362696D02*
Y1360157D01*
X2873854D01*
X2878933D01*
X2876393D01*
Y1352539D01*
X2878933Y1350000D01*
X2904325Y1360157D02*
X2909403D01*
X2911942Y1357617D01*
Y1350000D01*
X2904325D01*
X2901785Y1352539D01*
X2904325Y1355078D01*
X2911942D01*
X2917020Y1344922D02*
Y1360157D01*
X2924638D01*
X2927177Y1357617D01*
Y1352539D01*
X2924638Y1350000D01*
X2917020D01*
X2932256Y1344922D02*
Y1360157D01*
X2939873D01*
X2942412Y1357617D01*
Y1352539D01*
X2939873Y1350000D01*
X2932256D01*
X2947491D02*
X2952569D01*
X2950030D01*
Y1365235D01*
X2947491D01*
X2960186Y1360157D02*
Y1352539D01*
X2962726Y1350000D01*
X2970343D01*
Y1347461D01*
X2967804Y1344922D01*
X2965265D01*
X2970343Y1350000D02*
Y1360157D01*
X2990657Y1350000D02*
X2995735D01*
X2993196D01*
Y1365235D01*
X2990657D01*
X3010970Y1350000D02*
X3005892D01*
X3003352Y1352539D01*
Y1357617D01*
X3005892Y1360157D01*
X3010970D01*
X3013509Y1357617D01*
Y1355078D01*
X3003352D01*
X3023666Y1344922D02*
X3026205D01*
X3028744Y1347461D01*
Y1360157D01*
X3021127D01*
X3018588Y1357617D01*
Y1352539D01*
X3021127Y1350000D01*
X3028744D01*
X3036362Y1360157D02*
X3041440D01*
X3043979Y1357617D01*
Y1350000D01*
X3036362D01*
X3033823Y1352539D01*
X3036362Y1355078D01*
X3043979D01*
X3049058Y1350000D02*
X3054136D01*
X3051597D01*
Y1365235D01*
X3049058D01*
X3079528Y1362696D02*
Y1360157D01*
X3076989D01*
X3082067D01*
X3079528D01*
Y1352539D01*
X3082067Y1350000D01*
X3097302D02*
X3092224D01*
X3089684Y1352539D01*
Y1357617D01*
X3092224Y1360157D01*
X3097302D01*
X3099841Y1357617D01*
Y1355078D01*
X3089684D01*
X3104920Y1360157D02*
Y1350000D01*
Y1355078D01*
X3107459Y1357617D01*
X3109998Y1360157D01*
X3112537D01*
X3120155Y1350000D02*
Y1360157D01*
X3122694D01*
X3125233Y1357617D01*
Y1350000D01*
Y1357617D01*
X3127772Y1360157D01*
X3130311Y1357617D01*
Y1350000D01*
X3135390D02*
X3143007D01*
X3145546Y1352539D01*
X3143007Y1355078D01*
X3137929D01*
X3135390Y1357617D01*
X3137929Y1360157D01*
X3145546D01*
X3168399Y1350000D02*
X3173477D01*
X3176017Y1352539D01*
Y1357617D01*
X3173477Y1360157D01*
X3168399D01*
X3165860Y1357617D01*
Y1352539D01*
X3168399Y1350000D01*
X3181095Y1360157D02*
Y1350000D01*
Y1355078D01*
X3183634Y1357617D01*
X3186173Y1360157D01*
X3188712D01*
X3214104Y1362696D02*
Y1360157D01*
X3211565D01*
X3216643D01*
X3214104D01*
Y1352539D01*
X3216643Y1350000D01*
X3231878D02*
X3226800D01*
X3224261Y1352539D01*
Y1357617D01*
X3226800Y1360157D01*
X3231878D01*
X3234418Y1357617D01*
Y1355078D01*
X3224261D01*
X3249653Y1360157D02*
X3242035D01*
X3239496Y1357617D01*
Y1352539D01*
X3242035Y1350000D01*
X3249653D01*
X3254731Y1365235D02*
Y1350000D01*
Y1357617D01*
X3257270Y1360157D01*
X3262349D01*
X3264888Y1357617D01*
Y1350000D01*
X3269966D02*
Y1360157D01*
X3277584D01*
X3280123Y1357617D01*
Y1350000D01*
X3287740D02*
X3292819D01*
X3295358Y1352539D01*
Y1357617D01*
X3292819Y1360157D01*
X3287740D01*
X3285201Y1357617D01*
Y1352539D01*
X3287740Y1350000D01*
X3300436D02*
X3305515D01*
X3302975D01*
Y1365235D01*
X3300436D01*
X3315671Y1350000D02*
X3320750D01*
X3323289Y1352539D01*
Y1357617D01*
X3320750Y1360157D01*
X3315671D01*
X3313132Y1357617D01*
Y1352539D01*
X3315671Y1350000D01*
X3333446Y1344922D02*
X3335985D01*
X3338524Y1347461D01*
Y1360157D01*
X3330906D01*
X3328367Y1357617D01*
Y1352539D01*
X3330906Y1350000D01*
X3338524D01*
X3343602D02*
X3348681D01*
X3346141D01*
Y1360157D01*
X3343602D01*
X3366455D02*
X3358837D01*
X3356298Y1357617D01*
Y1352539D01*
X3358837Y1350000D01*
X3366455D01*
X3374073Y1360157D02*
X3379151D01*
X3381690Y1357617D01*
Y1350000D01*
X3374073D01*
X3371533Y1352539D01*
X3374073Y1355078D01*
X3381690D01*
X3386768Y1350000D02*
X3391847D01*
X3389308D01*
Y1365235D01*
X3386768D01*
X3414699Y1350000D02*
Y1360157D01*
X3417238D01*
X3419778Y1357617D01*
Y1350000D01*
Y1357617D01*
X3422317Y1360157D01*
X3424856Y1357617D01*
Y1350000D01*
X3437552D02*
X3432473D01*
X3429934Y1352539D01*
Y1357617D01*
X3432473Y1360157D01*
X3437552D01*
X3440091Y1357617D01*
Y1355078D01*
X3429934D01*
X3447709Y1360157D02*
X3452787D01*
X3455326Y1357617D01*
Y1350000D01*
X3447709D01*
X3445169Y1352539D01*
X3447709Y1355078D01*
X3455326D01*
X3460405Y1350000D02*
X3468022D01*
X3470561Y1352539D01*
X3468022Y1355078D01*
X3462944D01*
X3460405Y1357617D01*
X3462944Y1360157D01*
X3470561D01*
X3475640D02*
Y1352539D01*
X3478179Y1350000D01*
X3485797D01*
Y1360157D01*
X3490875D02*
Y1350000D01*
Y1355078D01*
X3493414Y1357617D01*
X3495953Y1360157D01*
X3498492D01*
X3513727Y1350000D02*
X3508649D01*
X3506110Y1352539D01*
Y1357617D01*
X3508649Y1360157D01*
X3513727D01*
X3516266Y1357617D01*
Y1355078D01*
X3506110D01*
X3521345Y1350000D02*
X3528962D01*
X3531501Y1352539D01*
X3528962Y1355078D01*
X3523884D01*
X3521345Y1357617D01*
X3523884Y1360157D01*
X3531501D01*
X2302539Y1410157D02*
X2307618D01*
X2310157Y1407617D01*
Y1400000D01*
X2302539D01*
X2300000Y1402539D01*
X2302539Y1405078D01*
X2310157D01*
X2315235Y1400000D02*
Y1410157D01*
X2322853D01*
X2325392Y1407617D01*
Y1400000D01*
X2330470Y1410157D02*
Y1402539D01*
X2333009Y1400000D01*
X2340627D01*
Y1397461D01*
X2338088Y1394922D01*
X2335549D01*
X2340627Y1400000D02*
Y1410157D01*
X2360940D02*
Y1402539D01*
X2363479Y1400000D01*
X2366019Y1402539D01*
X2368558Y1400000D01*
X2371097Y1402539D01*
Y1410157D01*
X2378715D02*
X2383793D01*
X2386332Y1407617D01*
Y1400000D01*
X2378715D01*
X2376175Y1402539D01*
X2378715Y1405078D01*
X2386332D01*
X2391411Y1410157D02*
Y1402539D01*
X2393950Y1400000D01*
X2401567D01*
Y1397461D01*
X2399028Y1394922D01*
X2396489D01*
X2401567Y1400000D02*
Y1410157D01*
X2424420Y1412696D02*
Y1410157D01*
X2421881D01*
X2426959D01*
X2424420D01*
Y1402539D01*
X2426959Y1400000D01*
X2434577Y1415235D02*
Y1400000D01*
Y1407617D01*
X2437116Y1410157D01*
X2442194D01*
X2444733Y1407617D01*
Y1400000D01*
X2452351Y1410157D02*
X2457429D01*
X2459968Y1407617D01*
Y1400000D01*
X2452351D01*
X2449812Y1402539D01*
X2452351Y1405078D01*
X2459968D01*
X2467586Y1412696D02*
Y1410157D01*
X2465047D01*
X2470125D01*
X2467586D01*
Y1402539D01*
X2470125Y1400000D01*
X2492978D02*
X2500595D01*
X2503134Y1402539D01*
X2500595Y1405078D01*
X2495517D01*
X2492978Y1407617D01*
X2495517Y1410157D01*
X2503134D01*
X2508213D02*
Y1402539D01*
X2510752Y1400000D01*
X2518369D01*
Y1410157D01*
X2528526Y1394922D02*
X2531065D01*
X2533604Y1397461D01*
Y1410157D01*
X2525987D01*
X2523448Y1407617D01*
Y1402539D01*
X2525987Y1400000D01*
X2533604D01*
X2543761Y1394922D02*
X2546300D01*
X2548840Y1397461D01*
Y1410157D01*
X2541222D01*
X2538683Y1407617D01*
Y1402539D01*
X2541222Y1400000D01*
X2548840D01*
X2561535D02*
X2556457D01*
X2553918Y1402539D01*
Y1407617D01*
X2556457Y1410157D01*
X2561535D01*
X2564075Y1407617D01*
Y1405078D01*
X2553918D01*
X2569153Y1400000D02*
X2576771D01*
X2579310Y1402539D01*
X2576771Y1405078D01*
X2571692D01*
X2569153Y1407617D01*
X2571692Y1410157D01*
X2579310D01*
X2586927Y1412696D02*
Y1410157D01*
X2584388D01*
X2589466D01*
X2586927D01*
Y1402539D01*
X2589466Y1400000D01*
X2597084D02*
X2604702D01*
X2607241Y1402539D01*
X2604702Y1405078D01*
X2599623D01*
X2597084Y1407617D01*
X2599623Y1410157D01*
X2607241D01*
X2630093Y1412696D02*
Y1410157D01*
X2627554D01*
X2632632D01*
X2630093D01*
Y1402539D01*
X2632632Y1400000D01*
X2640250Y1415235D02*
Y1400000D01*
Y1407617D01*
X2642789Y1410157D01*
X2647867D01*
X2650407Y1407617D01*
Y1400000D01*
X2663102D02*
X2658024D01*
X2655485Y1402539D01*
Y1407617D01*
X2658024Y1410157D01*
X2663102D01*
X2665642Y1407617D01*
Y1405078D01*
X2655485D01*
X2685955Y1400000D02*
X2691034D01*
X2688494D01*
Y1415235D01*
X2685955D01*
X2698651Y1400000D02*
X2703729D01*
X2701190D01*
Y1410157D01*
X2698651D01*
X2721504D02*
X2713886D01*
X2711347Y1407617D01*
Y1402539D01*
X2713886Y1400000D01*
X2721504D01*
X2734200D02*
X2729121D01*
X2726582Y1402539D01*
Y1407617D01*
X2729121Y1410157D01*
X2734200D01*
X2736739Y1407617D01*
Y1405078D01*
X2726582D01*
X2741817Y1400000D02*
Y1410157D01*
X2749435D01*
X2751974Y1407617D01*
Y1400000D01*
X2757052D02*
X2764670D01*
X2767209Y1402539D01*
X2764670Y1405078D01*
X2759591D01*
X2757052Y1407617D01*
X2759591Y1410157D01*
X2767209D01*
X2774826Y1400000D02*
X2779905D01*
X2782444Y1402539D01*
Y1407617D01*
X2779905Y1410157D01*
X2774826D01*
X2772287Y1407617D01*
Y1402539D01*
X2774826Y1400000D01*
X2787522Y1410157D02*
Y1400000D01*
Y1405078D01*
X2790062Y1407617D01*
X2792601Y1410157D01*
X2795140D01*
X2825610Y1400000D02*
X2820532D01*
X2817992Y1402539D01*
Y1407617D01*
X2820532Y1410157D01*
X2825610D01*
X2828149Y1407617D01*
Y1405078D01*
X2817992D01*
X2833228Y1400000D02*
Y1410157D01*
X2840845D01*
X2843384Y1407617D01*
Y1400000D01*
X2858619Y1415235D02*
Y1400000D01*
X2851002D01*
X2848463Y1402539D01*
Y1407617D01*
X2851002Y1410157D01*
X2858619D01*
X2866237Y1400000D02*
X2871315D01*
X2873854Y1402539D01*
Y1407617D01*
X2871315Y1410157D01*
X2866237D01*
X2863698Y1407617D01*
Y1402539D01*
X2866237Y1400000D01*
X2878933Y1410157D02*
Y1400000D01*
Y1405078D01*
X2881472Y1407617D01*
X2884011Y1410157D01*
X2886550D01*
X2894168Y1400000D02*
X2901785D01*
X2904325Y1402539D01*
X2901785Y1405078D01*
X2896707D01*
X2894168Y1407617D01*
X2896707Y1410157D01*
X2904325D01*
X2917020Y1400000D02*
X2911942D01*
X2909403Y1402539D01*
Y1407617D01*
X2911942Y1410157D01*
X2917020D01*
X2919560Y1407617D01*
Y1405078D01*
X2909403D01*
X2924638Y1400000D02*
X2932256D01*
X2934795Y1402539D01*
X2932256Y1405078D01*
X2927177D01*
X2924638Y1407617D01*
X2927177Y1410157D01*
X2934795D01*
X2955108D02*
Y1402539D01*
X2957647Y1400000D01*
X2965265D01*
Y1397461D01*
X2962726Y1394922D01*
X2960186D01*
X2965265Y1400000D02*
Y1410157D01*
X2972882Y1400000D02*
X2977961D01*
X2980500Y1402539D01*
Y1407617D01*
X2977961Y1410157D01*
X2972882D01*
X2970343Y1407617D01*
Y1402539D01*
X2972882Y1400000D01*
X2985578Y1410157D02*
Y1402539D01*
X2988117Y1400000D01*
X2995735D01*
Y1410157D01*
X3018588Y1400000D02*
X3023666D01*
X3026205Y1402539D01*
Y1407617D01*
X3023666Y1410157D01*
X3018588D01*
X3016048Y1407617D01*
Y1402539D01*
X3018588Y1400000D01*
X3031283Y1410157D02*
Y1400000D01*
Y1405078D01*
X3033823Y1407617D01*
X3036362Y1410157D01*
X3038901D01*
X3061754D02*
Y1402539D01*
X3064293Y1400000D01*
X3071910D01*
Y1397461D01*
X3069371Y1394922D01*
X3066832D01*
X3071910Y1400000D02*
Y1410157D01*
X3079528Y1400000D02*
X3084606D01*
X3087145Y1402539D01*
Y1407617D01*
X3084606Y1410157D01*
X3079528D01*
X3076989Y1407617D01*
Y1402539D01*
X3079528Y1400000D01*
X3092224Y1410157D02*
Y1402539D01*
X3094763Y1400000D01*
X3102380D01*
Y1410157D01*
X3107459D02*
Y1400000D01*
Y1405078D01*
X3109998Y1407617D01*
X3112537Y1410157D01*
X3115076D01*
X3137929D02*
Y1402539D01*
X3140468Y1400000D01*
X3148086D01*
Y1410157D01*
X3153164Y1400000D02*
X3160782D01*
X3163321Y1402539D01*
X3160782Y1405078D01*
X3155703D01*
X3153164Y1407617D01*
X3155703Y1410157D01*
X3163321D01*
X3176017Y1400000D02*
X3170938D01*
X3168399Y1402539D01*
Y1407617D01*
X3170938Y1410157D01*
X3176017D01*
X3178556Y1407617D01*
Y1405078D01*
X3168399D01*
X3183634Y1400000D02*
Y1402539D01*
X3186173D01*
Y1400000D01*
X3183634D01*
X2300000Y1425000D02*
X2305078D01*
X2302539D01*
Y1435157D01*
X2300000D01*
X2312696Y1425000D02*
Y1435157D01*
X2320313D01*
X2322853Y1432617D01*
Y1425000D01*
X2338088Y1440235D02*
Y1425000D01*
X2330470D01*
X2327931Y1427539D01*
Y1432617D01*
X2330470Y1435157D01*
X2338088D01*
X2343166Y1425000D02*
X2348244D01*
X2345705D01*
Y1435157D01*
X2343166D01*
X2366019D02*
X2358401D01*
X2355862Y1432617D01*
Y1427539D01*
X2358401Y1425000D01*
X2366019D01*
X2373636Y1435157D02*
X2378714D01*
X2381254Y1432617D01*
Y1425000D01*
X2373636D01*
X2371097Y1427539D01*
X2373636Y1430078D01*
X2381254D01*
X2388871Y1437696D02*
Y1435157D01*
X2386332D01*
X2391410D01*
X2388871D01*
Y1427539D01*
X2391410Y1425000D01*
X2406646D02*
X2401567D01*
X2399028Y1427539D01*
Y1432617D01*
X2401567Y1435157D01*
X2406646D01*
X2409185Y1432617D01*
Y1430078D01*
X2399028D01*
X2429498Y1425000D02*
X2434577D01*
X2432037D01*
Y1435157D01*
X2429498D01*
X2444733Y1425000D02*
Y1437696D01*
Y1432617D01*
X2442194D01*
X2447272D01*
X2444733D01*
Y1437696D01*
X2447272Y1440235D01*
X2480282Y1435157D02*
X2472664D01*
X2470125Y1432617D01*
Y1427539D01*
X2472664Y1425000D01*
X2480282D01*
X2485360Y1440235D02*
Y1425000D01*
Y1432617D01*
X2487899Y1435157D01*
X2492978D01*
X2495517Y1432617D01*
Y1425000D01*
X2503134Y1435157D02*
X2508213D01*
X2510752Y1432617D01*
Y1425000D01*
X2503134D01*
X2500595Y1427539D01*
X2503134Y1430078D01*
X2510752D01*
X2515830Y1425000D02*
Y1435157D01*
X2523448D01*
X2525987Y1432617D01*
Y1425000D01*
X2536144Y1419922D02*
X2538683D01*
X2541222Y1422461D01*
Y1435157D01*
X2533604D01*
X2531065Y1432617D01*
Y1427539D01*
X2533604Y1425000D01*
X2541222D01*
X2553918D02*
X2548840D01*
X2546300Y1427539D01*
Y1432617D01*
X2548840Y1435157D01*
X2553918D01*
X2556457Y1432617D01*
Y1430078D01*
X2546300D01*
X2561535Y1425000D02*
X2569153D01*
X2571692Y1427539D01*
X2569153Y1430078D01*
X2564075D01*
X2561535Y1432617D01*
X2564075Y1435157D01*
X2571692D01*
X2592006D02*
Y1427539D01*
X2594545Y1425000D01*
X2597084Y1427539D01*
X2599623Y1425000D01*
X2602162Y1427539D01*
Y1435157D01*
X2614858Y1425000D02*
X2609780D01*
X2607241Y1427539D01*
Y1432617D01*
X2609780Y1435157D01*
X2614858D01*
X2617397Y1432617D01*
Y1430078D01*
X2607241D01*
X2622476Y1435157D02*
Y1425000D01*
Y1430078D01*
X2625015Y1432617D01*
X2627554Y1435157D01*
X2630093D01*
X2645328Y1425000D02*
X2640250D01*
X2637711Y1427539D01*
Y1432617D01*
X2640250Y1435157D01*
X2645328D01*
X2647867Y1432617D01*
Y1430078D01*
X2637711D01*
X2668181Y1425000D02*
Y1435157D01*
X2670720D01*
X2673259Y1432617D01*
Y1425000D01*
Y1432617D01*
X2675798Y1435157D01*
X2678338Y1432617D01*
Y1425000D01*
X2685955Y1435157D02*
X2691034D01*
X2693573Y1432617D01*
Y1425000D01*
X2685955D01*
X2683416Y1427539D01*
X2685955Y1430078D01*
X2693573D01*
X2708808Y1440235D02*
Y1425000D01*
X2701190D01*
X2698651Y1427539D01*
Y1432617D01*
X2701190Y1435157D01*
X2708808D01*
X2721504Y1425000D02*
X2716425D01*
X2713886Y1427539D01*
Y1432617D01*
X2716425Y1435157D01*
X2721504D01*
X2724043Y1432617D01*
Y1430078D01*
X2713886D01*
X2729121Y1425000D02*
Y1427539D01*
X2731660D01*
Y1425000D01*
X2729121D01*
X2757052Y1440235D02*
Y1437696D01*
X2762130Y1432617D01*
X2767209Y1437696D01*
Y1440235D01*
X2762130Y1432617D02*
Y1425000D01*
X2774826D02*
X2779905D01*
X2782444Y1427539D01*
Y1432617D01*
X2779905Y1435157D01*
X2774826D01*
X2772287Y1432617D01*
Y1427539D01*
X2774826Y1425000D01*
X2787522Y1435157D02*
Y1427539D01*
X2790062Y1425000D01*
X2797679D01*
Y1435157D01*
X2817992Y1425000D02*
Y1435157D01*
X2820532D01*
X2823071Y1432617D01*
Y1425000D01*
Y1432617D01*
X2825610Y1435157D01*
X2828149Y1432617D01*
Y1425000D01*
X2835767Y1435157D02*
X2840845D01*
X2843384Y1432617D01*
Y1425000D01*
X2835767D01*
X2833228Y1427539D01*
X2835767Y1430078D01*
X2843384D01*
X2848463Y1435157D02*
Y1427539D01*
X2851002Y1425000D01*
X2858619D01*
Y1422461D01*
X2856080Y1419922D01*
X2853541D01*
X2858619Y1425000D02*
Y1435157D01*
X2889089Y1440235D02*
Y1425000D01*
X2881472D01*
X2878933Y1427539D01*
Y1432617D01*
X2881472Y1435157D01*
X2889089D01*
X2896707Y1425000D02*
X2901785D01*
X2904325Y1427539D01*
Y1432617D01*
X2901785Y1435157D01*
X2896707D01*
X2894168Y1432617D01*
Y1427539D01*
X2896707Y1425000D01*
X2924638D02*
X2932256D01*
X2934795Y1427539D01*
X2932256Y1430078D01*
X2927177D01*
X2924638Y1432617D01*
X2927177Y1435157D01*
X2934795D01*
X2942412Y1425000D02*
X2947491D01*
X2950030Y1427539D01*
Y1432617D01*
X2947491Y1435157D01*
X2942412D01*
X2939873Y1432617D01*
Y1427539D01*
X2942412Y1425000D01*
X2970343D02*
X2975421D01*
X2972882D01*
Y1435157D01*
X2970343D01*
X2983039Y1425000D02*
Y1435157D01*
X2990657D01*
X2993196Y1432617D01*
Y1425000D01*
X3016048Y1435157D02*
X3021127D01*
X3023666Y1432617D01*
Y1425000D01*
X3016048D01*
X3013509Y1427539D01*
X3016048Y1430078D01*
X3023666D01*
X3028744Y1425000D02*
Y1435157D01*
X3036362D01*
X3038901Y1432617D01*
Y1425000D01*
X3043979Y1435157D02*
Y1427539D01*
X3046519Y1425000D01*
X3054136D01*
Y1422461D01*
X3051597Y1419922D01*
X3049058D01*
X3054136Y1425000D02*
Y1435157D01*
X3074449D02*
Y1425000D01*
Y1430078D01*
X3076989Y1432617D01*
X3079528Y1435157D01*
X3082067D01*
X3097302Y1425000D02*
X3092224D01*
X3089684Y1427539D01*
Y1432617D01*
X3092224Y1435157D01*
X3097302D01*
X3099841Y1432617D01*
Y1430078D01*
X3089684D01*
X3107459Y1435157D02*
X3112537D01*
X3115076Y1432617D01*
Y1425000D01*
X3107459D01*
X3104920Y1427539D01*
X3107459Y1430078D01*
X3115076D01*
X3120155Y1425000D02*
X3127772D01*
X3130311Y1427539D01*
X3127772Y1430078D01*
X3122694D01*
X3120155Y1432617D01*
X3122694Y1435157D01*
X3130311D01*
X3137929Y1425000D02*
X3143007D01*
X3145547Y1427539D01*
Y1432617D01*
X3143007Y1435157D01*
X3137929D01*
X3135390Y1432617D01*
Y1427539D01*
X3137929Y1425000D01*
X3150625D02*
Y1435157D01*
X3158242D01*
X3160782Y1432617D01*
Y1425000D01*
X3168399Y1435157D02*
X3173477D01*
X3176017Y1432617D01*
Y1425000D01*
X3168399D01*
X3165860Y1427539D01*
X3168399Y1430078D01*
X3176017D01*
X3181095Y1440235D02*
Y1425000D01*
X3188712D01*
X3191252Y1427539D01*
Y1430078D01*
Y1432617D01*
X3188712Y1435157D01*
X3181095D01*
X3196330Y1425000D02*
X3201408D01*
X3198869D01*
Y1440235D01*
X3196330D01*
X3216643Y1425000D02*
X3211565D01*
X3209026Y1427539D01*
Y1432617D01*
X3211565Y1435157D01*
X3216643D01*
X3219183Y1432617D01*
Y1430078D01*
X3209026D01*
X3239496Y1425000D02*
Y1435157D01*
X3242035D01*
X3244574Y1432617D01*
Y1425000D01*
Y1432617D01*
X3247114Y1435157D01*
X3249653Y1432617D01*
Y1425000D01*
X3257270Y1435157D02*
X3262349D01*
X3264888Y1432617D01*
Y1425000D01*
X3257270D01*
X3254731Y1427539D01*
X3257270Y1430078D01*
X3264888D01*
X3269966Y1425000D02*
Y1435157D01*
X3277584D01*
X3280123Y1432617D01*
Y1425000D01*
X3285201D02*
Y1435157D01*
X3292819D01*
X3295358Y1432617D01*
Y1425000D01*
X3308054D02*
X3302975D01*
X3300436Y1427539D01*
Y1432617D01*
X3302975Y1435157D01*
X3308054D01*
X3310593Y1432617D01*
Y1430078D01*
X3300436D01*
X3315671Y1435157D02*
Y1425000D01*
Y1430078D01*
X3318210Y1432617D01*
X3320750Y1435157D01*
X3323289D01*
X3333446Y1422461D02*
X3335985Y1425000D01*
Y1427539D01*
X3333446D01*
Y1425000D01*
X3335985D01*
X3333446Y1422461D01*
X3330906Y1419922D01*
X3361377Y1440235D02*
Y1425000D01*
X3368994D01*
X3371534Y1427539D01*
Y1430078D01*
Y1432617D01*
X3368994Y1435157D01*
X3361377D01*
X3376612D02*
Y1427539D01*
X3379151Y1425000D01*
X3386768D01*
Y1435157D01*
X3394386Y1437696D02*
Y1435157D01*
X3391847D01*
X3396925D01*
X3394386D01*
Y1427539D01*
X3396925Y1425000D01*
X3419778D02*
Y1435157D01*
X3427395D01*
X3429934Y1432617D01*
Y1425000D01*
X3437552D02*
X3442630D01*
X3445170Y1427539D01*
Y1432617D01*
X3442630Y1435157D01*
X3437552D01*
X3435013Y1432617D01*
Y1427539D01*
X3437552Y1425000D01*
X3452787Y1437696D02*
Y1435157D01*
X3450248D01*
X3455326D01*
X3452787D01*
Y1427539D01*
X3455326Y1425000D01*
X3478179D02*
X3483257D01*
X3480718D01*
Y1435157D01*
X3478179D01*
X3490875Y1425000D02*
Y1435157D01*
X3498492D01*
X3501031Y1432617D01*
Y1425000D01*
X2300000Y1450000D02*
Y1460157D01*
X2305078Y1465235D01*
X2310157Y1460157D01*
Y1450000D01*
Y1457617D01*
X2300000D01*
X2317774Y1462696D02*
Y1460157D01*
X2315235D01*
X2320313D01*
X2317774D01*
Y1452539D01*
X2320313Y1450000D01*
X2330470Y1462696D02*
Y1460157D01*
X2327931D01*
X2333009D01*
X2330470D01*
Y1452539D01*
X2333009Y1450000D01*
X2340627Y1460157D02*
Y1450000D01*
Y1455078D01*
X2343166Y1457617D01*
X2345705Y1460157D01*
X2348244D01*
X2355862Y1450000D02*
X2360940D01*
X2358401D01*
Y1460157D01*
X2355862D01*
X2368558Y1465235D02*
Y1450000D01*
X2376175D01*
X2378714Y1452539D01*
Y1455078D01*
Y1457617D01*
X2376175Y1460157D01*
X2368558D01*
X2383793D02*
Y1452539D01*
X2386332Y1450000D01*
X2393950D01*
Y1460157D01*
X2401567Y1462696D02*
Y1460157D01*
X2399028D01*
X2404106D01*
X2401567D01*
Y1452539D01*
X2404106Y1450000D01*
X2411724D02*
X2416802D01*
X2414263D01*
Y1460157D01*
X2411724D01*
X2426959Y1450000D02*
X2432037D01*
X2434577Y1452539D01*
Y1457617D01*
X2432037Y1460157D01*
X2426959D01*
X2424420Y1457617D01*
Y1452539D01*
X2426959Y1450000D01*
X2439655D02*
Y1460157D01*
X2447272D01*
X2449812Y1457617D01*
Y1450000D01*
X2470125Y1457617D02*
X2480282D01*
X2500595Y1465235D02*
Y1462696D01*
X2505673Y1457617D01*
X2510752Y1462696D01*
Y1465235D01*
X2505673Y1457617D02*
Y1450000D01*
X2518369D02*
X2523448D01*
X2525987Y1452539D01*
Y1457617D01*
X2523448Y1460157D01*
X2518369D01*
X2515830Y1457617D01*
Y1452539D01*
X2518369Y1450000D01*
X2531065Y1460157D02*
Y1452539D01*
X2533604Y1450000D01*
X2541222D01*
Y1460157D01*
X2561535Y1450000D02*
Y1460157D01*
X2564075D01*
X2566614Y1457617D01*
Y1450000D01*
Y1457617D01*
X2569153Y1460157D01*
X2571692Y1457617D01*
Y1450000D01*
X2576771Y1460157D02*
Y1452539D01*
X2579310Y1450000D01*
X2586927D01*
Y1460157D01*
X2592006Y1450000D02*
X2599623D01*
X2602162Y1452539D01*
X2599623Y1455078D01*
X2594545D01*
X2592006Y1457617D01*
X2594545Y1460157D01*
X2602162D01*
X2609780Y1462696D02*
Y1460157D01*
X2607241D01*
X2612319D01*
X2609780D01*
Y1452539D01*
X2612319Y1450000D01*
X2640250Y1444922D02*
X2642789D01*
X2645328Y1447461D01*
Y1460157D01*
X2637711D01*
X2635172Y1457617D01*
Y1452539D01*
X2637711Y1450000D01*
X2645328D01*
X2650406D02*
X2655485D01*
X2652946D01*
Y1460157D01*
X2650406D01*
X2663102D02*
X2668181Y1450000D01*
X2673259Y1460157D01*
X2685955Y1450000D02*
X2680877D01*
X2678338Y1452539D01*
Y1457617D01*
X2680877Y1460157D01*
X2685955D01*
X2688494Y1457617D01*
Y1455078D01*
X2678338D01*
X2711347Y1460157D02*
X2716425D01*
X2718965Y1457617D01*
Y1450000D01*
X2711347D01*
X2708808Y1452539D01*
X2711347Y1455078D01*
X2718965D01*
X2724043Y1444922D02*
Y1460157D01*
X2731660D01*
X2734200Y1457617D01*
Y1452539D01*
X2731660Y1450000D01*
X2724043D01*
X2739278Y1444922D02*
Y1460157D01*
X2746895D01*
X2749435Y1457617D01*
Y1452539D01*
X2746895Y1450000D01*
X2739278D01*
X2754513Y1460157D02*
Y1450000D01*
Y1455078D01*
X2757052Y1457617D01*
X2759591Y1460157D01*
X2762130D01*
X2772287Y1450000D02*
X2777366D01*
X2779905Y1452539D01*
Y1457617D01*
X2777366Y1460157D01*
X2772287D01*
X2769748Y1457617D01*
Y1452539D01*
X2772287Y1450000D01*
X2784983Y1444922D02*
Y1460157D01*
X2792601D01*
X2795140Y1457617D01*
Y1452539D01*
X2792601Y1450000D01*
X2784983D01*
X2800218Y1460157D02*
Y1450000D01*
Y1455078D01*
X2802757Y1457617D01*
X2805297Y1460157D01*
X2807836D01*
X2815453Y1450000D02*
X2820532D01*
X2817992D01*
Y1460157D01*
X2815453D01*
X2830688D02*
X2835767D01*
X2838306Y1457617D01*
Y1450000D01*
X2830688D01*
X2828149Y1452539D01*
X2830688Y1455078D01*
X2838306D01*
X2845923Y1462696D02*
Y1460157D01*
X2843384D01*
X2848463D01*
X2845923D01*
Y1452539D01*
X2848463Y1450000D01*
X2863698D02*
X2858619D01*
X2856080Y1452539D01*
Y1457617D01*
X2858619Y1460157D01*
X2863698D01*
X2866237Y1457617D01*
Y1455078D01*
X2856080D01*
X2896707Y1460157D02*
X2889089D01*
X2886550Y1457617D01*
Y1452539D01*
X2889089Y1450000D01*
X2896707D01*
X2901785Y1460157D02*
Y1450000D01*
Y1455078D01*
X2904325Y1457617D01*
X2906864Y1460157D01*
X2909403D01*
X2924638Y1450000D02*
X2919560D01*
X2917020Y1452539D01*
Y1457617D01*
X2919560Y1460157D01*
X2924638D01*
X2927177Y1457617D01*
Y1455078D01*
X2917020D01*
X2942412Y1465235D02*
Y1450000D01*
X2934795D01*
X2932256Y1452539D01*
Y1457617D01*
X2934795Y1460157D01*
X2942412D01*
X2947491Y1450000D02*
X2952569D01*
X2950030D01*
Y1460157D01*
X2947491D01*
X2962726Y1462696D02*
Y1460157D01*
X2960186D01*
X2965265D01*
X2962726D01*
Y1452539D01*
X2965265Y1450000D01*
X2975421Y1447461D02*
X2977961Y1450000D01*
Y1452539D01*
X2975421D01*
Y1450000D01*
X2977961D01*
X2975421Y1447461D01*
X2972882Y1444922D01*
X3003352D02*
Y1460157D01*
X3010970D01*
X3013509Y1457617D01*
Y1452539D01*
X3010970Y1450000D01*
X3003352D01*
X3018588Y1460157D02*
Y1450000D01*
Y1455078D01*
X3021127Y1457617D01*
X3023666Y1460157D01*
X3026205D01*
X3036362Y1450000D02*
X3041440D01*
X3043979Y1452539D01*
Y1457617D01*
X3041440Y1460157D01*
X3036362D01*
X3033823Y1457617D01*
Y1452539D01*
X3036362Y1450000D01*
X3049058Y1460157D02*
X3054136Y1450000D01*
X3059214Y1460157D01*
X3064293Y1450000D02*
X3069371D01*
X3066832D01*
Y1460157D01*
X3064293D01*
X3087145Y1465235D02*
Y1450000D01*
X3079528D01*
X3076989Y1452539D01*
Y1457617D01*
X3079528Y1460157D01*
X3087145D01*
X3099841Y1450000D02*
X3094763D01*
X3092224Y1452539D01*
Y1457617D01*
X3094763Y1460157D01*
X3099841D01*
X3102380Y1457617D01*
Y1455078D01*
X3092224D01*
X3125233Y1460157D02*
X3130311D01*
X3132851Y1457617D01*
Y1450000D01*
X3125233D01*
X3122694Y1452539D01*
X3125233Y1455078D01*
X3132851D01*
X3153164Y1450000D02*
X3158242D01*
X3155703D01*
Y1465235D01*
X3153164D01*
X3165860Y1450000D02*
X3170938D01*
X3168399D01*
Y1460157D01*
X3165860D01*
X3178556Y1450000D02*
Y1460157D01*
X3186173D01*
X3188712Y1457617D01*
Y1450000D01*
X3193791D02*
Y1465235D01*
Y1455078D02*
X3201408Y1460157D01*
X3193791Y1455078D02*
X3201408Y1450000D01*
X3226800Y1462696D02*
Y1460157D01*
X3224261D01*
X3229339D01*
X3226800D01*
Y1452539D01*
X3229339Y1450000D01*
X3239496D02*
X3244574D01*
X3247114Y1452539D01*
Y1457617D01*
X3244574Y1460157D01*
X3239496D01*
X3236957Y1457617D01*
Y1452539D01*
X3239496Y1450000D01*
X3269966Y1462696D02*
Y1460157D01*
X3267427D01*
X3272505D01*
X3269966D01*
Y1452539D01*
X3272505Y1450000D01*
X3280123Y1465235D02*
Y1450000D01*
Y1457617D01*
X3282662Y1460157D01*
X3287740D01*
X3290280Y1457617D01*
Y1450000D01*
X3302975D02*
X3297897D01*
X3295358Y1452539D01*
Y1457617D01*
X3297897Y1460157D01*
X3302975D01*
X3305515Y1457617D01*
Y1455078D01*
X3295358D01*
X3325828Y1450000D02*
X3330906D01*
X3328367D01*
Y1465235D01*
X3325828D01*
X3338524Y1450000D02*
X3343602D01*
X3341063D01*
Y1460157D01*
X3338524D01*
X3361377D02*
X3353759D01*
X3351220Y1457617D01*
Y1452539D01*
X3353759Y1450000D01*
X3361377D01*
X3374073D02*
X3368994D01*
X3366455Y1452539D01*
Y1457617D01*
X3368994Y1460157D01*
X3374073D01*
X3376612Y1457617D01*
Y1455078D01*
X3366455D01*
X3381690Y1450000D02*
Y1460157D01*
X3389308D01*
X3391847Y1457617D01*
Y1450000D01*
X3396925D02*
X3404543D01*
X3407082Y1452539D01*
X3404543Y1455078D01*
X3399464D01*
X3396925Y1457617D01*
X3399464Y1460157D01*
X3407082D01*
X3419778Y1450000D02*
X3414699D01*
X3412160Y1452539D01*
Y1457617D01*
X3414699Y1460157D01*
X3419778D01*
X3422317Y1457617D01*
Y1455078D01*
X3412160D01*
X3429934Y1447461D02*
X3432473Y1450000D01*
Y1452539D01*
X3429934D01*
Y1450000D01*
X3432473D01*
X3429934Y1447461D01*
X3427395Y1444922D01*
X3460405Y1460157D02*
X3465483D01*
X3468022Y1457617D01*
Y1450000D01*
X3460405D01*
X3457865Y1452539D01*
X3460405Y1455078D01*
X3468022D01*
X3473100Y1450000D02*
Y1460157D01*
X3480718D01*
X3483257Y1457617D01*
Y1450000D01*
X3498492Y1465235D02*
Y1450000D01*
X3490875D01*
X3488336Y1452539D01*
Y1457617D01*
X3490875Y1460157D01*
X3498492D01*
X2300000Y1490235D02*
Y1477539D01*
X2302539Y1475000D01*
X2307618D01*
X2310157Y1477539D01*
Y1490235D01*
X2315235Y1475000D02*
Y1485157D01*
X2322853D01*
X2325392Y1482617D01*
Y1475000D01*
X2340627Y1490235D02*
Y1475000D01*
X2333009D01*
X2330470Y1477539D01*
Y1482617D01*
X2333009Y1485157D01*
X2340627D01*
X2353323Y1475000D02*
X2348244D01*
X2345705Y1477539D01*
Y1482617D01*
X2348244Y1485157D01*
X2353323D01*
X2355862Y1482617D01*
Y1480078D01*
X2345705D01*
X2360940Y1485157D02*
Y1475000D01*
Y1480078D01*
X2363479Y1482617D01*
X2366019Y1485157D01*
X2368558D01*
X2393950Y1487696D02*
Y1485157D01*
X2391411D01*
X2396489D01*
X2393950D01*
Y1477539D01*
X2396489Y1475000D01*
X2404106Y1490235D02*
Y1475000D01*
Y1482617D01*
X2406646Y1485157D01*
X2411724D01*
X2414263Y1482617D01*
Y1475000D01*
X2426959D02*
X2421881D01*
X2419341Y1477539D01*
Y1482617D01*
X2421881Y1485157D01*
X2426959D01*
X2429498Y1482617D01*
Y1480078D01*
X2419341D01*
X2452351Y1475000D02*
Y1487696D01*
Y1482617D01*
X2449812D01*
X2454890D01*
X2452351D01*
Y1487696D01*
X2454890Y1490235D01*
X2465047Y1475000D02*
X2470125D01*
X2472664Y1477539D01*
Y1482617D01*
X2470125Y1485157D01*
X2465047D01*
X2462507Y1482617D01*
Y1477539D01*
X2465047Y1475000D01*
X2477742D02*
X2482821D01*
X2480282D01*
Y1490235D01*
X2477742D01*
X2490438Y1475000D02*
X2495517D01*
X2492978D01*
Y1490235D01*
X2490438D01*
X2505674Y1475000D02*
X2510752D01*
X2513291Y1477539D01*
Y1482617D01*
X2510752Y1485157D01*
X2505674D01*
X2503134Y1482617D01*
Y1477539D01*
X2505674Y1475000D01*
X2518369Y1485157D02*
Y1477539D01*
X2520909Y1475000D01*
X2523448Y1477539D01*
X2525987Y1475000D01*
X2528526Y1477539D01*
Y1485157D01*
X2533604Y1475000D02*
X2538683D01*
X2536144D01*
Y1485157D01*
X2533604D01*
X2546300Y1475000D02*
Y1485157D01*
X2553918D01*
X2556457Y1482617D01*
Y1475000D01*
X2566614Y1469922D02*
X2569153D01*
X2571692Y1472461D01*
Y1485157D01*
X2564075D01*
X2561535Y1482617D01*
Y1477539D01*
X2564075Y1475000D01*
X2571692D01*
X2594545Y1487696D02*
Y1485157D01*
X2592006D01*
X2597084D01*
X2594545D01*
Y1477539D01*
X2597084Y1475000D01*
X2612319D02*
X2607241D01*
X2604702Y1477539D01*
Y1482617D01*
X2607241Y1485157D01*
X2612319D01*
X2614858Y1482617D01*
Y1480078D01*
X2604702D01*
X2619937Y1485157D02*
Y1475000D01*
Y1480078D01*
X2622476Y1482617D01*
X2625015Y1485157D01*
X2627554D01*
X2635172Y1475000D02*
Y1485157D01*
X2637711D01*
X2640250Y1482617D01*
Y1475000D01*
Y1482617D01*
X2642789Y1485157D01*
X2645328Y1482617D01*
Y1475000D01*
X2650406D02*
X2658024D01*
X2660563Y1477539D01*
X2658024Y1480078D01*
X2652946D01*
X2650406Y1482617D01*
X2652946Y1485157D01*
X2660563D01*
X2665642D02*
X2668181D01*
Y1482617D01*
X2665642D01*
Y1485157D01*
Y1477539D02*
X2668181D01*
Y1475000D01*
X2665642D01*
Y1477539D01*
X2300000Y1540235D02*
X2310157D01*
X2305078D01*
Y1525000D01*
X2315235Y1540235D02*
Y1525000D01*
Y1532617D01*
X2317774Y1535157D01*
X2322853D01*
X2325392Y1532617D01*
Y1525000D01*
X2338088D02*
X2333009D01*
X2330470Y1527539D01*
Y1532617D01*
X2333009Y1535157D01*
X2338088D01*
X2340627Y1532617D01*
Y1530078D01*
X2330470D01*
X2360940Y1525000D02*
X2366019D01*
X2363479D01*
Y1540235D01*
X2360940D01*
X2373636Y1525000D02*
X2378714D01*
X2376175D01*
Y1535157D01*
X2373636D01*
X2396489D02*
X2388871D01*
X2386332Y1532617D01*
Y1527539D01*
X2388871Y1525000D01*
X2396489D01*
X2409185D02*
X2404106D01*
X2401567Y1527539D01*
Y1532617D01*
X2404106Y1535157D01*
X2409185D01*
X2411724Y1532617D01*
Y1530078D01*
X2401567D01*
X2416802Y1525000D02*
Y1535157D01*
X2424420D01*
X2426959Y1532617D01*
Y1525000D01*
X2432037D02*
X2439655D01*
X2442194Y1527539D01*
X2439655Y1530078D01*
X2434577D01*
X2432037Y1532617D01*
X2434577Y1535157D01*
X2442194D01*
X2449812Y1525000D02*
X2454890D01*
X2457429Y1527539D01*
Y1532617D01*
X2454890Y1535157D01*
X2449812D01*
X2447272Y1532617D01*
Y1527539D01*
X2449812Y1525000D01*
X2462507Y1535157D02*
Y1525000D01*
Y1530078D01*
X2465047Y1532617D01*
X2467586Y1535157D01*
X2470125D01*
X2503134D02*
X2495517D01*
X2492978Y1532617D01*
Y1527539D01*
X2495517Y1525000D01*
X2503134D01*
X2510752Y1535157D02*
X2515830D01*
X2518369Y1532617D01*
Y1525000D01*
X2510752D01*
X2508213Y1527539D01*
X2510752Y1530078D01*
X2518369D01*
X2523448Y1525000D02*
Y1535157D01*
X2531065D01*
X2533604Y1532617D01*
Y1525000D01*
X2538683D02*
Y1535157D01*
X2546300D01*
X2548840Y1532617D01*
Y1525000D01*
X2556457D02*
X2561535D01*
X2564075Y1527539D01*
Y1532617D01*
X2561535Y1535157D01*
X2556457D01*
X2553918Y1532617D01*
Y1527539D01*
X2556457Y1525000D01*
X2571692Y1537696D02*
Y1535157D01*
X2569153D01*
X2574231D01*
X2571692D01*
Y1527539D01*
X2574231Y1525000D01*
X2597084Y1535157D02*
Y1525000D01*
Y1530078D01*
X2599623Y1532617D01*
X2602162Y1535157D01*
X2604702D01*
X2619937Y1525000D02*
X2614858D01*
X2612319Y1527539D01*
Y1532617D01*
X2614858Y1535157D01*
X2619937D01*
X2622476Y1532617D01*
Y1530078D01*
X2612319D01*
X2627554Y1535157D02*
X2632632Y1525000D01*
X2637711Y1535157D01*
X2645328Y1525000D02*
X2650407D01*
X2652946Y1527539D01*
Y1532617D01*
X2650407Y1535157D01*
X2645328D01*
X2642789Y1532617D01*
Y1527539D01*
X2645328Y1525000D01*
X2658024D02*
Y1540235D01*
Y1530078D02*
X2665642Y1535157D01*
X2658024Y1530078D02*
X2665642Y1525000D01*
X2680877D02*
X2675799D01*
X2673259Y1527539D01*
Y1532617D01*
X2675799Y1535157D01*
X2680877D01*
X2683416Y1532617D01*
Y1530078D01*
X2673259D01*
X2706269Y1537696D02*
Y1535157D01*
X2703729D01*
X2708808D01*
X2706269D01*
Y1527539D01*
X2708808Y1525000D01*
X2716425Y1540235D02*
Y1525000D01*
Y1532617D01*
X2718965Y1535157D01*
X2724043D01*
X2726582Y1532617D01*
Y1525000D01*
X2739278D02*
X2734200D01*
X2731660Y1527539D01*
Y1532617D01*
X2734200Y1535157D01*
X2739278D01*
X2741817Y1532617D01*
Y1530078D01*
X2731660D01*
X2746895Y1525000D02*
X2754513D01*
X2757052Y1527539D01*
X2754513Y1530078D01*
X2749435D01*
X2746895Y1532617D01*
X2749435Y1535157D01*
X2757052D01*
X2769748Y1525000D02*
X2764670D01*
X2762130Y1527539D01*
Y1532617D01*
X2764670Y1535157D01*
X2769748D01*
X2772287Y1532617D01*
Y1530078D01*
X2762130D01*
X2795140Y1525000D02*
Y1537696D01*
Y1532617D01*
X2792601D01*
X2797679D01*
X2795140D01*
Y1537696D01*
X2797679Y1540235D01*
X2805297Y1535157D02*
Y1525000D01*
Y1530078D01*
X2807836Y1532617D01*
X2810375Y1535157D01*
X2812914D01*
X2828149Y1525000D02*
X2823071D01*
X2820532Y1527539D01*
Y1532617D01*
X2823071Y1535157D01*
X2828149D01*
X2830688Y1532617D01*
Y1530078D01*
X2820532D01*
X2843384Y1525000D02*
X2838306D01*
X2835767Y1527539D01*
Y1532617D01*
X2838306Y1535157D01*
X2843384D01*
X2845923Y1532617D01*
Y1530078D01*
X2835767D01*
X2861158Y1540235D02*
Y1525000D01*
X2853541D01*
X2851002Y1527539D01*
Y1532617D01*
X2853541Y1535157D01*
X2861158D01*
X2868776Y1525000D02*
X2873854D01*
X2876394Y1527539D01*
Y1532617D01*
X2873854Y1535157D01*
X2868776D01*
X2866237Y1532617D01*
Y1527539D01*
X2868776Y1525000D01*
X2881472D02*
Y1535157D01*
X2884011D01*
X2886550Y1532617D01*
Y1525000D01*
Y1532617D01*
X2889089Y1535157D01*
X2891629Y1532617D01*
Y1525000D01*
X2896707D02*
X2904325D01*
X2906864Y1527539D01*
X2904325Y1530078D01*
X2899246D01*
X2896707Y1532617D01*
X2899246Y1535157D01*
X2906864D01*
X2929716D02*
X2934795D01*
X2937334Y1532617D01*
Y1525000D01*
X2929716D01*
X2927177Y1527539D01*
X2929716Y1530078D01*
X2937334D01*
X2942412Y1525000D02*
X2950030D01*
X2952569Y1527539D01*
X2950030Y1530078D01*
X2944951D01*
X2942412Y1532617D01*
X2944951Y1535157D01*
X2952569D01*
X2972882Y1525000D02*
X2977961D01*
X2975421D01*
Y1540235D01*
X2972882D01*
X2988117Y1525000D02*
X2993196D01*
X2995735Y1527539D01*
Y1532617D01*
X2993196Y1535157D01*
X2988117D01*
X2985578Y1532617D01*
Y1527539D01*
X2988117Y1525000D01*
X3000813D02*
Y1535157D01*
X3008431D01*
X3010970Y1532617D01*
Y1525000D01*
X3021127Y1519922D02*
X3023666D01*
X3026205Y1522461D01*
Y1535157D01*
X3018588D01*
X3016048Y1532617D01*
Y1527539D01*
X3018588Y1525000D01*
X3026205D01*
X3049058Y1535157D02*
X3054136D01*
X3056675Y1532617D01*
Y1525000D01*
X3049058D01*
X3046519Y1527539D01*
X3049058Y1530078D01*
X3056675D01*
X3061754Y1525000D02*
X3069371D01*
X3071910Y1527539D01*
X3069371Y1530078D01*
X3064293D01*
X3061754Y1532617D01*
X3064293Y1535157D01*
X3071910D01*
X3092224D02*
Y1527539D01*
X3094763Y1525000D01*
X3102380D01*
Y1522461D01*
X3099841Y1519922D01*
X3097302D01*
X3102380Y1525000D02*
Y1535157D01*
X3109998Y1525000D02*
X3115076D01*
X3117615Y1527539D01*
Y1532617D01*
X3115076Y1535157D01*
X3109998D01*
X3107459Y1532617D01*
Y1527539D01*
X3109998Y1525000D01*
X3122694Y1535157D02*
Y1527539D01*
X3125233Y1525000D01*
X3132851D01*
Y1535157D01*
X3155703Y1525000D02*
Y1537696D01*
Y1532617D01*
X3153164D01*
X3158242D01*
X3155703D01*
Y1537696D01*
X3158242Y1540235D01*
X3168399Y1525000D02*
X3173477D01*
X3176017Y1527539D01*
Y1532617D01*
X3173477Y1535157D01*
X3168399D01*
X3165860Y1532617D01*
Y1527539D01*
X3168399Y1525000D01*
X3181095D02*
X3186173D01*
X3183634D01*
Y1540235D01*
X3181095D01*
X3193791Y1525000D02*
X3198869D01*
X3196330D01*
Y1540235D01*
X3193791D01*
X3209026Y1525000D02*
X3214104D01*
X3216643Y1527539D01*
Y1532617D01*
X3214104Y1535157D01*
X3209026D01*
X3206487Y1532617D01*
Y1527539D01*
X3209026Y1525000D01*
X3221722Y1535157D02*
Y1527539D01*
X3224261Y1525000D01*
X3226800Y1527539D01*
X3229339Y1525000D01*
X3231879Y1527539D01*
Y1535157D01*
X3254731Y1537696D02*
Y1535157D01*
X3252192D01*
X3257270D01*
X3254731D01*
Y1527539D01*
X3257270Y1525000D01*
X3264888Y1540235D02*
Y1525000D01*
Y1532617D01*
X3267427Y1535157D01*
X3272505D01*
X3275045Y1532617D01*
Y1525000D01*
X3287740D02*
X3282662D01*
X3280123Y1527539D01*
Y1532617D01*
X3282662Y1535157D01*
X3287740D01*
X3290280Y1532617D01*
Y1530078D01*
X3280123D01*
X3310593Y1525000D02*
X3315671D01*
X3313132D01*
Y1540235D01*
X3310593D01*
X3323289Y1525000D02*
X3328367D01*
X3325828D01*
Y1535157D01*
X3323289D01*
X3346142D02*
X3338524D01*
X3335985Y1532617D01*
Y1527539D01*
X3338524Y1525000D01*
X3346142D01*
X3358838D02*
X3353759D01*
X3351220Y1527539D01*
Y1532617D01*
X3353759Y1535157D01*
X3358838D01*
X3361377Y1532617D01*
Y1530078D01*
X3351220D01*
X3366455Y1525000D02*
Y1535157D01*
X3374073D01*
X3376612Y1532617D01*
Y1525000D01*
X3381690D02*
X3389308D01*
X3391847Y1527539D01*
X3389308Y1530078D01*
X3384229D01*
X3381690Y1532617D01*
X3384229Y1535157D01*
X3391847D01*
X3404543Y1525000D02*
X3399464D01*
X3396925Y1527539D01*
Y1532617D01*
X3399464Y1535157D01*
X3404543D01*
X3407082Y1532617D01*
Y1530078D01*
X3396925D01*
X3429934Y1537696D02*
Y1535157D01*
X3427395D01*
X3432473D01*
X3429934D01*
Y1527539D01*
X3432473Y1525000D01*
X3447709D02*
X3442630D01*
X3440091Y1527539D01*
Y1532617D01*
X3442630Y1535157D01*
X3447709D01*
X3450248Y1532617D01*
Y1530078D01*
X3440091D01*
X3455326Y1535157D02*
Y1525000D01*
Y1530078D01*
X3457865Y1532617D01*
X3460405Y1535157D01*
X3462944D01*
X3470561Y1525000D02*
Y1535157D01*
X3473101D01*
X3475640Y1532617D01*
Y1525000D01*
Y1532617D01*
X3478179Y1535157D01*
X3480718Y1532617D01*
Y1525000D01*
X3485797D02*
X3493414D01*
X3495953Y1527539D01*
X3493414Y1530078D01*
X3488336D01*
X3485797Y1532617D01*
X3488336Y1535157D01*
X3495953D01*
X3501031Y1525000D02*
Y1527539D01*
X3503571D01*
Y1525000D01*
X3501031D01*
X2302539Y1575000D02*
Y1587696D01*
Y1582617D01*
X2300000D01*
X2305078D01*
X2302539D01*
Y1587696D01*
X2305078Y1590235D01*
X2315235Y1575000D02*
X2320313D01*
X2322853Y1577539D01*
Y1582617D01*
X2320313Y1585157D01*
X2315235D01*
X2312696Y1582617D01*
Y1577539D01*
X2315235Y1575000D01*
X2327931Y1585157D02*
Y1575000D01*
Y1580078D01*
X2330470Y1582617D01*
X2333009Y1585157D01*
X2335549D01*
X2360940D02*
X2366019D01*
X2368558Y1582617D01*
Y1575000D01*
X2360940D01*
X2358401Y1577539D01*
X2360940Y1580078D01*
X2368558D01*
X2373636Y1575000D02*
Y1585157D01*
X2381254D01*
X2383793Y1582617D01*
Y1575000D01*
X2388871Y1585157D02*
Y1577539D01*
X2391411Y1575000D01*
X2399028D01*
Y1572461D01*
X2396489Y1569922D01*
X2393950D01*
X2399028Y1575000D02*
Y1585157D01*
X2419341Y1569922D02*
Y1585157D01*
X2426959D01*
X2429498Y1582617D01*
Y1577539D01*
X2426959Y1575000D01*
X2419341D01*
X2434577Y1585157D02*
Y1577539D01*
X2437116Y1575000D01*
X2444733D01*
Y1585157D01*
X2449812D02*
Y1575000D01*
Y1580078D01*
X2452351Y1582617D01*
X2454890Y1585157D01*
X2457429D01*
X2465047Y1569922D02*
Y1585157D01*
X2472664D01*
X2475203Y1582617D01*
Y1577539D01*
X2472664Y1575000D01*
X2465047D01*
X2482821D02*
X2487899D01*
X2490438Y1577539D01*
Y1582617D01*
X2487899Y1585157D01*
X2482821D01*
X2480282Y1582617D01*
Y1577539D01*
X2482821Y1575000D01*
X2495517D02*
X2503134D01*
X2505674Y1577539D01*
X2503134Y1580078D01*
X2498056D01*
X2495517Y1582617D01*
X2498056Y1585157D01*
X2505674D01*
X2518369Y1575000D02*
X2513291D01*
X2510752Y1577539D01*
Y1582617D01*
X2513291Y1585157D01*
X2518369D01*
X2520909Y1582617D01*
Y1580078D01*
X2510752D01*
X2528526Y1572461D02*
X2531065Y1575000D01*
Y1577539D01*
X2528526D01*
Y1575000D01*
X2531065D01*
X2528526Y1572461D01*
X2525987Y1569922D01*
X2564075Y1575000D02*
X2558996D01*
X2556457Y1577539D01*
Y1582617D01*
X2558996Y1585157D01*
X2564075D01*
X2566614Y1582617D01*
Y1580078D01*
X2556457D01*
X2571692Y1585157D02*
X2576771Y1575000D01*
X2581849Y1585157D01*
X2594545Y1575000D02*
X2589466D01*
X2586927Y1577539D01*
Y1582617D01*
X2589466Y1585157D01*
X2594545D01*
X2597084Y1582617D01*
Y1580078D01*
X2586927D01*
X2602162Y1575000D02*
Y1585157D01*
X2609780D01*
X2612319Y1582617D01*
Y1575000D01*
X2642789Y1585157D02*
X2635172D01*
X2632632Y1582617D01*
Y1577539D01*
X2635172Y1575000D01*
X2642789D01*
X2650407D02*
X2655485D01*
X2658024Y1577539D01*
Y1582617D01*
X2655485Y1585157D01*
X2650407D01*
X2647867Y1582617D01*
Y1577539D01*
X2650407Y1575000D01*
X2663103D02*
Y1585157D01*
X2665642D01*
X2668181Y1582617D01*
Y1575000D01*
Y1582617D01*
X2670720Y1585157D01*
X2673259Y1582617D01*
Y1575000D01*
X2678338D02*
Y1585157D01*
X2680877D01*
X2683416Y1582617D01*
Y1575000D01*
Y1582617D01*
X2685955Y1585157D01*
X2688494Y1582617D01*
Y1575000D01*
X2701190D02*
X2696112D01*
X2693573Y1577539D01*
Y1582617D01*
X2696112Y1585157D01*
X2701190D01*
X2703729Y1582617D01*
Y1580078D01*
X2693573D01*
X2708808Y1585157D02*
Y1575000D01*
Y1580078D01*
X2711347Y1582617D01*
X2713886Y1585157D01*
X2716425D01*
X2734200D02*
X2726582D01*
X2724043Y1582617D01*
Y1577539D01*
X2726582Y1575000D01*
X2734200D01*
X2739278D02*
X2744356D01*
X2741817D01*
Y1585157D01*
X2739278D01*
X2754513D02*
X2759591D01*
X2762130Y1582617D01*
Y1575000D01*
X2754513D01*
X2751974Y1577539D01*
X2754513Y1580078D01*
X2762130D01*
X2767209Y1575000D02*
X2772287D01*
X2769748D01*
Y1590235D01*
X2767209D01*
X2779905Y1575000D02*
X2784983D01*
X2782444D01*
Y1590235D01*
X2779905D01*
X2792601Y1585157D02*
Y1577539D01*
X2795140Y1575000D01*
X2802757D01*
Y1572461D01*
X2800218Y1569922D01*
X2797679D01*
X2802757Y1575000D02*
Y1585157D01*
X2807836Y1575000D02*
Y1577539D01*
X2810375D01*
Y1575000D01*
X2807836D01*
X2300000Y1600000D02*
Y1610157D01*
X2305078Y1615235D01*
X2310157Y1610157D01*
Y1600000D01*
Y1607617D01*
X2300000D01*
X2325392Y1615235D02*
Y1600000D01*
X2317774D01*
X2315235Y1602539D01*
Y1607617D01*
X2317774Y1610157D01*
X2325392D01*
X2333009D02*
X2338088D01*
X2340627Y1607617D01*
Y1600000D01*
X2333009D01*
X2330470Y1602539D01*
X2333009Y1605078D01*
X2340627D01*
X2345705Y1594922D02*
Y1610157D01*
X2353323D01*
X2355862Y1607617D01*
Y1602539D01*
X2353323Y1600000D01*
X2345705D01*
X2363479Y1612696D02*
Y1610157D01*
X2360940D01*
X2366019D01*
X2363479D01*
Y1602539D01*
X2366019Y1600000D01*
X2388871Y1607617D02*
X2399028D01*
X2419341Y1610157D02*
Y1600000D01*
Y1605078D01*
X2421881Y1607617D01*
X2424420Y1610157D01*
X2426959D01*
X2442194Y1600000D02*
X2437116D01*
X2434577Y1602539D01*
Y1607617D01*
X2437116Y1610157D01*
X2442194D01*
X2444733Y1607617D01*
Y1605078D01*
X2434577D01*
X2449812Y1600000D02*
Y1610157D01*
X2452351D01*
X2454890Y1607617D01*
Y1600000D01*
Y1607617D01*
X2457429Y1610157D01*
X2459968Y1607617D01*
Y1600000D01*
X2465047D02*
X2470125D01*
X2467586D01*
Y1610157D01*
X2465047D01*
X2477742D02*
X2487899Y1600000D01*
X2482821Y1605078D01*
X2487899Y1610157D01*
X2477742Y1600000D01*
X2495517Y1597461D02*
X2498056Y1600000D01*
Y1602539D01*
X2495517D01*
Y1600000D01*
X2498056D01*
X2495517Y1597461D01*
X2492978Y1594922D01*
X2525987Y1612696D02*
Y1610157D01*
X2523448D01*
X2528526D01*
X2525987D01*
Y1602539D01*
X2528526Y1600000D01*
X2536144Y1610157D02*
Y1600000D01*
Y1605078D01*
X2538683Y1607617D01*
X2541222Y1610157D01*
X2543761D01*
X2553918D02*
X2558996D01*
X2561535Y1607617D01*
Y1600000D01*
X2553918D01*
X2551379Y1602539D01*
X2553918Y1605078D01*
X2561535D01*
X2566614Y1600000D02*
Y1610157D01*
X2574231D01*
X2576771Y1607617D01*
Y1600000D01*
X2581849D02*
X2589466D01*
X2592006Y1602539D01*
X2589466Y1605078D01*
X2584388D01*
X2581849Y1607617D01*
X2584388Y1610157D01*
X2592006D01*
X2599623Y1600000D02*
Y1612696D01*
Y1607617D01*
X2597084D01*
X2602162D01*
X2599623D01*
Y1612696D01*
X2602162Y1615235D01*
X2612319Y1600000D02*
X2617397D01*
X2619937Y1602539D01*
Y1607617D01*
X2617397Y1610157D01*
X2612319D01*
X2609780Y1607617D01*
Y1602539D01*
X2612319Y1600000D01*
X2625015Y1610157D02*
Y1600000D01*
Y1605078D01*
X2627554Y1607617D01*
X2630093Y1610157D01*
X2632632D01*
X2640250Y1600000D02*
Y1610157D01*
X2642789D01*
X2645328Y1607617D01*
Y1600000D01*
Y1607617D01*
X2647867Y1610157D01*
X2650407Y1607617D01*
Y1600000D01*
X2658024Y1597461D02*
X2660563Y1600000D01*
Y1602539D01*
X2658024D01*
Y1600000D01*
X2660563D01*
X2658024Y1597461D01*
X2655485Y1594922D01*
X2688494Y1610157D02*
X2693573D01*
X2696112Y1607617D01*
Y1600000D01*
X2688494D01*
X2685955Y1602539D01*
X2688494Y1605078D01*
X2696112D01*
X2701190Y1600000D02*
Y1610157D01*
X2708808D01*
X2711347Y1607617D01*
Y1600000D01*
X2726582Y1615235D02*
Y1600000D01*
X2718965D01*
X2716425Y1602539D01*
Y1607617D01*
X2718965Y1610157D01*
X2726582D01*
X2746895Y1615235D02*
Y1600000D01*
X2754513D01*
X2757052Y1602539D01*
Y1605078D01*
Y1607617D01*
X2754513Y1610157D01*
X2746895D01*
X2762130D02*
Y1602539D01*
X2764670Y1600000D01*
X2772287D01*
Y1610157D01*
X2777366Y1600000D02*
X2782444D01*
X2779905D01*
Y1610157D01*
X2777366D01*
X2790062Y1600000D02*
X2795140D01*
X2792601D01*
Y1615235D01*
X2790062D01*
X2812914D02*
Y1600000D01*
X2805297D01*
X2802757Y1602539D01*
Y1607617D01*
X2805297Y1610157D01*
X2812914D01*
X2833228D02*
Y1602539D01*
X2835767Y1600000D01*
X2843384D01*
Y1610157D01*
X2848463Y1594922D02*
Y1610157D01*
X2856080D01*
X2858619Y1607617D01*
Y1602539D01*
X2856080Y1600000D01*
X2848463D01*
X2866237D02*
X2871315D01*
X2873854Y1602539D01*
Y1607617D01*
X2871315Y1610157D01*
X2866237D01*
X2863698Y1607617D01*
Y1602539D01*
X2866237Y1600000D01*
X2878933D02*
Y1610157D01*
X2886550D01*
X2889089Y1607617D01*
Y1600000D01*
X2911942Y1612696D02*
Y1610157D01*
X2909403D01*
X2914481D01*
X2911942D01*
Y1602539D01*
X2914481Y1600000D01*
X2922099Y1615235D02*
Y1600000D01*
Y1607617D01*
X2924638Y1610157D01*
X2929716D01*
X2932256Y1607617D01*
Y1600000D01*
X2944951D02*
X2939873D01*
X2937334Y1602539D01*
Y1607617D01*
X2939873Y1610157D01*
X2944951D01*
X2947491Y1607617D01*
Y1605078D01*
X2937334D01*
X2967804Y1600000D02*
Y1610157D01*
X2970343D01*
X2972882Y1607617D01*
Y1600000D01*
Y1607617D01*
X2975421Y1610157D01*
X2977961Y1607617D01*
Y1600000D01*
X2985578Y1610157D02*
X2990657D01*
X2993196Y1607617D01*
Y1600000D01*
X2985578D01*
X2983039Y1602539D01*
X2985578Y1605078D01*
X2993196D01*
X3000813Y1612696D02*
Y1610157D01*
X2998274D01*
X3003352D01*
X3000813D01*
Y1602539D01*
X3003352Y1600000D01*
X3018588D02*
X3013509D01*
X3010970Y1602539D01*
Y1607617D01*
X3013509Y1610157D01*
X3018588D01*
X3021127Y1607617D01*
Y1605078D01*
X3010970D01*
X3026205Y1610157D02*
Y1600000D01*
Y1605078D01*
X3028744Y1607617D01*
X3031283Y1610157D01*
X3033823D01*
X3041440Y1600000D02*
X3046519D01*
X3043979D01*
Y1610157D01*
X3041440D01*
X3056675D02*
X3061754D01*
X3064293Y1607617D01*
Y1600000D01*
X3056675D01*
X3054136Y1602539D01*
X3056675Y1605078D01*
X3064293D01*
X3069371Y1600000D02*
X3074449D01*
X3071910D01*
Y1615235D01*
X3069371D01*
X2310157Y1637696D02*
X2307618Y1640235D01*
X2302539D01*
X2300000Y1637696D01*
Y1635157D01*
X2302539Y1632617D01*
X2307618D01*
X2310157Y1630078D01*
Y1627539D01*
X2307618Y1625000D01*
X2302539D01*
X2300000Y1627539D01*
X2315235Y1640235D02*
Y1625000D01*
Y1632617D01*
X2317774Y1635157D01*
X2322853D01*
X2325392Y1632617D01*
Y1625000D01*
X2333009Y1635157D02*
X2338088D01*
X2340627Y1632617D01*
Y1625000D01*
X2333009D01*
X2330470Y1627539D01*
X2333009Y1630078D01*
X2340627D01*
X2345705Y1635157D02*
Y1625000D01*
Y1630078D01*
X2348244Y1632617D01*
X2350784Y1635157D01*
X2353323D01*
X2368558Y1625000D02*
X2363479D01*
X2360940Y1627539D01*
Y1632617D01*
X2363479Y1635157D01*
X2368558D01*
X2371097Y1632617D01*
Y1630078D01*
X2360940D01*
X2391411Y1632617D02*
X2401567D01*
X2432037Y1635157D02*
X2424420D01*
X2421881Y1632617D01*
Y1627539D01*
X2424420Y1625000D01*
X2432037D01*
X2439655D02*
X2444733D01*
X2447272Y1627539D01*
Y1632617D01*
X2444733Y1635157D01*
X2439655D01*
X2437116Y1632617D01*
Y1627539D01*
X2439655Y1625000D01*
X2452351Y1619922D02*
Y1635157D01*
X2459968D01*
X2462507Y1632617D01*
Y1627539D01*
X2459968Y1625000D01*
X2452351D01*
X2467586Y1635157D02*
Y1627539D01*
X2470125Y1625000D01*
X2477742D01*
Y1622461D01*
X2475203Y1619922D01*
X2472664D01*
X2477742Y1625000D02*
Y1635157D01*
X2500595D02*
X2505674D01*
X2508213Y1632617D01*
Y1625000D01*
X2500595D01*
X2498056Y1627539D01*
X2500595Y1630078D01*
X2508213D01*
X2513291Y1625000D02*
Y1635157D01*
X2520909D01*
X2523448Y1632617D01*
Y1625000D01*
X2538683Y1640235D02*
Y1625000D01*
X2531065D01*
X2528526Y1627539D01*
Y1632617D01*
X2531065Y1635157D01*
X2538683D01*
X2558996D02*
Y1625000D01*
Y1630078D01*
X2561535Y1632617D01*
X2564075Y1635157D01*
X2566614D01*
X2581849Y1625000D02*
X2576771D01*
X2574231Y1627539D01*
Y1632617D01*
X2576771Y1635157D01*
X2581849D01*
X2584388Y1632617D01*
Y1630078D01*
X2574231D01*
X2599623Y1640235D02*
Y1625000D01*
X2592006D01*
X2589466Y1627539D01*
Y1632617D01*
X2592006Y1635157D01*
X2599623D01*
X2604702Y1625000D02*
X2609780D01*
X2607241D01*
Y1635157D01*
X2604702D01*
X2617397Y1625000D02*
X2625015D01*
X2627554Y1627539D01*
X2625015Y1630078D01*
X2619937D01*
X2617397Y1632617D01*
X2619937Y1635157D01*
X2627554D01*
X2635172Y1637696D02*
Y1635157D01*
X2632632D01*
X2637711D01*
X2635172D01*
Y1627539D01*
X2637711Y1625000D01*
X2645328Y1635157D02*
Y1625000D01*
Y1630078D01*
X2647867Y1632617D01*
X2650407Y1635157D01*
X2652946D01*
X2660563Y1625000D02*
X2665642D01*
X2663103D01*
Y1635157D01*
X2660563D01*
X2673259Y1640235D02*
Y1625000D01*
X2680877D01*
X2683416Y1627539D01*
Y1630078D01*
Y1632617D01*
X2680877Y1635157D01*
X2673259D01*
X2688494D02*
Y1627539D01*
X2691034Y1625000D01*
X2698651D01*
Y1635157D01*
X2706269Y1637696D02*
Y1635157D01*
X2703729D01*
X2708808D01*
X2706269D01*
Y1627539D01*
X2708808Y1625000D01*
X2724043D02*
X2718965D01*
X2716425Y1627539D01*
Y1632617D01*
X2718965Y1635157D01*
X2724043D01*
X2726582Y1632617D01*
Y1630078D01*
X2716425D01*
X2749435Y1637696D02*
Y1635157D01*
X2746895D01*
X2751974D01*
X2749435D01*
Y1627539D01*
X2751974Y1625000D01*
X2759591Y1640235D02*
Y1625000D01*
Y1632617D01*
X2762130Y1635157D01*
X2767209D01*
X2769748Y1632617D01*
Y1625000D01*
X2782444D02*
X2777366D01*
X2774826Y1627539D01*
Y1632617D01*
X2777366Y1635157D01*
X2782444D01*
X2784983Y1632617D01*
Y1630078D01*
X2774826D01*
X2805297Y1625000D02*
Y1635157D01*
X2807836D01*
X2810375Y1632617D01*
Y1625000D01*
Y1632617D01*
X2812914Y1635157D01*
X2815453Y1632617D01*
Y1625000D01*
X2823071Y1635157D02*
X2828149D01*
X2830688Y1632617D01*
Y1625000D01*
X2823071D01*
X2820532Y1627539D01*
X2823071Y1630078D01*
X2830688D01*
X2838306Y1637696D02*
Y1635157D01*
X2835767D01*
X2840845D01*
X2838306D01*
Y1627539D01*
X2840845Y1625000D01*
X2856080D02*
X2851002D01*
X2848463Y1627539D01*
Y1632617D01*
X2851002Y1635157D01*
X2856080D01*
X2858619Y1632617D01*
Y1630078D01*
X2848463D01*
X2863698Y1635157D02*
Y1625000D01*
Y1630078D01*
X2866237Y1632617D01*
X2868776Y1635157D01*
X2871315D01*
X2878933Y1625000D02*
X2884011D01*
X2881472D01*
Y1635157D01*
X2878933D01*
X2894168D02*
X2899246D01*
X2901785Y1632617D01*
Y1625000D01*
X2894168D01*
X2891629Y1627539D01*
X2894168Y1630078D01*
X2901785D01*
X2906864Y1625000D02*
X2911942D01*
X2909403D01*
Y1640235D01*
X2906864D01*
X2934795Y1625000D02*
X2939873D01*
X2937334D01*
Y1635157D01*
X2934795D01*
X2947491Y1625000D02*
Y1635157D01*
X2955108D01*
X2957647Y1632617D01*
Y1625000D01*
X2980500Y1635157D02*
X2985578D01*
X2988117Y1632617D01*
Y1625000D01*
X2980500D01*
X2977961Y1627539D01*
X2980500Y1630078D01*
X2988117D01*
X2993196Y1625000D02*
Y1635157D01*
X3000813D01*
X3003352Y1632617D01*
Y1625000D01*
X3008431Y1635157D02*
Y1627539D01*
X3010970Y1625000D01*
X3018588D01*
Y1622461D01*
X3016048Y1619922D01*
X3013509D01*
X3018588Y1625000D02*
Y1635157D01*
X3038901Y1625000D02*
Y1635157D01*
X3041440D01*
X3043979Y1632617D01*
Y1625000D01*
Y1632617D01*
X3046519Y1635157D01*
X3049058Y1632617D01*
Y1625000D01*
X3061754D02*
X3056675D01*
X3054136Y1627539D01*
Y1632617D01*
X3056675Y1635157D01*
X3061754D01*
X3064293Y1632617D01*
Y1630078D01*
X3054136D01*
X3079528Y1640235D02*
Y1625000D01*
X3071910D01*
X3069371Y1627539D01*
Y1632617D01*
X3071910Y1635157D01*
X3079528D01*
X3084606Y1625000D02*
X3089684D01*
X3087145D01*
Y1635157D01*
X3084606D01*
X3097302D02*
Y1627539D01*
X3099841Y1625000D01*
X3107459D01*
Y1635157D01*
X3112537Y1625000D02*
Y1635157D01*
X3115076D01*
X3117615Y1632617D01*
Y1625000D01*
Y1632617D01*
X3120155Y1635157D01*
X3122694Y1632617D01*
Y1625000D01*
X3145547D02*
X3150625D01*
X3153164Y1627539D01*
Y1632617D01*
X3150625Y1635157D01*
X3145547D01*
X3143007Y1632617D01*
Y1627539D01*
X3145547Y1625000D01*
X3158242Y1635157D02*
Y1625000D01*
Y1630078D01*
X3160782Y1632617D01*
X3163321Y1635157D01*
X3165860D01*
X3191252Y1625000D02*
Y1637696D01*
Y1632617D01*
X3188712D01*
X3193791D01*
X3191252D01*
Y1637696D01*
X3193791Y1640235D01*
X3203947Y1625000D02*
X3209026D01*
X3211565Y1627539D01*
Y1632617D01*
X3209026Y1635157D01*
X3203947D01*
X3201408Y1632617D01*
Y1627539D01*
X3203947Y1625000D01*
X3216643Y1635157D02*
Y1625000D01*
Y1630078D01*
X3219183Y1632617D01*
X3221722Y1635157D01*
X3224261D01*
X3231878Y1625000D02*
Y1635157D01*
X3234418D01*
X3236957Y1632617D01*
Y1625000D01*
Y1632617D01*
X3239496Y1635157D01*
X3242035Y1632617D01*
Y1625000D01*
X3249653Y1635157D02*
X3254731D01*
X3257270Y1632617D01*
Y1625000D01*
X3249653D01*
X3247114Y1627539D01*
X3249653Y1630078D01*
X3257270D01*
X3264888Y1637696D02*
Y1635157D01*
X3262349D01*
X3267427D01*
X3264888D01*
Y1627539D01*
X3267427Y1625000D01*
X2300000Y1690235D02*
Y1675000D01*
Y1682617D01*
X2302539Y1685157D01*
X2307618D01*
X2310157Y1682617D01*
Y1675000D01*
X2317774Y1687696D02*
Y1685157D01*
X2315235D01*
X2320313D01*
X2317774D01*
Y1677539D01*
X2320313Y1675000D01*
X2330470Y1687696D02*
Y1685157D01*
X2327931D01*
X2333009D01*
X2330470D01*
Y1677539D01*
X2333009Y1675000D01*
X2340627Y1669922D02*
Y1685157D01*
X2348244D01*
X2350784Y1682617D01*
Y1677539D01*
X2348244Y1675000D01*
X2340627D01*
X2355862Y1685157D02*
X2358401D01*
Y1682617D01*
X2355862D01*
Y1685157D01*
Y1677539D02*
X2358401D01*
Y1675000D01*
X2355862D01*
Y1677539D01*
X2368558Y1675000D02*
X2378714Y1685157D01*
X2383793Y1675000D02*
X2393950Y1685157D01*
X2409185D02*
X2401567D01*
X2399028Y1682617D01*
Y1677539D01*
X2401567Y1675000D01*
X2409185D01*
X2414263Y1685157D02*
Y1675000D01*
Y1680078D01*
X2416802Y1682617D01*
X2419341Y1685157D01*
X2421881D01*
X2437116Y1675000D02*
X2432037D01*
X2429498Y1677539D01*
Y1682617D01*
X2432037Y1685157D01*
X2437116D01*
X2439655Y1682617D01*
Y1680078D01*
X2429498D01*
X2447272Y1685157D02*
X2452351D01*
X2454890Y1682617D01*
Y1675000D01*
X2447272D01*
X2444733Y1677539D01*
X2447272Y1680078D01*
X2454890D01*
X2462507Y1687696D02*
Y1685157D01*
X2459968D01*
X2465047D01*
X2462507D01*
Y1677539D01*
X2465047Y1675000D01*
X2472664D02*
X2477742D01*
X2475203D01*
Y1685157D01*
X2472664D01*
X2485360D02*
X2490438Y1675000D01*
X2495517Y1685157D01*
X2508213Y1675000D02*
X2503134D01*
X2500595Y1677539D01*
Y1682617D01*
X2503134Y1685157D01*
X2508213D01*
X2510752Y1682617D01*
Y1680078D01*
X2500595D01*
X2525987Y1685157D02*
X2518369D01*
X2515830Y1682617D01*
Y1677539D01*
X2518369Y1675000D01*
X2525987D01*
X2533604D02*
X2538683D01*
X2541222Y1677539D01*
Y1682617D01*
X2538683Y1685157D01*
X2533604D01*
X2531065Y1682617D01*
Y1677539D01*
X2533604Y1675000D01*
X2546300D02*
Y1685157D01*
X2548840D01*
X2551379Y1682617D01*
Y1675000D01*
Y1682617D01*
X2553918Y1685157D01*
X2556457Y1682617D01*
Y1675000D01*
X2561535D02*
Y1685157D01*
X2564075D01*
X2566614Y1682617D01*
Y1675000D01*
Y1682617D01*
X2569153Y1685157D01*
X2571692Y1682617D01*
Y1675000D01*
X2579310D02*
X2584388D01*
X2586927Y1677539D01*
Y1682617D01*
X2584388Y1685157D01*
X2579310D01*
X2576771Y1682617D01*
Y1677539D01*
X2579310Y1675000D01*
X2592006D02*
Y1685157D01*
X2599623D01*
X2602162Y1682617D01*
Y1675000D01*
X2607241D02*
X2614858D01*
X2617397Y1677539D01*
X2614858Y1680078D01*
X2609780D01*
X2607241Y1682617D01*
X2609780Y1685157D01*
X2617397D01*
X2622476Y1675000D02*
Y1677539D01*
X2625015D01*
Y1675000D01*
X2622476D01*
X2637711D02*
X2642789D01*
X2645328Y1677539D01*
Y1682617D01*
X2642789Y1685157D01*
X2637711D01*
X2635172Y1682617D01*
Y1677539D01*
X2637711Y1675000D01*
X2650406Y1685157D02*
Y1675000D01*
Y1680078D01*
X2652946Y1682617D01*
X2655485Y1685157D01*
X2658024D01*
X2670720Y1669922D02*
X2673259D01*
X2675798Y1672461D01*
Y1685157D01*
X2668181D01*
X2665642Y1682617D01*
Y1677539D01*
X2668181Y1675000D01*
X2675798D01*
X2680877D02*
X2691034Y1685157D01*
X2696112Y1675000D02*
X2701190D01*
X2698651D01*
Y1690235D01*
X2696112D01*
X2708808Y1675000D02*
X2713886D01*
X2711347D01*
Y1685157D01*
X2708808D01*
X2731660D02*
X2724043D01*
X2721504Y1682617D01*
Y1677539D01*
X2724043Y1675000D01*
X2731660D01*
X2744356D02*
X2739278D01*
X2736739Y1677539D01*
Y1682617D01*
X2739278Y1685157D01*
X2744356D01*
X2746895Y1682617D01*
Y1680078D01*
X2736739D01*
X2751974Y1675000D02*
Y1685157D01*
X2759591D01*
X2762130Y1682617D01*
Y1675000D01*
X2767209D02*
X2774826D01*
X2777366Y1677539D01*
X2774826Y1680078D01*
X2769748D01*
X2767209Y1682617D01*
X2769748Y1685157D01*
X2777366D01*
X2790062Y1675000D02*
X2784983D01*
X2782444Y1677539D01*
Y1682617D01*
X2784983Y1685157D01*
X2790062D01*
X2792601Y1682617D01*
Y1680078D01*
X2782444D01*
X2797679Y1675000D02*
X2805297D01*
X2807836Y1677539D01*
X2805297Y1680078D01*
X2800218D01*
X2797679Y1682617D01*
X2800218Y1685157D01*
X2807836D01*
X2812914Y1675000D02*
X2823071Y1685157D01*
X2828149Y1690235D02*
Y1675000D01*
X2835767D01*
X2838306Y1677539D01*
Y1680078D01*
Y1682617D01*
X2835767Y1685157D01*
X2828149D01*
X2843384D02*
Y1677539D01*
X2845923Y1675000D01*
X2853541D01*
Y1672461D01*
X2851002Y1669922D01*
X2848463D01*
X2853541Y1675000D02*
Y1685157D01*
X2858619Y1675000D02*
X2868776Y1685157D01*
X2873854Y1687696D02*
X2876393Y1690235D01*
X2881472D01*
X2884011Y1687696D01*
Y1685157D01*
X2881472Y1682617D01*
X2878933D01*
X2881472D01*
X2884011Y1680078D01*
Y1677539D01*
X2881472Y1675000D01*
X2876393D01*
X2873854Y1677539D01*
X2889089Y1675000D02*
Y1677539D01*
X2891629D01*
Y1675000D01*
X2889089D01*
X2901785Y1687696D02*
X2904325Y1690235D01*
X2909403D01*
X2911942Y1687696D01*
Y1677539D01*
X2909403Y1675000D01*
X2904325D01*
X2901785Y1677539D01*
Y1687696D01*
X2917020Y1675000D02*
X2927177Y1685157D01*
X2932256Y1675000D02*
X2937334D01*
X2934795D01*
Y1690235D01*
X2932256D01*
X2952569Y1675000D02*
X2947491D01*
X2944951Y1677539D01*
Y1682617D01*
X2947491Y1685157D01*
X2952569D01*
X2955108Y1682617D01*
Y1680078D01*
X2944951D01*
X2965265Y1669922D02*
X2967804D01*
X2970343Y1672461D01*
Y1685157D01*
X2962726D01*
X2960186Y1682617D01*
Y1677539D01*
X2962726Y1675000D01*
X2970343D01*
X2977961Y1685157D02*
X2983039D01*
X2985578Y1682617D01*
Y1675000D01*
X2977961D01*
X2975421Y1677539D01*
X2977961Y1680078D01*
X2985578D01*
X2990657Y1675000D02*
X2995735D01*
X2993196D01*
Y1690235D01*
X2990657D01*
X3013509Y1685157D02*
X3005892D01*
X3003352Y1682617D01*
Y1677539D01*
X3005892Y1675000D01*
X3013509D01*
X3021127D02*
X3026205D01*
X3028744Y1677539D01*
Y1682617D01*
X3026205Y1685157D01*
X3021127D01*
X3018588Y1682617D01*
Y1677539D01*
X3021127Y1675000D01*
X3043979Y1690235D02*
Y1675000D01*
X3036362D01*
X3033823Y1677539D01*
Y1682617D01*
X3036362Y1685157D01*
X3043979D01*
X3056675Y1675000D02*
X3051597D01*
X3049058Y1677539D01*
Y1682617D01*
X3051597Y1685157D01*
X3056675D01*
X3059214Y1682617D01*
Y1680078D01*
X3049058D01*
X2300000Y1715235D02*
X2310157D01*
X2305078D01*
Y1700000D01*
X2315235Y1715235D02*
Y1700000D01*
Y1707617D01*
X2317774Y1710157D01*
X2322853D01*
X2325392Y1707617D01*
Y1700000D01*
X2330470D02*
X2335549D01*
X2333009D01*
Y1710157D01*
X2330470D01*
X2343166Y1700000D02*
X2350784D01*
X2353323Y1702539D01*
X2350784Y1705078D01*
X2345705D01*
X2343166Y1707617D01*
X2345705Y1710157D01*
X2353323D01*
X2373636Y1700000D02*
X2378714D01*
X2376175D01*
Y1710157D01*
X2373636D01*
X2386332Y1700000D02*
X2393950D01*
X2396489Y1702539D01*
X2393950Y1705078D01*
X2388871D01*
X2386332Y1707617D01*
X2388871Y1710157D01*
X2396489D01*
X2419341D02*
X2424420D01*
X2426959Y1707617D01*
Y1700000D01*
X2419341D01*
X2416802Y1702539D01*
X2419341Y1705078D01*
X2426959D01*
X2447272Y1715235D02*
Y1700000D01*
Y1707617D01*
X2449812Y1710157D01*
X2454890D01*
X2457429Y1707617D01*
Y1700000D01*
X2462507Y1710157D02*
Y1702539D01*
X2465047Y1700000D01*
X2472664D01*
Y1710157D01*
X2477742Y1700000D02*
Y1710157D01*
X2480282D01*
X2482821Y1707617D01*
Y1700000D01*
Y1707617D01*
X2485360Y1710157D01*
X2487899Y1707617D01*
Y1700000D01*
X2495517Y1710157D02*
X2500595D01*
X2503134Y1707617D01*
Y1700000D01*
X2495517D01*
X2492978Y1702539D01*
X2495517Y1705078D01*
X2503134D01*
X2508213Y1700000D02*
Y1710157D01*
X2515830D01*
X2518369Y1707617D01*
Y1700000D01*
X2523448Y1707617D02*
X2533604D01*
X2538683Y1710157D02*
Y1700000D01*
Y1705078D01*
X2541222Y1707617D01*
X2543761Y1710157D01*
X2546300D01*
X2561535Y1700000D02*
X2556457D01*
X2553918Y1702539D01*
Y1707617D01*
X2556457Y1710157D01*
X2561535D01*
X2564075Y1707617D01*
Y1705078D01*
X2553918D01*
X2571692Y1710157D02*
X2576771D01*
X2579310Y1707617D01*
Y1700000D01*
X2571692D01*
X2569153Y1702539D01*
X2571692Y1705078D01*
X2579310D01*
X2594545Y1715235D02*
Y1700000D01*
X2586927D01*
X2584388Y1702539D01*
Y1707617D01*
X2586927Y1710157D01*
X2594545D01*
X2602162D02*
X2607241D01*
X2609780Y1707617D01*
Y1700000D01*
X2602162D01*
X2599623Y1702539D01*
X2602162Y1705078D01*
X2609780D01*
X2614858Y1715235D02*
Y1700000D01*
X2622476D01*
X2625015Y1702539D01*
Y1705078D01*
Y1707617D01*
X2622476Y1710157D01*
X2614858D01*
X2630093Y1700000D02*
X2635172D01*
X2632632D01*
Y1715235D01*
X2630093D01*
X2650407Y1700000D02*
X2645328D01*
X2642789Y1702539D01*
Y1707617D01*
X2645328Y1710157D01*
X2650407D01*
X2652946Y1707617D01*
Y1705078D01*
X2642789D01*
X2673259Y1700000D02*
X2680877D01*
X2683416Y1702539D01*
X2680877Y1705078D01*
X2675799D01*
X2673259Y1707617D01*
X2675799Y1710157D01*
X2683416D01*
X2688494D02*
Y1702539D01*
X2691034Y1700000D01*
X2698651D01*
Y1710157D01*
X2703729Y1700000D02*
Y1710157D01*
X2706269D01*
X2708808Y1707617D01*
Y1700000D01*
Y1707617D01*
X2711347Y1710157D01*
X2713886Y1707617D01*
Y1700000D01*
X2718965D02*
Y1710157D01*
X2721504D01*
X2724043Y1707617D01*
Y1700000D01*
Y1707617D01*
X2726582Y1710157D01*
X2729121Y1707617D01*
Y1700000D01*
X2736739Y1710157D02*
X2741817D01*
X2744356Y1707617D01*
Y1700000D01*
X2736739D01*
X2734200Y1702539D01*
X2736739Y1705078D01*
X2744356D01*
X2749435Y1710157D02*
Y1700000D01*
Y1705078D01*
X2751974Y1707617D01*
X2754513Y1710157D01*
X2757052D01*
X2764670D02*
Y1702539D01*
X2767209Y1700000D01*
X2774826D01*
Y1697461D01*
X2772287Y1694922D01*
X2769748D01*
X2774826Y1700000D02*
Y1710157D01*
X2797679Y1700000D02*
X2802757D01*
X2805297Y1702539D01*
Y1707617D01*
X2802757Y1710157D01*
X2797679D01*
X2795140Y1707617D01*
Y1702539D01*
X2797679Y1700000D01*
X2812914D02*
Y1712696D01*
Y1707617D01*
X2810375D01*
X2815453D01*
X2812914D01*
Y1712696D01*
X2815453Y1715235D01*
X2840845Y1712696D02*
Y1710157D01*
X2838306D01*
X2843384D01*
X2840845D01*
Y1702539D01*
X2843384Y1700000D01*
X2851002Y1715235D02*
Y1700000D01*
Y1707617D01*
X2853541Y1710157D01*
X2858619D01*
X2861158Y1707617D01*
Y1700000D01*
X2873854D02*
X2868776D01*
X2866237Y1702539D01*
Y1707617D01*
X2868776Y1710157D01*
X2873854D01*
X2876394Y1707617D01*
Y1705078D01*
X2866237D01*
X2896707Y1715235D02*
Y1700000D01*
X2906864D01*
X2919560D02*
X2914481D01*
X2911942Y1702539D01*
Y1707617D01*
X2914481Y1710157D01*
X2919560D01*
X2922099Y1707617D01*
Y1705078D01*
X2911942D01*
X2932256Y1694922D02*
X2934795D01*
X2937334Y1697461D01*
Y1710157D01*
X2929716D01*
X2927177Y1707617D01*
Y1702539D01*
X2929716Y1700000D01*
X2937334D01*
X2944951Y1710157D02*
X2950030D01*
X2952569Y1707617D01*
Y1700000D01*
X2944951D01*
X2942412Y1702539D01*
X2944951Y1705078D01*
X2952569D01*
X2957647Y1700000D02*
X2962726D01*
X2960186D01*
Y1715235D01*
X2957647D01*
X2995735Y1712696D02*
X2993196Y1715235D01*
X2988117D01*
X2985578Y1712696D01*
Y1702539D01*
X2988117Y1700000D01*
X2993196D01*
X2995735Y1702539D01*
X3003352Y1700000D02*
X3008431D01*
X3010970Y1702539D01*
Y1707617D01*
X3008431Y1710157D01*
X3003352D01*
X3000813Y1707617D01*
Y1702539D01*
X3003352Y1700000D01*
X3026205Y1715235D02*
Y1700000D01*
X3018588D01*
X3016048Y1702539D01*
Y1707617D01*
X3018588Y1710157D01*
X3026205D01*
X3038901Y1700000D02*
X3033823D01*
X3031283Y1702539D01*
Y1707617D01*
X3033823Y1710157D01*
X3038901D01*
X3041440Y1707617D01*
Y1705078D01*
X3031283D01*
X3066832Y1700000D02*
X3061754Y1705078D01*
Y1710157D01*
X3066832Y1715235D01*
X3074449Y1710157D02*
Y1700000D01*
Y1705078D01*
X3076989Y1707617D01*
X3079528Y1710157D01*
X3082067D01*
X3097302Y1700000D02*
X3092224D01*
X3089684Y1702539D01*
Y1707617D01*
X3092224Y1710157D01*
X3097302D01*
X3099841Y1707617D01*
Y1705078D01*
X3089684D01*
X3107459Y1710157D02*
X3112537D01*
X3115076Y1707617D01*
Y1700000D01*
X3107459D01*
X3104920Y1702539D01*
X3107459Y1705078D01*
X3115076D01*
X3130311Y1715235D02*
Y1700000D01*
X3122694D01*
X3120155Y1702539D01*
Y1707617D01*
X3122694Y1710157D01*
X3130311D01*
X3153164Y1700000D02*
Y1712696D01*
Y1707617D01*
X3150625D01*
X3155703D01*
X3153164D01*
Y1712696D01*
X3155703Y1715235D01*
X3163321Y1710157D02*
Y1702539D01*
X3165860Y1700000D01*
X3173477D01*
Y1710157D01*
X3178556Y1700000D02*
X3183634D01*
X3181095D01*
Y1715235D01*
X3178556D01*
X3191252Y1700000D02*
X3196330D01*
X3193791D01*
Y1715235D01*
X3191252D01*
X3219183Y1700000D02*
X3224261D01*
X3221722D01*
Y1715235D01*
X3219183D01*
X3231878Y1700000D02*
X3236957D01*
X3234418D01*
Y1710157D01*
X3231878D01*
X3254731D02*
X3247114D01*
X3244574Y1707617D01*
Y1702539D01*
X3247114Y1700000D01*
X3254731D01*
X3267427D02*
X3262349D01*
X3259810Y1702539D01*
Y1707617D01*
X3262349Y1710157D01*
X3267427D01*
X3269966Y1707617D01*
Y1705078D01*
X3259810D01*
X3275045Y1700000D02*
Y1710157D01*
X3282662D01*
X3285201Y1707617D01*
Y1700000D01*
X3300436Y1710157D02*
X3292819D01*
X3290280Y1707617D01*
Y1702539D01*
X3292819Y1700000D01*
X3300436D01*
X3313132D02*
X3308054D01*
X3305515Y1702539D01*
Y1707617D01*
X3308054Y1710157D01*
X3313132D01*
X3315671Y1707617D01*
Y1705078D01*
X3305515D01*
X3338524Y1710157D02*
X3343602D01*
X3346142Y1707617D01*
Y1700000D01*
X3338524D01*
X3335985Y1702539D01*
X3338524Y1705078D01*
X3346142D01*
X3353759Y1712696D02*
Y1710157D01*
X3351220D01*
X3356298D01*
X3353759D01*
Y1702539D01*
X3356298Y1700000D01*
X3363916Y1710157D02*
X3366455D01*
Y1707617D01*
X3363916D01*
Y1710157D01*
Y1702539D02*
X3366455D01*
Y1700000D01*
X3363916D01*
Y1702539D01*
X2300000Y1765235D02*
Y1750000D01*
X2305078Y1755078D01*
X2310157Y1750000D01*
Y1765235D01*
X2325392D02*
X2315235D01*
Y1750000D01*
X2325392D01*
X2315235Y1757617D02*
X2320313D01*
X2330470Y1765235D02*
Y1750000D01*
X2338088D01*
X2340627Y1752539D01*
Y1755078D01*
X2338088Y1757617D01*
X2330470D01*
X2338088D01*
X2340627Y1760157D01*
Y1762696D01*
X2338088Y1765235D01*
X2330470D01*
X2355862Y1762696D02*
X2353323Y1765235D01*
X2348244D01*
X2345705Y1762696D01*
Y1760157D01*
X2348244Y1757617D01*
X2353323D01*
X2355862Y1755078D01*
Y1752539D01*
X2353323Y1750000D01*
X2348244D01*
X2345705Y1752539D01*
X2360940Y1765235D02*
X2366019D01*
X2363479D01*
Y1750000D01*
X2360940D01*
X2366019D01*
X2373636Y1765235D02*
X2383793D01*
X2378714D01*
Y1750000D01*
X2399028Y1765235D02*
X2388871D01*
Y1750000D01*
X2399028D01*
X2388871Y1757617D02*
X2393950D01*
X2404106Y1760157D02*
X2406646D01*
Y1757617D01*
X2404106D01*
Y1760157D01*
Y1752539D02*
X2406646D01*
Y1750000D01*
X2404106D01*
Y1752539D01*
X2432037Y1765235D02*
Y1750000D01*
Y1757617D01*
X2434577Y1760157D01*
X2439655D01*
X2442194Y1757617D01*
Y1750000D01*
X2449812Y1762696D02*
Y1760157D01*
X2447272D01*
X2452351D01*
X2449812D01*
Y1752539D01*
X2452351Y1750000D01*
X2462507Y1762696D02*
Y1760157D01*
X2459968D01*
X2465047D01*
X2462507D01*
Y1752539D01*
X2465047Y1750000D01*
X2472664Y1744922D02*
Y1760157D01*
X2480282D01*
X2482821Y1757617D01*
Y1752539D01*
X2480282Y1750000D01*
X2472664D01*
X2487899Y1760157D02*
X2490438D01*
Y1757617D01*
X2487899D01*
Y1760157D01*
Y1752539D02*
X2490438D01*
Y1750000D01*
X2487899D01*
Y1752539D01*
X2500595Y1750000D02*
X2510752Y1760157D01*
X2515830Y1750000D02*
X2525987Y1760157D01*
X2531065D02*
Y1752539D01*
X2533604Y1750000D01*
X2536144Y1752539D01*
X2538683Y1750000D01*
X2541222Y1752539D01*
Y1760157D01*
X2546300D02*
Y1752539D01*
X2548840Y1750000D01*
X2551379Y1752539D01*
X2553918Y1750000D01*
X2556457Y1752539D01*
Y1760157D01*
X2561535D02*
Y1752539D01*
X2564075Y1750000D01*
X2566614Y1752539D01*
X2569153Y1750000D01*
X2571692Y1752539D01*
Y1760157D01*
X2576771Y1750000D02*
Y1752539D01*
X2579310D01*
Y1750000D01*
X2576771D01*
X2589466D02*
X2594545D01*
X2592006D01*
Y1760157D01*
X2589466D01*
X2602162Y1750000D02*
Y1765235D01*
X2607241Y1760157D01*
X2612319Y1765235D01*
Y1750000D01*
X2617397Y1765235D02*
X2627554Y1750000D01*
Y1765235D02*
X2617397Y1750000D01*
X2642789Y1765235D02*
X2637711Y1762696D01*
X2632632Y1757617D01*
Y1752539D01*
X2635172Y1750000D01*
X2640250D01*
X2642789Y1752539D01*
Y1755078D01*
X2640250Y1757617D01*
X2632632D01*
X2647867Y1750000D02*
Y1765235D01*
X2655485D01*
X2658024Y1762696D01*
Y1757617D01*
X2655485Y1755078D01*
X2647867D01*
X2652946D02*
X2658024Y1750000D01*
X2670720D02*
X2665642D01*
X2663102Y1752539D01*
Y1757617D01*
X2665642Y1760157D01*
X2670720D01*
X2673259Y1757617D01*
Y1755078D01*
X2663102D01*
X2678338Y1760157D02*
X2688494Y1750000D01*
X2683416Y1755078D01*
X2688494Y1760157D01*
X2678338Y1750000D01*
X2693573D02*
Y1752539D01*
X2696112D01*
Y1750000D01*
X2693573D01*
X2716425Y1760157D02*
X2708808D01*
X2706269Y1757617D01*
Y1752539D01*
X2708808Y1750000D01*
X2716425D01*
X2724043D02*
X2729121D01*
X2731660Y1752539D01*
Y1757617D01*
X2729121Y1760157D01*
X2724043D01*
X2721504Y1757617D01*
Y1752539D01*
X2724043Y1750000D01*
X2736739D02*
Y1760157D01*
X2739278D01*
X2741817Y1757617D01*
Y1750000D01*
Y1757617D01*
X2744356Y1760157D01*
X2746895Y1757617D01*
Y1750000D01*
X2307618Y1790235D02*
X2302539D01*
X2300000Y1787696D01*
Y1777539D01*
X2302539Y1775000D01*
X2307618D01*
X2310157Y1777539D01*
Y1787696D01*
X2307618Y1790235D01*
X2315235Y1775000D02*
Y1790235D01*
X2322853D01*
X2325392Y1787696D01*
Y1782617D01*
X2322853Y1780078D01*
X2315235D01*
X2320313D02*
X2325392Y1775000D01*
X2330470Y1790235D02*
X2335549D01*
X2333009D01*
Y1775000D01*
X2330470D01*
X2335549D01*
X2353323Y1787696D02*
X2350784Y1790235D01*
X2345705D01*
X2343166Y1787696D01*
Y1777539D01*
X2345705Y1775000D01*
X2350784D01*
X2353323Y1777539D01*
Y1782617D01*
X2348244D01*
X2358401Y1790235D02*
X2363479D01*
X2360940D01*
Y1775000D01*
X2358401D01*
X2363479D01*
X2371097D02*
Y1790235D01*
X2381254Y1775000D01*
Y1790235D01*
X2386332Y1775000D02*
Y1785157D01*
X2391410Y1790235D01*
X2396489Y1785157D01*
Y1775000D01*
Y1782617D01*
X2386332D01*
X2401567Y1790235D02*
Y1775000D01*
X2411724D01*
X2432037D02*
Y1785157D01*
X2437116Y1790235D01*
X2442194Y1785157D01*
Y1775000D01*
Y1782617D01*
X2432037D01*
X2447272Y1790235D02*
Y1777539D01*
X2449812Y1775000D01*
X2454890D01*
X2457429Y1777539D01*
Y1790235D01*
X2462507D02*
X2472664D01*
X2467586D01*
Y1775000D01*
X2477742Y1790235D02*
Y1775000D01*
Y1782617D01*
X2487899D01*
Y1790235D01*
Y1775000D01*
X2500595Y1790235D02*
X2495517D01*
X2492978Y1787696D01*
Y1777539D01*
X2495517Y1775000D01*
X2500595D01*
X2503134Y1777539D01*
Y1787696D01*
X2500595Y1790235D01*
X2508213Y1775000D02*
Y1790235D01*
X2515830D01*
X2518369Y1787696D01*
Y1782617D01*
X2515830Y1780078D01*
X2508213D01*
X2513291D02*
X2518369Y1775000D01*
X2523448Y1785157D02*
X2525987D01*
Y1782617D01*
X2523448D01*
Y1785157D01*
Y1777539D02*
X2525987D01*
Y1775000D01*
X2523448D01*
Y1777539D01*
X2561535Y1790235D02*
X2551379D01*
Y1782617D01*
X2556457D01*
X2551379D01*
Y1775000D01*
X2576771Y1790235D02*
X2566614D01*
Y1775000D01*
X2576771D01*
X2566614Y1782617D02*
X2571692D01*
X2581849Y1790235D02*
Y1775000D01*
X2589466D01*
X2592006Y1777539D01*
Y1787696D01*
X2589466Y1790235D01*
X2581849D01*
X2607241D02*
X2597084D01*
Y1775000D01*
X2607241D01*
X2597084Y1782617D02*
X2602162D01*
X2612319Y1790235D02*
Y1780078D01*
X2617397Y1775000D01*
X2622476Y1780078D01*
Y1790235D01*
X2637711D02*
X2627554D01*
Y1775000D01*
X2637711D01*
X2627554Y1782617D02*
X2632632D01*
X2642789Y1790235D02*
Y1775000D01*
X2652946D01*
X2683416D02*
X2673259D01*
X2683416Y1785157D01*
Y1787696D01*
X2680877Y1790235D01*
X2675799D01*
X2673259Y1787696D01*
X2688494D02*
X2691034Y1790235D01*
X2696112D01*
X2698651Y1787696D01*
Y1777539D01*
X2696112Y1775000D01*
X2691034D01*
X2688494Y1777539D01*
Y1787696D01*
X2703729Y1775000D02*
X2708808D01*
X2706269D01*
Y1790235D01*
X2703729Y1787696D01*
X2716425D02*
X2718965Y1790235D01*
X2724043D01*
X2726582Y1787696D01*
Y1785157D01*
X2724043Y1782617D01*
X2721504D01*
X2724043D01*
X2726582Y1780078D01*
Y1777539D01*
X2724043Y1775000D01*
X2718965D01*
X2716425Y1777539D01*
X2298000Y1835235D02*
Y1820000D01*
X2308157D01*
X2313235Y1835235D02*
X2318313D01*
X2315774D01*
Y1820000D01*
X2313235D01*
X2318313D01*
X2336088Y1832696D02*
X2333548Y1835235D01*
X2328470D01*
X2325931Y1832696D01*
Y1822539D01*
X2328470Y1820000D01*
X2333548D01*
X2336088Y1822539D01*
X2351323Y1835235D02*
X2341166D01*
Y1820000D01*
X2351323D01*
X2341166Y1827617D02*
X2346244D01*
X2356401Y1820000D02*
Y1835235D01*
X2366558Y1820000D01*
Y1835235D01*
X2381793Y1832696D02*
X2379254Y1835235D01*
X2374175D01*
X2371636Y1832696D01*
Y1822539D01*
X2374175Y1820000D01*
X2379254D01*
X2381793Y1822539D01*
X2397028Y1835235D02*
X2386871D01*
Y1820000D01*
X2397028D01*
X2386871Y1827617D02*
X2391950D01*
M02*
