%FSLAX44Y44*%
%MOMM*%
G71*
G01*
G75*
G04 Layer_Physical_Order=1*
G04 Layer_Color=255*
%ADD10R,0.2500X0.8000*%
%ADD11R,0.4000X0.6500*%
%ADD12R,0.3250X0.6500*%
%ADD13R,0.6000X0.5000*%
%ADD14R,1.2000X1.1500*%
%ADD15R,2.5000X3.3000*%
%ADD16R,1.8288X3.4290*%
%ADD17R,0.6400X4.7000*%
%ADD18R,0.6400X2.5400*%
%ADD19R,1.4500X0.3000*%
%ADD20R,0.8500X0.2800*%
%ADD21R,0.2800X0.8500*%
%ADD22R,3.1500X3.1500*%
%ADD23R,3.5000X3.5000*%
%ADD24R,0.8500X0.3000*%
%ADD25R,0.3000X0.8500*%
%ADD26R,3.5000X3.5000*%
%ADD27R,1.0400X0.3800*%
%ADD28R,1.0000X0.2800*%
%ADD29R,0.2800X1.0000*%
%ADD30R,3.7000X3.7000*%
%ADD31R,0.8000X0.2400*%
%ADD32R,0.2400X0.8000*%
%ADD33R,2.2000X2.2000*%
%ADD34R,1.0000X0.5500*%
%ADD35R,1.2000X0.5800*%
%ADD36R,0.5800X1.2000*%
%ADD37R,0.9000X0.7000*%
%ADD38R,0.7000X0.9000*%
%ADD39C,1.0160*%
%ADD40R,1.9000X2.6000*%
%ADD41R,0.2800X1.4000*%
%ADD42R,0.8000X0.8000*%
%ADD43R,0.7500X0.4000*%
%ADD44R,0.9000X1.2000*%
%ADD45R,0.9000X0.8000*%
%ADD46R,0.6858X0.5588*%
%ADD47R,0.5000X0.6000*%
%ADD48R,1.6000X0.3000*%
%ADD49R,2.3700X2.4300*%
%ADD50R,2.4300X2.3700*%
%ADD51R,1.6000X0.9000*%
%ADD52R,0.9000X1.6000*%
%ADD53R,0.9000X1.3000*%
%ADD54R,1.3000X0.9000*%
%ADD55R,0.8000X0.8000*%
%ADD56R,0.5000X0.5000*%
%ADD57R,0.5000X0.5000*%
%ADD58R,0.3000X2.6000*%
%ADD59R,0.6000X1.0500*%
%ADD60R,0.7000X0.2800*%
%ADD61R,2.3368X1.6500*%
%ADD62O,0.2800X0.8500*%
%ADD63R,1.2000X0.9000*%
%ADD64R,0.8000X0.9000*%
%ADD65R,2.7000X1.4000*%
%ADD66R,0.7000X2.0000*%
%ADD67R,1.2000X1.2000*%
%ADD68R,1.5000X2.6000*%
%ADD69R,1.0000X2.6000*%
%ADD70R,1.9000X1.8000*%
%ADD71R,1.3500X0.4000*%
%ADD72R,2.9500X1.5000*%
%ADD73R,2.3000X1.0000*%
%ADD74R,2.0000X1.2500*%
%ADD75R,1.7000X0.8000*%
%ADD76C,0.2500*%
%ADD77C,0.3000*%
%ADD78C,0.5000*%
%ADD79C,0.2800*%
%ADD80C,0.4000*%
%ADD81C,0.2400*%
%ADD82C,0.8000*%
%ADD83C,0.5800*%
%ADD84C,0.6000*%
%ADD85C,0.4300*%
%ADD86C,0.3500*%
%ADD87C,1.0000*%
%ADD88C,0.2830*%
%ADD89C,1.7000*%
%ADD90C,5.0000*%
%ADD91O,4.0000X5.0000*%
%ADD92R,1.7000X1.7000*%
%ADD93R,1.7000X1.7000*%
%ADD94C,7.4000*%
%ADD95C,5.2000*%
%ADD96C,1.4000*%
%ADD97R,1.4000X1.4000*%
%ADD98R,2.0000X1.6000*%
%ADD99O,2.0000X1.6000*%
%ADD100R,1.6000X2.0000*%
%ADD101O,1.6000X2.0000*%
%ADD102C,1.3000*%
%ADD103C,2.0000*%
%ADD104O,1.3000X1.1000*%
%ADD105C,2.4000*%
%ADD106O,1.6000X2.0000*%
%ADD107R,1.6000X2.0000*%
%ADD108C,1.9000*%
%ADD109R,1.9000X1.9000*%
%ADD110C,3.6000*%
%ADD111R,3.6000X3.6000*%
%ADD112C,1.8000*%
%ADD113C,2.2000*%
%ADD114C,2.7000*%
%ADD115C,3.2500*%
%ADD116C,1.5748*%
%ADD117C,3.0000*%
%ADD118C,1.5240*%
%ADD119O,3.3000X4.0000*%
%ADD120C,3.0000*%
G04:AMPARAMS|DCode=121|XSize=1.25mm|YSize=1.1mm|CornerRadius=0.462mm|HoleSize=0mm|Usage=FLASHONLY|Rotation=0.000|XOffset=0mm|YOffset=0mm|HoleType=Round|Shape=RoundedRectangle|*
%AMROUNDEDRECTD121*
21,1,1.2500,0.1760,0,0,0.0*
21,1,0.3260,1.1000,0,0,0.0*
1,1,0.9240,0.1630,-0.0880*
1,1,0.9240,-0.1630,-0.0880*
1,1,0.9240,-0.1630,0.0880*
1,1,0.9240,0.1630,0.0880*
%
%ADD121ROUNDEDRECTD121*%
G04:AMPARAMS|DCode=122|XSize=1.9mm|YSize=2.425mm|CornerRadius=0.57mm|HoleSize=0mm|Usage=FLASHONLY|Rotation=0.000|XOffset=0mm|YOffset=0mm|HoleType=Round|Shape=RoundedRectangle|*
%AMROUNDEDRECTD122*
21,1,1.9000,1.2850,0,0,0.0*
21,1,0.7600,2.4250,0,0,0.0*
1,1,1.1400,0.3800,-0.6425*
1,1,1.1400,-0.3800,-0.6425*
1,1,1.1400,-0.3800,0.6425*
1,1,1.1400,0.3800,0.6425*
%
%ADD122ROUNDEDRECTD122*%
%ADD123R,1.5000X1.5000*%
%ADD124C,1.5000*%
%ADD125C,0.4500*%
%ADD126C,1.0000*%
G36*
X1231000Y484000D02*
Y479000D01*
X1228000Y476000D01*
Y476000D01*
X1223000D01*
X1214000Y467000D01*
Y457000D01*
X1205000D01*
Y484000D01*
X1207000Y486000D01*
X1229000D01*
X1231000Y484000D01*
D02*
G37*
G36*
X1284000Y460000D02*
X1285114D01*
X1287390Y459058D01*
X1290000Y458714D01*
X1292610Y459058D01*
X1294886Y460000D01*
X1310514D01*
X1312789Y459058D01*
X1315269Y458731D01*
X1324000Y450000D01*
Y440000D01*
X1319000Y435000D01*
X1314000Y430000D01*
X1274000D01*
X1247000Y457000D01*
Y462000D01*
X1282000D01*
X1284000Y460000D01*
D02*
G37*
G36*
X346000Y469000D02*
X342000Y465000D01*
X326000D01*
X325000Y466000D01*
Y490000D01*
X330000Y495000D01*
X346000D01*
Y469000D01*
D02*
G37*
G36*
X1005000Y506000D02*
X1002000Y503000D01*
X982000D01*
X979000Y506000D01*
Y545000D01*
Y547000D01*
X1005000D01*
Y506000D01*
D02*
G37*
G36*
X477000Y469000D02*
X463000D01*
X460000Y472000D01*
Y482000D01*
Y488000D01*
X461000Y489000D01*
X467000Y495000D01*
X477000D01*
Y469000D01*
D02*
G37*
G36*
X88000Y430000D02*
X55000D01*
X53000Y432000D01*
Y444000D01*
X55000Y446000D01*
X88000D01*
Y430000D01*
D02*
G37*
G36*
X992000Y417000D02*
X994000Y415000D01*
X996000D01*
X997000Y414000D01*
X998000Y413000D01*
Y409000D01*
X996000Y407000D01*
X981000D01*
X978000Y404000D01*
X936000D01*
Y421000D01*
X971000D01*
X979000Y429000D01*
X992000D01*
Y417000D01*
D02*
G37*
G36*
X1234000Y460000D02*
X1250000Y444000D01*
Y391000D01*
X1241000Y382000D01*
X1219000D01*
X1217000Y384000D01*
Y391000D01*
X1226000Y400000D01*
Y439000D01*
X1220000Y445000D01*
Y465000D01*
X1229000D01*
X1234000Y460000D01*
D02*
G37*
G36*
X93000Y422500D02*
Y410500D01*
X88000Y405500D01*
X30000D01*
X25000Y410500D01*
Y422500D01*
X30000Y427500D01*
X88000D01*
X93000Y422500D01*
D02*
G37*
G36*
X993000Y445000D02*
Y438000D01*
X989000Y434000D01*
X981000D01*
X978000Y431000D01*
X975000D01*
X967000Y423000D01*
X961000D01*
X960000Y424000D01*
Y431000D01*
X968000Y439000D01*
X973000D01*
X980000Y446000D01*
X992000D01*
X993000Y445000D01*
D02*
G37*
G36*
X1202000Y430000D02*
Y410000D01*
X1200000Y408000D01*
X1164000D01*
Y432000D01*
X1200000D01*
X1202000Y430000D01*
D02*
G37*
G36*
X807000Y527000D02*
Y515000D01*
X806000Y514000D01*
X783000D01*
X779000Y518000D01*
Y529000D01*
X805000D01*
X807000Y527000D01*
D02*
G37*
G36*
X1274000Y611000D02*
X1224000D01*
X1222000Y613000D01*
Y629000D01*
X1226000Y633000D01*
X1237000D01*
X1249000Y645000D01*
X1274000D01*
Y611000D01*
D02*
G37*
G36*
X1248000Y596000D02*
Y583000D01*
X1245000Y580000D01*
X1224000D01*
X1221000Y583000D01*
Y597000D01*
X1221000D01*
X1226000Y602000D01*
X1242000D01*
X1248000Y596000D01*
D02*
G37*
G36*
X1335000Y798000D02*
Y657000D01*
X1343000Y649000D01*
Y611000D01*
X1318000D01*
Y644000D01*
X1310000Y652000D01*
Y754000D01*
X1282523Y781477D01*
X1281704Y782704D01*
X1280477Y783523D01*
X1279000Y785000D01*
Y809000D01*
X1290000Y820000D01*
X1313000D01*
X1335000Y798000D01*
D02*
G37*
G36*
X1056000Y678000D02*
X1061000Y673000D01*
X1061000Y667000D01*
X1059000Y665000D01*
X1039000D01*
X1036000Y668000D01*
Y676000D01*
X1045000Y685000D01*
Y694000D01*
X1056000D01*
Y678000D01*
D02*
G37*
G36*
X88000Y635500D02*
X56000D01*
X53000Y638500D01*
Y648500D01*
X56000Y651500D01*
X88000D01*
Y635500D01*
D02*
G37*
G36*
X938000Y576000D02*
X985000D01*
X987000Y574000D01*
Y569000D01*
X978000Y560000D01*
X925000Y560000D01*
X911000Y574000D01*
X904000D01*
Y582000D01*
X932000D01*
X938000Y576000D01*
D02*
G37*
G36*
X296000Y528977D02*
X296020Y528980D01*
X300000Y525000D01*
Y521000D01*
X298000Y519000D01*
X268000D01*
X265000Y516000D01*
X261000D01*
X259000Y518000D01*
Y522000D01*
X266000Y529000D01*
X295882D01*
X296000Y528977D01*
D02*
G37*
G36*
X888137Y558968D02*
X889255Y558745D01*
X892000Y556000D01*
Y549000D01*
X896000Y545000D01*
X901000D01*
Y537000D01*
X892000Y528000D01*
X880000D01*
X866000Y514000D01*
X860000D01*
X857000Y517000D01*
Y539000D01*
X860000Y542000D01*
X865000D01*
X869000Y546000D01*
Y559000D01*
X888089D01*
X888137Y558968D01*
D02*
G37*
G36*
X942000Y522000D02*
X912000D01*
X910000Y524000D01*
Y538000D01*
X918000Y546000D01*
X942000D01*
Y522000D01*
D02*
G37*
G36*
X344000Y567000D02*
Y563000D01*
X340000Y559000D01*
X334000Y553000D01*
X329000D01*
Y567000D01*
X332000Y570000D01*
X341000D01*
X344000Y567000D01*
D02*
G37*
G36*
X799000Y564000D02*
X824000D01*
Y551000D01*
X813000Y540000D01*
X784000D01*
X779000Y545000D01*
Y567000D01*
X784000Y572000D01*
X791000D01*
X799000Y564000D01*
D02*
G37*
G36*
X351000Y290000D02*
X350000Y289000D01*
X326000D01*
X325000Y290000D01*
Y319000D01*
X351000D01*
Y290000D01*
D02*
G37*
G36*
X1276000Y294000D02*
Y290000D01*
X1275000Y289000D01*
X1268000Y282000D01*
X1263000D01*
Y290000D01*
X1265000D01*
X1265976Y290977D01*
X1267204Y291796D01*
X1268023Y293023D01*
X1270000Y295000D01*
X1276000D01*
Y294000D01*
D02*
G37*
G36*
X385000Y290000D02*
X384000Y289000D01*
X362000D01*
X361000Y290000D01*
Y319000D01*
X385000D01*
Y290000D01*
D02*
G37*
G36*
X499000Y325000D02*
Y312000D01*
X490000Y304000D01*
X481000D01*
X477000Y308000D01*
Y312000D01*
X473000Y316000D01*
Y325000D01*
X476000Y328000D01*
X496000D01*
X499000Y325000D01*
D02*
G37*
G36*
X597000Y319000D02*
Y318000D01*
Y315000D01*
X596000Y314000D01*
X594000Y312000D01*
X587000D01*
X584000Y309000D01*
Y300000D01*
X575000D01*
Y311000D01*
X574000Y312000D01*
X571000Y315000D01*
Y319000D01*
X572000Y320000D01*
X574000Y322000D01*
X594000D01*
X597000Y319000D01*
D02*
G37*
G36*
X1194000Y270000D02*
X1191000Y267000D01*
Y251000D01*
X1181000D01*
Y266000D01*
X1183000Y268000D01*
Y274000D01*
X1184000Y275000D01*
X1194000D01*
Y270000D01*
D02*
G37*
G36*
X119000Y93000D02*
X117000Y91000D01*
X107000D01*
X105000Y93000D01*
Y108000D01*
X119000D01*
Y93000D01*
D02*
G37*
G36*
X93000Y107000D02*
Y95000D01*
X88000Y90000D01*
X39000D01*
X33000Y96000D01*
Y107000D01*
X38000Y112000D01*
X88000D01*
X93000Y107000D01*
D02*
G37*
G36*
X126000Y155000D02*
Y137000D01*
X119000Y130000D01*
Y127000D01*
Y118000D01*
X105000D01*
Y157000D01*
X124000D01*
X126000Y155000D01*
D02*
G37*
G36*
X604000Y176000D02*
Y173000D01*
X603000Y172000D01*
X587000D01*
Y184000D01*
X589000Y186000D01*
X594000D01*
X604000Y176000D01*
D02*
G37*
G36*
X603000Y160000D02*
X616000D01*
X637000Y139000D01*
X661000D01*
Y121000D01*
X632000D01*
X609000Y144000D01*
X591000D01*
X587000Y148000D01*
Y166000D01*
X597000D01*
X603000Y160000D01*
D02*
G37*
G36*
X704000Y340000D02*
Y318000D01*
X706000Y316000D01*
Y314000D01*
X705000Y313000D01*
X680000D01*
X677000Y316000D01*
Y343000D01*
X701000D01*
X704000Y340000D01*
D02*
G37*
G36*
X518000Y382000D02*
X523000Y377000D01*
X534000D01*
X538000Y373000D01*
Y366000D01*
X537000Y365000D01*
X532000D01*
X531000Y366000D01*
X519000D01*
X516000Y363000D01*
X503000D01*
X501000Y365000D01*
Y379000D01*
X510000Y388000D01*
X518000D01*
Y382000D01*
D02*
G37*
G36*
X813000Y370000D02*
X816000Y367000D01*
Y352000D01*
X798000Y334000D01*
Y318000D01*
X773000D01*
Y343000D01*
X767000Y349000D01*
X645000D01*
X639000Y343000D01*
X639000Y311000D01*
X634000Y306000D01*
Y289000D01*
X628000D01*
X626000Y287000D01*
Y283000D01*
X625000Y282000D01*
X614000D01*
X613000Y283000D01*
Y289000D01*
X604000Y298000D01*
X590000D01*
Y309000D01*
X598000D01*
X604000Y315000D01*
Y324000D01*
X593000Y335000D01*
X564000D01*
X562000Y337000D01*
Y343000D01*
X567000Y348000D01*
X576000D01*
X576000Y348000D01*
X586000Y348000D01*
X588000Y350000D01*
X599000Y361000D01*
Y370000D01*
X605000D01*
Y361000D01*
X627000D01*
X629000Y363000D01*
X649740D01*
X650537Y362468D01*
X652000Y362177D01*
X653463Y362468D01*
X654260Y363000D01*
X657740D01*
X658537Y362468D01*
X660000Y362177D01*
X661463Y362468D01*
X662260Y363000D01*
X673739D01*
X674537Y362467D01*
X676000Y362176D01*
X677463Y362467D01*
X678260Y363000D01*
X681000D01*
Y375000D01*
X682000Y376000D01*
X686000D01*
X687000Y375000D01*
Y372000D01*
X688000Y371000D01*
X695000D01*
Y363000D01*
X705290D01*
X706439Y362232D01*
X708000Y361921D01*
X709561Y362232D01*
X710710Y363000D01*
X731000D01*
Y371000D01*
X741000D01*
X744000Y368000D01*
Y363000D01*
X745740D01*
X746537Y362468D01*
X748000Y362177D01*
X749463Y362468D01*
X750260Y363000D01*
X777740D01*
X778537Y362468D01*
X780000Y362177D01*
X781463Y362468D01*
X782260Y363000D01*
X793290D01*
X794439Y362232D01*
X796000Y361921D01*
X797561Y362232D01*
X798710Y363000D01*
X799000D01*
X805000Y369000D01*
Y376000D01*
X813000D01*
Y370000D01*
D02*
G37*
G36*
X1175000Y381000D02*
Y369000D01*
X1175000D01*
X1174000Y368000D01*
X1161000D01*
X1159000Y370000D01*
Y379000D01*
X1163000Y383000D01*
X1173000D01*
X1175000Y381000D01*
D02*
G37*
G36*
X981000Y401000D02*
X1002000D01*
X1005000Y398000D01*
Y378000D01*
X1003000Y376000D01*
X985000D01*
Y383000D01*
X981000Y387000D01*
X965000D01*
X960000Y392000D01*
Y401000D01*
X961000Y402000D01*
X980000D01*
X981000Y401000D01*
D02*
G37*
G36*
X1142000Y393000D02*
X1150000D01*
Y392000D01*
Y387000D01*
X1153000Y384000D01*
Y383000D01*
Y371000D01*
X1144000D01*
Y384000D01*
X1139000Y389000D01*
X1137000Y391000D01*
Y394000D01*
X1141000D01*
X1142000Y393000D01*
D02*
G37*
G36*
X451000Y366000D02*
X463000D01*
X464000Y365000D01*
Y353000D01*
X423000D01*
Y367000D01*
X450000D01*
X451000Y366000D01*
D02*
G37*
G36*
X538000Y344000D02*
Y329000D01*
X524000Y315000D01*
X509000D01*
X508000Y316000D01*
Y327000D01*
X510000Y329000D01*
X522000D01*
X531000Y338000D01*
Y344000D01*
X532000Y345000D01*
X537000D01*
X538000Y344000D01*
D02*
G37*
G36*
X735000Y319000D02*
X738000Y316000D01*
Y314000D01*
X737000Y313000D01*
X713000D01*
X711000Y315000D01*
Y343000D01*
X735000D01*
Y319000D01*
D02*
G37*
G36*
X343000Y348000D02*
Y325000D01*
X331000D01*
Y346000D01*
X329000Y348000D01*
X320000D01*
X306000Y334000D01*
X304000D01*
X295000Y325000D01*
Y325000D01*
X289000Y319000D01*
Y287624D01*
X288537Y287532D01*
X287296Y286703D01*
X286468Y285463D01*
X286177Y284000D01*
X286468Y282537D01*
X287296Y281296D01*
X288537Y280467D01*
X289000Y280375D01*
Y280000D01*
X291000Y278000D01*
X428000D01*
X431000Y281000D01*
Y286000D01*
X423000Y294000D01*
Y320000D01*
X428000Y325000D01*
X442000D01*
X451000Y334000D01*
Y347000D01*
X459000D01*
X464000Y342000D01*
Y323000D01*
X457000Y316000D01*
Y315180D01*
X456702Y314791D01*
X455745Y312480D01*
X455418Y310000D01*
X455745Y307520D01*
X456702Y305209D01*
X458225Y303225D01*
X460209Y301702D01*
X460361Y301639D01*
X461000Y301000D01*
X461903D01*
X462520Y300744D01*
X465000Y300418D01*
X467480Y300744D01*
X468097Y301000D01*
X476000D01*
X479000Y298000D01*
X491000D01*
Y287000D01*
X460704Y256704D01*
X460704Y256704D01*
X459463Y257532D01*
X458000Y257823D01*
X456537Y257532D01*
X455296Y256704D01*
X454826Y256000D01*
X443000D01*
X440000Y253000D01*
X294000D01*
X289000Y258000D01*
X278000D01*
Y246000D01*
X276000Y244000D01*
X266000D01*
X264000Y246000D01*
Y295000D01*
X258000Y301000D01*
X236000D01*
X236000Y307000D01*
X220000Y323000D01*
Y337000D01*
X221000Y338000D01*
X224000D01*
X225934Y336066D01*
X225921Y336000D01*
X226000Y335605D01*
Y332000D01*
X229607D01*
X230000Y331922D01*
X233000D01*
Y324000D01*
X270000D01*
X278000Y332000D01*
X284000Y338000D01*
Y346000D01*
X301000D01*
X312000Y357000D01*
X334000D01*
X343000Y348000D01*
D02*
G37*
G36*
X369000Y362000D02*
Y356000D01*
X366000Y353000D01*
X351000D01*
Y365000D01*
X366000D01*
X369000Y362000D01*
D02*
G37*
G36*
X562000Y347000D02*
X527000D01*
X523000Y343000D01*
Y335000D01*
X522000Y334000D01*
X507000D01*
X501000Y340000D01*
Y353000D01*
X505000Y357000D01*
X520000D01*
X521000Y358000D01*
Y363000D01*
X562000D01*
Y347000D01*
D02*
G37*
G36*
X207000Y683000D02*
X218000D01*
Y676000D01*
X207000D01*
X205000Y674000D01*
X183000D01*
X182000Y675000D01*
Y685000D01*
X183000Y686000D01*
X204000D01*
X207000Y683000D01*
D02*
G37*
G36*
X918000Y797000D02*
X895000D01*
X892000Y800000D01*
Y829000D01*
Y860000D01*
X893000Y861000D01*
X895000Y863000D01*
X918000D01*
Y797000D01*
D02*
G37*
G36*
X970000Y867000D02*
X990000Y867000D01*
X1002000Y855000D01*
Y810000D01*
X989000Y797000D01*
X940000D01*
Y879000D01*
X958000D01*
X970000Y867000D01*
D02*
G37*
G36*
X1203000Y883000D02*
Y882000D01*
Y880000D01*
X1200000Y877000D01*
Y863000D01*
X1191000D01*
Y877000D01*
X1187000Y881000D01*
X1187000D01*
Y883000D01*
X1188000Y884000D01*
X1202000D01*
X1203000Y883000D01*
D02*
G37*
G36*
X608000Y951000D02*
Y944000D01*
Y940000D01*
X617000Y931000D01*
X621000Y927000D01*
X688000D01*
Y895000D01*
Y894000D01*
X685000Y891000D01*
X664000D01*
X653000Y902000D01*
X646000Y909000D01*
X603000D01*
Y916000D01*
X595000Y924000D01*
X592000Y927000D01*
Y948000D01*
Y950000D01*
X596000Y954000D01*
X597000Y955000D01*
X604000D01*
X608000Y951000D01*
D02*
G37*
G36*
X1158000Y972000D02*
Y952000D01*
X1153000Y947000D01*
X1130000D01*
Y972000D01*
X1133000Y975000D01*
X1155000D01*
X1158000Y972000D01*
D02*
G37*
G36*
X1251000Y974000D02*
Y900000D01*
X1226000D01*
Y930000D01*
X1220000Y936000D01*
X1212000Y944000D01*
X1204000Y952000D01*
X1204000D01*
X1184000Y972000D01*
Y988000D01*
X1199000Y1003000D01*
X1222000D01*
X1251000Y974000D01*
D02*
G37*
G36*
X286000Y945000D02*
Y911000D01*
X260000D01*
X250000Y921000D01*
Y948000D01*
X283000D01*
X286000Y945000D01*
D02*
G37*
G36*
X688000Y874000D02*
Y870000D01*
Y841000D01*
X662000D01*
Y874000D01*
X665000Y877000D01*
X685000D01*
X688000Y874000D01*
D02*
G37*
G36*
X187000Y947000D02*
X212000D01*
Y908000D01*
X199000Y895000D01*
Y887000D01*
X193000Y881000D01*
Y864000D01*
X184000D01*
X178000Y858000D01*
X139000D01*
Y875000D01*
X160000D01*
X172000Y887000D01*
Y950000D01*
X175000Y953000D01*
X181000D01*
X187000Y947000D01*
D02*
G37*
G36*
X1183000Y885000D02*
X1185313Y882687D01*
X1185177Y882000D01*
X1185468Y880537D01*
X1185732Y880141D01*
X1185852Y879852D01*
X1185852Y879852D01*
X1186073Y879631D01*
X1186296Y879296D01*
X1186631Y879073D01*
X1187000Y878704D01*
Y830823D01*
X1185537Y830532D01*
X1184296Y829704D01*
X1183468Y828463D01*
X1183177Y827000D01*
X1183468Y825537D01*
X1184296Y824296D01*
X1185537Y823468D01*
X1187000Y823177D01*
Y780000D01*
X1164000Y757000D01*
Y740097D01*
X1163745Y739480D01*
X1163418Y737000D01*
X1163745Y734520D01*
X1164000Y733903D01*
Y714697D01*
X1163745Y714080D01*
X1163418Y711600D01*
X1163556Y710555D01*
X1125000Y672000D01*
X1084000D01*
X1077000Y679000D01*
Y689000D01*
X1068000Y698000D01*
X1060000D01*
X1057000Y701000D01*
X1053000Y705000D01*
X1047000D01*
Y711000D01*
X1072000D01*
X1086000Y697000D01*
X1116000D01*
X1129000Y710000D01*
Y723587D01*
X1129773Y724222D01*
X1130000Y724177D01*
X1131463Y724468D01*
X1132704Y725296D01*
X1133532Y726537D01*
X1133823Y728000D01*
X1133532Y729463D01*
X1132704Y730704D01*
X1131463Y731532D01*
X1130000Y731824D01*
X1129773Y731778D01*
X1129000Y732413D01*
Y741177D01*
X1130463Y741468D01*
X1131704Y742296D01*
X1132532Y743537D01*
X1132823Y745000D01*
X1132532Y746463D01*
X1131704Y747704D01*
X1130463Y748532D01*
X1129000Y748823D01*
Y754000D01*
X1122000Y761000D01*
X1090000D01*
X1073000Y778000D01*
Y785000D01*
X1067000Y792000D01*
X1061000D01*
X1054000Y799000D01*
X1047000D01*
Y805000D01*
X1078000D01*
X1092000Y791000D01*
X1094826D01*
X1095296Y790296D01*
X1096537Y789468D01*
X1098000Y789177D01*
X1099463Y789468D01*
X1100704Y790296D01*
X1101174Y791000D01*
X1105740D01*
X1106537Y790468D01*
X1108000Y790177D01*
X1109463Y790468D01*
X1110260Y791000D01*
X1121000D01*
X1124000Y794000D01*
Y838000D01*
X1139000Y853000D01*
Y855176D01*
X1140463Y855468D01*
X1141704Y856296D01*
X1142532Y857537D01*
X1142823Y859000D01*
X1142532Y860463D01*
X1141704Y861704D01*
X1140463Y862532D01*
X1139000Y862823D01*
Y892000D01*
X1133000Y898000D01*
X1123000Y908000D01*
X1096000D01*
X1073000Y885000D01*
X1060000D01*
X1045000Y870000D01*
X976000D01*
X973000Y873000D01*
Y880000D01*
X994000Y901000D01*
X1055000D01*
X1088000Y934000D01*
X1125000D01*
X1127000Y932000D01*
Y928000D01*
X1130000Y925000D01*
X1148000D01*
X1157000Y934000D01*
X1183000D01*
Y885000D01*
D02*
G37*
G36*
X1081000Y874000D02*
Y865000D01*
X1093000Y853000D01*
Y831000D01*
X1094000Y830000D01*
X1109000D01*
Y812000D01*
X1094000D01*
X1090000Y808000D01*
X1068000D01*
X1065000Y811000D01*
Y845000D01*
X1052000Y858000D01*
Y871000D01*
X1062000Y881000D01*
X1074000D01*
X1081000Y874000D01*
D02*
G37*
G36*
X1053000Y843000D02*
Y812000D01*
X1021000D01*
X1019000Y814000D01*
Y850000D01*
X1046000D01*
X1053000Y843000D01*
D02*
G37*
G36*
X763000Y814000D02*
Y774000D01*
X757000D01*
Y797000D01*
X755000Y799000D01*
Y815000D01*
X757000Y817000D01*
X760000D01*
X763000Y814000D01*
D02*
G37*
G36*
X1053000Y758000D02*
Y717000D01*
X1037000D01*
X1019000Y735000D01*
Y770000D01*
X1041000D01*
X1053000Y758000D01*
D02*
G37*
G36*
X1097000Y749000D02*
Y737000D01*
X1098000Y736000D01*
X1109000Y736000D01*
Y718707D01*
X1108293Y718000D01*
X1098000Y718000D01*
X1097000Y717000D01*
Y703000D01*
X1095000Y701000D01*
X1087000D01*
X1074000Y714000D01*
X1065000D01*
Y751000D01*
X1052000Y764000D01*
Y769000D01*
X1077000D01*
X1097000Y749000D01*
D02*
G37*
G36*
X918000Y721000D02*
X895000D01*
X892000Y724000D01*
Y753000D01*
Y784000D01*
X893000Y785000D01*
X895000Y787000D01*
X918000D01*
Y721000D01*
D02*
G37*
G36*
X193000Y779000D02*
X191000Y777000D01*
Y763000D01*
X208000Y746000D01*
Y707000D01*
X201000Y700000D01*
X182000D01*
X178000Y703000D01*
Y739000D01*
X160000Y757000D01*
X140000D01*
Y773000D01*
X163000D01*
X178000Y788000D01*
X193000D01*
Y779000D01*
D02*
G37*
G36*
X68000Y750000D02*
Y732000D01*
X77000Y723000D01*
Y711000D01*
X72000D01*
X67000Y706000D01*
X59000D01*
Y713391D01*
X59395Y713982D01*
X59870Y716370D01*
Y718130D01*
X59395Y720518D01*
X58042Y722542D01*
X56018Y723895D01*
X54879Y724121D01*
X51000Y728000D01*
Y752000D01*
X66000D01*
X68000Y750000D01*
D02*
G37*
G36*
X1002000Y775000D02*
Y730000D01*
X993000Y721000D01*
X966000D01*
X955000Y710000D01*
X946000D01*
X940000Y716000D01*
Y787000D01*
X990000D01*
X1002000Y775000D01*
D02*
G37*
G36*
X270000Y764000D02*
Y722000D01*
X246000D01*
Y746000D01*
X243000Y750000D01*
Y764000D01*
X247000Y768000D01*
X266000D01*
X270000Y764000D01*
D02*
G37*
G36*
X1043000Y798000D02*
X1053000Y788000D01*
X1057000D01*
Y772000D01*
X1048000D01*
X1046000Y774000D01*
X1037000D01*
X1034000Y777000D01*
Y796000D01*
Y797000D01*
X1036000Y799000D01*
X1042000D01*
X1043000Y798000D01*
D02*
G37*
G36*
X1237000Y867000D02*
Y862000D01*
X1239000Y860000D01*
X1256000D01*
X1262000Y854000D01*
Y784000D01*
X1245000Y767000D01*
X1229000D01*
X1225000Y771000D01*
Y777000D01*
X1233643Y785643D01*
X1234219Y785719D01*
X1236287Y786575D01*
X1238062Y787938D01*
X1239425Y789713D01*
X1240281Y791781D01*
X1240357Y792357D01*
X1241000Y793000D01*
Y825000D01*
X1239000Y827000D01*
X1225000D01*
Y856000D01*
X1218000Y863000D01*
Y863000D01*
X1210000D01*
Y877000D01*
X1227000D01*
X1237000Y867000D01*
D02*
G37*
G36*
X232000Y985000D02*
Y966508D01*
X230796Y965704D01*
X229968Y964463D01*
X229677Y963000D01*
X229968Y961537D01*
X230796Y960296D01*
X232000Y959492D01*
Y952000D01*
X189000D01*
X184000Y957000D01*
X164000D01*
X157531Y950531D01*
X156791Y951098D01*
X154480Y952055D01*
X152000Y952382D01*
X148000D01*
X145520Y952055D01*
X143209Y951098D01*
X141224Y949575D01*
X139702Y947591D01*
X138744Y945280D01*
X138418Y942800D01*
X138744Y940320D01*
X139702Y938009D01*
X141224Y936024D01*
X141479Y935829D01*
X141562Y934562D01*
X135000Y928000D01*
Y894000D01*
X123780Y882780D01*
X122537Y882532D01*
X121297Y881704D01*
X120468Y880463D01*
X120220Y879220D01*
X114000Y873000D01*
X88000D01*
X78973Y882027D01*
X78562Y882562D01*
X78027Y882973D01*
X76000Y885000D01*
X73057D01*
X72500Y885073D01*
X71943Y885000D01*
X48057D01*
X47500Y885073D01*
X46943Y885000D01*
X36839D01*
X36002Y885955D01*
X36073Y886500D01*
X35781Y888719D01*
X34925Y890787D01*
X33562Y892562D01*
X31787Y893925D01*
X29719Y894781D01*
X27500Y895073D01*
X25281Y894781D01*
X23213Y893925D01*
X21438Y892562D01*
X20239Y891000D01*
X17000D01*
Y918000D01*
X26000D01*
X26110Y918110D01*
X27500Y917927D01*
X29719Y918219D01*
X31787Y919075D01*
X33562Y920438D01*
X34925Y922213D01*
X35781Y924281D01*
X36073Y926500D01*
X36002Y927045D01*
X36839Y928000D01*
X46943D01*
X47500Y927927D01*
X48057Y928000D01*
X71943D01*
X72500Y927927D01*
X73057Y928000D01*
X75000D01*
X75572Y928572D01*
X76787Y929075D01*
X78562Y930438D01*
X79925Y932213D01*
X80428Y933428D01*
X87004Y940004D01*
X88213Y939075D01*
X90281Y938219D01*
X92500Y937927D01*
X94719Y938219D01*
X96787Y939075D01*
X98562Y940438D01*
X99925Y942213D01*
X100781Y944281D01*
X101073Y946500D01*
X100781Y948719D01*
X99925Y950787D01*
X98996Y951996D01*
X103000Y956000D01*
Y984000D01*
X110000Y991000D01*
X226000D01*
X232000Y985000D01*
D02*
G37*
G36*
X688000Y1056400D02*
Y1052400D01*
Y1023400D01*
X662000D01*
Y1056400D01*
X665000Y1059400D01*
X685000D01*
X688000Y1056400D01*
D02*
G37*
G36*
X692000Y980000D02*
Y935000D01*
X688000Y931000D01*
X670000D01*
X666000Y935000D01*
Y949000D01*
X654000Y961000D01*
X601000D01*
X592000Y970000D01*
Y976000D01*
X601000Y985000D01*
X624626D01*
X627465Y984139D01*
X630700Y983820D01*
X633934Y984139D01*
X636773Y985000D01*
X687000D01*
X692000Y980000D01*
D02*
G37*
%LPC*%
G36*
X92500Y915073D02*
X90281Y914781D01*
X88213Y913925D01*
X86438Y912562D01*
X85075Y910787D01*
X84219Y908719D01*
X83927Y906500D01*
X84219Y904281D01*
X85075Y902213D01*
X86438Y900438D01*
X88213Y899075D01*
X90281Y898219D01*
X92500Y897927D01*
X94719Y898219D01*
X96787Y899075D01*
X98562Y900438D01*
X99925Y902213D01*
X100781Y904281D01*
X101073Y906500D01*
X100781Y908719D01*
X99925Y910787D01*
X98562Y912562D01*
X96787Y913925D01*
X94719Y914781D01*
X92500Y915073D01*
D02*
G37*
G36*
X47500Y925073D02*
X45281Y924781D01*
X43213Y923925D01*
X41438Y922562D01*
X40075Y920787D01*
X39219Y918719D01*
X38927Y916500D01*
X39219Y914281D01*
X40075Y912213D01*
X41438Y910438D01*
X43213Y909075D01*
X45281Y908219D01*
X47500Y907927D01*
X49719Y908219D01*
X51787Y909075D01*
X53562Y910438D01*
X54925Y912213D01*
X55781Y914281D01*
X56073Y916500D01*
X55781Y918719D01*
X54925Y920787D01*
X53562Y922562D01*
X51787Y923925D01*
X49719Y924781D01*
X47500Y925073D01*
D02*
G37*
G36*
X72500D02*
X70281Y924781D01*
X68213Y923925D01*
X66438Y922562D01*
X65075Y920787D01*
X64219Y918719D01*
X63927Y916500D01*
X64219Y914281D01*
X65075Y912213D01*
X66438Y910438D01*
X68213Y909075D01*
X70281Y908219D01*
X72500Y907927D01*
X74719Y908219D01*
X76787Y909075D01*
X78562Y910438D01*
X79925Y912213D01*
X80781Y914281D01*
X81073Y916500D01*
X80781Y918719D01*
X79925Y920787D01*
X78562Y922562D01*
X76787Y923925D01*
X74719Y924781D01*
X72500Y925073D01*
D02*
G37*
G36*
X113000Y956823D02*
X111537Y956532D01*
X110296Y955704D01*
X109468Y954463D01*
X109177Y953000D01*
X109468Y951537D01*
X110296Y950296D01*
X111537Y949468D01*
X113000Y949176D01*
X114463Y949468D01*
X115704Y950296D01*
X116532Y951537D01*
X116824Y953000D01*
X116532Y954463D01*
X115704Y955704D01*
X114463Y956532D01*
X113000Y956823D01*
D02*
G37*
G36*
X125000D02*
X123537Y956532D01*
X122296Y955704D01*
X121468Y954463D01*
X121177Y953000D01*
X121468Y951537D01*
X122296Y950296D01*
X123537Y949468D01*
X125000Y949176D01*
X126463Y949468D01*
X127704Y950296D01*
X128532Y951537D01*
X128823Y953000D01*
X128532Y954463D01*
X127704Y955704D01*
X126463Y956532D01*
X125000Y956823D01*
D02*
G37*
G36*
Y934823D02*
X123537Y934532D01*
X122296Y933704D01*
X121468Y932463D01*
X121177Y931000D01*
X121468Y929537D01*
X122296Y928296D01*
X123537Y927468D01*
X125000Y927177D01*
X126463Y927468D01*
X127704Y928296D01*
X128532Y929537D01*
X128823Y931000D01*
X128532Y932463D01*
X127704Y933704D01*
X126463Y934532D01*
X125000Y934823D01*
D02*
G37*
G36*
X92500Y935073D02*
X90281Y934781D01*
X88213Y933925D01*
X86438Y932562D01*
X85075Y930787D01*
X84219Y928719D01*
X83927Y926500D01*
X84219Y924281D01*
X85075Y922213D01*
X86438Y920438D01*
X88213Y919075D01*
X90281Y918219D01*
X92500Y917927D01*
X94719Y918219D01*
X96787Y919075D01*
X98562Y920438D01*
X99925Y922213D01*
X100781Y924281D01*
X101073Y926500D01*
X100781Y928719D01*
X99925Y930787D01*
X98562Y932562D01*
X96787Y933925D01*
X94719Y934781D01*
X92500Y935073D01*
D02*
G37*
G36*
X113000Y934823D02*
X111537Y934532D01*
X110296Y933704D01*
X109468Y932463D01*
X109177Y931000D01*
X109468Y929537D01*
X110296Y928296D01*
X111537Y927468D01*
X113000Y927177D01*
X114463Y927468D01*
X115704Y928296D01*
X116532Y929537D01*
X116824Y931000D01*
X116532Y932463D01*
X115704Y933704D01*
X114463Y934532D01*
X113000Y934823D01*
D02*
G37*
G36*
X1160000Y784823D02*
X1158537Y784532D01*
X1157296Y783704D01*
X1156468Y782463D01*
X1156177Y781000D01*
X1156468Y779537D01*
X1157296Y778296D01*
X1158537Y777468D01*
X1160000Y777177D01*
X1161463Y777468D01*
X1162704Y778296D01*
X1163532Y779537D01*
X1163823Y781000D01*
X1163532Y782463D01*
X1162704Y783704D01*
X1161463Y784532D01*
X1160000Y784823D01*
D02*
G37*
G36*
X1176000D02*
X1174537Y784532D01*
X1173296Y783704D01*
X1172468Y782463D01*
X1172177Y781000D01*
X1172468Y779537D01*
X1173296Y778296D01*
X1174537Y777468D01*
X1176000Y777177D01*
X1177463Y777468D01*
X1178704Y778296D01*
X1179532Y779537D01*
X1179823Y781000D01*
X1179532Y782463D01*
X1178704Y783704D01*
X1177463Y784532D01*
X1176000Y784823D01*
D02*
G37*
G36*
X1290000Y453486D02*
X1287390Y453143D01*
X1284957Y452135D01*
X1282868Y450532D01*
X1281265Y448443D01*
X1280257Y446011D01*
X1279914Y443400D01*
X1280257Y440789D01*
X1281265Y438357D01*
X1282868Y436268D01*
X1284957Y434665D01*
X1287390Y433657D01*
X1290000Y433314D01*
X1292610Y433657D01*
X1295043Y434665D01*
X1297132Y436268D01*
X1298735Y438357D01*
X1299743Y440789D01*
X1300086Y443400D01*
X1299743Y446011D01*
X1298735Y448443D01*
X1297132Y450532D01*
X1295043Y452135D01*
X1292610Y453143D01*
X1290000Y453486D01*
D02*
G37*
G36*
X1108000Y781823D02*
X1106537Y781532D01*
X1105296Y780704D01*
X1104468Y779463D01*
X1104176Y778000D01*
X1104468Y776537D01*
X1105296Y775296D01*
X1106537Y774468D01*
X1108000Y774177D01*
X1109463Y774468D01*
X1110704Y775296D01*
X1111532Y776537D01*
X1111823Y778000D01*
X1111532Y779463D01*
X1110704Y780704D01*
X1109463Y781532D01*
X1108000Y781823D01*
D02*
G37*
G36*
X1147000Y739823D02*
X1145537Y739532D01*
X1144296Y738704D01*
X1143468Y737463D01*
X1143177Y736000D01*
X1143468Y734537D01*
X1144296Y733296D01*
X1145537Y732468D01*
X1147000Y732177D01*
X1148463Y732468D01*
X1149704Y733296D01*
X1150532Y734537D01*
X1150823Y736000D01*
X1150532Y737463D01*
X1149704Y738704D01*
X1148463Y739532D01*
X1147000Y739823D01*
D02*
G37*
G36*
X1158500Y766323D02*
X1157037Y766032D01*
X1155796Y765204D01*
X1154968Y763963D01*
X1154677Y762500D01*
X1154968Y761037D01*
X1155796Y759796D01*
X1157037Y758968D01*
X1158500Y758677D01*
X1159963Y758968D01*
X1161204Y759796D01*
X1162032Y761037D01*
X1162324Y762500D01*
X1162032Y763963D01*
X1161204Y765204D01*
X1159963Y766032D01*
X1158500Y766323D01*
D02*
G37*
G36*
X1120000Y773823D02*
X1118537Y773532D01*
X1117296Y772704D01*
X1116468Y771463D01*
X1116177Y770000D01*
X1116468Y768537D01*
X1117296Y767296D01*
X1118537Y766468D01*
X1120000Y766177D01*
X1121463Y766468D01*
X1122704Y767296D01*
X1123532Y768537D01*
X1123823Y770000D01*
X1123532Y771463D01*
X1122704Y772704D01*
X1121463Y773532D01*
X1120000Y773823D01*
D02*
G37*
G36*
X1176000Y810823D02*
X1174537Y810532D01*
X1173296Y809704D01*
X1172468Y808463D01*
X1172177Y807000D01*
X1172468Y805537D01*
X1173296Y804296D01*
X1174537Y803468D01*
X1176000Y803176D01*
X1177463Y803468D01*
X1178704Y804296D01*
X1179532Y805537D01*
X1179823Y807000D01*
X1179532Y808463D01*
X1178704Y809704D01*
X1177463Y810532D01*
X1176000Y810823D01*
D02*
G37*
G36*
X1174000Y866823D02*
X1172537Y866532D01*
X1171296Y865704D01*
X1170468Y864463D01*
X1170177Y863000D01*
X1170468Y861537D01*
X1171296Y860296D01*
X1172537Y859468D01*
X1174000Y859176D01*
X1175463Y859468D01*
X1176704Y860296D01*
X1177532Y861537D01*
X1177823Y863000D01*
X1177532Y864463D01*
X1176704Y865704D01*
X1175463Y866532D01*
X1174000Y866823D01*
D02*
G37*
G36*
X47500Y905073D02*
X45281Y904781D01*
X43213Y903925D01*
X41438Y902562D01*
X40075Y900787D01*
X39219Y898719D01*
X38927Y896500D01*
X39219Y894281D01*
X40075Y892213D01*
X41438Y890438D01*
X43213Y889075D01*
X45281Y888219D01*
X47500Y887927D01*
X49719Y888219D01*
X51787Y889075D01*
X53562Y890438D01*
X54925Y892213D01*
X55781Y894281D01*
X56073Y896500D01*
X55781Y898719D01*
X54925Y900787D01*
X53562Y902562D01*
X51787Y903925D01*
X49719Y904781D01*
X47500Y905073D01*
D02*
G37*
G36*
X738000Y358823D02*
X736537Y358532D01*
X735296Y357704D01*
X734468Y356463D01*
X734177Y355000D01*
X734468Y353537D01*
X735296Y352296D01*
X736537Y351468D01*
X738000Y351177D01*
X739463Y351468D01*
X740704Y352296D01*
X741532Y353537D01*
X741823Y355000D01*
X741532Y356463D01*
X740704Y357704D01*
X739463Y358532D01*
X738000Y358823D01*
D02*
G37*
G36*
X1159000Y866823D02*
X1157537Y866532D01*
X1156296Y865704D01*
X1155468Y864463D01*
X1155177Y863000D01*
X1155468Y861537D01*
X1156296Y860296D01*
X1157537Y859468D01*
X1159000Y859176D01*
X1160463Y859468D01*
X1161704Y860296D01*
X1162532Y861537D01*
X1162823Y863000D01*
X1162532Y864463D01*
X1161704Y865704D01*
X1160463Y866532D01*
X1159000Y866823D01*
D02*
G37*
G36*
X1160000Y810823D02*
X1158537Y810532D01*
X1157296Y809704D01*
X1156468Y808463D01*
X1156177Y807000D01*
X1156468Y805537D01*
X1157296Y804296D01*
X1158537Y803468D01*
X1160000Y803177D01*
X1161463Y803468D01*
X1162704Y804296D01*
X1163532Y805537D01*
X1163823Y807000D01*
X1163532Y808463D01*
X1162704Y809704D01*
X1161463Y810532D01*
X1160000Y810823D01*
D02*
G37*
G36*
X1178500Y829323D02*
X1177037Y829032D01*
X1175796Y828204D01*
X1174968Y826963D01*
X1174677Y825500D01*
X1174968Y824037D01*
X1175796Y822796D01*
X1177037Y821968D01*
X1178500Y821677D01*
X1179963Y821968D01*
X1181204Y822796D01*
X1182032Y824037D01*
X1182323Y825500D01*
X1182032Y826963D01*
X1181204Y828204D01*
X1179963Y829032D01*
X1178500Y829323D01*
D02*
G37*
G36*
X1153500Y839323D02*
X1152037Y839032D01*
X1150797Y838204D01*
X1149968Y836963D01*
X1149677Y835500D01*
X1149968Y834037D01*
X1150797Y832796D01*
X1152037Y831968D01*
X1153500Y831676D01*
X1154963Y831968D01*
X1156204Y832796D01*
X1157032Y834037D01*
X1157324Y835500D01*
X1157032Y836963D01*
X1156204Y838204D01*
X1154963Y839032D01*
X1153500Y839323D01*
D02*
G37*
%LPD*%
D10*
X325000Y562749D02*
D03*
D11*
X330000Y578499D02*
D03*
X320000D02*
D03*
D12*
X330380Y563499D02*
D03*
X319620D02*
D03*
D13*
X449000Y636000D02*
D03*
Y646000D02*
D03*
X614000Y791000D02*
D03*
Y781000D02*
D03*
X638000Y387000D02*
D03*
Y377000D02*
D03*
X654000Y387000D02*
D03*
Y377000D02*
D03*
X1097000Y581000D02*
D03*
Y571000D02*
D03*
X1081000Y581000D02*
D03*
Y571000D02*
D03*
X1273000Y334000D02*
D03*
Y324000D02*
D03*
X769000Y222000D02*
D03*
Y212000D02*
D03*
X753000Y222000D02*
D03*
Y212000D02*
D03*
X785000Y222000D02*
D03*
Y212000D02*
D03*
X801000Y222000D02*
D03*
Y212000D02*
D03*
X654000Y674000D02*
D03*
Y684000D02*
D03*
X906000Y490000D02*
D03*
Y480000D02*
D03*
X1055000Y530000D02*
D03*
Y520000D02*
D03*
Y496000D02*
D03*
Y506000D02*
D03*
X457000Y17000D02*
D03*
Y27000D02*
D03*
X1026000Y220000D02*
D03*
Y230000D02*
D03*
X1010000Y220000D02*
D03*
Y230000D02*
D03*
X948000Y264000D02*
D03*
Y254000D02*
D03*
X883000Y272000D02*
D03*
Y282000D02*
D03*
X111000Y684000D02*
D03*
Y694000D02*
D03*
X303000Y653000D02*
D03*
Y663000D02*
D03*
Y673000D02*
D03*
Y663000D02*
D03*
X317000Y653000D02*
D03*
Y663000D02*
D03*
Y673000D02*
D03*
Y663000D02*
D03*
X1190000Y637000D02*
D03*
Y627000D02*
D03*
Y604000D02*
D03*
Y614000D02*
D03*
X1206000Y627000D02*
D03*
Y637000D02*
D03*
Y604000D02*
D03*
Y614000D02*
D03*
X1076000Y638000D02*
D03*
Y628000D02*
D03*
X1218000Y551000D02*
D03*
Y561000D02*
D03*
X718000Y860000D02*
D03*
Y870000D02*
D03*
X1170000Y239000D02*
D03*
Y229000D02*
D03*
X1186000Y229000D02*
D03*
Y239000D02*
D03*
X1031000Y421000D02*
D03*
Y411000D02*
D03*
X547000Y98000D02*
D03*
Y108000D02*
D03*
X532000Y98000D02*
D03*
Y108000D02*
D03*
X517000Y98000D02*
D03*
Y108000D02*
D03*
X502000Y98000D02*
D03*
Y108000D02*
D03*
X385000Y636000D02*
D03*
Y646000D02*
D03*
Y656000D02*
D03*
Y646000D02*
D03*
X399000Y636000D02*
D03*
Y646000D02*
D03*
Y656000D02*
D03*
Y646000D02*
D03*
X417000Y636000D02*
D03*
Y646000D02*
D03*
Y656000D02*
D03*
Y646000D02*
D03*
X431000Y636000D02*
D03*
Y646000D02*
D03*
Y656000D02*
D03*
Y646000D02*
D03*
X449000Y656000D02*
D03*
Y646000D02*
D03*
X463000Y636000D02*
D03*
Y646000D02*
D03*
Y656000D02*
D03*
Y646000D02*
D03*
X550000Y295000D02*
D03*
Y305000D02*
D03*
X534000Y295000D02*
D03*
Y305000D02*
D03*
X1137000Y550000D02*
D03*
Y540000D02*
D03*
X1121000Y465000D02*
D03*
Y455000D02*
D03*
X1152000Y577000D02*
D03*
Y567000D02*
D03*
X1136000Y567000D02*
D03*
Y577000D02*
D03*
X737000Y212000D02*
D03*
Y222000D02*
D03*
X711000Y237000D02*
D03*
Y247000D02*
D03*
X518000Y295000D02*
D03*
Y305000D02*
D03*
X691000Y237000D02*
D03*
Y247000D02*
D03*
D14*
X901000Y326750D02*
D03*
Y303250D02*
D03*
X929000Y326750D02*
D03*
Y303250D02*
D03*
D15*
X1169500Y917000D02*
D03*
X1238500D02*
D03*
X1261500Y628000D02*
D03*
X1330500D02*
D03*
D16*
X1028686Y752000D02*
D03*
X973314D02*
D03*
Y832000D02*
D03*
X1028686D02*
D03*
D17*
X543000Y656750D02*
D03*
Y593250D02*
D03*
X847000Y656750D02*
D03*
Y593250D02*
D03*
D18*
X543000Y709450D02*
D03*
Y540550D02*
D03*
X847000Y709450D02*
D03*
Y540550D02*
D03*
D19*
X512100Y697500D02*
D03*
Y692500D02*
D03*
Y687500D02*
D03*
Y682500D02*
D03*
Y677500D02*
D03*
Y672500D02*
D03*
Y667500D02*
D03*
Y662500D02*
D03*
Y657500D02*
D03*
Y652500D02*
D03*
Y647500D02*
D03*
Y642500D02*
D03*
Y637500D02*
D03*
Y632500D02*
D03*
Y627500D02*
D03*
Y622500D02*
D03*
Y617500D02*
D03*
Y612500D02*
D03*
Y607500D02*
D03*
Y602500D02*
D03*
Y597500D02*
D03*
Y592500D02*
D03*
Y587500D02*
D03*
Y582500D02*
D03*
Y577500D02*
D03*
Y572500D02*
D03*
Y567500D02*
D03*
Y562500D02*
D03*
Y557500D02*
D03*
Y552500D02*
D03*
X573900Y697500D02*
D03*
Y692500D02*
D03*
Y687500D02*
D03*
Y682500D02*
D03*
Y677500D02*
D03*
Y672500D02*
D03*
Y667500D02*
D03*
Y662500D02*
D03*
Y657500D02*
D03*
Y652500D02*
D03*
Y647500D02*
D03*
Y642500D02*
D03*
Y637500D02*
D03*
Y632500D02*
D03*
Y627500D02*
D03*
Y622500D02*
D03*
Y617500D02*
D03*
Y612500D02*
D03*
Y607500D02*
D03*
Y602500D02*
D03*
Y597500D02*
D03*
Y592500D02*
D03*
Y587500D02*
D03*
Y582500D02*
D03*
Y577500D02*
D03*
Y572500D02*
D03*
Y567500D02*
D03*
Y562500D02*
D03*
Y557500D02*
D03*
Y552500D02*
D03*
X816100Y697500D02*
D03*
Y692500D02*
D03*
Y687500D02*
D03*
Y682500D02*
D03*
Y677500D02*
D03*
Y672500D02*
D03*
Y667500D02*
D03*
Y662500D02*
D03*
Y657500D02*
D03*
Y652500D02*
D03*
Y647500D02*
D03*
Y642500D02*
D03*
Y637500D02*
D03*
Y632500D02*
D03*
Y627500D02*
D03*
Y622500D02*
D03*
Y617500D02*
D03*
Y612500D02*
D03*
Y607500D02*
D03*
Y602500D02*
D03*
Y597500D02*
D03*
Y592500D02*
D03*
Y587500D02*
D03*
Y582500D02*
D03*
Y577500D02*
D03*
Y572500D02*
D03*
Y567500D02*
D03*
Y562500D02*
D03*
Y557500D02*
D03*
Y552500D02*
D03*
X877900Y697500D02*
D03*
Y692500D02*
D03*
Y687500D02*
D03*
Y682500D02*
D03*
Y677500D02*
D03*
Y672500D02*
D03*
Y667500D02*
D03*
Y662500D02*
D03*
Y657500D02*
D03*
Y652500D02*
D03*
Y647500D02*
D03*
Y642500D02*
D03*
Y637500D02*
D03*
Y632500D02*
D03*
Y627500D02*
D03*
Y622500D02*
D03*
Y617500D02*
D03*
Y612500D02*
D03*
Y607500D02*
D03*
Y602500D02*
D03*
Y597500D02*
D03*
Y592500D02*
D03*
Y587500D02*
D03*
Y582500D02*
D03*
Y577500D02*
D03*
Y572500D02*
D03*
Y567500D02*
D03*
Y562500D02*
D03*
Y557500D02*
D03*
Y552500D02*
D03*
D20*
X1206250Y263500D02*
D03*
Y268500D02*
D03*
Y273500D02*
D03*
Y278500D02*
D03*
Y283500D02*
D03*
Y288500D02*
D03*
Y293500D02*
D03*
Y298500D02*
D03*
X1255750D02*
D03*
Y293500D02*
D03*
Y288500D02*
D03*
Y283500D02*
D03*
Y278500D02*
D03*
Y273500D02*
D03*
Y268500D02*
D03*
Y263500D02*
D03*
D21*
X1213500Y305750D02*
D03*
X1218500D02*
D03*
X1223500D02*
D03*
X1228500D02*
D03*
X1233500D02*
D03*
X1238500D02*
D03*
X1243500D02*
D03*
X1248500D02*
D03*
Y256250D02*
D03*
X1243500D02*
D03*
X1238500D02*
D03*
X1233500D02*
D03*
X1228500D02*
D03*
X1223500D02*
D03*
X1218500D02*
D03*
X1213500D02*
D03*
D22*
X1231000Y281000D02*
D03*
D23*
X1017000Y316000D02*
D03*
D24*
X992500Y333500D02*
D03*
Y328500D02*
D03*
Y323500D02*
D03*
Y318500D02*
D03*
Y313500D02*
D03*
Y308500D02*
D03*
Y303500D02*
D03*
Y298500D02*
D03*
X1041500D02*
D03*
Y303500D02*
D03*
Y308500D02*
D03*
Y313500D02*
D03*
Y318500D02*
D03*
Y323500D02*
D03*
Y328500D02*
D03*
Y333500D02*
D03*
X1077500Y422500D02*
D03*
Y417500D02*
D03*
Y412500D02*
D03*
Y407500D02*
D03*
Y402500D02*
D03*
Y397500D02*
D03*
Y392500D02*
D03*
Y387500D02*
D03*
X1126500D02*
D03*
Y392500D02*
D03*
Y397500D02*
D03*
Y402500D02*
D03*
Y407500D02*
D03*
Y412500D02*
D03*
Y417500D02*
D03*
Y422500D02*
D03*
D25*
X999500Y291500D02*
D03*
X1004500D02*
D03*
X1009500D02*
D03*
X1014500D02*
D03*
X1019500D02*
D03*
X1024500D02*
D03*
X1029500D02*
D03*
X1034500D02*
D03*
Y340500D02*
D03*
X1029500D02*
D03*
X1024500D02*
D03*
X1019500D02*
D03*
X1014500D02*
D03*
X1009500D02*
D03*
X1004500D02*
D03*
X999500D02*
D03*
X1119500Y429500D02*
D03*
X1114500D02*
D03*
X1109500D02*
D03*
X1104500D02*
D03*
X1099500D02*
D03*
X1094500D02*
D03*
X1089500D02*
D03*
X1084500D02*
D03*
Y380500D02*
D03*
X1089500D02*
D03*
X1094500D02*
D03*
X1099500D02*
D03*
X1104500D02*
D03*
X1109500D02*
D03*
X1114500D02*
D03*
X1119500D02*
D03*
D26*
X1102000Y405000D02*
D03*
D27*
X1072000Y532750D02*
D03*
Y526250D02*
D03*
Y519750D02*
D03*
Y513250D02*
D03*
X1110000Y532750D02*
D03*
Y526250D02*
D03*
Y519750D02*
D03*
Y513250D02*
D03*
D28*
X634000Y761000D02*
D03*
Y756000D02*
D03*
Y751000D02*
D03*
Y746000D02*
D03*
Y741000D02*
D03*
Y736000D02*
D03*
Y731000D02*
D03*
Y726000D02*
D03*
Y721000D02*
D03*
X690000D02*
D03*
Y726000D02*
D03*
Y731000D02*
D03*
Y736000D02*
D03*
Y741000D02*
D03*
Y746000D02*
D03*
Y751000D02*
D03*
Y756000D02*
D03*
Y761000D02*
D03*
D29*
X642000Y713000D02*
D03*
X647000D02*
D03*
X652000D02*
D03*
X657000D02*
D03*
X662000D02*
D03*
X667000D02*
D03*
X672000D02*
D03*
X677000D02*
D03*
X682000D02*
D03*
Y769000D02*
D03*
X677000D02*
D03*
X672000D02*
D03*
X667000D02*
D03*
X662000D02*
D03*
X657000D02*
D03*
X652000D02*
D03*
X647000D02*
D03*
X642000D02*
D03*
D30*
X662000Y741000D02*
D03*
D31*
X627500Y224500D02*
D03*
Y229500D02*
D03*
Y234500D02*
D03*
Y239500D02*
D03*
Y244500D02*
D03*
Y249500D02*
D03*
X666500D02*
D03*
Y244500D02*
D03*
Y239500D02*
D03*
Y234500D02*
D03*
Y229500D02*
D03*
Y224500D02*
D03*
D32*
X634500Y256500D02*
D03*
X639500D02*
D03*
X644500D02*
D03*
X649500D02*
D03*
X654500D02*
D03*
X659500D02*
D03*
Y217500D02*
D03*
X654500D02*
D03*
X649500D02*
D03*
X644500D02*
D03*
X639500D02*
D03*
X634500D02*
D03*
D33*
X647000Y237000D02*
D03*
D34*
X1063500Y567500D02*
D03*
Y586500D02*
D03*
X1036500Y567500D02*
D03*
Y577000D02*
D03*
Y586500D02*
D03*
X1200500Y552500D02*
D03*
Y571500D02*
D03*
X1173500Y552500D02*
D03*
Y562000D02*
D03*
Y571500D02*
D03*
D35*
X268000Y653950D02*
D03*
Y666650D02*
D03*
Y679350D02*
D03*
Y692050D02*
D03*
X212000Y653950D02*
D03*
Y666650D02*
D03*
Y679350D02*
D03*
Y692050D02*
D03*
X1156000Y601950D02*
D03*
Y614650D02*
D03*
Y627350D02*
D03*
Y640050D02*
D03*
X1100000Y601950D02*
D03*
Y614650D02*
D03*
Y627350D02*
D03*
Y640050D02*
D03*
X1109000Y707950D02*
D03*
Y720650D02*
D03*
Y733350D02*
D03*
Y746050D02*
D03*
X1053000Y707950D02*
D03*
Y720650D02*
D03*
Y733350D02*
D03*
Y746050D02*
D03*
X1109000Y801950D02*
D03*
Y814650D02*
D03*
Y827350D02*
D03*
Y840050D02*
D03*
X1053000Y801950D02*
D03*
Y814650D02*
D03*
Y827350D02*
D03*
Y840050D02*
D03*
D36*
X734950Y735000D02*
D03*
X747650D02*
D03*
X760350D02*
D03*
X773050D02*
D03*
X734950Y791000D02*
D03*
X747650D02*
D03*
X760350D02*
D03*
X773050D02*
D03*
D37*
X726500Y250500D02*
D03*
Y237500D02*
D03*
X745500Y244000D02*
D03*
X774500Y250500D02*
D03*
Y237500D02*
D03*
X793500Y244000D02*
D03*
D38*
X460500Y82500D02*
D03*
X447500D02*
D03*
X454000Y63500D02*
D03*
D39*
X16000Y92000D02*
D03*
X1139000Y1077000D02*
D03*
X1241000Y60000D02*
D03*
X113000Y1064000D02*
D03*
D40*
X680500Y816000D02*
D03*
X637500D02*
D03*
D41*
X733000Y901500D02*
D03*
X738000D02*
D03*
X743000D02*
D03*
X748000D02*
D03*
X753000D02*
D03*
X758000D02*
D03*
X763000D02*
D03*
X768000D02*
D03*
X773000D02*
D03*
X778000D02*
D03*
X783000D02*
D03*
X788000D02*
D03*
X793000D02*
D03*
X798000D02*
D03*
X803000D02*
D03*
X808000D02*
D03*
X813000D02*
D03*
X818000D02*
D03*
X823000D02*
D03*
X733000Y958500D02*
D03*
X738000D02*
D03*
X743000D02*
D03*
X748000D02*
D03*
X753000D02*
D03*
X758000D02*
D03*
X763000D02*
D03*
X768000D02*
D03*
X773000D02*
D03*
X778000D02*
D03*
X783000D02*
D03*
X788000D02*
D03*
X793000D02*
D03*
X798000D02*
D03*
X803000D02*
D03*
X808000D02*
D03*
X813000D02*
D03*
X818000D02*
D03*
X823000D02*
D03*
D42*
X541000Y35000D02*
D03*
Y19000D02*
D03*
X477000Y35000D02*
D03*
Y19000D02*
D03*
X460000Y1063000D02*
D03*
Y1079000D02*
D03*
X565000Y35000D02*
D03*
Y19000D02*
D03*
X521000Y35000D02*
D03*
Y19000D02*
D03*
X501000Y35000D02*
D03*
Y19000D02*
D03*
X486000Y308500D02*
D03*
Y293500D02*
D03*
X591000Y161500D02*
D03*
Y176500D02*
D03*
X988000Y396000D02*
D03*
Y411000D02*
D03*
X512000Y367500D02*
D03*
Y352500D02*
D03*
X75000Y678500D02*
D03*
Y663500D02*
D03*
D43*
X231750Y804000D02*
D03*
Y796000D02*
D03*
X250250Y804000D02*
D03*
Y796000D02*
D03*
X93750Y747000D02*
D03*
Y739000D02*
D03*
X112250Y747000D02*
D03*
Y739000D02*
D03*
X891500Y479500D02*
D03*
Y486000D02*
D03*
Y492500D02*
D03*
X872500Y479500D02*
D03*
Y492500D02*
D03*
X664500Y487500D02*
D03*
Y481000D02*
D03*
Y474500D02*
D03*
X683500Y487500D02*
D03*
Y474500D02*
D03*
D44*
X72500Y717000D02*
D03*
D45*
Y699000D02*
D03*
X92500Y719000D02*
D03*
Y699000D02*
D03*
D46*
X876000Y937808D02*
D03*
Y962192D02*
D03*
D47*
X907000Y578000D02*
D03*
X897000D02*
D03*
X1293000Y229000D02*
D03*
X1303000D02*
D03*
X654000Y790000D02*
D03*
X664000D02*
D03*
X515000Y385000D02*
D03*
X525000D02*
D03*
X788000Y610000D02*
D03*
X778000D02*
D03*
X1122000Y183000D02*
D03*
X1132000D02*
D03*
X1009000Y246000D02*
D03*
X1019000D02*
D03*
X995000D02*
D03*
X985000D02*
D03*
X1074000Y196000D02*
D03*
X1084000D02*
D03*
X1060000D02*
D03*
X1050000D02*
D03*
X1084000Y225000D02*
D03*
X1074000D02*
D03*
X1050000D02*
D03*
X1060000D02*
D03*
X914000Y198000D02*
D03*
X924000D02*
D03*
X900000D02*
D03*
X890000D02*
D03*
X922000Y283000D02*
D03*
X932000D02*
D03*
X908000D02*
D03*
X898000D02*
D03*
X708000Y718000D02*
D03*
X718000D02*
D03*
X708000Y812000D02*
D03*
X718000D02*
D03*
X708000Y734000D02*
D03*
X718000D02*
D03*
X708000Y750000D02*
D03*
X718000D02*
D03*
X708000Y828000D02*
D03*
X718000D02*
D03*
X708000Y780000D02*
D03*
X718000D02*
D03*
X718000Y702000D02*
D03*
X708000D02*
D03*
X739000Y702000D02*
D03*
X749000D02*
D03*
X739000Y718000D02*
D03*
X749000D02*
D03*
X528000Y790000D02*
D03*
X518000D02*
D03*
X508000D02*
D03*
X518000D02*
D03*
X528000Y804000D02*
D03*
X518000D02*
D03*
X508000D02*
D03*
X518000D02*
D03*
X1163000Y655000D02*
D03*
X1173000D02*
D03*
X871000Y919000D02*
D03*
X881000D02*
D03*
X853000Y919000D02*
D03*
X843000D02*
D03*
X853000Y934000D02*
D03*
X843000D02*
D03*
X843000Y962000D02*
D03*
X853000D02*
D03*
X1184000Y323000D02*
D03*
X1174000D02*
D03*
X1184000Y307000D02*
D03*
X1174000D02*
D03*
X1174000Y339000D02*
D03*
X1184000D02*
D03*
X1142000Y480000D02*
D03*
X1152000D02*
D03*
X1112000D02*
D03*
X1122000D02*
D03*
X964000Y379500D02*
D03*
X954000D02*
D03*
X988000D02*
D03*
X978000D02*
D03*
X965000Y324000D02*
D03*
X975000D02*
D03*
X540000Y385000D02*
D03*
X550000D02*
D03*
X718000Y796000D02*
D03*
X708000D02*
D03*
X723000Y198000D02*
D03*
X733000D02*
D03*
X608000D02*
D03*
X618000D02*
D03*
X585000D02*
D03*
X595000D02*
D03*
X631000Y198000D02*
D03*
X641000D02*
D03*
X654000Y198000D02*
D03*
X664000D02*
D03*
X700000D02*
D03*
X710000D02*
D03*
X677000D02*
D03*
X687000D02*
D03*
X382000Y344000D02*
D03*
X372000D02*
D03*
D48*
X1139000Y520750D02*
D03*
Y514250D02*
D03*
Y507750D02*
D03*
Y501250D02*
D03*
X1173000Y520750D02*
D03*
Y514250D02*
D03*
Y507750D02*
D03*
Y501250D02*
D03*
D49*
X258200Y734000D02*
D03*
X195800D02*
D03*
X262200Y935000D02*
D03*
X199800D02*
D03*
X1238200Y420000D02*
D03*
X1175800D02*
D03*
X689200Y331000D02*
D03*
X626800D02*
D03*
X785200D02*
D03*
X722800D02*
D03*
X339200Y307000D02*
D03*
X276800D02*
D03*
X435200D02*
D03*
X372800D02*
D03*
X992200Y534000D02*
D03*
X929800D02*
D03*
D50*
X675000Y915200D02*
D03*
Y852800D02*
D03*
Y1035200D02*
D03*
Y972800D02*
D03*
D51*
X1138000Y951500D02*
D03*
Y920500D02*
D03*
X787000Y524500D02*
D03*
Y555500D02*
D03*
X1234000Y597500D02*
D03*
Y628500D02*
D03*
D52*
X913500Y729000D02*
D03*
X944500D02*
D03*
X913500Y754000D02*
D03*
X944500D02*
D03*
X913500Y779000D02*
D03*
X944500D02*
D03*
X913500Y855000D02*
D03*
X944500D02*
D03*
X913500Y805000D02*
D03*
X944500D02*
D03*
X913500Y830000D02*
D03*
X944500D02*
D03*
X1051500Y686000D02*
D03*
X1082500D02*
D03*
X1052500Y780000D02*
D03*
X1083500D02*
D03*
D53*
X1214500Y870000D02*
D03*
X1195500D02*
D03*
D54*
X112000Y122500D02*
D03*
Y103500D02*
D03*
D55*
X1077500Y298000D02*
D03*
X1062500D02*
D03*
X978500Y362000D02*
D03*
X963500D02*
D03*
X963500Y344000D02*
D03*
X978500D02*
D03*
X1209500Y461000D02*
D03*
X1224500D02*
D03*
X579500Y304000D02*
D03*
X594500D02*
D03*
X1076500Y316000D02*
D03*
X1091500D02*
D03*
X1185500Y255000D02*
D03*
X1170500D02*
D03*
X1163500Y375000D02*
D03*
X1148500D02*
D03*
X1094500Y479000D02*
D03*
X1079500D02*
D03*
X1148500Y357000D02*
D03*
X1163500D02*
D03*
D56*
X1045000Y603000D02*
D03*
X1055000D02*
D03*
X1156000Y182000D02*
D03*
X1146000D02*
D03*
X1084000D02*
D03*
X1074000D02*
D03*
X1050000D02*
D03*
X1060000D02*
D03*
X1266000Y366000D02*
D03*
X1256000D02*
D03*
X1245000Y865000D02*
D03*
X1235000D02*
D03*
X674000Y502000D02*
D03*
X684000D02*
D03*
X1086000Y496000D02*
D03*
X1096000D02*
D03*
X613000Y238000D02*
D03*
X603000D02*
D03*
X1146000Y168000D02*
D03*
X1156000D02*
D03*
X1132000D02*
D03*
X1122000D02*
D03*
X1132000Y198000D02*
D03*
X1122000D02*
D03*
X1035000Y168000D02*
D03*
X1025000D02*
D03*
X1001000D02*
D03*
X1011000D02*
D03*
X1025000Y206000D02*
D03*
X1035000D02*
D03*
X1011000D02*
D03*
X1001000D02*
D03*
X1084000Y168000D02*
D03*
X1074000D02*
D03*
X1050000D02*
D03*
X1060000D02*
D03*
X1084000Y239000D02*
D03*
X1074000D02*
D03*
X1050000D02*
D03*
X1060000D02*
D03*
X1074000Y210000D02*
D03*
X1084000D02*
D03*
X1060000D02*
D03*
X1050000D02*
D03*
X965000Y309000D02*
D03*
X975000D02*
D03*
X1015000Y360000D02*
D03*
X1005000D02*
D03*
X932000Y254000D02*
D03*
X922000D02*
D03*
X898000D02*
D03*
X908000D02*
D03*
X932000Y268000D02*
D03*
X922000D02*
D03*
X898000D02*
D03*
X908000D02*
D03*
X853000Y948000D02*
D03*
X843000D02*
D03*
X677000Y791000D02*
D03*
X687000D02*
D03*
X641000D02*
D03*
X631000D02*
D03*
X718000Y765000D02*
D03*
X708000D02*
D03*
X199000Y770000D02*
D03*
X189000D02*
D03*
X596000Y912000D02*
D03*
X606000D02*
D03*
X758000Y808000D02*
D03*
X748000D02*
D03*
X44000Y745000D02*
D03*
X54000D02*
D03*
X1182000Y589000D02*
D03*
X1192000D02*
D03*
X721000Y884000D02*
D03*
X731000D02*
D03*
X1186000Y284000D02*
D03*
X1176000D02*
D03*
X1209000Y324000D02*
D03*
X1199000D02*
D03*
X1056000Y423000D02*
D03*
X1046000D02*
D03*
X1056000Y381000D02*
D03*
X1046000D02*
D03*
X1256000Y380000D02*
D03*
X1266000D02*
D03*
X1046000Y395000D02*
D03*
X1056000D02*
D03*
X1046000Y409000D02*
D03*
X1056000D02*
D03*
X1046000Y437000D02*
D03*
X1056000D02*
D03*
X1176000Y271000D02*
D03*
X1186000D02*
D03*
X942000Y445000D02*
D03*
X952000D02*
D03*
X724000Y368000D02*
D03*
X734000D02*
D03*
X559000Y324000D02*
D03*
X549000D02*
D03*
X240000Y329000D02*
D03*
X230000D02*
D03*
X229000Y304000D02*
D03*
X239000D02*
D03*
X907000Y593000D02*
D03*
X897000D02*
D03*
X324000Y343000D02*
D03*
X334000D02*
D03*
X257000Y263000D02*
D03*
X267000D02*
D03*
X798000Y373000D02*
D03*
X808000D02*
D03*
X641000Y292000D02*
D03*
X631000D02*
D03*
X702000Y368000D02*
D03*
X692000D02*
D03*
X612000Y367000D02*
D03*
X602000D02*
D03*
X444000Y344000D02*
D03*
X454000D02*
D03*
X277000Y343000D02*
D03*
X287000D02*
D03*
D57*
X1229000Y350000D02*
D03*
Y360000D02*
D03*
X1092000Y358000D02*
D03*
Y348000D02*
D03*
X1229000Y228000D02*
D03*
Y218000D02*
D03*
X1106000Y358000D02*
D03*
Y348000D02*
D03*
X1025000Y182000D02*
D03*
Y192000D02*
D03*
X1011000Y182000D02*
D03*
Y192000D02*
D03*
X914000Y173000D02*
D03*
Y183000D02*
D03*
X900000Y173000D02*
D03*
Y183000D02*
D03*
X859000Y489000D02*
D03*
Y479000D02*
D03*
X593000Y137000D02*
D03*
Y147000D02*
D03*
X1250000Y469000D02*
D03*
Y459000D02*
D03*
X1009000Y261000D02*
D03*
Y271000D02*
D03*
X995000Y261000D02*
D03*
Y271000D02*
D03*
X981000Y261000D02*
D03*
Y271000D02*
D03*
X949000Y322000D02*
D03*
Y332000D02*
D03*
Y296000D02*
D03*
Y306000D02*
D03*
X1061000Y324000D02*
D03*
Y314000D02*
D03*
X928000Y183000D02*
D03*
Y173000D02*
D03*
X886000Y183000D02*
D03*
Y173000D02*
D03*
X306000Y559000D02*
D03*
Y549000D02*
D03*
X193000Y677000D02*
D03*
Y667000D02*
D03*
X1175000Y604000D02*
D03*
Y614000D02*
D03*
Y627000D02*
D03*
Y637000D02*
D03*
X716000Y953000D02*
D03*
Y963000D02*
D03*
Y929000D02*
D03*
Y939000D02*
D03*
X717000Y902000D02*
D03*
Y912000D02*
D03*
X1273000Y268000D02*
D03*
Y278000D02*
D03*
X1064000Y460000D02*
D03*
Y450000D02*
D03*
X1092000Y460000D02*
D03*
Y450000D02*
D03*
X1078000Y460000D02*
D03*
Y450000D02*
D03*
X1064000Y354000D02*
D03*
Y364000D02*
D03*
X1050000Y354000D02*
D03*
Y364000D02*
D03*
X1273000Y302000D02*
D03*
Y292000D02*
D03*
X1152000Y550000D02*
D03*
Y540000D02*
D03*
X1215000Y350000D02*
D03*
Y360000D02*
D03*
X1078000Y348000D02*
D03*
Y358000D02*
D03*
X1215000Y228000D02*
D03*
Y218000D02*
D03*
X1134000Y348000D02*
D03*
Y358000D02*
D03*
X1147000Y400000D02*
D03*
Y390000D02*
D03*
X1120000Y348000D02*
D03*
Y358000D02*
D03*
X1106000Y460000D02*
D03*
Y450000D02*
D03*
X1147000Y432000D02*
D03*
Y422000D02*
D03*
X1273000Y244000D02*
D03*
Y254000D02*
D03*
X1259000Y334000D02*
D03*
Y324000D02*
D03*
X1245000Y334000D02*
D03*
Y324000D02*
D03*
X1259000Y229000D02*
D03*
Y239000D02*
D03*
X940000Y371000D02*
D03*
Y381000D02*
D03*
X986000Y426500D02*
D03*
Y436500D02*
D03*
X306000Y523000D02*
D03*
Y513000D02*
D03*
X572000Y355000D02*
D03*
Y345000D02*
D03*
Y376000D02*
D03*
Y386000D02*
D03*
X514000Y336000D02*
D03*
Y326000D02*
D03*
X592000Y687000D02*
D03*
Y677000D02*
D03*
X898000Y552000D02*
D03*
Y542000D02*
D03*
X605000Y674000D02*
D03*
Y684000D02*
D03*
X189000Y857000D02*
D03*
Y867000D02*
D03*
D58*
X748000Y991400D02*
D03*
X753000D02*
D03*
X758000D02*
D03*
X763000D02*
D03*
X768000D02*
D03*
X773000D02*
D03*
X778000D02*
D03*
X783000D02*
D03*
X788000D02*
D03*
X793000D02*
D03*
X798000D02*
D03*
X803000D02*
D03*
X808000D02*
D03*
X813000D02*
D03*
X818000D02*
D03*
X823000D02*
D03*
X828000D02*
D03*
X833000D02*
D03*
X838000D02*
D03*
D59*
X629000Y690850D02*
D03*
X638500Y667150D02*
D03*
X619500D02*
D03*
D60*
X558510Y357500D02*
D03*
Y352500D02*
D03*
X525490Y357500D02*
D03*
Y352500D02*
D03*
X939490Y410000D02*
D03*
Y415000D02*
D03*
X972510Y410000D02*
D03*
Y415000D02*
D03*
D61*
X542000Y355000D02*
D03*
X956000Y412500D02*
D03*
D62*
X552000Y369750D02*
D03*
X547000D02*
D03*
X542000D02*
D03*
X537000D02*
D03*
X532000D02*
D03*
X552000Y340250D02*
D03*
X547000D02*
D03*
X542000D02*
D03*
X537000D02*
D03*
X532000D02*
D03*
X946000Y397750D02*
D03*
X951000D02*
D03*
X956000D02*
D03*
X961000D02*
D03*
X966000D02*
D03*
X946000Y427250D02*
D03*
X951000D02*
D03*
X956000D02*
D03*
X961000D02*
D03*
X966000D02*
D03*
D63*
X187000Y784000D02*
D03*
D64*
X205000D02*
D03*
X185000Y804000D02*
D03*
X205000D02*
D03*
D65*
X387750Y360000D02*
D03*
X436750D02*
D03*
D66*
X450750Y487000D02*
D03*
X439750D02*
D03*
X428750D02*
D03*
X417750D02*
D03*
X406750D02*
D03*
X395750D02*
D03*
X384750D02*
D03*
X373750D02*
D03*
D67*
X357250Y359000D02*
D03*
D68*
X338250Y482000D02*
D03*
D69*
X471750Y482000D02*
D03*
D70*
X22000Y683500D02*
D03*
Y706500D02*
D03*
D71*
X48750Y682000D02*
D03*
Y688500D02*
D03*
Y695000D02*
D03*
Y701500D02*
D03*
Y708000D02*
D03*
D72*
X73000Y643700D02*
D03*
Y438200D02*
D03*
D73*
X280000Y600000D02*
D03*
Y587300D02*
D03*
Y574600D02*
D03*
Y561900D02*
D03*
Y549200D02*
D03*
Y536500D02*
D03*
Y523800D02*
D03*
Y511100D02*
D03*
D74*
X66500Y412500D02*
D03*
Y105000D02*
D03*
D75*
X105000Y377500D02*
D03*
Y365000D02*
D03*
Y352500D02*
D03*
Y340000D02*
D03*
Y327500D02*
D03*
Y315000D02*
D03*
Y302500D02*
D03*
Y290000D02*
D03*
Y277500D02*
D03*
Y265000D02*
D03*
Y252500D02*
D03*
Y240000D02*
D03*
Y227500D02*
D03*
Y215000D02*
D03*
Y202500D02*
D03*
Y190000D02*
D03*
Y177500D02*
D03*
Y165000D02*
D03*
Y152500D02*
D03*
Y140000D02*
D03*
D76*
X170464Y800750D02*
X192614D01*
X199750Y787250D02*
X212250D01*
X89250Y710250D02*
Y725114D01*
X67000Y695750D02*
X78000D01*
X992500Y1039693D02*
X994500D01*
X776000Y675500D02*
X776000D01*
X917000Y503000D02*
X933000Y487000D01*
X895000Y503000D02*
X917000D01*
X1041500Y333500D02*
X1046500D01*
X1049500Y336500D01*
X835000Y919000D02*
X843000D01*
X471500Y63500D02*
X477000Y58000D01*
Y35000D02*
Y58000D01*
X732000Y199000D02*
Y203000D01*
X726000Y209000D02*
X732000Y203000D01*
X716000Y209000D02*
X726000D01*
X1217000Y801000D02*
Y847000D01*
Y801000D02*
X1220000Y798000D01*
Y786000D02*
Y798000D01*
X1212929Y778929D02*
X1220000Y786000D01*
X1212929Y687929D02*
Y778929D01*
X1193000Y668000D02*
X1212929Y687929D01*
X1144000Y668000D02*
X1193000D01*
X1227500Y689500D02*
Y703300D01*
X1201000Y663000D02*
X1227500Y689500D01*
Y703300D02*
X1244200Y720000D01*
X1236000Y675000D02*
X1252000D01*
X1213000Y652000D02*
X1236000Y675000D01*
X1213000Y629000D02*
Y652000D01*
X1241000Y667000D02*
X1264000D01*
X1223500Y649500D02*
X1241000Y667000D01*
X1223500Y640500D02*
Y649500D01*
X1136000Y660000D02*
X1144000Y668000D01*
X87500Y678500D02*
X103000Y694000D01*
X430000Y196000D02*
X451500Y217500D01*
X421000Y202000D02*
X443000Y224000D01*
X314000Y202000D02*
X421000D01*
X437000Y232000D02*
X445929D01*
X416000Y211000D02*
X437000Y232000D01*
X333000Y211000D02*
X416000D01*
X270576Y233000D02*
X332000D01*
X248000Y255576D02*
Y262000D01*
Y255576D02*
X270576Y233000D01*
X201000Y309000D02*
X248000Y262000D01*
X310000Y365000D02*
Y371000D01*
X297000Y352000D02*
X310000Y365000D01*
X230000Y352000D02*
X297000D01*
X446000Y242000D02*
X458000Y254000D01*
X431000Y242000D02*
X446000D01*
X416000Y227000D02*
X431000Y242000D01*
X338000Y227000D02*
X416000D01*
X332000Y233000D02*
X338000Y227000D01*
X299000Y217000D02*
X314000Y202000D01*
X445929Y232000D02*
X499929Y286000D01*
X318000Y226000D02*
X333000Y211000D01*
X306000Y226000D02*
X318000D01*
X451500Y217500D02*
X458500D01*
X420000Y196000D02*
X430000D01*
X534000Y305000D02*
Y318000D01*
X499929Y286000D02*
X511000D01*
X502000Y261000D02*
X628000D01*
X458500Y217500D02*
X502000Y261000D01*
X911000Y549000D02*
Y556000D01*
X899500Y567500D02*
X911000Y556000D01*
X891000Y567500D02*
X899500D01*
X906000Y544000D02*
X911000Y549000D01*
X906000Y534000D02*
Y544000D01*
X872500Y500500D02*
X906000Y534000D01*
X995000Y581000D02*
X1000000Y576000D01*
X939343Y581000D02*
X995000D01*
X913000Y607343D02*
X939343Y581000D01*
X1000000Y588000D02*
X1005000Y583000D01*
X941000Y588000D02*
X1000000D01*
X920000Y609000D02*
X941000Y588000D01*
X1000000Y576000D02*
X1007000D01*
X71500Y678500D02*
X75000D01*
X61500Y688500D02*
X71500Y678500D01*
X48750Y688500D02*
X61500D01*
X103000Y694000D02*
X111000D01*
X618000Y101000D02*
X739000D01*
X604000Y115000D02*
X618000Y101000D01*
X592000Y115000D02*
X604000D01*
X171000Y231000D02*
Y261000D01*
Y220000D02*
Y231000D01*
X1143000Y642000D02*
X1149000Y648000D01*
X1143000Y600000D02*
Y642000D01*
X1104000Y561000D02*
X1143000Y600000D01*
X1101000Y571000D02*
X1136000Y606000D01*
X389750Y358000D02*
X390000Y357750D01*
Y350000D02*
Y357750D01*
X382000Y344000D02*
X384575D01*
X389396Y348821D02*
X389750D01*
X384575Y344000D02*
X389396Y348821D01*
X1078250Y657250D02*
X1133250D01*
X1136000Y660000D01*
X1056000Y635000D02*
X1078250Y657250D01*
X1127000Y665000D02*
X1148000Y686000D01*
X1207000Y850000D02*
X1210000Y853000D01*
X1207000Y798929D02*
Y850000D01*
X1204000Y795929D02*
X1207000Y798929D01*
X1204000Y689000D02*
Y795929D01*
X191000Y80000D02*
X283000D01*
X186000Y75000D02*
X191000Y80000D01*
X677000Y190000D02*
X683000Y184000D01*
X677000Y190000D02*
Y198000D01*
X911000Y364000D02*
X921000Y374000D01*
X893000Y364000D02*
X911000D01*
X841000Y312000D02*
X893000Y364000D01*
X832000Y319000D02*
X885000Y372000D01*
X911000D01*
X906150Y387000D02*
Y457850D01*
X897150Y378000D02*
X906150Y387000D01*
X886000Y378000D02*
X897150D01*
X817000Y328000D02*
X873000Y384000D01*
X683500Y383500D02*
X691000Y376000D01*
X683500Y383500D02*
Y474500D01*
X657000Y483000D02*
X659000Y481000D01*
X657000Y483000D02*
Y490000D01*
Y499000D01*
Y490000D02*
X659500Y487500D01*
X664500D01*
X675000Y517000D02*
X682000D01*
X657000Y499000D02*
X675000Y517000D01*
X682000D02*
X689000Y524000D01*
X1022000Y572000D02*
X1027000Y577000D01*
X1036500D01*
X1022000Y572000D02*
X1022000Y572000D01*
X1022000Y572000D02*
Y582000D01*
X1026500Y586500D01*
X1036500D01*
X1126500Y412500D02*
X1140500D01*
X1145500Y407500D01*
X920000Y609000D02*
Y619000D01*
X896500Y642500D02*
X920000Y619000D01*
X877900Y642500D02*
X896500D01*
X192000Y829000D02*
X202000Y839000D01*
X181000Y303000D02*
X230000Y352000D01*
X534000Y290000D02*
Y295000D01*
Y290000D02*
X545000Y279000D01*
X561000Y189000D02*
Y222000D01*
X555000Y183000D02*
X561000Y189000D01*
X514000Y183000D02*
X555000D01*
X510000Y187000D02*
X514000Y183000D01*
X471000Y187000D02*
X510000D01*
X452000Y168000D02*
X471000Y187000D01*
X213071Y168000D02*
X452000D01*
X169571Y211500D02*
X213071Y168000D01*
X171000Y220000D02*
X214000Y177000D01*
X165000Y216000D02*
X169500Y211500D01*
X169571D01*
X165000Y216000D02*
Y227000D01*
X1218000Y623000D02*
Y635000D01*
X1214000Y619000D02*
X1218000Y623000D01*
X1214000Y577000D02*
Y619000D01*
Y577000D02*
X1218000Y573000D01*
Y561000D02*
Y573000D01*
X937000Y924192D02*
X970308Y957500D01*
X937000Y908000D02*
Y924192D01*
X943500Y910692D02*
Y921500D01*
X949000Y927000D01*
X943500Y910692D02*
X948192Y906000D01*
X937000Y908000D02*
X945500Y899500D01*
X949000Y927000D02*
X954000D01*
X957000Y930000D01*
Y935000D01*
X1012692Y936500D02*
X1027500D01*
X1004950Y928758D02*
X1012692Y936500D01*
X1004950Y911000D02*
Y928758D01*
X1010000Y943000D02*
X1024808D01*
X998450Y931450D02*
X1010000Y943000D01*
X998450Y911000D02*
Y931450D01*
X900500Y934308D02*
X910308Y924500D01*
X921692D01*
X928750Y931558D01*
X913000Y931000D02*
X919000D01*
X922072Y934072D02*
X922250Y934250D01*
X919000Y931000D02*
X922072Y934072D01*
X907000Y937000D02*
X913000Y931000D01*
X957000Y935000D02*
X973000Y951000D01*
X1025000Y1022500D02*
X1026000Y1021500D01*
Y1010192D02*
Y1021500D01*
X998808Y983000D02*
X1026000Y1010192D01*
X973000Y951000D02*
Y951000D01*
X970308Y957500D02*
X986308D01*
X973000Y951000D02*
X989000D01*
X945500Y899500D02*
X959692D01*
X948192Y906000D02*
X957000D01*
X966850Y906658D02*
Y917000D01*
X960350Y909350D02*
Y917000D01*
X998808Y970000D02*
Y983000D01*
X986308Y957500D02*
X998808Y970000D01*
X1035100Y1010100D02*
Y1040300D01*
X1005308Y980308D02*
X1035100Y1010100D01*
X1005308Y967308D02*
Y980308D01*
X989000Y951000D02*
X1005308Y967308D01*
X959692Y899500D02*
X966850Y906658D01*
X957000Y906000D02*
X960350Y909350D01*
X980500Y1015500D02*
X986750Y1009250D01*
X973500Y1008500D02*
X979750Y1002250D01*
X980500Y1018500D02*
X990000Y1028000D01*
X907000Y945000D02*
X970500Y1008500D01*
X900500Y947692D02*
X992500Y1039693D01*
X1036550Y919742D02*
X1073308Y956500D01*
X1036550Y911000D02*
Y919742D01*
X1027500Y936500D02*
X1050500Y959500D01*
X986750Y1005250D02*
Y1009250D01*
X970500Y1008500D02*
X973500D01*
X980500Y1015500D02*
Y1018500D01*
X983750Y1002250D02*
X986750Y1005250D01*
X980500Y1015500D02*
X980500Y1015500D01*
X979750Y1002250D02*
X983750D01*
X928750Y931558D02*
Y938000D01*
X999200Y1028000D02*
X1004700Y1022500D01*
X990000Y1028000D02*
X999200D01*
X922250Y934250D02*
Y938000D01*
X900500Y934308D02*
Y947692D01*
X907000Y937000D02*
Y945000D01*
X1065600Y1031100D02*
X1068300Y1033800D01*
X1065600Y1022500D02*
Y1031100D01*
X1068300Y1033800D02*
X1074008D01*
X1087500Y1003236D02*
X1090000Y1005736D01*
X1094500Y996236D02*
X1097000Y998737D01*
X1074008Y1033800D02*
X1084500Y1023308D01*
X1087500Y999237D02*
Y1003236D01*
X1100000Y998737D02*
X1111000Y987737D01*
X1084500Y1014237D02*
X1090000Y1008736D01*
X1087500Y999237D02*
X1090500Y996236D01*
X1094500D01*
X1090000Y1005736D02*
Y1008736D01*
Y1008737D01*
X1097000Y998737D02*
X1100000D01*
X1020500Y960692D02*
X1030000Y951192D01*
X1023500Y967692D02*
X1027500D01*
X1037000Y958192D01*
X1020500Y960692D02*
Y964692D01*
X1030000Y948192D02*
Y951192D01*
X1044000Y962192D02*
Y969192D01*
X1040000Y958192D02*
X1044000Y962192D01*
Y969192D02*
X1047808Y973000D01*
X1050500Y959500D02*
Y966500D01*
X1067500Y983500D01*
X1047808Y973000D02*
Y976000D01*
X1055000Y1016192D02*
Y1026000D01*
X1045000Y1036000D02*
X1055000Y1026000D01*
X1045000Y1036000D02*
Y1045000D01*
X1040450Y1049550D02*
X1045000Y1045000D01*
X1025850Y1049550D02*
X1040450D01*
X1016600Y1040300D02*
X1025850Y1049550D01*
X1014800Y1040300D02*
X1016600D01*
X1024808Y943000D02*
X1030000Y948192D01*
X1020500Y964692D02*
X1023500Y967692D01*
X1037000Y958192D02*
X1037000Y958192D01*
X1037000Y958192D02*
X1040000D01*
X1040000D01*
X1057808Y983000D02*
X1057808D01*
X1054808D02*
X1057808D01*
X1061000Y986192D01*
X1038558Y985250D02*
Y989250D01*
X1045558Y992250D02*
X1054808Y983000D01*
X1038558Y985250D02*
X1047808Y976000D01*
X1041558Y992250D02*
X1045558D01*
X1061000Y986192D02*
Y1001000D01*
X1048500Y1013500D02*
X1061000Y1001000D01*
X1067500Y983500D02*
Y1003692D01*
X1055000Y1016192D02*
X1067500Y1003692D01*
X1048500Y1013500D02*
Y1019200D01*
X1045200Y1022500D02*
X1048500Y1019200D01*
X1054808Y983000D02*
X1054808Y983000D01*
X1038558Y989250D02*
X1041558Y992250D01*
X1084500Y1014237D02*
Y1023308D01*
X1091000Y1016929D02*
Y1026000D01*
X1076700Y1040300D02*
X1091000Y1026000D01*
X1055400Y1040300D02*
X1076700D01*
X1091000Y1016929D02*
X1117500Y990429D01*
X1103000Y950000D02*
X1117500Y964500D01*
Y990429D01*
X1111000Y967192D02*
Y987737D01*
X1100308Y956500D02*
X1111000Y967192D01*
X1073308Y956500D02*
X1100308D01*
X1076000Y950000D02*
X1103000D01*
X1043000Y917000D02*
X1076000Y950000D01*
X1043000Y911050D02*
Y917000D01*
X1011192Y657500D02*
X1022000Y646692D01*
Y632000D02*
Y646692D01*
X1008500Y651000D02*
X1015500Y644000D01*
Y632000D02*
Y644000D01*
X931692Y657500D02*
X1011192D01*
X1001000Y651000D02*
X1008500D01*
X999000Y649000D02*
X1001000Y651000D01*
X929000D02*
X987000D01*
X801500Y692500D02*
X816100D01*
X793500Y700500D02*
Y720000D01*
Y700500D02*
X801500Y692500D01*
X804500Y720000D02*
X807250Y717250D01*
Y713750D02*
Y717250D01*
X800000Y720000D02*
X804500D01*
Y711000D02*
X807250Y713750D01*
X800000Y703192D02*
X805693Y697500D01*
X816100D01*
X802000Y711000D02*
X804500D01*
X800000Y709000D02*
X802000Y711000D01*
X800000Y703192D02*
Y709000D01*
X785000Y723000D02*
X793000Y731000D01*
X785000Y718000D02*
Y723000D01*
X776000Y709000D02*
X785000Y718000D01*
X779000Y725000D02*
X786000Y732000D01*
X771000Y712000D02*
X779000Y720000D01*
Y725000D01*
X776000Y696000D02*
Y709000D01*
X999000Y645750D02*
Y649000D01*
X996000Y642750D02*
X999000Y645750D01*
X987000Y651000D02*
X989000Y649000D01*
Y645750D02*
Y649000D01*
Y645750D02*
X992000Y642750D01*
X996000D01*
X886500Y682500D02*
X887250Y683250D01*
X905942D01*
X877900Y682500D02*
X886500D01*
X905942Y683250D02*
X931692Y657500D01*
X886500Y677500D02*
X887250Y676750D01*
X903250D01*
X877900Y677500D02*
X886500D01*
X903250Y676750D02*
X929000Y651000D01*
X966308Y708500D02*
X1003697D01*
X941808Y673000D02*
X1003692D01*
X988000Y702000D02*
X1001005D01*
X944500Y679500D02*
X1001000D01*
X1003697Y708500D02*
X1014002Y698195D01*
X1003692Y673000D02*
X1014002Y683310D01*
X1001000Y679500D02*
X1007502Y686002D01*
X1001005Y702000D02*
X1007502Y695502D01*
Y686002D02*
Y695502D01*
X1014002Y683310D02*
Y698195D01*
X926000Y701000D02*
X932250Y707250D01*
X933000Y694000D02*
X939250Y700250D01*
X976000Y697250D02*
X979000Y694250D01*
X976000Y697250D02*
Y700000D01*
X979000Y694250D02*
X983000D01*
X986000Y697250D01*
Y700000D01*
X933000Y691000D02*
Y694000D01*
X939250Y700250D02*
Y704250D01*
X923000Y701000D02*
X926000D01*
X932250Y707250D02*
X936250D01*
X974000Y702000D02*
X976000Y700000D01*
X969000Y702000D02*
X974000D01*
X986000Y700000D02*
X988000Y702000D01*
X959500Y701692D02*
X966308Y708500D01*
X959500Y694500D02*
Y701692D01*
X903192Y705000D02*
X909808D01*
X890692Y692500D02*
X903192Y705000D01*
X877900Y692500D02*
X890692D01*
X966000Y699000D02*
X969000Y702000D01*
X966000Y694500D02*
Y699000D01*
X936250Y707250D02*
X939250Y704250D01*
X912500Y711500D02*
X923000Y701000D01*
X900500Y711500D02*
X912500D01*
X877900Y697500D02*
X886500D01*
X933000Y694000D02*
X933000Y694000D01*
Y691000D02*
X944500Y679500D01*
X886500Y697500D02*
X900500Y711500D01*
X909808Y705000D02*
X941808Y673000D01*
X832000Y677500D02*
X832500Y677000D01*
X816100Y677500D02*
X832000D01*
Y682500D02*
X832500Y683000D01*
X816100Y682500D02*
X832000D01*
X778000Y901500D02*
Y914071D01*
X778000Y914071D02*
X778000Y914071D01*
X773000Y945929D02*
Y958500D01*
X773000Y958500D02*
X773000Y958500D01*
X758000Y901500D02*
Y914071D01*
X793000Y945750D02*
Y958500D01*
X793000Y958500D01*
X779750Y915821D02*
Y949461D01*
Y863750D02*
Y890250D01*
X778000Y892000D02*
X779750Y890250D01*
X805500Y652500D02*
X816100D01*
X796000Y662000D02*
Y668000D01*
Y662000D02*
X805500Y652500D01*
X782500Y681500D02*
X796000Y668000D01*
X778000Y958500D02*
X778000Y958500D01*
Y951211D02*
X779750Y949461D01*
X778000Y914071D02*
X779750Y915821D01*
X762442Y846442D02*
X779750Y863750D01*
X778000Y951211D02*
Y958500D01*
X778000Y958500D02*
Y991400D01*
X778000Y892000D02*
Y901500D01*
X776000Y681500D02*
X782500D01*
X762442Y841442D02*
Y846442D01*
X788000Y951211D02*
Y958500D01*
Y901500D02*
Y914071D01*
Y958500D02*
Y991400D01*
Y892000D02*
Y901500D01*
X789500Y659308D02*
Y665308D01*
X801308Y647500D02*
X816100D01*
X789500Y659308D02*
X801308Y647500D01*
X786250Y949461D02*
X788000Y951211D01*
X786250Y915821D02*
Y949461D01*
Y890250D02*
X788000Y892000D01*
X786250Y915821D02*
X788000Y914071D01*
X786250Y861058D02*
Y890250D01*
X768942Y843750D02*
X786250Y861058D01*
X768942Y841442D02*
Y843750D01*
X779808Y675000D02*
X789500Y665308D01*
X776000Y675000D02*
X779808D01*
X803558Y870000D02*
X825808D01*
X833002Y852002D02*
Y862805D01*
X825808Y870000D02*
X833002Y862805D01*
X839502Y849310D02*
Y865498D01*
X828500Y876500D02*
X839502Y865498D01*
X806250Y876500D02*
X828500D01*
X786500Y839692D02*
X794808Y848000D01*
X786500Y832000D02*
Y839692D01*
X794808Y848000D02*
X829000D01*
X793000Y832000D02*
Y837000D01*
X797500Y841500D01*
X831692D01*
X829000Y848000D02*
X833002Y852002D01*
X831692Y841500D02*
X839502Y849310D01*
X794750Y967539D02*
Y975245D01*
X793000Y965789D02*
X794750Y967539D01*
X793000Y976994D02*
X794750Y975245D01*
Y911745D02*
Y944000D01*
X793000Y909995D02*
X794750Y911745D01*
X793000Y945750D02*
X794750Y944000D01*
X793000Y958500D02*
Y965789D01*
X793000Y976994D02*
Y991400D01*
X793000Y901500D02*
Y909995D01*
X794750Y878808D02*
Y887179D01*
Y878808D02*
X803558Y870000D01*
X793000Y888929D02*
X794750Y887179D01*
X793000Y888929D02*
Y901500D01*
X816100Y667500D02*
X827000D01*
X827500Y668000D01*
X803000Y948000D02*
Y958500D01*
X803000Y945750D02*
Y948000D01*
X803000Y901500D02*
X803000Y901500D01*
Y888750D02*
Y901500D01*
X803000Y958500D02*
Y965789D01*
X801250Y967539D02*
X803000Y965789D01*
Y948000D02*
X803000Y948000D01*
X801250Y944000D02*
X803000Y945750D01*
X803000Y976994D02*
Y991400D01*
X801250Y975245D02*
X803000Y976994D01*
X801250Y967539D02*
Y975245D01*
Y911745D02*
X803000Y909995D01*
X801250Y911745D02*
Y944000D01*
X803000Y901500D02*
Y909995D01*
X801250Y887000D02*
X803000Y888750D01*
X801250Y881500D02*
X806250Y876500D01*
X801250Y881500D02*
Y887000D01*
X827000Y662500D02*
X827500Y662000D01*
X816100Y662500D02*
X827000D01*
X735000Y860000D02*
Y865000D01*
X752692Y853500D02*
X762500Y863308D01*
X735000Y853500D02*
X752692D01*
X750000Y860000D02*
X756000Y866000D01*
Y875000D01*
X763000Y945929D02*
Y958500D01*
X763000Y958500D01*
X744000Y862500D02*
X746500Y860000D01*
X744000Y862500D02*
Y865000D01*
X746500Y860000D02*
X750000D01*
X741250Y867750D02*
X744000Y865000D01*
X762500Y872308D02*
X771250Y881058D01*
X762500Y863308D02*
Y872308D01*
X756000Y875000D02*
X764750Y883750D01*
X735000Y865000D02*
X737750Y867750D01*
X741250D01*
X764750Y911745D02*
Y944179D01*
X763000Y909995D02*
X764750Y911745D01*
X763000Y888750D02*
X764750Y887000D01*
Y883750D02*
Y887000D01*
X764750Y968745D02*
Y975245D01*
X763000Y958500D02*
Y966995D01*
Y888750D02*
Y901500D01*
Y909995D01*
X888800Y667500D02*
X889300Y668000D01*
X877900Y667500D02*
X888800D01*
X763000Y976994D02*
X764750Y975245D01*
X763000Y966995D02*
X764750Y968745D01*
X763000Y945929D02*
X764750Y944179D01*
X763000Y976994D02*
Y991400D01*
X773000Y888929D02*
Y901500D01*
X773000Y958500D02*
Y966995D01*
X773000Y976994D02*
Y991400D01*
X773000Y901500D02*
X773000Y901500D01*
X773000Y901500D02*
Y909995D01*
X888800Y662500D02*
X889300Y662000D01*
X877900Y662500D02*
X888800D01*
X771250Y944179D02*
X773000Y945929D01*
X771250Y887179D02*
X773000Y888929D01*
X771250Y968745D02*
Y975245D01*
Y968745D02*
X773000Y966995D01*
X771250Y975245D02*
X773000Y976994D01*
X771250Y911745D02*
X773000Y909995D01*
X771250Y911745D02*
Y944179D01*
Y881058D02*
Y887179D01*
X748000Y901500D02*
Y914071D01*
Y901500D02*
X748000Y901500D01*
Y949995D02*
Y958500D01*
Y991400D02*
Y991400D01*
Y958500D02*
Y991400D01*
X748000Y991400D02*
X748000Y991400D01*
X758000Y958500D02*
Y991400D01*
X895500Y651500D02*
X900000D01*
X891500Y647500D02*
X895500Y651500D01*
X877900Y647500D02*
X891500D01*
X758000Y949995D02*
Y958500D01*
X756250Y948245D02*
X758000Y949995D01*
X756250Y915821D02*
Y948245D01*
X758000Y893000D02*
Y901500D01*
X756250Y891250D02*
X758000Y893000D01*
X756250Y915821D02*
X758000Y914071D01*
X756250Y887000D02*
Y891250D01*
X892808Y658000D02*
X900000D01*
X887308Y652500D02*
X892808Y658000D01*
X877900Y652500D02*
X887308D01*
X749750Y915821D02*
Y948245D01*
X748000Y949995D02*
X749750Y948245D01*
X748000Y893000D02*
X749750Y891250D01*
X748000Y914071D02*
X749750Y915821D01*
Y887000D02*
Y891250D01*
X748000Y893000D02*
Y901500D01*
X793000Y731000D02*
Y753000D01*
X786000Y732000D02*
Y749000D01*
X703000Y642000D02*
X749000Y596000D01*
X682000Y642000D02*
X703000D01*
X678000Y638000D02*
X682000Y642000D01*
X617250Y720250D02*
X622750Y725750D01*
X614528Y720250D02*
X617250D01*
X224250Y802250D02*
X226000Y804000D01*
X217886Y802250D02*
X224250D01*
X212500Y796864D02*
X217886Y802250D01*
X227000Y796000D02*
X231750D01*
X219750Y797750D02*
X225250D01*
X227000Y796000D01*
X217000Y795000D02*
X219750Y797750D01*
X168600Y796250D02*
X190750D01*
X164000Y800850D02*
X168600Y796250D01*
X190750D02*
X199750Y787250D01*
X165864Y805350D02*
X170464Y800750D01*
X201614Y791750D02*
X210386D01*
X192614Y800750D02*
X201614Y791750D01*
X210386D02*
X212500Y793864D01*
Y796864D01*
X217000Y792000D02*
Y795000D01*
X212250Y787250D02*
X217000Y792000D01*
X459000Y683000D02*
X481000D01*
X452750Y676750D02*
X459000Y683000D01*
X452750Y659750D02*
Y676750D01*
X449000Y656000D02*
X452750Y659750D01*
X461692Y676500D02*
X469500D01*
X481000Y671500D02*
Y676500D01*
X478250Y668750D02*
X481000Y671500D01*
X469500Y676500D02*
X472000Y674000D01*
Y671500D02*
Y674000D01*
Y671500D02*
X474750Y668750D01*
X478250D01*
X459250Y674058D02*
X461692Y676500D01*
X459250Y659750D02*
Y674058D01*
Y659750D02*
X463000Y656000D01*
X562500Y677000D02*
X563000Y677500D01*
X573900D01*
X428000Y643000D02*
X431000Y646000D01*
X424000Y643000D02*
X428000D01*
X562500Y683000D02*
X563000Y682500D01*
X573900D01*
X420000Y649000D02*
X424000D01*
X417000Y646000D02*
X420000Y649000D01*
X585800Y667500D02*
X586300Y668000D01*
X573900Y667500D02*
X585800D01*
X452250Y649250D02*
X456000D01*
X449000Y646000D02*
X452250Y649250D01*
X585800Y662500D02*
X586300Y662000D01*
X573900Y662500D02*
X585800D01*
X459750Y642750D02*
X463000Y646000D01*
X456000Y642750D02*
X459750D01*
X457750Y494000D02*
X459000D01*
X450750Y487000D02*
X457750Y494000D01*
X393250Y580250D02*
X397750D01*
X387000Y586500D02*
X393250Y580250D01*
X397750D02*
X404000Y586500D01*
X462500D01*
X583250Y573250D02*
X591442D01*
X582500Y572500D02*
X583250Y573250D01*
X627500Y508308D02*
Y542692D01*
X573900Y572500D02*
X582500D01*
X378500Y522500D02*
Y530000D01*
X453308Y513500D02*
X460308Y506500D01*
X475308D01*
X378500Y522500D02*
X387500Y513500D01*
X453308D01*
X493308Y488500D02*
X607692D01*
X627500Y508308D01*
X475308Y506500D02*
X493308Y488500D01*
X114998Y240000D02*
X117998Y237000D01*
X131192D02*
X137192Y231000D01*
X105000Y240000D02*
X114998D01*
X137192Y231000D02*
X148000D01*
X117998Y237000D02*
X131192D01*
X583250Y566750D02*
X588750D01*
X582500Y567500D02*
X583250Y566750D01*
X588750D02*
X592500Y563000D01*
X573900Y567500D02*
X582500D01*
X592500Y563000D02*
X598000D01*
X621000Y540000D01*
X407000Y522000D02*
X409000Y520000D01*
X456000D01*
X400000Y528250D02*
X404000D01*
X407000Y525250D01*
X397000D02*
X400000Y528250D01*
X397000Y522000D02*
Y525250D01*
X407000Y522000D02*
Y525250D01*
X390192Y520000D02*
X395000D01*
X397000Y522000D01*
X621000Y511000D02*
Y540000D01*
X618000Y508000D02*
X621000Y511000D01*
X604750Y514250D02*
X608750D01*
X615000Y508000D01*
X618000D01*
X615000D02*
X615000Y508000D01*
X608000Y498000D02*
Y501000D01*
X605000Y495000D02*
X608000Y498000D01*
X601750Y511250D02*
X604750Y514250D01*
X478000Y513000D02*
X496000Y495000D01*
X456000Y520000D02*
X463000Y513000D01*
X601750Y507250D02*
Y511250D01*
Y507250D02*
X608000Y501000D01*
X463000Y513000D02*
X478000D01*
X496000Y495000D02*
X605000D01*
X385000Y525192D02*
Y530000D01*
Y525192D02*
X390192Y520000D01*
X117998Y230500D02*
X128500D01*
X134500Y224500D01*
X114998Y227500D02*
X117998Y230500D01*
X105000Y227500D02*
X114998D01*
X134500Y224500D02*
X148000D01*
X582500Y552500D02*
X583250Y551750D01*
X586900D01*
X573900Y552500D02*
X582500D01*
X586900Y551750D02*
X592000Y546650D01*
Y536000D02*
Y546650D01*
X574000Y537000D02*
X578000D01*
X392000Y544500D02*
X451500D01*
X459000Y537000D01*
X487000D01*
X584000Y531000D02*
X587000D01*
X592000Y536000D01*
X578000Y537000D02*
X584000Y531000D01*
X577000Y521000D02*
Y524000D01*
X572000Y516000D02*
X577000Y521000D01*
X571000Y530000D02*
X577000Y524000D01*
X571000Y534000D02*
X574000Y537000D01*
X487000D02*
X508000Y516000D01*
X571000Y530000D02*
Y534000D01*
X508000Y516000D02*
X572000D01*
X135692Y202000D02*
X154000D01*
X126692Y193000D02*
X135692Y202000D01*
X117998Y193000D02*
X126692D01*
X114998Y190000D02*
X117998Y193000D01*
X105000Y190000D02*
X114998D01*
X583250Y558250D02*
X589592D01*
X598500Y549342D01*
X582500Y557500D02*
X583250Y558250D01*
X573900Y557500D02*
X582500D01*
X598500Y533308D02*
Y549342D01*
X484308Y530500D02*
X505308Y509500D01*
X392000Y538000D02*
X448808D01*
X456308Y530500D01*
X484308D01*
X505308Y509500D02*
X574692D01*
X598500Y533308D01*
X133000Y208500D02*
X154000D01*
X124000Y199500D02*
X133000Y208500D01*
X117998Y199500D02*
X124000D01*
X105000Y202500D02*
X114998D01*
X117998Y199500D01*
X312000Y592000D02*
X322071D01*
X330000Y584071D01*
Y578499D02*
Y584071D01*
X117998Y305500D02*
X124000D01*
X114998Y302500D02*
X117998Y305500D01*
X105000Y302500D02*
X114998D01*
Y315000D02*
X117998Y312000D01*
X117998D02*
X124000D01*
X105000Y315000D02*
X114998D01*
X484942Y573250D02*
X502750D01*
X465192Y593000D02*
X484942Y573250D01*
X502750D02*
X503500Y572500D01*
X379808Y593000D02*
X465192D01*
X354904Y568096D02*
X379808Y593000D01*
X503500Y572500D02*
X512100D01*
X136000Y444000D02*
Y447000D01*
Y426502D02*
Y430000D01*
X134000Y442000D02*
X136000Y444000D01*
X130750Y442000D02*
X134000D01*
X127750Y439000D02*
X130750Y442000D01*
X134000Y432000D02*
X136000Y430000D01*
X130750Y432000D02*
X134000D01*
X132000Y422502D02*
X136000Y426502D01*
X127750Y435000D02*
X130750Y432000D01*
X113000Y422502D02*
X132000D01*
X127750Y435000D02*
Y439000D01*
X105192Y414695D02*
X113000Y422502D01*
X105192Y399810D02*
Y414695D01*
X130000Y392002D02*
X134000Y388002D01*
X113000Y392002D02*
X130000D01*
X134000Y378502D02*
Y388002D01*
X105192Y399810D02*
X113000Y392002D01*
X117998Y374500D02*
X129998D01*
X134000Y378502D01*
X105000Y377500D02*
X114998D01*
X117998Y374500D01*
X462500Y586500D02*
X482250Y566750D01*
X503500Y567500D02*
X512100D01*
X482250Y566750D02*
X502750D01*
X503500Y567500D01*
X382500Y586500D02*
X387000D01*
X359500Y563500D02*
X382500Y586500D01*
X142500Y423810D02*
Y447000D01*
X115692Y416002D02*
X134692D01*
X142500Y423810D01*
X115692Y398502D02*
X132692D01*
X140500Y390695D01*
X111692Y412002D02*
X115692Y416002D01*
X111692Y402502D02*
X115692Y398502D01*
X140500Y375810D02*
Y390695D01*
X132690Y368000D02*
X140500Y375810D01*
X117998Y368000D02*
X132690D01*
X114998Y365000D02*
X117998Y368000D01*
X111692Y402502D02*
Y412002D01*
X105000Y365000D02*
X114998D01*
X406000Y560404D02*
X408000Y562404D01*
X455404D01*
X389404D02*
X394000D01*
X385000Y558000D02*
X389404Y562404D01*
X394000D02*
X396000Y560404D01*
X466058Y551750D02*
X502750D01*
X406000Y557154D02*
Y560404D01*
X403000Y554154D02*
X406000Y557154D01*
X396000D02*
Y560404D01*
Y557154D02*
X399000Y554154D01*
X403000D01*
X455404Y562404D02*
X466058Y551750D01*
X468750Y558250D02*
X502750D01*
X458096Y568904D02*
X468750Y558250D01*
X386712Y568904D02*
X458096D01*
X497942Y588250D02*
X502750D01*
X468692Y617500D02*
X497942Y588250D01*
X380692Y617500D02*
X468692D01*
X495250Y581750D02*
X502750D01*
X466000Y611000D02*
X495250Y581750D01*
X378000Y611000D02*
X466000D01*
X385000Y554000D02*
Y558000D01*
X503500Y552500D02*
X512100D01*
X502750Y551750D02*
X503500Y552500D01*
X117998Y268000D02*
X126000D01*
X114998Y265000D02*
X117998Y268000D01*
X105000Y265000D02*
X114998D01*
X378500Y560692D02*
X386712Y568904D01*
X502750Y558250D02*
X503500Y557500D01*
X512100D01*
X378500Y554000D02*
Y560692D01*
X105000Y277500D02*
X114998D01*
X117998Y274500D01*
X126000D01*
X598500Y587500D02*
X609000Y598000D01*
X573900Y587500D02*
X598500D01*
X594500Y592500D02*
X607000Y605000D01*
X573900Y592500D02*
X594500D01*
X590500Y597500D02*
X604000Y611000D01*
X573900Y597500D02*
X590500D01*
X586500Y602500D02*
X601000Y617000D01*
X573900Y602500D02*
X586500D01*
X582500Y607500D02*
X598000Y623000D01*
X573900Y607500D02*
X582500D01*
X346000Y609000D02*
X354750D01*
X346000Y599000D02*
X354750D01*
X349308Y632500D02*
X365692D01*
X337500Y620692D02*
X349308Y632500D01*
X352000Y626000D02*
X363000D01*
X344000Y618000D02*
X352000Y626000D01*
X344000Y611000D02*
Y618000D01*
X363000Y626000D02*
X378000Y611000D01*
X344000D02*
X346000Y609000D01*
X354750D02*
X357750Y606000D01*
Y602000D02*
Y606000D01*
X354750Y599000D02*
X357750Y602000D01*
X344000Y597000D02*
X346000Y599000D01*
X344000Y593000D02*
Y597000D01*
X365692Y632500D02*
X380692Y617500D01*
X502750Y588250D02*
X503500Y587500D01*
X512100D01*
X337500Y590308D02*
Y620692D01*
Y590308D02*
X345308Y582500D01*
X352000D01*
X344000Y593000D02*
X348000Y589000D01*
X352000D01*
X503500Y582500D02*
X512100D01*
X502750Y581750D02*
X503500Y582500D01*
X165000Y266000D02*
X174000Y275000D01*
X165000Y227000D02*
Y266000D01*
X796500Y632500D02*
X816100D01*
X783000Y629000D02*
X793000D01*
X796500Y632500D01*
X659000Y693000D02*
X662071D01*
X681000Y674071D01*
Y674000D02*
X693000Y662000D01*
X681000Y674000D02*
Y674071D01*
X652000Y700000D02*
X659000Y693000D01*
X693000Y662000D02*
X742000D01*
X701000Y672000D02*
X742000D01*
X656500Y702786D02*
X661285Y698000D01*
X701000Y672000D02*
Y672000D01*
X693000Y680000D02*
X701000Y672000D01*
X682000Y680000D02*
X693000D01*
X664000Y698000D02*
X682000Y680000D01*
X661285Y698000D02*
X664000D01*
X672500Y698500D02*
Y707071D01*
X677000Y702000D02*
Y713000D01*
X563300Y637500D02*
X573900D01*
X1160000Y648000D02*
X1163000Y651000D01*
X1163000Y651000D02*
X1163000Y651000D01*
X1163000Y651000D02*
Y655000D01*
X1097000Y571000D02*
X1101000D01*
X1081000D02*
X1097000D01*
X1070500Y567500D02*
X1074000Y571000D01*
X732000Y199000D02*
X733000Y198000D01*
X641081Y270000D02*
X660081Y289000D01*
X639425Y276000D02*
X659425Y296000D01*
X583000Y276000D02*
X639425D01*
X657000Y278000D02*
X687000D01*
X644500Y265500D02*
X657000Y278000D01*
X644500Y262000D02*
Y265500D01*
X657833Y271833D02*
X683167D01*
X649500Y262000D02*
Y263500D01*
X657833Y271833D01*
X658417Y265667D02*
X679833D01*
X654500Y261750D02*
X658417Y265667D01*
X683167Y271833D02*
X699000Y256000D01*
X679833Y265667D02*
X691000Y254500D01*
X661000Y256500D02*
X666000D01*
X669000Y259500D02*
X678000D01*
X666000Y256500D02*
X669000Y259500D01*
X678000D02*
X683000Y254500D01*
X891500Y472500D02*
Y479500D01*
X466636Y764364D02*
X552636D01*
X1163500Y571500D02*
X1173500D01*
X1159000Y567000D02*
X1163500Y571500D01*
X1152000Y567000D02*
X1159000D01*
X654000Y377000D02*
X660000Y371000D01*
Y366000D02*
Y371000D01*
X638000Y377000D02*
X641071D01*
X652000Y366071D01*
Y366000D02*
Y366071D01*
X542000Y326000D02*
Y340250D01*
X534000Y318000D02*
X542000Y326000D01*
X552000Y334000D02*
Y337250D01*
Y334000D02*
X555000Y331000D01*
X518000Y295000D02*
X534000D01*
X514000Y195000D02*
X520000Y189000D01*
X800500Y627500D02*
X816100D01*
X805500Y622500D02*
X816100D01*
X561000Y231000D02*
X570000D01*
X913000Y607343D02*
Y616000D01*
X1051000Y555000D02*
X1067000D01*
X1223500Y305750D02*
Y329500D01*
X1213000Y332000D02*
X1218500Y326500D01*
X1193000Y332000D02*
X1213000D01*
X1229000Y317500D02*
Y320000D01*
Y317500D02*
X1233500Y313000D01*
X1199500Y298500D02*
X1206250D01*
X1191000Y307000D02*
X1199500Y298500D01*
X1170000Y239000D02*
X1186000D01*
X1190000D02*
X1196000Y245000D01*
Y261000D02*
Y267000D01*
Y245000D02*
Y261000D01*
X1170000Y239000D02*
X1170000Y239000D01*
X1186000D02*
X1190000D01*
X1198500Y263500D02*
X1206250D01*
X1197500Y268500D02*
X1206250D01*
X1223500Y246075D02*
Y256250D01*
X1218500Y305750D02*
Y326500D01*
X1184000Y323000D02*
X1193000Y332000D01*
X998500Y396000D02*
X1001000Y398500D01*
X1152000Y480000D02*
Y505000D01*
Y474000D02*
Y480000D01*
X1140000Y462000D02*
X1152000Y474000D01*
X1140000Y448000D02*
Y462000D01*
X1131343Y439343D02*
X1140000Y448000D01*
X1133000Y453000D02*
Y469000D01*
X1126000Y446000D02*
X1133000Y453000D01*
X1122000Y480000D02*
X1133000Y469000D01*
X1122000Y480000D02*
Y495000D01*
X1128250Y501250D02*
X1139000D01*
X1122000Y495000D02*
X1128250Y501250D01*
X1119000Y439343D02*
X1131343D01*
X1114500Y434843D02*
X1119000Y439343D01*
X1126500Y422500D02*
X1138500D01*
X1126500Y392500D02*
X1136000D01*
X1126500Y397500D02*
X1133500D01*
X330000Y576000D02*
X332000Y574000D01*
X330000Y576000D02*
Y578499D01*
X332000Y574000D02*
X336000D01*
X956000Y433000D02*
X961000Y438000D01*
Y453071D01*
X951000Y427250D02*
Y435000D01*
X921000Y422500D02*
X933000Y434500D01*
X803500Y567500D02*
X816100D01*
X795000Y576000D02*
X803500Y567500D01*
X800000Y588000D02*
X804500Y592500D01*
X800000Y579000D02*
Y588000D01*
X753000Y195000D02*
Y212000D01*
X772657Y47000D02*
X788000D01*
X780000Y34600D02*
X790600D01*
X767328Y41672D02*
X772657Y47000D01*
X767000Y54000D02*
Y96000D01*
X754600Y41600D02*
X767000Y54000D01*
X754600Y34600D02*
Y41600D01*
X597000Y81000D02*
X706000D01*
X579000Y99000D02*
X597000Y81000D01*
X460500Y82500D02*
X468500D01*
X521000Y35000D02*
Y47000D01*
X517000Y51000D02*
X521000Y47000D01*
X517000Y51000D02*
Y98000D01*
X541000Y35000D02*
Y44000D01*
X532000Y53000D02*
X541000Y44000D01*
X532000Y53000D02*
Y98000D01*
X547000Y53000D02*
X565000Y35000D01*
X547000Y53000D02*
Y98000D01*
X517000Y108000D02*
Y116929D01*
X498000Y123000D02*
X502000Y119000D01*
Y108000D02*
Y119000D01*
X395750Y473250D02*
Y487000D01*
X417750D02*
Y501250D01*
X718000Y796000D02*
X725000D01*
X718000Y796000D02*
X718000Y796000D01*
X876000Y930000D02*
X881000Y925000D01*
X876000Y930000D02*
Y937808D01*
X843000Y962000D02*
Y970000D01*
X838000Y975000D02*
X843000Y970000D01*
X830000Y944000D02*
X839000D01*
X818000Y947000D02*
X831000Y934000D01*
X843000D01*
X881000Y919000D02*
Y925000D01*
X871000Y914000D02*
Y919000D01*
X867000Y910000D02*
X871000Y914000D01*
X835000Y910000D02*
X867000D01*
X808000Y937000D02*
X835000Y910000D01*
X736000Y891000D02*
X738000Y893000D01*
Y901500D01*
X760350Y718350D02*
Y735000D01*
X749000Y702000D02*
Y707000D01*
X760350Y718350D01*
X764000Y703000D02*
Y712929D01*
X742000Y672000D02*
X771000Y701000D01*
Y712000D01*
X764000Y712929D02*
X773050Y721979D01*
X742000Y662000D02*
X776000Y696000D01*
X773050Y721979D02*
Y735000D01*
X781000Y754000D02*
X786000Y749000D01*
X752000Y754000D02*
X781000D01*
X747000Y761000D02*
X785000D01*
X793000Y753000D01*
X747650Y725000D02*
Y735000D01*
X749000Y718000D02*
Y723650D01*
X747650Y725000D02*
X749000Y723650D01*
Y699000D02*
Y702000D01*
X742000Y692000D02*
X749000Y699000D01*
X656500Y702786D02*
Y707071D01*
X652000Y700000D02*
Y713000D01*
X667000Y705000D02*
Y713000D01*
X700305Y709695D02*
X708000Y702000D01*
X700305Y709695D02*
Y718695D01*
X698000Y721000D02*
X700305Y718695D01*
X701500Y727000D02*
Y732500D01*
X708000Y718000D02*
Y720500D01*
X701500Y727000D02*
X708000Y720500D01*
X698000Y736000D02*
X701500Y732500D01*
X708000Y734000D02*
Y739000D01*
X718000Y828000D02*
Y836000D01*
X709000Y845000D02*
Y848000D01*
Y845000D02*
X718000Y836000D01*
X708000Y812000D02*
Y828000D01*
Y808071D02*
Y812000D01*
X701000Y788000D02*
Y801071D01*
X708000Y808071D01*
X708000Y791000D02*
X711000Y788000D01*
X714000D02*
X718000Y784000D01*
X711000Y788000D02*
X714000D01*
X718000Y780000D02*
Y784000D01*
Y776000D02*
Y780000D01*
X714000Y772000D02*
X718000Y776000D01*
X711000Y772000D02*
X714000D01*
X708000Y769000D02*
X711000Y772000D01*
X708000Y765000D02*
Y769000D01*
X690000Y756000D02*
X702000D01*
X708000Y762000D02*
Y765000D01*
X702000Y756000D02*
X708000Y762000D01*
X387750Y360000D02*
X389750Y358000D01*
X691000Y778000D02*
X701000Y788000D01*
X330998Y529000D02*
X352999Y506999D01*
X320000Y529000D02*
X330998D01*
X316000Y570000D02*
X319620Y566380D01*
X314000Y570000D02*
X316000D01*
X319620Y551620D02*
Y566380D01*
X305800Y537800D02*
X319620Y551620D01*
X293800Y537800D02*
X305800D01*
X626997Y731000D02*
X634000D01*
X626747Y731250D02*
X626997Y731000D01*
X579386Y731250D02*
X626747D01*
X647000Y769000D02*
Y775000D01*
X592386Y746250D02*
X626747D01*
X550772Y759864D02*
X579386Y731250D01*
X464772Y759864D02*
X550772D01*
X581250Y735750D02*
X626747D01*
X552636Y764364D02*
X581250Y735750D01*
X295000Y561900D02*
X311599Y578499D01*
X320000D01*
Y587000D01*
X330000Y578499D02*
X330000Y578499D01*
X294600Y574600D02*
X312000Y592000D01*
X226000Y804000D02*
X231750D01*
X160450Y805350D02*
X165864D01*
X150000Y815800D02*
X160450Y805350D01*
X160450Y800850D02*
X164000D01*
X150000Y790400D02*
X160450Y800850D01*
X113000Y694000D02*
X130000Y711000D01*
X111000Y694000D02*
X113000D01*
X877900Y567500D02*
X891000D01*
X280000Y561900D02*
X295000D01*
X280000Y536500D02*
X292500D01*
X293800Y537800D01*
X280000Y574600D02*
X294600D01*
X737000Y205000D02*
Y212000D01*
X733000Y198000D02*
X741000D01*
X711000Y247000D02*
Y254000D01*
X687000Y278000D02*
X711000Y254000D01*
X672000Y229500D02*
X683500D01*
X672000Y224500D02*
X679000D01*
X117500Y65500D02*
Y84500D01*
Y65500D02*
X130000Y53000D01*
Y50000D02*
Y53000D01*
X454000Y63500D02*
X471500D01*
X699000Y244500D02*
Y256000D01*
X672000Y239500D02*
X678000D01*
X683000Y244500D01*
X689000Y184000D02*
X702800Y170200D01*
Y155400D02*
Y170200D01*
X654000Y190000D02*
Y198000D01*
X650000Y176000D02*
X670000D01*
X677400Y168600D01*
X654000Y198000D02*
Y204000D01*
X690000Y142800D02*
X702800Y130000D01*
X677400Y155400D02*
Y168600D01*
X665000Y142400D02*
Y163000D01*
Y142400D02*
X677400Y130000D01*
X457000Y17000D02*
X469000D01*
X471000Y19000D01*
X478000D01*
X512100Y562500D02*
X532700D01*
X512100Y577500D02*
X532700D01*
X486500Y652500D02*
X512100D01*
X867300Y597500D02*
X877900D01*
Y562500D02*
X889600D01*
X512100Y597500D02*
X528700D01*
X512100Y592500D02*
X522700D01*
X1072000Y532750D02*
X1081000D01*
X557300Y642500D02*
X573900D01*
X808000Y901500D02*
Y912000D01*
X813000Y901500D02*
Y924000D01*
X818000Y901500D02*
Y918000D01*
X823000Y912000D02*
X823000Y912000D01*
X823000Y901500D02*
Y912000D01*
X867300Y657500D02*
X877900D01*
X1072000Y526250D02*
X1081000D01*
X891500Y637500D02*
X913000Y616000D01*
X877900Y637500D02*
X891500D01*
X484500Y627571D02*
X499429Y642500D01*
X512100D01*
X512100Y642500D01*
X484500Y627500D02*
Y627571D01*
X498000Y632500D02*
X512100D01*
X493000Y627500D02*
X498000Y632500D01*
X501500Y627500D02*
X512100D01*
X501500Y637500D02*
X512100D01*
X1034500Y340500D02*
Y346500D01*
X1036500Y348500D01*
X1024500Y340500D02*
Y348500D01*
X1041500Y328500D02*
X1049500D01*
X559300Y562500D02*
X573900D01*
X816100Y572500D02*
X832800D01*
X861200D02*
X877900D01*
X867300Y577500D02*
X877900D01*
X861200Y582500D02*
X877900D01*
X867300Y587500D02*
X877900D01*
X816100Y582500D02*
X832800D01*
X816100Y577500D02*
X826700D01*
X816100Y597500D02*
X826700D01*
X866200Y622500D02*
X877900D01*
Y632500D02*
X888500D01*
X860300Y627500D02*
X877900D01*
X512100Y672500D02*
X527700D01*
X512100Y667500D02*
X532700D01*
X495500Y612500D02*
X512100D01*
X501500Y607500D02*
X512100D01*
X557300Y612500D02*
X573900D01*
X498000Y662500D02*
X512100D01*
X493000Y657500D02*
X498000Y662500D01*
X501500Y657500D02*
X512100D01*
X144000Y711000D02*
X160000Y727000D01*
Y729000D01*
X130000Y711000D02*
X144000D01*
X738000Y949000D02*
Y958500D01*
X808000D02*
Y991400D01*
X808000Y991400D02*
X808000Y991400D01*
X818000Y971000D02*
Y991400D01*
X808000Y937000D02*
Y958500D01*
X813000Y975000D02*
Y991400D01*
X823000Y975000D02*
Y991400D01*
X823000Y951000D02*
Y958500D01*
Y951000D02*
X830000Y944000D01*
X839000D02*
X843000Y948000D01*
X843000Y948000D02*
X843000Y948000D01*
X843000Y949000D02*
Y962000D01*
X838000Y975000D02*
Y991400D01*
X662000Y769000D02*
Y774000D01*
X662000Y774000D01*
Y774429D01*
X661500Y774929D02*
X662000Y774429D01*
X657000Y769000D02*
Y774500D01*
X685000Y778000D02*
X691000D01*
X682000Y774929D02*
X684000Y776929D01*
Y777000D01*
X685000Y778000D01*
X682000Y769000D02*
Y774929D01*
X657000Y774500D02*
X657500Y775000D01*
X690000Y751000D02*
X707000D01*
X690000Y736000D02*
X698000D01*
X701000Y746000D02*
X708000Y739000D01*
X690000Y746000D02*
X701000D01*
X734950Y735000D02*
Y748950D01*
X642000Y705000D02*
Y713000D01*
X637500Y667150D02*
X648150D01*
X672000Y707571D02*
Y713000D01*
Y707571D02*
X672500Y707071D01*
X657000Y707571D02*
Y713000D01*
X656500Y707071D02*
X657000Y707571D01*
X682000Y705000D02*
Y713000D01*
X690000Y721000D02*
X698000D01*
X747650Y735000D02*
Y749650D01*
X708000Y791000D02*
Y796000D01*
X268000Y653950D02*
X277950D01*
X551300Y627500D02*
X573900D01*
X557300Y622500D02*
X573900D01*
X501500Y617500D02*
X512100D01*
Y622500D02*
X528700D01*
X1156000Y601950D02*
X1166950D01*
X1169000Y604000D01*
X1175000D01*
X1190000D01*
X1195000D01*
X1198000Y607000D01*
Y611000D01*
X1201000Y614000D01*
X1206000D01*
X1269600Y692600D02*
Y694600D01*
X1156000Y614650D02*
X1167350D01*
X1168000Y614000D01*
X1175000D01*
X1190000D01*
Y627000D01*
X1104000Y548000D02*
X1123000Y567000D01*
X1152000D01*
X1152000Y567000D01*
X1173500Y562000D02*
Y571500D01*
X1200500Y552500D02*
X1207500D01*
X1216000Y561000D01*
X1218000D01*
X1252000Y675000D02*
X1269600Y692600D01*
X1264000Y667000D02*
X1282000Y685000D01*
Y707600D01*
X1269600Y720000D02*
X1282000Y707600D01*
X1173000Y507750D02*
X1184750D01*
X1190000Y513000D02*
Y524000D01*
X1184750Y507750D02*
X1190000Y513000D01*
X1173000Y501250D02*
X1189250D01*
X1198000Y510000D02*
Y530000D01*
X1189250Y501250D02*
X1198000Y510000D01*
X1127250Y514250D02*
X1139000D01*
X1127250Y520750D02*
X1139000D01*
X1077500Y422500D02*
X1084500D01*
X1102000Y405000D01*
X1119500Y422500D02*
Y429500D01*
X1102000Y405000D02*
X1119500Y422500D01*
X1089500Y392500D02*
X1102000Y405000D01*
X1114500Y429500D02*
Y434843D01*
X1139000Y507750D02*
X1149250D01*
X1152000Y505000D01*
X1084500Y372500D02*
Y380500D01*
X1126500Y417500D02*
X1133500D01*
X1126500Y407500D02*
X1133500D01*
X1126500Y402500D02*
X1139500D01*
X1233500Y305750D02*
Y313000D01*
X1238500Y305750D02*
Y315500D01*
X1196000Y267000D02*
X1197500Y268500D01*
X1196000Y261000D02*
X1198500Y263500D01*
X1236000Y318000D02*
Y321000D01*
Y318000D02*
X1238500Y315500D01*
X1184000Y307000D02*
X1191000D01*
X1125500Y422500D02*
X1126500D01*
X986250Y397750D02*
X988000Y396000D01*
X1041500Y318500D02*
X1047500D01*
X1049500Y320500D01*
X1014500Y340500D02*
Y351500D01*
X946000Y427250D02*
Y431500D01*
X943000Y434500D02*
X946000Y431500D01*
X956000Y427250D02*
Y433000D01*
X956000D01*
X933000Y434500D02*
X943000D01*
X518000Y305000D02*
X526000D01*
X895000Y511000D02*
X920000D01*
X1045000Y513000D02*
Y537000D01*
X1056000Y548000D01*
X325000Y561749D02*
Y570000D01*
X105000Y352500D02*
X118500D01*
X105000Y340000D02*
X118500D01*
X171000Y261000D02*
X181000Y271000D01*
X174000Y275000D02*
Y307000D01*
X460000Y1079000D02*
X466000D01*
X471000Y1074000D01*
Y1040000D02*
Y1074000D01*
X1067000Y555000D02*
X1073000Y561000D01*
X1056000Y548000D02*
X1104000D01*
X1031000Y499000D02*
X1045000Y513000D01*
X893000Y616000D02*
Y628000D01*
X888500Y632500D02*
X893000Y628000D01*
X804500Y592500D02*
X816100D01*
X539000Y272000D02*
X544000Y267000D01*
X563000D01*
X628000Y261000D02*
X631000Y264000D01*
X576500Y224000D02*
X597000Y244500D01*
X570000Y231000D02*
X588500Y249500D01*
X563000Y224000D02*
X576500D01*
X551300Y617500D02*
X573900D01*
X373750Y487000D02*
Y497750D01*
X378000Y502000D01*
X390000D01*
X268000Y666650D02*
X276650D01*
X281000Y671000D01*
X549000Y747000D02*
Y752000D01*
X539000Y748000D02*
Y752000D01*
X824929Y657500D02*
X825429Y657000D01*
X816100Y657500D02*
X824929D01*
X825429Y657000D02*
X838000D01*
X867300Y687500D02*
X877900D01*
X855300Y672500D02*
X877900D01*
X805500Y602500D02*
X816100D01*
Y587500D02*
X826700D01*
X267950Y692000D02*
X268000Y692050D01*
X786000Y693000D02*
X791500Y687500D01*
X816100D01*
X747650Y749650D02*
X752000Y754000D01*
X734950Y748950D02*
X747000Y761000D01*
X1206000Y614000D02*
Y627000D01*
X1211000D01*
X1213000Y629000D01*
X439750Y473250D02*
Y487000D01*
X774500Y250500D02*
X781500D01*
X1022000Y513000D02*
Y572000D01*
X75000Y678500D02*
X87500D01*
X48750Y701500D02*
X56998D01*
X57998Y700500D01*
X257650Y679350D02*
X268000D01*
X229000Y708000D02*
Y715000D01*
Y708000D02*
X257650Y679350D01*
X626747Y746250D02*
X626997Y746000D01*
X634000D01*
X626747Y750750D02*
X626997Y751000D01*
X634000D01*
X535000Y733000D02*
X549000Y747000D01*
X291136Y797500D02*
X319864D01*
X250250Y796000D02*
X255998D01*
X257747Y797750D01*
X259750D02*
X261000Y796500D01*
X257747Y797750D02*
X259750D01*
X626747Y735750D02*
X626997Y736000D01*
X634000D01*
X257747Y802250D02*
X259750D01*
X255998Y804000D02*
X257747Y802250D01*
X259750D02*
X261000Y803500D01*
X250250Y804000D02*
X255998D01*
X450000Y733000D02*
X535000D01*
X372000Y726000D02*
Y748000D01*
X364000Y718000D02*
X372000Y726000D01*
X395000Y628000D02*
Y632000D01*
X399000Y636000D01*
X389000Y628000D02*
Y632000D01*
X385000Y636000D02*
X389000Y632000D01*
X385000Y656000D02*
X389000Y660000D01*
Y664000D01*
X395000Y660000D02*
X399000Y656000D01*
X395000Y660000D02*
Y664000D01*
X426250Y660750D02*
X431000Y656000D01*
X426250Y660750D02*
Y669250D01*
X435000Y667750D02*
Y670000D01*
X426250Y669250D02*
X428750Y671750D01*
X436750Y666000D02*
X441250D01*
X443000Y667750D01*
X435000D02*
X436750Y666000D01*
X443000Y667750D02*
Y671000D01*
X433250Y671750D02*
X435000Y670000D01*
X428750Y671750D02*
X433250D01*
X417000Y656000D02*
X421750Y660750D01*
Y671114D01*
X426886Y676250D01*
X440472D01*
X441222Y677000D01*
X443000D01*
X385000Y646000D02*
X388000Y649000D01*
X392000D01*
X481114Y699250D02*
X498114Y682250D01*
X503000D01*
X503250Y682500D01*
Y682500D02*
X512100D01*
X456778Y700000D02*
X457528Y699250D01*
X481114D01*
X455000Y700000D02*
X456778D01*
X392000Y643000D02*
X396000D01*
X399000Y646000D01*
X479250Y694750D02*
X496250Y677750D01*
X503000D01*
X503250Y677500D02*
X512100D01*
X503000Y677750D02*
X503250Y677500D01*
X455000Y694000D02*
X456778D01*
X457528Y694750D01*
X479250D01*
X459250Y628000D02*
Y632250D01*
X463000Y636000D01*
X449000D02*
X452750Y632250D01*
Y628000D02*
Y632250D01*
X421000Y628000D02*
Y632000D01*
X417000Y636000D02*
X421000Y632000D01*
X427000Y628000D02*
Y632000D01*
X431000Y636000D01*
X325000Y84000D02*
X396000D01*
X489000Y611000D02*
Y617500D01*
Y611000D02*
X497500Y602500D01*
X512100D01*
X368000Y469000D02*
X379000D01*
X384750Y474750D01*
Y487000D01*
X327000Y366000D02*
X342000D01*
X551500Y692000D02*
X552000Y692500D01*
X573900D01*
X551500Y698000D02*
X552000Y697500D01*
X573900D01*
X523000Y692500D02*
X523500Y692000D01*
X512100Y692500D02*
X523000D01*
X512100Y697500D02*
X523000D01*
X523500Y698000D01*
X254000Y382000D02*
X311000D01*
X327000Y366000D01*
X153000Y364600D02*
X156100Y367700D01*
X170892D01*
X186000Y382808D01*
Y391808D01*
X328808Y420000D02*
X365000D01*
X186000Y391808D02*
X230692Y436500D01*
X312308D02*
X328808Y420000D01*
X374404Y429404D02*
X440404D01*
X449308Y420500D01*
X230692Y436500D02*
X312308D01*
X365000Y420000D02*
X374404Y429404D01*
X449308Y420500D02*
X481500D01*
X522000Y461000D01*
X563000Y441250D02*
X568058D01*
X548000Y447250D02*
X552000D01*
X543000Y461000D02*
X545000Y459000D01*
X156100Y374200D02*
X168200D01*
X153000Y377300D02*
X156100Y374200D01*
X168200D02*
X179500Y385500D01*
Y394500D02*
X228000Y443000D01*
X179500Y385500D02*
Y394500D01*
X331500Y426500D02*
X362308D01*
X228000Y443000D02*
X315000D01*
X331500Y426500D01*
X443096Y435904D02*
X452000Y427000D01*
X478808D01*
X362308Y426500D02*
X371711Y435904D01*
X443096D01*
X478808Y427000D02*
X519308Y467500D01*
X563000Y434750D02*
X570750D01*
X522000Y461000D02*
X543000D01*
X545000Y450250D02*
X548000Y447250D01*
X552000D02*
X555000Y450250D01*
Y459000D02*
X557000Y461000D01*
X570750Y434750D02*
X579000Y443000D01*
Y457192D01*
X568058Y441250D02*
X572500Y445692D01*
X545000Y450250D02*
Y459000D01*
X555000Y450250D02*
Y459000D01*
X557000Y461000D02*
X566000D01*
X572500Y454500D01*
Y445692D02*
Y454500D01*
X519308Y467500D02*
X568692D01*
X579000Y457192D01*
X181000Y271000D02*
Y303000D01*
X174000Y307000D02*
X227000Y360000D01*
X592000Y464750D02*
X603058D01*
X592000Y471250D02*
X592000Y471250D01*
X605750D01*
X156100Y336100D02*
X165908D01*
X153000Y339200D02*
X156100Y336100D01*
X349000Y379000D02*
X463000D01*
X486000Y402000D01*
X165908Y336100D02*
X240308Y410500D01*
X323500Y404500D02*
X349000Y379000D01*
X313000Y404500D02*
X323500D01*
X486000Y402000D02*
X492808D01*
X240308Y410500D02*
X307000D01*
X313000Y404500D01*
X492808Y402000D02*
X507808Y417000D01*
X604000D01*
X601250Y438000D02*
X604250Y435000D01*
X601250Y442000D02*
X604250Y445000D01*
X601250Y438000D02*
Y442000D01*
X604000Y417000D02*
X615000Y428000D01*
Y433000D01*
X604250Y435000D02*
X613000D01*
X615000Y433000D01*
X604250Y445000D02*
X613000D01*
X615000Y447000D02*
Y452808D01*
X613000Y445000D02*
X615000Y447000D01*
X153000Y326500D02*
X156100Y329600D01*
X168600D01*
X243000Y404000D01*
X465692Y372500D02*
X488692Y395500D01*
X310308Y398000D02*
X320808D01*
X243000Y404000D02*
X304308D01*
X310308Y398000D01*
X346308Y372500D02*
X465692D01*
X320808Y398000D02*
X346308Y372500D01*
X488692Y395500D02*
X495500D01*
X510500Y410500D02*
X606692D01*
X495500Y395500D02*
X510500Y410500D01*
X606692D02*
X621500Y425308D01*
Y455500D01*
X603058Y464750D02*
X604058Y463750D01*
X605750Y471250D02*
X606750Y470250D01*
X604058Y463750D02*
X605404Y462404D01*
X615000Y452808D01*
X606750Y470250D02*
X608096Y468904D01*
X621500Y455500D01*
X672000Y244500D02*
X675000D01*
X656000Y210000D02*
X660000Y206000D01*
X639500Y211500D02*
Y212000D01*
X634000Y206000D02*
X639500Y211500D01*
X649500Y208500D02*
Y212000D01*
Y208500D02*
X654000Y204000D01*
X602000Y211000D02*
X632500D01*
X634500Y213000D01*
X618000Y203000D02*
X621000Y206000D01*
X618000Y198000D02*
Y203000D01*
X621000Y206000D02*
X634000D01*
X641000Y204500D02*
X644500Y208000D01*
X641000Y198000D02*
Y204500D01*
X644500Y208000D02*
Y212000D01*
X660000Y206000D02*
X673000D01*
X683000Y184000D02*
X689000D01*
X700000Y187000D02*
Y198000D01*
X683500Y229500D02*
X688000Y225000D01*
X707000Y218000D02*
X716000Y209000D01*
X685500Y218000D02*
X707000D01*
X679000Y224500D02*
X685500Y218000D01*
X693000Y212000D02*
X700000Y205000D01*
X662000Y212000D02*
X693000D01*
X700000Y198000D02*
Y205000D01*
X733000Y212000D02*
X737000D01*
X720000Y225000D02*
X733000Y212000D01*
X688000Y225000D02*
X720000D01*
X595000Y204000D02*
X602000Y211000D01*
X595000Y198000D02*
Y204000D01*
Y191000D02*
Y198000D01*
Y191000D02*
X630600Y155400D01*
X652000D01*
X716000Y142200D02*
X728200Y130000D01*
X716000Y142200D02*
Y171000D01*
X700000Y187000D02*
X716000Y171000D01*
X659000Y169000D02*
X665000Y163000D01*
X660000Y184000D02*
X674000D01*
X690000Y168000D01*
Y142800D02*
Y168000D01*
X654000Y190000D02*
X660000Y184000D01*
X618000Y186000D02*
Y198000D01*
Y186000D02*
X635000Y169000D01*
X659000D01*
X631000Y264000D02*
X636000D01*
X619000Y234500D02*
X622000D01*
X597000Y244500D02*
X622000D01*
X588500Y249500D02*
X622000D01*
X660081Y289000D02*
X700000D01*
X659425Y296000D02*
X704000D01*
X728000Y272000D01*
X745500Y237500D02*
X753000Y230000D01*
Y222000D02*
Y230000D01*
X745500Y237500D02*
Y244000D01*
X753000Y222000D02*
X769000D01*
X785000Y222000D02*
X801000D01*
X793500Y238500D02*
Y244000D01*
Y238500D02*
X801000Y231000D01*
Y222000D02*
Y231000D01*
X788000Y622000D02*
X792500Y617500D01*
X779000Y622000D02*
X788000D01*
X792500Y617500D02*
X816100D01*
X772000Y629000D02*
X779000Y622000D01*
X798000Y612500D02*
X816100D01*
X788000Y610000D02*
X795500D01*
X798000Y612500D01*
X795500Y622500D02*
X800500Y627500D01*
X857300Y617500D02*
X877900D01*
X526000Y123000D02*
X532000Y117000D01*
X518000Y123000D02*
X526000D01*
X532000Y108000D02*
Y117000D01*
X510929Y123000D02*
X517000Y116929D01*
X508000Y123000D02*
X510929D01*
X609000Y15000D02*
X795000D01*
X560000Y64000D02*
X609000Y15000D01*
X468500Y82500D02*
X490000Y104000D01*
Y123000D01*
X496000Y129000D01*
X436929Y92000D02*
X464000D01*
X406500Y74500D02*
X419429D01*
X436929Y92000D01*
X431000Y98000D02*
X457000D01*
X415657Y82657D02*
X431000Y98000D01*
X405000Y82657D02*
X415657D01*
X396000Y84000D02*
X402000Y90000D01*
X117500Y84500D02*
X133000Y100000D01*
X283000Y80000D02*
X287000Y76000D01*
X398343D01*
X405000Y82657D01*
X400000Y68000D02*
X406500Y74500D01*
X130000Y75400D02*
X148600D01*
X154000Y70000D01*
X282343D01*
X290343Y62000D01*
X308000D01*
X314000Y68000D01*
X400000D01*
X133000Y100000D02*
X410000D01*
X422000Y112000D01*
X449000D01*
X402000Y90000D02*
X412000D01*
X427000Y105000D01*
X454000D01*
X449000Y112000D02*
X458000Y121000D01*
Y144000D01*
X481000Y167000D01*
X454000Y105000D02*
X466000Y117000D01*
Y139000D01*
X486400Y159400D01*
X457000Y98000D02*
X474000Y115000D01*
Y136071D01*
X489729Y151800D01*
X464000Y92000D02*
X482000Y110000D01*
Y124000D01*
X494600Y136600D01*
X480000Y132000D02*
X492200Y144200D01*
X568000Y72633D02*
X619488Y21145D01*
X496000Y129000D02*
X542000D01*
X560000Y111000D01*
Y64000D02*
Y111000D01*
X540000Y123000D02*
X547000Y116000D01*
Y108000D02*
Y116000D01*
X494600Y136600D02*
X543400D01*
X568000Y112000D01*
Y72633D02*
Y112000D01*
X492200Y144200D02*
X544800D01*
X579000Y110000D01*
Y99000D02*
Y110000D01*
X486400Y159400D02*
X547600D01*
X592000Y115000D01*
X481000Y167000D02*
X549000D01*
X489729Y151800D02*
X546200D01*
X607000Y91000D01*
X593000Y123000D02*
X616000D01*
X549000Y167000D02*
X593000Y123000D01*
X616000D02*
X628000Y111000D01*
X706000Y81000D02*
X717000Y70000D01*
X607000Y91000D02*
X718000D01*
X729200Y79800D01*
Y60000D02*
Y79800D01*
X754600Y60000D02*
Y85400D01*
X739000Y101000D02*
X754600Y85400D01*
X717000Y46800D02*
X729200Y34600D01*
X717000Y46800D02*
Y70000D01*
X619488Y21145D02*
X760145D01*
X767328Y28328D01*
Y41672D01*
X788000Y47000D02*
X797000Y56000D01*
X790600Y34600D02*
X809000Y53000D01*
X795000Y15000D02*
X821000Y41000D01*
X767000Y96000D02*
X785000Y114000D01*
X753000Y195000D02*
X773000Y175000D01*
X628000Y111000D02*
X764000D01*
X773000Y120000D01*
Y175000D01*
X769000Y196000D02*
Y212000D01*
Y196000D02*
X785000Y180000D01*
Y114000D02*
Y180000D01*
X785000Y196000D02*
Y212000D01*
Y196000D02*
X797000Y184000D01*
Y56000D02*
Y184000D01*
X801000Y197000D02*
Y212000D01*
Y197000D02*
X809000Y189000D01*
Y53000D02*
Y189000D01*
X764500Y250500D02*
X774500D01*
X700000Y289000D02*
X727000Y262000D01*
X753000D01*
X764500Y250500D01*
X720500D02*
X726500D01*
X717000Y247000D02*
X720500Y250500D01*
X711000Y247000D02*
X717000D01*
X772000Y518000D02*
X782000Y508000D01*
X772000Y518000D02*
Y567000D01*
X781000Y576000D01*
X795000D01*
X787500Y642500D02*
X816100D01*
X785000Y645000D02*
X787500Y642500D01*
X782000Y508000D02*
X823000D01*
X844000Y487000D01*
X766000Y515000D02*
X780000Y501000D01*
X816000D02*
X831000Y486000D01*
X780000Y501000D02*
X816000D01*
X760000Y512000D02*
X778000Y494000D01*
X807000D01*
X826000Y462000D02*
Y475000D01*
X807000Y494000D02*
X826000Y475000D01*
X814000Y200000D02*
Y241000D01*
Y200000D02*
X821000Y193000D01*
Y41000D02*
Y193000D01*
X886000Y486000D02*
X891500D01*
X809000Y446000D02*
X879000D01*
X872500Y492500D02*
Y500500D01*
X692000Y376000D02*
X700000D01*
X706000Y382000D01*
X806000D01*
X691000Y376000D02*
X692000D01*
X728000Y272000D02*
X819000D01*
X921000Y374000D02*
Y422500D01*
X891500Y472500D02*
X906150Y457850D01*
X700000Y506000D02*
X703000Y509000D01*
X700000Y476000D02*
Y506000D01*
X710000Y477000D02*
X785000Y402000D01*
X700000Y476000D02*
X782000Y394000D01*
X719000Y484000D02*
X792000Y411000D01*
X725000Y488000D02*
X795000Y418000D01*
X734000Y494000D02*
X800000Y428000D01*
X878000D01*
X743000Y502000D02*
X807000Y438000D01*
X879000D01*
X749000Y506000D02*
X809000Y446000D01*
X874000Y418000D02*
X879000Y423000D01*
X795000Y418000D02*
X874000D01*
Y402000D02*
X879000Y407000D01*
X785000Y402000D02*
X874000D01*
X880000Y394000D02*
X885000Y399000D01*
X782000Y394000D02*
X880000D01*
X880000Y416000D02*
X885000D01*
X875000Y411000D02*
X880000Y416000D01*
X792000Y411000D02*
X875000D01*
X802500Y607500D02*
X802500Y607500D01*
X816100D01*
X594067Y570625D02*
X599567D01*
X627500Y542692D01*
X591442Y573250D02*
X594067Y570625D01*
X573900Y582500D02*
X642500D01*
X649000Y589000D01*
X573900Y577500D02*
X607000D01*
X725000Y488000D02*
Y575929D01*
X652000Y582000D02*
X686000D01*
X703000Y565000D01*
Y509000D02*
Y565000D01*
X649000Y589000D02*
X689000D01*
X710000Y568000D01*
Y477000D02*
Y568000D01*
X760000Y512000D02*
Y600000D01*
X754000Y606000D02*
X760000Y600000D01*
X749000Y506000D02*
Y596000D01*
X743000Y502000D02*
Y592000D01*
X676000Y668000D02*
Y672000D01*
X670000Y675000D02*
Y677000D01*
X606000Y663000D02*
X612000Y657000D01*
X652000D01*
X670000Y675000D01*
X658000Y650000D02*
X676000Y668000D01*
X705000Y630000D02*
X743000Y592000D01*
X573900Y632500D02*
X598500D01*
X616000Y650000D01*
X658000D01*
X598000Y623000D02*
X606000D01*
X601000Y617000D02*
X611000D01*
X624000Y630000D01*
X705000D01*
X604000Y611000D02*
X616000D01*
X781500Y250500D02*
X791000Y260000D01*
X933000Y487000D02*
X1007000D01*
X1109500Y429500D02*
Y436500D01*
X1119000Y446000D01*
X1126000D01*
X1104500Y429500D02*
Y438500D01*
X1121000Y455000D01*
X1218000Y635000D02*
X1223500Y640500D01*
X607000Y577500D02*
X610500Y574000D01*
X644000D01*
X652000Y582000D01*
X878000Y428000D02*
X889000Y439000D01*
Y446000D01*
X955071Y459000D02*
X961000Y453071D01*
X1029500Y340500D02*
Y350000D01*
X824000Y296000D02*
X832000Y304000D01*
X808000Y296000D02*
X824000D01*
X819000Y272000D02*
X841000Y294000D01*
X855500Y308500D02*
X891000Y344000D01*
X832000Y304000D02*
Y319000D01*
X841000Y294000D02*
Y312000D01*
X1073000Y561000D02*
X1104000D01*
X1149000Y648000D02*
X1160000D01*
X1175000Y637000D02*
Y646000D01*
X1173000Y648000D02*
X1175000Y646000D01*
X1173000Y648000D02*
Y655000D01*
X616000Y611000D02*
X621000Y616000D01*
X606000Y623000D02*
X621000Y638000D01*
X678000D01*
X609000Y598000D02*
X692000D01*
X719000Y571000D01*
Y484000D02*
Y571000D01*
X621000Y616000D02*
X706000D01*
X723000Y594000D02*
Y599000D01*
Y594000D02*
X734000Y583000D01*
Y494000D02*
Y583000D01*
X706000Y616000D02*
X723000Y599000D01*
X762000Y609000D02*
X766000Y605000D01*
Y515000D02*
Y605000D01*
X795000Y600000D02*
X802500Y607500D01*
X795000Y591000D02*
Y600000D01*
X803000Y598000D02*
Y600000D01*
X805500Y602500D01*
X573900Y647500D02*
X582750D01*
X583000Y647750D01*
X598772D01*
X599522Y647000D02*
X601300D01*
X598772Y647750D02*
X599522Y647000D01*
X314000Y660000D02*
X317000Y663000D01*
X310000Y660000D02*
X314000D01*
X582750Y652500D02*
X583000Y652250D01*
X598772D01*
X573900Y652500D02*
X582750D01*
X598772Y652250D02*
X599522Y653000D01*
X601300D01*
X303000Y663000D02*
Y663000D01*
X306000Y666000D01*
X310000D01*
X312250Y637528D02*
Y648250D01*
X313000Y635000D02*
Y636778D01*
X312250Y648250D02*
X317000Y653000D01*
X307000Y635000D02*
Y636778D01*
X307750Y637528D01*
X303000Y653000D02*
X307750Y648250D01*
X307750Y648250D01*
X307750Y637528D02*
Y648250D01*
Y648250D01*
X312250Y637528D02*
X312250Y637528D01*
X313000Y636778D01*
X307750Y637528D02*
X307750Y637528D01*
X312250Y677750D02*
Y721472D01*
Y677750D02*
X317000Y673000D01*
X312250Y721472D02*
X312250Y721472D01*
X313000Y722222D01*
Y724000D01*
X303000Y673000D02*
X307750Y677750D01*
Y721472D01*
X307000Y722222D02*
Y724000D01*
Y722222D02*
X307750Y721472D01*
X518000Y790000D02*
X521000Y793000D01*
Y797000D01*
X877900Y607500D02*
X886750D01*
X887000Y607250D02*
X890772D01*
X886750Y607500D02*
X887000Y607250D01*
X890772D02*
X891522Y608000D01*
X893300D01*
X515000Y797000D02*
Y801000D01*
X518000Y804000D01*
X877900Y602500D02*
X886750D01*
X887000Y602750D01*
X891522Y602000D02*
X893300D01*
X890772Y602750D02*
X891522Y602000D01*
X887000Y602750D02*
X890772D01*
X528000Y790000D02*
X532000Y794000D01*
X536000D01*
X667000Y769000D02*
Y776500D01*
X666500Y777000D02*
X667000Y776500D01*
X528000Y804000D02*
X532000Y800000D01*
X536000D01*
X672000Y776500D02*
X672500Y777000D01*
X672000Y769000D02*
Y776500D01*
X661500Y774929D02*
Y786500D01*
X112250Y739000D02*
X117998D01*
X118998Y740000D01*
X122000D01*
X112250Y747000D02*
X117998D01*
X118998Y746000D01*
X122000D01*
X490000Y794000D02*
X491778D01*
X492528Y794750D01*
X503250D02*
X508000Y790000D01*
X492528Y794750D02*
X503250D01*
X492528Y799250D02*
X503250D01*
X491778Y800000D02*
X492528Y799250D01*
X503250D02*
X508000Y804000D01*
X490000Y800000D02*
X491778D01*
X56998Y695000D02*
X57998Y696000D01*
X48750Y695000D02*
X56998D01*
X57998Y696000D02*
X60386D01*
X80182Y734182D02*
X89250Y725114D01*
X80182Y738932D02*
X82000Y740750D01*
X80182Y734182D02*
Y738932D01*
X85250Y696636D02*
Y706250D01*
X89250Y710250D01*
X86248Y740750D02*
X87998Y739000D01*
X82000Y740750D02*
X86248D01*
X87998Y739000D02*
X93750D01*
X80750Y698500D02*
Y708114D01*
X84750Y712114D01*
Y723250D01*
X75682Y732318D02*
X84750Y723250D01*
X86248Y745250D02*
X87998Y747000D01*
X93750D01*
X78000Y695750D02*
X80750Y698500D01*
X79864Y691250D02*
X85250Y696636D01*
X65136Y691250D02*
X79864D01*
X62250Y700500D02*
X67000Y695750D01*
X57998Y700500D02*
X62250D01*
X60386Y696000D02*
X65136Y691250D01*
X80136Y745250D02*
X86248D01*
X75682Y740796D02*
X80136Y745250D01*
X75682Y732318D02*
Y740796D01*
X454000Y741000D02*
X532000D01*
X539000Y748000D01*
X435000Y760000D02*
X454000Y741000D01*
X416000Y760000D02*
X435000D01*
X432000Y751000D02*
X450000Y733000D01*
X382000Y782000D02*
X413000Y751000D01*
X432000D01*
X318000Y802000D02*
X336500Y820500D01*
X319864Y797500D02*
X338364Y816000D01*
X347000Y782000D02*
X382000D01*
X281000Y728000D02*
X343000Y790000D01*
X386000D01*
X416000Y760000D01*
X284000Y804636D02*
Y812472D01*
X283250Y813222D02*
X284000Y812472D01*
X283250Y813222D02*
Y815000D01*
X284000Y804636D02*
X291136Y797500D01*
X336500Y820500D02*
X410500D01*
X466636Y764364D01*
X338364Y816000D02*
X408636D01*
X464772Y759864D01*
X612000Y715000D02*
X613778D01*
X614528Y715750D01*
X619114D01*
X626747Y721250D02*
X626997Y721000D01*
X634000D01*
X619114Y715750D02*
X624614Y721250D01*
X626747D01*
X612000Y721000D02*
X613778D01*
X614528Y720250D01*
X622750Y725750D02*
X626747D01*
X626997Y726000D01*
X634000D01*
X608000Y766000D02*
X618000D01*
X590000Y784000D02*
Y817000D01*
Y784000D02*
X608000Y766000D01*
X590000Y817000D02*
X635000Y862000D01*
X618000Y766000D02*
X623250Y760750D01*
X619778Y891000D02*
X620528Y890250D01*
X618000Y891000D02*
X619778D01*
X623250Y760750D02*
X626747D01*
X626997Y761000D01*
X634000D01*
X635000Y862000D02*
Y884003D01*
X628753Y890250D02*
X635000Y884003D01*
X620528Y890250D02*
X628753D01*
X606136Y761500D02*
X616136D01*
X585500Y782136D02*
Y818864D01*
Y782136D02*
X606136Y761500D01*
X585500Y818864D02*
X630500Y863864D01*
X616136Y761500D02*
X621386Y756250D01*
X618000Y885000D02*
X619778D01*
X620528Y885750D01*
X626889D01*
X621386Y756250D02*
X626747D01*
X626997Y756000D01*
X626889Y885750D02*
X630500Y882139D01*
Y863864D02*
Y882139D01*
X626997Y756000D02*
X634000D01*
X555500Y789500D02*
Y829500D01*
X551000Y787636D02*
Y831364D01*
X569500Y781636D02*
Y784500D01*
X563364Y787500D02*
X566500D01*
X569500Y784500D01*
X561864Y786000D02*
X563364Y787500D01*
X568000Y780136D02*
X569500Y781636D01*
X555500Y789500D02*
X559000Y786000D01*
X551000Y787636D02*
X592386Y746250D01*
X559000Y786000D02*
X561864D01*
X594250Y750750D02*
X626747D01*
X577250Y855472D02*
X578000Y856222D01*
X572000D02*
X572750Y855472D01*
X568000Y777000D02*
X594250Y750750D01*
X568000Y777000D02*
Y780136D01*
X578000Y856222D02*
Y858000D01*
X572000Y856222D02*
Y858000D01*
X551000Y831364D02*
X572750Y853114D01*
Y855472D01*
X577250Y851250D02*
Y855472D01*
X555500Y829500D02*
X577250Y851250D01*
X303000Y808250D02*
X306500D01*
X309250Y805500D01*
X300250D02*
X303000Y808250D01*
X298500Y802000D02*
X300250Y803750D01*
X309250D02*
X311000Y802000D01*
X293000Y802000D02*
X298500D01*
X311000Y802000D02*
X318000D01*
X288500Y806500D02*
Y812472D01*
Y806500D02*
X293000Y802000D01*
X289250Y813222D02*
Y815000D01*
X288500Y812472D02*
X289250Y813222D01*
X300250Y803750D02*
Y805500D01*
X309250Y803750D02*
Y805500D01*
X455000Y932000D02*
X466500Y920500D01*
X281000Y671000D02*
Y728000D01*
X277950Y653950D02*
X289000Y665000D01*
Y724000D01*
X347000Y782000D01*
X256000Y692000D02*
X256000D01*
X267950D01*
X247000Y701000D02*
X256000Y692000D01*
X501000Y35000D02*
X502000Y36000D01*
Y98000D01*
X600000Y216000D02*
X600500D01*
X619000Y234500D01*
X647150Y690850D02*
X654000Y684000D01*
X611850Y690850D02*
X647150D01*
X592000Y677000D02*
X594000D01*
X587000D02*
X592000D01*
X582500Y672500D02*
X587000Y677000D01*
X605000Y684000D02*
X611850Y690850D01*
X573900Y672500D02*
X582500D01*
X594000Y677000D02*
X601000Y684000D01*
X605000D01*
X1184000Y339000D02*
X1214000D01*
X1223500Y329500D01*
X1156000Y627350D02*
X1163350D01*
X1173000Y637000D01*
X1175000D01*
X885000Y384000D02*
X898000Y397000D01*
X873000Y384000D02*
X885000D01*
X882000Y482000D02*
X886000Y486000D01*
X882000Y469000D02*
Y482000D01*
Y469000D02*
X898000Y453000D01*
Y397000D02*
Y453000D01*
X1063500Y567500D02*
X1070500D01*
X1074000Y571000D02*
X1081000D01*
X1136000Y606000D02*
Y645000D01*
X1154000Y663000D01*
X1201000D01*
X567500Y920500D02*
X599000Y889000D01*
X466500Y920500D02*
X567500D01*
X342071Y932000D02*
X455000D01*
X707000Y751000D02*
X708000Y750000D01*
X443000Y224000D02*
X452000D01*
X500000Y272000D01*
X539000D01*
X661500Y705000D02*
X662000Y705500D01*
Y713000D01*
X654000Y674000D02*
X655000D01*
X659000D01*
X648150Y667150D02*
X655000Y674000D01*
X664000Y679000D02*
Y682000D01*
X659000Y674000D02*
X664000Y679000D01*
X1073000Y665000D02*
X1127000D01*
X641000Y185000D02*
Y198000D01*
Y185000D02*
X650000Y176000D01*
X673000Y206000D02*
X677000Y202000D01*
Y198000D02*
Y202000D01*
X813000Y941000D02*
Y958500D01*
Y941000D02*
X835000Y919000D01*
X818000Y947000D02*
Y958500D01*
X818000Y948000D02*
X818000Y948000D01*
X548000Y189000D02*
X553000Y194000D01*
Y223000D01*
X561000Y231000D01*
X548000Y189000D02*
X548000Y189000D01*
X520000Y189000D02*
X548000D01*
X214000Y177000D02*
X447000D01*
X465000Y195000D01*
X514000D01*
X295071Y360000D02*
X302000Y366929D01*
X227000Y360000D02*
X295071D01*
X302000Y366929D02*
Y377000D01*
X920000Y511000D02*
X935000Y496000D01*
X1005000D01*
X1022000Y513000D01*
X1007000Y487000D02*
X1033000Y513000D01*
Y537000D01*
X1051000Y555000D01*
X736000Y947000D02*
X738000Y949000D01*
X1055000Y520000D02*
X1055250Y519750D01*
X1072000D01*
X1055000Y506000D02*
Y520000D01*
X685500Y247000D02*
X691000D01*
X683000Y244500D02*
X685500Y247000D01*
X479000Y644000D02*
X482500Y647500D01*
X512100D01*
X563500Y279000D02*
X572500Y270000D01*
X641081D01*
X545000Y279000D02*
X563500D01*
X931500Y479500D02*
X952000Y459000D01*
X955071D01*
X891500Y479500D02*
X931500D01*
X791000Y260000D02*
X823000D01*
X855500Y292500D01*
Y308500D01*
X554000Y305000D02*
X583000Y276000D01*
X534000Y305000D02*
X550000D01*
X554000D01*
X1013000Y522000D02*
Y605000D01*
X1073000Y665000D01*
X1148500Y674500D02*
X1149000Y674000D01*
X1148000D02*
X1189000D01*
X1204000Y689000D01*
X644500Y777500D02*
X647000Y775000D01*
X641000Y777500D02*
X644500D01*
X351000Y769000D02*
Y777000D01*
Y769000D02*
X372000Y748000D01*
X659000Y481000D02*
X664500D01*
X762000Y631000D02*
X768500Y637500D01*
X816100D01*
X762000Y609000D02*
Y631000D01*
X754000Y606000D02*
Y635000D01*
X764000Y645000D01*
X785000D01*
X573900Y657500D02*
X582729D01*
X583229Y657000D01*
X589000D01*
X595000Y663000D01*
X606000D01*
X677000Y702000D02*
X687000Y692000D01*
X742000D01*
X672500Y698500D02*
X685000Y686000D01*
X712071D01*
X716071Y682000D01*
X743000D01*
X764000Y703000D01*
X641000Y791000D02*
Y795500D01*
X637500Y799000D02*
X641000Y795500D01*
X637500Y799000D02*
Y816000D01*
X641000Y791000D02*
X653000D01*
X654000Y790000D01*
X657500Y786500D01*
X640500Y790500D02*
X641000Y790000D01*
X657500Y775000D02*
Y786500D01*
X666000Y791000D02*
X677000D01*
X661500Y786500D02*
X666000Y791000D01*
X677000D02*
Y795500D01*
X680500Y799000D01*
Y816000D01*
X202000Y839000D02*
X257000D01*
X295821Y877821D01*
Y886000D01*
X341821Y932000D01*
X607000Y605000D02*
X700071D01*
X709000Y591929D02*
X725000Y575929D01*
X709000Y591929D02*
Y596071D01*
X700071Y605000D02*
X709000Y596071D01*
X1029500Y351000D02*
X1036500Y358000D01*
X1029500Y350000D02*
Y351000D01*
D77*
X1061000Y336250D02*
X1066750D01*
X1050000Y347250D02*
Y354000D01*
Y347250D02*
X1061000Y336250D01*
X1064000Y348000D02*
Y354000D01*
Y365000D02*
X1071000Y372000D01*
X1064000Y364000D02*
Y365000D01*
X1050000Y364000D02*
X1065000Y379000D01*
X1050000Y364000D02*
Y364000D01*
X1068750Y420250D02*
X1071500Y417500D01*
X1066000Y425000D02*
X1068750Y422250D01*
Y420250D02*
Y422250D01*
X1044000Y282000D02*
X1044000Y282000D01*
X1039000Y282000D02*
X1044000D01*
X1234000Y178000D02*
X1281000Y131000D01*
X1204000Y178000D02*
X1234000D01*
X1156000Y226000D02*
X1204000Y178000D01*
X1143000Y217000D02*
Y294000D01*
X1106000Y331000D02*
X1143000Y294000D01*
X1156000Y226000D02*
Y300000D01*
X1117000Y339000D02*
X1156000Y300000D01*
X1072000Y331000D02*
X1106000D01*
X573900Y687500D02*
X584500D01*
X501500D02*
X512100D01*
X828000Y991400D02*
Y1007900D01*
X798000Y991400D02*
Y1007900D01*
X783000Y991400D02*
Y1007900D01*
X768000Y991400D02*
Y1007900D01*
X753000Y991400D02*
Y1007900D01*
X999500Y333500D02*
X1009500Y323500D01*
X992500D02*
X1009500D01*
X1017000Y316000D01*
X1004500Y329000D02*
Y340500D01*
X999500Y333500D02*
X999500Y333500D01*
X992500Y333500D02*
X999500D01*
X1004500Y303500D02*
X1017000Y316000D01*
X1025000Y157000D02*
X1030000Y152000D01*
X1025000Y157000D02*
Y168000D01*
X994000Y109000D02*
X1019000Y134000D01*
X980000Y109000D02*
X994000D01*
X1019000Y134000D02*
Y152000D01*
X1011000Y160000D02*
X1019000Y152000D01*
X1011000Y160000D02*
Y168000D01*
X1160000Y518000D02*
Y524000D01*
Y518000D02*
X1163750Y514250D01*
X1173000D01*
X1160000Y524000D02*
X1163250Y520750D01*
X1173000D01*
X1250000Y366000D02*
X1256000D01*
X1266000Y366000D02*
Y380000D01*
Y366000D02*
X1266000Y366000D01*
X1266000Y380000D02*
X1310000D01*
X1215000Y233000D02*
X1223500Y241500D01*
X1215000Y228000D02*
Y233000D01*
X1223500Y241500D02*
Y246075D01*
X1094500Y429500D02*
Y447500D01*
X1092000Y450000D02*
X1094500Y447500D01*
X1087000Y443000D02*
X1089500Y440500D01*
X1081000Y443000D02*
X1087000D01*
X1082000Y438000D02*
X1084500Y435500D01*
X1064000Y443000D02*
X1069000Y438000D01*
X1082000D01*
X1078000Y446000D02*
X1081000Y443000D01*
X1064000D02*
Y450000D01*
X1071500Y417500D02*
X1077500D01*
X1065500Y407500D02*
X1077500D01*
X1039000Y409000D02*
X1046000D01*
X1037000Y411000D02*
X1039000Y409000D01*
X1031000Y411000D02*
X1037000D01*
X1136000Y392500D02*
X1137500D01*
X1114500Y374500D02*
X1117000Y372000D01*
X1120000D01*
X1120000Y348000D02*
X1127000D01*
X1078000D02*
X1085000D01*
X1109500Y371500D02*
X1113000Y368000D01*
Y365000D02*
Y368000D01*
X901000Y337000D02*
X907000Y343000D01*
X901000Y326750D02*
Y337000D01*
X938250Y326750D02*
X942000Y323000D01*
X929000Y326750D02*
X938250D01*
X1109500Y371500D02*
Y380500D01*
X1114500Y374500D02*
Y380500D01*
X1099500Y371500D02*
Y380500D01*
X1092000Y364000D02*
X1099500Y371500D01*
X1092000Y358000D02*
Y364000D01*
X1120000Y358000D02*
X1120000Y358000D01*
X1106000Y358000D02*
X1120000D01*
X1106000D02*
Y365000D01*
X1104500Y366500D02*
X1106000Y365000D01*
X1104500Y366500D02*
Y380500D01*
X1094500Y374500D02*
Y380500D01*
X1092500Y372500D02*
X1094500Y374500D01*
X1092000Y358000D02*
X1092000Y358000D01*
X1078000Y358000D02*
X1092000D01*
X1056000Y385000D02*
X1068500Y397500D01*
X1071000Y385000D02*
X1073500Y387500D01*
X1071000Y372000D02*
Y385000D01*
X1073500Y387500D02*
X1077500D01*
X1070500Y392500D02*
X1077500D01*
X1068500Y397500D02*
X1077500D01*
X1041500Y313500D02*
X1050000D01*
X1009500Y282500D02*
Y291500D01*
X1000000Y277000D02*
X1004000D01*
X1009500Y282500D01*
X1014500Y278000D02*
Y291500D01*
X1009000Y272500D02*
X1014500Y278000D01*
X1009000Y271000D02*
Y272500D01*
X995000Y271000D02*
Y272000D01*
X1000000Y277000D01*
X1000000Y282000D02*
X1004500Y286500D01*
X985000Y282000D02*
X1000000D01*
X981000Y278000D02*
X985000Y282000D01*
X1004500Y286500D02*
Y291500D01*
X995000Y237000D02*
Y246000D01*
Y237000D02*
X1002000Y230000D01*
X1010000D01*
X1009000Y261000D02*
X1009000Y261000D01*
X1009000Y246000D02*
Y261000D01*
X995000Y246000D02*
Y261000D01*
X1014000Y237000D02*
X1023000D01*
X1009000Y242000D02*
Y246000D01*
Y242000D02*
X1014000Y237000D01*
X1023000D02*
X1026000Y234000D01*
Y230000D02*
Y234000D01*
X1074000Y150000D02*
X1129000Y95000D01*
X1074000Y150000D02*
Y168000D01*
X1156000Y153000D02*
X1200000Y109000D01*
X1156000Y153000D02*
Y168000D01*
X1038000Y275000D02*
X1058000D01*
X1029500Y283500D02*
X1038000Y275000D01*
X1034500Y286500D02*
X1039000Y282000D01*
X1058000Y275000D02*
X1108000Y225000D01*
X1029500Y283500D02*
Y291500D01*
X1034500Y286500D02*
Y291500D01*
X1108000Y175000D02*
Y225000D01*
X949000Y289000D02*
Y296000D01*
X900000Y183000D02*
Y198000D01*
X981000Y271000D02*
Y278000D01*
X1010000Y220000D02*
X1011000Y219000D01*
Y206000D02*
Y219000D01*
Y192000D02*
Y206000D01*
X1025000Y192000D02*
Y219000D01*
X1026000Y220000D01*
X1025000Y168000D02*
Y182000D01*
X1011000Y168000D02*
X1011000Y168000D01*
Y182000D01*
X1046000Y395000D02*
Y409000D01*
Y388000D02*
Y395000D01*
X1089500Y380500D02*
Y392500D01*
X1078000Y446000D02*
Y450000D01*
X1089500Y429500D02*
Y440500D01*
X1084500Y429500D02*
Y435500D01*
X999500Y333500D02*
Y340500D01*
X988500Y303500D02*
X1004500D01*
X1060000Y168000D02*
Y170000D01*
X1084000Y180000D02*
Y182000D01*
X1074000Y168000D02*
Y170000D01*
X1084000Y180000D01*
X1200000Y54000D02*
Y109000D01*
X1156000Y168000D02*
Y182000D01*
X1115000Y168000D02*
X1122000D01*
X1108000Y175000D02*
X1115000Y168000D01*
X1129000Y75000D02*
Y95000D01*
X1108000Y54000D02*
X1129000Y75000D01*
X1090000Y54000D02*
X1108000D01*
X976000Y324000D02*
X981500Y318500D01*
X975000Y324000D02*
X976000D01*
X981500Y318500D02*
X988500D01*
X981500Y328500D02*
X988500D01*
X978000Y332000D02*
X981500Y328500D01*
X928000Y173000D02*
X928000Y173000D01*
X914000Y173000D02*
X928000D01*
X942000Y309000D02*
Y323000D01*
Y309000D02*
X945000Y306000D01*
X949000D01*
X914000Y183000D02*
Y218000D01*
X922000Y226000D01*
Y283000D01*
X900000Y198000D02*
Y217000D01*
X908000Y225000D01*
X886000Y173000D02*
X886000Y173000D01*
X900000D01*
X870000Y109000D02*
Y164000D01*
X879000Y173000D01*
X886000D01*
X870000Y54000D02*
X889000D01*
X928000Y93000D01*
Y173000D01*
X883000Y272000D02*
X887000Y268000D01*
X898000D01*
X944000D02*
X948000Y264000D01*
X932000Y268000D02*
X944000D01*
X898000Y275000D02*
Y283000D01*
X898000Y275000D02*
X898000Y275000D01*
X932000Y283000D02*
X944000D01*
X947000Y280000D01*
X978000Y300000D02*
X986500Y308500D01*
X992500D01*
X949000Y306000D02*
X953000D01*
X959000Y300000D01*
X978000D01*
X985000Y313500D02*
X988500D01*
X1009500Y340500D02*
Y347500D01*
X1007250Y349750D02*
X1009500Y347500D01*
X1024500Y278500D02*
Y291500D01*
Y278500D02*
X1035000Y268000D01*
X1054000D01*
X1019500Y272500D02*
Y291500D01*
Y272500D02*
X1031000Y261000D01*
X1049000D01*
X1084000Y210000D02*
Y225000D01*
X1074000Y225000D02*
Y239000D01*
Y248000D01*
X1054000Y268000D02*
X1074000Y248000D01*
X1060000Y225000D02*
Y250000D01*
X1049000Y261000D02*
X1060000Y250000D01*
Y182000D02*
Y210000D01*
X1074000Y210000D02*
X1074000Y210000D01*
Y182000D02*
Y210000D01*
X1050000Y180000D02*
Y182000D01*
Y180000D02*
X1060000Y170000D01*
Y139000D02*
Y168000D01*
Y139000D02*
X1090000Y109000D01*
X1331800Y128800D02*
Y131000D01*
X1317000Y114000D02*
X1331800Y128800D01*
X1066750Y336250D02*
X1072000Y331000D01*
X1065000Y379000D02*
Y387000D01*
X1070500Y392500D01*
X1056000Y381000D02*
Y385000D01*
X1056000Y395000D02*
X1063500Y402500D01*
X1077500D01*
X1064000Y409000D02*
X1065500Y407500D01*
X1056000Y409000D02*
X1064000D01*
X1056364Y423000D02*
X1066864Y412500D01*
X1077500D01*
X608000Y231000D02*
X608783D01*
X833000Y975000D02*
Y991400D01*
X833000Y991400D02*
X833000Y991400D01*
X877900Y592500D02*
X897000D01*
X1104500Y445000D02*
X1105000Y445500D01*
Y449000D01*
X1099500Y429500D02*
Y440000D01*
X1104500Y445000D01*
X978000Y332000D02*
X978000Y332000D01*
X949000Y332000D02*
X978000D01*
X938000Y343000D02*
X949000Y332000D01*
X907000Y343000D02*
X938000D01*
X980000Y54000D02*
X995000D01*
X1030000Y89000D01*
Y152000D01*
X949000Y315000D02*
Y322000D01*
X922000Y296250D02*
X929000Y303250D01*
X922000Y283000D02*
Y296250D01*
X901000Y303250D02*
X908000Y296250D01*
Y225000D02*
Y268000D01*
Y296250D01*
X1143000Y217000D02*
X1194000Y166000D01*
X1223757D01*
X1275757Y114000D01*
X1317000D01*
X1064000Y348000D02*
X1073000Y339000D01*
X1117000D01*
X1050000Y210000D02*
Y225000D01*
X1050000Y225000D02*
X1050000Y225000D01*
X1132000Y168000D02*
Y183000D01*
X1132000Y183000D02*
X1132000Y183000D01*
X1133000Y182000D02*
X1146000D01*
X1132000Y183000D02*
X1133000Y182000D01*
X1215000Y344000D02*
Y350000D01*
Y360000D02*
X1222000D01*
X1229000D01*
X1229000Y218000D02*
X1229000Y218000D01*
X1215000Y218000D02*
X1222000D01*
X1229000D01*
D78*
X559000Y318000D02*
Y324000D01*
X229000Y297000D02*
Y304000D01*
X199000Y763000D02*
Y770000D01*
X116500Y252500D02*
X118500Y254500D01*
X120500D01*
X105000Y215000D02*
X117000D01*
X1056000Y435000D02*
X1066000Y425000D01*
X1056000Y435000D02*
Y437000D01*
X1052000Y430000D02*
X1056000Y434000D01*
X1036000Y430000D02*
X1052000D01*
X1031000Y425000D02*
X1036000Y430000D01*
X1031000Y421000D02*
Y425000D01*
X1122000Y183000D02*
Y198000D01*
X1044000Y282000D02*
X1061000D01*
X1122000Y198000D02*
Y221000D01*
X1061000Y282000D02*
X1122000Y221000D01*
X257000Y254000D02*
X258000Y253000D01*
X257000Y254000D02*
Y263000D01*
X105000Y684000D02*
X111000D01*
X103000Y686000D02*
X105000Y684000D01*
X1250000Y469000D02*
X1257000D01*
X1038000Y603000D02*
X1045000D01*
X1027500Y567500D02*
X1036500D01*
X1055000Y530000D02*
Y537000D01*
X718000Y368000D02*
X724000D01*
X664000Y190000D02*
Y198000D01*
X687000Y190000D02*
Y198000D01*
X710000Y190000D02*
Y198000D01*
X718500Y237500D02*
X726500D01*
X737000Y222000D02*
Y229000D01*
X883000Y282000D02*
X890000D01*
X891000Y254000D02*
X898000D01*
X883000Y198000D02*
X890000D01*
X879000Y183000D02*
X886000D01*
X924000Y198000D02*
X931000D01*
X928000Y183000D02*
X935000D01*
X932000Y254000D02*
X940000D01*
X948000Y254000D02*
X955000D01*
X1019000Y246000D02*
X1026000D01*
X975000Y261000D02*
X981000D01*
X978000Y246000D02*
X985000D01*
X1001000Y199000D02*
Y206000D01*
X1001000Y168000D02*
Y175000D01*
X1043000Y168000D02*
X1050000D01*
X1035000D02*
Y175000D01*
X1035000Y199000D02*
Y206000D01*
X1044000Y196000D02*
X1050000D01*
X1050000Y233000D02*
Y239000D01*
X1084000Y233000D02*
Y239000D01*
Y168000D02*
X1091000D01*
X1084000Y196000D02*
X1091000D01*
X1132000Y198000D02*
X1139000D01*
X1146000Y161000D02*
Y168000D01*
X1303000Y229000D02*
X1310000D01*
X1256000D02*
X1259000D01*
X1252000Y233000D02*
X1256000Y229000D01*
X1170000Y222000D02*
Y229000D01*
X1170500Y255000D02*
Y263000D01*
X1169000Y271000D02*
X1176000D01*
X1169000Y284000D02*
X1176000D01*
X1167000Y307000D02*
X1174000D01*
X1167000Y323000D02*
X1174000D01*
X1199000Y317000D02*
Y324000D01*
X1273000Y302000D02*
X1280000D01*
X1273000Y317000D02*
Y324000D01*
X1259000Y334000D02*
Y341000D01*
X1242000Y348000D02*
X1267000D01*
X1236000Y342000D02*
X1242000Y348000D01*
X1236000Y321000D02*
Y342000D01*
X1267000Y348000D02*
X1273000Y342000D01*
X1245000Y335000D02*
Y341000D01*
X1250000Y380000D02*
X1256000D01*
X958000Y309000D02*
X965000D01*
X958000Y324000D02*
X965000D01*
X954000Y372000D02*
Y379500D01*
X940000Y363500D02*
Y371000D01*
X1015000Y360000D02*
Y366000D01*
X1046000Y375000D02*
Y381000D01*
X1040000Y423000D02*
X1046000D01*
X1040000Y437000D02*
X1046000D01*
X1064000Y460000D02*
Y467000D01*
X1078000Y460000D02*
Y467000D01*
X1092000Y460000D02*
Y467000D01*
X1106000Y460000D02*
Y467000D01*
X1096000Y496000D02*
Y503000D01*
X1136000Y577000D02*
Y584000D01*
X1145000Y550000D02*
X1152000D01*
X1164500Y552500D02*
X1173500D01*
X1175000Y589000D02*
X1182000D01*
X1203000Y637000D02*
X1206000D01*
X1198000Y632000D02*
X1203000Y637000D01*
X1182000Y637000D02*
X1190000D01*
X1175000Y621000D02*
Y627000D01*
X1156000Y640050D02*
X1165000D01*
X1090000Y627350D02*
X1100000D01*
X1090000Y640050D02*
X1100000D01*
X898000Y552000D02*
X905000D01*
X859000Y489000D02*
Y496000D01*
X674000Y496000D02*
Y502000D01*
X1245000Y865000D02*
X1252000D01*
X460000Y1055000D02*
Y1063000D01*
X853000Y948000D02*
X860000D01*
X853000Y962000D02*
X860000D01*
X716000Y946000D02*
Y953000D01*
Y922000D02*
Y929000D01*
X717000Y895000D02*
Y902000D01*
X714000Y884000D02*
X721000D01*
X596000Y906500D02*
Y912000D01*
X722000Y804000D02*
Y808000D01*
X718000Y812000D02*
X722000Y808000D01*
X687000Y791000D02*
Y797000D01*
X718000Y765000D02*
X725000D01*
X718000Y718000D02*
Y726000D01*
X624000Y791000D02*
X631000D01*
X617500Y669150D02*
X619500Y667150D01*
X611500Y669150D02*
X617500D01*
X605000Y674000D02*
X609850Y669150D01*
X611500D01*
X584500Y687500D02*
X591500D01*
X592000Y687000D01*
X543000Y672000D02*
Y688000D01*
Y656750D02*
Y672000D01*
X550000Y385000D02*
X557000D01*
X580000Y363000D02*
Y366000D01*
X572000Y355000D02*
X580000Y363000D01*
X444000Y338000D02*
X446000Y336000D01*
X444000Y338000D02*
Y344000D01*
X366000D02*
X372000D01*
X105000Y165000D02*
X118500D01*
X105000Y177500D02*
X118500D01*
X105000Y252500D02*
X116500D01*
X105000Y290000D02*
X119000D01*
X105000Y327500D02*
X118500D01*
X298000Y523000D02*
X306000D01*
X296000Y525000D02*
X298000Y523000D01*
X37000Y745000D02*
X44000D01*
X205000Y804000D02*
Y813000D01*
X1076000Y638000D02*
Y646000D01*
X1082000Y652000D01*
X747650Y791000D02*
Y819000D01*
X240000Y329000D02*
Y333000D01*
X237000Y336000D02*
X240000Y333000D01*
X230000Y336000D02*
X237000D01*
X706000Y368000D02*
X708000Y366000D01*
X702000Y368000D02*
X706000D01*
X641000Y285000D02*
Y292000D01*
X640000Y284000D02*
X641000Y285000D01*
X270000Y336000D02*
X270000D01*
X277000Y343000D01*
X620000Y367000D02*
X620000Y367000D01*
X612000Y367000D02*
X620000D01*
X324000Y338000D02*
Y343000D01*
Y338000D02*
X326000Y336000D01*
X580000Y378000D02*
Y381000D01*
X578000Y376000D02*
X580000Y378000D01*
X572000Y376000D02*
X578000D01*
X1229000Y350000D02*
X1234000D01*
X1229000Y321000D02*
Y350000D01*
X1234000D02*
X1240000Y356000D01*
X1279000D01*
X1305800Y329200D01*
X1310000D01*
X1309200Y303800D02*
X1310000D01*
X1279000Y334000D02*
X1309200Y303800D01*
X1273000Y334000D02*
X1279000D01*
X1273000D02*
Y342000D01*
X1233000Y228000D02*
X1250000Y211000D01*
X1229000Y228000D02*
X1233000D01*
X1270000Y244000D02*
X1273000D01*
X1266000Y248000D02*
X1270000Y244000D01*
X1243500Y229500D02*
Y241500D01*
Y229500D02*
X1254000Y219000D01*
X1283000D01*
X1293000Y229000D01*
X1331000Y224000D02*
Y257400D01*
X1250000Y211000D02*
X1318000D01*
X1331000Y224000D01*
X1310000Y278400D02*
X1331000Y257400D01*
X1293000Y236000D02*
X1310000Y253000D01*
X1293000Y229000D02*
Y236000D01*
X1147000Y400000D02*
X1154000D01*
X299000Y557000D02*
X301000Y559000D01*
X306000D01*
X1137000Y432000D02*
X1147000D01*
X1092000Y348000D02*
X1099000D01*
X1106000D01*
X942000Y447000D02*
X947000Y452000D01*
X942000Y445000D02*
Y447000D01*
X428750Y473250D02*
Y487000D01*
X718000Y734000D02*
Y742000D01*
Y750000D01*
X313750Y517750D02*
Y536589D01*
X309000Y513000D02*
X313750Y517750D01*
Y536589D02*
X332000Y554839D01*
X607000Y791000D02*
X614000D01*
X297900Y513000D02*
X306000D01*
X296000Y511100D02*
X297900Y513000D01*
X280000Y511100D02*
X296000D01*
X96500Y703000D02*
X102000D01*
X92500Y699000D02*
X96500Y703000D01*
X65000Y656000D02*
X72000Y663000D01*
X72500Y663500D02*
X75000D01*
X189000Y850000D02*
Y857000D01*
X440000Y78000D02*
X443000D01*
X447500Y82500D01*
X600000Y231000D02*
Y235000D01*
X603000Y238000D01*
X796000Y366000D02*
Y371000D01*
X798000Y373000D01*
X593000Y131000D02*
X594000Y130000D01*
X593000Y131000D02*
Y137000D01*
X1091500Y316000D02*
X1100500D01*
X1061000Y324000D02*
Y330750D01*
X1134000Y348000D02*
X1140000D01*
X1229000Y237000D02*
X1236000Y244000D01*
X1229000Y228000D02*
Y237000D01*
X766500Y239500D02*
X768500Y237500D01*
X774500D01*
X1231000Y835000D02*
X1232000Y834000D01*
X910000Y596000D02*
Y599000D01*
X907000Y593000D02*
X909000Y595000D01*
X773000Y610000D02*
X778000D01*
X769000Y614000D02*
X773000Y610000D01*
X185000Y664000D02*
X187650Y666650D01*
X212000D01*
X963500Y362000D02*
Y367500D01*
X967000Y371000D01*
X989000D01*
X1098000Y840000D02*
X1108950D01*
X1108950Y840000D01*
X1098000Y801950D02*
X1109000D01*
Y707950D02*
X1119650D01*
X1109000Y746050D02*
X1119650D01*
D79*
X1191500Y299000D02*
X1197000Y293500D01*
X1180000Y299000D02*
X1191500D01*
X550000Y378000D02*
X554000D01*
X547000Y375000D02*
X550000Y378000D01*
X547000Y369750D02*
Y375000D01*
X542000Y369750D02*
Y376000D01*
X552000Y361000D02*
X552000Y361000D01*
X552000Y361000D02*
Y369750D01*
X547000Y333000D02*
Y340250D01*
X1243500Y305750D02*
Y315000D01*
X1248500Y305750D02*
Y311500D01*
X1251000Y314000D01*
X1209000Y324000D02*
X1213500Y319500D01*
Y305750D02*
Y319500D01*
X1197000Y293500D02*
X1206250D01*
X1193500Y288500D02*
X1206250D01*
X1180000Y291000D02*
X1191000D01*
X1193500Y288500D01*
X1197429Y278500D02*
X1206250D01*
X1186000Y284000D02*
X1191929D01*
X1197429Y278500D01*
X1193000Y273500D02*
X1206250D01*
X1218500Y248500D02*
Y256250D01*
X1228500Y248500D02*
Y256250D01*
X1263500Y293500D02*
X1264500Y294500D01*
X1255750Y293500D02*
X1263500D01*
X1255750Y298500D02*
X1261000D01*
X1255750Y288500D02*
X1263000D01*
X1255750Y283500D02*
X1263000D01*
X1255750Y278500D02*
X1272500D01*
X1273000Y278000D01*
X1255750Y268500D02*
X1272500D01*
X1273000Y268000D01*
X1261500Y263500D02*
X1264000Y261000D01*
X1255750Y263500D02*
X1261500D01*
X1248500Y250500D02*
X1250000Y249000D01*
X1248500Y250500D02*
Y256250D01*
X1243500Y241500D02*
Y256250D01*
X1238500Y246500D02*
Y256250D01*
X732000Y963000D02*
X733000D01*
X743000Y891000D02*
Y901500D01*
X753000D02*
Y912000D01*
X768000Y891000D02*
X768000Y891000D01*
Y901500D01*
X783000D02*
Y912000D01*
X798000Y891000D02*
Y901500D01*
Y948000D02*
Y958500D01*
X783000D02*
Y969000D01*
X768000Y948000D02*
Y958500D01*
X753000D02*
Y969000D01*
X743000Y948000D02*
Y958500D01*
X728500Y912000D02*
X731000D01*
X733000Y910000D01*
Y901500D02*
Y910000D01*
X1228500Y283500D02*
Y305750D01*
X1233500Y256250D02*
Y278500D01*
X1228500Y283500D02*
X1231000Y281000D01*
X1206250Y283500D02*
X1228500D01*
X1228500Y283500D02*
X1228500Y283500D01*
X1238500Y273500D02*
X1255750D01*
X1231000Y281000D02*
X1233500Y278500D01*
X1238500Y273500D01*
X946000Y397750D02*
Y410000D01*
X1236000Y244000D02*
X1238500Y246500D01*
X652000Y769000D02*
Y777000D01*
X690000Y761000D02*
X696000D01*
X698000Y763000D01*
Y765000D01*
X690000Y741000D02*
X698000D01*
X647000Y713000D02*
Y726000D01*
X626000Y741000D02*
X634000D01*
X677000Y769000D02*
Y774217D01*
X677650Y774867D01*
Y779650D01*
X956000Y389950D02*
Y397750D01*
Y389950D02*
X957450Y388500D01*
X1261000Y298500D02*
X1264500Y302000D01*
Y303000D01*
X1213500Y252000D02*
Y256250D01*
X1210000Y248500D02*
X1213500Y252000D01*
X1209000Y248500D02*
X1210000D01*
D80*
X1262000Y324000D02*
X1266000Y328000D01*
X1259000Y324000D02*
X1262000D01*
X48750Y682000D02*
X60000D01*
X567000Y386000D02*
X572000D01*
X559000Y378000D02*
X567000Y386000D01*
X554000Y378000D02*
X559000D01*
X638000Y387000D02*
X644000D01*
X646000Y385000D01*
X648000Y387000D02*
X654000D01*
X646000Y385000D02*
X648000Y387000D01*
X684000Y502000D02*
Y511000D01*
X684000Y502000D02*
X684000Y502000D01*
X683500Y487500D02*
X684000Y488000D01*
Y502000D01*
X669500Y474500D02*
X674000Y479000D01*
X664500Y474500D02*
X669500D01*
X1055000Y595000D02*
Y603000D01*
Y595000D02*
X1063500Y586500D01*
X853000Y926500D02*
Y934000D01*
Y919000D02*
Y926500D01*
X876000Y962192D02*
X886000D01*
X731000Y875000D02*
Y884000D01*
X726000Y870000D02*
X731000Y875000D01*
X718000Y870000D02*
X726000D01*
X718000Y860000D02*
X726000D01*
X627000Y255000D02*
X633000D01*
X709000Y963000D02*
X716000D01*
X1192000Y580000D02*
Y589000D01*
Y580000D02*
X1200500Y571500D01*
X540000Y378000D02*
X542000Y376000D01*
X947000Y388000D02*
X949000Y390000D01*
X943000Y388000D02*
X947000D01*
X940000Y385000D02*
X943000Y388000D01*
X940000Y381000D02*
Y385000D01*
X542000Y376000D02*
X542000Y376000D01*
Y375000D02*
Y376000D01*
X1155000Y540000D02*
X1160000Y535000D01*
Y524000D02*
Y535000D01*
X1152000Y540000D02*
X1155000D01*
X1137000D02*
X1152000D01*
X1243500Y315000D02*
Y316500D01*
X1245000Y318000D01*
Y324000D01*
X1248000D01*
X1252000Y328000D01*
X1259000Y322000D02*
Y324000D01*
X1251000Y314000D02*
X1259000Y322000D01*
X1273000Y254000D02*
X1280000D01*
X1271000D02*
X1273000D01*
X1264000Y261000D02*
X1271000Y254000D01*
X1250000Y249000D02*
X1259000Y240000D01*
Y239000D02*
X1266000D01*
X1259000D02*
Y240000D01*
X1142000Y480000D02*
Y486000D01*
X1094500Y479000D02*
X1099000Y474500D01*
Y455000D02*
Y474500D01*
X1104000Y450000D02*
X1106000D01*
X1147000Y415000D02*
Y422000D01*
X1134000Y358000D02*
X1147500D01*
X1148500Y357000D01*
X1134000Y358000D02*
Y362000D01*
X1124000Y372000D02*
X1134000Y362000D01*
X1120000Y372000D02*
X1124000D01*
X1061000Y299500D02*
X1062500Y298000D01*
X1061000Y299500D02*
Y314000D01*
X1050000Y313500D02*
X1060500D01*
X1061000Y314000D01*
X952000Y445000D02*
X955000Y448000D01*
Y452000D01*
X951000Y435000D02*
X951000Y435000D01*
X406750Y475250D02*
Y487000D01*
X404750Y473250D02*
X406750Y475250D01*
X716000Y963000D02*
X732000D01*
X731000Y886000D02*
X736000Y891000D01*
X731000Y884000D02*
Y886000D01*
X717000Y912000D02*
X728500D01*
X305800Y549200D02*
X306000Y549000D01*
X296000Y549200D02*
X305800D01*
X280000D02*
X296000D01*
X723000Y190000D02*
Y198000D01*
X703000Y237000D02*
X711000D01*
X608000Y198000D02*
Y206000D01*
X631000Y190000D02*
Y198000D01*
X492000Y19000D02*
X501000D01*
X512000D02*
X521000D01*
X532000D02*
X541000D01*
X556000D02*
X565000D01*
X450000Y27000D02*
X457000D01*
X710000Y912000D02*
X717000D01*
X701000Y780000D02*
X708000D01*
X739000Y704000D02*
Y711000D01*
Y718000D01*
X1206000Y597000D02*
Y604000D01*
X1192000Y589000D02*
Y596000D01*
X1152000Y577000D02*
Y584000D01*
X1218000Y551000D02*
X1225000D01*
X1097000Y581000D02*
Y588000D01*
X1055000Y489000D02*
Y496000D01*
X1086000Y489000D02*
Y496000D01*
X1072000Y479000D02*
X1079500D01*
X1163500Y357000D02*
X1171000D01*
X1186000Y222000D02*
Y229000D01*
X1174000Y333000D02*
Y339000D01*
X1121000Y465000D02*
Y471500D01*
X964000Y379500D02*
Y381950D01*
Y379500D02*
X978000D01*
X957450Y388500D02*
X964000Y381950D01*
X1105500Y480000D02*
X1112000D01*
X978500Y345000D02*
X978500Y345000D01*
X978500Y345000D02*
Y362000D01*
X1055000Y603000D02*
X1062000D01*
X1074000Y581000D02*
X1081000D01*
X1110000Y532750D02*
X1119000D01*
X1076000Y614000D02*
X1088050Y601950D01*
X1076000Y614000D02*
Y628000D01*
X1088050Y601950D02*
X1100000D01*
X906000Y490000D02*
Y496500D01*
X884500Y492500D02*
X891500D01*
X1137000Y550000D02*
Y557000D01*
X691000Y237000D02*
X703000D01*
X585000Y204000D02*
X591000Y210000D01*
X585000Y198000D02*
Y204000D01*
X48750Y708000D02*
X61000D01*
X859500Y479500D02*
X872500D01*
X852000Y479000D02*
X859000D01*
X972000Y316000D02*
X975000Y313000D01*
Y309000D02*
Y313000D01*
Y309000D02*
X978000D01*
X982500Y313500D01*
X985000D01*
X1005000Y352000D02*
Y360000D01*
Y352000D02*
X1007250Y349750D01*
X994250Y360000D02*
X1005000D01*
X992250Y362000D02*
X994250Y360000D01*
X978500Y362000D02*
X992250D01*
X714000Y710000D02*
X718000Y706000D01*
Y702000D02*
Y706000D01*
X634000Y769000D02*
X641000D01*
X1077500Y298000D02*
X1077500Y298000D01*
Y325000D01*
X608783Y231000D02*
X617282Y239500D01*
X621000D01*
X542000Y299000D02*
X546000Y295000D01*
X550000D01*
X952000Y439000D02*
Y445000D01*
X951000Y438000D02*
X952000Y439000D01*
X951000Y435000D02*
Y438000D01*
X897000Y578000D02*
Y592500D01*
X1099000Y455000D02*
X1105000Y449000D01*
X1138000Y422000D02*
X1147000D01*
X525000Y385000D02*
X540000D01*
Y378000D02*
Y385000D01*
X716000Y939000D02*
X728000D01*
X736000Y947000D01*
X614000Y781000D02*
X617500Y777500D01*
X641000D01*
D81*
X621000Y239500D02*
X627500D01*
X654500Y256500D02*
Y261750D01*
X649500Y256500D02*
Y262000D01*
X644500Y256500D02*
Y262000D01*
X659500Y256500D02*
X661000D01*
X649500Y234500D02*
X666500D01*
X647000Y237000D02*
X649500Y234500D01*
X666500Y244500D02*
X672000D01*
X666500Y239500D02*
X672000D01*
X666500Y229500D02*
X672000D01*
X666500Y224500D02*
X672000D01*
X659500Y213500D02*
Y217500D01*
Y213500D02*
X661000Y212000D01*
X662000D01*
X654500Y211500D02*
Y217500D01*
Y211500D02*
X656000Y210000D01*
X644500Y212000D02*
Y217500D01*
X639500Y212000D02*
Y217500D01*
X649500Y212000D02*
Y217500D01*
X634500Y213000D02*
Y217500D01*
X621500Y224500D02*
X627500D01*
X638000Y264000D02*
X639500Y262500D01*
Y256500D02*
Y262500D01*
X636000Y264000D02*
X638000D01*
X622000Y249500D02*
X627500D01*
X622000Y244500D02*
X627500D01*
X622000Y234500D02*
X627500D01*
X619000Y227000D02*
X621500Y224500D01*
X619000Y227000D02*
X621500Y229500D01*
X627500D01*
X675000Y253500D02*
Y254500D01*
X671000Y249500D02*
X675000Y253500D01*
X666500Y249500D02*
X671000D01*
D82*
X900000Y355000D02*
X943000D01*
X182000Y661000D02*
X185000Y664000D01*
X182000Y640000D02*
Y661000D01*
X757000Y832000D02*
X773000Y816000D01*
Y805050D02*
Y816000D01*
Y805050D02*
X773050Y805000D01*
X750000Y832000D02*
X757000D01*
X741000Y841000D02*
X750000Y832000D01*
X943000Y355000D02*
X954000Y344000D01*
X963500D01*
D83*
X212000Y692050D02*
X226000D01*
X212000Y653950D02*
X226000D01*
X727000Y823000D02*
X734950Y815050D01*
Y791000D02*
Y815050D01*
D84*
X773050Y791000D02*
Y805000D01*
D85*
X547000Y330000D02*
Y333000D01*
X547000Y330000D02*
X549000Y328000D01*
Y324000D02*
Y328000D01*
X549000Y324000D02*
X549000Y324000D01*
X549000Y317000D02*
Y324000D01*
D86*
X1119000Y515000D02*
Y519750D01*
Y515000D02*
X1119000Y515000D01*
X1117250Y513250D02*
X1119000Y515000D01*
X1072000Y513250D02*
X1081750D01*
X1086000Y509000D01*
Y496000D02*
Y509000D01*
X1110000Y519750D02*
X1119000D01*
X1110000Y513250D02*
X1117250D01*
X1119000Y519750D02*
Y524250D01*
X1117000Y526250D02*
X1119000Y524250D01*
X1110000Y526250D02*
X1117000D01*
D87*
X1300000Y802600D02*
X1304300Y798300D01*
D88*
X951000Y392000D02*
Y397750D01*
X950000Y391000D02*
X951000Y392000D01*
D89*
X383700Y959000D02*
D03*
X358300D02*
D03*
X371000Y690000D02*
D03*
X754600Y60000D02*
D03*
X729200D02*
D03*
X703800D02*
D03*
X678400D02*
D03*
X653000D02*
D03*
X627600D02*
D03*
X780000Y34600D02*
D03*
X754600D02*
D03*
X729200D02*
D03*
X703800D02*
D03*
X678400D02*
D03*
X653000D02*
D03*
X627600D02*
D03*
X753600Y155400D02*
D03*
X728200D02*
D03*
X702800D02*
D03*
X677400D02*
D03*
X652000D02*
D03*
X753600Y130000D02*
D03*
X728200D02*
D03*
X702800D02*
D03*
X677400D02*
D03*
X1315400Y443400D02*
D03*
Y468800D02*
D03*
Y494200D02*
D03*
Y519600D02*
D03*
Y545000D02*
D03*
X1290000Y443400D02*
D03*
Y468800D02*
D03*
Y494200D02*
D03*
Y519600D02*
D03*
X1269600Y720000D02*
D03*
X1244200D02*
D03*
X1295000Y694600D02*
D03*
X1269600D02*
D03*
X1244200D02*
D03*
D90*
X1209500Y977500D02*
D03*
Y1042500D02*
D03*
X670000Y550000D02*
D03*
X870000Y880000D02*
D03*
X520000D02*
D03*
Y230000D02*
D03*
X870000D02*
D03*
X385990Y1023000D02*
D03*
X136010D02*
D03*
X955500Y618800D02*
D03*
Y217200D02*
D03*
D91*
X1162500Y1007500D02*
D03*
D92*
X780000Y60000D02*
D03*
X652000Y130000D02*
D03*
X1295000Y720000D02*
D03*
D93*
X1290000Y545000D02*
D03*
D94*
X50000Y1050000D02*
D03*
X1300000D02*
D03*
Y50000D02*
D03*
X50000D02*
D03*
D95*
X230000Y879000D02*
D03*
X1110000D02*
D03*
Y279000D02*
D03*
X230000Y229000D02*
D03*
D96*
X1232000Y774000D02*
D03*
Y794000D02*
D03*
Y814000D02*
D03*
X47500Y976500D02*
D03*
Y956500D02*
D03*
Y936500D02*
D03*
Y916500D02*
D03*
Y896500D02*
D03*
Y876500D02*
D03*
Y836500D02*
D03*
Y816500D02*
D03*
Y796500D02*
D03*
X27500Y966500D02*
D03*
Y946500D02*
D03*
Y926500D02*
D03*
Y906500D02*
D03*
Y886500D02*
D03*
Y846500D02*
D03*
Y826500D02*
D03*
Y806500D02*
D03*
Y786500D02*
D03*
X92500D02*
D03*
Y806500D02*
D03*
Y826500D02*
D03*
Y846500D02*
D03*
Y886500D02*
D03*
Y906500D02*
D03*
Y926500D02*
D03*
Y946500D02*
D03*
Y966500D02*
D03*
X72500Y796500D02*
D03*
Y816500D02*
D03*
Y836500D02*
D03*
Y876500D02*
D03*
Y896500D02*
D03*
Y916500D02*
D03*
Y936500D02*
D03*
Y956500D02*
D03*
D97*
X1232000Y834000D02*
D03*
X72500Y976500D02*
D03*
D98*
X1175000Y686200D02*
D03*
X140000Y170000D02*
D03*
X150000Y765000D02*
D03*
Y866600D02*
D03*
X1310000Y329200D02*
D03*
Y380000D02*
D03*
Y278400D02*
D03*
D99*
X1175000Y711600D02*
D03*
Y737000D02*
D03*
X140000Y144600D02*
D03*
Y119200D02*
D03*
X150000Y841200D02*
D03*
Y815800D02*
D03*
Y790400D02*
D03*
Y892000D02*
D03*
Y917400D02*
D03*
Y942800D02*
D03*
X1310000Y303800D02*
D03*
Y354600D02*
D03*
Y253000D02*
D03*
D100*
X160000Y692000D02*
D03*
Y729000D02*
D03*
Y655000D02*
D03*
X1281000Y131000D02*
D03*
D101*
X134600Y692000D02*
D03*
Y729000D02*
D03*
Y655000D02*
D03*
X1331800Y131000D02*
D03*
X1306400D02*
D03*
D102*
X163000Y390000D02*
D03*
Y351900D02*
D03*
Y313800D02*
D03*
X994500Y1040300D02*
D03*
X1004700Y1022500D02*
D03*
X1014800Y1040300D02*
D03*
X1025000Y1022500D02*
D03*
X1035100Y1040300D02*
D03*
X1045200Y1022500D02*
D03*
X1055400Y1040300D02*
D03*
X1065600Y1022500D02*
D03*
D103*
X158000Y416700D02*
D03*
Y287100D02*
D03*
D104*
X153000Y377300D02*
D03*
Y364600D02*
D03*
Y339200D02*
D03*
Y326500D02*
D03*
D105*
X1220000Y30000D02*
D03*
X1200000Y54000D02*
D03*
Y109000D02*
D03*
X1220000Y146000D02*
D03*
Y91000D02*
D03*
X1000000Y30000D02*
D03*
X980000Y54000D02*
D03*
Y109000D02*
D03*
X1000000Y146000D02*
D03*
Y91000D02*
D03*
X1110000Y30000D02*
D03*
X1090000Y54000D02*
D03*
Y109000D02*
D03*
X1110000Y146000D02*
D03*
Y91000D02*
D03*
X890000Y30000D02*
D03*
X870000Y54000D02*
D03*
Y109000D02*
D03*
X890000Y146000D02*
D03*
Y91000D02*
D03*
D106*
X247136Y1037182D02*
D03*
X302593D02*
D03*
X233378Y1008818D02*
D03*
X219408Y1037182D02*
D03*
X274864D02*
D03*
X288834Y1008818D02*
D03*
X261106D02*
D03*
X205649D02*
D03*
D107*
X316563D02*
D03*
D108*
X104600Y50000D02*
D03*
Y75400D02*
D03*
X130000D02*
D03*
D109*
Y50000D02*
D03*
D110*
X1300000Y802600D02*
D03*
Y853400D02*
D03*
Y904200D02*
D03*
D111*
Y955000D02*
D03*
D112*
X422500Y27550D02*
D03*
X377500D02*
D03*
X322500D02*
D03*
X277500D02*
D03*
X222500D02*
D03*
X177500D02*
D03*
D113*
X435050Y52450D02*
D03*
X364950D02*
D03*
X335050D02*
D03*
X264950D02*
D03*
X235050D02*
D03*
X164950D02*
D03*
D114*
X1111300Y1031400D02*
D03*
X948700D02*
D03*
D115*
X1093500Y1065700D02*
D03*
X966500D02*
D03*
D116*
X984300Y974300D02*
D03*
X961400D02*
D03*
X1075700D02*
D03*
X1098600D02*
D03*
D117*
X630700Y943600D02*
D03*
X499300D02*
D03*
X630700Y1000400D02*
D03*
X499300D02*
D03*
D118*
X600000Y973300D02*
D03*
X575000D02*
D03*
X555000D02*
D03*
X530000Y947100D02*
D03*
X555000D02*
D03*
X575000D02*
D03*
X600000D02*
D03*
X530000Y973300D02*
D03*
D119*
X720500Y999000D02*
D03*
X865500D02*
D03*
D120*
Y1058600D02*
D03*
X720500D02*
D03*
D121*
X52000Y717250D02*
D03*
Y672750D02*
D03*
D122*
X22000Y733120D02*
D03*
Y656880D02*
D03*
D123*
X440000Y150000D02*
D03*
D124*
X414600D02*
D03*
X389200D02*
D03*
X363800D02*
D03*
X338400D02*
D03*
X313000D02*
D03*
X287600D02*
D03*
X262200D02*
D03*
X236800D02*
D03*
X211400D02*
D03*
X440000Y124600D02*
D03*
X414600D02*
D03*
X389200D02*
D03*
X363800D02*
D03*
X338400D02*
D03*
X313000D02*
D03*
X287600D02*
D03*
X262200D02*
D03*
X236800D02*
D03*
X211400D02*
D03*
D125*
X826700Y597500D02*
D03*
X120000Y187000D02*
D03*
X120500Y254500D02*
D03*
X1148000Y674000D02*
D03*
X229000Y297000D02*
D03*
X1077500Y325000D02*
D03*
X306000Y226000D02*
D03*
X1266000Y328000D02*
D03*
X955000Y254000D02*
D03*
X543000Y672000D02*
D03*
X166000Y133000D02*
D03*
X152000Y85000D02*
D03*
X170000Y75000D02*
D03*
Y85000D02*
D03*
X925000Y947000D02*
D03*
X1050200Y916000D02*
D03*
X1029400D02*
D03*
X1012100D02*
D03*
X991300D02*
D03*
X953200Y912000D02*
D03*
X974000D02*
D03*
X1182000Y648000D02*
D03*
X804000Y89000D02*
D03*
X501000Y296000D02*
D03*
X91000Y433000D02*
D03*
X602000Y174000D02*
D03*
X736000Y315000D02*
D03*
X682000D02*
D03*
X1201000Y882000D02*
D03*
X1189000D02*
D03*
X966850Y917000D02*
D03*
X960350D02*
D03*
X928750Y938000D02*
D03*
X922250D02*
D03*
X726000Y860000D02*
D03*
X886000Y962000D02*
D03*
X1004950Y911000D02*
D03*
X998450D02*
D03*
X1036550D02*
D03*
X1043050D02*
D03*
X963000Y686000D02*
D03*
X915000Y651000D02*
D03*
X788000Y713000D02*
D03*
X793500Y720000D02*
D03*
X800000Y720000D02*
D03*
X1022000Y632000D02*
D03*
X1015500D02*
D03*
X1021000Y709000D02*
D03*
X959500Y694500D02*
D03*
X966000Y694500D02*
D03*
X832500Y677000D02*
D03*
Y683000D02*
D03*
X776000Y681500D02*
D03*
X762442Y841442D02*
D03*
X768942D02*
D03*
X776000Y675000D02*
D03*
X827500Y668000D02*
D03*
X786500Y832000D02*
D03*
X827500Y662000D02*
D03*
X793000Y832000D02*
D03*
X889300Y668000D02*
D03*
X735000Y860000D02*
D03*
X889300Y662000D02*
D03*
X735000Y853500D02*
D03*
X900000Y651500D02*
D03*
X756250Y887000D02*
D03*
X900000Y658000D02*
D03*
X749750Y887000D02*
D03*
X643000Y399000D02*
D03*
X621000D02*
D03*
X481000Y683000D02*
D03*
Y676500D02*
D03*
X562500Y677000D02*
D03*
X424000Y643000D02*
D03*
X562500Y683000D02*
D03*
X424000Y649000D02*
D03*
X586300Y668000D02*
D03*
X456000Y649250D02*
D03*
X586300Y662000D02*
D03*
X456000Y642750D02*
D03*
X479000Y644000D02*
D03*
X462000Y705000D02*
D03*
X376000Y654000D02*
D03*
X472000Y638000D02*
D03*
X440000D02*
D03*
X408000D02*
D03*
X459000Y494000D02*
D03*
X378500Y530000D02*
D03*
X148000Y231000D02*
D03*
X385000Y530000D02*
D03*
X148000Y224500D02*
D03*
X392000Y544500D02*
D03*
X154000Y202000D02*
D03*
X392000Y538000D02*
D03*
X154000Y208500D02*
D03*
X124000Y305500D02*
D03*
Y312000D02*
D03*
X354904Y568096D02*
D03*
X136000Y447000D02*
D03*
X359500Y563500D02*
D03*
X142500Y447000D02*
D03*
X385000Y554000D02*
D03*
X126000Y268000D02*
D03*
X378500Y554000D02*
D03*
X126000Y274500D02*
D03*
X352000Y582500D02*
D03*
Y589000D02*
D03*
X844000Y486000D02*
D03*
X689000Y524000D02*
D03*
X1086000Y854000D02*
D03*
X1070000Y860000D02*
D03*
Y826000D02*
D03*
X1077000Y930000D02*
D03*
X1136000Y660000D02*
D03*
X814000Y366000D02*
D03*
X684000Y374000D02*
D03*
X620000Y292000D02*
D03*
X564000Y337000D02*
D03*
X454000Y337000D02*
D03*
X222000Y336000D02*
D03*
X276000Y246000D02*
D03*
X266000D02*
D03*
X462000Y337000D02*
D03*
X222000Y328000D02*
D03*
X334000Y329000D02*
D03*
X879000Y438000D02*
D03*
X889000Y446000D02*
D03*
X705000Y499000D02*
D03*
X695000Y491000D02*
D03*
X91000Y443000D02*
D03*
X223000Y827000D02*
D03*
X242000Y778000D02*
D03*
X485000Y777000D02*
D03*
X458000Y789000D02*
D03*
X595000Y787000D02*
D03*
X563000Y857000D02*
D03*
X595000Y795000D02*
D03*
X1004500Y302500D02*
D03*
X1004000Y329000D02*
D03*
X787000Y792000D02*
D03*
Y782000D02*
D03*
X805000Y827000D02*
D03*
X36000Y302000D02*
D03*
Y292000D02*
D03*
X40000Y246000D02*
D03*
Y236000D02*
D03*
Y146000D02*
D03*
X31000D02*
D03*
X390000Y350000D02*
D03*
X661000Y380000D02*
D03*
X327000Y291000D02*
D03*
X383000D02*
D03*
X512000Y343000D02*
D03*
X805500Y622500D02*
D03*
X613000Y190000D02*
D03*
X1098000Y720600D02*
D03*
X1098000Y793000D02*
D03*
X1120000Y770000D02*
D03*
X1160000Y781000D02*
D03*
X1153500Y835500D02*
D03*
X957000Y294500D02*
D03*
X989000Y349000D02*
D03*
X1190000Y264000D02*
D03*
X1228500Y248500D02*
D03*
X1266000Y248000D02*
D03*
X1252000Y233000D02*
D03*
X1154000Y400000D02*
D03*
X1148000Y383000D02*
D03*
X1127000Y348000D02*
D03*
X1085000D02*
D03*
X296000Y549200D02*
D03*
X1173000Y381000D02*
D03*
X1140000Y348000D02*
D03*
X1099000Y348000D02*
D03*
X1061000Y331000D02*
D03*
X914000Y337000D02*
D03*
X947000Y280000D02*
D03*
X879000Y183000D02*
D03*
X947000Y452000D02*
D03*
X912150Y448250D02*
D03*
X949000Y407500D02*
D03*
Y417500D02*
D03*
X980000Y411000D02*
D03*
X535000Y350000D02*
D03*
X591000Y184000D02*
D03*
X480000Y132000D02*
D03*
X718000Y368000D02*
D03*
X439750Y473250D02*
D03*
X428750Y473250D02*
D03*
X417750Y501250D02*
D03*
X404750Y473250D02*
D03*
X490000Y484000D02*
D03*
X368000Y469000D02*
D03*
X662000Y741000D02*
D03*
X642000Y705000D02*
D03*
X599000Y889000D02*
D03*
X907000Y899000D02*
D03*
X768000Y891000D02*
D03*
X192000Y829000D02*
D03*
X352999Y506999D02*
D03*
X320000Y529000D02*
D03*
X606000Y791000D02*
D03*
X299000Y557000D02*
D03*
X1158500Y762500D02*
D03*
X780000Y366000D02*
D03*
X748000D02*
D03*
X398000Y336000D02*
D03*
X296000Y532800D02*
D03*
X395750Y473250D02*
D03*
X808000Y283000D02*
D03*
X796000Y366000D02*
D03*
X708000D02*
D03*
X580000Y381000D02*
D03*
X620000Y367000D02*
D03*
X644000D02*
D03*
X776000Y284000D02*
D03*
X752000Y254000D02*
D03*
X696000Y284000D02*
D03*
X672000D02*
D03*
X664000D02*
D03*
X640000D02*
D03*
X632000D02*
D03*
X608000D02*
D03*
X560000Y178000D02*
D03*
X426000Y284000D02*
D03*
X402000D02*
D03*
X806000Y366000D02*
D03*
X624000Y284000D02*
D03*
X616000D02*
D03*
X572000Y337000D02*
D03*
X373000Y291000D02*
D03*
X341000D02*
D03*
X363000D02*
D03*
X349000D02*
D03*
X327000Y467000D02*
D03*
Y476000D02*
D03*
X462000Y484000D02*
D03*
X221000Y371000D02*
D03*
X358000Y336000D02*
D03*
X334000Y337000D02*
D03*
X274000Y254000D02*
D03*
X266000D02*
D03*
X346000Y284000D02*
D03*
X322000Y284000D02*
D03*
X314000D02*
D03*
X258000Y253000D02*
D03*
X282000Y253000D02*
D03*
X290000Y284000D02*
D03*
X446000Y336000D02*
D03*
X326000D02*
D03*
X230000D02*
D03*
X294000Y366000D02*
D03*
X270000Y336000D02*
D03*
X489498Y173498D02*
D03*
X538000Y194000D02*
D03*
X737000Y205000D02*
D03*
X741000Y198000D02*
D03*
X723000Y190000D02*
D03*
X737000Y229000D02*
D03*
X703000Y237000D02*
D03*
X627000Y255000D02*
D03*
X619000Y227000D02*
D03*
X608000Y231000D02*
D03*
X766500Y239500D02*
D03*
X718500Y237500D02*
D03*
X699000Y244500D02*
D03*
X691000Y254500D02*
D03*
X683000Y254500D02*
D03*
X675000Y254500D02*
D03*
X683000Y244500D02*
D03*
X675000Y244500D02*
D03*
X710000Y190000D02*
D03*
X687000D02*
D03*
X664000D02*
D03*
X608000Y206000D02*
D03*
X631000Y190000D02*
D03*
X591000Y210000D02*
D03*
X518000Y123000D02*
D03*
X508000D02*
D03*
X498000D02*
D03*
X492000Y19000D02*
D03*
X512000D02*
D03*
X532000D02*
D03*
X556000D02*
D03*
X450000Y27000D02*
D03*
X440000Y78000D02*
D03*
X610000Y118000D02*
D03*
X601000Y50000D02*
D03*
X591000Y9000D02*
D03*
Y24000D02*
D03*
X455000Y8000D02*
D03*
X477000D02*
D03*
X430000Y78000D02*
D03*
X430000Y184000D02*
D03*
X384000Y92000D02*
D03*
X408000Y68000D02*
D03*
X300000Y68000D02*
D03*
X218000Y75000D02*
D03*
X186000Y85000D02*
D03*
X343000Y216000D02*
D03*
X350000Y233000D02*
D03*
X280000Y200000D02*
D03*
X314500Y211500D02*
D03*
X186000Y75000D02*
D03*
X303000Y191000D02*
D03*
X422500Y698500D02*
D03*
X364000Y718000D02*
D03*
X384500Y709500D02*
D03*
X461000Y722000D02*
D03*
X351000Y777000D02*
D03*
X421000Y737000D02*
D03*
X407000D02*
D03*
X323050Y792050D02*
D03*
X347000Y848000D02*
D03*
X331000D02*
D03*
X401500Y890000D02*
D03*
X316000Y949000D02*
D03*
X316000Y961000D02*
D03*
X311000Y955000D02*
D03*
X243500Y963000D02*
D03*
X248500Y958750D02*
D03*
X238500D02*
D03*
X233500Y963000D02*
D03*
X311000Y943000D02*
D03*
X339000Y969000D02*
D03*
X349000D02*
D03*
X246000Y934000D02*
D03*
X236000D02*
D03*
X295000Y936000D02*
D03*
X288000Y899000D02*
D03*
Y885000D02*
D03*
X18000Y1000000D02*
D03*
X347000Y909000D02*
D03*
X338000Y920000D02*
D03*
X356000D02*
D03*
Y898000D02*
D03*
X305000Y879000D02*
D03*
X52000Y1001000D02*
D03*
X80000Y1000000D02*
D03*
X10000Y925000D02*
D03*
X420000Y196000D02*
D03*
X325000Y84000D02*
D03*
X540000Y123000D02*
D03*
X612000Y381000D02*
D03*
X54000Y154000D02*
D03*
X350000Y336000D02*
D03*
X684000Y1004000D02*
D03*
X479000Y722000D02*
D03*
X570000Y231000D02*
D03*
X563000Y267000D02*
D03*
X310000Y371000D02*
D03*
X171000Y231000D02*
D03*
X165000Y227000D02*
D03*
X302000Y377000D02*
D03*
X400000Y847000D02*
D03*
X410000Y847000D02*
D03*
X247000Y701000D02*
D03*
X532700Y562500D02*
D03*
Y577500D02*
D03*
X458000Y254000D02*
D03*
X486500Y652500D02*
D03*
X674000Y1004000D02*
D03*
X229000Y715000D02*
D03*
X803000Y598000D02*
D03*
X806000Y382000D02*
D03*
X342000Y366000D02*
D03*
X692000Y376000D02*
D03*
X911000Y372000D02*
D03*
X793000Y252000D02*
D03*
X788000Y306000D02*
D03*
X600000Y216000D02*
D03*
X795000Y591000D02*
D03*
X867300Y597500D02*
D03*
X458500Y757500D02*
D03*
X889600Y562500D02*
D03*
X528700Y597500D02*
D03*
X522700Y592500D02*
D03*
X895000Y503000D02*
D03*
Y511000D02*
D03*
X1007000Y576000D02*
D03*
X1004000Y583000D02*
D03*
X557300Y642500D02*
D03*
X786000Y693000D02*
D03*
X767000Y723000D02*
D03*
X808000Y912000D02*
D03*
X813000Y924000D02*
D03*
X818000Y918000D02*
D03*
X823000Y912000D02*
D03*
X922000Y636000D02*
D03*
X928000Y644000D02*
D03*
X867300Y657500D02*
D03*
X1081000Y526250D02*
D03*
Y532750D02*
D03*
X838000Y246000D02*
D03*
X848000Y253000D02*
D03*
X831000Y228000D02*
D03*
X821000Y253000D02*
D03*
X1145500Y407500D02*
D03*
X1139500Y402500D02*
D03*
X1133500Y397500D02*
D03*
Y407500D02*
D03*
X693000Y625000D02*
D03*
X714000Y599000D02*
D03*
X708000Y606000D02*
D03*
X697000Y611000D02*
D03*
X501500Y627500D02*
D03*
X493000Y627500D02*
D03*
X501500Y637500D02*
D03*
X484500Y627500D02*
D03*
X879000Y446000D02*
D03*
X1036500Y358000D02*
D03*
X1036500Y348500D02*
D03*
X1024500D02*
D03*
X1014500Y351500D02*
D03*
X1049500Y336500D02*
D03*
Y320500D02*
D03*
Y328500D02*
D03*
X559300Y562500D02*
D03*
X828000Y1007900D02*
D03*
X798000D02*
D03*
X783000D02*
D03*
X768000D02*
D03*
X753000D02*
D03*
X783000Y969000D02*
D03*
X753000D02*
D03*
X798000Y948000D02*
D03*
X768000D02*
D03*
X743000D02*
D03*
Y891000D02*
D03*
X753000Y912000D02*
D03*
X783000D02*
D03*
X798000Y891000D02*
D03*
X832800Y572500D02*
D03*
X359500Y871500D02*
D03*
X385500Y896500D02*
D03*
Y906500D02*
D03*
Y916500D02*
D03*
X366500Y876500D02*
D03*
X379500Y901500D02*
D03*
Y911500D02*
D03*
Y921500D02*
D03*
X861200Y572500D02*
D03*
X867300Y577500D02*
D03*
X861200Y582500D02*
D03*
X867300Y587500D02*
D03*
X832800Y582500D02*
D03*
X826700Y577500D02*
D03*
Y587500D02*
D03*
X800000Y579000D02*
D03*
X772000Y629000D02*
D03*
X866200Y622500D02*
D03*
X893000Y616000D02*
D03*
X495000Y181000D02*
D03*
X860300Y627500D02*
D03*
X516000Y173000D02*
D03*
X505000Y181000D02*
D03*
X582000Y153000D02*
D03*
Y143000D02*
D03*
X543000Y204000D02*
D03*
X783000Y629000D02*
D03*
X563300Y637500D02*
D03*
X527700Y672500D02*
D03*
X533700Y667500D02*
D03*
X551300Y617500D02*
D03*
X495500Y612500D02*
D03*
X489000Y617500D02*
D03*
X501500Y607500D02*
D03*
X557300Y612500D02*
D03*
X416000Y890000D02*
D03*
X1127250Y514250D02*
D03*
X1082000Y652000D02*
D03*
X493000Y657500D02*
D03*
X501500Y657500D02*
D03*
X37000Y745000D02*
D03*
X102000Y703000D02*
D03*
X19000Y711000D02*
D03*
Y702000D02*
D03*
Y688000D02*
D03*
Y678000D02*
D03*
X60000Y682000D02*
D03*
X65000Y656000D02*
D03*
X103000Y686000D02*
D03*
X55000Y648000D02*
D03*
Y639000D02*
D03*
X199000Y763000D02*
D03*
X167000Y921000D02*
D03*
X215000Y827000D02*
D03*
X207000Y763000D02*
D03*
X336000Y574000D02*
D03*
X320000Y587000D02*
D03*
X314000Y570000D02*
D03*
X55000Y443000D02*
D03*
Y433000D02*
D03*
Y423000D02*
D03*
X65000D02*
D03*
X263000Y519000D02*
D03*
X296000Y525000D02*
D03*
X326000Y540000D02*
D03*
X325000Y570000D02*
D03*
X118500Y327500D02*
D03*
Y177500D02*
D03*
Y165000D02*
D03*
X59000Y280000D02*
D03*
X79000D02*
D03*
X58000Y220000D02*
D03*
X78000D02*
D03*
X32984Y197000D02*
D03*
X16000Y113000D02*
D03*
X86000Y168000D02*
D03*
X96000D02*
D03*
X117000Y93000D02*
D03*
X107000D02*
D03*
X53000Y109000D02*
D03*
Y99000D02*
D03*
X144000Y194000D02*
D03*
X166000Y184000D02*
D03*
X173000D02*
D03*
X147250Y239750D02*
D03*
X178750Y226750D02*
D03*
Y220250D02*
D03*
X177000Y191000D02*
D03*
X218000Y183000D02*
D03*
X242000D02*
D03*
X273000Y191000D02*
D03*
X817000Y328000D02*
D03*
X704000Y315000D02*
D03*
X715000D02*
D03*
X694000D02*
D03*
X725000D02*
D03*
X652000Y366000D02*
D03*
X660000Y366000D02*
D03*
X684000Y366000D02*
D03*
X676000D02*
D03*
X596000Y906500D02*
D03*
X600000Y1016000D02*
D03*
X709000Y963000D02*
D03*
X716000Y946000D02*
D03*
Y922000D02*
D03*
X710000Y912000D02*
D03*
X717000Y895000D02*
D03*
X714000Y884000D02*
D03*
X818000Y947000D02*
D03*
X813000Y941000D02*
D03*
X833000Y975000D02*
D03*
X823000D02*
D03*
X813000D02*
D03*
X818000Y971000D02*
D03*
X853000Y926500D02*
D03*
X860000Y948000D02*
D03*
X860000Y962000D02*
D03*
X678000Y780000D02*
D03*
X652000Y777000D02*
D03*
X634000Y769000D02*
D03*
X698000Y741000D02*
D03*
Y765000D02*
D03*
X735000D02*
D03*
X664000Y682000D02*
D03*
X584500Y687500D02*
D03*
X501500D02*
D03*
X667500Y705000D02*
D03*
X661500Y705000D02*
D03*
X682000Y705000D02*
D03*
X626000Y741000D02*
D03*
X701000Y780000D02*
D03*
X725000Y796000D02*
D03*
X687000Y797000D02*
D03*
X624000Y791000D02*
D03*
X722000Y804000D02*
D03*
X725000Y765000D02*
D03*
X718000Y742000D02*
D03*
Y726000D02*
D03*
X714000Y710000D02*
D03*
X709000Y848000D02*
D03*
X647000Y753000D02*
D03*
X662000D02*
D03*
X647000Y741000D02*
D03*
X662000Y729000D02*
D03*
X677000Y741000D02*
D03*
Y729000D02*
D03*
Y753000D02*
D03*
X647000Y729000D02*
D03*
X576000Y710000D02*
D03*
Y727000D02*
D03*
X604000Y724000D02*
D03*
X596000D02*
D03*
X698000Y721000D02*
D03*
X739000Y711000D02*
D03*
X757000Y801000D02*
D03*
X758000Y815000D02*
D03*
X1124000Y991000D02*
D03*
X904000Y971000D02*
D03*
X913000D02*
D03*
X990000Y716000D02*
D03*
X1066000D02*
D03*
X1252000Y865000D02*
D03*
X1202000Y801000D02*
D03*
X1199000Y793000D02*
D03*
X1215000Y791000D02*
D03*
X1199000Y786000D02*
D03*
X1178500Y762500D02*
D03*
X1130000Y728000D02*
D03*
X1147000Y736000D02*
D03*
X1198500Y808500D02*
D03*
X1178500Y825500D02*
D03*
X1217000Y847000D02*
D03*
X1210000Y853000D02*
D03*
X1139000Y859000D02*
D03*
X1131000Y854000D02*
D03*
X1120000Y806000D02*
D03*
Y814000D02*
D03*
Y838000D02*
D03*
Y828350D02*
D03*
X1108000Y794000D02*
D03*
X1108000Y778000D02*
D03*
X1129000Y745000D02*
D03*
X1095000D02*
D03*
X1098000Y828350D02*
D03*
Y814600D02*
D03*
Y840000D02*
D03*
Y733300D02*
D03*
X1119650Y708000D02*
D03*
X1098000Y801950D02*
D03*
X390000Y502000D02*
D03*
X551300Y627500D02*
D03*
X557300Y622500D02*
D03*
X501500Y617500D02*
D03*
X528700Y622500D02*
D03*
X318000Y393000D02*
D03*
X328000Y378000D02*
D03*
X365000Y344000D02*
D03*
X462000Y364000D02*
D03*
X424000Y411000D02*
D03*
X414000D02*
D03*
X502000Y392000D02*
D03*
X442000Y418000D02*
D03*
X464000Y457000D02*
D03*
X453000Y436000D02*
D03*
X1187000Y827000D02*
D03*
X1186000Y759000D02*
D03*
X1043000Y762000D02*
D03*
Y834000D02*
D03*
X1175000Y621000D02*
D03*
X1182000Y637000D02*
D03*
X1165000Y640050D02*
D03*
X1090000D02*
D03*
Y627350D02*
D03*
X1206000Y597000D02*
D03*
X1192000Y596000D02*
D03*
X1136000Y584000D02*
D03*
X1152000Y584000D02*
D03*
X1175000Y589000D02*
D03*
X1225000Y551000D02*
D03*
X1097000Y588000D02*
D03*
X1055000Y489000D02*
D03*
Y537000D02*
D03*
X1086000Y489000D02*
D03*
X1190000Y524000D02*
D03*
X1198000Y530000D02*
D03*
X1127250Y520750D02*
D03*
X1119000Y519750D02*
D03*
X1147000Y415000D02*
D03*
X1072000Y479000D02*
D03*
X1106000Y467000D02*
D03*
X1092000D02*
D03*
X1078000D02*
D03*
X1171000Y357000D02*
D03*
X1173000Y370000D02*
D03*
X1084500Y372500D02*
D03*
X1252000Y328000D02*
D03*
X1245000Y341000D02*
D03*
X1259000D02*
D03*
X1273000Y317000D02*
D03*
X1264500Y304000D02*
D03*
X1264500Y294500D02*
D03*
X1133500Y417500D02*
D03*
X1129000Y434000D02*
D03*
X1266000Y239000D02*
D03*
X1280000Y254000D02*
D03*
X1310000Y229000D02*
D03*
X1113000Y365000D02*
D03*
X1092500Y372500D02*
D03*
X1222000Y360000D02*
D03*
X1215000Y344000D02*
D03*
X1218500Y248500D02*
D03*
X1209000Y248500D02*
D03*
X1222000Y218000D02*
D03*
X1174000Y333000D02*
D03*
X1180000Y299000D02*
D03*
X1180000Y291000D02*
D03*
X1182000Y264000D02*
D03*
X1167000Y307000D02*
D03*
X1169000Y284000D02*
D03*
X1169000Y271000D02*
D03*
X1170500Y263000D02*
D03*
X1186000Y222000D02*
D03*
X1170000Y222000D02*
D03*
X1167000Y323000D02*
D03*
X1199000Y317000D02*
D03*
X1280000Y302000D02*
D03*
X1046000Y388000D02*
D03*
X1250000Y366000D02*
D03*
X1250000Y380000D02*
D03*
X1040000Y423000D02*
D03*
X1040000Y437000D02*
D03*
X1046000Y375000D02*
D03*
X1137000Y432000D02*
D03*
X1064000Y467000D02*
D03*
X977000Y424500D02*
D03*
X991000Y444000D02*
D03*
X1089000Y418000D02*
D03*
X1115000D02*
D03*
X1089500Y391500D02*
D03*
X1115000Y392000D02*
D03*
X1102000Y405000D02*
D03*
X996000Y411000D02*
D03*
X975000Y261000D02*
D03*
X1026000Y246000D02*
D03*
X978000D02*
D03*
X1035000Y199000D02*
D03*
X1001000D02*
D03*
X1001000Y175000D02*
D03*
X1035000D02*
D03*
X1043000Y168000D02*
D03*
X1091000D02*
D03*
X1091000Y196000D02*
D03*
X1050000Y233000D02*
D03*
X1084000D02*
D03*
X883000Y198000D02*
D03*
X931000D02*
D03*
X940000Y254000D02*
D03*
X891000Y254000D02*
D03*
X890000Y282000D02*
D03*
X1105500Y480000D02*
D03*
X879000Y423000D02*
D03*
X885000Y416000D02*
D03*
X885000Y399000D02*
D03*
X879000Y407000D02*
D03*
X898000Y275000D02*
D03*
X958000Y324000D02*
D03*
Y309000D02*
D03*
X949000Y315000D02*
D03*
Y289000D02*
D03*
X972000Y316000D02*
D03*
X957000Y282000D02*
D03*
X989000Y371000D02*
D03*
X1100500Y316000D02*
D03*
X983000Y166000D02*
D03*
X935000Y183000D02*
D03*
X998000Y420000D02*
D03*
Y432000D02*
D03*
X1036000Y486000D02*
D03*
X1042000Y477000D02*
D03*
X1030000Y470000D02*
D03*
X1050000Y449000D02*
D03*
X966000Y466000D02*
D03*
X976000Y466000D02*
D03*
X988000Y466000D02*
D03*
X1021000Y455000D02*
D03*
X1142000Y486000D02*
D03*
X1131000D02*
D03*
X1231000Y281000D02*
D03*
X1242000Y270000D02*
D03*
X1220000D02*
D03*
X1242000Y292000D02*
D03*
X1220000D02*
D03*
X954000Y372000D02*
D03*
X940000Y363500D02*
D03*
X955000Y452000D02*
D03*
X850000Y479000D02*
D03*
X886000Y378000D02*
D03*
X1148000Y686000D02*
D03*
X1062000Y603000D02*
D03*
X1074000Y581000D02*
D03*
X1038000Y603000D02*
D03*
X1027500Y567500D02*
D03*
X526000Y305000D02*
D03*
X555000Y331000D02*
D03*
X559000Y318000D02*
D03*
X549000Y317000D02*
D03*
X518000D02*
D03*
X521000Y343000D02*
D03*
X503000Y351000D02*
D03*
X549000Y350000D02*
D03*
X580000Y366000D02*
D03*
X557000Y385000D02*
D03*
X1119000Y532750D02*
D03*
X1013000Y521000D02*
D03*
X912150Y537150D02*
D03*
Y524450D02*
D03*
X905000Y552000D02*
D03*
X912150Y562550D02*
D03*
X947850Y549850D02*
D03*
X911150Y384750D02*
D03*
X460000Y1055000D02*
D03*
X441500Y890500D02*
D03*
X1257000Y469000D02*
D03*
X981000Y444000D02*
D03*
X906000Y496500D02*
D03*
X805000Y516000D02*
D03*
Y526000D02*
D03*
X785000Y516000D02*
D03*
X847000Y535000D02*
D03*
Y546000D02*
D03*
Y585000D02*
D03*
Y611000D02*
D03*
Y652000D02*
D03*
Y663000D02*
D03*
Y709000D02*
D03*
Y719000D02*
D03*
X1164500Y552500D02*
D03*
X884500Y492500D02*
D03*
X674000Y479000D02*
D03*
X674000Y496000D02*
D03*
X684000Y511000D02*
D03*
X900000Y389000D02*
D03*
X814000Y43000D02*
D03*
Y99000D02*
D03*
X354500Y941500D02*
D03*
X340000Y960000D02*
D03*
X359500Y946500D02*
D03*
X365500Y941500D02*
D03*
X346500Y993750D02*
D03*
X351500Y998000D02*
D03*
X341500D02*
D03*
X336500Y993750D02*
D03*
X417000Y777000D02*
D03*
X461000Y712000D02*
D03*
X1139000Y198000D02*
D03*
X1146000Y161000D02*
D03*
X1182000Y440000D02*
D03*
X1096000Y503000D02*
D03*
X1145000Y550000D02*
D03*
X1137000Y557000D02*
D03*
X1286000Y764000D02*
D03*
X1160000Y807000D02*
D03*
X1176000Y807000D02*
D03*
Y781000D02*
D03*
X1279000Y770000D02*
D03*
Y780000D02*
D03*
X1159000Y863000D02*
D03*
X1174000D02*
D03*
X835000Y802000D02*
D03*
X813000Y827000D02*
D03*
X835000Y792000D02*
D03*
X546000Y787000D02*
D03*
X458000Y782000D02*
D03*
X449000Y845000D02*
D03*
Y836000D02*
D03*
X485000Y787000D02*
D03*
X963000Y417500D02*
D03*
Y407500D02*
D03*
X1015000Y366000D02*
D03*
X914000Y299000D02*
D03*
X914250Y260750D02*
D03*
X820000Y290000D02*
D03*
X821000Y266000D02*
D03*
X528000Y277000D02*
D03*
Y266000D02*
D03*
X502000Y279000D02*
D03*
X209000Y282000D02*
D03*
Y268000D02*
D03*
X1044000Y196000D02*
D03*
X769000Y614000D02*
D03*
X910000Y599000D02*
D03*
X654000Y232000D02*
D03*
X641000Y243000D02*
D03*
X654000D02*
D03*
X641000Y232000D02*
D03*
X600000Y231000D02*
D03*
X594000Y130000D02*
D03*
X528000Y178000D02*
D03*
X646000Y385000D02*
D03*
X543000Y721000D02*
D03*
Y644000D02*
D03*
Y697000D02*
D03*
X847000Y574000D02*
D03*
Y637000D02*
D03*
X543000Y583000D02*
D03*
Y573000D02*
D03*
Y611000D02*
D03*
Y534000D02*
D03*
Y544000D02*
D03*
X118500Y360500D02*
D03*
X117000Y215000D02*
D03*
X119000Y290000D02*
D03*
X462000Y474000D02*
D03*
X124000Y879000D02*
D03*
X124000Y839000D02*
D03*
X114000D02*
D03*
X542000Y299000D02*
D03*
X185000Y676000D02*
D03*
X118500Y352500D02*
D03*
Y340000D02*
D03*
X172000Y202000D02*
D03*
X195000Y165000D02*
D03*
X262000Y366000D02*
D03*
X254000D02*
D03*
X246000D02*
D03*
X218000Y398000D02*
D03*
X262000Y376000D02*
D03*
X299000Y217000D02*
D03*
X254000Y382000D02*
D03*
X201000Y309000D02*
D03*
X242000Y788000D02*
D03*
X471000Y1040000D02*
D03*
X808000Y296000D02*
D03*
X956000Y464000D02*
D03*
X859000Y496000D02*
D03*
X1031000Y499000D02*
D03*
X738000Y355000D02*
D03*
X561000Y222000D02*
D03*
X491000Y55000D02*
D03*
X831000Y486000D02*
D03*
X511000Y286000D02*
D03*
X814000Y241000D02*
D03*
X513000Y377000D02*
D03*
X503000D02*
D03*
Y367000D02*
D03*
X611500Y669150D02*
D03*
X462000Y354000D02*
D03*
X538000Y454000D02*
D03*
X489000Y387000D02*
D03*
X135000Y637000D02*
D03*
X424000Y890000D02*
D03*
X549000Y752000D02*
D03*
X539000D02*
D03*
X935000Y716000D02*
D03*
X837000Y657000D02*
D03*
X867300Y687500D02*
D03*
X855300Y672500D02*
D03*
X704000Y677000D02*
D03*
X670000D02*
D03*
X697000Y655000D02*
D03*
X688000Y659000D02*
D03*
X732000Y702000D02*
D03*
X726000Y697000D02*
D03*
X738000Y687000D02*
D03*
X719000D02*
D03*
X724000Y677000D02*
D03*
X728000Y657000D02*
D03*
X724000Y667000D02*
D03*
X714000Y677000D02*
D03*
X1198000Y632000D02*
D03*
X510000Y317000D02*
D03*
X1176000Y173000D02*
D03*
Y162000D02*
D03*
X1187000D02*
D03*
X1017000Y316000D02*
D03*
X1030000Y303000D02*
D03*
Y329000D02*
D03*
X1056000Y635000D02*
D03*
X557000Y852000D02*
D03*
X546000Y777000D02*
D03*
X676000Y672000D02*
D03*
X552000Y896000D02*
D03*
X572000Y858000D02*
D03*
X578000D02*
D03*
X367000Y359000D02*
D03*
X549000Y360000D02*
D03*
X535000D02*
D03*
X1121000Y471500D02*
D03*
X125000Y931000D02*
D03*
X113000D02*
D03*
Y953000D02*
D03*
X125000D02*
D03*
X218000Y704000D02*
D03*
X185000Y684000D02*
D03*
X189000Y850000D02*
D03*
X338000Y898000D02*
D03*
X477000Y821000D02*
D03*
X202000Y676000D02*
D03*
Y684000D02*
D03*
X261000Y796500D02*
D03*
Y803500D02*
D03*
X434500Y738500D02*
D03*
X354000Y739000D02*
D03*
X395000Y628000D02*
D03*
X306000Y283000D02*
D03*
X389000Y628000D02*
D03*
X298000Y283000D02*
D03*
X389000Y664000D02*
D03*
X395000D02*
D03*
X443000Y671000D02*
D03*
Y677000D02*
D03*
X392000Y649000D02*
D03*
X455000Y700000D02*
D03*
X392000Y643000D02*
D03*
X455000Y694000D02*
D03*
X418000Y283000D02*
D03*
X459250Y628000D02*
D03*
X410000Y283000D02*
D03*
X452750Y628000D02*
D03*
X330000Y283000D02*
D03*
X421000Y628000D02*
D03*
X338000Y283000D02*
D03*
X427000Y628000D02*
D03*
X234000Y85000D02*
D03*
X436000Y423000D02*
D03*
X419000Y418000D02*
D03*
X538000Y444000D02*
D03*
X509000Y482000D02*
D03*
Y398000D02*
D03*
X484000Y377000D02*
D03*
X359000Y469000D02*
D03*
X401000Y466000D02*
D03*
X479000Y437000D02*
D03*
Y446000D02*
D03*
X452000Y445000D02*
D03*
X398000Y502000D02*
D03*
X627750Y468000D02*
D03*
X551500Y692000D02*
D03*
X634250Y468000D02*
D03*
X551500Y698000D02*
D03*
X627750Y438000D02*
D03*
X523500Y692000D02*
D03*
X634250Y438000D02*
D03*
X523500Y698000D02*
D03*
X592000Y471250D02*
D03*
Y464750D02*
D03*
X563000Y441250D02*
D03*
Y434750D02*
D03*
X627000Y453000D02*
D03*
X641000Y483000D02*
D03*
X621000D02*
D03*
X627000Y424000D02*
D03*
X638000D02*
D03*
X592000Y456000D02*
D03*
Y480000D02*
D03*
X563000Y427000D02*
D03*
Y450000D02*
D03*
X795500Y622500D02*
D03*
X576000Y148000D02*
D03*
X535000Y204000D02*
D03*
X857300Y617500D02*
D03*
X430000Y337000D02*
D03*
X430000Y329000D02*
D03*
X780000Y374000D02*
D03*
X838000Y467000D02*
D03*
X795000Y516000D02*
D03*
X826000Y462000D02*
D03*
X982000Y459000D02*
D03*
X950000Y471000D02*
D03*
X1030000Y455000D02*
D03*
X891000Y344000D02*
D03*
X693000Y637000D02*
D03*
X702000Y596000D02*
D03*
X842000Y475000D02*
D03*
X1047000Y484000D02*
D03*
X709000Y667000D02*
D03*
X730000Y687000D02*
D03*
X718000Y657000D02*
D03*
X601300Y647000D02*
D03*
X310000Y660000D02*
D03*
X601300Y653000D02*
D03*
X310000Y666000D02*
D03*
X307000Y635000D02*
D03*
X313000D02*
D03*
X313000Y724000D02*
D03*
X307000D02*
D03*
X327000Y654000D02*
D03*
X310000Y733000D02*
D03*
X295000Y662000D02*
D03*
X300000Y638000D02*
D03*
X320000D02*
D03*
X510000Y781000D02*
D03*
X530000D02*
D03*
X513000Y813000D02*
D03*
X523000D02*
D03*
X521000Y797000D02*
D03*
X893300Y608000D02*
D03*
X515000Y797000D02*
D03*
X893300Y602000D02*
D03*
X536000Y794000D02*
D03*
X666500Y777000D02*
D03*
X536000Y800000D02*
D03*
X672500Y777000D02*
D03*
X122000Y740000D02*
D03*
Y746000D02*
D03*
X490000Y794000D02*
D03*
X490000Y800000D02*
D03*
X543000Y688000D02*
D03*
X289250Y815000D02*
D03*
X283250D02*
D03*
X612000Y715000D02*
D03*
X629000Y403000D02*
D03*
X612000Y721000D02*
D03*
X635000Y403000D02*
D03*
X618000Y891000D02*
D03*
Y885000D02*
D03*
X585000Y848000D02*
D03*
X205000Y813000D02*
D03*
X1119650Y746100D02*
D03*
D126*
X192000Y887000D02*
D03*
X536000Y997000D02*
D03*
X1155000Y891000D02*
D03*
X1139000Y899000D02*
D03*
X1122000Y930000D02*
D03*
X1122000Y914000D02*
D03*
X978000Y875000D02*
D03*
X1070000D02*
D03*
X1090000Y706000D02*
D03*
X1070000Y764000D02*
D03*
X1071000Y740000D02*
D03*
X1070000Y844000D02*
D03*
Y813000D02*
D03*
X1057000Y670000D02*
D03*
X1041000D02*
D03*
X1039000Y779000D02*
D03*
Y795000D02*
D03*
X982000Y571000D02*
D03*
X1127000Y613000D02*
D03*
X33000Y416500D02*
D03*
X86000D02*
D03*
Y101000D02*
D03*
X39000D02*
D03*
X121500Y152500D02*
D03*
Y135000D02*
D03*
X339000Y564501D02*
D03*
X345000Y529000D02*
D03*
X862000Y536000D02*
D03*
Y520000D02*
D03*
X802000Y545000D02*
D03*
X786000Y567000D02*
D03*
Y545000D02*
D03*
X667000Y872000D02*
D03*
X592000Y317000D02*
D03*
X576000D02*
D03*
X478000Y322000D02*
D03*
X494000D02*
D03*
X224000Y958000D02*
D03*
X208000D02*
D03*
X192000D02*
D03*
X281000Y932000D02*
D03*
Y916000D02*
D03*
X248000Y763000D02*
D03*
X264000D02*
D03*
X178000Y933000D02*
D03*
Y949000D02*
D03*
X199000Y705000D02*
D03*
X183000Y705000D02*
D03*
X182000Y640000D02*
D03*
X64000Y747000D02*
D03*
Y731000D02*
D03*
X118000Y776000D02*
D03*
X110000Y789000D02*
D03*
X99000Y652000D02*
D03*
Y636000D02*
D03*
X40000Y206000D02*
D03*
X33000Y162000D02*
D03*
X682800Y1054200D02*
D03*
X667800D02*
D03*
X683000Y872000D02*
D03*
X671000Y936000D02*
D03*
X687000Y936000D02*
D03*
X727000Y823000D02*
D03*
X741000Y841000D02*
D03*
X748000Y819000D02*
D03*
X760350Y777350D02*
D03*
X667000Y896000D02*
D03*
X683000D02*
D03*
X1262000Y935000D02*
D03*
Y903000D02*
D03*
X1135000Y970000D02*
D03*
X1153000Y954000D02*
D03*
X1262000Y919000D02*
D03*
X897000Y857000D02*
D03*
Y805000D02*
D03*
Y821000D02*
D03*
X957000Y765000D02*
D03*
X1242000Y616000D02*
D03*
X1226000D02*
D03*
X1243000Y585000D02*
D03*
X1226000D02*
D03*
X1222000Y387000D02*
D03*
X1238000D02*
D03*
X1197000Y412000D02*
D03*
Y428000D02*
D03*
X1000000Y380500D02*
D03*
Y396500D02*
D03*
X957000Y781000D02*
D03*
X953000Y715000D02*
D03*
X957000Y811000D02*
D03*
Y831000D02*
D03*
Y851000D02*
D03*
X897000Y839000D02*
D03*
Y745000D02*
D03*
Y727000D02*
D03*
Y779000D02*
D03*
Y763000D02*
D03*
X40000Y222000D02*
D03*
X1011000Y875000D02*
D03*
X1150000Y870000D02*
D03*
X994000Y875000D02*
D03*
X1151000Y970000D02*
D03*
X1226000Y481000D02*
D03*
X1210000D02*
D03*
X226000Y692050D02*
D03*
Y653950D02*
D03*
X984000Y508000D02*
D03*
X1000000D02*
D03*
X900000Y355000D02*
D03*
M02*
